<?xml version="1.0" encoding="UTF-8" standalone="no"?>
<!DOCTYPE svg PUBLIC "-//W3C//DTD SVG 1.1//EN" "http://www.w3.org/Graphics/SVG/1.1/DTD/svg11.dtd">
<svg width="100%" height="100%" viewBox="0 0 1191 842" version="1.1" xmlns="http://www.w3.org/2000/svg" xmlns:xlink="http://www.w3.org/1999/xlink" xml:space="preserve" xmlns:serif="http://www.serif.com/" style="fill-rule:evenodd;clip-rule:evenodd;stroke-linecap:round;stroke-linejoin:round;stroke-miterlimit:10;">
    <g transform="matrix(1,0,0,1,0,-2.21995)">
        <path d="M475.69,421.677L476.446,421.677L476.446,422.433L475.69,422.433L475.69,421.677M476.399,422.386L475.738,422.386L475.738,421.724L476.399,421.724L476.399,422.386M475.785,421.772L476.352,421.772L475.785,421.772L475.785,422.338L476.352,422.338L476.352,421.772L475.785,421.772M475.832,421.819L476.304,421.819L475.832,421.819L475.832,422.291L476.304,422.291L476.304,421.819L475.832,421.819M475.879,421.866L476.257,421.866L475.879,421.866L475.879,422.244L476.257,422.244L476.257,421.866L475.879,421.866M475.927,421.913L476.21,421.913L476.21,422.197L475.927,422.197L475.927,421.913M476.163,422.149L475.974,422.149L475.974,421.961L476.163,421.961L476.163,422.149M476.021,422.008L476.115,422.008L476.115,422.102L476.021,422.102L476.021,422.008M710.966,421.677L711.722,421.677L711.722,422.433L710.966,422.433L710.966,421.677M711.675,422.386L711.013,422.386L711.013,421.724L711.675,421.724L711.675,422.386M711.06,421.772L711.627,421.772L711.06,421.772L711.06,422.338L711.627,422.338" style="fill:none;fill-rule:nonzero;stroke:black;stroke-width:0.71px;"/>
    </g>
    <g transform="matrix(1,0,0,1,0,-2.21995)">
        <path d="M711.627,422.338L711.627,421.772L711.06,421.772M711.108,421.819L711.58,421.819L711.108,421.819L711.108,422.291L711.58,422.291L711.58,421.819L711.108,421.819M711.155,421.866L711.533,421.866L711.155,421.866L711.155,422.244L711.533,422.244L711.533,421.866L711.155,421.866M711.202,421.913L711.486,421.913L711.486,422.197L711.202,422.197L711.202,421.913M711.438,422.149L711.249,422.149L711.249,421.961L711.438,421.961L711.438,422.149M711.297,422.008L711.391,422.008L711.391,422.102L711.297,422.102L711.297,422.008" style="fill:none;fill-rule:nonzero;stroke:black;stroke-width:0.71px;"/>
    </g>
    <g transform="matrix(0.707107,-0.707107,-0.707107,-0.707107,296.031,1120.61)">
        <path d="M474.414,217.98C479.964,212.43 488.962,212.43 494.512,217.98" style="fill:none;fill-rule:nonzero;stroke:black;stroke-width:0.71px;"/>
    </g>
    <g transform="matrix(1,0,0,1,0,377.623)">
        <path d="M491.569,239.182L484.572,239.182M477.357,253.394L476.068,253.394M484.572,210.874L476.068,210.874M484.572,210.874L484.572,239.182" style="fill:none;fill-rule:nonzero;stroke:black;stroke-width:0.71px;"/>
    </g>
    <g transform="matrix(0.707106,0.707108,0.707108,-0.707106,51.7545,280.984)">
        <path d="M692.9,217.98C698.45,212.43 707.448,212.43 712.999,217.98" style="fill:none;fill-rule:nonzero;stroke:black;stroke-width:0.71px;"/>
    </g>
    <g transform="matrix(1,0,0,1,0,377.623)">
        <path d="M695.843,239.182L702.84,239.182M710.055,253.394L711.344,253.394M702.84,210.874L711.344,210.874M702.84,210.874L702.84,239.182M484.572,239.182L494.493,239.182L494.493,229.26L484.572,229.26L484.572,239.182M494.493,239.182L504.415,239.182L504.415,229.26L494.493,229.26L494.493,239.182M695.843,239.182L702.84,239.182L692.919,239.182L692.919,229.26L702.84,229.26L702.84,239.182M692.919,239.182L682.997,239.182L682.997,229.26L692.919,229.26L692.919,239.182M596.631,239.182L603.627,239.182M596.631,239.182L603.627,239.182L593.706,239.182L593.706,229.26L603.627,229.26L603.627,239.182M593.706,239.182L583.785,239.182L583.785,229.26L593.706,229.26L593.706,239.182M583.785,239.182L504.415,239.182L504.415,229.26L583.785,229.26L583.785,239.182M682.997,239.182L603.627,239.182L603.627,229.26L682.997,229.26L682.997,239.182M494.493,239.182L504.415,239.182L504.415,229.26L494.493,229.26L494.493,239.182M504.415,234.221L583.785,234.221M603.627,234.221L682.997,234.221M494.493,249.103L495.496,249.103M497.48,249.103L503.15,249.103" style="fill:none;fill-rule:nonzero;stroke:black;stroke-width:0.71px;"/>
    </g>
    <g transform="matrix(0.707107,-0.707107,-0.707107,-0.707107,296.978,1128.53)">
        <rect x="494.243" y="214.914" width="0.501" height="0.501"/>
    </g>
    <g transform="matrix(0.707107,-0.707107,-0.707107,-0.707107,299.884,1135.54)">
        <rect x="504.164" y="214.914" width="0.501" height="0.501"/>
    </g>
    <g transform="matrix(1,0,0,1,0,401.64)">
        <path d="M504.415,225.086L504.415,220.282M504.415,218.298L504.415,215.165" style="fill:none;fill-rule:nonzero;stroke:black;stroke-width:0.71px;"/>
    </g>
    <g transform="matrix(-0.707137,-0.707077,-0.707077,0.707137,1013.24,831.235)">
        <rect x="504.164" y="214.914" width="0.501" height="0.501"/>
    </g>
    <g transform="matrix(-0.707107,-0.707107,-0.707107,0.707107,1020.25,814.319)">
        <rect x="504.164" y="224.835" width="0.501" height="0.501"/>
    </g>
    <g transform="matrix(1,0,0,1,0,391.718)">
        <path d="M494.493,225.086L495.496,225.086M497.48,225.086L503.15,225.086" style="fill:none;fill-rule:nonzero;stroke:black;stroke-width:0.71px;"/>
    </g>
    <g transform="matrix(0.707107,-0.707107,-0.707107,-0.707107,303.994,1125.62)">
        <rect x="494.243" y="224.835" width="0.501" height="0.501"/>
    </g>
    <g transform="matrix(0.707107,-0.707107,-0.707107,-0.707107,306.899,1132.64)">
        <rect x="504.164" y="224.835" width="0.501" height="0.501"/>
    </g>
    <g transform="matrix(1,0,0,1,0,401.64)">
        <path d="M494.493,225.086L494.493,220.282M494.493,218.298L494.493,215.165" style="fill:none;fill-rule:nonzero;stroke:black;stroke-width:0.71px;"/>
    </g>
    <g transform="matrix(-0.707137,-0.707077,-0.707077,0.707137,996.306,824.219)">
        <rect x="494.243" y="214.914" width="0.501" height="0.501"/>
    </g>
    <g transform="matrix(-0.707107,-0.707107,-0.707107,0.707107,1003.31,807.304)">
        <rect x="494.243" y="224.835" width="0.501" height="0.501"/>
    </g>
    <g transform="matrix(1,0,0,1,0,582.576)">
        <path d="M494.493,129.657L495.496,129.657M497.48,129.657L503.15,129.657" style="fill:none;fill-rule:nonzero;stroke:black;stroke-width:0.71px;"/>
    </g>
    <g transform="matrix(0.707107,-0.707107,-0.707107,-0.707107,236.515,1153.57)">
        <rect x="494.243" y="129.406" width="0.501" height="0.501"/>
    </g>
    <g transform="matrix(0.707107,-0.707107,-0.707107,-0.707107,239.421,1160.59)">
        <rect x="504.164" y="129.406" width="0.501" height="0.501"/>
    </g>
    <g transform="matrix(1,0,0,1,0,572.202)">
        <path d="M504.415,139.578L504.415,133.909M504.415,131.925L504.415,130.11" style="fill:none;fill-rule:nonzero;stroke:black;stroke-width:0.71px;"/>
    </g>
    <g transform="matrix(-0.707107,-0.707107,-0.707107,0.707107,952.771,977.227)">
        <rect x="504.164" y="129.406" width="0.501" height="0.501"/>
    </g>
    <g transform="matrix(-0.707107,-0.707107,-0.707107,0.707107,959.786,960.29)">
        <rect x="504.164" y="139.328" width="0.501" height="0.501"/>
    </g>
    <g transform="matrix(1,0,0,1,0,562.734)">
        <path d="M494.493,139.578L495.496,139.578M497.48,139.578L503.15,139.578" style="fill:none;fill-rule:nonzero;stroke:black;stroke-width:0.71px;"/>
    </g>
    <g transform="matrix(0.707137,-0.707077,-0.707077,-0.707137,243.511,1150.66)">
        <rect x="494.243" y="139.328" width="0.501" height="0.501"/>
    </g>
    <g transform="matrix(0.707137,-0.707077,-0.707077,-0.707137,246.417,1157.67)">
        <rect x="504.164" y="139.328" width="0.501" height="0.501"/>
    </g>
    <g transform="matrix(1,0,0,1,0,572.202)">
        <path d="M494.493,139.578L494.493,133.909M494.493,131.925L494.493,130.11" style="fill:none;fill-rule:nonzero;stroke:black;stroke-width:0.71px;"/>
    </g>
    <g transform="matrix(-0.707107,-0.707107,-0.707107,0.707107,935.834,970.211)">
        <rect x="494.243" y="129.406" width="0.501" height="0.501"/>
    </g>
    <g transform="matrix(-0.707107,-0.707107,-0.707107,0.707107,942.85,953.275)">
        <rect x="494.243" y="139.328" width="0.501" height="0.501"/>
    </g>
    <g transform="matrix(1,0,0,1,0,411.561)">
        <path d="M505.134,215.165L510.803,215.165M512.787,215.165L514.336,215.165" style="fill:none;fill-rule:nonzero;stroke:black;stroke-width:0.71px;"/>
    </g>
    <g transform="matrix(0.707107,-0.707107,-0.707107,-0.707107,299.884,1135.54)">
        <rect x="504.164" y="214.914" width="0.501" height="0.501"/>
    </g>
    <g transform="matrix(0.707077,-0.707137,-0.707137,-0.707077,302.812,1142.57)">
        <rect x="514.085" y="214.914" width="0.501" height="0.501"/>
    </g>
    <g transform="matrix(1,0,0,1,0,401.64)">
        <path d="M514.336,225.086L514.336,220.282M514.336,218.298L514.336,215.165" style="fill:none;fill-rule:nonzero;stroke:black;stroke-width:0.71px;"/>
    </g>
    <g transform="matrix(-0.707107,-0.707107,-0.707107,0.707107,1030.17,838.271)">
        <rect x="514.085" y="214.914" width="0.501" height="0.501"/>
    </g>
    <g transform="matrix(-0.707077,-0.707137,-0.707137,0.707077,1037.18,821.357)">
        <rect x="514.085" y="224.835" width="0.501" height="0.501"/>
    </g>
    <g transform="matrix(1,0,0,1,0,391.718)">
        <path d="M505.134,225.086L510.803,225.086M512.787,225.086L514.336,225.086" style="fill:none;fill-rule:nonzero;stroke:black;stroke-width:0.71px;"/>
    </g>
    <g transform="matrix(0.707107,-0.707107,-0.707107,-0.707107,306.899,1132.64)">
        <rect x="504.164" y="224.835" width="0.501" height="0.501"/>
    </g>
    <g transform="matrix(0.707077,-0.707137,-0.707137,-0.707077,309.827,1139.66)">
        <rect x="514.085" y="224.835" width="0.501" height="0.501"/>
    </g>
    <g transform="matrix(1,0,0,1,0,401.64)">
        <path d="M504.415,225.086L504.415,220.282M504.415,218.298L504.415,215.165" style="fill:none;fill-rule:nonzero;stroke:black;stroke-width:0.71px;"/>
    </g>
    <g transform="matrix(-0.707137,-0.707077,-0.707077,0.707137,1013.24,831.235)">
        <rect x="504.164" y="214.914" width="0.501" height="0.501"/>
    </g>
    <g transform="matrix(-0.707107,-0.707107,-0.707107,0.707107,1020.25,814.319)">
        <rect x="504.164" y="224.835" width="0.501" height="0.501"/>
    </g>
    <g transform="matrix(1,0,0,1,0,582.576)">
        <path d="M505.134,129.657L510.803,129.657M512.787,129.657L514.336,129.657" style="fill:none;fill-rule:nonzero;stroke:black;stroke-width:0.71px;"/>
    </g>
    <g transform="matrix(0.707107,-0.707107,-0.707107,-0.707107,239.421,1160.59)">
        <rect x="504.164" y="129.406" width="0.501" height="0.501"/>
    </g>
    <g transform="matrix(0.707077,-0.707137,-0.707137,-0.707077,242.346,1167.62)">
        <rect x="514.085" y="129.406" width="0.501" height="0.501"/>
    </g>
    <g transform="matrix(1,0,0,1,0,572.202)">
        <path d="M514.336,139.578L514.336,133.909M514.336,131.925L514.336,130.11" style="fill:none;fill-rule:nonzero;stroke:black;stroke-width:0.71px;"/>
    </g>
    <g transform="matrix(-0.707077,-0.707137,-0.707137,0.707077,969.696,984.262)">
        <rect x="514.085" y="129.406" width="0.501" height="0.501"/>
    </g>
    <g transform="matrix(-0.707077,-0.707137,-0.707137,0.707077,976.712,967.325)">
        <rect x="514.085" y="139.328" width="0.501" height="0.501"/>
    </g>
    <g transform="matrix(1,0,0,1,0,562.734)">
        <path d="M505.134,139.578L510.803,139.578M512.787,139.578L514.336,139.578" style="fill:none;fill-rule:nonzero;stroke:black;stroke-width:0.71px;"/>
    </g>
    <g transform="matrix(0.707137,-0.707077,-0.707077,-0.707137,246.417,1157.67)">
        <rect x="504.164" y="139.328" width="0.501" height="0.501"/>
    </g>
    <g transform="matrix(0.707107,-0.707107,-0.707107,-0.707107,249.342,1164.7)">
        <rect x="514.085" y="139.328" width="0.501" height="0.501"/>
    </g>
    <g transform="matrix(1,0,0,1,0,572.202)">
        <path d="M504.415,139.578L504.415,133.909M504.415,131.925L504.415,130.11" style="fill:none;fill-rule:nonzero;stroke:black;stroke-width:0.71px;"/>
    </g>
    <g transform="matrix(-0.707107,-0.707107,-0.707107,0.707107,952.771,977.227)">
        <rect x="504.164" y="129.406" width="0.501" height="0.501"/>
    </g>
    <g transform="matrix(-0.707107,-0.707107,-0.707107,0.707107,959.786,960.29)">
        <rect x="504.164" y="139.328" width="0.501" height="0.501"/>
    </g>
    <g transform="matrix(1,0,0,1,0,486.694)">
        <path d="M494.493,225.086L494.493,219.417M494.493,217.432L494.493,211.763M494.493,209.779L494.493,204.109M494.493,202.125L494.493,196.456M494.493,194.472L494.493,188.802M494.493,186.818L494.493,181.149M494.493,179.165L494.493,173.495M494.493,171.511L494.493,165.842M494.493,163.858L494.493,158.188M494.493,156.204L494.493,150.535M494.493,148.55L494.493,142.881M494.493,140.897L494.493,135.228M494.493,133.243L494.493,130.11" style="fill:none;fill-rule:nonzero;stroke:black;stroke-width:0.71px;"/>
    </g>
    <g transform="matrix(-0.707107,-0.707107,-0.707107,0.707107,935.834,970.211)">
        <rect x="494.243" y="129.406" width="0.501" height="0.501"/>
    </g>
    <g transform="matrix(-0.707107,-0.707107,-0.707107,0.707107,1003.31,807.304)">
        <rect x="494.243" y="224.835" width="0.501" height="0.501"/>
    </g>
    <g transform="matrix(1,0,0,1,0,487.147)">
        <path d="M504.415,215.165L504.415,211.31M504.415,209.325L504.415,203.656M504.415,201.672L504.415,196.003M504.415,194.018L504.415,188.349M504.415,186.365L504.415,180.696M504.415,178.711L504.415,173.042M504.415,171.058L504.415,165.388M504.415,163.404L504.415,157.735M504.415,155.751L504.415,150.081M504.415,148.097L504.415,142.428M504.415,140.444L504.415,139.578" style="fill:none;fill-rule:nonzero;stroke:black;stroke-width:0.71px;"/>
    </g>
    <g transform="matrix(-0.707107,-0.707107,-0.707107,0.707107,959.786,960.29)">
        <rect x="504.164" y="139.328" width="0.501" height="0.501"/>
    </g>
    <g transform="matrix(-0.707137,-0.707077,-0.707077,0.707137,1013.24,831.235)">
        <rect x="504.164" y="214.914" width="0.501" height="0.501"/>
    </g>
    <g transform="matrix(1,0,0,1,0,486.694)">
        <path d="M504.415,225.086L504.415,219.417M504.415,217.432L504.415,211.763M504.415,209.779L504.415,204.109M504.415,202.125L504.415,196.456M504.415,194.472L504.415,188.802M504.415,186.818L504.415,181.149M504.415,179.165L504.415,173.495M504.415,171.511L504.415,165.842M504.415,163.858L504.415,158.188M504.415,156.204L504.415,150.535M504.415,148.55L504.415,142.881M504.415,140.897L504.415,135.228M504.415,133.243L504.415,130.11" style="fill:none;fill-rule:nonzero;stroke:black;stroke-width:0.71px;"/>
    </g>
    <g transform="matrix(-0.707107,-0.707107,-0.707107,0.707107,952.771,977.227)">
        <rect x="504.164" y="129.406" width="0.501" height="0.501"/>
    </g>
    <g transform="matrix(-0.707107,-0.707107,-0.707107,0.707107,1020.25,814.319)">
        <rect x="504.164" y="224.835" width="0.501" height="0.501"/>
    </g>
    <g transform="matrix(1,0,0,1,0,487.147)">
        <path d="M514.336,215.165L514.336,211.31M514.336,209.325L514.336,203.656M514.336,201.672L514.336,196.003M514.336,194.018L514.336,188.349M514.336,186.365L514.336,180.696M514.336,178.711L514.336,173.042M514.336,171.058L514.336,165.388M514.336,163.404L514.336,157.735M514.336,155.751L514.336,150.081M514.336,148.097L514.336,142.428M514.336,140.444L514.336,139.578" style="fill:none;fill-rule:nonzero;stroke:black;stroke-width:0.71px;"/>
    </g>
    <g transform="matrix(-0.707077,-0.707137,-0.707137,0.707077,976.712,967.325)">
        <rect x="514.085" y="139.328" width="0.501" height="0.501"/>
    </g>
    <g transform="matrix(-0.707107,-0.707107,-0.707107,0.707107,1030.17,838.271)">
        <rect x="514.085" y="214.914" width="0.501" height="0.501"/>
    </g>
    <g transform="matrix(1,0,0,1,0,70.353)">
        <path d="M478.596,560.609L710.055,560.663M711.344,265.803L593.706,265.803M476.068,265.803L593.706,265.803M519.031,215.85L518.636,216.064L518.24,216.258L517.844,216.413L517.448,216.51L516.52,216.461L515.589,216.115L514.653,215.604L513.71,215.058L511.058,213.943L508.361,213.308L505.641,212.898L502.919,212.459L500.86,211.99L498.801,211.485L496.731,211.071L494.637,210.874L493.617,210.895L492.602,211.015L491.603,211.251L490.635,211.622L489.913,212.015L489.253,212.499L488.69,213.073L488.26,213.735L488.056,214.241L487.921,214.778L487.846,215.331L487.821,215.891L487.99,217.656L488.466,219.365L489.159,221.02L489.976,222.625L490.557,223.679L491.162,224.708L491.801,225.708L492.482,226.674L494.307,228.849L496.326,230.876L498.435,232.827L500.53,234.772L502.205,236.434L503.82,238.15L505.399,239.93L506.964,241.781L507.524,242.472L508.045,243.181L508.487,243.916" style="fill:none;fill-rule:nonzero;stroke:black;stroke-width:0.71px;"/>
    </g>
    <g transform="matrix(1,0,0,1,0,-193.217)">
        <path d="M508.487,507.486L508.811,508.256L509.032,509.521L509.013,510.853L508.892,512.218L508.811,513.581L508.863,514.818L509.018,516.036L509.222,517.248L509.426,518.466L509.558,519.429L509.664,520.395L509.749,521.355L509.82,522.301L509.872,523.108L509.904,523.919L509.907,524.756L509.866,525.64L509.834,526.094L509.832,526.535L509.902,526.936L510.086,527.269L510.189,527.368L510.307,527.457L510.436,527.541L510.57,527.621L510.732,527.426L510.885,527.228L511.019,527.024L511.126,526.81L511.226,526.442L511.255,526.049L511.237,525.643L511.195,525.234L511.12,524.524L511.064,523.829L511.043,523.143L511.074,522.462L511.146,521.903L511.253,521.345L511.383,520.786L511.524,520.227L511.82,520.91L512.108,521.595L512.381,522.286L512.631,522.985L512.834,523.638L513.008,524.3L513.147,524.972L513.248,525.654L513.319,526.399" style="fill:none;fill-rule:nonzero;stroke:black;stroke-width:0.71px;"/>
    </g>
    <g transform="matrix(1,0,0,1,0,-179.29)">
        <path d="M513.319,512.472L513.39,513.216L513.509,513.946L513.726,514.648L513.831,514.877L513.959,515.093L514.119,515.291L514.315,515.463L514.509,515.579L514.719,515.659L514.931,515.69L515.129,515.659L515.245,515.602L515.351,515.522L515.452,515.426L515.55,515.322L515.738,515.308L515.929,515.297L516.128,515.291L516.336,515.294L516.541,515.304L516.741,515.305L516.922,515.28L517.066,515.21L517.163,515.084L517.221,514.914L517.25,514.716L517.263,514.507L517.259,513.803L517.212,513.155L517.148,512.536L517.094,511.923L517.069,511.089L517.079,510.233L517.097,509.364L517.094,508.495L517.057,507.737L516.992,506.984L516.908,506.236L516.814,505.489M515.55,515.322L515.53,514.419L515.509,513.514L515.488,512.607L515.466,511.698L515.442,510.854L515.396,510.011L515.309,509.177L515.157,508.355L515.019,507.836L514.855,507.322L514.674,506.812" style="fill:none;fill-rule:nonzero;stroke:black;stroke-width:0.71px;"/>
    </g>
    <g transform="matrix(1,0,0,1,0,-210.237)">
        <path d="M514.674,537.759L514.484,537.251M517.128,543.284L517.402,543.259L517.667,543.22L517.916,543.151L518.138,543.038L518.305,542.895L518.448,542.719L518.57,542.52L518.671,542.307L518.923,541.363L518.95,540.391L518.859,539.401L518.755,538.402L518.716,537.551L518.686,536.709L518.606,535.885L518.419,535.087L518.288,534.741L518.14,534.399L517.991,534.057L517.857,533.711L517.651,532.887L517.567,532.035L517.565,531.164L517.604,530.283M518.582,535.736L518.808,535.609L519.023,535.477L519.215,535.333L519.373,535.172L519.59,534.673L519.608,534.071L519.516,533.408L519.401,532.727L519.316,531.713L519.296,530.753L519.252,529.838L519.092,528.963L518.83,528.278L518.47,527.608L518.049,526.949L517.604,526.294L516.21,524.136L514.904,521.982L513.619,519.847L512.291,517.746L511.035,515.916L509.724,514.108L508.392,512.307L507.069,510.498L505.902,508.843" style="fill:none;fill-rule:nonzero;stroke:black;stroke-width:0.71px;"/>
    </g>
    <g transform="matrix(1,0,0,1,0,-272.158)">
        <path d="M505.902,570.764L504.76,569.095L503.636,567.416L502.521,565.733L504.564,566.799L506.617,567.835L508.688,568.81L510.787,569.696L512.994,570.496L515.24,571.205L517.523,571.858L519.843,572.492L521.154,572.841L522.467,573.138L523.775,573.326L525.07,573.348L525.826,573.264L526.581,573.109L527.341,572.893L528.111,572.622L528.793,572.341L529.432,572L529.975,571.576L530.364,571.044L530.496,570.701L530.573,570.331L530.601,569.945L530.59,569.556L530.448,568.723L530.172,567.932L529.79,567.187L529.328,566.49L527.951,564.949L526.35,563.629L524.628,562.431L522.885,561.259L521.898,560.556L520.931,559.834L519.978,559.101L519.031,558.361L519.427,557.038L519.851,555.731L520.333,554.457L520.902,553.233L522.531,550.742L524.565,548.5L526.842,546.436L529.203,544.479L530.737,543.216L532.257,541.959L533.782,540.7" style="fill:none;fill-rule:nonzero;stroke:black;stroke-width:0.71px;"/>
    </g>
    <g transform="matrix(1,0,0,1,0,-278.689)">
        <path d="M533.782,547.23L535.331,545.959L536.522,545.003L537.746,544.1L539.013,543.315L540.333,542.713L541.931,542.281L543.594,541.996L545.305,541.675L547.046,541.134L548.253,540.58L549.434,540.03L550.559,539.683L551.597,539.737L552.21,540.056L552.786,540.555L553.336,541.163L553.872,541.811L555.021,543.151L556.127,544.42L557.152,545.692L558.062,547.041L558.43,547.697L558.779,548.374L559.118,549.061L559.459,549.747L559.742,550.294L560.033,550.836L560.329,551.375L560.63,551.911L561.489,553.431L562.317,554.97L563.056,556.546L563.649,558.179L564.068,559.967L564.278,561.804L564.299,563.654L564.145,565.483L563.857,567.181L563.466,568.856L563.008,570.536L562.523,572.247L562.023,574.001L561.44,575.713L560.676,577.281L559.639,578.605L558.374,579.545L556.88,580.215L555.244,580.644L553.556,580.859L552.123,580.895" style="fill:none;fill-rule:nonzero;stroke:black;stroke-width:0.71px;"/>
    </g>
    <g transform="matrix(1,0,0,1,0,-269.202)">
        <path d="M552.123,571.409L550.719,571.317L549.348,571.107L548.014,570.787L546.271,570.164L544.671,569.229L543.948,568.604L543.287,567.854L542.697,566.963L542.188,565.915L541.753,564.732L541.344,563.62L540.894,562.82L540.34,562.578L540.034,562.711L539.7,562.971L539.349,563.317L538.988,563.706M551.806,571.399L550.324,571.542L548.86,571.612L547.434,571.534L546.062,571.236L544.708,570.633L543.455,569.774L542.323,568.721L541.331,567.538L540.688,566.605L540.103,565.647L539.547,564.677L538.988,563.706L538.479,562.876L537.924,562.076L537.305,561.323L536.6,560.639L535.713,559.967L534.79,559.336L533.928,558.681L533.221,557.934L532.61,556.65L532.377,555.15L532.409,553.532L532.59,551.892L532.845,550.231L533.176,548.65L533.62,547.146L534.212,545.714L534.978,544.353L535.89,543.049L536.909,541.794L537.997,540.574L539.035,539.481" style="fill:none;fill-rule:nonzero;stroke:black;stroke-width:0.71px;"/>
    </g>
    <g transform="matrix(1,0,0,1,0,-283.935)">
        <path d="M539.035,554.214L540.119,553.188L541.268,552.274L542.503,551.52L543.764,550.982L545.1,550.597L546.489,550.335L547.91,550.167L549.385,550.072L550.847,550.091L552.271,550.272L553.632,550.663L554.535,551.079L555.398,551.595L556.223,552.186L557.012,552.827L557.677,553.413L558.323,554.012L558.956,554.622L559.583,555.235M554.395,575.754L554.448,574.67L554.53,573.593L554.671,572.529L554.901,571.484L555.258,570.395L555.67,569.319L556.059,568.239L556.347,567.141L556.45,566.412L556.496,565.672L556.503,564.925L556.492,564.174M535.12,574.296L534.159,573.719L533.199,573.128L532.241,572.509L531.286,571.849L530.107,570.943L529.024,569.936L528.125,568.818L527.5,567.576L527.24,566.451L527.197,565.265L527.342,564.053L527.642,562.848L528.032,561.782L528.535,560.789L529.161,559.906L529.92,559.173L530.893,558.572L531.982,558.132L533.136,557.792" style="fill:none;fill-rule:nonzero;stroke:black;stroke-width:0.71px;"/>
    </g>
    <g transform="matrix(1,0,0,1,0,-250.694)">
        <path d="M533.136,524.55L534.303,524.25L534.896,524.093L535.482,523.932L536.062,523.768L536.64,523.603M543.611,551.389L542.75,551.894L541.879,552.368L540.987,552.781L540.064,553.102L538.274,553.388L536.424,553.305L534.593,552.897L532.861,552.212L532.053,551.781L531.277,551.306L530.524,550.803L529.782,550.285M547.183,552.99L547.36,553.568L547.575,554.104L547.866,554.555L548.272,554.879L548.683,555.02L549.136,555.058L549.584,554.992L549.975,554.822L550.318,554.491L550.55,554.052L550.707,553.539L550.826,552.989M541.737,568.981L542.655,568.792L543.564,568.583L544.452,568.332L545.31,568.019L546.814,567.236L548.226,566.255L549.59,565.164L550.954,564.051L552.395,562.947L553.826,561.854L555.188,560.714L556.422,559.466L557.277,558.386L558.081,557.25L558.898,556.105L559.79,555L561.221,553.56L562.682,552.152L563.348,551.418L563.93,550.641L564.398,549.804" style="fill:none;fill-rule:nonzero;stroke:black;stroke-width:0.71px;"/>
    </g>
    <g transform="matrix(1,0,0,1,0,-230.492)">
        <path d="M564.398,529.602L564.722,528.688L564.732,528.643L564.742,528.599L564.751,528.555L564.757,528.511L564.744,528.23L564.654,527.954L564.514,527.685L564.35,527.419L563.847,526.621L563.365,525.851L562.897,525.099L562.437,524.357M541.05,548.025L542.184,547.246L543.301,546.449L544.383,545.614L545.413,544.724L546.469,543.67L547.462,542.548L548.413,541.383L549.343,540.195M540.063,544.872L539.753,544.061L539.466,543.246L539.224,542.425L539.051,541.594L538.946,540.477L538.94,539.345L538.975,538.205L538.991,537.065L538.953,536.083L538.87,535.107L538.758,534.133L538.632,533.161M538.306,544.127L537.335,542.977L536.381,541.813L535.458,540.621L534.584,539.389L534.044,538.548L533.547,537.682L533.106,536.791L532.738,535.873L532.418,534.8L532.181,533.701L532,532.584L531.846,531.458M556.221,541.683L557.563,539.882L558.922,538.093L560.317,536.33L561.765,534.605L562.876,533.367" style="fill:none;fill-rule:nonzero;stroke:black;stroke-width:0.71px;"/>
    </g>
    <g transform="matrix(1,0,0,1,0,-274.198)">
        <path d="M562.876,577.074L564.036,575.883L565.255,574.759L566.544,573.72L567.151,573.283L567.77,572.862L568.397,572.451L569.029,572.046M575.873,566.304L576.521,565.623L577.158,564.933L577.774,564.223L578.359,563.482L578.994,562.556L579.553,561.581L580.016,560.564L580.366,559.512L580.62,558.242L580.738,556.943L580.766,555.626L580.748,554.299M555.417,539.112L556.302,539.065L557.189,539.029L558.083,539.015L558.986,539.033L560.225,539.132L561.447,539.35L562.609,539.724L563.669,540.294L564.495,540.983L565.198,541.817L565.766,542.761L566.19,543.777L566.466,544.855L566.595,545.955L566.592,547.063L566.472,548.163L566.329,548.937L566.169,549.706L566.023,550.475L565.927,551.25L565.923,552.405L566.083,553.559L566.39,554.689L566.83,555.768L567.605,557.116L568.538,558.36L569.573,559.535L570.653,560.674L571.981,562.073L573.292,563.474L574.589,564.883" style="fill:none;fill-rule:nonzero;stroke:black;stroke-width:0.71px;"/>
    </g>
    <g transform="matrix(1,0,0,1,0,-228.301)">
        <path d="M574.589,518.985L575.873,520.406L577.144,521.838L578.406,523.28L579.665,524.723L580.922,526.162L582.186,527.591L583.465,529.007L584.775,530.407L586.127,531.792L587.358,532.979L588.649,534.09L590.018,535.06L591.483,535.827L592.145,536.083L592.823,536.31L593.512,536.53L594.208,536.764L595.351,537.222L596.433,537.8L597.388,538.522L598.15,539.413L598.357,539.765L598.535,540.136L598.686,540.522L598.812,540.919L599.037,542.025L599.107,543.155L599.037,544.28L598.842,545.375L598.677,545.998L598.49,546.618L598.299,547.247L598.12,547.904L598.004,548.379L597.868,548.841L597.677,549.256L597.398,549.59L597.25,549.697L597.087,549.79L596.914,549.873L596.736,549.951L596.68,550.226L596.613,550.488L596.525,550.722L596.405,550.915L595.98,551.169L595.4,551.206L594.735,551.097L594.058,550.915L593.229,550.651" style="fill:none;fill-rule:nonzero;stroke:black;stroke-width:0.71px;"/>
    </g>
    <g transform="matrix(1,0,0,1,0,-224.66)">
        <path d="M593.229,547.009L592.487,546.724L591.817,546.396L591.2,546.009L590.187,545.126L589.284,544.047L588.482,542.835L587.77,541.553L586.968,539.897L586.22,538.257L585.444,536.661L584.564,535.136L583.448,533.619L582.169,532.203L580.771,530.876L579.299,529.626L577.615,528.31L575.898,527.062L574.147,525.868L572.365,524.715L571.518,524.181L570.673,523.642L569.84,523.088L569.029,522.508L567.401,521.165L565.875,519.697L564.418,518.145L562.995,516.552M596.736,546.31L596.332,546.053L595.933,545.791L595.543,545.519L595.167,545.23L594.529,544.655L593.937,544.026L593.375,543.363L592.83,542.681M593.487,549.735L594.13,549.783L594.778,549.831L595.436,549.881L596.11,549.932L597.013,549.994L597.91,549.998L598.762,549.88L599.528,549.578L599.945,549.279L600.331,548.917L600.702,548.522L601.076,548.125L602.641,546.85L604.399,545.873L606.265,545.069" style="fill:none;fill-rule:nonzero;stroke:black;stroke-width:0.71px;"/>
    </g>
    <g transform="matrix(1,0,0,1,0,-216.669)">
        <path d="M606.265,537.078L608.154,536.325L609.527,535.738L610.882,535.131L612.235,534.524L613.604,533.937L615.76,533.116L617.972,532.446L620.221,531.98L622.492,531.773L624.062,531.8L625.633,531.927L627.206,532.106L628.779,532.29L629.897,532.402L631.013,532.512L632.124,532.64L633.229,532.806L634.494,533.059L635.753,533.349L637.013,533.634L638.281,533.874L638.723,533.939L639.166,533.997L639.61,534.049L640.055,534.099L640.338,533.43L640.596,532.756L640.802,532.072L640.931,531.375L640.92,530.099L640.624,528.826L640.083,527.617L639.34,526.534L638.463,525.645L637.466,524.904L636.384,524.279L635.249,523.739L633.369,522.995L631.449,522.399L629.497,521.953L627.522,521.66L625.817,521.527L624.104,521.481L622.386,521.491L620.666,521.529M621.315,523.511L621.973,523.479L622.631,523.453L623.288,523.44L623.945,523.447L624.693,523.482" style="fill:none;fill-rule:nonzero;stroke:black;stroke-width:0.71px;"/>
    </g>
    <g transform="matrix(1,0,0,1,0,-221.298)">
        <path d="M624.693,528.112L625.439,528.173L626.186,528.25L626.932,528.336M597.888,541.778L598.228,541.998L598.568,542.199L598.912,542.36L599.26,542.461L599.95,542.45L600.65,542.216L601.347,541.832L602.029,541.373L603.463,540.312L604.752,539.217L605.896,538.052L606.894,536.78L607.637,535.59L608.312,534.332L608.959,533.042L609.617,531.756L610.136,530.816L610.677,529.893L611.231,528.981L611.793,528.075L611.77,527.873L611.751,527.671L611.739,527.469L611.737,527.267L611.755,526.995L611.796,526.725L611.858,526.459L611.939,526.2L612.364,525.331L612.955,524.552L613.657,523.833L614.417,523.146L615.048,522.599L615.695,522.096L616.372,521.68L617.093,521.394L617.619,521.289L618.165,521.245L618.723,521.242L619.285,521.261L620.328,521.299L621.359,521.31L622.377,521.263L623.381,521.129L623.897,521.016L624.409,520.879L624.92,520.727" style="fill:none;fill-rule:nonzero;stroke:black;stroke-width:0.71px;"/>
    </g>
    <g transform="matrix(1,0,0,1,0,-227.683)">
        <path d="M624.92,527.112L625.43,526.951M616.643,522.336L616.243,522.081L615.841,521.851L615.432,521.673L615.013,521.573L614.566,521.57L614.108,521.651L613.643,521.789L613.176,521.955M611.793,534.46L612.576,534.445L613.367,534.442L614.173,534.462L615,534.516L616.248,534.651L617.49,534.734L618.654,534.615L619.671,534.144L619.885,533.962L620.081,533.755L620.254,533.526L620.396,533.28L620.477,533.101L620.545,532.917L620.606,532.731L620.666,532.544M525.983,528.762L526.496,530.117L527.025,531.466L527.582,532.803L528.181,534.118L528.917,535.552L529.738,536.939L530.661,538.272L531.702,539.542L532.171,540.042L532.67,540.504L533.206,540.902L533.787,541.211L534.583,541.455L535.423,541.598L536.266,541.721L537.076,541.906L538.24,542.465L539.275,543.296L540.241,544.301L541.198,545.383L541.984,546.224L542.809,546.979L543.681,547.575L544.606,547.938L545.861,548.003" style="fill:none;fill-rule:nonzero;stroke:black;stroke-width:0.71px;"/>
    </g>
    <g transform="matrix(1,0,0,1,0,-256.66)">
        <path d="M545.861,576.98L547.186,576.729L548.553,576.339L549.933,575.988L551.992,575.797L554.025,575.953L556.039,576.311L558.04,576.729L561.858,577.35L565.668,577.708L569.487,577.848L573.329,577.816L581.148,577.412L589.253,576.856L589.321,576.852L589.387,576.847L589.45,576.843L589.508,576.839M591.209,555.739L589.477,552.758L587.769,549.765L586.11,546.748L584.524,543.695L583.982,542.604L583.442,541.512L582.893,540.424L582.325,539.343L581.958,538.679L581.575,538.024L581.173,537.383L580.748,536.761L579.736,535.466L578.652,534.225L577.552,532.985L576.495,531.691L575.491,530.285L574.504,528.871L573.45,527.551L572.241,526.43L571.147,525.729L569.977,525.105L568.804,524.45L567.701,523.656L566.902,522.878L566.137,522.07L565.349,521.358L564.479,520.872L563.688,520.708L562.833,520.701L561.941,520.78L561.039,520.872L559.275,520.909" style="fill:none;fill-rule:nonzero;stroke:black;stroke-width:0.71px;"/>
    </g>
    <g transform="matrix(1,0,0,1,0,-279.097)">
        <path d="M559.275,543.347L557.56,543.205L555.876,542.943L554.209,542.622M625.43,578.366L625.866,578.059L626.288,577.741L626.678,577.398L627.023,577.019L627.301,576.612L627.527,576.168L627.708,575.692L627.85,575.192L627.99,574.432L628.024,573.667L627.919,572.933L627.643,572.263L627.144,571.659L626.481,571.189L625.719,570.877L624.923,570.747L624.132,570.805L623.361,570.99L622.596,571.217L621.823,571.401L621.109,571.474L620.388,571.451L619.67,571.343L618.965,571.16L617.801,570.706L616.675,570.166L615.558,569.649L614.419,569.265L613.638,569.13L612.833,569.099L612.003,569.168L611.148,569.334L610.026,569.688L608.99,570.208L608.172,570.902L607.704,571.781L607.63,572.261L607.612,572.767L607.597,573.28L607.532,573.779L607.359,574.289L607.09,574.762L606.749,575.201L606.361,575.606L605.148,576.567L603.799,577.299L602.356,577.83" style="fill:none;fill-rule:nonzero;stroke:black;stroke-width:0.71px;"/>
    </g>
    <g transform="matrix(1,0,0,1,0,-243.721)">
        <path d="M602.356,542.454L600.863,542.818L598.466,543.118L596.054,543.157L593.634,543.022L591.209,542.8" style="fill:none;fill-rule:nonzero;stroke:black;stroke-width:0.71px;"/>
    </g>
    <g transform="matrix(-0.707107,0.707107,0.707107,0.707107,413.252,-257.073)">
        <path d="M375.059,463.894C407.738,431.216 460.72,431.216 493.399,463.894" style="fill:none;fill-rule:nonzero;stroke:black;stroke-width:0.71px;"/>
    </g>
    <g transform="matrix(1,0,0,1,0,-254.56)">
        <path d="M753.835,573.737C767.925,573.737 779.347,562.315 779.347,548.225M779.347,548.225C779.347,534.135 767.925,522.713 753.835,522.713M753.835,522.713C739.745,522.713 728.323,534.135 728.323,548.225M728.323,548.225C728.323,562.315 739.745,573.737 753.835,573.737" style="fill:none;fill-rule:nonzero;stroke:black;stroke-width:0.71px;"/>
    </g>
    <g transform="matrix(-0.707107,-0.707107,-0.707107,0.707107,1613.79,582.554)">
        <path d="M694.013,463.894C726.692,431.216 779.674,431.216 812.353,463.894" style="fill:none;fill-rule:nonzero;stroke:black;stroke-width:0.71px;"/>
    </g>
    <g transform="matrix(0.932025,0,0,1,40.3574,-169.577)">
        <path d="M593.706,505.734L594.992,505.734M596.976,505.734L602.646,505.734M604.63,505.734L610.299,505.734M612.283,505.734L617.953,505.734M619.937,505.734L625.606,505.734M627.591,505.734L633.26,505.734M635.244,505.734L640.913,505.734M642.898,505.734L648.567,505.734M650.551,505.734L656.22,505.734M658.205,505.734L663.874,505.734M665.858,505.734L671.528,505.734M673.512,505.734L679.181,505.734M681.165,505.734L686.835,505.734M688.819,505.734L694.488,505.734M696.472,505.734L702.142,505.734M704.126,505.734L709.795,505.734M711.78,505.734L717.449,505.734M719.433,505.734L725.102,505.734M727.087,505.734L732.756,505.734M734.74,505.734L740.409,505.734M742.394,505.734L748.063,505.734M750.047,505.734L755.717,505.734M757.701,505.734L763.37,505.734M765.354,505.734L771.024,505.734M773.008,505.734L778.677,505.734M780.661,505.734L786.331,505.734M788.315,505.734L793.984,505.734M795.969,505.734L801.638,505.734M803.622,505.734L809.291,505.734M811.276,505.734L816.945,505.734M818.929,505.734L824.598,505.734M826.583,505.734L832.252,505.734M834.236,505.734L839.906,505.734M841.89,505.734L847.559,505.734M849.543,505.734L855.213,505.734M857.197,505.734L862.866,505.734M864.85,505.734L870.52,505.734M872.504,505.734L877.171,505.734" style="fill:none;fill-rule:nonzero;stroke:rgb(128,128,128);stroke-width:0.73px;"/>
    </g>
    <g transform="matrix(0.707137,-0.707077,-0.707077,-0.707137,531.467,1113.57)">
        <rect x="593.455" y="505.483" width="0.501" height="0.501" style="fill:rgb(128,128,128);"/>
    </g>
    <g transform="matrix(0.707077,-0.707137,-0.707137,-0.707077,614.566,1314.03)">
        <rect x="876.92" y="505.483" width="0.501" height="0.501" style="fill:rgb(128,128,128);"/>
    </g>
    <g transform="matrix(0.707107,-0.707107,-0.707107,-0.707107,420.545,1096.74)">
        <path d="M458.738,380.216C491.416,347.537 544.399,347.537 577.077,380.216" style="fill:none;fill-rule:nonzero;stroke:black;stroke-width:0.71px;"/>
    </g>
    <g transform="matrix(1,0,0,1,0,-21.5991)">
        <path d="M476.068,441.434L476.068,272.773M559.747,357.755L559.747,441.434M392.39,441.434L306.478,441.434M348.452,449.823L348.452,478.17L320.106,478.17L320.106,449.823L348.452,449.823M359.791,449.823L359.791,478.17L348.452,478.17L348.452,449.823L359.791,449.823M392.39,441.434L392.39,588.091M312.85,483.954L312.011,483.954M720.148,548.776L727.485,556.62M716.618,575.558L725.816,569.268M717.881,565.453L726.394,568.268M734.39,567.104L726.394,568.268M736.389,565.473L734.39,567.104M733.663,564.541L736.389,565.473M737.842,564.541L734.935,564.075M738.569,560.348L737.842,564.541M737.661,565.939L734.702,568.222M740.386,570.132L737.661,565.939M739.66,561.28L739.115,565.473M742.318,570.943L739.115,565.473M727.809,557.904L733.663,564.541M734.935,564.075L729.003,557.493M744.198,558.941L738.569,560.348M744.609,560.135L739.66,561.28M729.003,557.493L728.884,556.477M730.331,548.62L728.884,556.477M730.331,548.62L729.09,544.33M723.787,569.39L715.136,568.363M709.039,590.716L710.934,583.769M709.039,590.716L710.934,588.822M712.197,583.769L714.092,588.19M715.355,589.453L714.723,585.032M710.934,588.822L715.355,589.453M714.723,585.032L721.671,584.4M724.197,571.769L724.829,578.716M721.671,584.4L722.934,580.611M710.934,583.769L716.618,575.558M720.408,583.137L717.881,576.821M734.702,568.222L726.723,569.242M722.934,580.611L729.881,578.716L726.723,569.242M706.513,581.874L709.039,590.716M708.407,573.663L709.671,579.979M713.46,566.084L713.46,572.4M709.671,574.927L714.723,576.19" style="fill:none;fill-rule:nonzero;stroke:black;stroke-width:0.71px;"/>
    </g>
    <g transform="matrix(1,0,0,1,0,245.945)">
        <path d="M713.46,304.856L708.407,306.119M707.776,314.33L710.302,314.33M709.671,312.435L706.513,314.33M717.881,297.908L713.46,298.54M728.015,278.212L725.855,285.532M710.503,280.673L712.095,287.466M713.17,286.039L719.073,282.658M712.095,287.466L716.023,288.189M719.806,274.264L719.259,279.443M720.882,272.837L714.803,274.967M722.836,277.665L720.882,272.837M706.223,277.448L706.212,281.914M704.082,275.836L706.223,277.448M704.082,275.836L711.226,276.745M712.487,272.103L704.082,275.836M706.212,281.914L710.503,280.673M712.663,273.354L713.015,275.856M714.803,274.967L712.487,272.103M711.226,276.745L720.148,281.231M711.402,277.996L707.287,280.488M724.955,288.209L718.164,289.802M729.09,276.786L722.836,277.665M716.023,288.189L718.867,294.805L727.809,290.36M754.816,316.874L747.474,309.111M755.76,288.512L746.2,291.602M745.961,308.157L740.386,302.588M742.318,303.399L747.155,307.746M745.008,292.988L744.609,292.591M753.687,278.541L751.315,281.755L744.122,281.41M747.381,289.774L748.927,282.972M744.122,281.41L744.198,291.396M754.498,280.133L754.949,286.921M762.502,282.07L762.066,277.279M766.121,285.238L763.719,284.457M763.734,286.454L767.323,285.628M762.173,291.26L757.757,288.497M762.983,292.852L763.734,286.454M767.653,276.438L763.703,282.46M767.653,276.438L765.265,277.655M767.323,285.628L767.653,276.438M757.788,292.492L762.983,292.852M761.255,275.688L760.49,280.088M765.265,277.655L761.255,275.688M763.703,282.46L755.76,288.512M760.49,280.088L753.687,278.541M746.08,309.172L745.961,308.157M746.949,319.893L749.109,312.573M755.157,323.841L755.705,318.662" style="fill:none;fill-rule:nonzero;stroke:black;stroke-width:0.71px;"/>
    </g>
    <g transform="matrix(1,0,0,1,0,267.759)">
        <path d="M752.128,298.627L754.082,303.455M745.874,299.506L752.128,298.627M744.633,295.216L745.874,299.506M744.633,295.216L746.08,287.359M758.941,288.103L756.097,281.487M762.869,288.826L758.941,288.103M761.794,290.253L755.891,293.634M763.562,298.296L767.677,295.804M762.301,302.938L761.949,300.436M768.752,294.377L764.461,295.618M768.742,298.843L768.752,294.377M760.161,301.325L762.477,304.188M764.461,295.618L762.869,288.826M770.882,300.456L763.738,299.547M770.882,300.456L768.742,298.843M762.477,304.188L770.882,300.456M751.436,275.919L755.836,276.685M750.008,288.082L756.8,286.49M763.738,299.547L754.816,295.06M756.097,281.487L747.155,285.932M754.082,303.455L760.161,301.325M755.836,276.685L757.788,270.678M755.025,275.093L749.393,269.943M751.436,275.919L745.008,271.175" style="fill:none;fill-rule:nonzero;stroke:black;stroke-width:0.71px;"/>
    </g>
    <g transform="matrix(-0.0636028,0.997975,0.997975,0.0636028,475.361,-203.921)">
        <path d="M724.112,300.356C726.789,299.251 729.795,299.25 732.472,300.356" style="fill:none;fill-rule:nonzero;stroke:black;stroke-width:0.71px;"/>
    </g>
    <g transform="matrix(0.01362,0.999907,0.999907,-0.01362,420.882,-183.132)">
        <path d="M726.636,299.579C728.794,298.759 731.178,298.759 733.335,299.579" style="fill:none;fill-rule:nonzero;stroke:black;stroke-width:0.71px;"/>
    </g>
    <g transform="matrix(1,0,0,1,0,228.761)">
        <path d="M744.187,306.814C739.944,303.849 734.101,304.886 731.137,309.128M731.137,309.128C731.102,309.178 731.067,309.229 731.033,309.28" style="fill:none;fill-rule:nonzero;stroke:black;stroke-width:0.71px;"/>
    </g>
    <g transform="matrix(-0.975301,0.220881,0.220881,0.975301,1387.59,70.1977)">
        <path d="M729.811,309.666C734.01,305.769 740.504,305.769 744.703,309.666" style="fill:none;fill-rule:nonzero;stroke:black;stroke-width:0.71px;"/>
    </g>
    <g transform="matrix(0.95668,0.291143,0.291143,-0.95668,-52.7594,614.876)">
        <path d="M728.388,292.112C732.657,287.939 739.476,287.939 743.745,292.112" style="fill:none;fill-rule:nonzero;stroke:black;stroke-width:0.71px;"/>
    </g>
    <g transform="matrix(0.954128,0.2994,0.2994,-0.954128,-53.6566,607.91)">
        <path d="M730.4,292.936C733.914,289.982 739.044,289.982 742.558,292.936" style="fill:none;fill-rule:nonzero;stroke:black;stroke-width:0.71px;"/>
    </g>
    <g transform="matrix(0.397446,-0.917625,-0.917625,-0.397446,721.333,1347.6)">
        <path d="M740.428,296.758C743.518,294.574 747.649,294.574 750.739,296.758" style="fill:none;fill-rule:nonzero;stroke:black;stroke-width:0.71px;"/>
    </g>
    <g transform="matrix(0.451901,-0.892068,-0.892068,-0.451901,672.688,1346.67)">
        <path d="M742.03,295.073C745.198,293.37 749.009,293.37 752.177,295.073" style="fill:none;fill-rule:nonzero;stroke:black;stroke-width:0.71px;"/>
    </g>
    <g transform="matrix(1,0,0,1,0,-44.7396)">
        <path d="M593.706,522.57L593.706,472.964M593.706,510.169L593.706,485.365M593.706,497.767L795.023,497.767M593.706,472.964L795.023,472.964L795.023,522.57L593.706,522.57M593.706,485.365L795.023,485.365L795.023,510.169L593.706,510.169M795.023,534.972L593.706,534.972M593.706,472.964L795.023,472.964L795.023,534.972L593.706,534.972L593.706,472.964M711.344,464.575L711.344,295.913M479.363,633.236L479.388,626.182M306.478,464.575L880.237,464.575M476.068,464.575L476.068,548.253M453.215,631.719L454.342,624.765M427.518,626.141L429.763,619.313M402.904,616.589L406.257,610.066M711.344,253.394L476.068,253.394M476.068,295.913L711.344,295.913M476.068,253.394L470.538,253.394L459.493,253.972L448.494,255.128L437.57,256.859L426.752,259.158L416.069,262.021L405.55,265.438L395.225,269.402L385.121,273.9L375.267,278.921L365.689,284.451L356.413,290.475L347.465,296.976L338.87,303.936L330.651,311.337L322.83,319.157L315.43,327.377L308.47,335.972L301.969,344.919L295.945,354.195L290.415,363.773L285.394,373.628L280.895,383.731L276.932,394.057L273.514,404.575L270.652,415.259L268.352,426.077" style="fill:none;fill-rule:nonzero;stroke:black;stroke-width:0.71px;"/>
    </g>
    <g transform="matrix(1,0,0,1,0,170.463)">
        <path d="M268.352,210.874L266.622,221.798L265.466,232.797L264.887,243.842L264.887,254.902L265.466,265.947L266.622,276.946L268.352,287.87L270.652,298.688L273.514,309.371L276.932,319.89L280.895,330.215L285.394,340.319L290.415,350.173L295.945,359.751L301.969,369.027L308.47,377.975L315.43,386.57L322.83,394.789L330.651,402.61L338.87,410.01L347.465,416.97L356.413,423.471L365.689,429.495L375.267,435.025L385.121,440.046L395.225,444.545L405.55,448.508L416.069,451.926L426.752,454.788L437.57,457.088L448.494,458.818L459.493,459.974L470.538,460.553L476.068,460.553M476.068,418.033L471.652,418.033L462.831,417.571L454.046,416.648L445.322,415.266L436.682,413.429L428.149,411.143L419.749,408.414L411.502,405.248L403.433,401.655L395.562,397.645L387.913,393.229L380.505,388.418L373.358,383.226L366.494,377.667L359.93,371.756L353.684,365.51" style="fill:none;fill-rule:nonzero;stroke:black;stroke-width:0.71px;"/>
    </g>
    <g transform="matrix(1,0,0,1,0,-97.2624)">
        <path d="M353.684,633.236L347.773,626.672L342.214,619.807L337.022,612.661L332.211,605.253L327.795,597.603L323.785,589.733L320.192,581.663L317.026,573.417L314.297,565.016L312.011,556.484L310.174,547.844L308.792,539.12M307.869,530.335L307.407,521.514L307.407,512.681L307.869,503.86L308.792,495.075L310.174,486.351L312.011,477.711L314.297,469.179L317.026,460.778L320.192,452.531L323.785,444.462L327.795,436.592L332.211,428.942L337.022,421.534L342.214,414.388L347.773,407.523L353.684,400.959L359.93,394.713L366.494,388.802L373.358,383.243L380.505,378.052L387.913,373.241L395.562,368.824L403.433,364.814L411.502,361.221L419.749,358.056L428.149,355.326L436.682,353.04L445.322,351.203L454.046,349.822L462.831,348.898L471.652,348.436L476.068,348.436M716.874,305.916L711.344,305.916M711.344,348.436L715.76,348.436L724.581,348.898L733.366,349.822L742.09,351.203L750.731,353.04" style="fill:none;fill-rule:nonzero;stroke:black;stroke-width:0.71px;"/>
    </g>
    <g transform="matrix(1,0,0,1,0,0.99834)">
        <path d="M750.731,254.779L759.263,257.065L767.663,259.795L775.91,262.96L783.979,266.553L791.85,270.563L799.499,274.98L806.907,279.791L814.054,284.983L820.918,290.542L827.482,296.452L833.728,302.698L839.639,309.262L845.198,316.127L850.39,323.273L855.201,330.681L859.617,338.331L863.627,346.201L867.22,354.271L870.386,362.517L873.115,370.918L875.401,379.45L877.238,388.09L878.62,396.814L879.543,405.599L880.005,414.42L880.005,423.253M878.62,440.859L877.238,449.583L875.401,458.223L873.115,466.756L870.386,475.156L867.22,483.403L863.627,491.472L859.617,499.343L855.201,506.992L850.39,514.4L845.198,521.546L839.639,528.411L833.728,534.975L827.482,541.221L820.918,547.132L814.054,552.691L806.907,557.883L799.499,562.693L791.85,567.11M783.979,571.12L775.91,574.713L767.663,577.878L759.263,580.608L750.731,582.894L742.09,584.731L733.366,586.112" style="fill:none;fill-rule:nonzero;stroke:black;stroke-width:0.71px;"/>
    </g>
    <g transform="matrix(1,0,0,1,0,48.3227)">
        <path d="M733.366,538.788L724.581,539.711L715.76,540.174L711.344,540.174M711.344,582.693L716.874,582.693L727.919,582.115L738.918,580.958L749.842,579.228L760.66,576.929L771.343,574.066L781.862,570.649L792.187,566.685L802.291,562.187L812.145,557.165L821.724,551.636L830.999,545.612L839.947,539.111L848.542,532.151L856.761,524.75L864.582,516.93L871.982,508.71L878.942,500.115L885.443,491.168L891.467,481.892L896.997,472.314L902.018,462.459L906.517,452.356L910.48,442.03L913.898,431.512L916.76,420.828L919.06,410.01L920.79,399.086L921.946,388.087L922.525,377.042L922.525,365.982L921.946,354.938L920.79,343.938L919.06,333.014L916.76,322.196L913.898,311.513L910.48,300.994L906.517,290.669L902.018,280.565L896.997,270.711L891.467,261.133L885.443,251.857L878.942,242.909L871.982,234.314L864.582,226.095L856.761,218.274L848.542,210.874" style="fill:none;fill-rule:nonzero;stroke:black;stroke-width:0.71px;"/>
    </g>
    <g transform="matrix(1,0,0,1,0,-2.21995)">
        <path d="M848.542,261.417L839.947,254.456L830.999,247.955L821.724,241.932L812.145,236.402L802.291,231.381L792.187,226.882L781.862,222.919L771.343,219.501L760.66,216.638L749.842,214.339L738.918,212.609L727.919,211.453L716.874,210.874M308.792,444.077L307.869,435.293M879.543,435.293L878.62,444.077M880.005,426.472L879.543,435.293M791.85,570.328L783.979,574.338M175.787,636.297L169.664,630.175M175.787,213.935L169.664,207.812M172.725,633.236L167.623,633.236M172.725,633.236L177.828,633.236M172.725,210.874L167.623,210.874M172.725,210.874L177.828,210.874M172.725,633.236L172.725,638.338M172.725,210.874L172.725,205.772" style="fill:none;fill-rule:nonzero;stroke:black;stroke-width:0.71px;"/>
    </g>
    <g transform="matrix(1,0,0,1,0,-73.299)">
        <path d="M172.725,704.315L172.725,281.953M261.826,219.038L267.949,212.915M919.463,219.038L925.586,212.915M264.887,215.976L264.887,210.874M264.887,215.976L264.887,221.079M922.525,215.976L922.525,210.874M922.525,215.976L922.525,221.079M264.887,215.976L259.785,215.976M922.525,215.976L927.627,215.976" style="fill:none;fill-rule:nonzero;stroke:black;stroke-width:0.71px;"/>
    </g>
    <g transform="matrix(1,0,0,1,0,-516)">
        <path d="M264.887,658.677L922.525,658.677M304.345,697.172L310.468,691.049M876.944,697.172L883.067,691.049M307.407,694.11L307.407,689.008M307.407,694.11L307.407,699.213M880.005,694.11L880.005,689.008M880.005,694.11L880.005,699.213M307.407,694.11L302.304,694.11M880.005,694.11L885.108,694.11" style="fill:none;fill-rule:nonzero;stroke:black;stroke-width:0.71px;"/>
    </g>
    <g transform="matrix(1,0,0,1,0,-70.1809)">
        <path d="M307.407,248.291L880.005,248.291M209.802,661.739L203.68,655.616M209.802,324.878L203.68,318.755M206.741,658.677L201.639,658.677M206.741,658.677L211.843,658.677M206.741,321.817L201.639,321.817M206.741,321.817L211.843,321.817M206.741,658.677L206.741,663.78M206.741,321.817L206.741,316.714" style="fill:none;fill-rule:nonzero;stroke:black;stroke-width:0.71px;"/>
    </g>
    <g transform="matrix(0,-1,1,0,0,0)">
        <text x="-440.256px" y="169.057px" style="font-family:'EuclidCircularA-Medium', 'Euclid Circular A', sans-serif;font-weight:500;font-size:19.958px;">3.00</text>
    </g>
    <text x="573.963px" y="139.009px" style="font-family:'EuclidCircularA-Medium', 'Euclid Circular A', sans-serif;font-weight:500;font-size:19.958px;">4.65</text>
    <text x="541.585px" y="172.571px" style="font-family:'EuclidCircularA-Medium', 'Euclid Circular A', sans-serif;font-weight:500;font-size:19.958px;">4.05	<tspan x="592.477px " y="172.571px ">(</tspan>4.00)</text>
    <g transform="matrix(0,-1,1,0,0,0)">
        <text x="-472.896px" y="201.202px" style="font-family:'EuclidCircularA-Medium', 'Euclid Circular A', sans-serif;font-weight:500;font-size:19.958px;">2.40	<tspan x="-417.274px " y="201.202px ">(</tspan>2.35)</text>
    </g>
    <g transform="matrix(0,-1,-1,0,628.565,626.807)">
        <path d="M38.311,421.824L375.171,421.824" style="fill:none;fill-rule:nonzero;stroke:black;stroke-width:0.71px;"/>
    </g>
</svg>
