<?xml version="1.0" encoding="UTF-8" standalone="no"?>
<!DOCTYPE svg PUBLIC "-//W3C//DTD SVG 1.1//EN" "http://www.w3.org/Graphics/SVG/1.1/DTD/svg11.dtd">
<svg width="100%" height="100%" viewBox="0 0 1191 842" version="1.1" xmlns="http://www.w3.org/2000/svg" xmlns:xlink="http://www.w3.org/1999/xlink" xml:space="preserve" xmlns:serif="http://www.serif.com/" style="fill-rule:evenodd;clip-rule:evenodd;stroke-linecap:round;stroke-linejoin:round;stroke-miterlimit:10;">
    <g transform="matrix(1,0,0,1,0,-2.21971)">
        <path d="M475.69,421.677L476.446,421.677L476.446,422.433L475.69,422.433L475.69,421.677M476.399,422.386L475.737,422.386L475.737,421.724L476.399,421.724L476.399,422.386M475.785,421.771L476.352,421.771L475.785,421.771L475.785,422.338L476.352,422.338L476.352,421.771L475.785,421.771M475.832,421.819L476.304,421.819L475.832,421.819L475.832,422.291L476.304,422.291L476.304,421.819L475.832,421.819M475.879,421.866L476.257,421.866L475.879,421.866L475.879,422.244L476.257,422.244L476.257,421.866L475.879,421.866M475.926,421.913L476.21,421.913L476.21,422.197L475.926,422.197L475.926,421.913M476.163,422.149L475.974,422.149L475.974,421.96L476.163,421.96L476.163,422.149M476.021,422.008L476.115,422.008L476.115,422.102L476.021,422.102L476.021,422.008M710.966,421.677L711.722,421.677L711.722,422.433L710.966,422.433L710.966,421.677M711.675,422.386L711.013,422.386L711.013,421.724L711.675,421.724L711.675,422.386M711.06,421.771L711.627,421.771L711.06,421.771L711.06,422.338L711.627,422.338" style="fill:none;fill-rule:nonzero;stroke:black;stroke-width:0.71px;"/>
    </g>
    <g transform="matrix(1,0,0,1,0,-2.21971)">
        <path d="M711.627,422.338L711.627,421.771L711.06,421.771M711.108,421.819L711.58,421.819L711.108,421.819L711.108,422.291L711.58,422.291L711.58,421.819L711.108,421.819M711.155,421.866L711.533,421.866L711.155,421.866L711.155,422.244L711.533,422.244L711.533,421.866L711.155,421.866M711.202,421.913L711.486,421.913L711.486,422.197L711.202,422.197L711.202,421.913M711.438,422.149L711.249,422.149L711.249,421.96L711.438,421.96L711.438,422.149M711.297,422.008L711.391,422.008L711.391,422.102L711.297,422.102L711.297,422.008" style="fill:none;fill-rule:nonzero;stroke:black;stroke-width:0.71px;"/>
    </g>
    <g transform="matrix(0.707107,-0.707107,-0.707107,-0.707107,296.031,1120.61)">
        <path d="M474.413,217.98C479.964,212.43 488.962,212.43 494.512,217.98" style="fill:none;fill-rule:nonzero;stroke:black;stroke-width:0.71px;"/>
    </g>
    <g transform="matrix(1,0,0,1,0,377.623)">
        <path d="M491.569,239.181L484.572,239.181M477.357,253.393L476.068,253.393M484.572,210.874L476.068,210.874M484.572,210.874L484.572,239.181" style="fill:none;fill-rule:nonzero;stroke:black;stroke-width:0.71px;"/>
    </g>
    <g transform="matrix(0.707108,0.707106,0.707106,-0.707108,51.7537,280.986)">
        <path d="M692.9,217.98C698.45,212.43 707.448,212.43 712.999,217.98" style="fill:none;fill-rule:nonzero;stroke:black;stroke-width:0.71px;"/>
    </g>
    <g transform="matrix(1,0,0,1,0,377.623)">
        <path d="M695.843,239.181L702.84,239.181M710.055,253.393L711.344,253.393M702.84,210.874L711.344,210.874M702.84,210.874L702.84,239.181M484.572,239.181L494.493,239.181L494.493,229.26L484.572,229.26L484.572,239.181M494.493,239.181L504.415,239.181L504.415,229.26L494.493,229.26L494.493,239.181M695.843,239.181L702.84,239.181L692.919,239.181L692.919,229.26L702.84,229.26L702.84,239.181M692.919,239.181L682.997,239.181L682.997,229.26L692.919,229.26L692.919,239.181M596.63,239.181L603.627,239.181M596.63,239.181L603.627,239.181L593.706,239.181L593.706,229.26L603.627,229.26L603.627,239.181M593.706,239.181L583.785,239.181L583.785,229.26L593.706,229.26L593.706,239.181M583.785,239.181L504.415,239.181L504.415,229.26L583.785,229.26L583.785,239.181M682.997,239.181L603.627,239.181L603.627,229.26L682.997,229.26L682.997,239.181M494.493,239.181L504.415,239.181L504.415,229.26L494.493,229.26L494.493,239.181M504.415,234.221L583.785,234.221M603.627,234.221L682.997,234.221M494.493,249.103L495.496,249.103M497.48,249.103L503.15,249.103" style="fill:none;fill-rule:nonzero;stroke:black;stroke-width:0.71px;"/>
    </g>
    <g transform="matrix(0.707107,-0.707107,-0.707107,-0.707107,296.978,1128.53)">
        <rect x="494.243" y="214.914" width="0.501" height="0.501"/>
    </g>
    <g transform="matrix(0.707077,-0.707137,-0.707137,-0.707077,299.905,1135.55)">
        <rect x="504.164" y="214.914" width="0.501" height="0.501"/>
    </g>
    <g transform="matrix(1,0,0,1,0,401.64)">
        <path d="M504.415,225.086L504.415,220.282M504.415,218.297L504.415,215.164" style="fill:none;fill-rule:nonzero;stroke:black;stroke-width:0.71px;"/>
    </g>
    <g transform="matrix(-0.707107,-0.707107,-0.707107,0.707107,1013.23,831.256)">
        <rect x="504.164" y="214.914" width="0.501" height="0.501"/>
    </g>
    <g transform="matrix(-0.707077,-0.707137,-0.707137,0.707077,1020.24,814.341)">
        <rect x="504.164" y="224.835" width="0.501" height="0.501"/>
    </g>
    <g transform="matrix(1,0,0,1,0,391.719)">
        <path d="M494.493,225.086L495.496,225.086M497.48,225.086L503.15,225.086" style="fill:none;fill-rule:nonzero;stroke:black;stroke-width:0.71px;"/>
    </g>
    <g transform="matrix(0.707107,-0.707107,-0.707107,-0.707107,303.993,1125.62)">
        <rect x="494.243" y="224.835" width="0.501" height="0.501"/>
    </g>
    <g transform="matrix(0.707077,-0.707137,-0.707137,-0.707077,306.921,1132.65)">
        <rect x="504.164" y="224.835" width="0.501" height="0.501"/>
    </g>
    <g transform="matrix(1,0,0,1,0,401.64)">
        <path d="M494.493,225.086L494.493,220.282M494.493,218.297L494.493,215.164" style="fill:none;fill-rule:nonzero;stroke:black;stroke-width:0.71px;"/>
    </g>
    <g transform="matrix(-0.707137,-0.707077,-0.707077,0.707137,996.306,824.22)">
        <rect x="494.243" y="214.914" width="0.501" height="0.501"/>
    </g>
    <g transform="matrix(-0.707107,-0.707107,-0.707107,0.707107,1003.31,807.304)">
        <rect x="494.243" y="224.835" width="0.501" height="0.501"/>
    </g>
    <g transform="matrix(1,0,0,1,0,582.576)">
        <path d="M494.493,129.657L495.496,129.657M497.48,129.657L503.15,129.657" style="fill:none;fill-rule:nonzero;stroke:black;stroke-width:0.71px;"/>
    </g>
    <g transform="matrix(0.707107,-0.707107,-0.707107,-0.707107,236.515,1153.57)">
        <rect x="494.243" y="129.406" width="0.501" height="0.501"/>
    </g>
    <g transform="matrix(0.707077,-0.707137,-0.707137,-0.707077,239.44,1160.6)">
        <rect x="504.164" y="129.406" width="0.501" height="0.501"/>
    </g>
    <g transform="matrix(1,0,0,1,0,572.202)">
        <path d="M504.415,139.578L504.415,133.909M504.415,131.925L504.415,130.11" style="fill:none;fill-rule:nonzero;stroke:black;stroke-width:0.71px;"/>
    </g>
    <g transform="matrix(-0.707077,-0.707137,-0.707137,0.707077,952.76,977.246)">
        <rect x="504.164" y="129.406" width="0.501" height="0.501"/>
    </g>
    <g transform="matrix(-0.707077,-0.707137,-0.707137,0.707077,959.775,960.31)">
        <rect x="504.164" y="139.328" width="0.501" height="0.501"/>
    </g>
    <g transform="matrix(1,0,0,1,0,562.734)">
        <path d="M494.493,139.578L495.496,139.578M497.48,139.578L503.15,139.578" style="fill:none;fill-rule:nonzero;stroke:black;stroke-width:0.71px;"/>
    </g>
    <g transform="matrix(0.707137,-0.707077,-0.707077,-0.707137,243.511,1150.66)">
        <rect x="494.243" y="139.328" width="0.501" height="0.501"/>
    </g>
    <g transform="matrix(0.707107,-0.707107,-0.707107,-0.707107,246.436,1157.68)">
        <rect x="504.164" y="139.328" width="0.501" height="0.501"/>
    </g>
    <g transform="matrix(1,0,0,1,0,572.202)">
        <path d="M494.493,139.578L494.493,133.909M494.493,131.925L494.493,130.11" style="fill:none;fill-rule:nonzero;stroke:black;stroke-width:0.71px;"/>
    </g>
    <g transform="matrix(-0.707107,-0.707107,-0.707107,0.707107,935.834,970.212)">
        <rect x="494.243" y="129.406" width="0.501" height="0.501"/>
    </g>
    <g transform="matrix(-0.707107,-0.707107,-0.707107,0.707107,942.85,953.275)">
        <rect x="494.243" y="139.327" width="0.501" height="0.501"/>
    </g>
    <g transform="matrix(1,0,0,1,0,411.561)">
        <path d="M505.134,215.164L510.803,215.164M512.787,215.164L514.336,215.164" style="fill:none;fill-rule:nonzero;stroke:black;stroke-width:0.71px;"/>
    </g>
    <g transform="matrix(0.707077,-0.707137,-0.707137,-0.707077,299.905,1135.55)">
        <rect x="504.164" y="214.914" width="0.501" height="0.501"/>
    </g>
    <g transform="matrix(0.707137,-0.707077,-0.707077,-0.707137,302.768,1142.55)">
        <rect x="514.085" y="214.914" width="0.501" height="0.501"/>
    </g>
    <g transform="matrix(1,0,0,1,0,401.64)">
        <path d="M514.336,225.086L514.336,220.282M514.336,218.297L514.336,215.164" style="fill:none;fill-rule:nonzero;stroke:black;stroke-width:0.71px;"/>
    </g>
    <g transform="matrix(-0.707167,-0.707047,-0.707047,0.707167,1030.19,838.228)">
        <rect x="514.085" y="214.914" width="0.501" height="0.501"/>
    </g>
    <g transform="matrix(-0.707137,-0.707077,-0.707077,0.707137,1037.19,821.313)">
        <rect x="514.085" y="224.835" width="0.501" height="0.501"/>
    </g>
    <g transform="matrix(1,0,0,1,0,391.719)">
        <path d="M505.134,225.086L510.803,225.086M512.787,225.086L514.336,225.086" style="fill:none;fill-rule:nonzero;stroke:black;stroke-width:0.71px;"/>
    </g>
    <g transform="matrix(0.707077,-0.707137,-0.707137,-0.707077,306.921,1132.65)">
        <rect x="504.164" y="224.835" width="0.501" height="0.501"/>
    </g>
    <g transform="matrix(0.707137,-0.707077,-0.707077,-0.707137,309.783,1139.65)">
        <rect x="514.085" y="224.835" width="0.501" height="0.501"/>
    </g>
    <g transform="matrix(1,0,0,1,0,401.64)">
        <path d="M504.415,225.086L504.415,220.282M504.415,218.297L504.415,215.164" style="fill:none;fill-rule:nonzero;stroke:black;stroke-width:0.71px;"/>
    </g>
    <g transform="matrix(-0.707107,-0.707107,-0.707107,0.707107,1013.23,831.256)">
        <rect x="504.164" y="214.914" width="0.501" height="0.501"/>
    </g>
    <g transform="matrix(-0.707077,-0.707137,-0.707137,0.707077,1020.24,814.341)">
        <rect x="504.164" y="224.835" width="0.501" height="0.501"/>
    </g>
    <g transform="matrix(1,0,0,1,0,582.576)">
        <path d="M505.134,129.657L510.803,129.657M512.787,129.657L514.336,129.657" style="fill:none;fill-rule:nonzero;stroke:black;stroke-width:0.71px;"/>
    </g>
    <g transform="matrix(0.707077,-0.707137,-0.707137,-0.707077,239.44,1160.6)">
        <rect x="504.164" y="129.406" width="0.501" height="0.501"/>
    </g>
    <g transform="matrix(0.707137,-0.707077,-0.707077,-0.707137,242.307,1167.59)">
        <rect x="514.085" y="129.406" width="0.501" height="0.501"/>
    </g>
    <g transform="matrix(1,0,0,1,0,572.202)">
        <path d="M514.336,139.578L514.336,133.909M514.336,131.925L514.336,130.11" style="fill:none;fill-rule:nonzero;stroke:black;stroke-width:0.71px;"/>
    </g>
    <g transform="matrix(-0.707137,-0.707077,-0.707077,0.707137,969.719,984.223)">
        <rect x="514.085" y="129.406" width="0.501" height="0.501"/>
    </g>
    <g transform="matrix(-0.707137,-0.707077,-0.707077,0.707137,976.734,967.286)">
        <rect x="514.085" y="139.327" width="0.501" height="0.501"/>
    </g>
    <g transform="matrix(1,0,0,1,0,562.734)">
        <path d="M505.134,139.578L510.803,139.578M512.787,139.578L514.336,139.578" style="fill:none;fill-rule:nonzero;stroke:black;stroke-width:0.71px;"/>
    </g>
    <g transform="matrix(0.707107,-0.707107,-0.707107,-0.707107,246.436,1157.68)">
        <rect x="504.164" y="139.328" width="0.501" height="0.501"/>
    </g>
    <g transform="matrix(0.707167,-0.707047,-0.707047,-0.707167,249.303,1164.68)">
        <rect x="514.085" y="139.328" width="0.501" height="0.501"/>
    </g>
    <g transform="matrix(1,0,0,1,0,572.202)">
        <path d="M504.415,139.578L504.415,133.909M504.415,131.925L504.415,130.11" style="fill:none;fill-rule:nonzero;stroke:black;stroke-width:0.71px;"/>
    </g>
    <g transform="matrix(-0.707077,-0.707137,-0.707137,0.707077,952.76,977.246)">
        <rect x="504.164" y="129.406" width="0.501" height="0.501"/>
    </g>
    <g transform="matrix(-0.707077,-0.707137,-0.707137,0.707077,959.775,960.31)">
        <rect x="504.164" y="139.328" width="0.501" height="0.501"/>
    </g>
    <g transform="matrix(1,0,0,1,0,486.694)">
        <path d="M494.493,225.086L494.493,219.416M494.493,217.432L494.493,211.763M494.493,209.779L494.493,204.109M494.493,202.125L494.493,196.456M494.493,194.472L494.493,188.802M494.493,186.818L494.493,181.149M494.493,179.164L494.493,173.495M494.493,171.511L494.493,165.842M494.493,163.857L494.493,158.188M494.493,156.204L494.493,150.535M494.493,148.55L494.493,142.881M494.493,140.897L494.493,135.227M494.493,133.243L494.493,130.11" style="fill:none;fill-rule:nonzero;stroke:black;stroke-width:0.71px;"/>
    </g>
    <g transform="matrix(-0.707107,-0.707107,-0.707107,0.707107,935.834,970.212)">
        <rect x="494.243" y="129.406" width="0.501" height="0.501"/>
    </g>
    <g transform="matrix(-0.707107,-0.707107,-0.707107,0.707107,1003.31,807.304)">
        <rect x="494.243" y="224.835" width="0.501" height="0.501"/>
    </g>
    <g transform="matrix(1,0,0,1,0,487.147)">
        <path d="M504.415,215.164L504.415,211.309M504.415,209.325L504.415,203.656M504.415,201.672L504.415,196.002M504.415,194.018L504.415,188.349M504.415,186.365L504.415,180.695M504.415,178.711L504.415,173.042M504.415,171.057L504.415,165.388M504.415,163.404L504.415,157.735M504.415,155.75L504.415,150.081M504.415,148.097L504.415,142.428M504.415,140.443L504.415,139.578" style="fill:none;fill-rule:nonzero;stroke:black;stroke-width:0.71px;"/>
    </g>
    <g transform="matrix(-0.707077,-0.707137,-0.707137,0.707077,959.775,960.31)">
        <rect x="504.164" y="139.328" width="0.501" height="0.501"/>
    </g>
    <g transform="matrix(-0.707107,-0.707107,-0.707107,0.707107,1013.23,831.256)">
        <rect x="504.164" y="214.914" width="0.501" height="0.501"/>
    </g>
    <g transform="matrix(1,0,0,1,0,486.694)">
        <path d="M504.415,225.086L504.415,219.416M504.415,217.432L504.415,211.763M504.415,209.779L504.415,204.109M504.415,202.125L504.415,196.456M504.415,194.472L504.415,188.802M504.415,186.818L504.415,181.149M504.415,179.164L504.415,173.495M504.415,171.511L504.415,165.842M504.415,163.857L504.415,158.188M504.415,156.204L504.415,150.535M504.415,148.55L504.415,142.881M504.415,140.897L504.415,135.227M504.415,133.243L504.415,130.11" style="fill:none;fill-rule:nonzero;stroke:black;stroke-width:0.71px;"/>
    </g>
    <g transform="matrix(-0.707077,-0.707137,-0.707137,0.707077,952.76,977.246)">
        <rect x="504.164" y="129.406" width="0.501" height="0.501"/>
    </g>
    <g transform="matrix(-0.707077,-0.707137,-0.707137,0.707077,1020.24,814.341)">
        <rect x="504.164" y="224.835" width="0.501" height="0.501"/>
    </g>
    <g transform="matrix(1,0,0,1,0,487.147)">
        <path d="M514.336,215.164L514.336,211.309M514.336,209.325L514.336,203.656M514.336,201.672L514.336,196.002M514.336,194.018L514.336,188.349M514.336,186.365L514.336,180.695M514.336,178.711L514.336,173.042M514.336,171.057L514.336,165.388M514.336,163.404L514.336,157.735M514.336,155.75L514.336,150.081M514.336,148.097L514.336,142.428M514.336,140.443L514.336,139.578" style="fill:none;fill-rule:nonzero;stroke:black;stroke-width:0.71px;"/>
    </g>
    <g transform="matrix(-0.707137,-0.707077,-0.707077,0.707137,976.734,967.286)">
        <rect x="514.085" y="139.327" width="0.501" height="0.501"/>
    </g>
    <g transform="matrix(-0.707167,-0.707047,-0.707047,0.707167,1030.19,838.228)">
        <rect x="514.085" y="214.914" width="0.501" height="0.501"/>
    </g>
    <g transform="matrix(1,0.000233648,0.000233648,-1,-0.0492603,841.751)">
        <path d="M478.596,210.901L710.055,210.901" style="fill:none;fill-rule:nonzero;stroke:black;stroke-width:0.71px;"/>
    </g>
    <g transform="matrix(1,0,0,1,0,68.6033)">
        <path d="M522.84,351.232L523.012,356.175L523.53,361.095L523.781,362.518M524.273,365.31L524.388,365.966L525.585,370.765L527.114,375.47L527.406,376.193M528.468,378.821L528.967,380.056L531.135,384.501L533.608,388.785M535.257,391.23L536.374,392.886L539.419,396.784L542.36,400.049M544.371,402.045L546.287,403.896L550.076,407.075L553.093,409.267M555.449,410.839L558.273,412.604L562.64,414.926L565.438,416.172M568.053,417.263L571.807,418.63L576.562,419.993L578.906,420.491M581.682,421.061L586.298,421.71L591.233,422.055L592.963,422.055M595.798,422.055L596.179,422.055L601.114,421.71L606.012,421.021L607.053,420.8M609.826,420.211L610.85,419.993L615.605,418.63L620.253,416.938L620.617,416.776M623.207,415.623L624.772,414.926L629.139,412.604L633.107,410.124M635.411,408.473L637.336,407.075L641.125,403.896L644.012,401.108M645.955,399.046L647.993,396.784L651.038,392.886L652.91,390.111M654.422,387.715L656.277,384.501L658.445,380.056L659.45,377.569M660.474,374.928L661.827,370.765L663.024,365.966L663.374,363.981M663.866,361.189L663.882,361.095L664.4,356.175" style="fill:none;fill-rule:nonzero;stroke:rgb(101,101,101);stroke-width:0.71px;"/>
    </g>
    <g transform="matrix(1,0,0,1,0,-68.0993)">
        <path d="M664.4,492.878L664.572,487.934L664.525,486.586M664.426,483.753L664.4,482.991L663.882,478.072L663.024,473.201L662.858,472.537M662.172,469.787L661.827,468.401L660.298,463.697L658.445,459.111M657.195,456.547L656.277,454.665L653.804,450.381L651.4,446.818M649.692,444.557L647.993,442.383L644.683,438.707L642.07,436.183M639.96,434.293L637.336,432.091L633.334,429.184L630.818,427.612M628.384,426.161L624.772,424.24L620.253,422.229L618.091,421.442M615.423,420.485L610.85,419.173L606.012,418.145L604.393,417.917M601.586,417.523L601.114,417.457L596.179,417.111L591.233,417.111L590.267,417.179M587.439,417.377L586.298,417.457L581.4,418.145L576.562,419.173L576.271,419.257M573.546,420.038L571.807,420.537L567.159,422.229L562.972,424.093M560.458,425.401L558.273,426.563L554.078,429.184L550.909,431.486M548.693,433.252L546.287,435.271L542.729,438.707L540.554,441.123M538.718,443.281L536.374,446.28L533.608,450.381L532.315,452.62M530.927,455.091L528.967,459.111L527.114,463.697L526.52,465.522M525.645,468.218L525.585,468.401L524.388,473.201L523.53,478.072" style="fill:none;fill-rule:nonzero;stroke:rgb(101,101,101);stroke-width:0.71px;"/>
    </g>
    <g transform="matrix(1,0,0,1,0,-12.0824)">
        <path d="M523.53,422.055L523.399,423.301M523.102,426.121L523.012,426.974L522.84,431.918" style="fill:none;fill-rule:nonzero;stroke:rgb(101,101,101);stroke-width:0.71px;"/>
    </g>
    <g transform="matrix(1,0,0,1,0,-39.0809)">
        <path d="M574.168,428.507L574.168,452.535M578.636,452.535L578.636,428.507M563.672,429.996L563.672,443.817M565.941,451.117L566.083,451.117L566.012,451.33L566.154,451.33L566.083,451.542L566.225,451.542M566.225,451.755L566.509,452.535M566.438,452.676L566.58,452.747L566.509,452.889L566.651,453.172M566.863,454.236L566.934,454.448L567.005,454.732M567.147,455.441L567.36,456.575L567.431,457.071L567.714,460.26M570.693,463.733L570.622,429.996M588.777,438.713L588.99,438.784M568.14,516.112L568.282,516.253L568.353,516.537M568.353,540.706L570.126,540.706L570.409,540.493L570.551,540.139L570.693,536.524M559.488,431.13L559.417,431.342L559.559,431.626M559.559,431.555L559.63,431.838M559.913,432.405L559.488,431.13M559.913,432.689L559.913,432.405M561.757,519.23L561.757,521.427M562.041,519.23L561.757,519.23M626.364,340.265L630.761,340.265M630.903,359.898L626.364,359.898M631.683,359.756L630.903,359.898M632.392,359.544L631.683,359.756M630.761,340.265L632.392,340.619L633.101,340.974M633.527,358.906L632.392,359.544M633.101,340.974L634.094,341.682M634.59,357.984L633.527,358.906M635.087,357.346L634.59,357.984M634.094,341.682L635.158,343.029L635.654,344.092M635.725,355.929L635.087,357.346M635.938,354.795L635.725,355.929M635.938,345.439L635.938,354.795M635.654,344.092L635.938,345.439M601.046,439.918L601.188,439.918M572.75,453.031L572.324,453.598" style="fill:none;fill-rule:nonzero;stroke:black;stroke-width:0.71px;"/>
    </g>
    <g transform="matrix(1,0,0,1,0,-59.21)">
        <path d="M573.53,472.876L572.75,473.16M616.506,473.16L616.081,472.947M616.79,473.443L616.506,473.16M616.932,473.798L616.79,473.443M582.04,461.04L581.614,460.189M589.77,468.411L589.415,468.411M607.216,461.536L607.641,460.189M600.479,458.843L600.408,458.347M600.266,457.78L601.613,458.063M553.318,502.928L553.318,512.284L553.389,512.922M553.602,501.582L553.318,502.928M553.389,512.922L553.673,513.844L554.027,514.552M554.169,500.377L553.602,501.582M554.736,515.474L554.736,515.615M554.027,514.552L554.736,515.474M555.233,499.172L554.169,500.377M555.375,499.172L555.233,499.172M555.729,498.818L555.375,499.172M554.736,515.615L555.8,516.537L556.864,517.104M556.864,498.18L555.729,498.818M556.864,517.104L557.857,517.387M558.353,497.825L556.864,498.18M557.857,517.387L562.041,517.458M562.041,497.825L558.353,497.825M629.059,488.469L629.13,488.611M572.324,483.862L572.182,483.862M562.254,558.992L562.041,556.016M562.396,559.418L562.254,558.992M562.112,556.086L562.396,556.441M562.821,559.701L562.396,559.418M566.722,556.724L566.863,556.583M567.076,559.63L562.821,559.701M567.431,559.134L567.076,559.63M567.643,556.583L567.431,559.134M567.573,556.086L567.643,556.583M599.699,341.541L599.415,341.966M600.124,341.399L599.699,341.541M617.499,392.785L618.279,393.139L618.563,393.635M625.584,341.399L600.124,341.399M561.615,536.737L561.544,536.241M561.544,538.863L561.615,536.737M562.041,539.005L561.544,539.005M578.778,396.967L578.849,360.394L578.919,359.685L578.919,359.969M578.919,359.685L578.99,359.331" style="fill:none;fill-rule:nonzero;stroke:black;stroke-width:0.71px;"/>
    </g>
    <g transform="matrix(1,0,0,1,0,-115.132)">
        <path d="M578.99,415.253L579.061,414.686L579.558,413.552L580.409,412.489L580.551,412.489L581.331,411.851L582.253,411.426L583.458,411.142M603.245,492.722L603.245,510.229L603.174,492.509M566.012,527.381L566.012,527.239M578.778,516.182L580.409,516.182M588.068,515.97L588.21,515.97M588.635,514.978L587.501,515.048M588.99,514.907L588.777,514.765M615.584,543.683L616.01,543.683L616.577,543.399L616.932,542.974M583.884,504.559L583.742,504.417M584.167,510.938L586.011,510.229M600.195,515.686L600.266,515.403M561.403,542.761L561.332,544.321L561.474,544.959L561.899,545.88M561.899,541.698L561.403,542.761M561.899,542.336L561.899,541.698M561.97,541.627L561.899,542.336M561.899,545.88L561.97,541.627M566.296,528.019L566.225,527.877M566.438,528.728L566.296,528.09M566.225,527.877L566.509,528.586M561.97,545.88L562.041,542.407M562.963,517.954L562.963,518.096M588.99,515.403L589.061,515.048M589.132,517.317L589.132,517.6M589.061,517.529L589.132,517.317M600.195,515.403L600.266,509.945M600.408,515.261L600.266,515.119M600.691,516.749L600.691,516.537M601.046,515.97L601.117,516.112M586.295,503.85L586.65,503.637M551.829,501.015L551.9,502.007M551.971,500.873L551.829,501.015M551.9,502.007L553.034,506.827L554.453,511.505M559.488,507.465L559.417,507.252M554.453,511.505L560.764,533.902M561.19,512.639L559.488,507.465M560.764,533.902L561.615,538.154L561.899,540.21L561.97,541.627" style="fill:none;fill-rule:nonzero;stroke:black;stroke-width:0.71px;"/>
    </g>
    <g transform="matrix(1,0,0,1,0,-11.7931)">
        <path d="M561.97,438.714L562.041,439.068M565.8,423.262L565.729,422.979M566.509,425.459L566.296,424.751M567.076,427.869L567.005,427.515M567.218,428.224L567.076,427.869M567.431,429.358L567.218,428.224M567.502,429.854L567.431,429.358M567.714,432.972L567.502,429.854M629.839,440.556L629.768,440.698L630.052,440.627M572.324,439.635L572.537,439.918M573.672,440.415L577.147,440.415M567.998,494.352L567.998,496.124M568.353,494.352L567.998,494.352M567.714,504.133L568.353,504.133M563.672,349.55L563.672,402.566M570.622,402.637L570.906,401.786L571.473,401.361L571.899,401.219M583.884,401.078L583.884,401.219M586.791,400.227L587.855,399.093M589.345,349.621L563.672,349.55M589.132,397.605L589.77,395.124M621.329,435.099L620.903,435.099M622.18,433.61L621.683,434.886L622.392,433.61M623.173,432.051L623.243,431.838L623.385,431.697M623.527,430.846L622.18,433.61M624.449,429.358L624.52,429.145L624.591,429.003L624.733,428.862M625.158,427.869L625.229,427.657M625.797,426.026L625.726,426.168M625.797,426.523L625.867,426.31L626.009,426.097L626.009,425.956L626.151,425.814M626.577,424.963L626.577,424.822M627.215,423.546L627.286,423.262L627.286,423.404M627.924,422.128L627.924,421.986L627.995,421.774L627.995,421.916M628.562,420.711L628.633,420.498L628.775,420.285M629.272,419.293L629.272,419.151M629.413,418.23L627.499,422.412M629.484,418.726L630.123,417.521M630.264,417.238L630.406,417.025" style="fill:none;fill-rule:nonzero;stroke:black;stroke-width:0.71px;"/>
    </g>
    <g transform="matrix(1,0,0,1,0,-67.5736)">
        <path d="M630.548,472.522L630.69,472.309M630.832,471.246L629.413,474.01M630.69,472.309L630.903,472.026M631.115,471.813L631.328,471.813L631.399,471.955M631.683,470.112L630.832,471.246M631.825,470.112L631.683,470.112M632.321,469.616L631.825,470.112M633.03,469.262L632.321,469.616M634.023,469.049L633.03,469.262M635.087,469.262L634.023,469.049M635.796,469.616L635.087,469.262M636.576,470.325L635.796,469.616M637.143,471.388L636.576,470.325M637.356,472.097L637.143,471.388M637.427,473.869L637.356,472.097M637.285,474.294L637.427,473.869M625.726,368.758L625.797,481.807M626.08,349.692L625.726,349.55M626.364,350.117L626.08,349.692M626.435,476.208L626.364,475.003M626.648,476.916L626.435,476.208M627.073,477.696L626.648,476.916M627.499,478.192L627.073,477.696M561.757,550.133L561.403,550.133M561.403,559.914L562.041,559.914M630.264,496.266L630.052,496.408M598.067,463.308L598.28,463.308M627.215,499.385L627.215,499.526M627.215,503.495L627.995,503.992L628.066,504.133M628.917,494.494L628.846,494.707M631.47,474.081L628.917,494.494M630.052,504.913L631.896,505.267L633.314,505.126M634.307,499.101L634.307,498.534M633.314,505.126L634.307,504.275L634.803,502.787L634.945,502.078L634.945,500.519L634.307,499.101M634.307,498.534L637.214,474.932L637.285,474.79M562.892,470.183L562.963,470.325L563.034,470.537M563.105,405.472L562.892,405.756M563.034,470.537L563.388,471.671M563.53,405.401L563.105,405.472M563.53,471.884L563.53,405.401M583.529,359.543L583.529,363.442" style="fill:none;fill-rule:nonzero;stroke:black;stroke-width:0.71px;"/>
    </g>
    <g transform="matrix(1,0,0,1,0,-58.2887)">
        <path d="M599.415,350.259L583.529,350.259M581.614,459.268L581.544,459.055M610.62,440.556L610.478,440.556M553.318,373.932L553.389,374.57M553.389,363.938L553.318,373.932M553.389,374.57L553.673,375.491M553.673,363.016L553.389,363.938M553.673,375.491L554.169,376.483M554.24,361.953L553.673,363.016M554.665,377.05L554.665,377.192M554.169,376.483L554.665,377.05M555.162,360.89L554.24,361.953M555.304,360.89L555.162,360.89M554.665,377.192L555.871,378.255M555.871,360.394L555.304,360.89M555.871,378.255L556.793,378.751M556.935,359.827L555.871,360.394M556.793,378.751L557.786,379.035M558.566,359.473L556.935,359.827M557.786,379.035L574.168,379.106M574.168,359.473L558.566,359.473M610.62,471.813L610.62,471.955M615.088,471.813L610.62,471.813M615.088,471.955L615.088,471.813M610.62,471.955L615.088,471.955M599.911,340.265L599.84,340.407M576.934,491.021L577.076,491.021M621.612,481.665L621.683,481.523M559.204,529.295L559.204,559.347L559.346,559.63M559.488,528.94L559.204,529.295M559.346,559.63L559.559,559.772M560.835,528.586L559.488,528.94M559.559,559.772L561.261,559.914M561.261,555.236L561.261,559.914M561.403,528.232L560.835,528.586M561.261,559.914L561.403,559.701M561.403,535.461L561.544,535.319M561.97,534.965L561.97,533.193M562.041,527.594L561.403,528.232M561.97,533.193L562.041,532.98M577.998,479.255L577.927,493.076L578.139,493.36M578.139,478.972L577.998,479.255M578.139,493.36L578.707,493.573M578.707,478.759L578.139,478.972M578.707,493.573L608.705,493.856M610.549,479.043L578.707,478.759M608.705,493.856L610.549,493.856M611.116,479.255L610.549,479.043" style="fill:none;fill-rule:nonzero;stroke:black;stroke-width:0.71px;"/>
    </g>
    <g transform="matrix(1,0,0,1,0,20.527)">
        <path d="M610.549,415.04L611.187,414.757M611.329,400.723L611.116,400.44M611.329,412.914L611.329,400.723M611.187,414.757L611.329,412.914M563.601,384.209L563.672,384.492M566.083,391.934L566.083,391.793M566.509,393.281L566.509,393.139M631.47,385.768L631.399,385.981M555.729,362.308L555.871,362.449L555.516,362.308M612.393,412.276L612.393,412.134M554.311,362.237L554.027,362.379M621.683,402.566L621.329,402.566M621.683,402.708L621.683,402.566M603.032,374.499L602.961,372.939M568.14,459.126L568.211,457M591.188,375.278L590.976,375.278M630.974,407.953L630.335,408.165M631.612,408.094L630.974,407.953M630.335,408.165L631.612,408.094M565.09,388.674L565.161,388.958M565.729,390.659L565.729,390.871M589.061,381.87L588.99,381.728M600.266,377.972L601.613,378.326M578.778,392.998L578.778,393.139M610.478,392.998L608.847,392.998M610.478,393.139L610.478,392.998M623.102,421.774L622.747,421.561M623.243,421.845L623.102,421.774M624.024,422.057L623.243,421.845M625.797,421.703L624.875,422.057M626.222,421.49L625.797,421.703M589.132,365.214L589.628,364.08M589.77,362.804L589.132,365.214M551.9,364.505L551.829,365.214L551.971,365.143M552.325,363.513L551.9,364.505M552.822,362.946L552.325,363.513M553.885,362.379L552.822,362.946M587.855,366.773L586.862,367.907L588.281,366.702M620.903,412.702L621.541,412.702M594.096,376.908L594.096,377.121M594.522,377.121L594.522,377.546M594.096,377.121L594.522,377.121M594.522,376.908L594.096,376.908M594.592,376.412L594.522,376.908M594.734,376.483L594.592,376.412M594.734,376.908L594.734,376.483M594.734,377.546L594.734,377.121" style="fill:none;fill-rule:nonzero;stroke:black;stroke-width:0.71px;"/>
    </g>
    <g transform="matrix(1,0,0,1,0,-61.8325)">
        <path d="M594.522,459.906L594.734,459.906M595.16,459.268L594.734,459.268M595.16,459.481L595.16,459.268M594.734,459.481L595.16,459.481M586.011,456.929L586.082,450.621M616.932,486.485L617.074,486.485M588.848,456.645L588.848,460.331M567.927,546.093L567.998,544.179M561.757,544.25L562.041,544.25M567.998,541.982L567.714,541.982M567.998,544.179L567.998,541.982M574.168,475.357L574.168,475.499M578.636,475.499L578.636,475.357M574.168,475.499L578.636,475.499M608.847,462.883L610.478,462.883M588.21,462.67L588.139,462.812M588.919,461.89L588.99,461.607M602.819,439.21L602.677,439.068M602.89,439.493L602.819,439.21M589.77,444.171L602.89,444.171M567.714,541.627L568.14,541.557M568.211,539.359L568.14,538.863M568.14,541.557L568.211,539.359M630.123,489.745L630.123,489.32L632.817,467.631L633.172,467.277M633.243,490.241L632.108,489.745M633.881,490.808L633.243,490.241M634.023,490.808L633.881,490.808M634.732,467.206L635.512,467.419L636.292,467.915L636.576,468.198M636.718,469.12L634.023,490.808M636.718,468.624L636.718,469.12M636.576,468.198L636.718,468.624M587.501,357.63L587.501,357.772M625.726,363.016L625.584,363.016M625.584,382.65L625.726,382.65M622.18,483.65L621.116,483.65M623.456,480.956L622.18,483.65M552.538,446.297L552.538,446.439L552.751,446.652M552.822,445.801L552.538,446.297M552.751,446.652L553.531,447.29M553.602,445.234L552.822,445.801M553.531,447.29L554.24,447.928M554.595,444.88L553.602,445.234M554.24,447.928L554.878,448.565L555.233,448.707L555.375,448.424" style="fill:none;fill-rule:nonzero;stroke:black;stroke-width:0.71px;"/>
    </g>
    <g transform="matrix(1,0,0,1,0,-52.1932)">
        <path d="M555.375,438.784L556.013,438.146L556.509,437.863M556.58,435.666L555.942,435.311M556.509,437.863L557.289,437.579M558.282,437.579L558.14,437.721M557.289,437.579L558.282,437.579M558.779,437.721L556.58,435.666M571.97,466.71L571.97,476.846M572.324,466.143L571.97,466.71M572.466,466.214L572.324,466.143M572.182,466.639L572.466,466.214M615.372,483.224L616.435,483.083M617.003,466.214L616.79,466.143L617.074,466.568M617.286,466.781L617.003,466.214M610.478,453.456L608.847,453.456M610.478,465.647L610.478,453.456M578.778,453.456L578.778,465.647M580.409,453.456L578.778,453.456M618.634,490.808L618.563,484.855M574.168,353.377L574.31,351.605L574.806,349.904L575.303,348.841L575.87,347.92L576.579,347.069L577.076,346.573L577.217,346.573M578.636,389.95L574.168,389.95M578.707,352.81L578.636,389.95M578.778,352.456L578.707,352.81M578.778,352.456L578.778,352.314M577.217,346.573L578.849,345.297M578.99,351.463L578.778,352.456M579.274,351.038L578.99,351.463M579.7,350.117L579.416,350.755M580.267,349.55L580.125,349.762M578.849,345.297L581.189,344.376M583.387,348.061L581.402,348.699M583.387,344.163L583.387,348.061M581.189,344.376L583.387,344.163M597.926,447.148L597.926,446.51M598.138,448.565L591.117,448.565M616.435,483.083L615.442,483.224M562.041,548.999L562.608,549.495M564.098,549.849L564.523,549.92M566.438,549.707L566.863,549.566M567.573,549.07L567.714,548.715M622.676,494.21L623.031,494.423L623.173,494.494L624.024,494.777" style="fill:none;fill-rule:nonzero;stroke:black;stroke-width:0.71px;"/>
    </g>
    <g transform="matrix(1,0,0,1,0,-2.0829)">
        <path d="M624.875,444.667L625.726,444.384L626.222,444.1M572.821,423.191L572.891,423.475M590.692,422.483L590.692,422.341M591.33,421.845L590.976,422.128L591.33,421.774M597.926,421.845L597.713,421.774M598.209,422.199L597.926,421.845M598.564,422.483L598.564,422.341M616.364,423.12L616.435,423.475M574.097,440.698L570.693,440.698M570.693,460.331L574.097,460.331M554.027,384.988L553.885,384.988M554.311,391.226L554.382,390.8M555.942,385.059L555.516,384.918M556.084,385.13L555.942,385.059M556.438,385.272L556.084,385.13M556.58,385.414L556.438,385.272M556.722,385.485L556.58,385.414M557.006,385.768L556.722,385.485M559.062,387.611L557.006,385.768M559.133,387.753L559.062,387.611M559.488,387.965L559.062,387.611M560.339,388.178L559.488,387.965M559.417,394.203L560.764,393.635M561.403,388.816L560.339,388.178M560.764,393.635L561.544,393.139L561.899,392.785L562.041,392.785M562.112,389.737L561.403,388.816M562.041,392.785L562.537,391.934L562.537,390.8L562.112,389.737M610.62,386.548L610.62,415.537M612.18,386.406L610.62,386.548M612.677,386.193L612.18,386.406M612.96,385.91L612.677,386.193M614.662,383.713L614.308,383.996M615.088,383.642L614.591,383.642M615.088,415.537L615.088,383.642M610.62,415.537L615.088,415.537M621.683,425.247L621.612,425.459M622.463,423.829L621.683,425.247M622.889,422.908L622.605,423.546M623.385,421.986L623.243,422.199M624.449,436.304L624.662,436.304M624.733,419.151L624.52,419.506M625.442,417.521L625.229,418.017M626.08,416.316L625.867,416.671M626.08,416.175L626.08,416.316" style="fill:none;fill-rule:nonzero;stroke:black;stroke-width:0.71px;"/>
    </g>
    <g transform="matrix(1,0,0,1,0,-66.2269)">
        <path d="M626.719,478.972L626.577,479.326M626.931,499.03L626.931,498.888M627.428,477.625L627.286,477.838M627.428,477.483L627.428,477.625M628.775,474.648L628.633,475.003M628.846,493.36L628.846,493.218M630.193,471.884L629.555,473.089M630.619,471.104L630.335,471.601M631.399,470.608L631.186,470.537M628.846,493.218L631.47,472.735M586.295,461.182L586.295,454.944L586.366,458.843L586.366,454.944L586.65,454.732M586.791,454.661L588.281,453.456M589.132,452.038L589.628,450.834M589.77,448.849L602.89,448.849M602.89,449.416L602.961,459.693L602.961,461.182L600.762,460.898M607.641,467.135L607.216,468.553M581.614,467.135L582.04,468.057M586.082,461.252L584.167,462.032M586.295,461.182L586.082,461.252M588.139,467.206L588.068,467.064M588.777,464.725L588.777,464.442M588.777,464.725L588.848,461.04M589.132,468.695L588.99,468.482M592.252,475.711L597.004,475.711M599.911,475.357L600.337,475.215M601.188,467.064L601.117,467.206M603.032,461.252L600.762,460.898M603.245,461.323L603.032,461.252M607.641,467.206L607.712,466.994M610.478,447.431L610.549,399.802M610.62,447.431L610.478,447.431M610.691,450.408L610.62,450.267M611.542,450.479L610.691,450.408M612.464,450.337L611.542,450.479M612.96,450.054L612.464,450.337M615.088,447.361L614.875,447.431M615.088,399.802L615.088,447.361M615.23,506.118L615.159,504.842M615.159,506.898L615.23,506.118M615.159,504.842L618.634,504.842M620.903,504.842L621.541,504.842M622.109,507.748L622.605,508.315L622.747,508.315M627.215,504.842L628.066,504.842M630.052,504.842L630.974,504.842" style="fill:none;fill-rule:nonzero;stroke:black;stroke-width:0.71px;"/>
    </g>
    <g transform="matrix(1,0,0,1,0,-30.2921)">
        <path d="M631.328,488.469L615.159,488.54M630.974,468.907L631.754,469.049M632.321,488.186L631.328,488.469M631.754,469.049L632.463,469.262M633.385,487.619L632.321,488.186M632.463,469.262L633.598,469.9M633.952,487.123L633.385,487.619M634.094,487.123L633.952,487.123M634.59,470.821L634.59,470.963M633.598,469.9L634.59,470.821M634.803,486.343L634.094,487.123M634.59,470.963L635.087,471.53L635.583,472.522M635.583,484.996L634.803,486.343M635.583,472.522L635.867,473.443M635.867,484.075L635.583,484.996M635.867,473.443L635.938,483.437L635.867,484.075M603.245,466.923L603.245,507.465L606.932,507.11L611.187,506.472L612.109,506.189L612.606,505.905L613.315,505.055L613.74,503.992L614.166,502.291M614.166,463.095L612.109,463.095M614.166,462.954L614.166,463.095M614.521,462.954L614.662,463.45L614.804,463.521M614.166,502.291L614.875,498.038M614.946,463.308L614.946,462.954M614.875,498.038L615.159,494.069M574.452,498.605L574.097,493.998M574.381,462.954L574.523,463.45M574.452,463.521L574.735,462.954M575.09,502.291L574.452,498.605M575.09,462.954L575.09,463.095M575.515,503.992L575.09,502.291M575.941,505.055L575.515,503.992M576.65,505.905L575.941,505.055M577.147,506.189L576.65,505.905M578.068,506.472L577.147,506.189M582.324,507.11L578.068,506.472M586.082,507.465L582.324,507.11M586.082,466.781L586.082,507.465M618.563,364.718L618.563,454.944M620.903,450.054L620.974,449.77L621.116,449.7M621.612,449.345L623.527,449.345" style="fill:none;fill-rule:nonzero;stroke:black;stroke-width:0.71px;"/>
    </g>
    <g transform="matrix(1,0,0,1,0,-4.98884)">
        <path d="M625.655,419.08L625.584,340.265M625.726,419.364L625.655,419.08M586.153,481.949L586.224,482.09M586.224,441.478L586.153,481.949M586.224,441.478L586.224,462.245M586.224,482.09L586.508,482.232L589.628,482.374M599.557,482.445L602.819,482.232L603.032,482.09M603.032,462.528L603.032,441.619M603.032,464.158L603.032,482.09M603.103,441.619L603.032,462.528M603.032,482.09L603.103,441.619M571.899,394.415L579.274,394.415M573.884,418.513L578.636,418.443M564.098,411L563.53,409.299M564.098,411.284L564.098,411M565.729,416.174L563.601,409.796M566.012,416.812L565.02,414.048M565.941,417.025L566.012,416.812M566.225,417.734L566.225,417.45M566.438,418.584L566.509,418.443M566.651,419.293L566.651,419.08M566.722,419.435L566.651,419.293M566.722,419.577L566.722,419.435M566.792,419.86L566.792,419.718L566.722,419.577M566.863,420.002L566.792,419.86M566.863,420.144L566.863,420.002M567.147,421.349L567.005,420.64M567.714,432.76L567.714,426.168M567.714,430.137L567.785,429.641M563.672,395.904L570.622,395.904M567.785,429.641L571.97,429.641M587.146,404.409L587.146,404.267M587.359,404.834L587.146,404.409M587.359,404.834L588.777,404.763M587.146,404.267L587.572,403.913L588.139,403.7M588.777,404.763L588.777,404.621M588.139,403.7L588.919,403.629M588.99,403.842L588.919,403.629M588.99,407.244L588.99,399.802M567.714,501.511L567.714,437.154M567.785,437.65L567.714,437.154M567.714,481.736L567.998,481.807M567.927,442.045L567.927,438.005M568.14,482.02L567.998,481.807M568.353,506.614L568.353,482.303M567.927,442.045L568.92,441.407" style="fill:none;fill-rule:nonzero;stroke:black;stroke-width:0.71px;"/>
    </g>
    <g transform="matrix(1,0,0,1,0,-61.9034)">
        <path d="M567.927,494.919L569.133,494.777M568.92,498.321L569.346,498.18M567.785,494.565L574.735,494.565M569.133,494.777L569.558,494.565M569.346,498.18L569.771,497.683L569.842,494.565M570.693,559.347L570.693,494.565M559.913,455.511L559.63,454.661M615.159,525.68L615.159,494.565M562.041,558.709L562.041,489.178M561.757,544.25L562.041,544.25M626.364,469.333L626.364,344.447M600.266,464.158L600.266,460.473M600.266,461.536L600.479,461.536M600.479,461.678L600.479,461.536M600.479,461.961L600.479,461.82M600.266,461.678L600.479,461.82M600.479,461.678L601.826,461.82M601.046,462.741L600.479,461.961M601.188,462.741L601.826,461.82M572.324,490.029L572.324,476.42M572.324,482.728L572.466,481.453L572.608,481.098M573.53,475.57L616.081,475.641M572.608,481.098L616.648,481.098M616.932,490.029L616.932,476.491M616.932,482.728L616.648,481.098M582.04,464.229L581.614,462.883M582.749,465.292L582.04,464.229M582.749,475.357L582.749,465.292M585.16,469.262L582.749,465.434M585.373,468.836L582.04,463.733M585.373,468.836L585.94,469.403L586.082,469.403M586.082,470.325L585.16,469.262M586.082,469.403L586.791,469.97M586.082,470.325L587.146,471.246M586.791,469.97L588.068,470.608M587.146,471.246L588.139,471.813M588.068,470.608L589.77,471.104M588.139,471.813L590.054,472.451L591.543,472.664M589.77,471.104L592.252,471.388M591.472,471.388L598.28,471.317M591.543,472.664L597.784,472.664L599.131,472.451M598.28,471.317L599.486,471.104L600.053,471.034M599.911,471.034L600.266,470.963M600.124,470.963L600.55,470.892" style="fill:none;fill-rule:nonzero;stroke:black;stroke-width:0.71px;"/>
    </g>
    <g transform="matrix(1,0,0,1,0,-62.0452)">
        <path d="M599.131,472.593L600.833,472.097M600.337,471.034L601.259,470.75M600.833,472.097L601.613,471.742L602.464,471.175M601.259,470.75L602.535,470.112M602.464,471.175L603.174,470.467M603.883,468.978L603.883,468.836M602.535,470.112L603.883,468.978M603.174,470.467L604.096,469.333M603.883,468.836L604.521,468.057M604.096,469.333L606.507,465.576L607.216,464.371M604.521,468.057L607.641,463.024M600.408,461.678L600.408,461.04M600.479,461.82L601.826,461.961L602.11,461.465L602.11,461.323M601.613,460.898L602.11,461.323M566.296,475.003L565.8,473.514M629.059,491.305L629.413,491.234M629.13,491.446L629.272,491.163M572.182,489.816L572.182,476.491M572.324,490.029L572.182,489.816M590.976,458.347L590.976,457.638L591.188,457.567M591.188,457.85L591.188,457.567M590.976,457.78L591.188,457.78M562.396,559.276L562.75,559.418L563.176,559.559L563.814,559.701L566.438,559.559M565.871,559.701L566.722,559.559M566.863,559.418L567.147,559.276L567.573,558.922M599.415,388.532L599.415,344.801M599.77,391.013L599.415,388.532M600.408,392.572L599.77,391.013M601.188,393.636L601.188,393.494L600.408,392.572M601.188,393.636L602.464,394.699L603.386,395.195L604.308,395.478L605.372,395.62L617.499,395.62M618.705,397.25L618.563,396.471M618.705,397.25L625.584,397.321L625.584,344.234M606.507,475.711L606.507,475.57M574.168,475.57L615.372,475.499M608.847,475.711L608.847,475.57" style="fill:none;fill-rule:nonzero;stroke:black;stroke-width:0.71px;"/>
    </g>
    <g transform="matrix(1,0,0,1,0,-66.156)">
        <path d="M578.778,479.822L610.478,479.822M561.544,545.951L561.544,543.683M561.544,543.187L561.686,542.974L561.97,542.832M603.174,479.822L603.174,479.681M583.458,362.166L599.415,362.095M578.778,403.913L589.486,403.984M589.77,404.409L589.486,403.984M589.77,449.487L589.77,404.409M589.77,442.895L602.323,442.895M589.77,442.966L602.677,443.037L603.174,443.533M603.245,461.253L605.159,461.961M606.507,463.095L606.507,399.731M605.159,461.961L606.507,463.095M578.778,467.206L578.778,455.582M578.778,466.71L580.409,466.71M580.409,479.61L580.409,455.441M588.068,466.994L587.501,466.072M588.21,466.994L588.564,466.427L588.99,465.93M612.18,494.848L612.18,486.768M612.18,494.778L615.655,494.848M612.18,487.548L616.435,487.548M616.435,487.69L616.435,487.548M615.655,494.848L616.719,494.494L616.932,494.281M616.435,487.69L616.932,487.619M582.749,463.095L582.749,455.441M582.749,463.095L582.891,463.095M579.487,455.441L583.884,455.441M583.884,455.582L584.167,455.511M582.891,463.095L584.167,461.961M584.167,455.511L585.444,455.299L586.295,454.874M586.011,461.253L586.011,455.015M600.195,468.553L600.195,466.001M567.714,498.321L567.643,498.18L567.714,493.927M572.04,496.195L571.97,490.808M572.182,496.549L572.04,496.195M572.182,496.549L572.537,496.904L573.317,497.187L577.076,497.258M574.735,498.818L574.877,498.676L575.019,497.258M575.09,498.818L577.076,498.959M627.215,497.967L628.066,495.486M628.066,496.833L628.066,495.486M627.215,497.967L628.066,496.833" style="fill:none;fill-rule:nonzero;stroke:black;stroke-width:0.71px;"/>
    </g>
    <g transform="matrix(1,0,0,1,0,-14.1321)">
        <path d="M561.97,444.88L561.97,440.627M589.061,416.529L589.061,414.048M588.99,408.945L589.061,408.803M589.203,416.883L589.132,416.6M590.125,418.301L589.203,416.883M590.976,410.433L598.28,410.433M590.125,418.301L591.259,418.868M589.061,408.803L591.259,408.803M591.188,409.654L591.259,408.803M591.259,418.868L591.969,419.01L597.358,419.01M598.067,409.654L597.997,408.803M598.067,409.654L598.209,409.654M598.28,410.433L598.28,409.866L598.209,409.654M597.358,419.01L598.493,418.726L598.989,418.443L600.195,416.529M597.997,408.803L600.195,408.803M600.266,408.945L600.195,408.803M600.266,416.387L600.408,416.316L600.691,415.749L601.117,415.111M600.195,416.529L600.266,416.387M584.167,403.487L586.65,402.637M622.109,455.653L622.676,456.149M598.138,410.504L598.067,409.937L598.28,409.937M552.041,400.723L551.971,399.873M552.68,401.716L552.041,400.723M552.751,401.999L552.68,401.716M552.751,401.999L554.169,403.275L554.311,403.275M554.311,404.125L554.311,403.275M554.524,404.905L554.311,404.125M555.162,405.826L554.524,404.905M555.162,405.968L555.162,405.826M555.162,405.968L555.658,406.393L556.297,406.606L557.715,406.606L559.417,406.252M563.388,418.23L561.19,411.638M562.325,442.824L562.041,441.974M562.325,442.824L563.105,443.604M563.601,418.939L563.388,418.23M563.105,443.604L564.098,443.958L565.232,444.029L566.154,443.817M566.651,428.224L566.509,427.798M567.005,429.854L566.863,429.287" style="fill:none;fill-rule:nonzero;stroke:black;stroke-width:0.71px;"/>
    </g>
    <g transform="matrix(1,0,0,1,0,-19.0935)">
        <path d="M566.154,448.778L567.076,448.14M567.36,447.857L567.36,447.644M567.076,448.14L567.36,447.857M567.36,447.644L567.714,446.864M629.839,447.857L630.264,447.786M630.052,447.928L630.052,447.786M572.324,447.219L572.537,447.431M572.324,440.556L572.821,440.627L572.821,440.202M572.537,447.431L573.601,447.786L577.147,447.786M572.821,440.485L577.147,440.485M577.147,447.786L577.147,439.493M567.714,503.708L567.998,503.637M567.714,503.425L567.998,503.425M563.672,409.866L570.622,409.937M579.274,408.52L579.487,408.378M586.65,407.598L586.791,407.527M587.855,406.393L588.777,405.543L588.848,405.401L588.99,405.259L589.061,405.047L589.132,404.905M623.598,453.243L625.371,453.243M621.329,443.746L621.329,442.186M617.286,443.746L621.471,443.746M621.541,444.1L621.471,443.746M621.329,442.328L621.683,442.328M621.612,442.47L621.612,442.328M621.541,444.1L621.612,442.47M612.109,455.511L612.109,450.196M612.109,451.826L614.45,451.684M612.109,450.196L615.442,450.125M614.45,451.684L614.237,450.196M562.892,421.845L562.892,357.275M620.903,443.746L620.903,438.713M622.392,440.911L623.243,439.21M623.385,438.997L623.669,438.288L623.882,437.863L624.094,437.367L624.52,436.516M624.733,436.162L624.804,435.878L625.229,435.028M625.229,434.957L625.867,433.681M623.527,438.146L625.726,433.469M626.151,433.114L626.577,432.264M626.577,432.122L627.924,429.429M625.797,433.327L627.499,429.712M627.995,429.216L628.066,429.003L628.633,427.869" style="fill:none;fill-rule:nonzero;stroke:black;stroke-width:0.71px;"/>
    </g>
    <g transform="matrix(1,0,0,1,0,-58.5013)">
        <path d="M628.704,467.135L629.272,466.001M629.272,465.86L629.484,465.434M630.123,464.229L630.264,463.946M630.406,463.733L630.548,463.45M630.903,462.954L631.115,462.741M631.47,464.513L631.399,462.883M631.47,464.513L632.108,463.521L632.392,463.45L632.959,463.024L634.378,462.812L635.371,462.954L636.222,463.379L637.002,464.159M637.285,465.222L637.002,464.159M625.726,379.318L625.726,340.477M561.403,559.914L561.403,535.674M561.757,543.116L561.757,540.919M561.757,543.116L562.041,543.116M598.067,454.307L598.067,454.023M626.719,493.431L626.719,492.084L626.931,491.305L627.215,490.454M627.215,494.423L626.719,493.431M628.066,489.178L628.491,488.824L628.846,485.634M628.066,495.061L630.052,495.841M631.47,465.009L631.47,464.513M637.285,465.718L637.285,465.222M563.53,462.812L563.388,462.599M574.097,522.207L574.097,491.163M574.097,491.375L574.168,491.163M600.266,457L600.266,453.314M583.529,354.369L599.415,354.299M586.082,472.168L586.082,472.026M578.778,472.026L603.174,472.026M581.473,459.126L581.544,457.709M581.614,459.41L581.473,459.126M581.544,457.709L582.182,456.078L582.749,455.441M578.778,471.955L610.478,471.955M610.478,459.551L610.478,392.076M610.62,442.541L610.62,439.706M610.478,442.47L610.62,442.47M574.168,396.258L574.168,359.685M602.89,440.84L602.89,436.162M599.84,340.619L625.584,340.548M574.877,491.163L574.877,491.021M574.877,491.163L575.09,491.163M577.076,493.785L577.076,487.194M577.147,494.636L577.076,493.785" style="fill:none;fill-rule:nonzero;stroke:black;stroke-width:0.71px;"/>
    </g>
    <g transform="matrix(1,0,0,1,0,38.6007)">
        <path d="M577.217,396.967L577.076,396.683M577.147,397.534L577.572,397.817M577.217,396.967L577.785,397.179L583.458,397.25M577.572,397.817L586.224,397.888L603.032,398.03L611.684,398.101M583.458,397.25L611.613,397.463L611.967,397.321L612.109,397.108M611.684,398.101L612.109,397.817M615.159,394.203L615.088,394.061M586.082,374.853L586.082,369.821M603.174,374.853L603.174,369.821M563.459,458.984L565.587,459.126M616.364,382.791L616.364,382.437M554.311,344.163L555.729,344.234M628.066,403.558L628.066,397.959M628.066,403.558L629.201,403.558L629.91,403.275L630.052,403.062L630.052,398.739M621.612,393.494L621.612,392.856M621.612,393.352L621.541,392.927M612.109,394.132L612.393,394.061M554.027,344.305L554.949,344.163M591.117,357.772L591.188,357.205M577.076,393.494L577.147,390.092M565.941,373.435L565.729,372.798M600.266,359.898L601.542,360.111L601.897,360.323M602.11,360.678L601.897,360.323M587.146,360.678L587.359,360.323L587.784,360.111L588.777,359.898L588.99,359.898M580.409,375.066L580.409,374.924M622.747,403.487L623.669,403.984L624.875,404.054M624.024,403.984L624.875,403.984M624.875,404.054L625.938,403.7L626.719,402.92M589.628,346.006L589.77,344.73M551.971,347.14L551.971,346.573L552.325,345.581L553.105,344.73L553.885,344.305M588.281,348.628L588.281,348.487L588.777,347.849M582.749,375.066L582.749,374.924" style="fill:none;fill-rule:nonzero;stroke:black;stroke-width:0.71px;"/>
    </g>
    <g transform="matrix(1,0,0,1,0,-47.6571)">
        <path d="M620.903,486.272L620.903,480.319M614.45,480.248L621.471,480.319L621.541,479.893M621.541,486.272L621.541,479.893M616.932,475.641L617.074,475.428L617.074,462.032M588.848,442.47L588.99,442.47M567.714,530.004L567.998,530.004M608.847,461.111L608.847,381.232M608.847,448.211L610.478,448.211M588.281,448.849L588.139,448.636M588.848,449.841L588.281,448.849M588.848,449.841L588.99,449.912M589.77,424.751L602.677,424.892M628.066,476.987L628.137,476.562L628.846,474.79M630.123,475.57L632.108,475.57M633.172,453.102L634.732,453.031M621.116,469.474L621.116,466.923L621.4,466.781L623.456,466.781M554.595,430.704L555.942,430.775M558.14,433.185L558.779,433.185M573.742,478.688L575.019,478.759M612.109,478.759L612.18,476.349M616.435,478.547L617.145,477.98M617.286,477.413L617.286,462.245M617.145,477.98L617.286,477.413M618.634,488.186L618.634,486.272M618.776,489.462L618.634,488.186M618.776,489.462L619.059,489.745L619.414,489.887L620.832,489.887L620.903,486.272M579.274,346.502L579.416,346.219M579.7,345.581L581.402,344.163M606.507,461.111L606.507,451.188M591.259,442.328L591.401,440.698L591.898,440.344L597.429,440.344L597.855,440.698M597.926,441.974L597.855,440.698M597.997,442.328L597.926,441.974M621.541,479.185L621.541,472.664M621.541,479.893L621.612,479.752M562.608,544.959L562.963,545.1L563.459,545.242M565.232,545.384L565.871,545.313M566.863,545.03L567.147,544.888M621.612,488.115L621.541,486.272" style="fill:none;fill-rule:nonzero;stroke:black;stroke-width:0.71px;"/>
    </g>
    <g transform="matrix(1,0,0,1,0,41.1594)">
        <path d="M621.825,391.573L621.612,390.935M622.109,400.362L621.612,399.299M622.676,392.565L621.825,391.573M622.676,392.565L623.598,392.991M625.371,392.991L625.938,392.707L626.648,392.069L626.648,391.927M626.719,400.362L626.931,399.937M626.648,391.927L626.931,391.644M627.215,399.228L627.215,394.762M626.931,399.937L627.215,399.228M577.147,379.24L590.692,379.24M590.834,379.099L590.834,378.957M590.692,379.24L590.834,379.099M590.834,378.957L598.209,378.957M591.33,378.532L595.656,378.532M598.209,378.957L598.564,379.24L611.967,379.24L612.18,379.453M612.96,342.668L613.599,342.101L614.308,340.754M622.463,380.587L622.605,380.303M626.08,372.932L626.577,371.94M626.931,391.502L627.215,390.652M627.428,370.097L627.995,368.963M628.775,367.262L629.555,365.703M630.193,364.498L630.335,364.214M630.619,363.718L630.903,363.293L631.186,363.151M586.295,353.795L588.564,353.512L588.848,353.654M600.266,353.654L600.479,353.654L600.479,353.512L600.762,353.512M602.89,350.96L602.89,341.463M607.074,356.418L606.507,355.78M607.641,359.749L607.783,359.466M607.712,358.048L607.074,356.418M607.783,359.466L607.712,358.048M614.308,340.754L614.875,340.045M614.166,391.502L615.088,391.502M574.948,391.644L577.076,391.644M589.628,436.226L591.614,436.367L599.557,436.297M387.356,460.685L423.789,460.685L425.625,460.403M384.602,460.121L387.356,460.685M425.625,460.403L426.684,460.05M383.402,459.485L384.602,460.121M426.684,460.05L428.096,459.273" style="fill:none;fill-rule:nonzero;stroke:black;stroke-width:0.71px;"/>
    </g>
    <g transform="matrix(1,0,0,1,0,-9.45381)">
        <path d="M428.096,509.887L428.52,509.392M382.696,509.392L383.402,510.098M428.59,349.327L428.096,348.762M383.402,348.55L382.484,349.468M428.096,348.762L426.684,347.985M384.602,347.915L383.402,348.55M426.684,347.985L425.625,347.632M387.356,347.35L384.602,347.915M423.789,347.35L387.356,347.35M425.625,347.632L423.789,347.35M428.52,509.392L430.92,509.322L431.627,508.898L431.98,507.839L431.98,351.021M431.909,350.88L431.909,350.457M378.954,350.104L379.307,349.609L379.801,349.397L382.625,349.327M431.415,349.609L431.768,350.104M430.92,349.397L431.415,349.609M428.59,349.327L430.92,349.397M379.731,509.322L382.696,509.392M379.095,508.898L379.731,509.322M378.742,507.768L379.095,508.898M378.742,351.021L378.742,507.768M378.813,350.457L378.813,350.88M382.696,509.392L382.131,508.474M428.52,509.392L429.085,508.474L429.297,507.698M382.131,508.474L381.849,507.062L381.99,350.527M429.297,507.698L429.297,350.88M381.99,350.527L382.484,349.468M429.297,350.88L428.732,349.468M430.85,349.468L428.732,349.468M431.768,350.104L430.85,349.468M379.801,349.468L378.954,350.104M382.484,349.468L379.801,349.468M754.821,344.408L754.678,344.542M756.961,345.025L756.734,344.804M757.886,341.342L756.961,345.025M758.188,341.245L757.886,341.342M760.669,341.831L758.188,341.245M760.843,342.04L760.669,341.831M758.639,351.608L760.843,342.04M759.167,351.733L758.639,351.608M753.307,350.349L752.832,350.237M749.508,366.676L749.48,366.558M754.821,344.408L756.734,344.804M749.508,366.676L751.554,367.215" style="fill:none;fill-rule:nonzero;stroke:black;stroke-width:0.71px;"/>
    </g>
    <g transform="matrix(1,0,0,1,0,-111.777)">
        <path d="M751.554,469.538L751.75,469.417M750.999,473.309L750.89,473.06M750.999,473.309L753.744,473.957L753.952,473.784M749.48,468.881L754.678,446.865M750.89,473.06L756.961,447.348M753.952,473.784L758.639,453.932M750.851,463.074L750.376,462.962L752.832,452.561M756.712,464.457L756.184,464.333M756.712,464.457L759.167,454.056M792.195,455.556L792.263,455.739M790.005,455.15L790.306,455.054M790.825,451.442L790.005,455.15M790.598,451.221L790.825,451.442M788.117,450.635L790.598,451.221M787.868,450.744L788.117,450.635M785.559,460.288L787.868,450.744M785.031,460.163L785.559,460.288M790.892,461.547L791.367,461.659M786.987,477.849L787.065,477.756M792.195,455.556L790.306,455.054M786.987,477.849L784.915,477.415L784.794,477.22M783.726,481.036L783.934,480.862M783.726,481.036L780.98,480.388L780.872,480.139M787.065,477.756L792.263,455.739M783.934,480.862L790.005,455.15M780.872,480.139L785.559,460.288M788.436,471.948L788.911,472.06L791.367,461.659M782.575,470.564L783.103,470.689M782.575,470.564L785.031,460.163M758.282,457.805L784.146,463.912M757.597,460.709L783.46,466.816M744.898,454.645L744.213,457.549L751.261,459.213M751.947,456.309L744.898,454.645M797.53,467.072L796.844,469.976L789.796,468.311M790.482,465.408L797.53,467.072M747.475,500.523L747.362,500.682M749.695,500.688L749.428,500.518M749.847,496.893L749.695,500.688M750.122,496.737L749.847,496.893M752.671,496.803L750.122,496.737M752.884,496.971L752.671,496.803M752.686,506.788L752.884,496.971M753.229,506.802L752.686,506.788" style="fill:none;fill-rule:nonzero;stroke:black;stroke-width:0.71px;"/>
    </g>
    <g transform="matrix(1,0,0,1,0,-19.7467)">
        <path d="M747.209,414.617L746.721,414.605M746.834,431.376L746.782,431.266M747.475,408.492L749.428,408.488M746.834,431.376L748.947,431.484L749.114,431.326M749.175,435.289L749.018,435.068M749.175,435.289L751.995,435.361L752.164,435.149M746.782,431.266L747.362,408.652M749.018,435.068L749.695,408.657M752.164,435.149L752.686,414.758M746.935,425.301L746.447,425.288L746.721,414.605M752.955,425.455L752.413,425.441M752.955,425.455L753.229,414.772M785.863,409.476L785.967,409.642M783.637,409.528L783.912,409.372M783.68,405.73L783.637,409.528M783.413,405.56L783.68,405.73M780.864,405.495L783.413,405.56M780.643,405.652L780.864,405.495M780.337,415.467L780.643,405.652M779.795,415.453L780.337,415.467M785.815,415.607L786.303,415.62M785.331,432.363L785.388,432.256M785.863,409.476L783.912,409.372M785.331,432.363L783.214,432.363L783.056,432.196M782.791,436.151L782.96,435.938M782.791,436.151L779.971,436.079L779.814,435.858M785.388,432.256L785.967,409.642M782.96,435.938L783.637,409.528M779.814,435.858L780.337,415.467M785.541,426.291L786.029,426.303L786.303,415.62M779.521,426.136L780.063,426.15M779.521,426.136L779.795,415.453M753.13,418.622L779.696,419.303M753.054,421.605L779.62,422.286M739.383,418.269L739.306,421.252L746.546,421.438M746.622,418.455L739.383,418.269M793.444,419.656L793.367,422.638L786.127,422.453M786.204,419.47L793.444,419.656M689.896,455.997L690.04,456.142M690.547,455.852L689.896,455.997M691.342,455.925L690.547,455.852M691.414,456.069L691.342,455.925" style="fill:none;fill-rule:nonzero;stroke:black;stroke-width:0.71px;"/>
    </g>
    <g transform="matrix(1,0,0,1,0,99.4565)">
        <path d="M690.547,336.938L690.763,336.938M685.991,336.432L685.991,336.215M685.991,406.218L685.991,406.001M686.28,406.363L685.991,406.218M685.991,336.215L686.352,336.071M687.437,406.58L686.28,406.363M686.352,336.071L687.509,335.854M796.491,406.58L687.437,406.58M687.509,335.854L796.564,335.854M797.648,406.363L796.491,406.58M796.564,335.854L797.721,336.071M798.01,336.215L798.01,336.432M797.721,336.071L798.01,336.215M798.01,406.218L797.648,406.363M798.01,406.001L798.01,406.218M690.33,336.938L690.474,336.938M685.918,338.023L685.991,336.432M685.991,406.001L685.918,404.338M687.799,339.903L685.918,338.023M687.799,402.458L687.799,339.903M685.918,404.338L687.799,402.458M690.836,336.938L690.98,336.938M796.202,402.458L796.202,339.903M798.082,338.023L798.01,336.432M796.202,339.903L798.082,338.023M798.082,404.338L796.202,402.458M798.01,406.001L798.082,404.338M734.949,337.951L734.949,337.155M735.022,337.083L748.834,337.083M748.907,337.951L734.949,337.951M748.907,337.445L748.907,337.951M748.834,337.083L748.907,337.445M735.094,404.483L735.094,404.989L735.166,405.351L748.979,405.351M749.051,404.483L735.094,404.483M749.051,405.278L749.051,404.483M690.04,336.938L690.474,336.866M690.547,336.866L690.691,336.794M690.836,336.866L691.414,336.866M685.991,336.432L688.16,338.529M685.991,406.001L688.16,403.904M688.522,339.325L688.16,338.529M688.16,403.904L688.522,403.181M688.883,341.784L688.522,339.325M688.883,400.722L688.883,341.784M688.522,403.181L688.883,400.722M795.117,400.65L795.117,341.711M795.479,403.109L795.117,400.65M795.117,341.711L795.479,339.253" style="fill:none;fill-rule:nonzero;stroke:black;stroke-width:0.71px;"/>
    </g>
    <g transform="matrix(1,0,0,1,0,-97.2622)">
        <path d="M795.84,600.623L795.479,599.827M795.479,535.971L795.84,535.248M795.84,600.623L798.01,602.72M795.84,535.248L798.01,533.151M716.874,305.916L711.344,305.916M711.344,348.436L715.76,348.436L724.581,348.898L733.366,349.821L742.09,351.203L750.731,353.04L759.263,355.326L767.663,358.056L775.91,361.221L783.979,364.814L791.85,368.824L799.499,373.241L806.907,378.051L814.054,383.243L820.918,388.802L827.482,394.713L833.728,400.959L839.639,407.523L845.198,414.388L850.39,421.534L855.201,428.942L859.617,436.591L863.627,444.462L867.22,452.531L870.386,460.778L873.115,469.178L875.401,477.711L877.238,486.351L878.62,495.075L879.543,503.86L880.005,512.681L880.005,521.514L879.543,530.335L878.62,539.12L877.238,547.844L875.401,556.484L873.115,565.016L870.386,573.417L867.22,581.663L863.627,589.733L859.617,597.603L855.201,605.253L850.39,612.661L845.198,619.807L839.639,626.672L833.728,633.236" style="fill:none;fill-rule:nonzero;stroke:black;stroke-width:0.71px;"/>
    </g>
    <g transform="matrix(1,0,0,1,0,170.464)">
        <path d="M833.728,365.51L827.482,371.756L820.918,377.667L814.054,383.226L806.907,388.418L799.499,393.228L791.85,397.645L783.979,401.655L775.91,405.248L767.663,408.413L759.263,411.143L750.731,413.429L742.09,415.266L733.366,416.647L724.581,417.571L715.76,418.033L711.344,418.033M711.344,460.553L716.874,460.553L727.919,459.974L738.918,458.818L749.842,457.088L760.66,454.788L771.343,451.926L781.862,448.508L792.187,444.544L802.291,440.046L812.145,435.025L821.723,429.495L830.999,423.471L839.947,416.97L848.542,410.01L856.761,402.609L864.582,394.789L871.982,386.57L878.942,377.975L885.443,369.027L891.467,359.751L896.997,350.173L902.018,340.319L906.517,330.215L910.48,319.889L913.898,309.371L916.76,298.688L919.06,287.869L920.79,276.946L921.946,265.946L922.525,254.902L922.525,243.842L921.946,232.797L920.79,221.798L919.06,210.874" style="fill:none;fill-rule:nonzero;stroke:black;stroke-width:0.71px;"/>
    </g>
    <g transform="matrix(1,0,0,1,0,-251.899)">
        <path d="M919.06,633.236L916.76,622.418L913.898,611.735L910.48,601.216L906.517,590.891L902.018,580.787L896.997,570.932L891.467,561.354L885.443,552.079L878.942,543.131L871.982,534.536L864.582,526.317L856.761,518.496L848.542,511.095L839.947,504.135L830.999,497.634L821.723,491.611L812.145,486.081L802.291,481.06L792.187,476.561L781.862,472.598L771.343,469.18L760.66,466.317L749.842,464.018L738.918,462.288L727.919,461.132L716.874,460.553M476.068,460.553L470.538,460.553L459.493,461.132L448.494,462.288L437.57,464.018L426.752,466.317L416.069,469.18L405.55,472.598L395.225,476.561L385.121,481.06L375.267,486.081L365.689,491.611L356.413,497.634L347.465,504.135L338.87,511.095L330.651,518.496L322.83,526.317L315.43,534.536L308.47,543.131L301.969,552.079L295.945,561.354L290.415,570.932L285.394,580.787L280.895,590.891L276.932,601.216" style="fill:none;fill-rule:nonzero;stroke:black;stroke-width:0.71px;"/>
    </g>
    <g transform="matrix(1,0,0,1,0,138.444)">
        <path d="M276.932,210.874L273.514,221.392L270.652,232.075L268.352,242.894L266.622,253.818L265.466,264.817L264.887,275.862L264.887,286.922L265.466,297.966L266.622,308.966L268.352,319.889L270.652,330.708L273.514,341.391L276.932,351.909L280.895,362.235L285.394,372.339L290.415,382.193L295.945,391.771L301.969,401.047L308.47,409.995L315.43,418.59L322.83,426.809L330.651,434.629L338.87,442.03L347.465,448.99L356.413,455.491L365.689,461.515L375.267,467.045L385.121,472.066L395.225,476.564L405.55,480.528L416.069,483.946L426.752,486.808L437.57,489.108L448.494,490.838L459.493,491.994L470.538,492.573L476.068,492.573M476.068,450.053L471.652,450.053L462.831,449.591L454.046,448.667L445.322,447.286L436.681,445.449L428.149,443.163L419.749,440.433L411.502,437.268L403.433,433.675L395.562,429.665L387.913,425.248L380.505,420.438L373.358,415.246" style="fill:none;fill-rule:nonzero;stroke:black;stroke-width:0.71px;"/>
    </g>
    <g transform="matrix(1,0,0,1,0,-79.5469)">
        <path d="M373.358,633.236L366.494,627.677L359.93,621.767L353.684,615.521L347.773,608.956L342.214,602.092L337.022,594.946L332.211,587.538L327.795,579.888L323.785,572.018L320.192,563.948L317.026,555.702L314.297,547.301L312.011,538.769L310.174,530.129L308.792,521.404L307.869,512.62L307.407,503.799L307.407,494.965L307.869,486.144L308.792,477.36L310.174,468.635L312.011,459.995L314.297,451.463L317.026,443.062L320.192,434.816L323.785,426.746L327.795,418.876L332.211,411.226L337.022,403.818L342.214,396.672L347.773,389.808L353.684,383.243L359.93,376.997L366.494,371.087L373.358,365.528L380.505,360.336L387.913,355.525L395.562,351.109L403.433,347.098L411.502,343.506L419.749,340.34L428.149,337.611L436.681,335.324L445.322,333.488L454.046,332.106L462.831,331.183L471.652,330.721L476.068,330.721M711.344,288.201L476.068,288.201M476.068,330.721L711.344,330.721" style="fill:none;fill-rule:nonzero;stroke:black;stroke-width:0.71px;"/>
    </g>
    <g transform="matrix(1,0,0,1,0,-2.21971)">
        <path d="M175.787,636.297L169.664,630.175M175.787,213.935L169.664,207.812M172.725,633.236L167.623,633.236M172.725,633.236L177.828,633.236M172.725,210.874L167.623,210.874M172.725,210.874L177.828,210.874M172.725,633.236L172.725,638.338M172.725,210.874L172.725,205.771" style="fill:none;fill-rule:nonzero;stroke:black;stroke-width:0.71px;"/>
    </g>
    <g transform="matrix(1,0,0,1,0,-73.2987)">
        <path d="M172.725,704.315L172.725,281.953M261.826,219.038L267.949,212.915M919.463,219.038L925.586,212.915M264.887,215.976L264.887,210.874M264.887,215.976L264.887,221.078M922.525,215.976L922.525,210.874M922.525,215.976L922.525,221.078M264.887,215.976L259.785,215.976M922.525,215.976L927.627,215.976" style="fill:none;fill-rule:nonzero;stroke:black;stroke-width:0.71px;"/>
    </g>
    <g transform="matrix(1,0,0,1,0,-516)">
        <path d="M264.887,658.677L922.525,658.677M304.345,697.172L310.468,691.049M876.944,697.172L883.067,691.049M307.407,694.11L307.407,689.008M307.407,694.11L307.407,699.213M880.005,694.11L880.005,689.008M880.005,694.11L880.005,699.213M307.407,694.11L302.304,694.11M880.005,694.11L885.108,694.11" style="fill:none;fill-rule:nonzero;stroke:black;stroke-width:0.71px;"/>
    </g>
    <g transform="matrix(1,0,0,1,0,-70.1806)">
        <path d="M307.407,248.291L880.005,248.291M209.802,661.739L203.68,655.616M209.802,324.878L203.68,318.755M206.741,658.677L201.639,658.677M206.741,658.677L211.843,658.677M206.741,321.817L201.639,321.817M206.741,321.817L211.843,321.817M206.741,658.677L206.741,663.78M206.741,321.817L206.741,316.714" style="fill:none;fill-rule:nonzero;stroke:black;stroke-width:0.71px;"/>
    </g>
    <g transform="matrix(0,-1,1,0,0,0)">
        <text x="-440.257px" y="169.057px" style="font-family:'EuclidCircularA-Medium', 'Euclid Circular A', sans-serif;font-weight:500;font-size:19.958px;">3.00</text>
    </g>
    <text x="573.963px" y="139.009px" style="font-family:'EuclidCircularA-Medium', 'Euclid Circular A', sans-serif;font-weight:500;font-size:19.958px;">4.65</text>
    <text x="541.584px" y="172.571px" style="font-family:'EuclidCircularA-Medium', 'Euclid Circular A', sans-serif;font-weight:500;font-size:19.958px;">4.05	<tspan x="592.477px " y="172.571px ">(</tspan>4.00)</text>
    <g transform="matrix(0,-1,1,0,0,0)">
        <text x="-472.896px" y="201.202px" style="font-family:'EuclidCircularA-Medium', 'Euclid Circular A', sans-serif;font-weight:500;font-size:19.958px;">2.40	<tspan x="-417.274px " y="201.202px ">(</tspan>2.35)</text>
    </g>
    <g transform="matrix(0,-1,-1,0,628.565,626.807)">
        <path d="M38.311,421.824L375.171,421.824" style="fill:none;fill-rule:nonzero;stroke:black;stroke-width:0.71px;"/>
    </g>
</svg>
