<?xml version="1.0" encoding="UTF-8" standalone="no"?>
<!DOCTYPE svg PUBLIC "-//W3C//DTD SVG 1.1//EN" "http://www.w3.org/Graphics/SVG/1.1/DTD/svg11.dtd">
<svg width="100%" height="100%" viewBox="0 0 1191 842" version="1.1" xmlns="http://www.w3.org/2000/svg" xmlns:xlink="http://www.w3.org/1999/xlink" xml:space="preserve" xmlns:serif="http://www.serif.com/" style="fill-rule:evenodd;clip-rule:evenodd;stroke-linecap:round;stroke-linejoin:round;stroke-miterlimit:10;">
    <g transform="matrix(1,0,0,1,0,225.381)">
        <path d="M567.079,370.509L573.457,370.509L573.457,362.005L577.709,362.005L577.709,373.344L567.079,373.344L567.079,370.509M454.617,362.005L454.617,370.509L460.995,370.509L460.995,373.344L450.365,373.344L450.365,362.005L454.617,362.005M460.995,370.509L567.079,370.509L567.079,373.344L460.995,373.344L460.995,370.509M454.617,359.171L454.617,243.165" style="fill:none;fill-rule:nonzero;stroke:black;stroke-width:0.71px;"/>
    </g>
    <g transform="matrix(0.707107,0.707107,0.707107,-0.707107,-71.4197,386.465)">
        <path d="M430.004,313.924C476.414,360.334 551.66,360.334 598.07,313.924" style="fill:none;fill-rule:nonzero;stroke:black;stroke-width:0.71px;"/>
    </g>
    <g transform="matrix(1,0,0,1,0,339.97)">
        <path d="M573.457,255.921L454.617,255.921L454.617,244.582L573.457,244.582L573.457,255.921M561.41,244.582L554.323,244.582L554.323,243.165L561.41,243.165L561.41,244.582M559.284,243.165L556.449,243.165L556.449,238.913L542.985,238.913L542.985,236.078L559.284,236.078L559.284,243.165M559.993,255.921L555.741,255.921L555.741,265.842L559.993,265.842L559.993,255.921" style="fill:none;fill-rule:nonzero;stroke:black;stroke-width:0.71px;"/>
    </g>
    <g transform="matrix(1,0,0,1,0,-4.43958)">
        <path d="M746.585,603.165C845.996,603.165 926.585,522.576 926.585,423.165M926.585,423.165C926.585,323.754 845.996,243.165 746.585,243.165" style="fill:none;fill-rule:nonzero;stroke:black;stroke-width:0.71px;"/>
    </g>
    <g transform="matrix(1,0,0,1,0,-4.43962)">
        <path d="M740.916,285.684L750.837,285.684L750.837,560.645L740.916,560.645L740.916,285.684L740.916,296.314L729.577,296.314L729.577,285.684L740.916,285.684M740.916,550.015L740.916,560.645L729.577,560.645L729.577,550.015L740.916,550.015M740.916,296.314L740.916,550.015L729.577,550.015L729.577,296.314L740.916,296.314M735.246,296.314L735.246,550.015M658.249,397.47L657.309,398.627M658.394,396.023L658.249,397.47M658.177,395.228L658.394,396.023M657.309,394.143L658.177,395.228M580.73,427.624L577.693,429.215M662.95,444.184L662.733,444.184M663.311,444.256L662.95,444.184M662.733,444.184L662.516,443.533M662.516,369.991L662.66,369.412L662.805,369.267M513.768,395.372L514.057,395.951M513.045,394.866L513.768,395.372M512.539,394.794L513.045,394.866M516.371,415.042L516.516,415.042L519.192,417.211M514.925,413.451L516.371,415.042M514.564,412.583L514.925,413.451M514.491,411.281L514.564,412.583M514.636,410.341L514.491,411.281M514.925,409.473L514.636,410.341M514.636,402.893L514.925,403.833M514.491,401.302L514.636,402.893M514.564,400.651L514.491,401.302M514.925,399.784L514.564,400.651M515.359,399.277L514.925,399.784M515.359,399.133L515.359,399.277M516.371,398.12L515.359,399.133M518.396,396.457L516.371,398.12M519.192,395.951L518.396,396.457M658.249,417.645L657.309,418.802M658.394,416.199L658.249,417.645M658.177,415.403L658.394,416.199M657.309,414.318L658.177,415.403" style="fill:none;fill-rule:nonzero;stroke:black;stroke-width:0.71px;"/>
    </g>
    <g transform="matrix(1,0,0,1,0,-33.5578)">
        <path d="M675.388,432.734L680.739,432.734M674.231,432.879L675.388,432.734M680.739,432.807L681.39,432.734L681.39,431.939L681.173,431.65M680.956,431.577L674.303,431.577M681.173,431.65L680.956,431.577M637.568,467.155L631.783,467.011L630.915,466.866L629.035,466.288M658.032,465.347L657.526,466.432M629.035,466.288L627.01,465.275M626.215,464.48L626.07,464.48M627.01,465.275L626.215,464.48M658.032,464.118L658.032,465.347M626.07,464.48L624.913,463.323M657.599,463.178L658.032,464.118M657.309,462.816L657.599,463.178M633.012,462.31L644.582,462.383M631.277,462.021L633.012,462.31M624.913,463.323L623.901,461.587M629.613,461.298L631.277,462.021M623.901,461.587L623.539,460.719M628.746,460.43L629.613,461.298M628.312,459.707L628.746,460.43M628.095,459.273L628.312,459.707M623.539,460.719L622.888,458.261M627.661,457.682L628.095,459.273M622.888,458.261L622.382,452.765M627.155,452.259L627.661,457.682M626.938,447.92L627.155,452.259M622.382,452.765L622.021,446.257M621.876,442.641L621.587,434.614M627.155,421.02L627.083,423.189M622.093,425.286L622.382,420.586M627.661,416.03L627.155,421.02M622.382,420.586L622.888,415.452M628.167,414.222L627.661,416.03M628.601,413.571L628.167,414.222M622.888,415.452L623.395,413.427M628.746,413.138L628.601,413.571M623.395,413.427L623.684,412.487M629.613,412.342L628.746,413.138M630.915,411.691L629.613,412.342M632.506,411.33L630.915,411.691M657.671,410.39L657.309,410.824M623.684,412.487L624.985,410.173M658.032,409.522L657.671,410.39M624.985,410.173L626.938,408.365M658.032,408.293L658.032,409.522" style="fill:none;fill-rule:nonzero;stroke:black;stroke-width:0.71px;"/>
    </g>
    <g transform="matrix(1,0,0,1,0,-37.6074)">
        <path d="M626.938,412.414L629.107,411.33M657.526,411.185L658.032,412.342M657.309,411.04L657.526,411.185M629.107,411.33L630.77,410.824L632.144,410.607L644.872,410.534M671.049,474.459L663.022,474.459M671.049,405.472L671.049,474.459M663.022,405.472L671.049,405.472M529.026,481.473L521.216,481.473L520.421,481.256M530.256,481.184L529.026,481.473M520.421,481.256L519.77,480.895M531.196,480.606L530.256,481.184M519.77,480.895L519.336,480.099M531.919,479.593L531.196,480.606M519.336,480.099L519.192,479.521M532.353,478.436L531.919,479.593M534.594,452.62L532.353,478.436M534.811,450.957L534.594,452.62M519.192,479.521L519.192,450.379M535.39,448.932L534.811,450.957M536.402,447.486L535.39,448.932M537.993,446.618L536.402,447.486M540.018,446.329L537.993,446.618M548.117,446.401L540.018,446.329M539.945,433.168L548.189,433.096M537.921,432.879L539.945,433.168M536.402,432.011L537.921,432.879M535.39,430.493L536.402,432.011M534.811,428.468L535.39,430.493M534.594,426.805L534.811,428.468M532.353,400.989L534.594,426.805M519.192,429.119L519.192,400.049M531.919,399.832L532.353,400.989M519.192,400.049L519.336,399.47M531.196,398.892L531.919,399.832M530.906,398.82L531.196,398.892M519.336,399.47L519.77,398.603M530.183,398.313L530.906,398.82M519.77,398.603L520.349,398.241M528.954,398.024L530.183,398.313M521.144,398.024L528.954,398.024M520.349,398.241L521.144,398.024M553.396,447.486L553.757,447.775M552.889,446.401L553.396,447.486M599.604,447.775L599.676,445.751L600.471,444.738M553.034,444.087L552.889,444.087M585.503,444.015L576.825,443.798" style="fill:none;fill-rule:nonzero;stroke:black;stroke-width:0.71px;"/>
    </g>
    <g transform="matrix(1,0,0,1,0,-37.6074)">
        <path d="M600.471,434.904L599.676,433.964M553.251,432.59L552.962,433.096M553.323,432.228L553.251,432.59M553.757,431.867L553.323,432.228M599.676,433.964L599.604,431.867M564.026,426.66L561.856,427.239M564.315,426.226L564.026,426.66M653.404,464.046L653.115,464.046M634.314,464.118L634.603,463.974M653.766,463.829L653.404,464.046M634.603,463.974L635.182,463.323M654.272,463.106L653.766,463.829M654.561,462.455L654.272,463.106M635.182,463.323L635.76,461.949L635.905,461.153M654.995,460.792L654.561,462.455M655.212,459.056L654.995,460.792M635.977,461.009L636.266,458.622L636.266,456.887M655.212,456.525L655.212,459.056M636.266,456.887L636.122,455.296M654.995,454.79L655.212,456.525M636.122,455.296L635.905,454.501M635.905,454.356L635.615,453.199M654.489,452.982L654.995,454.79M635.615,453.199L635.037,451.97M653.983,451.97L654.489,452.982M635.109,427.239L635.615,426.298L635.905,425.069M635.905,424.925L636.122,424.057L636.266,422.466L636.194,419.79L635.905,418.344M635.905,418.272L635.615,417.115L635.037,415.885L634.458,415.379M614.5,450.234L599.242,450.306L598.374,450.089L597.796,449.8L596.494,449.005M596.422,448.788L596.133,448.788M596.494,449.005L596.422,448.788M596.133,448.788L595.193,448.282M557.156,448.209L553.179,448.137M557.373,448.137L557.156,448.209M595.193,448.282L594.397,448.137L576.68,448.137L575.668,448.065L575.451,448.065M553.179,448.137L549.057,447.848" style="fill:none;fill-rule:nonzero;stroke:black;stroke-width:0.71px;"/>
    </g>
    <g transform="matrix(1,0,0,1,0,-36.3057)">
        <path d="M549.057,446.546L548.695,446.401M553.323,446.257L553.757,446.474M548.695,446.401L548.406,446.112L548.117,445.1M552.817,445.1L553.323,446.257M599.821,446.474L599.821,444.521L600.544,443.509M600.544,433.53L599.821,432.517M548.189,431.794L548.406,430.926M553.323,430.782L552.889,431.794M553.757,430.565L553.323,430.782M599.821,432.517L599.821,430.565M548.406,430.926L548.768,430.565L548.985,430.493M557.807,430.203L560.338,430.203M548.985,430.493L552.962,430.203M579.211,430.131L594.831,430.131M578.994,430.203L579.211,430.131M557.445,430.131L557.807,430.203M552.962,430.203L557.445,430.131M594.831,430.131L595.554,429.914M596.133,429.553L596.422,429.553M595.554,429.914L596.133,429.553M596.422,429.553L596.566,429.263L598.013,428.396M599.097,428.034L622.093,428.034M598.013,428.396L599.097,428.034M598.013,442.786L591.432,442.786M589.191,442.714L585.503,442.714M582.538,442.641L585.503,442.714M584.852,442.641L582.538,442.641M576.825,442.497L582.538,442.641M576.536,434.614L577.548,434.614M653.983,475.11L653.983,474.82M656.152,474.82L656.152,475.11M658.9,407.714L659.189,407.569L659.334,407.136L659.334,402.58L659.189,402.218L658.756,402.074M635.76,416.97L635.905,416.97M635.905,417.042L635.76,416.97M635.905,423.768L635.76,423.768L635.76,423.623L635.905,423.623M671.916,476.122L672.278,475.833L672.712,474.387L673.218,472L673.58,469.325L674.086,460.502" style="fill:none;fill-rule:nonzero;stroke:black;stroke-width:0.71px;"/>
    </g>
    <g transform="matrix(1,0,0,1,0,-54.6009)">
        <path d="M674.086,478.798L674.231,470.699M674.158,436.929L673.58,426.154L673.218,423.478L672.712,421.092L672.35,419.863L672.206,419.573L671.989,419.429M574.439,479.376L571.98,478.075L571.474,477.858M571.908,477.568L571.98,478.075M571.98,476.99L574.511,478.725M571.402,476.701L571.98,476.99M580.224,469.903L580.441,469.976M574.294,469.325L574.439,469.252M574.656,469.18L574.8,469.18M574.511,469.252L574.656,469.18M577.476,469.108L580.224,469.903M574.873,469.108L575.017,469.108L575.162,469.035M577.476,469.108L576.97,468.963M577.476,468.168L577.476,469.108M574.728,469.18L574.728,468.168M560.555,444.594L560.699,444.594M558.241,444.521L558.819,444.666M558.241,445.461L558.241,444.521M561.061,444.521L561.061,445.461M561.278,444.377L561.133,444.449M561.567,444.304L561.35,444.377M561.784,444.232L561.639,444.304M558.241,444.521L555.276,443.581M564.387,436.929L563.664,436.639M563.736,435.988L563.519,435.844M563.736,435.555L564.315,435.844M563.736,435.555L563.736,435.988M563.664,436.639L561.278,434.976M561.205,434.253L563.736,435.555M657.309,428.034L657.309,426.226M645.739,420.007L644.872,427.528M646.173,418.923L645.739,420.007M657.309,420.08L657.309,418.778L657.165,418.272M646.824,418.127L646.173,418.923M646.824,417.983L646.824,418.127M647.041,417.838L646.824,417.983M657.165,418.272L656.731,417.621M647.764,417.404L647.041,417.838M656.731,417.621L656.08,417.259M648.921,417.115L647.764,417.404M655.501,417.115L648.921,417.115M656.08,417.259L655.501,417.115" style="fill:none;fill-rule:nonzero;stroke:black;stroke-width:0.71px;"/>
    </g>
    <g transform="matrix(1,0,0,1,0,-8.32064)">
        <path d="M621.804,415.452L621.876,417.404M513.985,400.121L514.057,400.627M648.993,450.089L655.574,450.089L656.152,449.945M647.836,449.8L648.993,450.089M656.152,449.945L656.803,449.511M646.824,449.222L647.836,449.8M656.803,449.511L657.309,448.354M646.173,448.354L646.824,449.222M645.739,447.269L646.173,448.354M657.309,448.354L657.309,447.125M645.161,441.918L645.739,447.269M644.582,437.145L644.365,435.048M657.309,422.683L657.309,437.579M659.189,446.691L658.756,446.835M659.334,446.329L659.189,446.691M659.334,441.773L659.334,446.329M659.189,441.34L659.334,441.773M658.9,441.195L659.189,441.34M657.526,441.195L658.9,441.195M643.859,405.038L643.859,406.34M574.366,421.887L573.932,421.67M578.344,421.67L577.476,421.887M578.85,421.67L578.344,421.67M573.932,421.67L571.835,421.598M579.284,421.454L578.85,421.67M571.835,421.598L569.232,421.309L566.267,420.803L564.749,420.441L564.387,419.935M579.501,419.79L579.284,421.454M564.387,419.935L563.809,419.718M579.356,419.646L579.501,419.79M578.271,419.646L579.356,419.646M576.97,419.573L578.344,419.646M563.809,419.718L562.507,419.501M574.945,419.356L576.97,419.573M574.439,419.284L574.945,419.356M574.294,419.212L574.439,419.284M574.077,419.212L573.571,419.356M574.294,419.212L574.077,419.212M562.507,419.501L560.265,418.85M575.451,418.778L574.294,419.212M561.856,401.929L561.856,402.074M561.35,401.857L560.338,402.218M561.856,401.929L561.35,401.857M559.687,401.567L561.35,401.857M575.451,402.218L572.848,401.495M556.216,401.351L559.687,401.567M572.848,401.495L571.619,401.278" style="fill:none;fill-rule:nonzero;stroke:black;stroke-width:0.71px;"/>
    </g>
    <g transform="matrix(1,0,0,1,0,-70.0036)">
        <path d="M571.619,462.961L571.329,462.816L570.968,462.31L570.1,462.093L565.906,461.37M556.433,461.298L556.216,463.033M556.722,461.081L556.433,461.298M562.941,461.081L561.784,461.081M565.906,461.37L562.941,461.081M558.241,460.864L556.722,461.081M561.784,461.081L561.061,460.864M674.231,476.556L681.1,476.556L681.39,476.194M681.39,475.399L680.594,475.399M681.39,476.194L681.39,475.399M674.231,475.327L674.231,476.556M680.594,475.399L674.231,475.327M674.231,474.965L674.231,469.686M680.956,469.686L680.956,474.965M674.231,469.686L680.956,469.686M621.587,471.06L621.804,477.134M604.81,475.327L603.581,475.327M605.316,475.182L604.81,475.327M603.581,475.327L602.93,475.11L602.279,474.748M606.184,474.676L605.316,475.182M606.546,474.314L606.184,474.676M602.279,474.748L601.701,474.17M606.546,474.17L606.546,474.314M601.701,474.17L601.339,473.591M607.052,473.447L606.546,474.17M601.339,473.591L601.122,472.94M607.269,472.723L607.052,473.447M601.122,472.94L601.05,472.217M607.269,471.639L607.269,472.723M601.05,472.217L601.195,471.277M601.267,471.205L601.339,470.916M606.835,470.554L607.269,471.639M601.411,470.843L601.701,470.265M606.256,469.831L606.763,470.482M606.112,469.831L606.256,469.831M601.701,470.265L602.351,469.686L602.496,469.542M605.678,469.469L606.112,469.831M605.172,469.252L605.606,469.397M602.496,469.542L603.219,469.18M604.015,469.035L605.099,469.18M603.219,469.18L604.015,469.035M671.483,434.759L671.989,434.831M657.309,447.269L657.309,459.707M514.925,475.037L514.057,475.037" style="fill:none;fill-rule:nonzero;stroke:black;stroke-width:0.71px;"/>
    </g>
    <g transform="matrix(1,0,0,1,0,-37.4628)">
        <path d="M505.235,442.424L505.091,442.135L505.091,437.29L505.235,436.928M514.057,436.856L514.925,436.856M657.309,431.65L657.309,434.976M657.309,444.377L657.309,447.342M557.518,426.371L557.807,426.371M556.577,426.154L557.518,426.371M557.807,426.371L558.096,426.154M556.288,426.009L556.577,426.154M556.144,425.72L556.288,426.009M558.096,426.154L558.458,424.852L558.675,422.972L558.602,421.598M556.144,420.297L556.144,425.72M556.433,419.863L556.144,420.297M558.602,421.598L558.241,419.863L557.951,419.429M557.518,419.356L556.433,419.863M557.951,419.429L557.518,419.356M561.35,426.298L561.784,426.371L562.941,426.082L563.086,425.937M561.061,425.72L561.35,426.298M560.772,424.491L561.061,425.72M560.627,422.755L560.772,424.491M560.772,421.237L560.627,422.755M561.061,419.935L560.772,421.237M563.158,420.224L563.013,419.935M561.35,419.429L561.061,419.935M561.784,419.356L561.35,419.429M563.013,419.935L561.784,419.356M506.826,427.817L507.332,427.745M577.765,459.924L578.271,459.996M577.548,459.562L577.765,459.924M578.271,459.996L579.284,459.562L579.573,459.273M577.114,457.321L577.548,459.562M577.114,455.874L577.114,457.321M577.331,454.428L577.114,455.874M579.573,453.488L579.356,453.271M577.693,453.199L577.331,454.428M578.127,452.982L577.693,453.199M579.356,453.271L578.127,452.982M574.439,459.924L573.932,459.996M574.656,459.635L574.439,459.924M573.932,459.996L572.848,459.49L572.631,459.201M575.09,457.538L574.656,459.635M575.09,455.658L575.09,457.538" style="fill:none;fill-rule:nonzero;stroke:black;stroke-width:0.71px;"/>
    </g>
    <g transform="matrix(1,0,0,1,0,-37.3904)">
        <path d="M574.945,454.573L575.09,455.585M572.631,459.129L572.631,453.56L572.848,453.199M574.583,453.199L574.945,454.573M574.366,452.982L574.583,453.199M572.848,453.199L574.077,452.91L574.366,452.982M661.576,435.121L661.431,435.121M661.793,435.41L661.576,435.121M661.431,435.121L661.214,434.904M661.431,444.232L661.214,444.304M661.648,443.943L661.431,444.232M510.297,449.511L509.791,449.511M509.646,449.222L509.357,449.222M509.791,449.511L509.646,449.222M509.357,449.222L509.212,449.077L509.285,447.92L509.068,447.703M510.297,446.04L510.297,449.511M510.08,445.823L510.297,446.04M509.068,447.703L509.068,445.751L509.285,445.534M510.153,445.028L510.08,445.823M509.936,444.811L510.153,445.028M509.285,444.811L509.936,444.811M509.285,445.534L509.285,444.811M510.297,434.47L509.791,434.47L509.646,434.181L509.212,434.108L509.285,432.879L509.068,432.662M510.297,430.999L510.297,434.47M510.08,430.782L510.297,430.999M509.068,432.662L509.068,430.71L509.285,430.637M510.153,429.986L510.08,430.782M509.285,430.637L509.285,429.842M509.936,429.769L510.153,429.986M509.285,429.842L509.936,429.769M674.158,447.92L674.086,427.239M674.231,427.166L674.086,427.239M674.014,425.865L673.941,425.648M633.88,464.118L633.88,451.753M633.88,427.022L633.88,415.162M634.097,415.162L634.097,427.022M555.059,418.633L558.024,417.042M571.04,450.234L568.726,450.162M571.474,450.162L571.04,450.234M571.257,450.017L571.474,450.162M568.654,450.089L567.063,449.872" style="fill:none;fill-rule:nonzero;stroke:black;stroke-width:0.71px;"/>
    </g>
    <g transform="matrix(1,0,0,1,0,-53.5885)">
        <path d="M567.063,466.071L566.701,465.998M569.883,465.926L571.257,466.215M566.701,465.998L566.412,465.854L569.883,465.926M639.231,460.141L639.231,459.852M653.983,419.356L653.983,419.067M656.152,419.067L656.152,419.356M653.983,425.214L653.983,424.997M656.152,424.997L656.152,425.214M571.474,469.397L571.763,468.963L574.222,468.312M512.828,467.661L511.96,467.734M512.828,467.661L512.611,467.661M513.334,467.517L512.828,467.661M513.841,467.011L513.334,467.517M513.985,466.577L513.841,467.011M514.057,465.781L514.057,466.143M554.987,442.28L555.276,442.569M622.021,466.288L614.5,466.215M580.802,469.397L580.513,469.108M507.332,467.734L506.537,467.661M506.754,467.661L506.537,467.661L506.031,467.517L505.525,467.011L505.38,466.577M505.308,466.215L505.308,466.071M505.886,444.232L505.38,444.955M506.465,443.943L505.886,444.232M663.311,418.416L668.445,418.344M680.594,458.984L680.449,458.55M680.594,458.55L680.666,458.984M635.905,470.482L635.76,470.482M635.76,470.337L635.905,470.337M635.76,470.482L635.76,470.337M512.033,443.943L512.539,443.871M635.905,477.134L635.76,477.062L635.977,476.99M626.359,447.775L657.309,447.775M626.359,447.775L626.287,447.486M625.419,446.98L625.564,446.98L626.287,447.486M625.419,446.98L625.058,446.257M624.118,445.751L625.058,446.257M624.118,445.751L624.045,445.461L624.19,444.811L624.552,444.087L625.275,443.943M626.142,443.22L654.272,443.22M625.275,443.943L626.142,443.22M654.272,443.22L657.309,443.292" style="fill:none;fill-rule:nonzero;stroke:black;stroke-width:0.71px;"/>
    </g>
    <g transform="matrix(1,0,0,1,0,-37.3181)">
        <path d="M574.439,462.093L577.693,462.093M576.753,462.093L580.513,460.141M580.73,460.502L580.513,460.141M663.311,477.134L671.916,477.134M671.049,477.134L671.338,476.628L671.483,475.688M662.516,443.22L662.805,443.22M662.516,476.411L662.516,402.869M662.516,436.061L662.805,436.061M662.805,443.22L662.805,436.061M671.483,475.688L671.483,403.592L671.338,402.652M662.805,402.146L668.445,402.146M671.338,402.652L671.049,402.074M668.518,402.074L671.483,402.074M513.985,435.048L514.057,428.829M513.985,429.119L513.696,428.396M513.117,427.889L513.696,428.396M512.394,427.672L513.117,427.889M506.465,427.672L512.539,427.672M521.072,451.029L522.735,451.174L523.964,450.813M519.698,450.451L521.072,451.029M519.192,450.089L519.698,450.451M523.964,450.813L526.495,449.583L529.966,447.342L532.353,446.04L535.751,444.594L537.776,443.943L538.355,443.871L538.933,443.654L539.295,443.654L539.873,443.437L541.898,443.075L545.297,442.714L546.96,442.569L550.865,442.497L551.66,442.28M514.925,442.352L514.997,441.99M551.66,442.28L552.383,441.846M514.997,441.99L515.142,441.773L515.359,441.267M552.383,441.846L553.034,441.05M515.359,441.267L515.793,440.689M553.034,441.05L553.468,440.038M515.793,440.689L516.733,439.749L516.805,439.387M553.468,440.038L553.468,438.809M516.805,439.387L515.793,438.302L515.359,437.724" style="fill:none;fill-rule:nonzero;stroke:black;stroke-width:0.71px;"/>
    </g>
    <g transform="matrix(1,0,0,1,0,-18.5168)">
        <path d="M553.468,420.007L552.817,418.706M515.359,418.923L515.142,418.416L515.07,418.272M552.383,418.272L552.817,418.706M515.07,418.272L514.925,417.91M551.154,417.693L552.383,418.272M545.007,417.404L551.154,417.693M544.79,417.332L544.935,417.332M541.97,417.042L544.79,417.332M539.873,416.609L541.97,417.042M539.584,416.536L539.873,416.609M538.355,416.247L539.584,416.536M537.776,416.175L538.355,416.247M535.751,415.524L537.776,416.175M532.353,414.078L535.751,415.524M529.966,412.776L532.353,414.078M526.351,410.462L529.966,412.776M519.192,410.028L519.698,409.667M523.964,409.305L526.351,410.462M519.698,409.667L521.072,409.088M522.735,408.943L523.964,409.305M521.072,409.088L522.735,408.943M626.359,432.879L657.309,432.879M625.419,432.228L625.564,432.228L626.359,432.879M625.419,432.228L624.479,430.71L624.552,430.493L625.13,430.203L625.492,429.408L625.492,429.191L626.142,428.829M626.432,428.323L653.549,428.323M626.142,428.829L626.432,428.323M653.549,428.323L657.309,428.396M575.451,412.487L576.102,412.414M575.451,412.414L578.994,412.414M674.231,434.542L674.303,408.293M637.568,452.114L656.369,452.114L657.526,451.391M656.369,447.269L657.309,447.775M644.582,447.342L656.369,447.269M622.021,431.143L621.876,427.6M626.721,428.323L626.576,425.286M623.684,425.069L662.516,425.069M626.576,425.286L626.504,425.069M623.684,416.681L639.231,416.681M623.684,425.069L623.684,416.681M626.142,416.681L626.142,416.536L662.516,416.536M626.504,416.536L626.576,416.319" style="fill:none;fill-rule:nonzero;stroke:black;stroke-width:0.71px;"/>
    </g>
    <g transform="matrix(1,0,0,1,0,-37.1735)">
        <path d="M621.587,438.23L621.804,434.614L621.876,432.517M626.576,434.976L626.793,431.36M621.876,432.517L622.093,428.902M632.506,414.945L634.458,414.945L653.188,414.873L656.442,414.873L657.309,414.439M656.369,410.1L657.309,410.607M644.872,410.1L656.369,410.1M552.817,445.968L552.022,443.726M552.889,445.968L552.094,443.726M663.022,474.025L663.022,405.038M599.459,436.422L602.351,436.422M606.546,436.422L618.116,436.422L621.008,436.278M602.351,436.422L602.785,436.133M605.75,436.133L606.546,436.422M602.785,436.133L603.725,435.844L604.81,435.844L605.606,436.061M621.081,436.205L621.442,435.627M599.459,436.422L600.037,435.121M621.442,435.627L621.587,434.687L621.731,434.614M600.037,435.048L600.471,434.614L600.471,434.47M600.544,434.398L601.918,433.241M603.581,432.517L621.876,432.517M601.918,433.241L603.581,432.517M560.772,427.094L561.061,427.094M560.916,427.094L561.061,427.022M548.117,445.968L547.755,444.087L551.588,443.726M538.355,443.726L552.745,443.726M674.086,453.56L674.014,453.199M674.014,453.127L674.158,452.476L674.014,425.648M538.355,434.904L550.142,434.904M547.755,434.687L550.142,434.904M547.755,434.687L548.189,432.662M653.549,446.98L653.477,445.1L653.332,444.883M643.931,446.98L643.931,443.726M652.898,444.666L653.332,444.883M643.931,444.666L652.898,444.666M554.987,419.718L555.276,419.718L555.276,418.778M555.059,418.561L555.276,418.778M554.987,425.865L555.059,418.416" style="fill:none;fill-rule:nonzero;stroke:black;stroke-width:0.71px;"/>
    </g>
    <g transform="matrix(1,0,0,1,0,-43.1032)">
        <path d="M553.757,453.271L599.821,453.271M600.471,450.234L600.254,449.8M600.037,449.656L600.254,449.8M591.432,449.583L600.037,449.656M552.456,449.656L552.889,449.583L553.179,449.511M585.503,449.511L591.432,449.583M553.179,449.511L553.323,449.439L553.468,449.439M553.54,449.366L553.685,449.366M573.282,449.005L576.825,449.294M554.336,449.005L554.48,448.932M572.125,448.716L573.282,449.005M554.553,448.86L554.987,448.499M554.77,448.716L555.42,448.065M571.04,448.209L572.125,448.716M570.389,447.775L570.534,447.775L571.04,448.209M555.42,448.065L555.637,447.558M570.389,447.775L569.955,447.269L569.666,446.763M555.71,447.486L555.999,446.401M569.666,446.763L569.449,445.968L569.449,444.738M555.999,446.401L555.999,444.16M569.449,444.738L569.811,443.654M555.999,444.16L555.637,442.93M569.811,443.654L570.461,442.786M555.637,442.93L555.131,442.207M570.461,442.786L571.329,442.207M554.914,442.063L555.131,442.207M571.329,442.207L572.848,441.701M554.191,441.557L554.914,442.063M572.848,441.701L574.149,441.484L576.536,441.412M578.199,441.267L580.947,441.267M576.536,441.412L578.199,441.267M553.54,441.267L553.685,441.267M553.323,441.195L553.468,441.195M580.007,441.267L582.176,441.123L588.106,441.123M552.962,441.05L553.251,441.123M584.996,441.123L589.769,441.05M552.528,440.978L552.962,441.05M552.094,440.978L552.745,440.978M589.769,441.05L600.037,440.978M552.094,440.978L552.166,440.833L552.962,438.592M553.757,437.362L599.821,437.362M561.856,432.734L564.315,431.722" style="fill:none;fill-rule:nonzero;stroke:black;stroke-width:0.71px;"/>
    </g>
    <g transform="matrix(1,0,0,1,0,-37.4628)">
        <path d="M633.88,464.19L644.365,464.19L653.332,464.118L653.621,464.046M634.097,463.974L650.656,463.974M634.097,464.19L634.097,451.825M653.621,464.046L654.055,463.612L654.561,462.6L654.923,461.443M635.905,461.009L635.977,460.864M654.923,461.443L655.285,459.129L655.285,456.236L655.14,455.007M635.905,454.356L635.905,454.211M655.14,455.007L654.851,453.56L654.128,451.825M654.128,427.094L654.778,425.503M635.905,424.925L635.905,424.78M654.778,425.503L655.068,424.129L655.212,422.827L655.212,420.297L654.995,418.561L654.561,416.898L653.838,415.524M653.477,415.235L653.838,415.524M653.188,415.162L653.477,415.235M614.5,450.089L622.021,450.089M557.373,447.992L560.265,447.992M559.904,447.992L560.265,447.92M571.474,447.848L575.451,447.92M560.265,447.92L571.474,447.848M603.581,446.546L621.876,446.546M602.135,445.968L603.581,446.546M601.195,445.317L602.135,445.968M600.471,444.594L601.195,445.317M639.303,444.015L639.231,435.627M599.459,442.714L602.496,442.714M585.72,442.641L599.459,442.714M577.187,442.352L585.72,442.641M601.773,442.207L602.496,442.714M574.149,442.135L577.187,442.352M572.486,441.701L574.149,442.135M601.773,442.207L601.195,441.412M571.691,441.267L572.486,441.701M571.691,441.267L571.329,440.833M601.195,441.412L600.905,440.689M571.329,440.833L571.112,440.327M600.905,440.689L600.761,439.821M571.112,440.327L571.112,439.17M600.761,439.821L600.905,438.736M571.112,439.17L571.329,438.592" style="fill:none;fill-rule:nonzero;stroke:black;stroke-width:0.71px;"/>
    </g>
    <g transform="matrix(1,0,0,1,0,-9.18837)">
        <path d="M571.329,410.317L571.908,409.739M600.905,410.462L601.195,409.739M571.908,409.739L573.065,409.233M601.195,409.739L601.701,409.088M573.065,409.233L574.656,408.943M601.701,409.088L601.701,408.943M574.656,408.943L585.575,408.509L599.459,408.437M601.701,408.943L602.351,408.437M639.159,415.741L639.159,407.352M550.142,406.919L552.022,407.063L552.094,406.919L552.889,404.677M565.544,403.231L575.451,403.158M560.338,403.086L565.544,403.231M513.985,422.177L514.057,414.222M513.985,415.885L513.768,415.379M505.308,416.175L505.669,415.235M513.768,415.379L513.262,414.873M505.669,415.235L506.175,414.801L506.754,414.584L512.467,414.584L513.262,414.873M505.38,422.177L505.308,414.15L514.057,414.222M600.037,415.741L599.459,414.439M589.769,407.136L600.037,407.136M651.38,447.992L657.309,447.992M651.38,447.703L658.756,447.703M606.329,414.439L619.417,414.439M606.329,414.439L606.835,414.15M616.959,414.15L619.417,414.439M616.308,413.933L616.959,414.15M606.835,414.15L607.486,413.499M615.585,413.499L616.308,413.933M614.934,413.282L615.585,413.499M614.5,413.065L614.934,413.282M607.486,413.499L607.847,412.776M614.5,413.065L614.211,412.559M607.92,412.704L608.064,412.053M608.137,411.98L608.137,410.823M608.209,411.474L608.209,411.33M614.211,412.559L614.211,410.462L614.355,410.1M608.064,410.751L607.92,410.1M614.355,410.1L614.717,409.739M607.847,410.028L607.703,409.667M614.717,409.739L615.368,409.522M607.63,409.594L607.558,409.45M615.368,409.522L615.585,409.233" style="fill:none;fill-rule:nonzero;stroke:black;stroke-width:0.71px;"/>
    </g>
    <g transform="matrix(1,0,0,1,0,-37.2458)">
        <path d="M607.486,437.435L607.269,437.145M607.124,437.001L607.269,437.145M615.585,437.29L616.38,436.856M606.763,436.712L607.124,437.001M616.38,436.856L618.116,436.495M606.546,436.495L606.763,436.712M651.38,408.654L658.9,408.654M651.38,408.871L651.38,402.724M651.38,403.014L658.756,403.014M671.916,477.062L672.206,476.339L672.35,475.037M674.014,453.199L673.869,452.476L673.941,447.631L673.652,446.474L673.652,425.503M674.231,426.371L674.086,425.431M673.652,425.503L674.086,425.431M674.231,426.949L674.158,419.573M672.35,475.037L672.278,403.231M672.206,403.158L671.989,402.074M571.474,460.502L571.474,453.054M580.513,460.069L580.513,459.129L580.802,459.129M580.73,460.43L580.802,453.054M580.513,453.85L580.802,453.85M580.513,453.85L580.441,452.62M571.474,453.054L574.222,451.97M574.366,450.813L577.476,450.813M558.241,428.106L561.061,428.106M554.987,425.069L555.276,425.069M555.276,426.226L555.276,425.069M564.315,425.865L564.315,418.489M558.024,416.898L561.205,416.898M555.276,418.85L559.036,416.898M651.38,408.871L657.309,408.871M651.38,402.724L657.309,402.724M621.587,444.304L621.731,444.377M621.587,444.304L621.587,443.87L621.37,443.22M603.798,443.003L605.099,442.93M605.172,442.858L605.533,442.786M603.002,442.786L603.798,443.003M621.37,443.22L621.081,442.714M605.606,442.714L605.75,442.714M620.864,442.569L621.081,442.714M619.417,442.497L620.864,442.569M605.895,442.641L606.329,442.497M602.496,442.497L603.002,442.786M506.609,436.278L512.177,436.35M506.031,435.988L506.609,436.278" style="fill:none;fill-rule:nonzero;stroke:black;stroke-width:0.71px;"/>
    </g>
    <g transform="matrix(1,0,0,1,0,-12.7317)">
        <path d="M512.177,411.836L513.334,411.474L513.696,411.113M506.031,411.474L505.597,411.04M513.696,411.113L513.985,410.462M505.597,411.04L505.308,410.245M505.308,412.197L505.38,404.098M505.308,404.677L505.597,403.881L506.103,403.375L506.971,403.086M507.332,426.805L512.539,426.805M506.465,426.732L507.332,426.805M505.958,426.443L506.465,426.732M512.539,426.805L513.479,426.371M505.958,426.443L505.669,426.154M513.479,426.371L513.913,425.72M505.669,426.154L505.308,425.214M513.913,425.72L514.057,424.925M651.38,451.536L651.38,446.329M642.268,422.538L642.268,419.284M643.859,422.538L643.859,419.284M539.295,419.067L543.489,418.778L544.573,418.489L545.297,418.127M544.14,411.257L544.79,411.547M543.344,411.113L544.14,411.257M543.127,411.04L543.344,411.113M542.404,410.968L543.055,411.04M542.187,410.968L542.404,410.968M539.584,410.751L542.187,410.968M643.931,410.751L643.931,406.919M642.268,410.751L642.268,406.919M605.895,418.127L606.329,417.766L606.473,417.766L607.052,417.187L607.413,416.609L607.775,415.524L607.775,414.439L607.486,413.499L607.052,412.704M606.473,412.125L607.052,412.704M605.75,411.691L606.473,412.125M674.231,417.693L680.956,417.693M633.157,410.751L633.157,406.919M642.196,410.751L642.196,406.919M621.731,419.863L621.514,418.778L621.081,417.982M620.647,417.549L621.081,417.982M619.996,417.332L620.647,417.549M618.622,417.259L618.767,417.259L619.996,417.332" style="fill:none;fill-rule:nonzero;stroke:black;stroke-width:0.71px;"/>
    </g>
    <g transform="matrix(1,0,0,1,0,-37.3181)">
        <path d="M617.537,441.773L617.971,441.773L618.622,441.846M617.248,441.701L617.537,441.773M615.585,441.629L617.248,441.701M614.717,441.267L614.934,441.412M614.717,441.267L614.428,440.761L614.428,438.592L614.934,437.796M615.368,437.652L616.742,437.579M616.814,437.507L617.465,437.507M617.826,437.435L618.188,437.435M617.465,437.507L617.826,437.435M618.839,437.362L618.983,437.362M618.188,437.435L618.839,437.362M618.983,437.362L619.996,437.29L620.574,437.145L621.153,436.567L621.587,435.627L621.731,434.759M671.483,477.134L671.772,476.628L671.916,475.544L671.916,403.737L671.7,402.435L671.483,402.074M508.417,440.978L515.142,441.773M507.694,440.761L508.417,440.978M507.694,440.761L507.115,440.038L507.043,439.315L507.405,438.519L508.272,438.085L515.142,437.218M633.157,447.125L633.157,443.871M642.196,447.125L642.196,443.871M654.272,426.949L654.851,425.503L655.14,424.057L655.285,422.827L655.285,419.935L654.851,417.332L654.272,415.813L653.694,415.018M643.931,434.253L653.115,434.181L653.549,433.602L653.549,431.505M508.272,441.123L514.997,441.99M507.405,440.761L508.272,441.123M507.405,440.761L506.971,440.183L506.826,439.532L506.971,438.953L507.332,438.519L507.332,438.375" style="fill:none;fill-rule:nonzero;stroke:black;stroke-width:0.71px;"/>
    </g>
    <g transform="matrix(1,0,0,1,0,-3.38048)">
        <path d="M507.332,404.437L507.549,404.22L508.128,404.003L515.07,403.135M505.308,402.846L514.057,402.774M539.873,401.472L542.187,401.617M643.931,400.894L661.214,400.894M643.931,400.605L646.245,400.605M646.39,400.894L646.245,400.605M620.357,408.197L620.864,408.704M618.767,407.908L620.357,408.197M643.931,410.584L646.245,410.584M643.931,410.294L661.214,410.294M646.245,410.584L646.462,410.294M563.086,391.855L563.158,386.142M579.573,425.191L579.573,419.406M674.086,393.229L673.941,391.638M673.652,391.638L673.941,391.638M514.057,402.774L514.057,395.253M618.983,403.425L620.141,403.208L620.791,402.846L621.008,402.485M375.014,504.61L411.447,504.61L413.283,504.327M372.26,504.045L375.014,504.61M413.283,504.327L414.342,503.974M371.06,503.409L372.26,504.045M414.342,503.974L415.754,503.198L416.178,502.703M370.354,502.703L371.06,503.409M416.248,342.638L415.754,342.073M371.06,341.861L370.142,342.779M415.754,342.073L414.342,341.296M372.26,341.226L371.06,341.861M414.342,341.296L413.283,340.943M375.014,340.661L372.26,341.226M411.447,340.661L375.014,340.661M413.283,340.943L411.447,340.661M416.178,502.703L418.578,502.633L419.284,502.209L419.637,501.15L419.637,344.332M419.567,344.191L419.567,343.768M366.612,343.414L366.965,342.92L367.459,342.708L370.283,342.638M419.073,342.92L419.426,343.414M418.578,342.708L419.073,342.92M416.248,342.638L418.578,342.708M367.388,502.633L370.354,502.703M366.753,502.209L367.388,502.633" style="fill:none;fill-rule:nonzero;stroke:black;stroke-width:0.71px;"/>
    </g>
    <g transform="matrix(1,0,0,1,0,-3.16869)">
        <path d="M366.4,500.868L366.753,501.997M366.4,344.121L366.4,500.868M366.47,343.556L366.47,343.979M370.354,502.491L369.789,501.574M416.178,502.491L416.742,501.574L416.954,500.797M369.789,501.574L369.507,500.161L369.648,343.626M416.954,500.797L416.954,343.979M369.648,343.626L370.142,342.567M416.954,343.979L416.389,342.567M418.508,342.567L416.389,342.567M419.426,343.203L418.508,342.567M367.459,342.567L366.612,343.203M370.142,342.567L367.459,342.567" style="fill:none;fill-rule:nonzero;stroke:black;stroke-width:0.71px;"/>
    </g>
    <g transform="matrix(1,0,0,1,0,-4.43958)">
        <path d="M577.709,603.165L577.709,560.645M711.152,560.645L577.709,560.645M577.709,603.165L711.152,603.165M711.152,243.165L450.365,243.165M450.365,285.684L711.152,285.684M450.365,243.165L445.651,243.165L436.237,243.658L426.862,244.644L417.551,246.118L408.33,248.078L399.224,250.518L390.259,253.431L381.458,256.809L372.846,260.644L364.447,264.923L356.283,269.637L348.377,274.771L340.75,280.312L333.424,286.245L326.418,292.553L319.752,299.219L313.445,306.224L307.512,313.55L301.971,321.177L296.837,329.083L292.123,337.247L287.844,345.646L284.009,354.258L280.631,363.059L277.718,372.025L275.278,381.13L273.318,390.351L271.843,399.662L270.858,409.037L270.365,418.451L270.365,427.878L270.858,437.292L271.843,446.668L273.318,455.978L275.278,465.199L277.718,474.305L280.631,483.271L284.009,492.071L287.844,500.683L292.123,509.083L296.837,517.247L301.971,525.153L307.512,532.779L313.445,540.106" style="fill:none;fill-rule:nonzero;stroke:black;stroke-width:0.71px;"/>
    </g>
    <g transform="matrix(1,0,0,1,0,164.77)">
        <path d="M313.445,370.896L319.752,377.901L326.418,384.567L333.424,390.875L340.75,396.808L348.377,402.349L356.283,407.483L364.447,412.196L372.846,416.476L381.458,420.31L390.259,423.689L399.224,426.602L408.33,429.042L417.551,431.002L426.862,432.476L436.237,433.462L445.651,433.955L450.365,433.955L450.365,391.435L446.765,391.435L439.574,391.059L432.414,390.306L425.302,389.18L418.259,387.683L411.305,385.819L404.457,383.594L397.735,381.014L391.158,378.085L384.742,374.817L378.507,371.216L372.468,367.295L366.643,363.063L361.048,358.532L355.697,353.714L350.606,348.623L345.788,343.272L341.257,337.676L337.025,331.851L333.103,325.813L329.503,319.578L326.234,313.162L323.306,306.585L320.726,299.863L318.501,293.015L316.637,286.06L315.14,279.017L314.014,271.906L313.261,264.745L312.884,257.555L312.884,250.355L313.261,243.165" style="fill:none;fill-rule:nonzero;stroke:black;stroke-width:0.71px;"/>
    </g>
    <g transform="matrix(1,0,0,1,0,-4.43959)">
        <path d="M313.261,412.375L314.014,405.214L315.14,398.102L316.637,391.06L318.501,384.105L320.726,377.257L323.306,370.535L326.234,363.958L329.503,357.542L333.103,351.307L337.025,345.268L341.257,339.443L345.788,333.848L350.606,328.497L355.697,323.406L361.048,318.588L366.643,314.057L372.468,309.825L378.507,305.903L384.742,302.303L391.158,299.035L397.735,296.106L404.457,293.526L411.305,291.301L418.259,289.437L425.302,287.94L432.414,286.814L439.574,286.061L446.765,285.684L450.365,285.684M450.365,603.165L577.709,603.165M746.585,285.684L711.152,285.684M711.152,560.645L746.585,560.645M746.585,603.165L746.585,560.645M746.585,285.684L746.585,243.165L711.152,243.165M711.152,603.165L746.585,603.165M150.083,606.226L143.96,600.103M150.083,246.226L143.96,240.103M147.022,603.165L141.919,603.165M147.022,603.165L152.124,603.165M147.022,243.165L141.919,243.165M147.022,243.165L152.124,243.165M147.022,603.165L147.022,608.267M147.022,243.165L147.022,238.062" style="fill:none;fill-rule:nonzero;stroke:black;stroke-width:0.71px;"/>
    </g>
    <g transform="matrix(1,0,0,1,0,-106.7)">
        <path d="M147.022,705.425L147.022,345.425M267.303,251.329L273.426,245.206M905.1,251.329L911.223,245.206M270.365,248.267L270.365,243.165M270.365,248.267L270.365,253.37M908.161,248.267L908.161,243.165M908.161,248.267L908.161,253.37M270.365,248.267L265.262,248.267M908.161,248.267L913.264,248.267" style="fill:none;fill-rule:nonzero;stroke:black;stroke-width:0.71px;"/>
    </g>
    <g transform="matrix(1,0,0,1,0,-518.22)">
        <path d="M270.365,659.787L908.161,659.787M309.823,698.282L315.946,692.159M705.397,698.282L711.519,692.159M312.884,695.22L312.884,690.118M312.884,695.22L312.884,700.323M708.458,695.22L708.458,690.118M708.458,695.22L708.458,700.323M312.884,695.22L307.782,695.22M708.458,695.22L713.56,695.22" style="fill:none;fill-rule:nonzero;stroke:black;stroke-width:0.71px;"/>
    </g>
    <g transform="matrix(1,0,0,1,0,-101.211)">
        <path d="M312.884,278.211L708.458,278.211M184.099,662.849L177.976,656.726M184.099,385.517L177.976,379.394M181.037,659.787L175.935,659.787M181.037,659.787L186.14,659.787M181.037,382.456L175.935,382.456M181.037,382.456L186.14,382.456M181.037,659.787L181.037,664.89M181.037,382.456L181.037,377.353" style="fill:none;fill-rule:nonzero;stroke:black;stroke-width:0.71px;"/>
    </g>
    <g transform="matrix(0,-1,1,0,0,0)">
        <text x="-437.849px" y="143.354px" style="font-family:'EuclidCircularA-Medium', 'Euclid Circular A', sans-serif;font-weight:500;font-size:19.958px;">2.55</text>
    </g>
    <text x="569.051px" y="137.899px" style="font-family:'EuclidCircularA-Medium', 'Euclid Circular A', sans-serif;font-weight:500;font-size:19.958px;">4.50</text>
    <text x="490.908px" y="173.332px" style="font-family:'EuclidCircularA-Medium', 'Euclid Circular A', sans-serif;font-weight:500;font-size:19.958px;">2.80</text>
    <g transform="matrix(0,-1,1,0,0,0)">
        <text x="-436.859px" y="177.369px" style="font-family:'EuclidCircularA-Medium', 'Euclid Circular A', sans-serif;font-weight:500;font-size:19.958px;">1.95</text>
    </g>
    <g transform="matrix(0,-1,-1,0,603.017,600.948)">
        <path d="M42.372,421.979L319.703,421.979" style="fill:none;fill-rule:nonzero;stroke:black;stroke-width:0.71px;"/>
    </g>
</svg>
