<?xml version="1.0" encoding="UTF-8" standalone="no"?>
<!DOCTYPE svg PUBLIC "-//W3C//DTD SVG 1.1//EN" "http://www.w3.org/Graphics/SVG/1.1/DTD/svg11.dtd">
<svg width="100%" height="100%" viewBox="0 0 1191 842" version="1.1" xmlns="http://www.w3.org/2000/svg" xmlns:xlink="http://www.w3.org/1999/xlink" xml:space="preserve" xmlns:serif="http://www.serif.com/" style="fill-rule:evenodd;clip-rule:evenodd;stroke-linecap:round;stroke-linejoin:round;stroke-miterlimit:10;">
    <g transform="matrix(1,0,0,1,0,156.921)">
        <path d="M740.916,124.324L750.837,124.324L750.837,399.285L740.916,399.285L740.916,124.324M573.457,441.805L573.457,433.301L567.079,433.301L567.079,430.466L577.709,430.466L577.709,441.805L573.457,441.805M460.995,433.301L454.617,433.301L454.617,441.805L450.365,441.805L450.365,430.466L460.995,430.466L460.995,433.301M567.079,433.301L460.995,433.301L460.995,430.466L567.079,430.466L567.079,433.301M454.617,444.639L454.617,560.645" style="fill:none;fill-rule:nonzero;stroke:black;stroke-width:0.71px;"/>
    </g>
    <g transform="matrix(-0.707107,0.707107,0.707107,0.707107,747.589,164.739)">
        <path d="M430.004,183.745C476.414,230.155 551.66,230.155 598.07,183.745" style="fill:none;fill-rule:nonzero;stroke:black;stroke-width:0.71px;"/>
    </g>
    <g transform="matrix(1,0,0,1,0,134.415)">
        <path d="M573.457,464.31L573.457,467.144L454.617,467.144L454.617,455.806L573.457,455.806L573.457,464.31M559.993,455.806L555.741,455.806L555.741,445.885L559.993,445.885L559.993,455.806M561.41,468.562L554.323,468.562L554.323,467.144L561.41,467.144L561.41,468.562M559.284,468.562L556.449,468.562L556.449,472.814L542.985,472.814L542.985,475.648L559.284,475.648L559.284,468.562M450.365,421.79L450.365,336.793M450.365,231.826L711.152,231.826" style="fill:none;fill-rule:nonzero;stroke:black;stroke-width:0.71px;"/>
    </g>
    <g transform="matrix(1,0,0,1,0,-4.43962)">
        <path d="M450.365,370.681C421.379,370.681 397.881,394.179 397.881,423.165M397.881,423.165C397.881,452.151 421.379,475.648 450.365,475.648" style="fill:none;fill-rule:nonzero;stroke:black;stroke-width:0.71px;"/>
    </g>
    <g transform="matrix(0,-1,-1,0,916.028,826.591)">
        <path d="M355.383,465.663L545.346,465.663" style="fill:none;fill-rule:nonzero;stroke:black;stroke-width:0.71px;"/>
    </g>
    <g transform="matrix(1,0,0,1,0,185.31)">
        <path d="M620.315,302.778C606.225,302.778 594.803,314.2 594.803,328.29M594.803,328.29C594.803,342.38 606.225,353.802 620.315,353.802M620.315,353.802C634.405,353.802 645.827,342.38 645.827,328.29M645.827,328.29C645.827,314.2 634.405,302.778 620.315,302.778" style="fill:none;fill-rule:nonzero;stroke:black;stroke-width:0.71px;"/>
    </g>
    <g transform="matrix(-0.707106,0.707107,0.707107,0.707106,755.261,-186.801)">
        <path d="M572.64,357.925C582.603,347.962 598.756,347.962 608.719,357.925" style="fill:none;fill-rule:nonzero;stroke:black;stroke-width:0.71px;"/>
    </g>
    <g transform="matrix(1,0,0,1,0,-4.43962)">
        <path d="M577.924,560.645L577.924,501.16M603.435,475.648L711.152,475.648M740.916,285.684L740.916,296.314L729.577,296.314L729.577,285.684L740.916,285.684M740.916,550.015L740.916,560.645L729.577,560.645L729.577,550.015L740.916,550.015M740.916,296.314L740.916,550.015L729.577,550.015L729.577,296.314L740.916,296.314M735.246,296.314L735.246,550.015M530.839,317.19L530.444,317.403L530.048,317.598L529.652,317.753L529.256,317.85L528.329,317.8L527.398,317.455L526.461,316.944L525.518,316.397L522.866,315.283L520.169,314.648L517.449,314.238L514.727,313.799L512.668,313.33L510.609,312.825L508.539,312.41L506.446,312.214L505.425,312.235L504.41,312.355L503.412,312.591L502.443,312.962L501.722,313.355L501.061,313.839L500.499,314.413L500.069,315.074L499.864,315.581L499.729,316.117L499.654,316.671L499.629,317.231L499.798,318.996L500.274,320.704L500.967,322.359L501.784,323.965L502.365,325.019L502.97,326.048L503.609,327.048" style="fill:none;fill-rule:nonzero;stroke:black;stroke-width:0.71px;"/>
    </g>
    <g transform="matrix(1,0,0,1,0,-158.331)">
        <path d="M503.609,480.939L504.291,481.905L506.115,484.08L508.134,486.107L510.243,488.058L512.339,490.003L514.013,491.665L515.629,493.381L517.207,495.161L518.772,497.012L519.332,497.703L519.853,498.412L520.295,499.148L520.619,499.917L520.84,501.183L520.821,502.515L520.701,503.879L520.619,505.242L520.672,506.479L520.826,507.698L521.03,508.91L521.235,510.128L521.366,511.091L521.472,512.056L521.558,513.016L521.629,513.963L521.68,514.769L521.713,515.581L521.715,516.418L521.674,517.301L521.643,517.755L521.64,518.196L521.71,518.597L521.894,518.93L521.997,519.029L522.115,519.119L522.244,519.202L522.378,519.282L522.54,519.087L522.693,518.89L522.827,518.685L522.934,518.471L523.034,518.103L523.063,517.711L523.045,517.305L523.003,516.895L522.928,516.185L522.872,515.49L522.851,514.804L522.882,514.123L522.954,513.565" style="fill:none;fill-rule:nonzero;stroke:black;stroke-width:0.71px;"/>
    </g>
    <g transform="matrix(1,0,0,1,0,-125.449)">
        <path d="M522.954,480.682L523.061,480.124L523.191,479.565L523.332,479.006L523.628,479.689L523.916,480.374L524.189,481.065L524.439,481.764L524.643,482.417L524.816,483.079L524.955,483.751L525.057,484.433L525.128,485.178L525.198,485.923L525.317,486.652L525.534,487.354L525.639,487.583L525.768,487.8L525.927,487.997L526.123,488.169L526.317,488.285L526.527,488.366L526.739,488.397L526.937,488.366L527.053,488.309L527.159,488.228L527.26,488.132L527.359,488.029L527.546,488.014L527.738,488.003L527.936,487.998L528.145,488L528.349,488.01L528.549,488.011L528.73,487.986L528.875,487.916L528.972,487.791L529.029,487.62L529.059,487.422L529.071,487.214L529.068,486.51L529.021,485.861L528.957,485.242L528.903,484.629L528.877,483.795L528.887,482.939L528.905,482.071L528.903,481.202L528.866,480.443L528.8,479.691L528.716,478.942" style="fill:none;fill-rule:nonzero;stroke:black;stroke-width:0.71px;"/>
    </g>
    <g transform="matrix(1,0,0,1,0,-134.722)">
        <path d="M528.716,488.215L528.622,487.469M527.359,497.302L527.338,496.398L527.317,495.493L527.296,494.587L527.274,493.678L527.25,492.833L527.205,491.991L527.117,491.156L526.966,490.334L526.828,489.815L526.663,489.301L526.482,488.791L526.292,488.284M528.937,494.316L529.21,494.292L529.476,494.252L529.724,494.183L529.946,494.07L530.113,493.928L530.256,493.751L530.378,493.552L530.479,493.34L530.731,492.395L530.758,491.423L530.667,490.433L530.564,489.435L530.524,488.584L530.494,487.742L530.414,486.917L530.227,486.12L530.096,485.774L529.949,485.431L529.8,485.089L529.665,484.743L529.459,483.919L529.375,483.067L529.374,482.196L529.413,481.316M530.39,486.768L530.616,486.642L530.831,486.509L531.023,486.365L531.181,486.204L531.398,485.705L531.416,485.103L531.324,484.44L531.209,483.76L531.124,482.746L531.105,481.785L531.061,480.871L530.901,479.995L530.638,479.31" style="fill:none;fill-rule:nonzero;stroke:black;stroke-width:0.71px;"/>
    </g>
    <g transform="matrix(1,0,0,1,0,-183.812)">
        <path d="M530.638,528.4L530.278,527.731L529.857,527.071L529.413,526.416L528.018,524.258L526.712,522.104L525.427,519.97L524.099,517.868L522.843,516.038L521.532,514.23L520.2,512.429L518.877,510.62L517.71,508.965L516.569,507.296L515.445,505.617L514.329,503.934L516.372,505L518.425,506.036L520.496,507.011L522.595,507.897L524.802,508.697L527.048,509.406L529.332,510.059L531.651,510.693L532.962,511.042L534.275,511.339L535.583,511.527L536.878,511.549L537.634,511.465L538.389,511.31L539.149,511.094L539.92,510.823L540.601,510.542L541.241,510.201L541.783,509.777L542.173,509.245L542.304,508.902L542.381,508.532L542.41,508.146L542.398,507.757L542.256,506.924L541.981,506.133L541.598,505.388L541.136,504.691L539.759,503.15L538.159,501.83L536.436,500.632L534.693,499.46L533.706,498.757L532.739,498.035L531.786,497.302" style="fill:none;fill-rule:nonzero;stroke:black;stroke-width:0.71px;"/>
    </g>
    <g transform="matrix(1,0,0,1,0,-239.308)">
        <path d="M531.786,552.798L530.839,552.058L531.235,550.735L531.659,549.429L532.142,548.155L532.71,546.93L534.34,544.439L536.373,542.197L538.65,540.134L541.012,538.176L542.545,536.913L544.065,535.656L545.59,534.397L547.14,533.126L548.33,532.17L549.554,531.267L550.822,530.482L552.141,529.879L553.739,529.448L555.402,529.163L557.113,528.842L558.855,528.301L560.061,527.747L561.242,527.197L562.368,526.85L563.405,526.903L564.019,527.223L564.594,527.722L565.144,528.33L565.68,528.977L566.83,530.318L567.935,531.587L568.96,532.859L569.87,534.208L570.239,534.864L570.587,535.541L570.926,536.228L571.267,536.914L571.551,537.461L571.841,538.003L572.138,538.541L572.439,539.078L573.298,540.597L574.125,542.137L574.864,543.713L575.457,545.346L575.876,547.134L576.087,548.971L576.107,550.821L575.953,552.65L575.665,554.348" style="fill:none;fill-rule:nonzero;stroke:black;stroke-width:0.71px;"/>
    </g>
    <g transform="matrix(1,0,0,1,0,-198.938)">
        <path d="M575.665,513.978L575.274,515.653L574.816,517.333L574.331,519.044L573.832,520.798L573.248,522.51L572.484,524.078L571.447,525.402L570.183,526.342L568.688,527.012L567.053,527.44L565.364,527.656L563.931,527.692L562.527,527.6L561.157,527.39L559.822,527.07L558.079,526.448L556.48,525.512L555.756,524.887L555.095,524.137L554.505,523.246L553.996,522.198L553.561,521.016L553.152,519.903L552.702,519.104L552.148,518.862L551.842,518.994L551.509,519.255L551.157,519.601L550.797,519.989M563.614,527.682L562.132,527.825L560.669,527.895L559.242,527.817L557.871,527.519L556.517,526.917L555.263,526.057L554.131,525.004L553.14,523.822L552.496,522.888L551.912,521.93L551.355,520.96L550.797,519.989L550.287,519.16L549.732,518.359L549.113,517.607L548.409,516.923L547.521,516.25L546.598,515.619L545.736,514.964L545.029,514.217L544.418,512.933" style="fill:none;fill-rule:nonzero;stroke:black;stroke-width:0.71px;"/>
    </g>
    <g transform="matrix(1,0,0,1,0,-230.841)">
        <path d="M544.418,544.836L544.185,543.336L544.217,541.718L544.398,540.078L544.653,538.417L544.984,536.836L545.428,535.331L546.021,533.9L546.786,532.539L547.698,531.235L548.718,529.98L549.805,528.76L550.844,527.667L551.927,526.64L553.076,525.727L554.311,524.972L555.572,524.434L556.908,524.05L558.297,523.788L559.718,523.62L561.193,523.524L562.655,523.544L564.079,523.725L565.44,524.116L566.343,524.532L567.206,525.048L568.031,525.639L568.82,526.28L569.485,526.866L570.131,527.465L570.764,528.074L571.391,528.688M566.203,549.206L566.256,548.123L566.338,547.046L566.479,545.982L566.709,544.936L567.066,543.848L567.478,542.771L567.868,541.692L568.156,540.594L568.258,539.865L568.304,539.125L568.312,538.378L568.3,537.627M546.929,547.749L545.968,547.172L545.008,546.581L544.049,545.962L543.094,545.302L541.915,544.395L540.832,543.389L539.933,542.271" style="fill:none;fill-rule:nonzero;stroke:black;stroke-width:0.71px;"/>
    </g>
    <g transform="matrix(1,0,0,1,0,-197.599)">
        <path d="M539.933,509.029L539.308,507.787L539.048,506.662L539.006,505.476L539.15,504.264L539.451,503.059L539.84,501.993L540.344,501L540.97,500.117L541.728,499.384L542.701,498.783L543.79,498.343L544.944,498.003L546.111,497.703L546.705,497.546L547.29,497.385L547.871,497.221L548.449,497.055M555.42,524.842L554.558,525.347L553.687,525.821L552.795,526.234L551.872,526.554L550.082,526.841L548.232,526.757L546.402,526.35L544.67,525.665L543.861,525.234L543.086,524.759L542.332,524.256L541.59,523.738M558.991,526.443L559.168,527.021L559.383,527.557L559.675,528.008L560.081,528.332L560.491,528.473L560.945,528.511L561.392,528.444L561.783,528.274L562.126,527.944L562.358,527.504L562.515,526.992L562.635,526.442M553.545,542.434L554.464,542.245L555.372,542.035L556.26,541.784L557.118,541.472L558.622,540.689L560.034,539.708L561.399,538.616L562.763,537.504L564.203,536.399" style="fill:none;fill-rule:nonzero;stroke:black;stroke-width:0.71px;"/>
    </g>
    <g transform="matrix(1,0,0,1,0,-177.397)">
        <path d="M564.203,516.198L565.634,515.105L566.996,513.965L568.23,512.716L569.085,511.636L569.89,510.501L570.706,509.356L571.598,508.251L573.029,506.81L574.49,505.403L575.156,504.669L575.738,503.892L576.206,503.055L576.53,502.14L576.54,502.096L576.55,502.052L576.559,502.008L576.565,501.964L576.553,501.682L576.463,501.407L576.322,501.137L576.159,500.872L575.655,500.074L575.173,499.304L574.705,498.552L574.245,497.81M552.858,521.477L553.992,520.699L555.109,519.901L556.191,519.067L557.221,518.176L558.277,517.122L559.27,516.001L560.221,514.835L561.151,513.647M551.871,518.324L551.561,517.513L551.274,516.699L551.032,515.878L550.859,515.047L550.754,513.93L550.749,512.798L550.783,511.657L550.799,510.517L550.761,509.536L550.678,508.559L550.567,507.586L550.44,506.613M550.114,517.579L549.143,516.429L548.189,515.265L547.266,514.074L546.392,512.842L545.852,512.001" style="fill:none;fill-rule:nonzero;stroke:black;stroke-width:0.71px;"/>
    </g>
    <g transform="matrix(1,0,0,1,0,-212.788)">
        <path d="M545.852,547.391L545.355,546.526L544.915,545.634L544.546,544.716L544.226,543.644L543.989,542.544L543.808,541.427L543.655,540.302M568.029,550.526L569.371,548.725L570.731,546.937L572.125,545.174L573.573,543.448L574.685,542.211L575.845,541.02L577.064,539.896L578.352,538.857L578.959,538.42L579.578,537.999L580.206,537.588L580.837,537.183M587.682,531.44L588.329,530.76L588.966,530.07L589.583,529.36L590.167,528.619L590.802,527.693L591.361,526.718L591.824,525.701L592.174,524.649L592.428,523.379L592.547,522.08L592.574,520.763L592.556,519.436M567.225,504.249L568.11,504.202L568.997,504.166L569.891,504.151L570.794,504.17L572.034,504.269L573.255,504.487L574.417,504.861L575.478,505.431L576.303,506.12L577.006,506.954L577.575,507.898L577.998,508.914L578.274,509.992L578.403,511.092L578.4,512.199L578.28,513.3L578.138,514.074L577.977,514.843L577.831,515.612" style="fill:none;fill-rule:nonzero;stroke:black;stroke-width:0.71px;"/>
    </g>
    <g transform="matrix(1,0,0,1,0,-191.123)">
        <path d="M577.831,493.946L577.735,494.722L577.732,495.876L577.891,497.031L578.198,498.16L578.638,499.239L579.413,500.587L580.346,501.832L581.381,503.007L582.461,504.146L583.789,505.544L585.1,506.945L586.397,508.354L587.682,509.775L588.952,511.207L590.215,512.649L591.473,514.093L592.731,515.531L593.994,516.96L595.274,518.376L596.583,519.777L597.935,521.161L599.166,522.348L600.457,523.459L601.827,524.429L603.291,525.196L603.953,525.452L604.631,525.679L605.32,525.899L606.017,526.133L607.159,526.591L608.241,527.169L609.196,527.891L609.958,528.782L610.165,529.134L610.343,529.505L610.494,529.891L610.62,530.288L610.845,531.394L610.915,532.524L610.845,533.65L610.65,534.744L610.485,535.367L610.299,535.987L610.107,536.616L609.928,537.273L609.812,537.748L609.676,538.21L609.485,538.625L609.206,538.959L609.059,539.066" style="fill:none;fill-rule:nonzero;stroke:black;stroke-width:0.71px;"/>
    </g>
    <g transform="matrix(1,0,0,1,0,-171.682)">
        <path d="M609.059,519.626L608.896,519.718L608.722,519.801L608.544,519.88L608.488,520.155L608.421,520.416L608.333,520.65L608.213,520.843L607.789,521.097L607.208,521.134L606.544,521.025L605.866,520.843L605.037,520.579L604.295,520.293L603.625,519.966L603.008,519.579L601.995,518.696L601.092,517.617L600.29,516.405L599.578,515.122L598.777,513.467L598.028,511.827L597.253,510.23L596.372,508.706L595.256,507.189L593.977,505.773L592.579,504.446L591.107,503.196L589.424,501.88L587.706,500.632L585.955,499.438L584.174,498.285L583.326,497.751L582.481,497.212L581.649,496.658L580.837,496.077L579.209,494.735L577.684,493.267L576.227,491.715L574.804,490.122M608.544,519.88L608.14,519.623L607.741,519.361L607.351,519.088L606.976,518.799L606.337,518.224L605.745,517.596L605.184,516.932L604.638,516.251M605.295,523.305L605.938,523.353L606.586,523.401L607.245,523.45" style="fill:none;fill-rule:nonzero;stroke:black;stroke-width:0.71px;"/>
    </g>
    <g transform="matrix(1,0,0,1,0,-157.131)">
        <path d="M607.245,508.899L607.918,508.951L608.821,509.013L609.718,509.016L610.57,508.899L611.336,508.596L611.753,508.298L612.139,507.935L612.51,507.541L612.884,507.144L614.45,505.869L616.207,504.892L618.073,504.088L619.963,503.334L621.335,502.748L622.69,502.141L624.044,501.533L625.412,500.946L627.568,500.126L629.78,499.456L632.029,498.99L634.3,498.783L635.87,498.809L637.441,498.936L639.014,499.116L640.588,499.299L641.705,499.412L642.821,499.522L643.932,499.65L645.037,499.816L646.302,500.069L647.561,500.358L648.821,500.644L650.089,500.883L650.531,500.949L650.974,501.007L651.419,501.059L651.863,501.109L652.146,500.44L652.404,499.766L652.611,499.082L652.739,498.385L652.728,497.109L652.432,495.836L651.891,494.627L651.149,493.543L650.271,492.655L649.274,491.913L648.192,491.288L647.057,490.749L645.178,490.005" style="fill:none;fill-rule:nonzero;stroke:black;stroke-width:0.71px;"/>
    </g>
    <g transform="matrix(1,0,0,1,0,-167.251)">
        <path d="M645.178,500.124L643.257,499.528L641.305,499.082L639.33,498.789L637.625,498.656L635.912,498.61L634.194,498.62L632.474,498.659M633.123,500.641L633.781,500.608L634.439,500.582L635.096,500.569L635.753,500.576L636.501,500.611L637.248,500.672L637.994,500.75L638.74,500.836M609.697,514.278L610.036,514.498L610.376,514.699L610.72,514.859L611.068,514.961L611.758,514.95L612.458,514.715L613.156,514.331L613.837,513.873L615.271,512.811L616.56,511.716L617.704,510.551L618.702,509.279L619.445,508.09L620.12,506.832L620.767,505.541L621.425,504.256L621.945,503.315L622.485,502.392L623.04,501.481L623.601,500.575L623.578,500.373L623.559,500.171L623.547,499.969L623.545,499.766L623.563,499.495L623.605,499.225L623.667,498.959L623.747,498.7L624.173,497.831L624.763,497.051L625.466,496.333L626.226,495.645L626.856,495.099L627.503,494.596L628.18,494.18" style="fill:none;fill-rule:nonzero;stroke:black;stroke-width:0.71px;"/>
    </g>
    <g transform="matrix(1,0,0,1,0,-181.137)">
        <path d="M628.18,508.066L628.901,507.779L629.427,507.675L629.973,507.631L630.531,507.628L631.093,507.647L632.136,507.685L633.167,507.696L634.185,507.649L635.19,507.514L635.705,507.402L636.217,507.265L636.728,507.113L637.238,506.952M628.451,502.337L628.052,502.082L627.649,501.852L627.24,501.674L626.822,501.574L626.374,501.571L625.916,501.652L625.451,501.79L624.984,501.956M623.601,514.461L624.384,514.446L625.175,514.443L625.981,514.463L626.808,514.517L628.057,514.652L629.298,514.736L630.462,514.617L631.479,514.145L631.693,513.963L631.889,513.756L632.062,513.527L632.205,513.281L632.285,513.102L632.353,512.918L632.414,512.732L632.474,512.545M537.791,508.763L538.305,510.118L538.833,511.468L539.39,512.804L539.99,514.119L540.725,515.553L541.546,516.94L542.469,518.273L543.51,519.543L543.979,520.043L544.478,520.505L545.014,520.903L545.595,521.212L546.391,521.456" style="fill:none;fill-rule:nonzero;stroke:black;stroke-width:0.71px;"/>
    </g>
    <g transform="matrix(1,0,0,1,0,-198.538)">
        <path d="M546.391,538.857L547.231,539L548.075,539.123L548.884,539.309L550.048,539.867L551.083,540.698L552.049,541.703L553.007,542.785L553.792,543.626L554.618,544.382L555.489,544.977L556.414,545.34L557.67,545.405L558.995,545.154L560.361,544.765L561.741,544.413L563.8,544.223L565.834,544.379L567.847,544.737L569.848,545.155L573.666,545.776L577.477,546.133L581.295,546.274L585.137,546.241L592.956,545.837L601.061,545.281L601.129,545.277L601.195,545.273L601.258,545.269L601.317,545.265M603.017,524.164L601.285,521.184L599.577,518.191L597.918,515.174L596.332,512.121L595.79,511.03L595.25,509.938L594.702,508.849L594.133,507.769L593.766,507.105L593.383,506.45L592.981,505.809L592.556,505.186L591.544,503.892L590.46,502.651L589.361,501.41L588.303,500.117L587.299,498.711L586.313,497.296L585.258,495.977L584.05,494.856L582.955,494.154" style="fill:none;fill-rule:nonzero;stroke:black;stroke-width:0.71px;"/>
    </g>
    <g transform="matrix(1,0,0,1,0,-226.003)">
        <path d="M582.955,521.619L581.785,520.995L580.612,520.341L579.51,519.547L578.711,518.769L577.945,517.96L577.157,517.249L576.288,516.763L575.496,516.598L574.641,516.592L573.749,516.671L572.847,516.763L571.083,516.8L569.368,516.658L567.685,516.396L566.017,516.074M637.238,551.818L637.675,551.512L638.096,551.193L638.487,550.851L638.832,550.472L639.109,550.065L639.335,549.621L639.516,549.145L639.658,548.645L639.798,547.884L639.832,547.12L639.727,546.385L639.452,545.716L638.953,545.112L638.289,544.642L637.527,544.33L636.731,544.199L635.94,544.258L635.169,544.443L634.404,544.67L633.632,544.854L632.917,544.926L632.196,544.904L631.478,544.796L630.773,544.613L629.609,544.159L628.483,543.619L627.366,543.102L626.227,542.718L625.446,542.583L624.641,542.552L623.811,542.621L622.956,542.786L621.834,543.141L620.798,543.661L619.981,544.355" style="fill:none;fill-rule:nonzero;stroke:black;stroke-width:0.71px;"/>
    </g>
    <g transform="matrix(1,0,0,1,0,-197.555)">
        <path d="M619.981,515.907L619.512,516.785L619.439,517.266L619.421,517.772L619.405,518.284L619.34,518.784L619.167,519.293L618.898,519.767L618.557,520.206L618.169,520.611L616.956,521.572L615.607,522.303L614.164,522.835L612.671,523.198L610.274,523.499L607.862,523.538L605.442,523.403L603.017,523.181" style="fill:none;fill-rule:nonzero;stroke:black;stroke-width:0.71px;"/>
    </g>
    <g transform="matrix(1,0,0,1,0,-4.43962)">
        <path d="M746.585,603.165C845.996,603.165 926.585,522.576 926.585,423.165M926.585,423.165C926.585,323.754 845.996,243.165 746.585,243.165" style="fill:none;fill-rule:nonzero;stroke:black;stroke-width:0.71px;"/>
    </g>
    <g transform="matrix(1,0,0,1,0,-4.43962)">
        <path d="M746.585,285.684L711.152,285.684M711.152,560.645L746.585,560.645M577.709,603.165L577.709,560.645M450.365,243.165L445.651,243.165L436.237,243.658L426.862,244.644L417.551,246.118L408.33,248.078L399.224,250.518L390.259,253.431L381.458,256.809L372.846,260.644L364.447,264.923L356.283,269.637L348.376,274.771L340.75,280.312L333.424,286.245L326.418,292.553L319.752,299.219L313.445,306.224L307.512,313.55L301.971,321.177L296.837,329.083L292.123,337.247L287.844,345.646L284.009,354.258L280.631,363.059L277.718,372.025L275.278,381.13L273.318,390.351L271.843,399.662L270.858,409.037L270.365,418.451L270.365,427.878L270.858,437.292L271.843,446.668L273.318,455.978L275.278,465.199L277.718,474.305L280.631,483.271L284.009,492.071L287.844,500.683L292.123,509.083L296.837,517.247L301.971,525.153" style="fill:none;fill-rule:nonzero;stroke:black;stroke-width:0.71px;"/>
    </g>
    <g transform="matrix(1,0,0,1,0,179.16)">
        <path d="M301.971,341.553L307.512,349.179L313.445,356.506L319.752,363.511L326.418,370.177L333.424,376.485L340.75,382.417L348.376,387.958L356.283,393.093L364.447,397.806L372.846,402.086L381.458,405.92L390.259,409.298L399.224,412.211L408.33,414.651L417.551,416.611L426.862,418.086L436.237,419.071L445.651,419.565L450.365,419.565L450.365,377.045L446.765,377.045L439.574,376.668L432.414,375.916L425.302,374.789L418.259,373.292L411.305,371.429L404.457,369.204L397.735,366.624L391.157,363.695L384.742,360.426L378.507,356.826L372.468,352.905L366.643,348.673L361.048,344.141L355.697,339.324L350.606,334.232L345.788,328.882L341.257,323.286L337.025,317.461L333.103,311.423L329.503,305.187L326.234,298.772L323.306,292.194L320.725,285.472L318.501,278.625L316.637,271.67L315.14,264.627L314.014,257.516L313.261,250.355L312.884,243.165" style="fill:none;fill-rule:nonzero;stroke:black;stroke-width:0.71px;"/>
    </g>
    <g transform="matrix(1,0,0,1,0,-4.43962)">
        <path d="M312.884,426.765L312.884,419.565L313.261,412.375L314.014,405.214L315.14,398.102L316.637,391.06L318.501,384.105L320.725,377.257L323.306,370.535L326.234,363.958L329.503,357.542L333.103,351.307L337.025,345.268L341.257,339.443L345.788,333.848L350.606,328.497L355.697,323.406L361.048,318.588L366.643,314.057L372.468,309.825L378.507,305.903L384.742,302.303L391.157,299.035L397.735,296.106L404.457,293.526L411.305,291.301L418.259,289.437L425.302,287.94L432.414,286.814L439.574,286.061L446.765,285.684L450.365,285.684M711.152,243.165L450.365,243.165M450.365,285.684L711.152,285.684M711.152,560.645L577.709,560.645M577.709,603.165L711.152,603.165M746.585,603.165L746.585,560.645M746.585,285.684L746.585,243.165L711.152,243.165M711.152,603.165L746.585,603.165M450.365,603.165L577.709,603.165M746.585,560.645L746.585,285.684M711.152,285.684L711.152,560.645M150.083,606.226L143.96,600.103M150.083,246.226L143.96,240.103M147.022,603.165L141.919,603.165M147.022,603.165L152.124,603.165M147.022,243.165L141.919,243.165M147.022,243.165L152.124,243.165M147.022,603.165L147.022,608.267M147.022,243.165L147.022,238.062" style="fill:none;fill-rule:nonzero;stroke:black;stroke-width:0.71px;"/>
    </g>
    <g transform="matrix(1,0,0,1,0,-106.7)">
        <path d="M147.022,705.425L147.022,345.425M267.303,251.329L273.426,245.206M905.1,251.329L911.223,245.206M270.365,248.267L270.365,243.165M270.365,248.267L270.365,253.37M908.161,248.267L908.161,243.165M908.161,248.267L908.161,253.37M270.365,248.267L265.262,248.267M908.161,248.267L913.264,248.267" style="fill:none;fill-rule:nonzero;stroke:black;stroke-width:0.71px;"/>
    </g>
    <g transform="matrix(1,0,0,1,0,-518.22)">
        <path d="M270.365,659.787L908.161,659.787M309.823,698.282L315.946,692.159M705.397,698.282L711.519,692.159M312.884,695.22L312.884,690.118M312.884,695.22L312.884,700.323M708.458,695.22L708.458,690.118M708.458,695.22L708.458,700.323M312.884,695.22L307.782,695.22M708.458,695.22L713.56,695.22" style="fill:none;fill-rule:nonzero;stroke:black;stroke-width:0.71px;"/>
    </g>
    <g transform="matrix(1,0,0,1,0,-101.211)">
        <path d="M312.884,278.211L708.458,278.211M184.099,662.849L177.976,656.726M184.099,385.517L177.976,379.394M181.037,659.787L175.935,659.787M181.037,659.787L186.14,659.787M181.037,382.456L175.935,382.456M181.037,382.456L186.14,382.456M181.037,659.787L181.037,664.89M181.037,382.456L181.037,377.353" style="fill:none;fill-rule:nonzero;stroke:black;stroke-width:0.71px;"/>
    </g>
    <g transform="matrix(0,-1,1,0,0,0)">
        <text x="-437.849px" y="143.354px" style="font-family:'EuclidCircularA-Medium', 'Euclid Circular A', sans-serif;font-weight:500;font-size:19.958px;">2.55</text>
    </g>
    <text x="569.051px" y="137.899px" style="font-family:'EuclidCircularA-Medium', 'Euclid Circular A', sans-serif;font-weight:500;font-size:19.958px;">4.50</text>
    <text x="490.908px" y="173.332px" style="font-family:'EuclidCircularA-Medium', 'Euclid Circular A', sans-serif;font-weight:500;font-size:19.958px;">2.80</text>
    <g transform="matrix(0,-1,1,0,0,0)">
        <text x="-436.859px" y="177.369px" style="font-family:'EuclidCircularA-Medium', 'Euclid Circular A', sans-serif;font-weight:500;font-size:19.958px;">1.95</text>
    </g>
    <g transform="matrix(0,-1,-1,0,603.017,600.948)">
        <path d="M42.372,421.979L319.703,421.979" style="fill:none;fill-rule:nonzero;stroke:black;stroke-width:0.71px;"/>
    </g>
</svg>
