<?xml version="1.0" encoding="UTF-8" standalone="no"?>
<!DOCTYPE svg PUBLIC "-//W3C//DTD SVG 1.1//EN" "http://www.w3.org/Graphics/SVG/1.1/DTD/svg11.dtd">
<svg width="100%" height="100%" viewBox="0 0 1191 842" version="1.1" xmlns="http://www.w3.org/2000/svg" xmlns:xlink="http://www.w3.org/1999/xlink" xml:space="preserve" xmlns:serif="http://www.serif.com/" style="fill-rule:evenodd;clip-rule:evenodd;stroke-linecap:round;stroke-linejoin:round;stroke-miterlimit:10;">
    <g transform="matrix(1,0,0,1,0,38.08)">
        <path d="M577.924,518.125L577.924,243.165M567.079,557.81L573.457,557.81L573.457,549.307L577.709,549.307L577.709,560.645L567.079,560.645L567.079,557.81M454.617,549.307L454.617,557.81L460.995,557.81L460.995,560.645L450.365,560.645L450.365,549.307L454.617,549.307M460.995,557.81L567.079,557.81L567.079,560.645L460.995,560.645L460.995,557.81M573.457,546.472L573.457,430.466" style="fill:none;fill-rule:nonzero;stroke:black;stroke-width:0.71px;"/>
    </g>
    <g transform="matrix(0.707107,-0.707107,-0.707107,-0.707107,372.535,1113.42)">
        <path d="M430.004,313.924C476.414,360.334 551.66,360.334 598.07,313.924" style="fill:none;fill-rule:nonzero;stroke:black;stroke-width:0.71px;"/>
    </g>
    <g transform="matrix(1,0,0,1,0,339.97)">
        <path d="M573.457,255.921L454.617,255.921L454.617,244.582L573.457,244.582L573.457,255.921M473.75,244.582L466.664,244.582L466.664,243.165L473.75,243.165L473.75,244.582M468.79,243.165L471.624,243.165L471.624,238.913L485.089,238.913L485.089,236.078L468.79,236.078L468.79,243.165M472.333,255.921L468.081,255.921L468.081,265.842L472.333,265.842L472.333,255.921" style="fill:none;fill-rule:nonzero;stroke:black;stroke-width:0.71px;"/>
    </g>
    <g transform="matrix(1,0,0,1,0,-4.43972)">
        <path d="M746.585,603.165C845.996,603.165 926.585,522.576 926.585,423.165M926.585,423.165C926.585,323.754 845.996,243.165 746.585,243.165" style="fill:none;fill-rule:nonzero;stroke:black;stroke-width:0.71px;"/>
    </g>
    <g transform="matrix(1,0,0,1,0,-29.2139)">
        <path d="M459.286,452.836L460.138,454.774M460.084,398.566L459.235,400.506M478.013,404.745L469.424,403.542M501.61,465.624L501.409,462.653M565.465,432.982L566.695,434.518L567.862,436.087L568.903,437.725L569.755,439.464L570.223,440.805L570.553,442.194L570.743,443.606L570.787,445.016L570.592,447.045L570.13,449.027L569.455,450.972L568.619,452.888L566.682,456.664L564.744,460.424L563.719,462.69L562.702,464.935L561.545,467.118L560.103,469.2L559.096,470.322L557.967,471.306L556.74,472.061L555.437,472.493L554.02,472.538L552.568,472.242L551.106,471.712L549.656,471.057L545.314,468.83L541.259,466.447L537.413,463.924L533.7,461.277L531.193,459.408L528.655,457.526L526.031,455.667L523.262,453.869L520.632,452.29L518.103,450.626L516.959,449.709L515.94,448.709L515.079,447.604L514.409,446.373L514.188,445.809L513.998,445.224L513.828,444.627L513.668,444.023L512.997,444.052L512.348,444.044" style="fill:none;fill-rule:nonzero;stroke:black;stroke-width:0.71px;"/>
    </g>
    <g transform="matrix(1,0,0,1,0,-10.0213)">
        <path d="M512.348,424.851L511.742,424.77L511.203,424.579L510.622,424.128L510.152,423.49L509.757,422.728L509.399,421.904M513.668,424.83L515.259,423.933L516.816,423.003L518.305,422.007L519.692,420.911L521.016,419.622L522.207,418.205L523.285,416.676L524.269,415.056L526.029,411.613L527.638,408.022M526.817,428.098L528.111,425.414L529.254,422.716L530.093,419.987L530.476,417.212L530.445,415.615L530.268,414.003L529.993,412.381L529.669,410.754M536.65,430.661L535.797,428.249L535.016,425.826L534.377,423.381L533.953,420.905L533.827,419.448L533.773,417.98L533.767,416.505L533.785,415.026M544.14,436.374L543.778,434.698L543.4,433.028L542.993,431.366L542.539,429.718L541.945,427.831L541.289,425.963L540.592,424.106L539.875,422.256M548.07,440.179L547.598,438.59L547.109,437.008L546.588,435.44L546.018,433.892L544.707,430.888L543.203,427.965L541.572,425.097L539.875,422.256M558.883,443.889L558.721,442.535L558.498,441.21" style="fill:none;fill-rule:nonzero;stroke:black;stroke-width:0.71px;"/>
    </g>
    <g transform="matrix(1,0,0,1,0,-30.2145)">
        <path d="M558.498,461.403L558.153,460.136L557.626,458.956L557.091,458.153L556.443,457.419L555.701,456.756L554.887,456.169L554.123,455.706L553.359,455.262L552.635,454.79L551.994,454.246L551.245,453.258L550.653,452.116L550.106,450.92L549.492,449.773L548.133,448.129L546.492,446.722L544.791,445.369L543.249,443.889L542.409,442.781L541.666,441.59L540.955,440.367L540.208,439.162L538.244,436.663L536.071,434.322L533.985,431.953L532.286,429.371L531.56,427.661L531.042,425.848L530.696,423.969L530.486,422.063L530.358,419.198L530.401,416.354L530.559,413.524L530.773,410.701M539.875,442.449L539.793,442.032L539.715,441.613L539.644,441.194L539.587,440.774L539.528,440.124L539.498,439.471L539.488,438.816L539.488,438.159M553.844,455.545L555.743,451.786L557.662,448.038L559.621,444.312L561.639,440.618L562.581,438.951L563.535,437.292L564.498,435.636L565.465,433.983" style="fill:none;fill-rule:nonzero;stroke:black;stroke-width:0.71px;"/>
    </g>
    <g transform="matrix(1,0,0,1,0,-41.0521)">
        <path d="M549.817,461.177L551.075,458.855L552.293,456.505L553.432,454.099L554.452,451.609L555.169,449.612L555.942,447.651L556.926,445.832L558.273,444.257L558.701,443.902L559.157,443.587L559.634,443.328L560.124,443.141L561.423,443.04L562.753,443.385L564.104,444.028L565.465,444.821M570.441,453.487L571.213,452.888L571.92,452.273L572.499,451.625L572.884,450.927L573.012,449.694L572.656,448.351L571.986,446.954L571.173,445.56L570.154,443.915L569.104,442.433L567.955,441.188L566.635,440.251L565.234,439.702L563.682,439.394L562.029,439.246L560.325,439.177M572.146,447.252L572.258,445.897L572.313,444.551L572.257,443.227L572.033,441.934L571.709,440.95L571.253,440.006L570.67,439.119L569.968,438.304L568.978,437.443L567.867,436.755L566.68,436.286L565.463,436.082L564.207,436.178L562.961,436.525L561.724,437.04L560.49,437.639M574.869,424.036L575.337,422.905L575.763,421.765" style="fill:none;fill-rule:nonzero;stroke:black;stroke-width:0.71px;"/>
    </g>
    <g transform="matrix(1,0,0,1,0,-82.8109)">
        <path d="M575.763,463.524L576.104,462.365L576.32,461.177L576.339,459.309L575.986,457.443L575.283,455.669L574.251,454.079L573.299,453.075L572.214,452.225L571.026,451.535L569.767,451.013L567.51,450.488L565.18,450.289L562.817,450.228L560.46,450.116L559.353,449.996L558.255,449.835L557.162,449.648L556.071,449.447M574.869,465.795L574.015,466.866L573.134,467.915L572.2,468.918L571.186,469.854L570.013,470.735L568.743,471.47L567.393,472.011L565.984,472.313L564.686,472.351L563.386,472.182L562.117,471.83L560.91,471.32L559.52,470.499L558.239,469.523L557.03,468.441L555.857,467.308M561.548,475.254L560.555,474.717L559.568,474.192L558.596,473.691L557.644,473.226L556.879,472.875L556.102,472.523L555.282,472.139L554.388,471.69L553.355,471.108L552.425,470.43L552.067,470.061L551.819,469.674L551.707,469.271L551.761,468.855L551.816,468.721L551.885,468.586" style="fill:none;fill-rule:nonzero;stroke:black;stroke-width:0.71px;"/>
    </g>
    <g transform="matrix(1,0,0,1,0,-85.0268)">
        <path d="M551.885,470.802L551.964,470.666L552.048,470.53M566.072,464.904L563.569,466.201L561.047,467.441L558.483,468.568L555.857,469.524L554.916,469.81L553.966,470.071L553.01,470.31L552.048,470.53L549.374,471.068L546.694,471.567L544.028,472.106L541.401,472.766L538.619,473.68L535.889,474.77L533.194,475.977L530.517,477.243M556.071,451.663L556.163,451.457L556.237,451.264L556.274,451.095L556.257,450.965L556.123,450.859L555.887,450.825L555.585,450.836L555.257,450.867L553.459,450.961L551.94,450.91L550.565,450.794L549.203,450.691L548.045,450.664L546.834,450.686L545.594,450.746L544.35,450.834L542.791,450.979L541.261,451.185L539.754,451.482L538.265,451.905L537.327,452.242L536.39,452.584L535.453,452.874L534.512,453.054L532.969,453.025L531.412,452.692L529.846,452.194L528.276,451.675L526.012,451.084L523.756,450.627L521.513,450.195L519.291,449.674" style="fill:none;fill-rule:nonzero;stroke:black;stroke-width:0.71px;"/>
    </g>
    <g transform="matrix(1,0,0,1,0,-98.5264)">
        <path d="M519.291,463.173L517.216,462.535L515.147,461.836L513.067,461.191L510.958,460.717L509.514,460.54L508.054,460.448L506.586,460.398L505.116,460.345L503.587,460.253L502.061,460.154L500.537,460.092L499.014,460.112L497.885,460.196L496.757,460.305L495.631,460.394L494.506,460.418L493.058,460.31L491.613,460.094L490.17,459.845L488.726,459.637L487.571,459.543L486.412,459.512L485.247,459.534L484.072,459.599L482.517,459.741L480.979,459.986L479.496,460.379L478.106,460.968L477.364,461.405L476.646,461.892L475.93,462.401L475.198,462.906L474.38,463.425L473.572,463.951L472.828,464.529L472.201,465.206L471.753,465.939L471.38,466.736L471.012,467.538L470.579,468.285L469.644,469.285L468.504,470.114L467.302,470.892L466.177,471.74L465.039,473.034L464.177,474.554L463.522,476.228L463.005,477.983L462.651,479.447L462.404,480.904" style="fill:none;fill-rule:nonzero;stroke:black;stroke-width:0.71px;"/>
    </g>
    <g transform="matrix(1,0,0,1,0,-51.9617)">
        <path d="M462.404,434.339L462.322,435.776L462.464,437.181L462.705,438.096L463.042,438.995L463.446,439.886L463.887,440.772L464.966,442.83L466.144,444.808L467.478,446.62L469.028,448.179L470.092,448.973L471.242,449.678L472.461,450.331L473.733,450.967L474.6,451.386L475.472,451.755L476.34,452.011L477.191,452.096L478.338,451.859L479.446,451.283L480.527,450.481L481.594,449.567M525.656,444.601L524.695,442.955L523.789,441.29L522.995,439.587L522.369,437.825L522.036,436.448L521.815,435.04L521.694,433.615L521.656,432.184L521.675,431.076L521.726,429.972L521.798,428.871L521.881,427.77M506.357,466.082L507.096,465.502L507.844,464.93L508.609,464.375L509.399,463.844L510.776,463.018L512.167,462.212L513.488,461.357L514.658,460.384L515.49,459.415L516.177,458.328L516.745,457.142L517.219,455.875L517.986,453.18L518.684,450.396L519.32,448.082L519.887,445.818" style="fill:none;fill-rule:nonzero;stroke:black;stroke-width:0.71px;"/>
    </g>
    <g transform="matrix(1,0,0,1,0,-29.0023)">
        <path d="M519.887,422.859L520.22,420.647L520.156,418.49L519.606,416.451L518.669,414.462L517.489,412.519L516.209,410.619L514.924,408.723L513.673,406.856L512.444,405.009L511.226,403.172M497.095,426.256L497.981,427.491L498.863,428.731L499.738,429.981L500.604,431.246L501.685,432.9L502.678,434.605L503.514,436.379L504.126,438.239L504.257,438.803L504.385,439.367L504.529,439.924L504.712,440.463L505.046,441.161L505.454,441.826L505.903,442.475L506.357,443.122L506.931,444.007L507.468,444.909L507.982,445.821L508.491,446.736L509.59,448.665L510.701,450.589L511.797,452.525L512.845,454.485L513.619,456.074L514.286,457.709L514.788,459.409L515.065,461.194L515.092,462.483L514.938,463.755L514.563,464.94L513.922,465.969L513.141,466.684L512.196,467.222L511.154,467.571L510.077,467.72L508.636,467.596L507.255,467.153L505.933,466.472L504.673,465.632" style="fill:none;fill-rule:nonzero;stroke:black;stroke-width:0.71px;"/>
    </g>
    <g transform="matrix(1,0,0,1,0,1.11571)">
        <path d="M504.673,435.514L503.52,434.612L502.471,433.629L501.573,432.559L500.871,431.393L500.283,429.7L499.997,427.877L499.888,425.972L499.831,424.036L499.714,422.211L499.433,420.442L498.891,418.766L497.989,417.224L497.399,416.514L496.809,415.811L496.335,415.079L496.091,414.282L496.078,414.064L496.081,413.841L496.096,413.614L496.117,413.386L496.663,413.419L497.215,413.454L497.776,413.497L498.351,413.549L499.347,413.654L500.342,413.719L501.28,413.668L502.107,413.424L502.906,412.798L503.523,411.875L504.019,410.753L504.455,409.533M496.117,413.386L495.883,412.906L495.64,412.428L495.381,411.954L495.097,411.486L494.47,410.632L493.723,409.878L492.86,409.297L491.88,408.961L491.038,408.887L490.185,408.881L489.381,408.814L488.686,408.559L488.078,407.949L487.585,407.131L487.108,406.295L486.548,405.635L486.207,405.421L485.818,405.26" style="fill:none;fill-rule:nonzero;stroke:black;stroke-width:0.71px;"/>
    </g>
    <g transform="matrix(1,0,0,1,0,-39.1917)">
        <path d="M485.818,445.568L485.375,445.422L484.876,445.253L484.453,445.084L484.067,444.887L483.792,444.673L483.702,444.451L483.824,444.246L484.083,444.034L484.393,443.806L484.669,443.554L484.896,443.06L484.85,442.506L484.604,441.93L484.23,441.367L483.514,440.53L482.85,439.761L482.439,438.989L482.479,438.147L482.664,437.776L482.923,437.436L483.223,437.184L483.529,437.074L483.877,437.187L484.191,437.516L484.479,437.975L484.75,438.476L485.281,439.407L485.783,440.217L486.262,440.975L486.723,441.751L487.079,442.389L487.481,443.016L487.983,443.571L488.639,443.992L488.797,444.055L488.954,444.105L489.101,444.135L489.23,444.139L489.482,443.894L489.454,443.335L489.28,442.601L489.095,441.831L488.999,440.849L489.069,440.013L489.213,439.247L489.338,438.479L489.381,437.741L489.425,436.978L489.56,436.224L489.876,435.514" style="fill:none;fill-rule:nonzero;stroke:black;stroke-width:0.71px;"/>
    </g>
    <g transform="matrix(1,0,0,1,0,-45.4234)">
        <path d="M489.876,441.746L490.342,441.205L490.938,440.794L491.591,440.583L492.227,440.644L492.565,440.828L492.856,441.101L493.085,441.434L493.236,441.796L493.293,442.427L493.151,443.059L492.883,443.695L492.567,444.336L492.279,444.964L492.051,445.59L491.918,446.206L491.917,446.802L492.114,447.475L492.485,448.119L492.973,448.743L493.519,449.357M493.3,442.206L493.645,442.16L493.988,442.131L494.324,442.139L494.651,442.201L494.984,442.341L495.289,442.55L495.555,442.811L495.768,443.111L495.96,443.553L496.067,444.025L496.118,444.516L496.146,445.011L496.187,445.652L496.237,446.284L496.295,446.91L496.355,447.533M497.095,442.677L497.331,442.372L497.555,442.062L497.759,441.744L497.931,441.414L498.124,440.862L498.239,440.279L498.301,439.675L498.337,439.061M496.537,437.956L496.768,438.204L497.008,438.442L497.268,438.658L497.557,438.842L497.747,438.932L497.945,439.002" style="fill:none;fill-rule:nonzero;stroke:black;stroke-width:0.71px;"/>
    </g>
    <g transform="matrix(1,0,0,1,0,-57.554)">
        <path d="M497.945,451.132L498.144,451.177L498.337,451.192L498.86,451.046L499.331,450.695L499.808,450.249L500.346,449.819L500.831,449.549L501.312,449.317L501.714,449.082L501.964,448.804L501.986,448.349L501.756,447.801L501.388,447.202L500.994,446.59L500.604,445.882L500.281,445.219L499.96,444.603L499.578,444.038L499.282,443.707L498.948,443.392L498.589,443.088L498.218,442.789M493.752,447.75L495.054,447.126L496.248,446.434L497.225,445.607L497.877,444.576L498.01,444.157L498.104,443.714L498.169,443.255L498.218,442.789L498.317,441.641L498.368,440.508L498.345,439.389L498.221,438.287L497.987,437.239L497.664,436.204L497.28,435.178L496.866,434.156M510.014,465.288L511.087,464.605L512.105,463.888L513.012,463.099L513.754,462.205L514.217,461.349L514.538,460.41L514.728,459.407L514.803,458.356L514.661,456.185L514.224,454.038L513.6,452.047L512.847,450.168" style="fill:none;fill-rule:nonzero;stroke:black;stroke-width:0.71px;"/>
    </g>
    <g transform="matrix(1,0,0,1,0,-76.0224)">
        <path d="M512.847,468.637L512.018,466.82L511.162,465.016L510.062,462.644L508.894,460.288L507.545,458.027L505.904,455.943L504.98,455.002L504.057,454.069L503.233,453.092L502.606,452.017L502.375,451.371L502.21,450.692L502.089,449.989L501.991,449.276M516.885,468.432L516.173,466.529L515.437,464.636L514.651,462.765L513.792,460.924L512.732,458.937L511.551,457.017L510.249,455.179L508.827,453.438L507.977,452.507L507.099,451.603L506.201,450.717L505.294,449.839M511.233,461.425L510.438,459.72L509.614,458.034L508.731,456.387L507.76,454.796L506.784,453.412L505.735,452.074L504.637,450.769L503.516,449.479M497.113,450.397L498.323,449.961L499.537,449.588L500.759,449.339L501.991,449.276L502.372,449.302L502.754,449.348L503.135,449.408L503.516,449.479L503.962,449.569L504.406,449.663L504.849,449.754L505.294,449.839L506.76,450.045L508.241,450.154L509.731,450.195L511.226,450.192" style="fill:none;fill-rule:nonzero;stroke:black;stroke-width:0.71px;"/>
    </g>
    <g transform="matrix(1,0,0,1,0,-83.7953)">
        <path d="M511.226,457.965L513.875,457.918L516.517,457.845L519.147,457.766L521.763,457.705L523.77,457.69L525.78,457.742L527.811,457.904L529.876,458.219L530.919,458.453L531.925,458.771L532.843,459.209L533.625,459.8L534.189,460.484L534.666,461.265L535.121,462.088L535.619,462.894L536.222,463.645L536.92,464.301L537.695,464.84L538.528,465.241L539.325,465.49L540.136,465.706L540.942,465.99L541.722,466.441L542.386,467.019L543.032,467.605L543.678,467.995L544.344,467.986L544.548,467.876L544.736,467.724L544.891,467.539L544.992,467.335L545.019,467.001L544.918,466.659L544.734,466.321L544.511,465.997L544.065,465.418L543.615,464.903L543.135,464.41L542.596,463.897L541.985,463.322L541.418,462.711L541.031,462.094L540.957,461.501L541.17,461.086L541.571,460.713L542.094,460.394L542.674,460.141L543.568,459.894L544.441,459.803" style="fill:none;fill-rule:nonzero;stroke:black;stroke-width:0.71px;"/>
    </g>
    <g transform="matrix(1,0,0,1,0,-94.1649)">
        <path d="M544.441,470.172L545.296,470.208L546.136,470.342L547.781,470.788L549.399,471.277L550.276,471.486L551.166,471.643L552.082,471.752L553.04,471.817L553.465,471.826L553.879,471.794L554.26,471.687L554.587,471.47L554.761,471.26L554.892,471.013L554.971,470.756L554.987,470.514L554.721,470.055L554.121,469.788L553.334,469.639L552.51,469.533L551.639,469.383L550.873,469.2L550.16,468.993L549.451,468.773L548.96,468.623L548.459,468.462L547.96,468.284L547.471,468.078L547.085,467.885L546.71,467.673L546.343,467.45L545.979,467.22L546.931,466.865L547.884,466.532L548.843,466.243L549.808,466.02L550.904,465.865L552.017,465.799L553.153,465.798L554.317,465.841L555.052,465.868L555.772,465.826L556.449,465.639L557.054,465.231L557.184,465.093L557.293,464.946L557.37,464.797L557.401,464.655L557.307,464.419L557.056,464.229" style="fill:none;fill-rule:nonzero;stroke:black;stroke-width:0.71px;"/>
    </g>
    <g transform="matrix(1,0,0,1,0,-100.875)">
        <path d="M557.056,470.939L556.709,470.787L556.326,470.665L555.609,470.492L554.964,470.394L554.359,470.349L553.76,470.333L553.017,470.328L552.247,470.33L551.462,470.34L550.673,470.356L549.711,470.381L548.759,470.412L547.814,470.446L546.873,470.481L547.334,470.176L547.799,469.879L548.273,469.599L548.758,469.345L549.653,468.977L550.592,468.72L551.566,468.579L552.569,468.56L553.155,468.598L553.732,468.63L554.287,468.606L554.805,468.479L555.145,468.304L555.465,468.072L555.771,467.801L556.071,467.511M542.714,474.542L542.746,473.853L542.752,473.171L542.705,472.504L542.581,471.858L542.33,471.169L541.982,470.508L541.568,469.865L541.122,469.231M529.638,475.254L530.012,474.44L530.361,473.62L530.66,472.789L530.884,471.943L531.015,471.085L531.072,470.211L531.08,469.327L531.063,468.438M520.437,472.794L520.009,471.595L519.708,470.436L519.661,469.361L519.995,468.408" style="fill:none;fill-rule:nonzero;stroke:black;stroke-width:0.71px;"/>
    </g>
    <g transform="matrix(1,0,0,1,0,-42.104)">
        <path d="M519.995,409.637L520.148,409.426L520.324,409.223L520.515,409.026L520.713,408.83M505.294,415.921L505.711,415.371L506.105,414.816L506.45,414.247L506.723,413.66L507.004,412.388L506.983,411.038L506.76,409.634L506.436,408.205M503.516,415.56L503.84,414.482L504.134,413.403L504.369,412.322L504.514,411.238L504.511,409.391L504.25,407.536L503.817,405.675L503.298,403.811M507.091,480.183L505.266,480.016L503.449,479.82L501.647,479.564L499.866,479.218L496.536,478.266L493.267,477.06L490.011,475.783L486.721,474.616L483.647,473.75L480.547,472.977L477.464,472.144L474.442,471.098L472.447,470.193L470.537,469.114L468.751,467.854L467.126,466.409L465.426,464.427L463.998,462.222L462.825,459.849L461.891,457.363L461.005,454.011L460.49,450.597L460.334,447.159L460.527,443.738L461.036,440.401L461.793,437.104L462.714,433.835L463.717,430.579M465.805,464.92L466.026,463.181L466.241,461.44" style="fill:none;fill-rule:nonzero;stroke:black;stroke-width:0.71px;"/>
    </g>
    <g transform="matrix(1,0,0,1,0,-29.0901)">
        <path d="M466.241,448.426L466.442,446.68L466.621,444.924L466.861,442.227L467.141,439.536L467.568,436.887L468.249,434.312L468.751,432.963L469.333,431.638L469.966,430.329L470.626,429.028L471.396,429.641L472.179,430.223L472.988,430.74L473.836,431.16L475.335,431.607L476.915,431.862L478.513,432.085L480.068,432.435L481.02,432.79L481.941,433.234L482.839,433.738L483.726,434.272M480.957,432.763L480.029,432.427L479.131,432.055L478.291,431.611L477.54,431.059L477.094,430.612L476.688,430.115L476.308,429.585L475.942,429.039M481.594,426.695L481.648,426.285L481.722,425.884L481.836,425.503L482.012,425.152L482.513,424.619L483.188,424.244L483.944,424.055L484.689,424.082L485.481,424.409L486.187,424.94L486.872,425.518L487.601,425.991L488.046,426.158L488.516,426.265L489.003,426.331L489.498,426.377M485.074,424.2L485.657,423.834L486.222,423.45L486.751,423.029L487.226,422.554" style="fill:none;fill-rule:nonzero;stroke:black;stroke-width:0.71px;"/>
    </g>
    <g transform="matrix(1,0,0,1,0,-82.7485)">
        <path d="M487.226,476.212L487.973,475.044L488.418,473.684L488.558,472.243L488.39,470.83L488.083,469.883L487.656,468.991L487.148,468.134L486.599,467.295L487.997,466.568L489.397,465.82L490.8,465.03L492.209,464.178L493.668,463.196L495.013,462.088L496.12,460.818L496.866,459.35L497.015,458.812L497.107,458.255L497.14,457.69L497.113,457.123L496.71,455.557L495.901,454.118L494.789,452.87L493.478,451.88L491.811,451.094L490.048,450.576L488.223,450.152L486.371,449.649L485.045,449.177L483.731,448.721L482.436,448.426L481.169,448.441L480.196,448.729L479.229,449.162L478.252,449.605L477.248,449.921L476.338,450.027L475.417,450.072L474.505,450.198L473.624,450.544L472.919,451.059L472.239,451.614L471.569,451.993L470.896,451.984L470.822,451.95L470.748,451.911L470.673,451.869L470.599,451.824M493.033,463.642L491.456,463.191L489.893,462.727" style="fill:none;fill-rule:nonzero;stroke:black;stroke-width:0.71px;"/>
    </g>
    <g transform="matrix(1,0,0,1,0,-43.4306)">
        <path d="M489.893,423.409L488.355,422.918L486.855,422.387L485.315,421.758L483.816,421.019L482.344,420.116L480.881,418.998L479.83,418.019L478.932,416.944L478.344,415.82L478.223,414.697L478.433,414.023L478.82,413.362L479.326,412.711L479.891,412.064M485.061,426.723L484.554,427.651L484.02,428.536L483.433,429.335L482.767,430.005L482.022,430.503L481.188,430.859L480.279,431.091L479.307,431.222L477.224,431.259L475.04,431.132M489.777,473.256L490.376,472.475L490.943,471.679L491.444,470.854L491.848,469.988L492.15,468.969L492.297,467.9L492.292,466.803L492.141,465.698L491.846,464.604L491.412,463.542L490.844,462.533L490.144,461.596L489.247,460.691L488.244,459.962L487.18,459.477L486.098,459.303L485.001,459.489L483.925,459.978L482.864,460.667L481.809,461.456M485.887,472.934L486.952,472.431L487.968,471.893L488.889,471.285L489.664,470.572L490.547,469.141L491.05,467.433" style="fill:none;fill-rule:nonzero;stroke:black;stroke-width:0.71px;"/>
    </g>
    <g transform="matrix(1,0,0,1,0,-24.5649)">
        <path d="M491.05,448.567L491.298,446.675L491.419,444.69M499.638,447.255L498.777,446.421L497.897,445.626L496.978,444.913L496.001,444.32L494.707,443.794L493.325,443.45L491.885,443.227L490.416,443.064M491.946,443.235L492.549,442.84L493.155,442.452L493.768,442.076L494.391,441.72L494.87,441.466L495.354,441.223L495.843,440.987L496.333,440.755M491.035,440.935L489.57,439.907L488.098,438.99L486.61,438.294L485.1,437.931L484.024,437.922L482.936,438.099L481.842,438.431L480.744,438.885L478.552,440.031L476.39,441.283L474.786,442.169L473.208,442.991L471.647,443.769L470.095,444.526M495.891,422.503L495.987,422.12L496.163,421.842L496.586,421.741L497.095,421.818M559.854,426.747L559.978,425.725L560.1,424.707L560.217,423.694L560.325,422.69L560.424,421.732L560.538,420.773L560.691,419.801L560.908,418.805L561.18,417.887" style="fill:none;fill-rule:nonzero;stroke:black;stroke-width:0.71px;"/>
    </g>
    <g transform="matrix(1,0,0,1,0,-75.7052)">
        <path d="M561.18,469.028L561.544,468.155L562.021,467.4L562.628,466.837L563.672,466.464L564.89,466.476L566.178,466.767L567.433,467.233L568.8,467.914L570.013,468.705L571.122,469.616L572.173,470.654L572.821,471.358L573.479,472.048L574.158,472.655L574.871,473.111L575.51,473.341L576.212,473.45L577.007,473.471L577.924,473.438M577.924,484.667L576.69,484.431L575.445,484.231L574.192,484.057L572.935,483.895M572.001,470.469L573.349,470.623L574.697,470.772L576.047,470.91L577.399,471.032L577.53,471.042L577.662,471.053L577.793,471.063L577.924,471.073M577.924,460.724L577.769,460.648L577.616,460.57L577.464,460.49L577.314,460.407L576.677,460.02L576.062,459.597L575.462,459.149L574.869,458.689M647.432,465.583L645.396,466.664L628.056,434.01L630.092,432.928M643.022,466.328L626.891,435.95" style="fill:none;fill-rule:nonzero;stroke:black;stroke-width:0.71px;"/>
    </g>
    <g transform="matrix(-0.956143,-0.2929,-0.2929,0.956143,1365.59,82.0964)">
        <path d="M624.83,482.313C625.397,481.747 626.315,481.747 626.881,482.313" style="fill:none;fill-rule:nonzero;stroke:black;stroke-width:0.71px;"/>
    </g>
    <g transform="matrix(-0.883202,0.468993,0.468993,0.883202,941.814,-351.377)">
        <path d="M613.336,479.359L625.649,479.359" style="fill:none;fill-rule:nonzero;stroke:black;stroke-width:0.71px;"/>
    </g>
    <g transform="matrix(-0.292898,0.956144,0.956144,0.292898,338.642,-359.53)">
        <path d="M612.487,475.671C613.053,475.105 613.971,475.104 614.538,475.671" style="fill:none;fill-rule:nonzero;stroke:black;stroke-width:0.71px;"/>
    </g>
    <g transform="matrix(0.468992,0.883202,0.883202,-0.468992,-75.6419,49.0581)">
        <path d="M604.323,459.322L638.718,459.322" style="fill:none;fill-rule:nonzero;stroke:black;stroke-width:0.71px;"/>
    </g>
    <g transform="matrix(0.956149,0.292882,0.292882,-0.956149,-102.284,637.754)">
        <path d="M629.486,443.824C630.052,443.258 630.97,443.258 631.536,443.824" style="fill:none;fill-rule:nonzero;stroke:black;stroke-width:0.71px;"/>
    </g>
    <g transform="matrix(0.883203,-0.468991,-0.468991,-0.883203,283.765,1088.49)">
        <path d="M630.827,446.42L643.141,446.42" style="fill:none;fill-rule:nonzero;stroke:black;stroke-width:0.71px;"/>
    </g>
    <g transform="matrix(0.292872,-0.956152,-0.956152,-0.292872,885.162,1138.2)">
        <path d="M641.829,450.467C642.396,449.901 643.314,449.901 643.88,450.467" style="fill:none;fill-rule:nonzero;stroke:black;stroke-width:0.71px;"/>
    </g>
    <g transform="matrix(-0.468994,-0.883201,-0.883201,0.468994,1298.91,714.641)">
        <path d="M605.501,454.094L616.899,454.094" style="fill:none;fill-rule:nonzero;stroke:black;stroke-width:0.71px;"/>
    </g>
    <g transform="matrix(-0.2929,0.956143,0.956143,0.2929,346.981,-334.929)">
        <path d="M607.559,460.287C608.125,459.721 609.043,459.721 609.61,460.287" style="fill:none;fill-rule:nonzero;stroke:black;stroke-width:0.71px;"/>
    </g>
    <g transform="matrix(0.883202,-0.468993,-0.468993,-0.883202,288.484,1074.93)">
        <path d="M608.733,462.673L615.492,462.673" style="fill:none;fill-rule:nonzero;stroke:black;stroke-width:0.71px;"/>
    </g>
    <g transform="matrix(-0.956149,-0.292882,-0.292882,0.956149,1341.08,114.39)">
        <path d="M614.997,464.325C615.563,463.759 616.481,463.759 617.048,464.325" style="fill:none;fill-rule:nonzero;stroke:black;stroke-width:0.71px;"/>
    </g>
    <g transform="matrix(0.468994,0.883201,0.883201,-0.468994,-75.9767,51.011)">
        <path d="M614.031,458.624L625.429,458.624" style="fill:none;fill-rule:nonzero;stroke:black;stroke-width:0.71px;"/>
    </g>
    <g transform="matrix(0.2929,-0.956143,-0.956143,-0.2929,872.782,1116.85)">
        <path d="M621.21,452.79C621.777,452.224 622.695,452.224 623.261,452.79" style="fill:none;fill-rule:nonzero;stroke:black;stroke-width:0.71px;"/>
    </g>
    <g transform="matrix(-0.883201,0.468994,0.468994,0.883201,954.29,-295.857)">
        <path d="M615.438,450.045L622.197,450.045" style="fill:none;fill-rule:nonzero;stroke:black;stroke-width:0.71px;"/>
    </g>
    <g transform="matrix(0.956141,0.292908,0.292908,-0.956141,-104.423,642.121)">
        <path d="M613.772,448.752C614.339,448.186 615.257,448.186 615.823,448.752" style="fill:none;fill-rule:nonzero;stroke:black;stroke-width:0.71px;"/>
    </g>
    <g transform="matrix(0.956145,0.292892,0.292892,-0.956145,-99.3457,640.877)">
        <path d="M620.314,432.468C620.978,431.804 622.055,431.804 622.719,432.468" style="fill:none;fill-rule:nonzero;stroke:black;stroke-width:0.71px;"/>
    </g>
    <g transform="matrix(-0.292884,0.956148,0.956148,0.292884,322.429,-343.585)">
        <path d="M598.304,473.723C598.969,473.058 600.045,473.058 600.71,473.723" style="fill:none;fill-rule:nonzero;stroke:black;stroke-width:0.71px;"/>
    </g>
    <g transform="matrix(1,0,0,1,0,-79.5034)">
        <path d="M600.144,446.731L627.649,432.126L650.237,474.662L622.731,489.268M620.432,488.563L599.44,449.031" style="fill:none;fill-rule:nonzero;stroke:black;stroke-width:0.71px;"/>
    </g>
    <g transform="matrix(1,0,0,1,0,-51.5561)">
        <path d="M653.103,447.293C653.563,447.386 654.012,447.088 654.104,446.627M654.104,446.627C654.143,446.435 654.114,446.234 654.022,446.06" style="fill:none;fill-rule:nonzero;stroke:black;stroke-width:0.71px;"/>
    </g>
    <g transform="matrix(0.980251,0.197756,0.197756,-0.980251,-75.4169,704.202)">
        <path d="M650.208,446.442L653.132,446.442" style="fill:none;fill-rule:nonzero;stroke:black;stroke-width:0.71px;"/>
    </g>
    <g transform="matrix(1,0,0,1,0,-143.722)">
        <path d="M630.003,492.995C629.783,492.58 629.268,492.422 628.853,492.642M628.853,492.642C628.64,492.756 628.484,492.955 628.426,493.19" style="fill:none;fill-rule:nonzero;stroke:black;stroke-width:0.71px;"/>
    </g>
    <g transform="matrix(1,0,0,1,0,-154.567)">
        <path d="M654.022,549.071L630.003,503.839M628.426,504.034L627.649,507.189M676.035,495.604L676.035,493.307M676.035,491.323L676.035,485.653M676.035,483.669L676.035,478M676.035,476.016L676.035,470.346M676.035,468.362L676.035,462.693M676.035,460.708L676.035,455.039M676.035,453.055L676.035,447.386" style="fill:none;fill-rule:nonzero;stroke:black;stroke-width:0.71px;"/>
    </g>
    <g transform="matrix(-0.707077,-0.707137,-0.707137,0.707077,1508.22,464.946)">
        <rect x="675.785" y="500.602" width="0.501" height="0.501"/>
    </g>
    <g transform="matrix(-0.707047,-0.707167,-0.707167,0.707047,1543.29,380.301)">
        <rect x="675.785" y="550.208" width="0.501" height="0.501"/>
    </g>
    <g transform="matrix(1,0,0,1,0,-259.027)">
        <path d="M590.996,550.459L594.992,550.459M596.976,550.459L602.646,550.459M604.63,550.459L610.299,550.459M612.283,550.459L617.953,550.459M619.937,550.459L625.606,550.459M627.591,550.459L633.26,550.459M635.244,550.459L640.913,550.459M642.898,550.459L648.567,550.459M650.551,550.459L656.22,550.459M658.205,550.459L663.874,550.459M665.858,550.459L671.528,550.459M673.512,550.459L676.035,550.459" style="fill:none;fill-rule:nonzero;stroke:black;stroke-width:0.71px;"/>
    </g>
    <g transform="matrix(0.707107,-0.707107,-0.707107,-0.707107,562.332,1098.56)">
        <rect x="590.746" y="550.208" width="0.501" height="0.501"/>
    </g>
    <g transform="matrix(0.707107,-0.707107,-0.707107,-0.707107,587.239,1158.69)">
        <rect x="675.785" y="550.208" width="0.501" height="0.501"/>
    </g>
    <g transform="matrix(1,0,0,1,0,-208.033)">
        <path d="M590.996,549.071L590.996,546.773M590.996,544.789L590.996,539.12M590.996,537.136L590.996,531.466M590.996,529.482L590.996,523.813M590.996,521.829L590.996,516.159M590.996,514.175L590.996,508.506M590.996,506.521L590.996,500.852" style="fill:none;fill-rule:nonzero;stroke:black;stroke-width:0.71px;"/>
    </g>
    <g transform="matrix(-0.707077,-0.707137,-0.707137,0.707077,1363.05,404.812)">
        <rect x="590.745" y="500.602" width="0.501" height="0.501"/>
    </g>
    <g transform="matrix(-0.707047,-0.707167,-0.707167,0.707047,1398.12,320.164)">
        <rect x="590.745" y="550.208" width="0.501" height="0.501"/>
    </g>
    <g transform="matrix(1,0,0,1,0,-159.814)">
        <path d="M590.996,500.852L594.992,500.852M596.976,500.852L602.646,500.852M604.63,500.852L610.299,500.852M612.283,500.852L617.953,500.852M619.937,500.852L625.606,500.852M627.591,500.852L633.26,500.852M635.244,500.852L640.913,500.852M642.898,500.852L648.567,500.852M650.551,500.852L656.22,500.852M658.205,500.852L663.874,500.852M665.858,500.852L671.528,500.852M673.512,500.852L676.035,500.852" style="fill:none;fill-rule:nonzero;stroke:black;stroke-width:0.71px;"/>
    </g>
    <g transform="matrix(0.707077,-0.707137,-0.707137,-0.707077,527.287,1113.09)">
        <rect x="590.746" y="500.602" width="0.501" height="0.501"/>
    </g>
    <g transform="matrix(0.707077,-0.707137,-0.707137,-0.707077,552.197,1173.23)">
        <rect x="675.785" y="500.602" width="0.501" height="0.501"/>
    </g>
    <g transform="matrix(1,0,0,1,0,-217.925)">
        <path d="M586.744,529.907L587.339,529.907M589.323,529.907L590.996,529.907" style="fill:none;fill-rule:nonzero;stroke:black;stroke-width:0.71px;"/>
    </g>
    <g transform="matrix(0.707167,-0.707047,-0.707047,-0.707167,546.488,1101.57)">
        <rect x="586.493" y="529.657" width="0.501" height="0.501"/>
    </g>
    <g transform="matrix(0.707107,-0.707107,-0.707107,-0.707107,547.8,1104.58)">
        <rect x="590.745" y="529.657" width="0.501" height="0.501"/>
    </g>
    <g transform="matrix(1,0,0,1,0,-209.421)">
        <path d="M586.744,529.907L586.744,525.2M586.744,523.216L586.744,521.403" style="fill:none;fill-rule:nonzero;stroke:black;stroke-width:0.71px;"/>
    </g>
    <g transform="matrix(-0.707107,-0.707107,-0.707107,0.707107,1370.32,366.69)">
        <rect x="586.493" y="521.153" width="0.501" height="0.501"/>
    </g>
    <g transform="matrix(-0.707167,-0.707047,-0.707047,0.707167,1376.34,352.106)">
        <rect x="586.494" y="529.657" width="0.501" height="0.501"/>
    </g>
    <g transform="matrix(1,0,0,1,0,-200.917)">
        <path d="M586.744,521.403L587.339,521.403M589.323,521.403L590.996,521.403" style="fill:none;fill-rule:nonzero;stroke:black;stroke-width:0.71px;"/>
    </g>
    <g transform="matrix(0.707167,-0.707047,-0.707047,-0.707167,540.475,1104.06)">
        <rect x="586.493" y="521.153" width="0.501" height="0.501"/>
    </g>
    <g transform="matrix(0.707107,-0.707107,-0.707107,-0.707107,541.787,1107.07)">
        <rect x="590.746" y="521.153" width="0.501" height="0.501"/>
    </g>
    <g transform="matrix(1,0,0,1,0,-4.43968)">
        <path d="M740.916,285.685L750.837,285.685L750.837,560.645L740.916,560.645L740.916,285.685L740.916,296.314L729.577,296.314L729.577,285.685L740.916,285.685M740.916,550.015L740.916,560.645L729.577,560.645L729.577,550.015L740.916,550.015M740.916,296.314L740.916,550.015L729.577,550.015L729.577,296.314L740.916,296.314M735.247,296.314L735.247,550.015M463.941,432.087L462.381,430.53M463.946,432.092L464.11,431.926L464.438,431.598L465.176,430.859L465.539,430.495M462.381,430.53L463.946,432.092M464.978,371.872L465.68,371.871L467.034,371.87L469.526,371.867M464.167,371.826L464.978,371.872M463.816,371.57L464.167,371.826M463.64,370.842L463.816,371.57M463.596,369.825L463.64,370.842M463.638,368.809L463.596,369.825M463.813,368.081L463.638,368.809M464.163,367.824L463.813,368.081M467.05,367.773L465.703,367.774M469.531,367.77L467.05,367.773M465.703,367.774L465.002,367.775L464.163,367.824M475.534,367.765L469.531,367.77M465.04,436.006L465.742,436.005L467.096,436.004L469.588,436.001L475.597,435.995M464.229,435.959L465.04,436.006M463.878,435.703L464.229,435.959M463.702,434.976L463.878,435.703M463.659,433.959L463.702,434.976M463.7,432.943L463.659,433.959M463.875,432.215L463.7,432.943M464.225,431.958L463.875,432.215" style="fill:none;fill-rule:nonzero;stroke:black;stroke-width:0.71px;"/>
    </g>
    <g transform="matrix(1,0,0,1,0,-43.0796)">
        <path d="M467.112,470.547L465.765,470.548M469.594,470.544L467.112,470.547M465.765,470.548L465.065,470.549L464.225,470.598M461.534,469.17L462.92,469.169L464.059,469.167M460.451,469.171L461.534,469.17M464.059,469.167L464.597,469.166M459.257,469.17L460.451,469.171M464.597,469.166L464.938,469.164L465.068,469.161M466.014,469.11L465.068,469.161M466.888,469.06L466.495,469.066M470.068,469.031L467.6,469.05M468.04,469.047L466.888,469.06M466.946,469.024L466.014,469.11M463.715,468.911L462.605,468.932M464.705,468.93L463.715,468.911M466.291,468.923L465.58,468.909L464.705,468.93M466.869,468.908L466.291,468.923M467.219,468.923L466.869,468.908M467.36,468.907L467.219,468.923M467.36,468.907L466.946,469.024M462.605,468.932L461.397,468.912M458.008,468.878L459.257,469.17M461.397,468.912L460.138,468.64M457.574,468.585L458.008,468.878M467.558,468.567L467.36,468.907M467.558,468.567L467.756,468.269L467.916,467.983M456.472,466.673L457.574,468.585M459.286,466.701L459.345,465.685M455.681,461.697L456.472,466.673M458.542,460.9L459.345,465.685M455.137,454.857L455.681,461.697M458.028,454.423L458.542,460.9M454.812,447.701L455.137,454.857M457.722,447.526L458.028,454.423M457.614,440.538L457.722,447.526M454.699,440.541L454.812,447.701M457.709,433.55L457.614,440.538M454.699,440.541L454.798,433.381M458.001,426.653L457.709,433.55M454.798,433.381L455.109,426.224M458.503,420.174L458.001,426.653M455.109,426.224L455.64,419.383M459.297,415.387L458.503,420.174M456.422,414.405L455.64,419.383M459.297,415.387L459.235,414.372" style="fill:none;fill-rule:nonzero;stroke:black;stroke-width:0.71px;"/>
    </g>
    <g transform="matrix(1,0,0,1,0,-47.0105)">
        <path d="M467.504,416.421L467.702,416.719M456.422,418.336L457.52,416.423L457.953,416.128M460.084,416.362L461.342,416.088M467.305,416.081L467.504,416.421M465.525,416.082L464.651,416.064L463.66,416.084M462.55,416.066L463.66,416.084M462.55,416.066L461.342,416.088M466.891,415.965L467.305,416.081M473.242,415.966L470.012,415.952M466.833,415.929L466.44,415.924M465.959,415.881L466.891,415.965M465.959,415.881L465.013,415.832M464.882,415.829L465.013,415.832M459.202,415.834L457.953,416.128M464.542,415.828L464.882,415.829M459.202,415.834L460.396,415.831M464.004,415.827L464.542,415.828M460.396,415.831L461.479,415.829M462.864,415.828L464.004,415.827M461.479,415.829L462.864,415.828M469.526,414.438L471.747,414.436M476.705,410.334L475.534,410.335M471.288,474.473L469.594,474.475M475.597,478.566L483.263,478.559" style="fill:none;fill-rule:nonzero;stroke:black;stroke-width:0.71px;"/>
    </g>
    <g transform="matrix(1,0,0,1,0,-4.43972)">
        <path d="M577.709,603.165L577.709,560.645M450.365,243.165L445.651,243.165L436.237,243.658L426.862,244.644L417.551,246.118L408.33,248.078L399.224,250.518L390.259,253.431L381.458,256.81L372.846,260.644L364.447,264.924L356.283,269.637L348.377,274.771L340.75,280.312L333.424,286.245L326.418,292.553L319.752,299.219L313.445,306.224L307.512,313.55L301.971,321.177L296.837,329.083L292.123,337.247L287.844,345.646L284.009,354.258L280.631,363.059L277.718,372.025L275.278,381.13L273.318,390.351L271.843,399.662L270.858,409.037L270.365,418.451L270.365,427.878L270.858,437.292L271.843,446.668L273.318,455.979L275.278,465.199L277.718,474.305L280.631,483.271L284.009,492.072L287.844,500.683L292.123,509.083L296.837,517.247L301.971,525.153L307.512,532.779L313.445,540.106L319.752,547.111L326.418,553.777L333.424,560.085L340.75,566.017" style="fill:none;fill-rule:nonzero;stroke:black;stroke-width:0.71px;"/>
    </g>
    <g transform="matrix(1,0,0,1,0,136.5)">
        <path d="M340.75,425.077L348.377,430.618L356.283,435.753L364.447,440.466L372.846,444.746L381.458,448.58L390.259,451.958L399.224,454.871L408.33,457.311L417.551,459.271L426.862,460.746L436.237,461.731L445.651,462.225L450.365,462.225L450.365,419.705L446.765,419.705L439.574,419.328L432.414,418.576L425.302,417.449L418.259,415.952L411.305,414.089L404.457,411.864L397.735,409.284L391.158,406.355L384.742,403.086L378.507,399.486L372.468,395.565L366.643,391.333L361.048,386.801L355.697,381.984L350.606,376.892L345.788,371.542L341.257,365.946L337.025,360.121L333.103,354.083L329.503,347.847L326.234,341.432L323.306,334.854L320.726,328.132L318.501,321.285L316.637,314.33L315.14,307.287L314.014,300.176L313.261,293.015L312.884,285.825L312.884,278.625L313.261,271.434L314.014,264.274L315.14,257.162L316.637,250.12L318.501,243.165" style="fill:none;fill-rule:nonzero;stroke:black;stroke-width:0.71px;"/>
    </g>
    <g transform="matrix(1,0,0,1,0,-106.7)">
        <path d="M318.501,486.365L320.726,479.517L323.306,472.796L326.234,466.218L329.503,459.803L333.103,453.567L337.025,447.529L341.257,441.704L345.788,436.108L350.606,430.757L355.697,425.666L361.048,420.848L366.643,416.317L372.468,412.085L378.507,408.164L384.742,404.564L391.158,401.295L397.735,398.366L404.457,395.786L411.305,393.561L418.259,391.697L425.302,390.2L432.414,389.074L439.574,388.322L446.765,387.945L450.365,387.945M711.152,345.425L450.365,345.425M450.365,387.945L711.152,387.945M711.152,662.905L577.709,662.905M577.709,705.425L711.152,705.425M450.365,705.425L577.709,705.425M746.585,387.945L711.152,387.945M711.152,662.905L746.585,662.905M746.585,705.425L746.585,662.905M746.585,387.945L746.585,345.425L711.152,345.425M711.152,705.425L746.585,705.425M267.303,251.329L273.426,245.206M905.1,251.329L911.223,245.206M270.365,248.267L270.365,243.165M270.365,248.267L270.365,253.37M908.161,248.267L908.161,243.165M908.161,248.267L908.161,253.37M270.365,248.267L265.262,248.267M908.161,248.267L913.264,248.267" style="fill:none;fill-rule:nonzero;stroke:black;stroke-width:0.71px;"/>
    </g>
    <g transform="matrix(1,0,0,1,0,-518.22)">
        <path d="M270.365,659.787L908.161,659.787M309.823,698.282L315.946,692.159M705.397,698.282L711.52,692.159M312.884,695.22L312.884,690.118M312.884,695.22L312.884,700.323M708.458,695.22L708.458,690.118M708.458,695.22L708.458,700.323M312.884,695.22L307.782,695.22M708.458,695.22L713.56,695.22" style="fill:none;fill-rule:nonzero;stroke:black;stroke-width:0.71px;"/>
    </g>
    <g transform="matrix(1,0,0,1,0,-61.062)">
        <path d="M312.884,238.063L708.458,238.063M150.083,662.849L143.96,656.726M150.083,302.849L143.96,296.726M147.022,659.787L141.919,659.787M147.022,659.787L152.124,659.787M147.022,299.787L141.919,299.787M147.022,299.787L152.124,299.787M147.022,659.787L147.022,664.89M147.022,299.787L147.022,294.685" style="fill:none;fill-rule:nonzero;stroke:black;stroke-width:0.71px;"/>
    </g>
    <g transform="matrix(1,0,0,1,0,-4.43972)">
        <path d="M147.022,603.165L147.022,243.165M184.099,566.077L177.976,559.954M184.099,288.746L177.976,282.623M181.037,563.016L175.935,563.016M181.037,563.016L186.14,563.016M181.037,285.685L175.935,285.685M181.037,285.685L186.14,285.685M181.037,563.016L181.037,568.118M181.037,285.685L181.037,280.582" style="fill:none;fill-rule:nonzero;stroke:black;stroke-width:0.71px;"/>
    </g>
    <text x="569.051px" y="137.899px" style="font-family:'EuclidCircularA-Medium', 'Euclid Circular A', sans-serif;font-weight:500;font-size:19.958px;">4.50</text>
    <text x="490.908px" y="173.332px" style="font-family:'EuclidCircularA-Medium', 'Euclid Circular A', sans-serif;font-weight:500;font-size:19.958px;">2.80</text>
    <g transform="matrix(0,-1,1,0,0,0)">
        <text x="-437.849px" y="143.354px" style="font-family:'EuclidCircularA-Medium', 'Euclid Circular A', sans-serif;font-weight:500;font-size:19.958px;">2.55</text>
    </g>
    <g transform="matrix(0,-1,1,0,0,0)">
        <text x="-436.858px" y="177.369px" style="font-family:'EuclidCircularA-Medium', 'Euclid Circular A', sans-serif;font-weight:500;font-size:19.958px;">1.95</text>
    </g>
    <g transform="matrix(0,-1,-1,0,603.017,600.948)">
        <path d="M42.372,421.979L319.703,421.979" style="fill:none;fill-rule:nonzero;stroke:black;stroke-width:0.71px;"/>
    </g>
</svg>
