<?xml version="1.0" encoding="UTF-8" standalone="no"?>
<svg
   xmlns:dc="http://purl.org/dc/elements/1.1/"
   xmlns:cc="http://creativecommons.org/ns#"
   xmlns:rdf="http://www.w3.org/1999/02/22-rdf-syntax-ns#"
   xmlns:svg="http://www.w3.org/2000/svg"
   xmlns="http://www.w3.org/2000/svg"
   viewBox="0 0 594.82666 134.49333"
   height="134.49333"
   width="594.82666"
   xml:space="preserve"
   id="svg2"
   version="1.1"><metadata
     id="metadata8"><rdf:RDF><cc:Work
         rdf:about=""><dc:format>image/svg+xml</dc:format><dc:type
           rdf:resource="http://purl.org/dc/dcmitype/StillImage" /></cc:Work></rdf:RDF></metadata><defs
     id="defs6" /><g
     transform="matrix(1.3333333,0,0,-1.3333333,0,134.49333)"
     id="g10"><g
       transform="scale(0.1)"
       id="g12"><path
         id="path14"
         style="fill:#000000;fill-opacity:1;fill-rule:nonzero;stroke:none"
         d="M 1815.46,19.0039 C 1803.01,5.87109 1787.04,0 1769.47,0 c -18.33,0 -32.41,6.08984 -43.22,16.9023 -16.17,16.4258 -16.88,33.125 -16.88,68.0586 0,34.9801 0.71,51.6721 16.88,68.0941 10.81,10.785 24.89,16.886 43.22,16.886 35.21,0 56.1,-23.222 60.56,-51.648 h -25.35 c -4.22,18.34 -16.45,29.117 -35.21,29.117 -10.11,0 -18.56,-3.769 -24.89,-10.32 -8.21,-8.914 -9.87,-19.035 -9.87,-52.1291 0,-33.0976 1.66,-43.164 9.87,-52.0781 6.33,-6.5937 14.78,-10.3437 24.89,-10.3437 11.01,0 20.87,4.1992 27.44,11.9804 6.1,7.0235 8.23,15.5078 8.23,26.2735 v 9.3828 h -35.67 v 21.5898 h 61.02 V 66.1992 c 0,-21.8242 -3.97,-35.2226 -15.03,-47.1953" /><path
         id="path16"
         style="fill:#000000;fill-opacity:1;fill-rule:nonzero;stroke:none"
         d="M 1914.72,1.42188 V 168.547 h 106.81 V 145.77 h -81.45 V 96.9336 h 69.49 v -22.5 h -69.49 V 24.1719 h 81.45 V 1.42188 h -106.81" /><path
         id="path18"
         style="fill:#000000;fill-opacity:1;fill-rule:nonzero;stroke:none"
         d="M 2205.79,1.42188 2128.54,118.992 V 1.42188 H 2103.2 V 168.547 h 23.23 L 2203.67,51.1602 V 168.547 h 25.37 V 1.42188 h -23.25" /><path
         id="path20"
         style="fill:#000000;fill-opacity:1;fill-rule:nonzero;stroke:none"
         d="M 2319.6,1.42188 V 168.547 h 25.35 V 1.42188 h -25.35" /><path
         id="path22"
         style="fill:#000000;fill-opacity:1;fill-rule:nonzero;stroke:none"
         d="m 2487.63,130.754 -26.06,-74.172 h 51.42 z M 2531.54,1.42188 2520.03,34.9688 h -65.96 L 2442.59,1.42188 h -27.01 l 61.27,167.12512 h 20.4 L 2558.54,1.42188 h -27" /><path
         id="path24"
         style="fill:#000000;fill-opacity:1;fill-rule:nonzero;stroke:none"
         d="M 2629.15,1.42188 V 168.547 h 25.36 V 24.1719 h 80.53 V 1.42188 h -105.89" /><path
         id="path26"
         style="fill:#000000;fill-opacity:1;fill-rule:nonzero;stroke:none"
         d="M 2810.82,1.42188 V 168.547 h 106.84 V 145.77 h -81.48 V 96.9336 h 69.47 v -22.5 h -69.47 V 24.1719 h 81.48 V 1.42188 h -106.84" /><path
         id="path28"
         style="fill:#000000;fill-opacity:1;fill-rule:nonzero;stroke:none"
         d="m 3238.96,1.42188 h -22.08 L 3182.82,118.535 3149.06,1.42188 h -22.1 L 3083.32,168.547 h 26.74 l 29.11,-119.4845 33.59,119.4845 h 20.42 l 33.55,-119.4845 29.14,119.4845 h 26.73 L 3238.96,1.42188" /><path
         id="path30"
         style="fill:#000000;fill-opacity:1;fill-rule:nonzero;stroke:none"
         d="m 3417.55,185.926 v 25.363 h 21.58 v -25.363 z m -13.83,-55.172 -26.06,-74.172 h 51.39 z m -36.89,55.172 v 25.363 h 21.61 V 185.926 Z M 3447.58,1.42188 3436.11,34.9688 h -65.97 L 3358.62,1.42188 h -26.99 l 61.28,167.12512 h 20.42 L 3474.59,1.42188 h -27.01" /><path
         id="path32"
         style="fill:#000000;fill-opacity:1;fill-rule:nonzero;stroke:none"
         d="m 3608.14,145.77 h -37.57 V 93.418 h 37.57 c 16.89,0 28.37,9.617 28.37,26.062 0,16.438 -11.48,26.29 -28.37,26.29 z m 29.33,-144.34812 -35.2,70.40232 h -31.7 V 1.42188 h -25.35 V 168.547 h 64.79 c 31.7,0 51.87,-20.422 51.87,-48.84 0,-23.9257 -14.53,-39.1914 -33.33,-44.3554 l 38.52,-73.92972 h -29.6" /><path
         id="path34"
         style="fill:#000000;fill-opacity:1;fill-rule:nonzero;stroke:none"
         d="M 3867.96,1.42188 V 113.137 l -38.5,-81.4495 h -18.78 l -39.43,81.4495 V 1.42188 H 3745.9 V 168.547 h 25.35 l 48.84,-103.9884 47.87,103.9884 h 25.36 V 1.42188 h -25.36" /><path
         id="path36"
         style="fill:#000000;fill-opacity:1;fill-rule:nonzero;stroke:none"
         d="M 3983.65,1.42188 V 168.547 h 106.82 V 145.77 h -81.48 V 96.9336 h 69.53 v -22.5 h -69.53 V 24.1719 h 81.48 V 1.42188 h -106.82" /><path
         id="path38"
         style="fill:#000000;fill-opacity:1;fill-rule:nonzero;stroke:none"
         d="m 4299.72,1008.6 c -89.24,0 -161.59,-72.327 -161.59,-161.545 0,-89.223 72.35,-161.539 161.59,-161.539 89.2,0 161.5,72.343 161.5,161.539 0,89.218 -72.3,161.545 -161.5,161.545 z m 0,-92.448 c 38.06,0 69.04,-30.996 69.04,-69.097 0,-38.094 -30.98,-69.09 -69.04,-69.09 -38.13,0 -69.14,30.996 -69.14,69.09 0,38.101 31.01,69.097 69.14,69.097" /><path
         id="path40"
         style="fill:#000000;fill-opacity:1;fill-rule:nonzero;stroke:none"
         d="m 0,427.383 v 527 c 0,12.863 4.78516,24.23 14.3555,34.074 9.5703,9.852 22.4414,14.773 38.5742,14.773 H 369.824 c 9.024,0 16.602,-2.8 22.774,-8.406 6.152,-5.617 9.218,-12.109 9.218,-19.504 v -59.519 c 0,-7.93 -3.339,-14.434 -10.039,-19.492 -6.718,-5.071 -14.023,-7.598 -21.953,-7.598 H 142.832 c -2.734,0 -4.121,-2.648 -4.121,-7.941 V 748.152 h 179.785 c 9.043,0 16.367,-2.769 21.973,-8.308 5.586,-5.528 8.418,-12.141 8.418,-19.793 V 662.59 c 0,-8.801 -2.969,-15.844 -8.848,-21.078 -5.879,-5.25 -13.047,-7.891 -21.543,-7.891 H 138.711 V 500.43 c 0,-4.922 1.387,-7.383 4.121,-7.383 h 226.992 c 9.551,0 17.285,-2.664 23.184,-8.008 5.879,-5.332 8.808,-11.426 8.808,-18.262 v -61.172 c 0,-7.91 -3.203,-14.433 -9.628,-19.492 -6.446,-5.058 -13.907,-7.578 -22.364,-7.578 H 52.9297 c -14.4922,0 -26.9336,4.649 -37.3438,13.985 C 5.19531,401.777 0,413.398 0,427.383" /><path
         id="path42"
         style="fill:#000000;fill-opacity:1;fill-rule:nonzero;stroke:none"
         d="m 1709.46,427.383 v 527 c 0,12.863 4.77,24.23 14.36,34.074 9.57,9.852 22.44,14.773 38.57,14.773 h 316.88 c 9.04,0 16.62,-2.8 22.79,-8.406 6.13,-5.617 9.22,-12.109 9.22,-19.504 v -59.519 c 0,-7.93 -3.36,-14.434 -10.06,-19.492 -6.7,-5.071 -14.02,-7.598 -21.95,-7.598 h -226.98 c -2.75,0 -4.12,-2.648 -4.12,-7.941 V 748.152 h 179.79 c 9.02,0 16.35,-2.769 21.95,-8.308 5.61,-5.528 8.42,-12.141 8.42,-19.793 V 662.59 c 0,-8.801 -2.95,-15.844 -8.83,-21.078 -5.88,-5.25 -13.06,-7.891 -21.54,-7.891 H 1848.17 V 500.43 c 0,-4.922 1.37,-7.383 4.12,-7.383 h 226.98 c 9.57,0 17.3,-2.664 23.2,-8.008 5.86,-5.332 8.81,-11.426 8.81,-18.262 v -61.172 c 0,-7.91 -3.22,-14.433 -9.65,-19.492 -6.42,-5.058 -13.89,-7.578 -22.36,-7.578 h -316.88 c -14.49,0 -26.95,4.649 -37.34,13.985 -10.41,9.257 -15.59,20.878 -15.59,34.863" /><path
         id="path44"
         style="fill:#000000;fill-opacity:1;fill-rule:nonzero;stroke:none"
         d="m 508.223,915.801 v 59.519 c 0,7.93 3.078,14.571 9.25,19.914 6.16,5.336 13.23,7.996 21.172,7.996 h 418.55 c 7.95,0 15.141,-2.66 21.582,-7.996 6.438,-5.343 9.668,-11.984 9.668,-19.914 v -59.519 c 0,-7.383 -2.957,-13.75 -8.875,-19.074 -5.91,-5.348 -13.398,-8.016 -22.461,-8.016 H 817.703 V 405.605 c 0,-7.91 -3.211,-14.433 -9.59,-19.492 -6.394,-5.058 -13.804,-7.578 -22.246,-7.578 h -75.074 c -8.969,0 -16.523,2.793 -22.648,8.438 -6.114,5.605 -9.18,11.816 -9.18,18.632 V 888.711 H 538.738 c -9.07,0 -16.425,2.668 -22.058,8.016 -5.633,5.324 -8.457,11.691 -8.457,19.074" /><path
         id="path46"
         style="fill:#000000;fill-opacity:1;fill-rule:nonzero;stroke:none"
         d="m 1094.85,405.605 v 570.536 c 0,7.929 3.07,14.433 9.24,19.504 6.17,5.055 13.4,7.585 21.62,7.585 h 77 c 9.04,0 16.46,-2.74 22.2,-8.222 5.78,-5.488 8.65,-12.012 8.65,-19.598 V 754.504 h 185.53 V 975.41 c 0,8.145 3.07,14.832 9.24,20.02 6.15,5.2 13.48,7.8 21.95,7.8 h 76.35 c 9.02,0 16.49,-2.66 22.36,-7.996 5.88,-5.343 8.83,-11.711 8.83,-19.093 V 405.605 c 0,-7.363 -2.95,-13.73 -8.83,-19.062 -5.87,-5.352 -13.34,-8.008 -22.36,-8.008 h -76.35 c -8.47,0 -15.8,2.52 -21.95,7.578 -6.17,5.059 -9.24,11.582 -9.24,19.492 V 639.988 H 1233.56 V 405.605 c 0,-7.363 -2.93,-13.73 -8.84,-19.062 -5.9,-5.352 -13.25,-8.008 -22.01,-8.008 h -77 c -8.51,0 -15.78,2.52 -21.81,7.578 -6.04,5.059 -9.05,11.582 -9.05,19.492" /><path
         id="path48"
         style="fill:#000000;fill-opacity:1;fill-rule:nonzero;stroke:none"
         d="m 2793.43,417.051 v 519.148 c 0,48.145 33.28,72.221 99.78,72.221 31.86,0 55.92,-4.17 72.23,-12.514 16.33,-8.347 27.91,-22.371 34.69,-42.07 l 123.18,-395.699 119.16,394.371 c 7.21,21.887 19.18,36.73 35.84,44.543 16.62,7.789 40.14,11.689 70.45,11.689 68.95,0 103.42,-24.365 103.42,-73.056 V 417.109 c 0,-11.23 -4.22,-20.449 -12.7,-27.714 -8.49,-7.247 -18.36,-10.86 -29.57,-10.86 h -54.57 c -12.3,0 -22.38,3.906 -30.17,11.699 -7.8,7.793 -11.7,16.778 -11.7,26.875 v 367.356 l -111.6,-363.82 c -6.33,-18.633 -14.5,-31.172 -24.54,-37.754 -10.05,-6.582 -28.51,-9.864 -55.43,-9.864 -25.82,0 -43.67,3.34 -53.55,10.039 -9.9,6.7 -17.89,19.278 -23.91,37.696 L 2932.16,786.934 V 417.109 c 0,-11.191 -4.53,-20.449 -13.62,-27.714 -9.04,-7.247 -18.84,-10.86 -29.37,-10.86 h -52.34 c -12.15,0 -22.43,3.906 -30.82,11.66 -8.4,7.793 -12.58,16.758 -12.58,26.856" /><path
         id="path50"
         style="fill:#000000;fill-opacity:1;fill-rule:nonzero;stroke:none"
         d="m 2376.46,725.77 h 123.2 c 15,0 22.63,9.367 22.91,28.082 v 102.535 c 0,21.547 -9.01,32.332 -26.99,32.332 h -111.35 c -4.9,0 -7.5,-2.836 -7.77,-8.504 z M 2236.9,947.418 c 0,14.496 5.39,27.43 16.25,38.789 10.86,11.352 25.38,17.033 43.5,17.033 h 219.2 c 44.49,0 79.88,-14.076 106.09,-42.185 26.23,-28.121 39.36,-61.242 39.36,-99.367 V 751.82 c -1.09,-31 -10.39,-58.347 -27.85,-82.09 -17.5,-23.718 -40.96,-37.093 -70.43,-40.101 l 16.79,-23.305 102.43,-190.926 c 0,-0.527 0.68,-2.304 2.05,-5.3 1.36,-3 2.05,-5.711 2.05,-8.172 0,-7.375 -2.81,-13.137 -8.38,-17.238 -5.61,-4.102 -11.43,-6.153 -17.46,-6.153 h -84.87 c -13.94,0 -23.51,5.606 -28.71,16.817 l -101.7,196.617 c -3.28,5.472 -5.74,9.23 -7.38,11.285 -1.64,2.055 -4.02,3.898 -7.17,5.547 -3.14,1.637 -7.14,2.461 -12.05,2.461 h -42.16 V 405.625 c 0,-7.941 -3.38,-14.434 -10.16,-19.504 -6.76,-5.058 -14.01,-7.586 -21.72,-7.586 h -75.8 c -8.56,0 -15.9,2.805 -21.97,8.399 -6.06,5.625 -9.09,11.855 -9.09,18.691 l -0.82,541.793" /><path
         id="path52"
         style="fill:#000000;fill-opacity:1;fill-rule:nonzero;stroke:none"
         d="m 3782.12,662.176 h 91.79 l -45.47,200.808 z m -219.66,-256.668 185.25,563.066 c 3.24,9.149 8.09,16.352 14.58,21.617 6.47,5.262 13.02,8.93 19.62,11.019 6.62,2.07 15.73,3.94 27.33,5.6 6.22,0.55 12.55,0.83 19.04,0.83 6.48,0 13.08,-0.27 19.85,-0.82 18.88,-2.19 32.86,-5.82 41.9,-10.882 9.04,-5.075 15.85,-14.043 20.45,-26.93 l 184.39,-563.07 c 0.54,-1.907 0.82,-3.946 0.82,-6.114 0,-5.176 -1.77,-9.656 -5.3,-13.476 -4.63,-4.903 -10.62,-7.344 -17.98,-7.344 h -89.4 c -9.53,0 -16.74,6.152 -21.63,18.496 l -51.4,150.344 h -163.93 l -51.2,-150.403 c -4.86,-12.304 -12.02,-18.437 -21.46,-18.437 h -88.66 c -7.3,0 -13.24,2.402 -17.81,7.226 -3.53,3.75 -5.28,8.165 -5.28,13.25 0,2.153 0.27,4.153 0.82,6.028" /></g></g></svg>