<?xml version="1.0" encoding="UTF-8" standalone="no"?>
<svg
   xmlns:dc="http://purl.org/dc/elements/1.1/"
   xmlns:cc="http://creativecommons.org/ns#"
   xmlns:rdf="http://www.w3.org/1999/02/22-rdf-syntax-ns#"
   xmlns:svg="http://www.w3.org/2000/svg"
   xmlns="http://www.w3.org/2000/svg"
   viewBox="0 0 377.97333 135.08"
   height="135.08"
   width="377.97333"
   xml:space="preserve"
   id="svg2"
   version="1.1"><metadata
     id="metadata8"><rdf:RDF><cc:Work
         rdf:about=""><dc:format>image/svg+xml</dc:format><dc:type
           rdf:resource="http://purl.org/dc/dcmitype/StillImage" /></cc:Work></rdf:RDF></metadata><defs
     id="defs6" /><g
     transform="matrix(1.3333333,0,0,-1.3333333,0,135.08)"
     id="g10"><g
       transform="scale(0.1)"
       id="g12"><path
         id="path14"
         style="fill:#000000;fill-opacity:1;fill-rule:evenodd;stroke:none"
         d="m 779.348,418.871 c -43.071,0 -77.93,-34.891 -77.93,-77.93 0,-43.027 34.859,-77.929 77.93,-77.929 42.996,0 77.898,34.902 77.898,77.929 0,43.039 -34.902,77.93 -77.898,77.93 M 2493.86,681.949 c -174.71,0 -318.65,-131.445 -338.58,-300.781 -19.86,169.336 -163.77,300.781 -338.51,300.781 V 935.23 h -77.92 V 340.941 c 0,-43.027 34.9,-77.929 77.92,-77.929 43.06,0 77.96,34.902 77.96,77.929 0,43.039 -34.9,77.93 -77.96,77.93 V 603.98 c 145.34,0 263.06,-117.765 263.06,-263.039 0,-145.222 -117.72,-263.0269 -263.06,-263.0269 -145.25,0 -263.01,117.8049 -263.01,263.0269 V 935.23 h -77.93 V 681.949 h -21.02 c -172.97,0 -316.19,-130.109 -337.31,-298.242 -21.04,168.133 -164.355,298.242 -338.152,298.242 -33.879,0 -66.555,-5.019 -97.453,-14.219 v 4.442 C 681.621,860.199 529.055,1013.13 340.945,1013.13 152.852,1013.13 0.34375,860.23 0,672.211 V 9.71875 H 77.9492 V 672.211 C 78.2539,817.164 195.891,935.23 340.945,935.23 486.023,935.23 603.66,817.164 603.984,672.172 H 418.906 c 0,43.019 -34.902,77.949 -77.961,77.949 -43.054,0 -77.918,-34.902 -77.918,-77.91 V 594.234 H 551.105 C 500.352,548.48 463.508,487.68 447.449,418.871 H 263.672 L 263.027,9.71875 h 78.606 V 340.941 h 96.734 C 438.367,152.672 591.016,0 779.348,0 946.746,0 1085.95,120.797 1114.72,279.957 V 9.71875 h 341.64 V 340.941 h 19.47 C 1475.83,152.641 1628.5,0 1816.77,0 1991.51,0 2135.42,131.41 2155.28,300.727 2175.21,131.41 2319.15,0 2493.86,0 c 188.26,0 340.95,152.672 340.95,340.941 0,188.332 -152.69,341.008 -340.95,341.008 z M 779.348,77.9141 c -145.293,0 -263.047,117.8049 -263.047,263.0269 0,145.274 117.754,263.039 263.047,263.039 145.222,0 263.012,-117.765 263.012,-263.039 0,-145.222 -117.79,-263.0269 -263.012,-263.0269 z M 1475.83,418.871 h -19.47 c -43.05,0 -77.92,-34.891 -77.92,-77.93 V 87.6523 h -185.8 l 0.02,253.2887 c 0.08,145.266 117.61,263.028 262.15,263.028 h 1.55 19.47 V 418.871 Z M 2493.82,77.9141 c -145.24,0 -263,117.8049 -263,263.0269 0,145.274 117.76,263.039 263,263.039 145.29,0 263.05,-117.765 263.05,-263.039 0,-145.222 -117.76,-263.0269 -263.05,-263.0269 z m 0,340.9569 c -43.03,0 -77.91,-34.891 -77.91,-77.93 0,-43.027 34.88,-77.929 77.91,-77.929 43.08,0 77.95,34.902 77.95,77.929 0,43.039 -34.87,77.93 -77.95,77.93 v 0" /></g></g></svg>