<?xml version="1.0" encoding="utf-8"?>
<!-- Generator: Adobe Illustrator 15.1.0, SVG Export Plug-In . SVG Version: 6.00 Build 0)  -->
<!DOCTYPE svg PUBLIC "-//W3C//DTD SVG 1.0//EN" "http://www.w3.org/TR/2001/REC-SVG-20010904/DTD/svg10.dtd" [
	<!ENTITY ns_flows "http://ns.adobe.com/Flows/1.0/">
	<!ENTITY ns_extend "http://ns.adobe.com/Extensibility/1.0/">
	<!ENTITY ns_ai "http://ns.adobe.com/AdobeIllustrator/10.0/">
	<!ENTITY ns_graphs "http://ns.adobe.com/Graphs/1.0/">
]>
<svg version="1.0" id="Ebene_1" xmlns:x="&ns_extend;" xmlns:i="&ns_ai;" xmlns:graph="&ns_graphs;"
	 xmlns="http://www.w3.org/2000/svg" xmlns:xlink="http://www.w3.org/1999/xlink" xmlns:a="http://ns.adobe.com/AdobeSVGViewerExtensions/3.0/"
	 x="0px" y="0px" width="784px" height="174px" viewBox="0 0 784 174" enable-background="new 0 0 784 174" xml:space="preserve">
<metadata><?xpacket begin="﻿" id="W5M0MpCehiHzreSzNTczkc9d"?>
<x:xmpmeta xmlns:x="adobe:ns:meta/" x:xmptk="Adobe XMP Core 5.0-c060 61.134777, 2010/02/12-17:32:00        ">
   <rdf:RDF xmlns:rdf="http://www.w3.org/1999/02/22-rdf-syntax-ns#">
      <rdf:Description rdf:about=""
            xmlns:xmp="http://ns.adobe.com/xap/1.0/"
            xmlns:xmpGImg="http://ns.adobe.com/xap/1.0/g/img/">
         <xmp:CreatorTool>Adobe Illustrator CS5.1</xmp:CreatorTool>
         <xmp:CreateDate>2022-03-01T12:05:12+01:00</xmp:CreateDate>
         <xmp:ModifyDate>2022-03-01T12:05:13+01:00</xmp:ModifyDate>
         <xmp:MetadataDate>2022-03-01T12:05:13+01:00</xmp:MetadataDate>
         <xmp:Thumbnails>
            <rdf:Alt>
               <rdf:li rdf:parseType="Resource">
                  <xmpGImg:width>256</xmpGImg:width>
                  <xmpGImg:height>28</xmpGImg:height>
                  <xmpGImg:format>JPEG</xmpGImg:format>
                  <xmpGImg:image>/9j/4AAQSkZJRgABAgEASABIAAD/7QAsUGhvdG9zaG9wIDMuMAA4QklNA+0AAAAAABAASAAAAAEA&#xA;AQBIAAAAAQAB/+4ADkFkb2JlAGTAAAAAAf/bAIQABgQEBAUEBgUFBgkGBQYJCwgGBggLDAoKCwoK&#xA;DBAMDAwMDAwQDA4PEA8ODBMTFBQTExwbGxscHx8fHx8fHx8fHwEHBwcNDA0YEBAYGhURFRofHx8f&#xA;Hx8fHx8fHx8fHx8fHx8fHx8fHx8fHx8fHx8fHx8fHx8fHx8fHx8fHx8fHx8f/8AAEQgAHAEAAwER&#xA;AAIRAQMRAf/EAaIAAAAHAQEBAQEAAAAAAAAAAAQFAwIGAQAHCAkKCwEAAgIDAQEBAQEAAAAAAAAA&#xA;AQACAwQFBgcICQoLEAACAQMDAgQCBgcDBAIGAnMBAgMRBAAFIRIxQVEGE2EicYEUMpGhBxWxQiPB&#xA;UtHhMxZi8CRygvElQzRTkqKyY3PCNUQnk6OzNhdUZHTD0uIIJoMJChgZhJRFRqS0VtNVKBry4/PE&#xA;1OT0ZXWFlaW1xdXl9WZ2hpamtsbW5vY3R1dnd4eXp7fH1+f3OEhYaHiImKi4yNjo+Ck5SVlpeYmZ&#xA;qbnJ2en5KjpKWmp6ipqqusra6voRAAICAQIDBQUEBQYECAMDbQEAAhEDBCESMUEFURNhIgZxgZEy&#xA;obHwFMHR4SNCFVJicvEzJDRDghaSUyWiY7LCB3PSNeJEgxdUkwgJChgZJjZFGidkdFU38qOzwygp&#xA;0+PzhJSktMTU5PRldYWVpbXF1eX1RlZmdoaWprbG1ub2R1dnd4eXp7fH1+f3OEhYaHiImKi4yNjo&#xA;+DlJWWl5iZmpucnZ6fkqOkpaanqKmqq6ytrq+v/aAAwDAQACEQMRAD8A9U4q7FXYq7FXYq7FXYq7&#xA;FXYq7FXYq7FXYq7FXYq7FXYq7FXYq7FXYq7FXYq7FXYq7FXYq7FXYq7FXYq7FXYq7FXYq7FXYq7F&#xA;XYq7FXYq7FXYq7FXYq7FXYq7FXYq7FXYq7FXYq7FXYq7FXYq7FXYq7FXYq7FXYq7FXYq7FXYq7FX&#xA;Yq7FXYq7FXYq7FXYq7FXYq7FXYq7FXYq7FXYq7FXYq7FXYq7FXYq7FXYq7FXYq7FXYq7FXYq7FXY&#xA;q7FXYq7FXYq7FXYq7FXYq7FXYq7FXYq7FXYq7FXYq7FXYq7FXYq7FXYq7FXYq7FXYq7FXYq7FX//&#xA;2Q==</xmpGImg:image>
               </rdf:li>
            </rdf:Alt>
         </xmp:Thumbnails>
      </rdf:Description>
      <rdf:Description rdf:about=""
            xmlns:xmpTPg="http://ns.adobe.com/xap/1.0/t/pg/"
            xmlns:stDim="http://ns.adobe.com/xap/1.0/sType/Dimensions#"
            xmlns:xmpG="http://ns.adobe.com/xap/1.0/g/">
         <xmpTPg:NPages>1</xmpTPg:NPages>
         <xmpTPg:HasVisibleTransparency>False</xmpTPg:HasVisibleTransparency>
         <xmpTPg:HasVisibleOverprint>False</xmpTPg:HasVisibleOverprint>
         <xmpTPg:MaxPageSize rdf:parseType="Resource">
            <stDim:w>276.577778</stDim:w>
            <stDim:h>61.383333</stDim:h>
            <stDim:unit>Millimeters</stDim:unit>
         </xmpTPg:MaxPageSize>
         <xmpTPg:SwatchGroups>
            <rdf:Seq>
               <rdf:li rdf:parseType="Resource">
                  <xmpG:groupName>Standard-Farbfeldgruppe</xmpG:groupName>
                  <xmpG:groupType>0</xmpG:groupType>
               </rdf:li>
            </rdf:Seq>
         </xmpTPg:SwatchGroups>
      </rdf:Description>
      <rdf:Description rdf:about=""
            xmlns:dc="http://purl.org/dc/elements/1.1/">
         <dc:format>image/svg+xml</dc:format>
      </rdf:Description>
      <rdf:Description rdf:about=""
            xmlns:xmpMM="http://ns.adobe.com/xap/1.0/mm/"
            xmlns:stRef="http://ns.adobe.com/xap/1.0/sType/ResourceRef#"
            xmlns:stEvt="http://ns.adobe.com/xap/1.0/sType/ResourceEvent#">
         <xmpMM:RenditionClass>proof:pdf</xmpMM:RenditionClass>
         <xmpMM:DocumentID>xmp.did:4AD790FD4C99EC11890ABA74D78487CA</xmpMM:DocumentID>
         <xmpMM:InstanceID>xmp.iid:4AD790FD4C99EC11890ABA74D78487CA</xmpMM:InstanceID>
         <xmpMM:OriginalDocumentID>uuid:6e5f576b-3c29-4338-9291-6d1f8571eb98</xmpMM:OriginalDocumentID>
         <xmpMM:DerivedFrom rdf:parseType="Resource">
            <stRef:instanceID>xmp.iid:49D790FD4C99EC11890ABA74D78487CA</stRef:instanceID>
            <stRef:documentID>xmp.did:49D790FD4C99EC11890ABA74D78487CA</stRef:documentID>
            <stRef:originalDocumentID>uuid:6e5f576b-3c29-4338-9291-6d1f8571eb98</stRef:originalDocumentID>
            <stRef:renditionClass>proof:pdf</stRef:renditionClass>
         </xmpMM:DerivedFrom>
         <xmpMM:History>
            <rdf:Seq>
               <rdf:li rdf:parseType="Resource">
                  <stEvt:action>saved</stEvt:action>
                  <stEvt:instanceID>xmp.iid:41D790FD4C99EC11890ABA74D78487CA</stEvt:instanceID>
                  <stEvt:when>2022-03-01T11:47:29+01:00</stEvt:when>
                  <stEvt:softwareAgent>Adobe Illustrator CS5.1</stEvt:softwareAgent>
                  <stEvt:changed>/</stEvt:changed>
               </rdf:li>
               <rdf:li rdf:parseType="Resource">
                  <stEvt:action>saved</stEvt:action>
                  <stEvt:instanceID>xmp.iid:49D790FD4C99EC11890ABA74D78487CA</stEvt:instanceID>
                  <stEvt:when>2022-03-01T12:03:59+01:00</stEvt:when>
                  <stEvt:softwareAgent>Adobe Illustrator CS5.1</stEvt:softwareAgent>
                  <stEvt:changed>/</stEvt:changed>
               </rdf:li>
               <rdf:li rdf:parseType="Resource">
                  <stEvt:action>saved</stEvt:action>
                  <stEvt:instanceID>xmp.iid:4AD790FD4C99EC11890ABA74D78487CA</stEvt:instanceID>
                  <stEvt:when>2022-03-01T12:05:13+01:00</stEvt:when>
                  <stEvt:softwareAgent>Adobe Illustrator CS5.1</stEvt:softwareAgent>
                  <stEvt:changed>/</stEvt:changed>
               </rdf:li>
            </rdf:Seq>
         </xmpMM:History>
      </rdf:Description>
   </rdf:RDF>
</x:xmpmeta>
                                                                                                    
                                                                                                    
                                                                                                    
                                                                                                    
                                                                                                    
                                                                                                    
                                                                                                    
                                                                                                    
                                                                                                    
                                                                                                    
                                                                                                    
                                                                                                    
                                                                                                    
                                                                                                    
                                                                                                    
                                                                                                    
                                                                                                    
                                                                                                    
                                                                                                    
                                                                                                    
                           
<?xpacket end="w"?>
	</metadata>
<g>
	<path fill="#3A3A3A" d="M117.03,58.418c1.462,0,2.914,0.922,2.196,2.242l-5.624,9.93c-0.736,1.32-0.736,2.296-2.196,2.296H67.374
		c-2.586,0-4.726,0.234-6.413,0.688c-1.681,0.406-3.03,1.147-4.038,2.188c-0.962,1.086-1.688,2.468-2.143,4.241
		c-0.397,1.727-0.615,3.968-0.615,6.664v14.587c0,2.693,0.218,4.936,0.615,6.717c0.454,1.773,1.181,3.219,2.143,4.242
		c1.008,1.102,2.357,1.844,4.038,2.242c1.688,0.463,3.827,0.695,6.413,0.695h32.729c1.686,0,2.976-0.461,3.764-1.383
		c0.79-0.914,1.188-2.523,1.188-4.82v-8.211c0-0.859-0.398-1.318-1.188-1.318H80.422c-1.462,0-1.299-1.096-2.188-2.299l-5.626-7.64
		c-0.906-1.204,0.736-2.298,2.196-2.298h41.319c2.032,0,2.984,0.978,2.984,3.048v23.601c0,5.625-1.006,9.641-3.147,12
		c-2.133,2.297-5.181,3.502-9.108,3.502H66.758c-5,0-9.274-0.518-12.822-1.439c-3.492-0.967-6.35-2.467-8.546-4.594
		c-2.25-2.123-3.82-4.938-4.898-8.328c-1.008-3.381-1.516-7.516-1.516-12.398V85.176c0-4.884,0.508-9.016,1.516-12.399
		c1.078-3.336,2.648-6.086,4.898-8.219c2.196-2.117,5.054-3.733,8.546-4.703c3.548-0.977,7.822-1.437,12.822-1.437H117.03z
		 M117.03,58.418"/>
	<path fill="#3A3A3A" d="M235.852,103.207l15.57-29.688c0.288-0.515,0.68-0.742,1.132-0.742h0.554c0.508,0,0.853,0.228,1.134,0.742
		l15.742,29.688H235.852z M299.336,126.98L266.5,66.113c-1.635-3.038-3.328-5.108-5.009-6.141c-1.75-1.039-3.884-1.554-6.352-1.554
		h-5.853c-2.14,0-3.991,0.515-5.562,1.554c-1.578,1.032-3.21,3.103-4.898,6.141l-32.5,60.868c-0.336,0.689-0.445,1.203-0.281,1.664
		c0.172,0.455,0.672,0.689,1.569,0.689h12.876c1.07,0,1.805-0.463,2.313-1.32l6.798-13.094h46.624l7.086,13.094
		c0.398,0.857,1.118,1.32,2.25,1.32h12.586c0.796,0,1.304-0.234,1.468-0.689C299.78,128.184,299.672,127.67,299.336,126.98"/>
	<path fill="#3A3A3A" d="M376.71,58.418c1.47,0,2.922,0.976,2.188,2.242l-5.618,9.586c-0.726,1.267-0.726,2.242-2.186,2.242h-44.086
		c-1.914,0-3.267,0.516-4.057,1.546c-0.787,0.979-1.18,2.359-1.18,4.134v3.444c0,3.79,1.744,5.688,5.172,5.688h37.172
		c5.736,0,10.064,1.492,12.992,4.477c2.922,2.987,4.393,7.297,4.393,12.922v8.102c0,4.93-1.414,8.891-4.282,11.93
		c-2.866,3.055-7.25,4.604-13.267,4.604h-55c-1.521,0-2.976-0.979-2.25-2.242l5.618-9.643c0.734-1.266,0.734-2.242,2.258-2.242
		h46.444c1.97,0,3.322-0.461,4.11-1.5c0.782-1.023,1.18-2.406,1.18-4.123v-4.197c0-3.781-1.75-5.623-5.172-5.623h-37.172
		c-5.796,0-10.132-1.549-12.992-4.541c-2.922-2.984-4.382-7.29-4.382-12.915v-7.414c0-4.875,1.406-8.897,4.264-11.938
		c2.822-3.046,7.258-4.538,13.274-4.538H376.71z M376.71,58.418"/>
	<path fill="#3A3A3A" d="M463.031,101.48c0,2.586-0.227,4.828-0.672,6.604c-0.391,1.779-1.133,3.217-2.133,4.258
		c-0.961,1.029-2.313,1.779-4,2.232s-3.82,0.633-6.406,0.633h-29.469c-2.586,0-4.719-0.18-6.406-0.633s-2.984-1.203-4-2.232
		c-1.008-1.041-1.688-2.479-2.133-4.258c-0.445-1.775-0.625-4.018-0.625-6.604V86.269c0-2.648,0.18-4.828,0.625-6.664
		c0.445-1.78,1.125-3.156,2.133-4.25c1.016-1.03,2.313-1.772,4-2.179c1.688-0.462,3.82-0.688,6.406-0.688h29.469
		c2.586,0,4.719,0.226,6.406,0.688c1.688,0.406,3.039,1.148,4,2.179c1,1.094,1.742,2.47,2.133,4.25
		c0.445,1.836,0.672,4.016,0.672,6.664V101.48z M476.695,72.777c-0.953-3.336-2.586-6.086-4.773-8.219
		c-2.25-2.117-5.125-3.726-8.664-4.703c-3.547-0.977-7.813-1.437-12.82-1.437h-30.648c-5.063,0-9.336,0.46-12.82,1.437
		c-3.484,0.978-6.359,2.586-8.547,4.703c-2.25,2.133-3.877,4.883-4.9,8.219c-1.014,3.384-1.514,7.516-1.514,12.399v17.398
		c0,4.883,0.5,9.018,1.514,12.398c1.023,3.391,2.65,6.205,4.9,8.328c2.188,2.127,5.063,3.627,8.547,4.594
		c3.484,0.922,7.758,1.439,12.82,1.439h30.648c5.008,0,9.273-0.518,12.82-1.439c3.539-0.967,6.414-2.467,8.664-4.594
		c2.188-2.123,3.82-4.938,4.773-8.328c1.016-3.381,1.516-7.516,1.516-12.398V85.176C478.211,80.292,477.711,76.161,476.695,72.777"
		/>
	<path fill="#3A3A3A" d="M503.297,64.168c1.297,0.687,2.195,0.742,2.195,2.234v34.625c0,2.695,0.227,4.992,0.617,6.766
		c0.445,1.791,1.117,3.227,2.133,4.258s2.367,1.781,4,2.242c1.688,0.398,3.82,0.627,6.406,0.627h34.578
		c1.469,0,1.469,0.975,2.141,2.232l5.625,9.939c0.727,1.264-0.734,2.242-2.141,2.242h-40.766c-5.063,0-9.336-0.518-12.82-1.439
		c-3.492-0.967-6.359-2.467-8.547-4.594c-2.25-2.123-3.883-4.938-4.891-8.328c-1.016-3.381-1.523-7.516-1.523-12.398V60.661
		c0-1.492,0.898-2.984,2.25-2.242L503.297,64.168z M503.297,64.168"/>
	<path fill="#3A3A3A" d="M582.75,64.168c1.297,0.687,2.195,0.742,2.195,2.234v34.625c0,2.695,0.164,4.992,0.625,6.766
		c0.445,1.791,1.117,3.227,2.133,4.258s2.313,1.781,3.992,2.242c1.688,0.398,3.828,0.627,6.414,0.627h27.484
		c2.594,0,4.734-0.229,6.414-0.627c1.688-0.461,2.984-1.211,3.992-2.242c1.016-1.031,1.695-2.467,2.078-4.258
		c0.398-1.773,0.625-4.07,0.625-6.766V66.403c0-1.492,0.844-1.548,2.133-2.234l10.852-5.75c1.297-0.688,2.141,0.75,2.141,2.242
		v41.914c0,4.883-0.445,9.018-1.461,12.398c-1.008,3.391-2.586,6.205-4.836,8.328c-2.195,2.127-5.063,3.627-8.609,4.594
		c-3.539,0.922-7.813,1.439-12.813,1.439h-28.563c-5.07,0-9.336-0.518-12.828-1.439c-3.484-0.967-6.352-2.467-8.602-4.594
		c-2.195-2.123-3.82-4.938-4.836-8.328c-1.008-3.381-1.523-7.516-1.523-12.398V60.661c0-1.492,0.906-2.984,2.258-2.242
		L582.75,64.168z M582.75,64.168"/>
	<path fill="#3A3A3A" d="M744.141,58.418c0.898,0,1.406,0.288,1.516,0.976c0.117,0.633-0.109,1.148-0.563,1.664l-30.422,31.469
		l31.828,34.165c0.445,0.461,0.617,1.031,0.563,1.664c-0.117,0.633-0.617,0.979-1.578,0.979h-13.547
		c-0.789,0-1.461-0.119-1.906-0.346c-0.461-0.172-0.906-0.578-1.297-1.094l-24.461-26.242l-24.633,26.242
		c-0.453,0.516-0.906,0.922-1.352,1.094c-0.398,0.227-1.07,0.346-1.914,0.346h-12.867c-0.906,0-1.352-0.346-1.461-0.979
		c-0.117-0.633,0.047-1.203,0.555-1.664l32.609-34.687L665.75,61.058c-0.391-0.516-0.563-1.031-0.508-1.664
		c0.055-0.688,0.563-0.976,1.516-0.976h13.555c0.844,0,1.469,0.116,1.914,0.351c0.445,0.228,0.898,0.571,1.289,1.086l21.594,23.485
		l22.945-23.485c0.398-0.515,0.844-0.858,1.289-1.086c0.461-0.234,1.078-0.351,1.859-0.351H744.141z M744.141,58.418"/>
	<path fill="#3A3A3A" d="M144.415,64.168c1.296,0.687,2.201,0.742,2.201,2.234v34.625c0,2.695,0.212,4.992,0.61,6.766
		c0.454,1.791,1.126,3.227,2.147,4.258c1,1.031,2.353,1.781,3.984,2.242c1.68,0.398,3.822,0.627,6.408,0.627h34.586
		c1.46,0,1.46,0.975,2.132,2.232l5.632,9.939c0.721,1.264-0.733,2.242-2.147,2.242h-40.767c-5.062,0-9.336-0.518-12.819-1.439
		c-3.484-0.967-6.353-2.467-8.546-4.594c-2.25-2.123-3.885-4.938-4.9-8.328c-1-3.381-1.514-7.516-1.514-12.398V60.661
		c0-1.492,0.897-2.984,2.258-2.242L144.415,64.168z M144.415,64.168"/>
</g>
</svg>
