<?xml version="1.0" encoding="UTF-8" standalone="no"?>
<!DOCTYPE svg PUBLIC "-//W3C//DTD SVG 1.1//EN" "http://www.w3.org/Graphics/SVG/1.1/DTD/svg11.dtd">
<svg width="100%" height="100%" viewBox="0 0 2481 1182" version="1.1" xmlns="http://www.w3.org/2000/svg" xmlns:xlink="http://www.w3.org/1999/xlink" xml:space="preserve" xmlns:serif="http://www.serif.com/" style="fill-rule:evenodd;clip-rule:evenodd;stroke-linejoin:round;stroke-miterlimit:2;">
    <g transform="matrix(4.16667,0,0,4.16667,479.122,527.236)">
        <path d="M0,41.953L0,0L-11.622,0L-11.622,4.496C-12.866,2.504 -15.1,0 -19.134,0L-29.905,0C-29.905,0 -38.976,0 -38.976,9.071L-38.976,32.882C-38.976,32.882 -38.976,41.953 -29.905,41.953L-19.134,41.953C-19.134,41.953 -14.213,41.232 -11.622,37.599L-11.622,41.953L0,41.953ZM-10.121,21.019C-10.121,26.169 -14.296,30.344 -19.446,30.344C-24.596,30.344 -28.772,26.169 -28.772,21.019C-28.772,15.868 -24.596,11.693 -19.446,11.693C-14.296,11.693 -10.121,15.868 -10.121,21.019" style="fill:#3A3A3A;fill-rule:nonzero;stroke:black;stroke-width:0.69px;"/>
    </g>
    <g transform="matrix(4.16667,0,0,4.16667,685.815,417.689)">
        <path d="M0,68.315L0,0L-11.622,0L-11.622,30.378C-12.912,28.558 -15.097,26.291 -18.85,26.291L-29.622,26.291C-29.622,26.291 -38.693,26.291 -38.693,35.362L-38.693,59.173C-38.693,59.173 -38.693,68.244 -29.622,68.244L-18.85,68.244C-18.85,68.244 -14.272,67.518 -11.622,64.253L-11.622,68.315L0,68.315ZM-9.695,47.31C-9.695,52.46 -13.871,56.635 -19.021,56.635C-24.171,56.635 -28.346,52.46 -28.346,47.31C-28.346,42.16 -24.171,37.984 -19.021,37.984C-13.871,37.984 -9.695,42.16 -9.695,47.31" style="fill:#3A3A3A;fill-rule:nonzero;stroke:black;stroke-width:0.69px;"/>
    </g>
    <g transform="matrix(4.16667,0,0,4.16667,782.665,596.63)">
        <path d="M0,8.645L0,6.303L26.504,6.303L26.504,-7.583C26.504,-7.583 26.504,-16.654 17.433,-16.654L-2.409,-16.654C-2.409,-16.654 -11.48,-16.654 -11.48,-7.583L-11.48,16.228C-11.48,16.228 -11.48,25.299 -2.409,25.299L26.433,25.299L26.433,14.314L5.669,14.314C0,14.314 0,8.645 0,8.645M0.142,-1.589C0.142,-6.739 3.743,-10.914 8.185,-10.914C12.627,-10.914 16.228,-6.739 16.228,-1.589C16.228,-1.417 16.193,-1.257 16.185,-1.087C15.97,-1.102 15.772,-1.134 15.545,-1.134L0.181,-1.134C0.175,-1.288 0.142,-1.433 0.142,-1.589" style="fill:#3A3A3A;fill-rule:nonzero;stroke:black;stroke-width:0.69px;"/>
    </g>
    <g transform="matrix(4.16667,0,0,4.16667,1302.35,455.783)">
        <path d="M0,50.031L0,26.22C0,17.149 -9.071,17.149 -9.071,17.149L-19.842,17.149C-23.596,17.149 -25.781,19.415 -27.071,21.236L-27.071,-9.142L-38.693,-9.142L-38.693,59.173L-27.071,59.173L-27.071,55.111C-24.421,58.375 -19.842,59.102 -19.842,59.102L-9.071,59.102C0,59.102 0,50.031 0,50.031M-10.346,38.168C-10.346,43.318 -14.522,47.493 -19.672,47.493C-24.822,47.493 -28.997,43.318 -28.997,38.168C-28.997,33.017 -24.822,28.842 -19.672,28.842C-14.522,28.842 -10.346,33.017 -10.346,38.168" style="fill:#3A3A3A;fill-rule:nonzero;stroke:black;stroke-width:0.69px;"/>
    </g>
    <g transform="matrix(4.16667,0,0,4.16667,1494.28,565.033)">
        <path d="M0,23.811L0,-9.071L-11.48,-9.071L-11.48,17.472C-11.48,21.472 -15.48,21.472 -15.48,21.472L-19.102,21.472C-23.102,21.472 -23.102,17.472 -23.102,17.472L-23.102,-9.071L-34.866,-9.071L-34.866,23.811C-34.866,32.882 -25.795,32.882 -25.795,32.882L-9.071,32.882C0,32.882 0,23.811 0,23.811" style="fill:#3A3A3A;fill-rule:nonzero;stroke:black;stroke-width:0.69px;"/>
    </g>
    <g transform="matrix(4.16667,0,0,4.16667,1894.67,565.034)">
        <path d="M0,44.858L0,0C0,-9.071 -9.071,-9.071 -9.071,-9.071L-32.031,-9.071C-41.102,-9.071 -41.102,0 -41.102,0L-41.102,23.811C-41.102,32.882 -32.031,32.882 -32.031,32.882L-12.118,32.882L-12.118,38.165C-12.118,42.165 -16.118,42.165 -16.118,42.165L-41.953,42.165L-41.953,53.929L-9.071,53.929C0,53.929 0,44.858 0,44.858M-11.226,11.947C-11.226,17.098 -15.401,21.273 -20.551,21.273C-25.701,21.273 -29.876,17.098 -29.876,11.947C-29.876,6.797 -25.701,2.622 -20.551,2.622C-15.401,2.622 -11.226,6.797 -11.226,11.947" style="fill:#3A3A3A;fill-rule:nonzero;stroke:black;stroke-width:0.69px;"/>
    </g>
    <g transform="matrix(4.16667,0,0,4.16667,1686.21,630.564)">
        <path d="M0,-7.645L0,-15.728C0,-24.799 -9.071,-24.799 -9.071,-24.799L-34.866,-24.799L-34.866,17.154L-23.244,17.154L-23.244,-9.77C-22.581,-12.655 -20.095,-12.68 -20.095,-12.68L-15.055,-12.68C-11.055,-12.68 -11.764,-8.68 -11.764,-8.68L-11.764,-7.645L0,-7.645Z" style="fill:#3A3A3A;fill-rule:nonzero;stroke:black;stroke-width:0.69px;"/>
    </g>
    <g transform="matrix(4.16667,0,0,4.16667,1091.33,527.237)">
        <path d="M0,41.953L0,9.071C0,0 -9.071,0 -9.071,0L-15.591,0C-19.959,0 -22.212,2.105 -23.386,4.286L-23.386,0L-35.008,0L-35.008,41.953L-23.386,41.953L-23.386,16.118C-23.386,12.118 -19.386,12.118 -19.386,12.118L-15.764,12.118C-11.764,12.118 -11.764,16.118 -11.764,16.118L-11.764,41.953L0,41.953Z" style="fill:#3A3A3A;fill-rule:nonzero;stroke:black;stroke-width:0.69px;"/>
    </g>
    <g transform="matrix(4.16667,0,0,4.16667,1983.85,596.63)">
        <path d="M0,8.645L0,6.303L26.504,6.303L26.504,-7.583C26.504,-7.583 26.504,-16.654 17.433,-16.654L-2.409,-16.654C-2.409,-16.654 -11.48,-16.654 -11.48,-7.583L-11.48,16.228C-11.48,16.228 -11.48,25.299 -2.409,25.299L26.433,25.299L26.433,14.314L5.669,14.314C0,14.314 0,8.645 0,8.645M0.142,-1.589C0.142,-6.739 3.743,-10.914 8.185,-10.914C12.627,-10.914 16.228,-6.739 16.228,-1.589C16.228,-1.417 16.193,-1.257 16.185,-1.087C15.97,-1.102 15.772,-1.134 15.545,-1.134L0.181,-1.134C0.175,-1.288 0.142,-1.433 0.142,-1.589" style="fill:#3A3A3A;fill-rule:nonzero;stroke:black;stroke-width:0.69px;"/>
    </g>
    <g transform="matrix(4.16667,0,0,4.16667,2290.93,630.564)">
        <path d="M0,-7.645L0,-15.728C0,-24.799 -9.071,-24.799 -9.071,-24.799L-34.866,-24.799L-34.866,17.154L-23.244,17.154L-23.244,-9.77C-22.581,-12.655 -20.095,-12.68 -20.095,-12.68L-15.764,-12.68C-11.764,-12.68 -11.764,-8.68 -11.764,-8.68L-11.764,-7.645L0,-7.645Z" style="fill:#3A3A3A;fill-rule:nonzero;stroke:black;stroke-width:0.69px;"/>
    </g>
    <g transform="matrix(-4.16667,0,0,4.16667,1857.47,447.614)">
        <rect x="41.102" y="70.346" width="371.622" height="7.087" style="fill:#3A3A3A;stroke:black;stroke-width:0.69px;"/>
    </g>
    <g transform="matrix(-4.16667,0,0,4.16667,4271.64,447.614)">
        <rect x="473.385" y="70.346" width="86.457" height="7.087" style="fill:#3A3A3A;stroke:black;stroke-width:0.69px;"/>
    </g>
    <g transform="matrix(4.16667,0,0,4.16667,-33.476,55.489)">
        <path d="M54.425,86.929L41.669,86.929L41.669,154.96L54.425,154.96" style="fill:#3A3A3A;stroke:black;stroke-width:0.69px;"/>
    </g>
    <g transform="matrix(2.45191,0,0,4.16667,94.5908,285.802)">
        <path d="M40.119,99.685L74.685,99.685L74.685,86.929L39.768,86.998L39.416,31.769" style="fill:#3A3A3A;stroke:black;stroke-width:0.84px;"/>
    </g>
</svg>
