<?xml version="1.0" encoding="UTF-8" standalone="no"?>
<svg
   xmlns:dc="http://purl.org/dc/elements/1.1/"
   xmlns:cc="http://creativecommons.org/ns#"
   xmlns:rdf="http://www.w3.org/1999/02/22-rdf-syntax-ns#"
   xmlns:svg="http://www.w3.org/2000/svg"
   xmlns="http://www.w3.org/2000/svg"
   viewBox="0 0 534.26135 159.70267"
   height="159.70267"
   width="534.26135"
   xml:space="preserve"
   id="svg2"
   version="1.1"><metadata
     id="metadata8"><rdf:RDF><cc:Work
         rdf:about=""><dc:format>image/svg+xml</dc:format><dc:type
           rdf:resource="http://purl.org/dc/dcmitype/StillImage" /></cc:Work></rdf:RDF></metadata><defs
     id="defs6"><clipPath
       id="clipPath18"
       clipPathUnits="userSpaceOnUse"><path
         id="path16"
         d="M 0,119.777 H 400.696 V 0 H 0 Z" /></clipPath></defs><g
     transform="matrix(1.3333333,0,0,-1.3333333,0,159.70267)"
     id="g10"><g
       id="g12"><g
         clip-path="url(#clipPath18)"
         id="g14"><g
           transform="translate(141.7936,71.0451)"
           id="g20"><path
             id="path22"
             style="fill:#ffffff;fill-opacity:1;fill-rule:nonzero;stroke:none"
             d="M 0,0 H -17.683 C -29.479,0 -35.46,-3.431 -35.46,-10.197 v -13.987 c 0,-7.177 5.358,-10.816 15.928,-10.816 h 14.948 c 1.783,0 2.805,1.115 2.805,3.054 0,2.094 -1.022,3.296 -2.805,3.296 h -15.933 c -4.967,0 -7.485,1.503 -7.485,4.466 v 13.801 c 0,3.334 4.974,4.035 9.148,4.035 H 1.421 c 1.737,0 1.938,-0.792 1.938,-1.386 v -24.274 c 0,-2.103 1.431,-3.36 3.727,-3.36 2.332,0 3.727,1.224 3.727,3.36 V -8.657 C 10.813,-2.913 7.174,0 0,0" /></g><g
           transform="translate(179.3927,71.0451)"
           id="g24"><path
             id="path26"
             style="fill:#ffffff;fill-opacity:1;fill-rule:nonzero;stroke:none"
             d="m 0,0 h -6.591 c -8.322,0 -12.541,-2.852 -12.541,-8.473 v -23.535 c 0,-2.136 1.377,-3.36 3.825,-3.36 2.331,0 3.639,1.224 3.639,3.36 v 23.535 c 0,1.755 2.428,2.125 4.465,2.125 h 7.451 c 1.222,0 2.68,0.54 2.68,3.113 C 2.928,-1.208 1.833,0 0,0" /></g><g
           transform="translate(227.8102,67.9328)"
           id="g28"><path
             id="path30"
             style="fill:#ffffff;fill-opacity:1;fill-rule:nonzero;stroke:none"
             d="m 0,0 c 0,1.855 -1.541,3.483 -3.299,3.483 -0.622,0 -1.129,-0.114 -1.5,-0.338 l -23.53,-13.737 c -1.254,-0.726 -1.864,-1.836 -1.864,-3.395 0,-1.263 0.809,-2.648 1.864,-3.209 l 23.157,-14.596 0.044,-0.025 c 0.391,-0.195 0.876,-0.438 1.584,-0.438 1.889,0 3.483,1.734 3.483,3.79 0,0.947 -0.515,1.866 -1.351,2.397 L -21.133,-13.882 -1.548,-2.59 C -0.478,-1.933 0,-0.816 0,0" /></g><g
           transform="translate(255.5006,84.0998)"
           id="g32"><path
             id="path34"
             style="fill:#ffffff;fill-opacity:1;fill-rule:nonzero;stroke:none"
             d="m 0,0 c -2.364,0 -3.695,-1.237 -3.695,-3.483 v -41.58 c 0,-2.136 1.41,-3.359 3.818,-3.359 2.292,0 3.634,1.223 3.634,3.359 v 41.58 C 3.757,-1.204 2.439,0 0,0" /></g><g
           transform="translate(191.712,84.0998)"
           id="g36"><path
             id="path38"
             style="fill:#ffffff;fill-opacity:1;fill-rule:nonzero;stroke:none"
             d="m 0,0 c -2.365,0 -3.696,-1.237 -3.696,-3.483 v -41.58 c 0,-2.136 1.41,-3.359 3.819,-3.359 2.292,0 3.634,1.223 3.634,3.359 v 41.58 C 3.757,-1.204 2.439,0 0,0" /></g><g
           transform="translate(82.3492,71.0451)"
           id="g40"><path
             id="path42"
             style="fill:#ffffff;fill-opacity:1;fill-rule:nonzero;stroke:none"
             d="M 0,0 H -29.695 C -40.96,0 -46.672,-3.845 -46.672,-11.43 v -20.578 c 0,-2.103 1.395,-3.36 3.729,-3.36 2.371,0 3.728,1.224 3.728,3.36 v 21.379 c 0,2.88 3.115,4.281 9.52,4.281 H 0 c 6.153,0 9.271,-1.379 9.271,-4.097 v -21.563 c 0,-2.136 1.314,-3.36 3.606,-3.36 2.448,0 3.852,1.224 3.852,3.36 V -11.43 C 16.729,-3.845 11.101,0 0,0" /></g><g
           transform="translate(67.4069,60.8942)"
           id="g44"><path
             id="path46"
             style="fill:#ffffff;fill-opacity:1;fill-rule:nonzero;stroke:none"
             d="m 0,0 c -2.364,0 -3.695,-1.237 -3.695,-3.483 v -18.374 c 0,-2.136 1.41,-3.36 3.818,-3.36 2.292,0 3.634,1.224 3.634,3.36 V -3.483 C 3.757,-1.204 2.439,0 0,0" /></g><g
           transform="translate(363.5787,41.8425)"
           id="g48"><path
             id="path50"
             style="fill:#ffffff;fill-opacity:1;fill-rule:nonzero;stroke:none"
             d="m 0,0 -37.338,28.711 c -0.849,0.568 -1.531,0.801 -2.35,0.801 -1.952,0 -3.728,-1.72 -3.728,-3.606 0,-0.882 0.526,-1.797 1.538,-2.663 L -26.352,11.612 -41.869,-0.013 c -0.803,-0.643 -1.176,-1.373 -1.176,-2.301 0,-1.86 1.349,-3.851 3.357,-3.851 0.792,0 1.405,0.313 1.973,0.669 L -20.956,7.225 -4.021,-5.489 c 0.467,-0.334 1.031,-0.676 1.671,-0.676 2.021,0 3.79,1.713 3.79,3.667 C 1.44,-1.504 0.923,-0.614 0,0" /></g><g
           transform="translate(352.8307,58.0392)"
           id="g52"><path
             id="path54"
             style="fill:#ffffff;fill-opacity:1;fill-rule:nonzero;stroke:none"
             d="m 0,0 c 0.812,0 1.713,0.303 2.709,0.915 l 7.977,6.049 c 1.161,0.781 1.687,2.066 1.687,2.93 0,1.79 -1.806,3.42 -3.79,3.42 -0.827,0 -1.58,-0.237 -2.179,-0.687 L -2.121,6.03 C -3.248,5.167 -3.729,4.387 -3.729,3.422 -3.729,1.502 -2.091,0 0,0" /></g><g
           transform="translate(239.2096,84.0812)"
           id="g56"><path
             id="path58"
             style="fill:#ffffff;fill-opacity:1;fill-rule:nonzero;stroke:none"
             d="m 0,0 c -2.954,0 -4.452,-1.206 -4.452,-3.588 0,-2.424 1.539,-3.652 4.575,-3.652 3.731,0 4.514,1.985 4.514,3.652 C 4.637,-1.206 3.077,0 0,0" /></g><g
           transform="translate(239.2711,71.3542)"
           id="g60"><path
             id="path62"
             style="fill:#ffffff;fill-opacity:1;fill-rule:nonzero;stroke:none"
             d="m 0,0 c -2.364,0 -3.695,-1.237 -3.695,-3.483 v -28.834 c 0,-2.136 1.41,-3.36 3.818,-3.36 2.292,0 3.634,1.224 3.634,3.36 V -3.483 C 3.757,-1.204 2.438,0 0,0" /></g><g
           transform="translate(310.0553,71.3542)"
           id="g64"><path
             id="path66"
             style="fill:#ffffff;fill-opacity:1;fill-rule:nonzero;stroke:none"
             d="m 0,0 c -2.364,0 -3.696,-1.237 -3.696,-3.483 v -22.919 c 0,-1.626 -2.525,-2.556 -6.929,-2.556 h -17.57 c -4.405,0 -6.929,0.93 -6.929,2.556 v 22.919 c 0,2.246 -1.331,3.483 -3.695,3.483 -2.44,0 -3.757,-1.204 -3.757,-3.483 V -26.28 c 0,-5.99 5.172,-9.028 15.373,-9.028 h 15.587 c 10.201,0 15.373,3.038 15.373,9.028 V -3.483 C 3.757,-1.204 2.438,0 0,0" /></g></g></g></g></svg>