<?xml version="1.0" encoding="utf-8"?>
<!-- Generator: Adobe Illustrator 19.2.1, SVG Export Plug-In . SVG Version: 6.00 Build 0)  -->
<svg version="1.1" id="layer" xmlns="http://www.w3.org/2000/svg" xmlns:xlink="http://www.w3.org/1999/xlink" x="0px" y="0px"
	 viewBox="0 0 652 652" style="enable-background:new 0 0 652 652; fill: #3A3A3A;" xml:space="preserve">
<g>
	<path d="M108,351.3c0,14.5-8.1,20.9-23.4,20.9H22.7l3.8-13.9h57.6c5,0,7.7-1.4,7.7-7v-1.6c0-5.6-2.6-7-7.7-7H44.9
		c-15.3,0-23.4-6.4-23.4-20.9v-0.6c0-14.5,8.1-20.9,23.4-20.9h59.9l-3.8,13.9H45.3c-5,0-7.7,1.4-7.7,7v0.6c0,5.6,2.6,7,7.7,7h39.3
		c15.3,0,23.4,6.4,23.4,20.9V351.3L108,351.3z"/>
	<path d="M204.1,372.3h-56.2c-15.9,0-24.7-7-24.7-22.2v-27.7c0-15.1,8.8-22.2,24.7-22.2h55.8l-3.8,13.9h-51.5
		c-5.2,0-8.9,2.3-8.9,8.3v27.7c0,5.9,3.8,8.3,8.9,8.3h51.9L204.1,372.3L204.1,372.3z"/>
	<polygon points="289.4,341.8 234.7,341.8 234.7,372.3 218.5,372.3 218.5,300.3 234.7,300.3 234.7,328.1 289.4,328.1 289.4,300.3 
		305.6,300.3 305.6,372.3 289.4,372.3 	"/>
	<path d="M513.6,372.3h-56.2c-15.9,0-24.7-7-24.7-22.2v-27.7c0-15.1,8.8-22.2,24.7-22.2h55.8l-3.8,13.9h-51.5
		c-5.2,0-8.9,2.3-8.9,8.3v27.7c0,5.9,3.8,8.3,8.9,8.3h51.9L513.6,372.3L513.6,372.3z"/>
	<path d="M324.5,350.1v-49.9h16.2v49.9c0,5.9,3.8,8.3,8.9,8.3h40.7c5.2,0,8.9-2.3,8.9-8.3v-49.9h16.2v49.9
		c0,15.1-8.8,22.2-24.7,22.2h-41.6C333.3,372.3,324.5,365.3,324.5,350.1L324.5,350.1z"/>
	<path d="M605.3,350.1v-27.7c0-5.9-3.8-8.3-8.9-8.3H550c-5.2,0-8.9,2.3-8.9,8.3v27.7c0,5.9,3.8,8.3,8.9,8.3h46.4
		C601.5,358.4,605.3,356,605.3,350.1L605.3,350.1z M596.8,372.3h-47.2c-15.9,0-24.7-7-24.7-22.2v-27.7c0-15.1,8.8-22.2,24.7-22.2
		h47.2c15.9,0,24.7,7,24.7,22.2v27.7C621.5,365.3,612.7,372.3,596.8,372.3L596.8,372.3z"/>
	<polygon points="357.8,270.1 382.2,270.1 377,289.9 362.9,289.9 	"/>
	<polygon points="391.1,270.1 411.8,270.1 399.3,289.9 384.6,289.9 	"/>
	<polygon points="328.1,270.1 348.9,270.1 355.4,289.9 340.7,289.9 	"/>
</g>
</svg>
