<?xml version="1.0" encoding="UTF-8" standalone="no"?><!DOCTYPE svg PUBLIC "-//W3C//DTD SVG 1.1//EN" "http://www.w3.org/Graphics/SVG/1.1/DTD/svg11.dtd"><svg width="100%" height="100%" viewBox="0 0 1644 1239" version="1.1" xmlns="http://www.w3.org/2000/svg" xmlns:xlink="http://www.w3.org/1999/xlink" xml:space="preserve" xmlns:serif="http://www.serif.com/" style="fill-rule:evenodd;clip-rule:evenodd;stroke-linecap:round;stroke-linejoin:round;stroke-miterlimit:10;"><path d="M1303.44,968.375l-0,6.2l-15.945,0l-0,-6.2l15.945,-0Z" style="fill:#808080;"/><path d="M1287.49,974.575l4.833,0m5.906,0l5.206,0m-15.945,0l-0,-0.81m-0,-5.39l4.833,-0m5.906,-0l5.206,-0m-0,6.2l-0,-0.81m-15.945,0.81l15.945,0l-0,-6.2l-15.945,-0l-0,6.2" style="fill:none;fill-rule:nonzero;stroke:#000;stroke-width:0.94px;"/><path d="M1287.49,990.815l-0,-16.24l7.972,0l0,16.24l-7.972,0Z" style="fill:#808080;"/><path d="M1295.47,990.815l0,-16.24l-7.972,0l-0,16.24l7.972,0m0,-16.24l0,16.24l-7.972,0l-0,-16.24l7.972,0m0,16.24l0,0" style="fill:none;fill-rule:nonzero;stroke:#000;stroke-width:0.94px;"/><path d="M1319.52,967.279l0.283,6.194l-15.929,0.728l-0.283,-6.194l15.929,-0.728Z" style="fill:#808080;"/><path d="M1314.89,973.698l4.914,-0.225m-5.197,-5.969l4.914,-0.225m-15.645,6.922l15.928,-0.728l-0.283,-6.194l-15.929,0.728l0.284,6.194" style="fill:none;fill-rule:nonzero;stroke:#000;stroke-width:0.94px;"/><path d="M1304.61,990.424l-0.741,-16.223l7.964,-0.364l0.741,16.223l-7.964,0.364Z" style="fill:#808080;"/><path d="M1312.58,990.06l-0.741,-16.223l-7.964,0.364l0.741,16.223l7.964,-0.364m-0.741,-16.223l0.741,16.223l-7.964,0.364l-0.741,-16.223l7.964,-0.364m0.741,16.223l-0,0" style="fill:none;fill-rule:nonzero;stroke:#000;stroke-width:0.94px;"/><path d="M1335.53,965.451l0.565,6.174l-15.878,1.455l-0.566,-6.175l15.879,-1.454Z" style="fill:#808080;"/><path d="M1320.22,973.08l15.878,-1.455m-16.444,-4.72l0.06,0.657m-0.06,-0.657l15.879,-1.454m-0,-0l0.06,0.656m-15.373,6.973l15.878,-1.455l-0.565,-6.174l-15.879,1.454l0.566,6.175" style="fill:none;fill-rule:nonzero;stroke:#000;stroke-width:0.94px;"/><path d="M1321.7,989.252l-1.481,-16.172l7.939,-0.727l1.482,16.172l-7.94,0.727Z" style="fill:#808080;"/><path d="M1329.64,988.525l-1.482,-16.172l-7.939,0.727l1.481,16.172l7.94,-0.727m-1.482,-16.172l1.482,16.172l-7.94,0.727l-1.481,-16.172l7.939,-0.727m1.482,16.172l-0,0" style="fill:none;fill-rule:nonzero;stroke:#000;stroke-width:0.94px;"/><path d="M1351.44,962.892l0.848,6.144l-15.796,2.178l-0.847,-6.143l15.795,-2.179Z" style="fill:#808080;"/><path d="M1343.53,970.244l5.85,-0.807m-13.315,-1.348l0.431,3.124m6.187,-7.112l5.85,-0.807m3.328,2.617l0.431,3.125m-15.796,2.177l15.796,-2.177l-0.847,-6.143l-15.796,2.178l0.847,6.142" style="fill:none;fill-rule:nonzero;stroke:#000;stroke-width:0.94px;"/><path d="M1338.71,987.301l-2.218,-16.088l7.898,-1.089l2.218,16.088l-7.898,1.089Z" style="fill:#808080;"/><path d="M1346.61,986.212l-2.218,-16.087l-7.898,1.088l2.218,16.088l7.898,-1.089m-2.218,-16.087l2.218,16.087l-7.898,1.089l-2.218,-16.088l7.898,-1.088m2.218,16.087l-0,0" style="fill:none;fill-rule:nonzero;stroke:#000;stroke-width:0.94px;"/><path d="M1367.22,959.611l1.127,6.098l-15.68,2.897l-1.126,-6.098l15.679,-2.897Z" style="fill:#808080;"/><path d="M1355.79,968.028l5.807,-1.073m-6.933,-5.024l5.807,-1.073m-7.808,7.748l15.68,-2.897l-1.127,-6.097l-15.679,2.896l1.126,6.098" style="fill:none;fill-rule:nonzero;stroke:#000;stroke-width:0.94px;"/><path d="M1355.62,984.576l-2.95,-15.97l7.84,-1.449l2.95,15.971l-7.84,1.448Z" style="fill:#808080;"/><path d="M1363.46,983.128l-2.95,-15.971l-7.84,1.449l2.95,15.97l7.84,-1.448m-2.95,-15.971l2.95,15.971l-7.84,1.448l-2.95,-15.97l7.84,-1.449m2.95,15.971l0,-0" style="fill:none;fill-rule:nonzero;stroke:#000;stroke-width:0.94px;"/><path d="M1382.83,955.614l1.403,6.039l-15.531,3.609l-1.403,-6.039l15.531,-3.609Z" style="fill:#808080;"/><path d="M1368.7,965.263l15.1,-3.51m-16.503,-2.53l15.1,-3.51m-13.697,9.55l15.531,-3.61l-1.403,-6.04l-15.531,3.61l1.403,6.04" style="fill:none;fill-rule:nonzero;stroke:#000;stroke-width:0.94px;"/><path d="M1372.38,981.081l-3.676,-15.818l7.766,-1.805l3.676,15.818l-7.766,1.805Z" style="fill:#808080;"/><path d="M1380.15,979.276l-3.676,-15.818l-7.766,1.805l3.676,15.818l7.766,-1.805m-3.676,-15.818l3.676,15.818l-7.766,1.805l-3.676,-15.818l7.766,-1.805m3.676,15.818l-0,0" style="fill:none;fill-rule:nonzero;stroke:#000;stroke-width:0.94px;"/><path d="M1398.25,950.907l1.678,5.969l-15.35,4.315l-1.678,-5.97l15.35,-4.314Z" style="fill:#808080;"/><path d="M1384.57,961.191l11.762,-3.306m-12.253,1.559l0.491,1.747m-1.678,-5.97l11.762,-3.306m4.775,3.215l0.491,1.746m-15.35,4.315l15.35,-4.315l-1.678,-5.969l-15.35,4.314l1.678,5.97" style="fill:none;fill-rule:nonzero;stroke:#000;stroke-width:0.94px;"/><path d="M1388.97,976.825l-4.395,-15.634l7.675,-2.158l4.395,15.635l-7.675,2.157Z" style="fill:#808080;"/><path d="M1396.64,974.668l-4.395,-15.635l-7.675,2.158l4.395,15.634l7.675,-2.157m-4.395,-15.635l4.395,15.635l-7.675,2.157l-4.395,-15.634l7.675,-2.158m4.395,15.635l-0,-0" style="fill:none;fill-rule:nonzero;stroke:#000;stroke-width:0.94px;"/><path d="M1413.43,945.501l1.948,5.886l-15.136,5.012l-1.949,-5.887l15.137,-5.011Z" style="fill:#808080;"/><path d="M1400.24,956.398l14.539,-4.812m-16.487,-1.074l1.334,4.029m-1.334,-4.029l14.539,-4.813m0.598,-0.198l1.333,4.029m-14.522,6.868l15.137,-5.011l-1.948,-5.886l-15.137,5.011l1.948,5.886" style="fill:none;fill-rule:nonzero;stroke:#000;stroke-width:0.94px;"/><path d="M1405.34,971.816l-5.104,-15.418l7.569,-2.505l5.104,15.417l-7.569,2.506Z" style="fill:#808080;"/><path d="M1412.91,969.31l-5.104,-15.417l-7.569,2.505l5.104,15.418l7.569,-2.506m-5.104,-15.417l5.104,15.417l-7.569,2.506l-5.104,-15.418l7.569,-2.505m5.104,15.417l-0,0" style="fill:none;fill-rule:nonzero;stroke:#000;stroke-width:0.94px;"/><path d="M1428.35,939.408l2.215,5.791l-14.892,5.697l-2.216,-5.791l14.893,-5.697Z" style="fill:#808080;"/><path d="M1418.47,949.826l5.516,-2.11m-9.975,-1.166l1.663,4.346m0.581,-6.861l5.516,-2.11m7.133,-1.072l1.662,4.346m-14.892,5.697l14.892,-5.697l-2.215,-5.791l-14.893,5.697l2.216,5.791" style="fill:none;fill-rule:nonzero;stroke:#000;stroke-width:0.94px;"/><path d="M1421.47,966.064l-5.802,-15.168l7.446,-2.848l5.802,15.168l-7.446,2.848Z" style="fill:#808080;"/><path d="M1428.92,963.216l-5.802,-15.168l-7.446,2.848l5.802,15.168l7.446,-2.848m-5.802,-15.168l5.802,15.168l-7.446,2.848l-5.802,-15.168l7.446,-2.848m5.802,15.168l0,0" style="fill:none;fill-rule:nonzero;stroke:#000;stroke-width:0.94px;"/><path d="M1442.98,932.64l2.477,5.684l-14.616,6.371l-2.478,-5.684l14.617,-6.371Z" style="fill:#808080;"/><path d="M1437.53,941.779l5.414,-2.359m-7.891,-3.325l5.413,-2.359m-9.625,10.959l14.616,-6.371l-2.477,-5.684l-14.617,6.371l2.478,5.684" style="fill:none;fill-rule:nonzero;stroke:#000;stroke-width:0.94px;"/><path d="M1437.32,959.583l-6.488,-14.888l7.308,-3.185l6.489,14.887l-7.309,3.186Z" style="fill:#808080;"/><path d="M1444.63,956.397l-6.489,-14.887l-7.308,3.185l6.488,14.887l7.309,-3.185m-6.489,-14.887l6.489,14.887l-7.309,3.185l-6.488,-14.887l7.308,-3.185m6.489,14.887l-0,0" style="fill:none;fill-rule:nonzero;stroke:#000;stroke-width:0.94px;"/><path d="M1457.28,925.212l2.734,5.565l-14.311,7.031l-2.734,-5.565l14.311,-7.031Z" style="fill:#808080;"/><path d="M1445.7,937.808l14.31,-7.031m-17.045,1.466l2.735,5.565m-2.735,-5.565l14.311,-7.032m0,0l2.734,5.566m-14.31,7.031l14.31,-7.031l-2.734,-5.566l-14.311,7.032l2.735,5.565" style="fill:none;fill-rule:nonzero;stroke:#000;stroke-width:0.94px;"/><path d="M1452.86,952.384l-7.161,-14.576l7.155,-3.516l7.162,14.576l-7.156,3.516Z" style="fill:#808080;"/><path d="M1460.02,948.868l-7.162,-14.576l-7.155,3.516l7.161,14.576l7.156,-3.516m-7.162,-14.576l7.162,14.576l-7.156,3.516l-7.161,-14.576l7.155,-3.516m7.162,14.576l-0,0" style="fill:none;fill-rule:nonzero;stroke:#000;stroke-width:0.94px;"/><path d="M1471.23,917.138l2.985,5.434l-13.974,7.678l-2.986,-5.435l13.975,-7.677Z" style="fill:#808080;"/><path d="M1460.24,930.25l1.816,-0.998m10.352,-5.687l1.806,-0.993m-16.96,2.243l2.897,5.273m-2.897,-5.273l1.816,-0.998m10.352,-5.687l1.807,-0.992m-0,-0l2.897,5.273m-13.886,7.839l13.974,-7.678l-2.985,-5.434l-13.975,7.677l2.986,5.435" style="fill:none;fill-rule:nonzero;stroke:#000;stroke-width:0.94px;"/><path d="M1468.06,944.483l-7.819,-14.233l6.987,-3.839l7.82,14.234l-6.988,3.838Z" style="fill:#808080;"/><path d="M1475.04,940.645l-7.82,-14.234l-6.987,3.839l7.819,14.233l6.988,-3.838m-7.82,-14.234l7.82,14.234l-6.988,3.838l-7.819,-14.233l6.987,-3.839m7.82,14.234l-0,-0" style="fill:none;fill-rule:nonzero;stroke:#000;stroke-width:0.94px;"/><path d="M1484.79,908.435l3.231,5.293l-13.609,8.308l-3.231,-5.293l13.609,-8.308Z" style="fill:#808080;"/><path d="M1478.2,919.724l5.041,-3.077m-10.343,2.905l1.516,2.483m0.556,-7.604l5.04,-3.076m6.497,-0.11l1.516,2.483m-13.609,8.307l13.609,-8.307l-3.23,-5.292l-13.61,8.307l3.231,5.292" style="fill:none;fill-rule:nonzero;stroke:#000;stroke-width:0.94px;"/><path d="M1482.87,935.897l-8.461,-13.862l6.805,-4.153l8.461,13.862l-6.805,4.153Z" style="fill:#808080;"/><path d="M1489.68,931.744l-8.461,-13.862l-6.805,4.153l8.461,13.862l6.805,-4.153m-8.461,-13.862l8.461,13.862l-6.805,4.153l-8.461,-13.862l6.805,-4.153m8.461,13.862l-0,-0" style="fill:none;fill-rule:nonzero;stroke:#000;stroke-width:0.94px;"/><path d="M1497.94,899.123l3.469,5.14l-13.216,8.92l-3.469,-5.14l13.216,-8.92Z" style="fill:#808080;"/><path d="M1489.6,912.233l4.895,-3.303m4.895,-3.304l2.019,-1.363m-16.591,3.92l3.304,4.895m-1.991,-5.984l4.895,-3.304m4.894,-3.304l2.02,-1.363m0.094,0.14l3.304,4.895m-13.145,9.025l13.216,-8.92l-3.469,-5.14l-13.216,8.92l3.469,5.14" style="fill:none;fill-rule:nonzero;stroke:#000;stroke-width:0.94px;"/><path d="M1497.28,926.644l-9.085,-13.461l6.608,-4.46l9.085,13.461l-6.608,4.46Z" style="fill:#808080;"/><path d="M1503.89,922.184l-9.085,-13.461l-6.608,4.46l9.085,13.461l6.608,-4.46m-9.085,-13.461l9.085,13.461l-6.608,4.46l-9.085,-13.461l6.608,-4.46m9.085,13.461l0,-0" style="fill:none;fill-rule:nonzero;stroke:#000;stroke-width:0.94px;"/><path d="M1510.66,889.22l3.7,4.976l-12.796,9.514l-3.7,-4.976l12.796,-9.514Z" style="fill:#808080;"/><path d="M1506.11,900.325l4.739,-3.523m-11.206,4.333l1.915,2.575m0.852,-8.36l4.739,-3.524m5.29,-0.205l1.915,2.575m-12.796,9.514l12.796,-9.514l-3.7,-4.976l-12.796,9.514l3.7,4.976" style="fill:none;fill-rule:nonzero;stroke:#000;stroke-width:0.94px;"/><path d="M1511.25,916.742l-9.691,-13.032l6.398,-4.757l9.69,13.032l-6.397,4.757Z" style="fill:#808080;"/><path d="M1517.65,911.985l-9.69,-13.032l-6.398,4.757l9.691,13.032l6.397,-4.757m-9.69,-13.032l9.69,13.032l-6.397,4.757l-9.691,-13.032l6.398,-4.757m9.69,13.032l0,0" style="fill:none;fill-rule:nonzero;stroke:#000;stroke-width:0.94px;"/><path d="M1522.91,878.746l3.923,4.802l-12.347,10.089l-3.924,-4.802l12.348,-10.089Z" style="fill:#808080;"/><path d="M1514.48,893.637l3.517,-2.873m-7.44,-1.929l3.923,4.802m-3.923,-4.802l3.517,-2.873m8.831,-7.215l3.923,4.801m-12.348,10.089l12.348,-10.089l-3.923,-4.801l-12.348,10.088l3.923,4.802" style="fill:none;fill-rule:nonzero;stroke:#000;stroke-width:0.94px;"/><path d="M1524.76,906.213l-10.276,-12.576l6.174,-5.044l10.275,12.576l-6.173,5.044Z" style="fill:#808080;"/><path d="M1530.93,901.169l-10.275,-12.576l-6.174,5.044l10.276,12.576l6.173,-5.044m-10.275,-12.576l10.275,12.576l-6.173,5.044l-10.276,-12.576l6.174,-5.044m10.275,12.576l0.001,0" style="fill:none;fill-rule:nonzero;stroke:#000;stroke-width:0.94px;"/><path d="M1534.66,867.725l4.138,4.618l-11.874,10.642l-4.138,-4.618l11.874,-10.642Z" style="fill:#808080;"/><path d="M1526.93,882.984l11.874,-10.641m-16.012,6.024l11.874,-10.642m-7.736,15.259l11.874,-10.641l-4.138,-4.618l-11.874,10.642l4.138,4.617" style="fill:none;fill-rule:nonzero;stroke:#000;stroke-width:0.94px;"/><path d="M1537.77,895.079l-10.839,-12.095l5.937,-5.32l10.839,12.094l-5.937,5.321Z" style="fill:#808080;"/><path d="M1543.7,889.758l-10.839,-12.094l-5.937,5.32l10.839,12.094l5.937,-5.32m-10.839,-12.094l10.839,12.094l-5.937,5.32l-10.839,-12.094l5.937,-5.32m10.839,12.094l0,-0" style="fill:none;fill-rule:nonzero;stroke:#000;stroke-width:0.94px;"/><path d="M1545.91,856.179l4.345,4.423l-11.377,11.172l-4.344,-4.423l11.376,-11.172Z" style="fill:#808080;"/><path d="M1538.88,871.775l0.288,-0.283m8.427,-8.276l2.661,-2.614m-15.721,6.749l2.985,3.039m-2.985,-3.039l0.288,-0.283m8.427,-8.276l2.661,-2.614m-0,0l2.985,3.039m-10.016,12.558l11.376,-11.173l-4.345,-4.424l-11.376,11.173l4.345,4.424" style="fill:none;fill-rule:nonzero;stroke:#000;stroke-width:0.94px;"/><path d="M1550.26,883.362l-11.379,-11.587l5.688,-5.586l11.379,11.586l-5.688,5.587Z" style="fill:#808080;"/><path d="M1555.94,877.775l-11.379,-11.586l-5.688,5.586l11.379,11.587l5.688,-5.587m-11.379,-11.586l11.379,11.586l-5.688,5.587l-11.379,-11.587l5.688,-5.586m11.379,11.586l0,0" style="fill:none;fill-rule:nonzero;stroke:#000;stroke-width:0.94px;"/><path d="M1556.61,844.13l4.542,4.221l-10.854,11.68l-4.542,-4.22l10.854,-11.681Z" style="fill:#808080;"/><path d="M1550.3,860.032l2.19,-2.357m4.02,-4.326l4.02,-4.326m-14.772,6.788l4.174,3.878m-4.174,-3.878l2.19,-2.357m4.019,-4.326l4.02,-4.326m0.625,-0.672l4.174,3.879m-10.486,12.023l10.854,-11.681l-4.542,-4.221l-10.854,11.681l4.542,4.221" style="fill:none;fill-rule:nonzero;stroke:#000;stroke-width:0.94px;"/><path d="M1562.2,871.087l-11.897,-11.055l5.427,-5.841l11.897,11.055l-5.427,5.841Z" style="fill:#808080;"/><path d="M1567.62,865.246l-11.897,-11.055l-5.427,5.841l11.897,11.055l5.427,-5.841m-11.897,-11.055l11.897,11.055l-5.427,5.841l-11.897,-11.055l5.427,-5.841m11.897,11.055l-0,0" style="fill:none;fill-rule:nonzero;stroke:#000;stroke-width:0.94px;"/><path d="M1573.56,858.279l-12.389,-10.5l5.155,-6.082l12.389,10.5l-5.155,6.082Z" style="fill:#808080;"/><path d="M1578.72,852.197l-12.389,-10.5l-5.155,6.082l12.389,10.5l5.155,-6.082m-12.389,-10.5l12.389,10.5l-5.155,6.082l-12.389,-10.5l5.155,-6.082m12.389,10.5l-0,0" style="fill:none;fill-rule:nonzero;stroke:#000;stroke-width:0.94px;"/><path d="M1561.55,837.745l4.73,4.01l-5.105,6.024l-4.731,-4.009l5.106,-6.025Z" style="fill:#808080;"/><path d="M1561.17,847.779l5.106,-6.024m-9.836,2.015l5.106,-6.025m-0.376,10.034l5.106,-6.024l-4.73,-4.01l-5.106,6.025l4.73,4.009" style="fill:none;fill-rule:nonzero;stroke:#000;stroke-width:0.94px;"/><path d="M1563.92,839.745c123.673,-152.666 100.169,-376.683 -52.497,-500.356m0,0c-63.349,-51.318 -142.402,-79.321 -223.929,-79.321" style="fill:none;fill-rule:nonzero;stroke:#000;stroke-width:0.94px;"/><path d="M1378.98,930.835c105.358,-30.598 188.445,-111.841 221.4,-216.487" style="fill:none;fill-rule:nonzero;stroke:#000;stroke-width:0.94px;"/><path d="M1378.98,930.835l22.685,-6.588m-22.685,6.588l15.117,-15.706l6.061,20.87l-21.178,-5.164m221.4,-216.487l-7.096,22.531m7.096,-22.531l-16.041,14.761l20.729,6.528l-4.688,-21.289m-930.013,-207.873l-0,-177.077" style="fill:none;fill-rule:nonzero;stroke:#000;stroke-width:0.94px;"/><path d="M670.368,506.475c-60.387,-0 -109.341,48.953 -109.341,109.34" style="fill:none;fill-rule:nonzero;stroke:#000;stroke-width:0.94px;"/><path d="M926.811,990.815l-0,-17.716l-13.288,-0l0,-5.906l22.146,0l-0,23.622l-8.858,0m-234.298,-17.716l-13.287,-0l0,17.716l-8.858,0l-0,-23.622l22.145,0l0,5.906m221.01,-0l-221.01,-0l0,-5.906l221.01,0l0,5.906m-234.297,23.622l0,241.679" style="fill:none;fill-rule:nonzero;stroke:#000;stroke-width:0.94px;"/><path d="M926.811,990.815c-0,136.738 -110.848,247.585 -247.585,247.585" style="fill:none;fill-rule:nonzero;stroke:#000;stroke-width:0.94px;"/><path d="M926.811,990.815l-0,5.906l-247.585,-0l0,-23.622l247.585,-0l-0,17.716m-28.052,-17.716l-8.858,-0l0,-20.669l8.858,-0l0,20.669m2.953,26.575l-14.763,-0l-0,-2.953l14.763,-0l0,2.953m-4.429,-0l-5.905,-0l-0,8.858l-28.052,-0l0,5.906l33.957,-0l0,-14.764" style="fill:none;fill-rule:nonzero;stroke:#000;stroke-width:0.94px;"/><path d="M1275.68,329.398l20.669,0l-0,572.835l-20.669,-0l-0,-572.835" style="fill:none;fill-rule:nonzero;stroke:#00f;stroke-width:0.94px;"/><path d="M1275.68,329.398l-0,22.146l-23.622,-0l-0,-22.146l23.622,0m-0,550.689l-0,22.146l-23.622,-0l-0,-22.146l23.622,-0m-0,-528.543l-0,528.543l-23.622,-0l-0,-528.543l23.622,-0m-11.811,-0l-0,528.543m-593.504,-373.612l389.764,-0m-389.764,396.151l-0,-396.151m96.79,-111.441l-0.825,0.445l-0.824,0.405l-0.825,0.324l-0.825,0.201l-1.932,-0.103l-1.94,-0.72l-1.95,-1.065l-1.966,-1.138l-5.524,-2.322l-5.618,-1.323l-5.668,-0.854l-5.67,-0.914l-4.29,-0.977l-4.289,-1.052l-4.314,-0.864l-4.361,-0.41l-2.125,0.045l-2.116,0.249l-2.08,0.493l-2.017,0.772l-1.503,0.819l-1.376,1.009l-1.172,1.195l-0.896,1.378l-0.427,1.056l-0.28,1.117l-0.156,1.154l-0.053,1.166l0.352,3.678l0.993,3.558l1.442,3.448l1.702,3.344l1.211,2.197l1.26,2.144l1.331,2.082" style="fill:none;fill-rule:nonzero;stroke:#000;stroke-width:0.94px;"/><path d="M710.427,415.571l1.421,2.013l3.801,4.531l4.205,4.223l4.395,4.065l4.365,4.052l3.489,3.462l3.365,3.576l3.289,3.707l3.26,3.857l1.167,1.439l1.085,1.478l0.922,1.532l0.674,1.603l0.461,2.636l-0.04,2.775l-0.251,2.843l-0.17,2.84l0.11,2.576l0.321,2.539l0.426,2.526l0.425,2.537l0.275,2.006l0.22,2.012l0.179,2l0.147,1.971l0.107,1.681l0.069,1.69l0.004,1.744l-0.084,1.841l-0.066,0.945l-0.005,0.919l0.145,0.836l0.384,0.693l0.214,0.207l0.246,0.186l0.269,0.174l0.279,0.166l0.337,-0.405l0.319,-0.412l0.28,-0.425l0.222,-0.447l0.209,-0.767l0.06,-0.817l-0.038,-0.846l-0.087,-0.854l-0.156,-1.478l-0.117,-1.448l-0.044,-1.429l0.065,-1.419l0.151,-1.164" style="fill:none;fill-rule:nonzero;stroke:#000;stroke-width:0.94px;"/><path d="M750.731,483.541l0.222,-1.164l0.27,-1.164l0.295,-1.163l0.616,1.422l0.6,1.428l0.569,1.439l0.52,1.455l0.424,1.36l0.362,1.38l0.29,1.4l0.211,1.42l0.148,1.554l0.147,1.55l0.248,1.521l0.451,1.462l0.219,0.476l0.268,0.452l0.332,0.412l0.409,0.357l0.405,0.243l0.437,0.167l0.441,0.065l0.413,-0.065l0.241,-0.119l0.222,-0.167l0.21,-0.2l0.205,-0.216l0.391,-0.03l0.399,-0.023l0.413,-0.012l0.434,0.006l0.426,0.02l0.417,0.003l0.376,-0.053l0.302,-0.145l0.202,-0.262l0.12,-0.354l0.061,-0.413l0.026,-0.435l-0.006,-1.466l-0.099,-1.352l-0.133,-1.289l-0.113,-1.277l-0.053,-1.737l0.021,-1.785l0.038,-1.809l-0.006,-1.81l-0.077,-1.58l-0.136,-1.568l-0.176,-1.559" style="fill:none;fill-rule:nonzero;stroke:#000;stroke-width:0.94px;"/><path d="M762.733,479.916l-0.195,-1.555m-2.632,20.485l-0.043,-1.883l-0.044,-1.885l-0.044,-1.888l-0.045,-1.894l-0.05,-1.76l-0.095,-1.755l-0.183,-1.739l-0.315,-1.711l-0.287,-1.082l-0.342,-1.071l-0.378,-1.062l-0.397,-1.058m5.51,12.568l0.571,-0.051l0.552,-0.082l0.517,-0.144l0.463,-0.236l0.349,-0.296l0.298,-0.368l0.253,-0.415l0.212,-0.442l0.524,-1.969l0.057,-2.025l-0.19,-2.062l-0.216,-2.08l-0.082,-1.773l-0.063,-1.754l-0.166,-1.717l-0.391,-1.662l-0.272,-0.721l-0.307,-0.713l-0.311,-0.713l-0.279,-0.721l-0.43,-1.716l-0.174,-1.776l-0.004,-1.814l0.081,-1.834m2.036,11.36l0.471,-0.264l0.448,-0.276l0.4,-0.3l0.33,-0.336l0.451,-1.039l0.038,-1.255l-0.192,-1.381l-0.239,-1.418l-0.178,-2.112l-0.04,-2.001l-0.092,-1.905l-0.333,-1.824l-0.547,-1.427" style="fill:none;fill-rule:nonzero;stroke:#000;stroke-width:0.94px;"/><path d="M766.738,461.364l-0.75,-1.395l-0.877,-1.374l-0.926,-1.365l-2.905,-4.496l-2.722,-4.487l-2.676,-4.447l-2.768,-4.378l-2.616,-3.813l-2.73,-3.766l-2.776,-3.753l-2.756,-3.769l-2.432,-3.447l-2.377,-3.478l-2.342,-3.497l-2.324,-3.508l4.257,2.221l4.276,2.159l4.315,2.032l4.372,1.845l4.599,1.668l4.679,1.476l4.757,1.36l4.833,1.321l2.73,0.727l2.736,0.619l2.725,0.392l2.698,0.047l1.576,-0.177l1.573,-0.322l1.582,-0.451l1.606,-0.563l1.42,-0.586l1.332,-0.71l1.13,-0.884l0.811,-1.108l0.274,-0.714l0.16,-0.771l0.06,-0.804l-0.024,-0.811l-0.295,-1.736l-0.575,-1.647l-0.797,-1.552l-0.962,-1.453l-2.869,-3.21l-3.334,-2.751l-3.588,-2.495l-3.632,-2.441l-2.056,-1.466l-2.015,-1.503l-1.985,-1.528" style="fill:none;fill-rule:nonzero;stroke:#000;stroke-width:0.94px;"/><path d="M769.13,396.575l-1.972,-1.541l0.824,-2.757l0.884,-2.722l1.005,-2.653l1.184,-2.551l3.395,-5.19l4.236,-4.671l4.744,-4.299l4.92,-4.078l3.195,-2.631l3.167,-2.619l3.177,-2.623l3.227,-2.648l2.481,-1.992l2.55,-1.881l2.64,-1.636l2.749,-1.255l3.329,-0.899l3.465,-0.593l3.565,-0.669l3.627,-1.127l2.514,-1.155l2.461,-1.145l2.344,-0.722l1.108,-0.075l1.055,0.185l1.277,0.665l1.199,1.04l1.145,1.267l1.117,1.349l2.395,2.793l2.303,2.643l2.136,2.65l1.896,2.811l0.767,1.367l0.726,1.41l0.706,1.43l0.711,1.429l0.59,1.141l0.606,1.129l0.618,1.122l0.626,1.117l1.79,3.166l1.724,3.207l1.54,3.284l1.236,3.401l0.871,3.727l0.44,3.825l0.042,3.855l-0.321,3.811" style="fill:none;fill-rule:nonzero;stroke:#000;stroke-width:0.94px;"/><path d="M861.144,396.267l-0.599,3.537l-0.816,3.49l-0.953,3.499l-1.011,3.565l-1.04,3.655l-1.217,3.567l-1.59,3.267l-2.161,2.757l-2.635,1.958l-3.113,1.396l-3.407,0.893l-3.517,0.45l-2.987,0.074l-2.924,-0.191l-2.856,-0.437l-2.779,-0.668l-3.632,-1.296l-3.332,-1.95l-2.885,-2.864l-2.29,-4.039l-0.905,-2.464l-0.853,-2.318l-0.936,-1.665l-0.542,-0.429l-0.613,-0.076l-0.638,0.277l-0.695,0.542l-0.732,0.721l-0.751,0.809m26.703,16.028l-3.087,0.298l-3.049,0.145l-2.972,-0.162l-2.857,-0.621l-2.821,-1.255l-2.611,-1.791l-2.36,-2.194l-2.065,-2.463l-1.341,-1.945l-1.217,-1.995l-1.158,-2.022l-1.165,-2.023l-1.061,-1.728l-1.156,-1.668l-1.291,-1.567l-1.467,-1.425l-1.85,-1.402l-1.922,-1.313l-1.796,-1.365l-1.472,-1.556l-1.273,-2.675" style="fill:none;fill-rule:nonzero;stroke:#000;stroke-width:0.94px;"/><path d="M795.447,397.628l-0.485,-3.125l0.066,-3.371l0.377,-3.417l0.532,-3.46l0.689,-3.294l0.924,-3.134l1.235,-2.982l1.595,-2.837l1.9,-2.715l2.124,-2.616l2.266,-2.541l2.163,-2.278l2.257,-2.138l2.394,-1.903l2.573,-1.572l2.628,-1.121l2.783,-0.801l2.893,-0.545l2.96,-0.351l3.073,-0.198l3.046,0.04l2.966,0.377l2.837,0.814l1.881,0.867l1.798,1.075l1.718,1.232l1.643,1.335l1.387,1.22l1.346,1.25l1.319,1.269l1.305,1.278m-10.808,42.747l0.109,-2.257l0.172,-2.243l0.294,-2.218l0.48,-2.178l0.743,-2.268l0.858,-2.242l0.812,-2.249l0.6,-2.287l0.213,-1.519l0.095,-1.542l0.016,-1.557l-0.023,-1.564m-44.524,21.087l-2.002,-1.202l-2.001,-1.231l-1.996,-1.289l-1.99,-1.376l-2.455,-1.888l-2.257,-2.096l-1.873,-2.33" style="fill:none;fill-rule:nonzero;stroke:#000;stroke-width:0.94px;"/><path d="M786.103,392.284l-1.302,-2.588l-0.542,-2.344l-0.089,-2.47l0.302,-2.525l0.626,-2.512l0.812,-2.219l1.048,-2.069l1.304,-1.839l1.58,-1.528l2.028,-1.253l2.269,-0.917l2.403,-0.707l2.432,-0.625l1.236,-0.327l1.22,-0.336l1.209,-0.342l1.205,-0.344m14.522,57.888l-1.794,1.052l-1.816,0.988l-1.858,0.86l-1.922,0.668l-3.73,0.597l-3.854,-0.175l-3.813,-0.849l-3.609,-1.427l-1.685,-0.898l-1.615,-0.988l-1.569,-1.049l-1.546,-1.079m36.252,5.636l0.369,1.204l0.448,1.116l0.607,0.94l0.846,0.676l0.855,0.293l0.945,0.078l0.932,-0.138l0.815,-0.354l0.715,-0.688l0.482,-0.916l0.327,-1.068l0.25,-1.145m-18.936,33.316l1.913,-0.394l1.892,-0.436l1.85,-0.523l1.788,-0.652l3.134,-1.63l2.94,-2.045l2.843,-2.273l2.842,-2.317l3.002,-2.302" style="fill:none;fill-rule:nonzero;stroke:#000;stroke-width:0.94px;"/><path d="M836.666,449.305l2.98,-2.276l2.838,-2.375l2.571,-2.601l1.782,-2.25l1.675,-2.366l1.701,-2.384l1.858,-2.303l2.982,-3.001l3.044,-2.932l2.6,-3.148l1.649,-3.65l0.022,-0.092l0.021,-0.092l0.017,-0.091l0.014,-0.092l-0.027,-0.587l-0.187,-0.573l-0.292,-0.562l-0.341,-0.553l-1.05,-1.663l-1.004,-1.604l-0.974,-1.566l-0.959,-1.547m-44.557,49.308l2.363,-1.622l2.327,-1.661l2.255,-1.739l2.146,-1.855l2.199,-2.196l2.069,-2.336l1.982,-2.428l1.938,-2.476m-19.335,9.744l-0.645,-1.689l-0.598,-1.697l-0.504,-1.71l-0.362,-1.732l-0.218,-2.327l-0.011,-2.359l0.073,-2.375l0.032,-2.375l-0.08,-2.045l-0.171,-2.035l-0.233,-2.028l-0.263,-2.025m-0.679,22.845l-2.023,-2.396l-1.989,-2.425l-1.921,-2.482l-1.821,-2.567l-1.126,-1.752l-1.036,-1.804l-0.917,-1.857" style="fill:none;fill-rule:nonzero;stroke:#000;stroke-width:0.94px;"/><path d="M796.481,436.901l-0.767,-1.913l-0.668,-2.234l-0.493,-2.29l-0.377,-2.327l-0.32,-2.345m50.78,21.301l2.796,-3.752l2.832,-3.726l2.906,-3.673l3.016,-3.595l2.316,-2.578l2.417,-2.481l2.539,-2.342l2.684,-2.164l1.265,-0.911l1.29,-0.877l1.307,-0.855l1.315,-0.844m14.26,-11.964l1.349,-1.417l1.328,-1.438l1.283,-1.48l1.217,-1.544l1.325,-1.929l1.163,-2.031l0.965,-2.119l0.729,-2.191l0.53,-2.647l0.246,-2.705l0.058,-2.744l-0.037,-2.764m-52.773,-31.641l1.842,-0.098l1.849,-0.075l1.862,-0.029l1.881,0.038l2.583,0.206l2.545,0.454l2.42,0.78l2.21,1.188l1.72,1.434l1.464,1.739l1.185,1.966l0.882,2.116l0.576,2.246l0.268,2.292l-0.007,2.307l-0.249,2.292l-0.298,1.613l-0.335,1.602l-0.303,1.602l-0.2,1.615l-0.007,2.405" style="fill:none;fill-rule:nonzero;stroke:#000;stroke-width:0.94px;"/><path d="M864.85,378.374l0.332,2.406l0.639,2.353l0.917,2.248l1.614,2.809l1.945,2.592l2.156,2.448l2.249,2.373l2.767,2.914l2.732,2.919l2.702,2.934l2.676,2.961l2.646,2.983l2.631,3.003l2.621,3.008l2.62,2.997l2.633,2.978l2.665,2.949l2.728,2.918l2.818,2.885l2.564,2.473l2.69,2.313l2.853,2.022l3.05,1.597l1.379,0.533l1.413,0.474l1.436,0.458l1.451,0.487l2.38,0.955l2.254,1.204l1.99,1.504l1.587,1.857l0.432,0.733l0.371,0.772l0.314,0.804l0.262,0.827l0.469,2.306l0.146,2.353l-0.147,2.345l-0.405,2.28l-0.344,1.299l-0.389,1.29l-0.398,1.312l-0.374,1.368l-0.241,0.989l-0.284,0.963l-0.397,0.864l-0.582,0.696l-0.307,0.224l-0.339,0.193l-0.361,0.173" style="fill:none;fill-rule:nonzero;stroke:#000;stroke-width:0.94px;"/><path d="M929.414,468.72l-0.372,0.163l-0.117,0.573l-0.138,0.544l-0.184,0.488l-0.251,0.402l-0.884,0.53l-1.209,0.077l-1.384,-0.227l-1.412,-0.38l-1.727,-0.55l-1.545,-0.595l-1.397,-0.682l-1.285,-0.807l-2.11,-1.839l-1.881,-2.248l-1.672,-2.525l-1.483,-2.672l-1.669,-3.449l-1.561,-3.417l-1.615,-3.325l-1.834,-3.176l-2.325,-3.161l-2.665,-2.95l-2.912,-2.765l-3.067,-2.603l-3.507,-2.742l-3.579,-2.601l-3.647,-2.487l-3.712,-2.402l-1.765,-1.113l-1.76,-1.122l-1.735,-1.155l-1.691,-1.209l-3.391,-2.797l-3.178,-3.059l-3.036,-3.232l-2.964,-3.32m70.292,61.996l-0.841,-0.535l-0.832,-0.545l-0.812,-0.568l-0.782,-0.602l-1.331,-1.199l-1.233,-1.308l-1.17,-1.383l-1.137,-1.42m1.369,14.696l1.34,0.099l1.35,0.1l1.372,0.104l1.403,0.108l1.881,0.128" style="fill:none;fill-rule:nonzero;stroke:#000;stroke-width:0.94px;"/><path d="M929.619,476.558l1.87,0.008l1.774,-0.246l1.596,-0.63l0.869,-0.622l0.803,-0.754l0.774,-0.823l0.779,-0.826l3.261,-2.656l3.662,-2.037l3.888,-1.674l3.936,-1.571l2.859,-1.222l2.823,-1.264l2.82,-1.265l2.851,-1.223l4.492,-1.709l4.608,-1.397l4.686,-0.971l4.73,-0.43l3.271,0.055l3.273,0.265l3.277,0.373l3.279,0.383l2.328,0.234l2.324,0.229l2.316,0.266l2.302,0.346l2.634,0.528l2.624,0.603l2.625,0.594l2.642,0.499l0.921,0.137l0.923,0.121l0.925,0.109l0.926,0.104l0.591,-1.395l0.537,-1.404l0.429,-1.424l0.269,-1.452l-0.023,-2.659l-0.618,-2.652l-1.126,-2.519l-1.547,-2.257l-1.829,-1.851l-2.077,-1.545l-2.254,-1.302l-2.364,-1.123l-3.916,-1.551l-4.001,-1.243l-4.067,-0.928" style="fill:none;fill-rule:nonzero;stroke:#000;stroke-width:0.94px;"/><path d="M997.294,434.787l-4.115,-0.611l-3.551,-0.276l-3.568,-0.097l-3.58,0.021l-3.584,0.08m1.353,4.13l1.37,-0.067l1.371,-0.054l1.369,-0.027l1.369,0.012l1.557,0.075l1.557,0.127l1.554,0.161l1.555,0.179m-60.508,28.004l0.707,0.459l0.709,0.418l0.716,0.335l0.725,0.212l1.438,-0.023l1.459,-0.489l1.453,-0.8l1.419,-0.955l2.987,-2.212l2.686,-2.281l2.384,-2.427l2.079,-2.65l1.548,-2.478l1.407,-2.621l1.348,-2.688l1.37,-2.678l1.082,-1.96l1.126,-1.923l1.155,-1.899l1.17,-1.887l-0.047,-0.421l-0.04,-0.421l-0.026,-0.421l-0.004,-0.422l0.038,-0.566l0.086,-0.562l0.129,-0.554l0.169,-0.54l0.886,-1.811l1.23,-1.623l1.464,-1.496l1.583,-1.433l1.313,-1.139l1.348,-1.048l1.411,-0.866l1.503,-0.597l1.095,-0.219" style="fill:none;fill-rule:nonzero;stroke:#000;stroke-width:0.94px;"/><path d="M972.549,423.758l1.137,-0.091l1.162,-0.005l1.171,0.038l2.173,0.08l2.148,0.023l2.121,-0.097l2.093,-0.282l1.073,-0.234l1.068,-0.285l1.064,-0.317l1.062,-0.334m-18.305,-9.614l-0.833,-0.533l-0.839,-0.479l-0.853,-0.37l-0.871,-0.209l-0.933,-0.007l-0.953,0.17l-0.968,0.286l-0.974,0.346m-2.881,26.053l1.632,-0.031l1.648,-0.006l1.678,0.041l1.724,0.113l2.601,0.282l2.585,0.173l2.426,-0.248l2.119,-0.983l0.446,-0.379l0.409,-0.431l0.358,-0.476l0.298,-0.513l0.167,-0.373l0.142,-0.383l0.128,-0.388l0.124,-0.391m-197.256,-7.878l1.07,2.822l1.101,2.812l1.161,2.785l1.248,2.74l1.533,2.986l1.711,2.891l1.923,2.777l2.168,2.646l0.977,1.041l1.039,0.962l1.117,0.83l1.21,0.643l1.659,0.509l1.75,0.297l1.757,0.257" style="fill:none;fill-rule:nonzero;stroke:#000;stroke-width:0.94px;"/><path d="M803.064,453.024l1.686,0.386l2.426,1.164l2.156,1.731l2.013,2.094l1.994,2.254l1.637,1.753l1.72,1.573l1.815,1.241l1.927,0.756l2.616,0.136l2.76,-0.523l2.847,-0.812l2.876,-0.732l4.289,-0.397l4.236,0.325l4.195,0.746l4.168,0.871l15.893,2.039l15.96,0.224l16.29,-0.841l16.886,-1.158l0.278,-0.018l0.132,-0.009l0.121,-0.008m3.542,-43.959l-3.608,-6.21l-3.558,-6.235l-3.456,-6.285l-3.305,-6.361l-1.128,-2.272l-1.125,-2.275l-1.143,-2.269l-1.184,-2.251l-0.765,-1.383l-0.798,-1.364l-0.837,-1.335l-0.885,-1.298l-2.11,-2.697l-2.258,-2.585l-2.29,-2.585l-2.204,-2.695l-2.091,-2.929l-2.055,-2.947l-2.198,-2.748l-2.517,-2.336l-2.281,-1.462l-2.437,-1.299l-2.443,-1.364l-2.297,-1.654l-1.665,-1.62" style="fill:none;fill-rule:nonzero;stroke:#000;stroke-width:0.94px;"/><path d="M866.889,353.401l-1.594,-1.685l-1.643,-1.482l-1.811,-1.013l-1.648,-0.343l-1.781,-0.013l-1.859,0.165l-1.88,0.191l-3.674,0.077l-3.574,-0.296l-3.507,-0.545l-3.473,-0.67m148.376,74.467l0.91,-0.639l0.878,-0.663l0.814,-0.715l0.718,-0.789l0.578,-0.847l0.472,-0.926l0.377,-0.99l0.295,-1.042l0.291,-1.585l0.071,-1.593l-0.218,-1.53l-0.574,-1.395l-1.04,-1.259l-1.382,-0.978l-1.588,-0.649l-1.658,-0.273l-1.647,0.121l-1.606,0.385l-1.594,0.473l-1.61,0.385l-1.488,0.15l-1.502,-0.046l-1.496,-0.225l-1.469,-0.381l-2.426,-0.946l-2.345,-1.125l-2.328,-1.077l-2.371,-0.801l-1.628,-0.281l-1.677,-0.065l-1.729,0.144l-1.782,0.345l-2.338,0.739l-2.157,1.083l-1.703,1.446l-0.597,0.866l-0.38,0.964l-0.153,1.002l-0.037,1.054" style="fill:none;fill-rule:nonzero;stroke:#000;stroke-width:0.94px;"/><path d="M951.702,410.591l-0.032,1.067l-0.136,1.041l-0.361,1.061l-0.561,0.987l-0.709,0.914l-0.809,0.843l-2.526,2.003l-2.811,1.524l-3.006,1.108l-3.11,0.757l-4.995,0.625l-5.024,0.081l-5.043,-0.28l-5.052,-0.462m142.605,-92.462l-0,572.835m-389.764,-203.829l389.764,-0" style="fill:none;fill-rule:nonzero;stroke:#000;stroke-width:0.94px;"/><path d="M561.027,730.048c-29.353,-0 -53.149,23.795 -53.149,53.149m-0,-0c-0,29.354 23.796,53.15 53.149,53.15m0,-0c29.354,-0 53.15,-23.796 53.15,-53.15m-0,-0c-0,-29.354 -23.796,-53.149 -53.15,-53.149" style="fill:none;fill-rule:nonzero;stroke:#000;stroke-width:0.94px;"/><path d="M561.027,615.815l0,114.233m0,106.299l0,44.291m109.341,-5.157l-0,-177.077" style="fill:none;fill-rule:nonzero;stroke:#000;stroke-width:0.94px;"/><path d="M699.895,875.569c97.846,0 177.166,-79.319 177.166,-177.165" style="fill:none;fill-rule:nonzero;stroke:#000;stroke-width:0.94px;"/><path d="M699.895,875.569l0,-177.165m-29.527,203.829l-0,-203.829l389.764,-0l-0,203.829m-360.237,-203.829l0,177.165m265.301,26.664l0,-29.528m29.528,29.528l-0,-29.528m29.528,29.528l-0,-29.528" style="fill:none;fill-rule:nonzero;stroke:#000;stroke-width:0.94px;"/><path d="M1287.49,329.398l-0,-88.583l-73.819,0l0,88.583l73.819,0Zm-0,572.835l-73.819,-0l0,88.582l73.819,0l-0,-88.582Z" style="fill:#fff;fill-rule:nonzero;"/><rect x="935.669" y="902.233" width="278.006" height="88.583" style="fill:#fff;"/><rect x="670.368" y="240.815" width="543.307" height="88.583" style="fill:#fff;"/><path d="M670.368,240.815l-9.82,0l-19.612,1.028l-19.532,2.053l-19.398,3.073l-19.21,4.083l-18.97,5.083l-18.679,6.069l-18.335,7.038l-17.941,7.988l-17.499,8.916l-17.008,9.82l-16.471,10.696l-15.889,11.544l-15.263,12.359l-14.595,13.142l-13.887,13.887l-13.141,14.595l-12.36,15.263l-11.543,15.888l-10.697,16.471l-9.82,17.008l-8.916,17.499l-7.988,17.942l-7.038,18.335l-6.069,18.678l-5.083,18.97l-4.083,19.211l-3.072,19.397l-2.053,19.532l-1.028,19.613l-0,19.639l1.028,19.613l2.053,19.532l3.072,19.397l4.083,19.21l5.083,18.971l6.069,18.678l7.038,18.335l7.988,17.941l8.916,17.499l9.82,17.009l10.697,16.471l11.543,15.888l12.36,15.263l13.141,14.595l13.887,13.887l14.595,13.141l15.263,12.36l15.889,11.544l16.471,10.696l17.008,9.82l17.499,8.916l17.941,7.988l18.335,7.038l18.679,6.069l18.97,5.083l19.21,4.083l19.398,3.073l19.532,2.053l19.612,1.027l9.82,0l-0,-88.582l-7.5,-0l-14.98,-0.785l-14.918,-1.568l-14.815,-2.347l-14.673,-3.119l-14.489,-3.882l-14.266,-4.635l-14.004,-5.376l-13.703,-6.101l-13.366,-6.81l-12.99,-7.5l-12.58,-8.17l-12.136,-8.817l-11.657,-9.44l-11.147,-10.036l-10.607,-10.607l-10.037,-11.148l-9.44,-11.657l-8.817,-12.135l-8.17,-12.581l-7.5,-12.99l-6.81,-13.366l-6.101,-13.703l-5.376,-14.004l-4.635,-14.266l-3.882,-14.489l-3.119,-14.672l-2.346,-14.816l-1.569,-14.918l-0.785,-14.979l0,-15.001l0.785,-14.979l1.569,-14.918l2.346,-14.816l3.119,-14.672l3.882,-14.489l4.635,-14.266l5.376,-14.004l6.101,-13.704l6.81,-13.365l7.5,-12.991l8.17,-12.58l8.817,-12.135l9.44,-11.657l10.037,-11.148l10.607,-10.607l11.147,-10.037l11.657,-9.44l12.136,-8.816l12.58,-8.17l12.99,-7.5l13.366,-6.81l13.703,-6.101l14.004,-5.376l14.266,-4.635l14.489,-3.883l14.673,-3.118l14.815,-2.347l14.918,-1.568l14.98,-0.785l7.5,0l-0,-88.583Z" style="fill:#fff;fill-rule:nonzero;"/><path d="M935.669,990.815l-0,-88.582m351.825,-572.835l-73.819,0m0,572.835l73.819,-0m-0,88.582l-0,-88.582m-0,-572.835l-0,-88.583l-73.819,0m0,750l73.819,0m-73.819,-88.582l-278.006,-0m-0,88.582l278.006,0m0,-750l-553.127,0l-19.612,1.028l-19.532,2.053l-19.398,3.073l-19.21,4.083l-18.97,5.083l-18.679,6.069l-18.335,7.038l-17.941,7.988l-17.499,8.916l-17.008,9.82l-16.471,10.696l-15.889,11.544l-15.263,12.359l-14.595,13.142l-13.887,13.887l-13.141,14.595l-12.36,15.263l-11.543,15.888l-10.697,16.471l-9.82,17.008l-8.916,17.499l-7.988,17.942l-7.038,18.335l-6.069,18.678l-5.083,18.97l-4.083,19.211l-3.072,19.397l-2.053,19.532l-1.028,19.613l-0,19.639l1.028,19.613l2.053,19.532l3.072,19.397l4.083,19.21" style="fill:none;fill-rule:nonzero;stroke:#000;stroke-width:0.94px;"/><path d="M305.604,703.387l5.083,18.971l6.069,18.678l7.038,18.335l7.988,17.941l8.916,17.499l9.82,17.009l10.697,16.471l11.543,15.888l12.36,15.263l13.141,14.595l13.887,13.887l14.595,13.141l15.263,12.36l15.889,11.544l16.471,10.696l17.008,9.82l17.499,8.916l17.941,7.988l18.335,7.038l18.679,6.069l18.97,5.083l19.21,4.083l19.398,3.073l19.532,2.053l19.612,1.027l9.82,0l-0,-88.582l-7.5,-0m-14.98,-0.785l-14.918,-1.568l-14.815,-2.347l-14.673,-3.119l-14.489,-3.882l-14.266,-4.635m-14.004,-5.376l-13.703,-6.101l-13.366,-6.81l-12.99,-7.5l-12.58,-8.17l-12.136,-8.817l-11.657,-9.44l-11.147,-10.036l-10.607,-10.607l-10.037,-11.148l-9.44,-11.657l-8.817,-12.135l-8.17,-12.581l-7.5,-12.99l-6.81,-13.366l-6.101,-13.703l-5.376,-14.004l-4.635,-14.266" style="fill:none;fill-rule:nonzero;stroke:#000;stroke-width:0.94px;"/><path d="M395.651,697.19l-3.882,-14.489l-3.119,-14.672l-2.346,-14.816l-1.569,-14.918l-0.785,-14.979l0,-15.001l0.785,-14.979l1.569,-14.918l2.346,-14.816l3.119,-14.672l3.882,-14.489l4.635,-14.266l5.376,-14.004l6.101,-13.704l6.81,-13.365l7.5,-12.991l8.17,-12.58l8.817,-12.135l9.44,-11.657l10.037,-11.148l10.607,-10.607l11.147,-10.037l11.657,-9.44l12.136,-8.816l12.58,-8.17l12.99,-7.5l13.366,-6.81l13.703,-6.101l14.004,-5.376l14.266,-4.635l14.489,-3.883l14.673,-3.118l14.815,-2.347l14.918,-1.568l14.98,-0.785l7.5,0m617.126,572.835l-0,-572.835m-617.126,661.417l265.301,0m-272.801,-88.582l-14.98,-0.785m-73.161,-15.551l-14.004,-5.376m109.645,-551.123l543.307,0m-1168.89,667.795l-12.755,-12.755m12.755,-737.245l-12.755,-12.755m6.377,756.377l-10.629,0m10.629,0l10.63,0m-10.63,-750l-10.629,0m10.629,0l10.63,0m-10.63,750l0,10.63m0,-760.63l0,-10.63" style="fill:none;fill-rule:nonzero;stroke:#000;stroke-width:0.94px;"/><path d="M38.403,990.815l0,-750m250.587,-196.034l12.756,-12.756m1315.99,12.756l12.756,-12.756m-1335.12,6.378l-0,-10.629m-0,10.629l-0,10.63m1328.74,-10.63l0,-10.629m0,10.629l0,10.63m-1328.74,-10.63l-10.63,0m1339.37,0l10.63,0" style="fill:none;fill-rule:nonzero;stroke:#000;stroke-width:0.94px;"/><path d="M295.368,38.403l1328.74,0m-1246.54,80.197l12.756,-12.756m811.357,12.756l12.756,-12.756m-830.491,6.378l0,-10.63m0,10.63l0,10.63m824.113,-10.63l-0,-10.63m-0,10.63l-0,10.63m-824.113,-10.63l-10.629,0m834.742,0l10.629,0" style="fill:none;fill-rule:nonzero;stroke:#000;stroke-width:0.94px;"/><path d="M383.95,112.222l824.113,0m-1092.42,801.328l-12.755,-12.756m12.755,-565.018l-12.755,-12.756m6.378,584.152l-10.63,-0m10.63,-0l10.63,-0m-10.63,-577.774l-10.63,0m10.63,0l10.63,0m-10.63,577.774l-0,10.63m-0,-588.404l-0,-10.63" style="fill:none;fill-rule:nonzero;stroke:#000;stroke-width:0.94px;"/><g transform="matrix(0,-1,1,0,-2195.07,-2869.59)"><text x="-3525.03px" y="2225.84px" style="font-family:'LucidaGrande', 'Lucida Grande', sans-serif;font-weight:500;font-size:41.538px;">2<tspan x="-3501.45px -3491px -3467.42px " y="2225.84px 2225.84px 2225.84px ">.55</tspan></text></g><text x="920.467px" y="30.768px" style="font-family:'LucidaGrande', 'Lucida Grande', sans-serif;font-weight:500;font-size:41.538px;">4<tspan x="944.046px 954.502px 978.081px " y="30.768px 30.768px 30.768px ">.50</tspan></text><text x="756.734px" y="104.587px" style="font-family:'LucidaGrande', 'Lucida Grande', sans-serif;font-weight:500;font-size:41.538px;">2<tspan x="780.313px 790.769px 814.347px " y="104.587px 104.587px 104.587px ">.80</tspan></text><g transform="matrix(0,-1,1,0,-2195.07,-2869.59)"><text x="-3527.5px" y="2296.7px" style="font-family:'LucidaGrande', 'Lucida Grande', sans-serif;font-weight:500;font-size:41.538px;">1<tspan x="-3503.92px -3493.47px -3469.89px " y="2296.7px 2296.7px 2296.7px ">.95</tspan></text></g><text x="760.391px" y="618.799px" style="font-family:'LucidaGrande', 'Lucida Grande', sans-serif;font-weight:500;font-size:58.153px;">5<tspan x="793.418px 808.074px 841.1px 874.127px 888.783px 939.329px " y="618.799px 618.799px 618.799px 618.799px 618.799px 618.799px ">.00 m²</tspan></text><path d="M109.27,907.172l-0,-577.774" style="fill:none;fill-rule:nonzero;stroke:#000;stroke-width:0.94px;"/><path d="M960.327,633.957l5.982,-0.524l5.8,-1.554l5.442,-2.538l4.919,-3.444l4.246,-4.246l3.445,-4.919l2.537,-5.442l1.555,-5.8l0.523,-5.982l-0.523,-5.982l-1.555,-5.8l-2.537,-5.443l-3.445,-4.918l-4.246,-4.246l-4.919,-3.445l-5.442,-2.537l-5.8,-1.555l-5.982,-0.523l-199.936,0l-5.982,0.523l-5.8,1.555l-5.442,2.537l-4.919,3.445l-4.246,4.246l-3.444,4.918l-2.538,5.443l-1.554,5.8l-0.523,5.982l0.523,5.982l1.554,5.8l2.538,5.442l3.444,4.919l4.246,4.246l4.919,3.444l5.442,2.538l5.8,1.554l5.982,0.524l199.936,-0" style="fill:none;fill-rule:nonzero;stroke:#000;stroke-width:0.94px;"/></svg>