<?xml version="1.0" encoding="UTF-8" standalone="no"?><!DOCTYPE svg PUBLIC "-//W3C//DTD SVG 1.1//EN" "http://www.w3.org/Graphics/SVG/1.1/DTD/svg11.dtd"><svg width="100%" height="100%" viewBox="0 0 2203 1067" version="1.1" xmlns="http://www.w3.org/2000/svg" xmlns:xlink="http://www.w3.org/1999/xlink" xml:space="preserve" xmlns:serif="http://www.serif.com/" style="fill-rule:evenodd;clip-rule:evenodd;stroke-linecap:round;stroke-linejoin:round;stroke-miterlimit:10;"><path d="M688.084,967.214l-17.716,-0l-0,88.582l2.685,0l2.58,-0.112l2.561,-0.338l2.522,-0.559l2.463,-0.776l2.387,-0.989l2.291,-1.192l2.178,-1.388l2.05,-1.573l1.904,-1.745l1.745,-1.904l1.572,-2.049l1.388,-2.179l1.193,-2.291l0.988,-2.386l0.777,-2.464l0.559,-2.521l0.337,-2.561l0.113,-2.581l-14.577,0l0,-58.974Z" style="fill:#fff;fill-rule:nonzero;"/><path d="M1733.36,1026.19l-14.577,0l0.113,2.581l0.337,2.561l0.559,2.521l0.777,2.464l0.988,2.386l1.193,2.291l1.388,2.179l1.572,2.049l1.746,1.904l1.904,1.745l2.049,1.573l2.179,1.388l2.291,1.192l2.386,0.989l2.464,0.776l2.521,0.559l2.561,0.338l2.581,0.112l2.685,0l-0,-88.582l-17.717,-0l-0,58.974Z" style="fill:#fff;fill-rule:nonzero;"/><path d="M668.793,614.261l3.15,-0l-0,3.149l-3.15,0l0,-3.149m2.953,2.953l-2.756,-0l-0,-2.756l2.756,-0l-0,2.756m-2.559,-2.56l2.362,0l-2.362,0l-0,2.363l2.362,-0l-0,-2.363l-2.362,0m0.197,0.198l1.968,-0l-1.968,-0l-0,1.968l1.968,-0l-0,-1.968l-1.968,-0m0.196,0.196l1.575,0l-1.575,0l0,1.575l1.575,0l0,-1.575l-1.575,0m0.197,0.197l1.181,0l0,1.181l-1.181,0l0,-1.181m0.984,0.984l-0.787,0l0,-0.787l0.787,0l0,0.787m-0.59,-0.59l0.394,-0l-0,0.394l-0.394,-0l-0,-0.394" style="fill:none;fill-rule:nonzero;stroke:#000;stroke-width:0.94px;"/><path d="M673.053,1055.8c16.352,0 29.608,-13.256 29.608,-29.608" style="fill:none;fill-rule:nonzero;stroke:#000;stroke-width:0.94px;"/><path d="M702.661,1026.19l-14.577,0m-15.031,29.608l-2.685,0m17.716,-88.582l-17.716,-0m17.716,-0l0,58.974m1061.42,-411.927l3.149,-0l0,3.149l-3.149,0l-0,-3.149m2.952,2.953l-2.755,-0l-0,-2.756l2.755,-0l0,2.756m-2.558,-2.56l2.362,0l-2.362,0l-0,2.363l2.362,-0l-0,-2.363l-2.362,0m0.196,0.198l1.969,-0l-1.969,-0l0,1.968l1.969,-0l-0,-1.968l-1.969,-0m0.197,0.196l1.575,0l-1.575,0l0,1.575l1.575,0l-0,-1.575l-1.575,0m0.197,0.197l1.181,0l0,1.181l-1.181,0l0,-1.181m0.984,0.984l-0.787,0l-0,-0.787l0.787,0l0,0.787m-0.59,-0.59l0.393,-0l0,0.394l-0.393,-0l-0,-0.394" style="fill:none;fill-rule:nonzero;stroke:#000;stroke-width:0.94px;"/><path d="M1718.78,1026.19c0,16.352 13.257,29.608 29.609,29.608" style="fill:none;fill-rule:nonzero;stroke:#000;stroke-width:0.94px;"/><path d="M1748.39,1055.8l2.685,0m-17.717,-88.582l17.717,-0m-17.717,-0l-0,58.974m-1057.73,29.496l1072.76,0.112m-1060.31,-29.608l20.67,0l-0,-59.055l-20.67,-0l0,59.055m519.873,-29.527l14.576,-0m-14.576,-0l14.576,-0m510.827,29.527l-20.669,0l-0,-59.055l20.669,-0l0,59.055m-510.827,-29.527l-20.669,-0l-0,-29.528l20.669,-0l0,29.528m490.158,-0l-20.669,-0l-0,-29.528l20.669,-0l-0,29.528m-20.669,-0l-469.489,-0l0,-29.528l469.489,-0l-0,29.528m-983.268,29.527l20.669,0l-0,-29.527l-20.669,-0l-0,29.527l20.669,0l-0,-29.527l-20.669,-0l-0,29.527m513.779,0l-20.669,0l-0,-29.527l20.669,-0l0,29.527m-20.669,0l-472.441,0l-0,-29.527l472.441,-0l-0,29.527m507.136,-59.055l-7.382,-0l-0,-2.953l7.382,0l-0,2.953m-0.739,-2.953l-5.905,0l0,-14.764l5.905,0l0,14.764" style="fill:none;fill-rule:nonzero;stroke:#000;stroke-width:0.94px;"/><path d="M1222.53,981.897l469.489,-0m-962.599,29.527l472.441,0m-0,-44.291l-493.11,-0m513.779,59.055l490.158,0m-986.959,-29.527l-7.382,-0l-0,-2.953l7.382,-0l-0,2.953m-0.738,-2.953l-5.906,-0l0,-14.764l5.906,-0l-0,14.764m1137.09,-248.127l1.055,-0.603m-2.863,1.055l1.808,-0.452m37.07,-259.038l-15.521,-0m-23.056,241.256l-0.301,0.151m-8.289,-241.407l-2.109,1.205l-2.261,2.261l-0.301,0.602m75.346,350.96l-0,-40.084m8.288,40.084l-8.288,-0m8.288,-40.084l-0,40.084m-47.317,-96.593l15.521,-0m-47.167,-22.303l-2.41,1.357l-1.809,1.808l-0.452,0.904m193.638,-241.557l-2.562,-0l-2.863,0.602m8.288,0l-2.863,-0.602m-5.425,0.602l-1.808,0.904m12.357,0.151l-2.261,-1.055m3.767,2.11l-1.506,-1.055m3.315,2.863l-1.809,-1.808m3.919,5.726l-2.11,-3.918m2.712,6.631l-0.602,-2.713m0.602,5.726l0,-3.013m-0.753,6.027l0.753,-3.014m-1.808,5.124l1.055,-2.11m-3.918,5.274l2.863,-3.164m-3.164,3.164l0.301,0m-2.261,1.357l1.96,-1.357m-4.521,2.261l2.561,-0.904m-221.063,285.409l0.452,-0.905m-0.452,5.727l-0,-4.822m0.301,5.425l-0.301,-0.603m17.179,0.753l-16.878,-0.15m16.878,-359.399l-16.878,0.151l-0.301,0.603l-0,4.822l0.452,0.904" style="fill:none;fill-rule:nonzero;stroke:#000;stroke-width:0.94px;"/><path d="M1968.92,784.911l-27.275,-0.151m27.727,0.905l-0.452,-0.754m0.452,7.836l-0,-7.082m-0.452,7.685l0.452,-0.603m-11.001,0.753l10.549,-0.15m-57.414,-284.354l10.398,0.151m-81.975,-18.083l0.903,-0.453m-0.452,14.165l-0.451,-0.301m43.7,4.521l15.521,-0m-47.167,332.575l0,-40.084m8.289,40.084l-8.289,-0m8.289,-40.084l-0,40.084m98.401,-400.838l-0.452,-0.302m0.15,6.48l0.452,-0.754m-47.317,40.536l-4.068,-0.15m23.508,5.274l0.301,-0.151m-83.935,13.11l0.452,0.905l1.809,1.808l2.41,1.356m31.646,-110.005l-8.138,0l0,40.235m8.138,0l-0,-40.235m-45.81,385.92l-23.81,0.151l-0.452,0.603l0,7.082l0.452,0.754l10.549,0.15m82.88,-48.522l4.219,-0.151m-28.028,-16.877l0.602,-0.151m-44.302,-0.753l0.602,-0.302m-0.754,13.261l0.152,-12.959m0.301,13.712l-0.453,-0.753m0.905,0.904l-0.452,-0.151m7.082,0l-6.63,0.151m19.59,-342.069l-8.289,0l0,40.235m8.289,0l-0,-40.235m47.166,0l-8.288,0l-0,40.235m8.288,0l-0,-40.235m61.482,48.222l-10.549,-0.151m11.001,0.904l-0.452,-0.753m0.452,7.836l-0,-7.083m-0.452,7.685l0.452,-0.602m-27.727,0.753l27.275,-0.151m-154.911,-8.438l10.549,-0.151m-11.001,0.904l0.452,-0.753m-0.452,7.836l0,-7.083m0.452,7.685l-0.452,-0.602m24.262,0.753l-23.81,-0.151" style="fill:none;fill-rule:nonzero;stroke:#000;stroke-width:0.94px;"/><path d="M2021.36,509.147l0,213.378m-145.869,119.046l0,-40.084m8.138,40.084l-8.138,-0m8.138,-40.084l-0,40.084m47.317,-442.731l-8.288,0l-0,40.235m8.288,0l-0,-40.235m-68.715,87.1l-1.959,-0.452m2.863,1.055l-0.904,-0.603m180.377,16.275l-0,6.479m-83.785,285.711l-0.452,-0.905m0.452,5.727l0,-4.822m-0.301,5.425l0.301,-0.603m-17.178,0.753l16.877,-0.15m-59.372,41.741l-0,-40.084m8.288,40.084l-8.288,-0m8.288,-40.084l-0,40.084m24.261,-113.621l-0.753,-0m-46.715,-273.203l0,-6.932m14.919,274.71l-15.521,-0m-0,-230.708l0.301,-0.151m24.111,236.284l-0.603,-0m34.207,-270.792l-0,-1.507m-0,345.836l-0,-1.507m103.374,-77.606l-2.411,-0.753l-0,1.205m4.822,1.055l-2.411,-1.507m4.521,3.617l-2.11,-2.11m2.11,2.411l-0,-0.301m1.054,1.657l-1.054,-1.356m1.959,3.315l-0.905,-1.959m1.507,4.521l-0.602,-2.562m0.602,5.877l0,-3.315m-0.602,5.877l0.602,-2.562m-1.959,5.274l1.357,-2.712m-3.919,5.576l2.562,-2.864m-6.48,4.973l3.918,-2.109m-13.863,1.205l1.658,0.904m5.424,0.603l2.863,-0.603m-5.424,0.603l2.561,-0m-5.424,-0.603l2.863,0.603m-96.593,-305.903l-0,-1.356m-0,345.685l-0,-1.356m-100.36,18.083l-0,-1.507m-0,-344.329l-0,1.507m-0,-18.083l-0,1.356m-0,344.329l-0,-1.356m66.153,-274.408l4.068,-0m10.398,0.151l0.754,-0m-75.346,231.611l0.301,0.754" style="fill:none;fill-rule:nonzero;stroke:#000;stroke-width:0.94px;"/><path d="M1847.61,741.512l2.261,2.26l2.109,1.206m10.097,-23.056l-1.808,-0.452m2.712,1.055l-0.904,-0.603m-0.151,-212.324l1.055,-0.602m-2.712,1.055l1.657,-0.453m82.88,-0.451l-13.863,-0m19.891,-0.603l1.205,0.753m-2.863,0l-4.37,-0.15m6.48,0.602l-2.11,-0.452m2.11,0.452l-0.452,-1.205m1.356,3.466l-0.904,-2.261m23.206,-0.602l0.905,3.315m-21.7,5.274l-1.507,-5.726m23.207,0.452l1.055,5.425m-21.399,9.041l-1.356,-9.192m22.755,0.151l1.506,14.014m-22.302,3.014l-0.603,-7.987m1.055,38.728l-0.452,-30.741m22.302,-3.014l0.603,36.768m0,47.016l-0.452,-0m0.452,-47.016l0,47.016m-0.452,-0l0.452,0.151l0,47.166m-22.453,2.26l-0,-99.606m-0.603,133.663l0.603,-34.057m22.453,-2.26l-0.603,36.769m-23.206,7.534l0.753,-7.986m22.453,0.452l-1.506,14.014m-22.755,0.151l1.055,-6.631m21.7,6.48l-1.055,5.425m-23.207,0.452l1.507,-5.726m-2.411,7.685l0.904,-1.959m-0.904,2.411l0,-0.452m-6.329,0.753l6.329,-0.753m-20.343,0.753l14.014,0m30.44,-3.164l-0.905,3.315m-22.302,-0.301l-1.055,0.451m-0.753,0.603l0.904,-1.205m-0.151,0.602l-0.753,0.905m-90.113,21.398l15.219,-0m-15.219,-287.82l-0,326.246m47.166,-60.879l15.22,-0m-9.795,-0l1.658,0.15l3.315,0.905l2.561,1.205l2.261,1.809m-15.22,0.15l15.22,0m-11.001,-4.219l0,4.219m-12.507,-269.586l-0,326.246" style="fill:none;fill-rule:nonzero;stroke:#000;stroke-width:0.94px;"/><path d="M1883.63,490.611l15.521,0m-15.521,-33.453l-0,326.246m38.275,-42.646l0.754,0m-15.22,0.151l8.288,0l6.178,-0.151m0.603,0l-0.452,0.603m-0.301,0l0.301,0m-1.808,1.206l1.507,-1.206m-3.315,2.11l1.808,-0.904m-4.521,1.808l2.713,-0.904m-5.275,1.356l2.562,-0.452m-4.069,0.452l11.001,0m-11.001,-3.918l0,3.918m-51.385,-240.051l15.219,0m-8.74,0l-1.657,1.809m-0.603,0.15l0.603,-0.15m-2.412,1.356l1.809,-1.206m-4.219,1.959l2.41,-0.753m-2.41,218.803l15.219,0m-11.904,0.302l0.452,-0.302m-0.452,0.302l-0.151,13.261l0.904,0.602m-4.068,0l7.986,0m-26.973,59.071l100.36,0m-53.194,0l-0,1.507m-47.166,-0l100.36,-0m-76.853,-1.507l0,1.507m-12.809,-344.329l0,326.246m-11.151,-292.793l11.151,0m60.126,309.369l0,1.507m-74.29,-16.727l103.826,0m-57.263,0.452l0.603,-0.452m-24.111,0.452l0.603,-0.452m22.905,0.452l-0.151,7.535m-23.357,-7.535l-0.301,1.809l0.151,5.877m23.507,-0.151l0.754,0.753m-60.427,0l133.813,0m-97.647,-0.602l0.753,0.602m13.11,-52.742l0.904,0m-7.233,0.151l6.329,-0.151m-9.795,1.959l1.959,-1.808m-3.917,3.014l1.958,-1.206m-4.52,1.959l2.562,-0.753m12.657,-286.765l0,326.246m-15.219,-292.793l15.219,0m-12.055,0.603l0.904,-0.603m-0.904,0.603l0,12.96l0.603,0.602m34.207,235.982l0.904,0" style="fill:none;fill-rule:nonzero;stroke:#000;stroke-width:0.94px;"/><path d="M1883.63,740.909l8.438,0l6.179,-0.151m13.26,-254.065l11.152,0m-9.644,0l1.657,0.151l3.165,0.904l2.561,1.206m2.261,-31.796l-0,326.246m-15.22,-292.793l15.22,0m-2.261,-1.657l1.96,1.657m-84.538,-34.96l103.826,0m-53.194,0l-0,1.507m-47.166,0l100.36,0m-76.853,-1.507l0,1.507m-24.261,269.586l11.452,0m-10.698,56.66l100.36,0m-10.699,-296.711l109.853,0l1.206,0.151l2.712,0.904l2.261,1.357l1.959,1.959l1.657,3.013l0.603,2.411l0,2.863l-0.452,1.959l-0.904,2.11l-1.055,1.507l-1.657,1.658m-3.014,1.657l3.014,-1.657m-4.521,2.109l1.507,-0.452m-1.658,-6.781l-0,228.448m-194.391,63.591l-0.453,0.603l0,5.274l0.453,0.603m-6.781,-359.549l116.936,0m-110.155,0l-0.453,0.754l0,5.274l0.453,0.452m-23.508,0l133.813,0m-50.933,57.865l15.22,0m-2.261,1.959l2.261,-1.808m-4.069,2.712l1.808,-0.904m-5.123,1.959l3.315,-1.055m-5.575,1.206l2.26,-0.151m-3.768,-3.918l0,4.22m1.508,-0.151l8.89,0.302m-81.975,-18.083l-0,13.411m0.451,0.301l11.603,0m31.646,0l15.521,0m-4.069,-64.194l0.302,-0.151m-0.302,0.151l-0.301,2.562" style="fill:none;fill-rule:nonzero;stroke:#000;stroke-width:0.94px;"/><path d="M1958.67,440.733l0.15,5.424m-63.742,-5.575l-0.151,5.877l0.453,0.452m16.123,39.782l0,3.918m-4.068,-33.453l-0,326.246m-47.166,-296.56l2.712,0.754l1.959,1.205l1.808,1.808m64.195,0l0.753,0l4.37,0.151l9.494,-0.151l0.753,0.302m-15.37,-33.755l-0,326.246m15.37,-292.491l0.151,13.261l-0.302,0.452m-0.451,0.15l0.451,-0.15m-15.219,0.15l14.768,0m-104.429,-65.701l100.36,0m-29.536,0l0,1.356m-23.658,-1.356l-0,1.356m-51.235,6.781l0.301,0m0.151,-0.301l-0.151,0.301m23.207,0.302l0.753,-0.603m-24.261,0.301l-0.302,0.904m23.81,-0.602l-0,7.384m-23.81,-6.782l0.151,6.932m23.659,-0.15l0.753,0.753m-24.412,-0.603l0.754,0.603m-0.754,329.712l0.754,-0.603m-0.754,0.603l-0.151,7.083l0.302,0.753l0.301,0l0.151,0.301m57.413,0.151l0.302,-0.151m-0.302,0.151l-0.301,2.562m-23.056,-2.713l-0.452,0.754l0.151,5.425m23.658,-6.028l-0.151,5.877l0.453,0.452m-23.96,-0.301l0.452,0.301m-7.083,-360.905l0,1.356m109.703,282.094l56.058,-0l2.561,0.603m9.494,-0.302l1.959,0.603m-11.453,-0.301l1.809,0.753m9.644,-0.452l2.562,1.507m-12.206,-1.055l1.958,1.206m1.357,1.205l0.301,0m-1.658,-1.205l1.357,1.205m8.891,-1.356l1.808,1.808" style="fill:none;fill-rule:nonzero;stroke:#000;stroke-width:0.94px;"/><path d="M2048.94,726.744l-0,0.302m-74.442,-4.521l-1.205,4.671m75.647,-0.15l0.753,0.904m-11.151,-1.658l1.959,1.959l0.452,0.904l0.904,0.754l0.603,-0m7.233,-1.959l1.055,2.109l0.452,1.658m-77.907,-4.521l-1.959,4.822m79.866,-0.301l0.151,2.713m-80.017,-2.412l-2.712,4.822m82.729,-2.41l-0.603,3.013m-86.195,3.165l0.301,-0l3.768,-3.768m82.126,0.603l-1.808,3.165m-86.045,1.205l1.658,-1.205m82.579,1.808l1.808,-1.808m-89.209,2.562l3.164,-1.357m81.524,2.11l2.713,-1.507m-92.223,1.808l4.822,-1.054m-6.781,1.356l1.959,-0.302m-12.508,0.603l10.549,-0.301m-22.001,0.301l110.305,0l3.165,-0.904m-160.787,-17.179l15.521,0m-11.754,0.151l0.301,-0.151m-0.301,0.151l-0.302,0.753l0,12.508l0.453,0.602l0.452,0.151m24.11,-285.258l0,1.507m-64.797,283.6l4.671,0m32.399,-293.395l0.603,-0.452m-0.603,0.452l-0,7.836l0.603,0.452m-13.562,-14.918l0.452,-0.302m-0.452,0.302l-0.151,5.575l0.452,0.603m169.98,54.55l0.753,0m-0.753,0l-0,0.302m-0.603,0.301l0.603,-0.301m-0.603,0.301l-0.603,0.753l0,0.302m-2.562,2.562l2.562,-2.562m-5.425,4.52l2.863,-1.958m-4.671,2.712l1.808,-0.754m-3.918,1.357l2.11,-0.603m-58.77,0.754l55.003,-0l1.657,-0.151" style="fill:none;fill-rule:nonzero;stroke:#000;stroke-width:0.94px;"/><path d="M1860.27,722.826l2.562,0.754l1.054,0.603l1.206,0.753l1.657,1.808m-6.479,-240.201l15.219,-0m67.51,0.15l7.836,0.151l8.439,1.356l2.863,1.055l2.712,1.809l3.014,2.712l-0,0.301l1.356,1.658l2.11,3.918l2.26,5.726l0.904,3.768m-43.549,217.597l14.918,0l0.452,0.302l0,13.562m-0.904,0.301l0.904,-0.301m-7.534,0.15l6.63,0.151m-14.466,0l7.836,-0.151m-51.235,-249.996l0.452,-0.151m-0.452,0.151l-0.453,0.754l0,12.507l0.603,0.753m23.357,-13.863l0.603,-0.302m-0.603,0.302l-0.301,0.904l0,12.055l0.603,0.904m-0,221.968l-0.603,1.055l0,12.055l0.301,0.754l0.603,0.301m-51.385,-231.913l15.219,-0m-15.219,213.529l15.219,-0m36.618,60.879l0,1.356m-23.658,-1.356l-0,1.356m-23.659,-1.356l0,1.356m-368.238,-337.763l-75.902,-0l-3.825,0.588m85.464,0.588l-5.737,-1.176m-79.727,0.588l-2.206,0.735m90.171,1.177l-2.501,-1.324m-87.67,0.147l-2.942,1.619l-0.883,1.029m95.467,0l-1.471,-1.471m-94.143,334.941l1.03,1.177m93.113,0.441l1.912,-1.912m-95.025,1.471l2.942,1.618m87.67,0.147l2.501,-1.324" style="fill:none;fill-rule:nonzero;stroke:#000;stroke-width:0.94px;"/><path d="M1414.62,787.233l2.206,0.735m79.727,0.589l5.737,-1.177m-81.639,1.177l75.902,-0m-79.727,-0.589l3.825,0.589m-9.856,-337.589l-5.001,0.147l-1.471,0.883l-0.735,2.206l-0,326.704m0.147,0.294l-0,0.882m110.323,0.736l-0.736,1.029l-1.029,0.442l-5.884,0.147m-101.645,-0.589l-0.735,-1.029m1.765,1.471l-1.03,-0.442m5.884,0.589l-4.854,-0.147m106.646,-333.176l-6.178,-0.147m7.502,1.03l-1.324,-0.883m2.059,3.236l-0.735,-2.353m0.735,328.91l0,-326.557m-0.147,327.733l0,-0.882m-8.09,-330.234l1.177,1.913m-96.644,-1.913l-1.176,1.913l-0.442,1.618m98.262,-1.618l0.588,2.941l-0.294,326.115m-98.556,-327.438l0,326.703m98.556,0.735l-1.03,2.207m-97.526,-2.942l1.177,2.942m-4.413,-0l4.413,-0m-6.325,-1.324l1.912,1.324m106.352,-0l1.765,-1.324m-7.355,1.324l5.59,-0m-385.521,-107.093l-0.298,-0.278m4.756,-1.006l-0.472,0.459m2.4,7.214l-1.928,-7.673m2.556,7.873l-0.628,-0.2m5.797,-1.02l-5.169,1.22m5.531,-1.654l-0.362,0.434m-4.228,-20.369l4.59,19.935m-3.491,-20.195l-1.099,0.26m-11.11,2.623l-0.99,0.234m-6.925,-34.248l-0.058,0.246m11.128,46.145l3.986,-0.825m-15.056,-45.566l4.264,-1.123l0.408,0.252m-1.566,-8.107l-0.226,0.517m0.226,-0.517l5.72,-1.351l0.434,0.362m-9.318,10.213l10.83,45.867m-7.892,-54.574l12.648,53.568" style="fill:none;fill-rule:nonzero;stroke:#000;stroke-width:0.94px;"/><path d="M1124.96,620.693l9.765,41.358m-16.226,-19.046l-0.99,0.234l5.116,21.669m8.083,-24.786l-1.099,0.26m1.099,-0.26l5.116,21.669m68.807,-3.123l0.142,-0.382m-4.703,1.226l0.627,0.2m1.081,7.526l-1.708,-7.726m1.236,8.186l0.472,-0.46m-5.642,1.68l5.17,-1.22m-5.688,0.994l0.518,0.226m-5.329,-20.109l4.811,19.883m-5.911,-19.623l1.1,-0.26m11.11,-2.623l0.989,-0.233m-9.124,-33.729l0.162,0.194m10.687,46.25l-3.934,1.044m-6.915,-47.488l-4.316,0.903l-0.252,0.408m-2.226,-7.952l0.434,0.362m-0.434,-0.362l-5.72,1.351l-0.226,0.518m12.902,4.966l10.829,45.868m-17.351,-52.341l12.648,53.567m-19.028,-52.06l9.765,41.357m5.993,-24.292l0.99,-0.233l5.116,21.669m-18.315,-18.553l1.1,-0.26m-1.1,0.26l5.116,21.669m-55.726,4.913l53.882,-12.723m-55.311,6.673l53.883,-12.722m-80.338,25.355l-1.428,-6.05l14.684,-3.467m1.428,6.05l-14.684,3.467m109.65,-25.889l-1.429,-6.05l-14.684,3.467m1.429,6.05l14.684,-3.467m-104.282,-69.689l-0.235,-0.333m4.861,-0.012l-0.556,0.353m0.872,7.553l-0.316,-7.906m0.89,8.23l-0.574,-0.324m5.884,0.188l-5.31,0.136m5.753,-0.486l-0.443,0.35m0.032,-20.803l0.411,20.453m0.718,-20.482l-1.129,0.029m-11.412,0.293l-1.016,0.026m0.234,-34.94l-0.107,0.229m1.443,47.446l4.07,0.008m-5.406,-47.683l4.404,-0.226l0.347,0.33m0.128,-8.256l-0.328,0.46" style="fill:none;fill-rule:nonzero;stroke:#000;stroke-width:0.94px;"/><path d="M1115.01,509.16l5.875,-0.151l0.35,0.443m-11.211,8.089l1.208,47.113m3.45,-55.034l1.411,55.022m5.142,-55.19l1.09,42.481m-11.982,-21.964l-1.017,0.026l0.571,22.257m12.987,-22.605l-1.13,0.029m1.13,-0.029l0.57,22.257m67.989,11.032l0.217,-0.345m-4.855,0.238l0.573,0.324m-0.483,7.588l-0.09,-7.912m-0.467,8.265l0.557,-0.353m-5.867,0.489l5.31,-0.136m-5.77,-0.191l0.46,0.327m-1.098,-20.774l0.638,20.447m-1.768,-20.418l1.13,-0.029m11.411,-0.292l1.017,-0.027m-2.025,-34.882l0.119,0.223m0.991,47.458l-4.065,0.217m2.955,-47.898l-4.409,0l-0.33,0.348m-0.551,-8.239l0.351,0.443m-0.351,-0.443l-5.875,0.151l-0.327,0.46m11.611,7.503l1.208,47.113m-6.266,-54.784l1.411,55.022m-7.964,-54.854l1.089,42.481m10.841,-22.55l1.016,-0.026l0.571,22.257m-14.128,-21.909l1.13,-0.029m-1.13,0.029l0.57,22.257m-55.551,-6.602l55.346,-1.419m-55.506,-4.795l55.346,-1.42m-83.827,8.368l-0.159,-6.214l15.083,-0.387m0.159,6.214l-15.083,0.387m112.627,-2.888l-0.159,-6.214l-15.083,0.387m0.16,6.214l15.082,-0.387m-215.724,-75.711l0.301,-0.301m1.054,0.603l-1.355,-0.302m3.013,0.151l-1.658,0.151m1.809,-0.452l-0.151,0.301m-1.658,-0.452l0.453,-0m-9.944,1.055l-0,0.452m-0,-145.84l-0,0.452m0.602,-0.754l-0.602,0.302m-0,145.84l0.753,0.301m2.26,-146.894l-2.411,0.451" style="fill:none;fill-rule:nonzero;stroke:#000;stroke-width:0.94px;"/><path d="M984.128,467.525l2.411,0.452m227.046,-147.346l-227.197,-0m0.151,147.346l227.196,-0m2.26,-146.895l-2.41,-0.451m0.15,147.346l2.411,-0.452m0.603,-0.301l-0,-0.452m-0.603,0.753l0.603,-0.301m-0,-145.84l-0.754,-0.302m0.754,0.754l-0,-0.452m-224.335,144.333l0.302,-0m-9.492,-2.26l0.151,3.315m-0,-144.936l-0.151,3.465m3.917,134.239l-3.917,3.917m3.917,-134.239l0,130.322m-3.917,-134.239l3.917,3.917m6.328,136.499l0.301,-0m219.212,-136.499l0,130.322m3.917,3.917l-0.15,3.315m-3.767,-7.232l3.917,3.917m0,-138.156l-3.917,3.917m3.767,-7.382l0.15,3.465m-131.527,138.307l0,1.657m0.151,0.151l28.776,-0m0.151,-1.808l-29.078,-0m29.078,1.054l-0,-1.054m-0.151,1.808l0.151,-0.754m-28.776,-139.662l-0,-1.055l0.15,-0.753l28.776,-0m0.151,1.808l-29.077,-0m29.077,-1.658l0,1.658m-122.939,140.717l0.904,0.151m0.15,-0l0.302,0.15m0.301,-0.15l1.206,-0m-11.3,0.904l4.52,-4.369m-4.52,-140.567l4.52,4.369m0.753,134.54l-0.753,1.658m-0,-136.198l0.753,1.506m0.753,127.912l-0.753,5.122m0.753,-127.911l0,122.789m-0.753,-127.912l0.753,5.123m221.321,0.151l0,122.788m0.753,-127.911l-0.753,5.123m0,122.788l0.753,5.123m0.754,-134.691l-0.754,1.657m0,133.034l0.754,1.507m-0,-136.198l4.52,-4.369m-4.52,140.567l4.52,4.369m-412.588,221.969l-3.102,-0.165m5.715,-1.365l-2.613,1.53" style="fill:none;fill-rule:nonzero;stroke:#000;stroke-width:0.94px;"/><path d="M807.848,685.871l-1.074,1.34m1.837,-4.132l-0.763,2.792m-149.52,-90.733l-6.403,-3.165m79.314,161.957l-0.266,-0.365m0.588,1.063l-0.322,-0.698m-0.266,-0.365l0.83,-1.163m123.874,-90.165l1.151,-0.465l0.421,0.066m-226.693,-219.03l-0.62,1.196m0.586,-3.035l0.034,1.839m-0.533,-2.78l0.499,0.941m-29.905,30.339l0.177,0.243l-0.374,7.167m1.103,-11.797l-0.906,4.387m1.925,-6.06l-1.019,1.673m3.123,-3.39l-2.104,1.717m3.865,-2.626l-1.761,0.909m3.577,-1.486l-1.816,0.577m12.545,-9.132l-1.229,1.64m3.731,-3.834l-2.502,2.194m3.687,-2.87l-1.185,0.676m3.09,-1.131l-1.905,0.455m3.29,-0.345l-1.385,-0.11m1.628,-0.067l-0.243,0.177m3.19,0.287l-2.947,-0.464m8.231,1.835l-5.284,-1.371m7.112,2.09l-1.828,-0.719m135.775,261.543l-3.102,-0.165m5.715,-1.364l-2.613,1.529m3.687,-2.87l-1.074,1.341m1.837,-4.133l-0.763,2.792m40.954,14.538l6.561,9.013m-8.223,-10.785l1.662,1.772m6.439,9.102l0.92,1.007l1.34,-0.975l0.221,-0.72m-0.144,-0.454l-8.157,-11.206m8.301,11.66l-0.144,-0.454m-113.122,-29.462l-6.848,-9.922l-0.821,-1.639l-1.33,-3.876m37.135,47.69l-2.448,0.478m-34.687,-48.168l-0.778,-4.652m0.365,-2.315l-0.177,-0.243m-0.188,2.558l0.365,-2.315m39.618,53.15l-2.07,1.507m-37.725,-54.9l0.53,-3.368m40.317,54.878l-1.052,1.883m1.306,-2.814l-0.254,0.931m-28.682,-42.477l14.063,19.577" style="fill:none;fill-rule:nonzero;stroke:#000;stroke-width:0.94px;"/><path d="M711.408,686.75l1.641,3.278m-11.635,-12.401l1.682,-3.833m7.491,9.268l0.821,3.688m-8.312,-12.956l1.018,-1.672m6.871,8.415l-0.398,2.525m1.084,-4.143l-0.686,1.618m1.151,-2.515l-0.465,0.897m-7.557,-6.797l3.344,-4.111m6.826,7.33l-2.148,2.681m-4.678,-10.011l8.636,-7.591m6.704,7.419l-8.514,7.502m15.556,-13.187l-7.042,5.685m-6.704,-7.419l10.519,-8.588m5.913,-4.676l13.166,-10.328m29.725,-7.289l-3.743,2.538m-9.649,-5.833l8.271,-5.276m14.146,3.306l-9.025,5.265m-5.121,-8.571l9.269,-5.442m8.543,7.384l-3.666,1.364m5.294,-1.431l-1.628,0.067m-8.543,-7.384l4.031,-1.63m7.048,8.659l-0.908,0.288m-6.14,-8.947l1.938,-0.665m7.514,9.81l-2.404,-0.486m5.096,1.881l-2.692,-1.395m5.251,3.631l-2.559,-2.236m34.995,43.471l-1.174,-0.077m-44.027,-54.599l5.494,-0.645m41.612,54.866l-1.905,0.455m-39.707,-55.321l5.438,1.072m38.245,52.287l-2.071,1.507m-36.174,-53.794l4.487,2.325m35.086,47.691l-1.328,2.271m1.306,-2.814l0.022,0.543m-35.086,-47.691l2.892,2.18l2.05,2.049l15.725,21.348m-75.579,122.466l-9.841,-13.52m126.04,-71.059l-116.199,84.579m106.359,-98.099l9.84,13.52m-302.137,-146.042l-9.575,-13.154l-0.61,-1.606m12.179,16.477l-1.994,-1.717m-10.185,-14.76l-0.189,-1.539m14.495,18.89l-2.127,-0.874m-12.368,-18.016l0.808,-1.706m16.279,20.573l-2.592,0.023m-13.687,-20.596l0.797,-0.953m17.963,20.838l-2.481,0.688m48.713,-28.563l-46.232,27.875" style="fill:none;fill-rule:nonzero;stroke:#000;stroke-width:0.94px;"/><path d="M618.596,505.736l-3.067,1.674m-64.195,7.037l49.086,-35.729m22.296,25.51l-4.12,1.508m7.797,-1.576l-3.677,0.068m7.089,1.548l-3.412,-1.616m6.382,4.672l-2.97,-3.056m12.778,16.787l-9.808,-13.731m22.079,-16.258l10.229,13.797m-12.224,-17.562l1.995,3.765m-2.395,-7.386l0.4,3.621m0.917,-7.188l-1.317,3.567m4.018,-7.024l-2.701,3.457m5.236,-5.862l-2.535,2.405m43.27,-37.831l-40.735,35.426m-22.781,-23.107l48.964,-35.64m15.969,21.172l-1.417,2.149m-14.552,-23.321l1.152,-0.465m15.514,19.266l-0.697,2.371m0.464,-2.947l0.233,0.576m-15.514,-19.266l1.993,-0.334m13.254,17.185l0.034,1.839m-13.288,-19.024l1.319,0.532m10.915,14.228l1.02,2.425m-10.595,-15.58l9.575,13.155m-10.915,-14.228l1.34,1.073m-43.771,114.966l-0.044,0.964m1.25,-3.146l-1.206,2.182m56.164,78.186l3.499,-2.36l2.681,0.099m-57.063,-80.701l-0.177,-0.243m40.106,54.844l-10.273,-14.882m43.972,28.924l0.608,-2.492m-54.603,-79.882l-1.208,0.133m1.905,-0.454l-0.697,0.321m1.838,-0.034l-1.141,-0.287m53.906,80.203l3.444,-2.693m-34.85,-66.31l-3.634,-2.945m4.72,2.9l-1.086,0.045m46.609,196.383l-0.355,-0.487m-23.172,-31.58l0.598,0.31m23.738,32.101l-0.809,-0.344m-22.929,-31.757l1.805,0.177m23.771,31.89l-1.838,0.034m3.289,-0.345l-1.451,0.311m-23.771,-31.89l3.024,-0.71l1.517,-0.732m24.015,31.713l-3.334,1.308m6.523,-3.071l-3.189,1.763m-23.683,-31.769l4.374,-2.438l2.924,-2.128" style="fill:none;fill-rule:nonzero;stroke:#000;stroke-width:0.94px;"/><path d="M756.832,715.364l-4.263,3.103m-19.574,-34.572l2.502,-2.194m23.992,31.17l-2.657,2.493m-21.335,-33.663l1.074,-1.34m0.243,-0.178l1.595,-1.906m23.505,31.525l-2.425,3.069m-21.08,-34.594l1.361,-2.481m23.228,31.912l-1.084,2.094m19.601,-64.205l2.204,-0.3l2.425,-1.02m0.244,-0.177l1.728,-0.699l2.857,-1.707l4.418,-3.402l2.081,-2.26m0.122,-0.089l1.594,-1.906l1.361,-2.481l0.144,-1.595m-83.178,9.115l-18.829,-25.611l-0.699,-1.728l-0.222,-1.329l-0.255,-3.168m0.276,-0.388l-0.354,-0.487m0.078,0.875l0.276,-0.388m-0.354,-0.487l-0.3,-2.204m-46.512,-64.157l-4.755,-6.787m5.142,7.064l-0.387,-0.277m46.512,64.157l-0.732,-1.517l-21.721,-29.842l-1.119,-1.794l-0.266,-0.365m-27.429,-37.426l-4.566,-7.298l-0.2,-0.786m5.918,7.618l0.167,0.997m-6.085,-8.615l0.133,-0.842l1.351,-1.728m5.762,7.917l-1.328,2.271m56.641,78.585l3.289,-2.394l2.592,-0.023m16.809,-12.235l0.818,-2.459m-62.083,-87.854l1.727,-0.698m6.273,8.105l-2.237,0.51m3.134,-0.045l-0.897,-0.465m54.083,80.447l3.289,-2.394m-63.645,-86.158l1.053,0.166l0.388,0.276m11.303,14.506l3.103,4.263m-14.406,-18.769l5.363,6.345m32.304,44.126l19.151,26.309m-19.538,-26.586l0.387,0.277m-26.685,-36.663l0.321,0.698" style="fill:none;fill-rule:nonzero;stroke:#000;stroke-width:0.94px;"/><path d="M673.614,512.46l5.619,7.463m45.836,62.972l1.252,0.952m1.318,0.531l0.354,0.487m-1.672,-1.018l1.318,0.531m0.354,0.487l0.665,-0.111l3.235,1.373m1.938,1.383l28.194,38.734m-30.132,-40.117l1.938,1.383m-26.177,16.259l-8.068,-11.084m-2.626,-3.864l-4.522,-6.212m-3.513,-5.083l3.513,5.083m-0.676,-1.185l-2.837,-3.898m-6.76,-9.799l6.76,9.799m6.161,-19.95l1.242,1.705m25.501,178.393l0.487,-0.354m2.66,3.654l-0.487,0.354m116.889,-78l0.598,0.31l0.908,-0.288l7.674,-5.586l0.431,-0.687l-0.288,-0.908m-53.284,-20.469l0.177,0.243m-0.122,0.089l-0.055,-0.332m-11.273,8.577l-0.177,-0.244l0.244,-0.177l0.177,0.244m-44.277,125.022l0.93,0.255l2.968,-1.042l4.64,-2.074l4.95,-2.671l15.481,-9.963l13.819,-9.686m56.793,-41.525l17.439,-14.184l4.064,-3.89l3.399,-3.778l1.627,-2.116l0.31,-0.599l-0.022,-0.542m-220.573,-90.815l-0.822,-5.737l-0.255,-1.119m1.019,0.376l-0.764,0.743m1.827,-1.33l0.179,6.391m-0.401,-7.72l0.222,1.329m22.043,5.197l0.144,0.454m-6.439,-11.151l0.299,0.155m0.388,0.277l0.177,0.243m-0.476,-0.398l0.299,0.155m3.579,4.661l2.029,5.604m-5.221,-9.989l0.178,0.244l0.299,0.155" style="fill:none;fill-rule:nonzero;stroke:#000;stroke-width:0.94px;"/><path d="M668.955,579.018l-0.377,-1.03m1.961,-0.122l-1.584,1.152m-3.491,-4.539l1.706,-1.242m22.33,-52.775l0.178,0.243m-2.893,-4.23l0.466,1.152m-2.049,0.001l1.583,-1.153m3.458,4.751l-1.584,1.152m2.093,-0.964l-0.299,-0.155m0.776,0.553l-0.388,-0.276m0.776,0.553l-0.3,-0.155m-4.532,-5.459l-2.051,-6.146m22.376,7.191l-0.399,-1.573m1.185,-0.676l-0.023,-0.543m0.754,0.011l0.222,1.329m-0.222,-1.329l-0.731,0.532m-1.185,0.676l-0.124,-6.059m1.129,-1.008l0.911,5.859m127.39,148.392l3.045,-2.216m-3.71,-27.113l-13.732,7.758m16.091,-8.357l-2.359,0.599m14.063,19.577l2.192,-1.596l0.676,-0.864m-12.435,-17.595l-2.137,-0.121m2.381,-0.057l-0.244,0.178m0.753,0.01l-0.509,-0.188m12.191,17.773l0.564,-1.529m-10.628,-15.37l-1.618,-0.686m12.246,16.056l-0.189,-1.54m-8.533,-12.235l-1.906,-1.595m9.974,12.679l-8.068,-11.084m8.533,12.235l-0.465,-1.151m-116.467,-2.059l-3.2,2.516m-103.166,-202.919l-0.764,0.743m82.122,287.925l8.067,11.084l0.953,0.797m-9.952,-14.185l0.932,2.304m9.02,11.881l1.529,0.564m-11.747,-17.163l0.266,2.414m11.481,14.749l2.57,-0.566m-13.654,-18.757l-0.663,2.16m1.959,-4.221l-1.296,2.061m13.654,18.757l2.07,-1.507m-6.124,-26.846l-8.304,7.535m15.633,-14.361l3.267,-2.936m36.697,6.642l-25.091,18.263m-13.042,14.338l-0.775,-0.553m1.562,0.353l-0.787,0.2m8.46,-5.785l-7.673,5.585m8.227,-6.36l-0.554,0.775m0.442,-1.44l0.112,0.665" style="fill:none;fill-rule:nonzero;stroke:#000;stroke-width:0.94px;"/><path d="M736.161,736.373l1.684,2.314m42.461,-69.664l-2.192,1.596m-111.388,-97.991l-0.166,-0.996m5.408,7.43l-1.429,-1.196m2.049,2.048l-0.62,-0.852m-5.408,-7.43l-2.45,-3.621m9.376,12.368l-0.898,-0.465m-8.478,-11.903l-2.704,-4.74l-2.782,-5.614l-1.253,-3.002l0.409,-1.229m18.773,25.279l-3.067,1.674m-15.706,-26.953l-0.344,-1.241m19.184,26.099l-0.067,0.421m-1.263,-2.248l1.33,1.827m-2.804,-4.108l1.562,2.403m-17.942,-24.394l-1.23,-2.458m15.493,20.773l2.117,3.676m-2.616,-4.618l0.499,0.942m-0.555,-1.274l0.056,0.332m-0.322,-0.697l-0.864,-0.675m1.13,1.04l-0.266,-0.365m-14.672,-19.134l-1.652,-4.574m18.74,25.49l-2.15,-1.417m13.862,-42.139l-0.244,0.177m-0.255,-1.118l-1.85,-1.262m2.349,2.203l-0.499,-0.941m-1.552,-3.156l1.552,3.156m16.679,24.194l-1.973,-5.271m-20.148,-28.192l3.89,6.113m16.258,22.079l-1.142,-2.337l-0.111,-0.664l0.409,-1.23l-0.698,-1.727l-3.924,-7.951m-11.493,-16.045l-3.189,1.762m3.91,-1.541l-0.721,-0.221m8.345,10.696l-1.418,-1.949m4.566,7.298l-3.148,-5.349m-5.397,-8.183l-2.227,-2.292m6.206,8.526l-0.522,-1.484m112.318,209.86l8.423,11.571l0.963,0.044m1.34,-0.975l-0.975,-1.34m-0.365,2.315l1.34,-0.975m-8.655,-12.147l-2.071,1.507m9.751,9.3l-7.68,-10.807m0.609,-0.444l8.891,-6.472m8.245,11.328l-8.891,6.472m0.646,-17.8l8.245,11.328" style="fill:none;fill-rule:nonzero;stroke:#000;stroke-width:0.94px;"/><path d="M745.692,636.828l-9.966,7.812m-17.789,-30.84l-1.507,-2.07m2.371,2.746l-0.864,-0.676m-1.507,-2.07l-0.433,-1.363l-0.189,-1.539m4.909,6.489l-1.916,-0.841m2.969,1.006l-1.053,-0.165m-4.909,-6.489l0.265,-1.684m5.94,8.161l-0.243,0.177m-5.697,-8.338l0.531,-1.318m7.248,9.445l-1.839,0.034m-5.409,-9.479l0.831,-1.163m7.901,10.087l-1.484,0.521m-6.417,-10.608l1.129,-1.009m8.599,9.766l-1.827,1.33m-6.772,-11.096l1.761,-0.909m0.21,0.034l0.576,-0.233m7.347,8.813l-1.295,2.061m-5.842,-10.841l1.33,-0.222m6.316,7.141l-0.476,1.651m0.298,-1.894l0.178,0.243m-6.316,-7.141l1.772,0.387l0.421,0.066m4.022,5.271l-0.077,1.174m-0.178,-2.293l0.288,0.908m-4.055,-5.06l1.495,0.775m1.219,1.162l1.086,2.005m-2.305,-3.167l1.219,1.162m140.452,71.618l0.499,0.942m-38.948,-9.477l-20.95,15.249m-200.388,-221.034l-1.064,-1.462m-10.695,-14.948l0.31,-0.599l8.161,-5.94l0.786,-0.199m10.938,14.771l1.064,1.462m183.336,233.446l-5.602,4.078m-15.835,11.525l-4.994,3.635m-87.024,-193.798l0.354,0.487m-1.141,-2.336l0.787,1.849m0.354,0.487l0.721,0.222m-1.973,-3.223l0.111,0.665m0.199,-1.263l-0.31,0.598m1.973,3.223l2.635,-0.987l3.433,-1.94l2.226,-1.806m-0.822,-5.737l-9.135,6.649m10.22,-6.694l-1.085,0.045m0.822,5.737l2.48,-2.737l0.376,-1.019m-0.41,-0.82l-2.183,-1.206" style="fill:none;fill-rule:nonzero;stroke:#000;stroke-width:0.94px;"/><path d="M699.829,506.236l-0.41,-0.82m-6.995,14.967l0.411,0.82l1.905,1.594l0.421,0.066m-2.117,-3.676l-0.62,1.196m2.336,-3.191l-1.716,1.995m4.462,-4.366l-2.746,2.371m5.481,-3.989l-2.735,1.618m5.282,-2.727l-2.547,1.109m4.631,2.778l0.31,-0.598m-1.186,-3.422l-1.208,0.133m1.861,0.509l-0.653,-0.642m1.186,3.422l-0.533,-2.78m-81.63,-82.197l0.742,0.764m32.15,158.088l0.499,0.941m-0.156,-1.75l-0.343,0.809m0.499,0.941l1.972,1.173l0.842,0.133m0.274,-6.535l-3.244,3.479m5.681,-5.252l-2.437,1.773m5.139,-3.181l-2.702,1.408m7.033,1.216l0.1,-0.632m-1.918,-2.89l-2.513,0.898m3.411,-0.433l-0.898,-0.465m1.918,2.89l-1.02,-2.425m-16.215,2.299l-0.742,-0.764m1.495,0.775l-0.753,-0.011m-0.742,-0.764l-0.477,-2.448l0.221,-0.72m5.816,2.102l-4.065,1.841m7.232,-4.146l-3.167,2.305m4.695,-3.789l-1.528,1.484m-8.983,0.203l9.379,-6.826l0.875,-0.078m2.128,2.923l-1.871,2.294m1.97,-2.925l-0.099,0.631m-2.128,-2.923l1.994,1.716l0.233,0.576m137.006,124.995l-0.177,-0.243m-0.044,0.963l0.221,-0.72m-0.177,-0.243l0.099,-0.632m-15.446,11.803l-0.388,-0.277m1.141,0.287l-0.753,-0.01m-194.186,-248.096l-0.621,-0.853m0.31,-0.598l-0.354,-0.487m0.044,1.085l0.31,-0.598m-0.354,-0.487l0.066,-0.421l2.037,-1.297l0.1,-0.631m4.309,0.031l-5.847,4.256" style="fill:none;fill-rule:nonzero;stroke:#000;stroke-width:0.94px;"/><path d="M596.558,458.051l-0.099,0.631m-4.309,-0.031l3.288,-2.394l0.632,0.1m1.916,0.841l-1.428,0.853m1.528,-1.485l-0.1,0.632m-0.698,-1.728l0.798,1.096m-2.016,-0.209l1.218,-0.887m18.659,-10.973l-0.621,-0.852l0.31,-0.599l-0.41,-0.819l2.159,-1.385l0.1,-0.632m4.308,0.032l-5.846,4.255m5.946,-4.887l-0.1,0.632m-4.308,-0.032l3.288,-2.393l0.388,0.276m2.16,0.664l-1.428,0.853m-0.732,-1.517l1.34,-0.975m0.92,1.008l-0.1,0.631m-0.82,-1.639l0.92,1.008m170.768,298.866l34.747,-25.478m0.299,0.155l-0.299,-0.155m2.226,-1.806l0.276,-0.388m-113.915,-20.313l20.829,-15.16m41.656,-30.321l19.976,-14.539m0.266,0.365l-19.976,14.54m-82.774,-143.415l6.315,3.044m-39.949,62.618l-2.715,-3.986m3.369,4.628l-0.654,-0.642m0.631,0.099l0.023,0.543m-3.336,-4.839l-1.585,-2.946l-0.322,-0.697m4.023,5.27l1.197,2.669m-5.22,-7.939l-0.11,-0.665l4.133,5.935m94.767,109.716l0.487,-0.354m86.296,-24.801l0.487,-0.354m2.66,3.654l-0.488,0.354m-12.525,3.528l0.365,-0.266m2.66,3.654l-0.366,0.266m-178.239,-88.461l1.086,-0.045l4.11,3.343m-74.174,-104.208l-1.185,-1.373m1.185,1.373l-0.266,-0.365m1.13,1.04l-0.864,-0.675m2.338,0.907l-1.474,-0.232m2.382,-0.056l-0.908,0.288m2.336,-1.141l-0.609,0.443m90.375,39.683l-0.132,0.842m41.879,141.503l-9.098,-12.756" style="fill:none;fill-rule:nonzero;stroke:#000;stroke-width:0.94px;"/><path d="M670.841,586.217l0.133,-0.842m-87.408,-124.949l-0.853,-1.428m0.266,0.365l-0.266,-0.365l-0.377,-1.03l0.232,-1.473l0.554,-0.776m0.52,-0.565l0.244,-0.177m37.493,-25.8l-1.838,0.034m3.035,0.586l-1.197,-0.62m236.491,233.513l6.416,8.56m-53.558,70.288l0.553,-0.776m0.177,0.244l-0.642,0.654m-74.245,-61.299l-0.177,-0.244m0.243,-0.177l0.177,0.243m-0.42,-0.066l0.243,-0.177m-107.235,-240.764l0.743,0.764m95.22,248.577l-0.056,-0.332l0.388,0.276m-115.196,-114.088l-20.852,-28.648l28.648,-20.853m20.852,28.648l-28.648,20.853m7.796,-49.501l20.852,28.648m123.965,82.924l37.945,52.132m-37.945,-52.132l0.399,-0.476m-0.212,-2.082l0.178,0.243l0.034,1.839m-0.212,-2.082l0.775,-1.496m-0.3,-2.204l0.3,2.204m-0.3,-2.204l0.399,-0.476l1.273,-0.555l1.662,-0.277l1.13,1.04m2.282,0.575l34.487,47.382m-36.769,-47.957l2.282,0.575m34.487,47.382l3.602,5.204m-160.675,-96.587l3.989,5.481m-1.152,-1.583l7.898,3.94m-0.343,0.808l0.343,-0.808m72.89,160.298l10.55,14.494m-1.064,-1.461l1.207,-0.133l1.761,-0.909m43.696,-54.911l0.354,0.487m-56.262,40.207l123.874,-90.165m-55.908,40.694l0.355,0.487m-12.059,8.777l12.059,-8.777m-56.109,63.201l121.437,-88.392l1.406,-1.396m-9.609,-14.993l6.916,9.5m2.693,5.493l0.62,-1.196m-3.103,-4.263l3.635,4.993" style="fill:none;fill-rule:nonzero;stroke:#000;stroke-width:0.94px;"/><path d="M619.372,451.507l10.564,-7.503m-0.576,0.233l0.863,-1.374m0.144,-1.594l-0.144,1.594m-0.377,-3.079l0.521,1.485m-7.791,-11.472l7.447,10.231m-28.881,43.009l1.796,2.979l2.116,1.627m-4.622,-7.629l0.71,3.023m-0.722,-4.319l0.012,1.296m4.622,7.629l5.174,2.756l8.031,3.098l5.118,2.424l6.603,3.951l3.579,2.613l0.831,0.886l1.074,0.708l0.444,0.609l1.074,0.709l3.092,2.967l4.776,5.281l2.282,2.625l4.91,6.488l1.34,1.074m-45.159,-61.787l0.697,-0.322m44.462,62.109l1.618,0.686m-46.08,-62.795l0.543,-0.022l1.119,-0.255m44.418,63.072l2.138,0.121m-46.556,-63.193l1.506,0.022m45.05,63.171l2.237,-0.51m-47.287,-62.661l2.736,0.43l0.698,-0.321m43.853,62.552l2.07,-1.507m-45.923,-61.045l0.586,-3.035l0.442,-1.44m44.895,65.52l1.395,-2.693m-46.29,-62.827l0.586,-0.986l0.156,-0.299m45.747,62.85l-0.199,1.262m-45.548,-64.112l0.431,-0.687m44.783,60.757l0.533,2.78m-7.582,-13.488l7.049,10.708m-7.193,-11.162l0.177,0.243m-3.147,-5.348l2.97,5.105m-4.811,-9.169l1.841,4.064m-2.073,-4.64l0.232,0.576m-1.252,-3.001l1.02,2.425m-1.608,-3.488l0.588,1.063m-1.974,-5.272l1.386,4.209m-3.117,-11.707l1.731,7.498" style="fill:none;fill-rule:nonzero;stroke:#000;stroke-width:0.94px;"/><path d="M644.812,474.17l0.733,5.615m-1.268,-14.542l0.535,8.927m-8.581,-21.518l1.229,0.41m5.84,6.743l0.977,5.438m-6.817,-12.181l2.659,1.605m2.283,2.624l0.898,2.514m-3.181,-5.138l2.283,2.624m86.729,203.889l37.945,52.131m-38.001,-54.513l0.177,0.244l-0.121,2.138m-0.056,-2.382l1.405,-3.445l0.454,-0.144l1.197,0.62l1.783,-0.367l0.365,-0.265l1.407,0.652m1.207,-0.133l33.247,45.676m-34.454,-45.543l1.207,-0.133m33.247,45.676l4.488,6.422m-73.563,-157.385l0.919,1.008m-0.798,-1.097l4.345,5.969m79.49,187.543l44.303,-32.061m-118.851,-8.149l23.051,31.669l2.637,1.062m5.524,-7.002l0.3,2.203m-14.873,-21.969l14.573,19.766m-14.95,-77.627l5.791,-4.588m4.722,9.047l4.938,-3.967m-3.181,-5.138l47.61,65.408m-44.429,-60.27l0.277,-0.388m10.672,-15.034l19.061,26.187m-33.191,-15.903l14.13,-10.284m3.014,4.141l0.244,-0.178l44.594,61.267m-44.151,-60.657l0.454,-0.145m-11.598,-4.414l6.356,-4.068l3.62,-2.449m1.622,10.931l6.356,-4.067m-7.978,-6.864l6.357,-4.067m36.274,0.428l2.394,3.289l23.084,31.458l3.99,5.481l1.794,0.93m6.156,-6.903l0.3,2.204m-14.397,-21.571l14.097,19.367m-187.372,-130.447l2.801,-4.088m-2.712,4.21l2.801,-4.089m84.965,223.993l116.2,-84.579m-130.793,-68.587l3.547,4.872m5.142,7.064l14.185,19.489" style="fill:none;fill-rule:nonzero;stroke:#000;stroke-width:0.94px;"/><path d="M744.481,628.765l3.79,4.694m-23.117,-31.247l1.019,0.376m3.635,4.994l0.488,1.694m-4.123,-6.688l1.64,1.229l1.329,1.827l0.61,1.606m18.729,26.243l1.418,-0.101m-28.292,-36.052l2.902,-0.622m25.39,36.674l1.761,-0.909l0.299,0.155m-27.328,-36.009l1.263,0.199l0.243,-0.177m0.211,0.033l3.633,0.896m3.257,1.915l22.43,30.816m-25.687,-32.731l3.257,1.915m-43.35,-78.757l0.355,0.488m-0.178,-0.244l0.3,0.155m-47.782,1.426l2.723,-2.915l5.308,6.013m-16.224,-22.29l17.643,24.239m132.201,216.442l0.521,-0.565m0.122,-0.089l1.273,-0.554l45.012,-33.136m-181.912,-217.153l14.451,19.853m-2.56,-4.285l2.56,4.285m-2.56,-4.285l3.942,-1.752m105.057,195.021l3.078,-2.427l0.188,-0.51m-15.058,-13.263l5.482,-3.989m9.41,16.256l0.166,0.996m-11.16,-16.1l10.994,15.104m-78.02,-195.508l0.354,0.488l1.583,-1.153m0.1,-0.631l-0.1,0.631m-12.291,8.201l12.634,-9.01m-50.316,33.271l56.474,77.588m5.914,-2.627l0.465,-0.898m-0.023,-0.543l0.023,0.543m-10.451,-15.126l10.428,14.583m-58.336,-80.146l0.654,0.643l0.476,0.398m39.63,54.446l7.148,10.076m-46.778,-64.522l0.299,0.155l0.178,0.244m0.21,0.033l0.177,0.243m24.635,32.566l3.858,6.323m-27.086,-38.236l0.299,0.155m21.998,29.454l0.931,2.304m-22.718,-31.725l1.141,0.288m-0.631,-0.1l1.894,0.299" style="fill:none;fill-rule:nonzero;stroke:#000;stroke-width:0.94px;"/><path d="M676.899,556.652l0.477,2.448m-0.544,-4.076l0.177,0.244l-0.11,1.384m-18.906,-26.486l1.118,-0.255m17.721,25.113l0.321,-1.351l0.498,-1.108m-18.329,-22.621l2.181,-0.843m16.148,23.464l1.073,-1.341l2.071,-1.507m-19.292,-20.616l3.776,-2.748m15.516,23.364l2.27,-0.721m-17.786,-22.643l1.628,-2.117m16.158,24.76l2.26,0.033m-18.418,-24.793l0.597,-1.739m17.821,26.532l2.038,0.752m-19.881,-27.826l0.022,0.542m19.859,27.284l2.715,1.937m-22.63,-31.602l0.034,1.839m22.596,29.763l1.961,1.927l3.047,3.931m2.283,2.624l3.369,4.628m-5.652,-7.252l2.283,2.624m-30.232,-41.535l0.177,0.244m-0.321,-0.698l0.177,0.244m32.416,44.79l2.903,3.477l7.27,9.987m-42.966,-59.284l0.233,0.576m38.92,53.471l5.974,7.95m-45.537,-62.817l0.41,0.82m-0.942,-1.551l0.798,1.097m45.271,62.451l12.711,17.207m-58.78,-80.755l0.332,-0.055l4.751,-1.409m3.046,-0.167l56.475,77.588m-38.75,-69.62l4.72,2.9m21.098,163.896l12.856,17.662l11.115,15.015l0.476,0.398m-23.815,-32.975l20.302,27.893m-20.668,-27.627l20.829,-15.16m3.352,47.869l1.263,0.199l2.326,-0.389l2.392,-0.809m-22.586,-32.566l0.332,-0.056m22.254,32.622l4.341,-2.228l4.872,-3.546l1.893,-1.751m-22.486,-33.197l0.243,-0.178m22.243,33.375l2.082,-2.26l2.037,-3.346" style="fill:none;fill-rule:nonzero;stroke:#000;stroke-width:0.94px;"/><path d="M804.832,677.631l3.478,-0.854m-22.166,-32.5l0.244,-0.177m21.922,32.677l2.669,-1.198l2.369,-1.352l4.263,-3.103l2.658,-2.493l2.269,-2.77l1.428,-2.903m0.044,-0.963l-0.044,0.963m-0.189,-1.539l0.233,0.576m-106.495,-22.919l9.22,12.668m-75.728,-111.463l3.547,4.872m-0.443,-0.609l0.565,0.52m13.863,18.791l4.755,6.788m-18.618,-25.579l13.863,18.791m41.557,52.485l22.43,30.816m-23.229,-33.962l0.799,3.146m-0.855,-5.527l0.056,2.381m0.275,-4.485l-0.331,2.104m48.914,62.594l14.041,-10.406m-60.698,-58.303l3.723,5.116m-20.446,-28.347l16.723,23.231m-26.698,-37.958l9.975,14.727m20.412,26.508l0.034,1.839m-33.779,-48.456l3.358,5.382m-4.666,-8.715l1.308,3.333m33.745,46.617l0.631,-1.949m-35.929,-49.873l0.245,1.872m-0.245,-1.872l0.288,-1.141m35.641,51.014l0.863,-1.374m-36.504,-49.64l0.587,-0.986m35.917,50.626l1.285,-1.308m-37.202,-49.318l1.948,-1.419m35.254,50.737l2.004,-1.086m-37.258,-49.651l1.241,-0.343l1.684,0.265m34.333,49.729l1.573,-0.399m-35.906,-49.33l2.271,1.328m33.635,48.002l1.717,0.054m-35.352,-48.056l2.437,2.325m32.915,45.731l0.243,-0.177m-33.158,-45.554l14.118,17.86l17.144,23.298m1.896,4.396l1.651,0.476m32.824,70.952l14.129,-10.285m-108.406,-150.471l2.061,3.345l0.333,-0.056l4.751,-1.409m17.951,19.543l12.268,16.598m-18.408,-25.545l6.14,8.947" style="fill:none;fill-rule:nonzero;stroke:#000;stroke-width:0.94px;"/><path d="M593.672,470.214l13.487,-9.631m-2.89,1.918l0.586,-0.986m-11.712,-13.276l2.026,-0.543m9.686,13.819l0.232,-1.474m-9.918,-12.345l1.352,0.32l1.074,0.709l7.004,9.622l0.488,1.694m-21.965,-4.322l13.431,-9.962l10.606,14.826m102.855,146.685l1.484,-2.57m0.422,-25.276l12.589,17.296m-5.872,136.572l7.27,9.987m-6.783,-10.342l9.044,12.424m-8.248,-129.09l16.047,22.047m-16.047,-22.047l1.108,0.499m12.412,17.052l2.527,4.496m-2.96,-5.858l0.433,1.362m-12.412,-17.052l1.894,0.298m9.93,13.642l0.155,1.75m-0.588,-3.113l0.433,1.363m-0.599,-2.359l0.166,0.996m-9.497,-12.279l1.662,-0.278m7.669,11.561l0.498,-1.108m-7.957,-10.42l1.273,-0.554m0.211,0.033l1.949,-1.418m-1.008,0.919l0.244,-0.177m5.288,11.617l3.532,-2.571l0.786,-0.2m-8.809,-9.799l0.919,-1.041m7.89,10.84l1.053,0.166m-8.91,-11.217l0.432,-0.687m8.478,11.904l1.163,0.83m-9.608,-12.944l0.155,-0.299m9.453,13.243l0.753,0.011m-10.173,-13.465l0.221,-0.72m0.066,-0.421l-0.066,0.421m9.952,14.185l1.706,0.808m-11.548,-16.377l-0.044,0.963m11.592,15.414l2.737,2.48m-14.185,-19.489l-0.1,0.632m101.961,40.753l9.221,12.667m-9.586,-12.401l10.353,-7.536m-0.487,0.355l9.043,12.423m-108.59,112.953l1.572,-0.399l2.37,-1.352m38.824,-23.973l1.041,-1.13l8.249,-5.818l1.594,-1.906l35.323,-25.711" style="fill:none;fill-rule:nonzero;stroke:#000;stroke-width:0.94px;"/><path d="M830.332,710.872l1.406,-1.397m-0.654,-0.642l0.654,0.642m-2.381,2.106l12.335,-9.165m-95.639,64.955l120.861,-88.159m0.034,-0.21l1.561,-1.695m-221.65,-97.671l12.545,-9.131m-0.733,23.825l1.584,-1.153l0.355,0.487m-2.282,1.474l12.513,-8.921m-1.694,0.488l0.354,0.487m-0.354,-0.487l1.981,-1.629m-11.724,-14.571l5.196,3.298m2.126,-1.175l3.813,5.238m14.663,-60.238l3.457,4.75m-2.331,-13.955l0.354,0.487m-1.948,1.419l1.948,-1.419m9.743,16.201l12.424,-9.043m-5.034,-12.547l3.901,5.359m-10.559,-7.594l7.899,3.94m126.736,145.701l7.27,9.988m3.083,-17.524l7.27,9.988m-113.833,-9.193l0.055,0.332m-0.055,-0.332l0.731,-0.532l0.83,-1.163m-21.178,-29.864l1.717,2.104m0.211,0.033l0.565,0.52m-3.103,-4.263l0.61,1.606m21.178,29.864l0.498,-1.108m-18.973,-26.066l0.177,0.244m18.774,25.279l0.022,0.543m-1.674,-3.067l1.652,2.524m-18.474,-25.124l0.775,0.553m-4.699,-6.455l0.134,1.207m-107.218,-170.342l6.705,9.468m-6.927,-10.797l0.222,1.329m6.705,9.468l2.027,1.505l1.052,0.166m-10.006,-12.468l0.198,-1.263m9.808,13.731l1.451,-0.311m-11.259,-13.42l0.986,-1.462m-3.289,2.394l13.731,-9.808m-1.064,0.587l1.695,-0.488l1.473,0.232l1.551,1.107m-39.508,29.689l6.384,8.77m-7.326,-10.32l0.942,1.55m-1.075,-2.758l0.133,1.208m7.326,10.32l1.883,1.051m-9.342,-12.579l0.132,-0.842m9.21,13.421l1.628,-0.067" style="fill:none;fill-rule:nonzero;stroke:#000;stroke-width:0.94px;"/><path d="M582.745,456.738l1.141,-1.761m9.697,15.115l1.517,-0.731m123.537,263.929l8.77,-6.384m28.902,-44.515l5.481,-3.99m-3.53,6.669l5.481,-3.989m-127.833,-176.393l5.629,6.71l1.817,1.473l1.496,0.774m10.152,-10.371l0.311,1.451m-1.042,-2.968l0.731,1.517m-0.875,-1.971l0.144,0.454m-0.909,-1.761l0.676,1.185m-0.942,-1.55l0.266,0.365m-3.092,-5.016l2.826,4.651m125.106,171.11l6.456,-4.699m-8.495,1.898l6.456,-4.699m-63.474,-47.525l1.141,0.288l0.177,0.243l1.683,0.265l1.418,-0.1l2.271,-0.721l1.827,-1.33l1.228,-1.64l0.808,-1.706m0.266,-1.683l-0.266,1.683m0.11,-3.433l0.156,1.75m73.693,120.955l8.245,11.328m-46.91,-89.023l6.456,-4.698m4.627,19.924l6.455,-4.699m-46.893,-18.601l1.561,-1.695l0.808,-1.706m0.199,-1.263l-0.199,1.263m-0.233,-2.625l0.432,1.362m-1.995,-3.765l0.177,0.244l1.386,2.159m-2.771,-4.319l0.532,0.731l0.676,1.185m-1.441,-2.491l0.233,0.575m-2.15,-3.465l1.917,2.89m-2.372,-4.795l0.022,0.542m-0.022,-0.542l0.498,-1.108l3.654,-2.66l1.96,-0.122m0.776,0.553l1.806,2.226m0.211,0.033l0.798,1.096m0.565,0.52l0.443,0.609m-1.008,-1.129l0.565,0.52m1.363,1.617l0.177,0.244m-1.097,-1.252l0.92,1.008m0.177,0.244l1.363,1.616" style="fill:none;fill-rule:nonzero;stroke:#000;stroke-width:0.94px;"/><path d="M745.568,632.818l0.953,0.797l1.684,0.266l2.115,-0.422l1.639,-0.821m-10.38,135.754l1.207,-0.134l2.005,-1.086l120.949,-88.037l1.927,-1.961l0.343,-0.809m-265.452,-226.967l6.905,12.303m-7.426,-13.787l0.521,1.484m-0.521,-1.484l0.508,-1.861l1.13,-1.008l1.783,-0.366l1.795,0.929l9.883,10.508m128.002,210.928l5.482,-3.99m5.601,19.215l5.481,-3.99m43.307,-0.404l3.146,-0.799l2.79,-1.286l2.248,-1.264l4.873,-3.546l3.852,-3.923l1.849,-2.836l0.631,-1.949m-44.369,7.139l11.382,15.38l1.506,0.022l3.532,-2.571m-194.312,-232.91l6.783,12.391m-7.238,-14.296l0.455,1.905m-0.455,-1.905l0.442,-1.44l0.919,-1.042l1.152,-0.465l1.174,0.077l0.244,-0.177l0.631,0.099l1.075,0.709l9.973,10.629m-11.482,-16.798l10.849,14.649m33.843,41.888l2.594,4.075m125.959,170.489l21.189,29.111m-20.702,-29.465l2.837,3.897m-0.31,0.599l0.31,-0.599m-44.528,-34.296l-0.232,1.473m-1.232,-4.507l1.464,3.034m24.882,42.634l2.837,3.897m-2.349,-4.252l21.189,29.111m-18.84,-24.859l0.753,0.011m-71.162,-163.046l9.711,-6.882m-45.648,75.524l9.744,-7.092" style="fill:none;fill-rule:nonzero;stroke:#000;stroke-width:0.94px;"/><path d="M828.936,711.514l2.502,-2.194m-0.354,-0.487l0.354,0.487m-214.779,-255.652l12.668,-9.22m114.878,186.754l1.784,1.682l1.407,0.653l0.875,-0.078" style="fill:none;fill-rule:nonzero;stroke:#000;stroke-width:0.94px;"/><path d="M670.368,175.875l-11.521,0l-23.01,1.206l-22.915,2.409l-22.758,3.604l-22.538,4.79l-22.257,5.964l-21.913,7.12l-21.511,8.258l-21.05,9.372l-20.53,10.46l-19.955,11.521l-19.324,12.549l-18.641,13.544l-17.907,14.5l-17.123,15.418l-16.293,16.293l-15.418,17.123l-14.5,17.907l-13.543,18.641l-12.55,19.324l-11.521,19.955l-10.46,20.53l-9.372,21.049l-8.257,21.511l-7.121,21.914l-5.963,22.257l-4.791,22.538l-3.604,22.758l-2.409,22.915l-1.206,23.01l0,23.041l1.206,23.01l2.409,22.916l3.604,22.757l4.791,22.539l5.963,22.256l7.121,21.914l8.257,21.511l9.372,21.049l10.46,20.531l11.521,19.954l12.55,19.325l13.543,18.64l14.5,17.907l15.418,17.123l16.293,16.293l17.123,15.418l17.907,14.501l18.641,13.543l19.324,12.549l19.955,11.521l20.53,10.461l21.05,9.372l21.511,8.257l21.913,7.12l22.257,5.964l22.538,4.79l22.758,3.605l22.915,2.408l23.01,1.206l11.521,0l-0,-88.582l-9.201,-0l-18.377,-0.963l-18.302,-1.924l-18.176,-2.879l-18,-3.826l-17.775,-4.763l-17.502,-5.686l-17.18,-6.595l-16.811,-7.485l-16.397,-8.355l-15.937,-9.201l-15.433,-10.022l-14.888,-10.817l-14.301,-11.581l-13.676,-12.314l-13.012,-13.012l-12.314,-13.675l-11.581,-14.302l-10.816,-14.887l-10.023,-15.434l-9.201,-15.937l-8.354,-16.396l-7.485,-16.812l-6.595,-17.18l-5.687,-17.501l-4.763,-17.776l-3.826,-18l-2.878,-18.176l-1.924,-18.301l-0.963,-18.377l-0,-18.403l0.963,-18.376l1.924,-18.302l2.878,-18.176l3.826,-18l4.763,-17.775l5.687,-17.502l6.595,-17.18l7.485,-16.811l8.354,-16.397l9.201,-15.937l10.023,-15.433l10.816,-14.888l11.581,-14.301l12.314,-13.676l13.012,-13.012l13.676,-12.314l14.301,-11.581l14.888,-10.816l15.433,-10.023l15.937,-9.201l16.397,-8.355l16.811,-7.484l17.18,-6.595l17.502,-5.687l17.775,-4.763l18,-3.826l18.176,-2.879l18.302,-1.923l18.377,-0.963l9.201,-0l-0,-88.583Z" style="fill:#fff;fill-rule:nonzero;"/><path d="M1762.6,175.875l-11.521,0l-0,88.583l9.201,-0l18.377,0.963l18.301,1.923l18.176,2.879l18,3.826l17.775,4.763l17.502,5.687l17.18,6.595l16.812,7.484l16.396,8.355l15.937,9.201l15.433,10.023l14.888,10.816l14.301,11.581l13.676,12.314l13.012,13.012l12.314,13.676l11.581,14.301l10.817,14.888l10.022,15.433l9.201,15.937l8.355,16.397l7.485,16.811l6.595,17.18l5.686,17.502l4.763,17.775l3.826,18l2.879,18.176l1.923,18.302l0.963,18.376l0,18.403l-0.963,18.377l-1.923,18.301l-2.879,18.176l-3.826,18l-4.763,17.776l-5.686,17.501l-6.595,17.18l-7.485,16.812l-8.355,16.396l-9.201,15.937l-10.022,15.434l-10.817,14.887l-11.581,14.302l-12.314,13.675l-13.012,13.012l-13.676,12.314l-14.301,11.581l-14.888,10.817l-15.433,10.022l-15.937,9.201l-16.396,8.355l-16.812,7.485l-17.18,6.595l-17.502,5.686l-17.775,4.763l-18,3.826l-18.176,2.879l-18.301,1.924l-18.377,0.963l-9.201,-0l-0,88.582l11.521,0l23.009,-1.206l22.915,-2.408l22.758,-3.605l22.539,-4.79l22.256,-5.964l21.914,-7.12l21.511,-8.257l21.05,-9.372l20.53,-10.461l19.954,-11.521l19.324,-12.549l18.642,-13.543l17.906,-14.501l17.123,-15.418l16.293,-16.293l15.418,-17.123l14.5,-17.907l13.544,-18.64l12.549,-19.325l11.521,-19.954l10.461,-20.531l9.372,-21.049l8.257,-21.511l7.12,-21.914l5.964,-22.256l4.79,-22.539l3.605,-22.757l2.408,-22.916l1.206,-23.01l0,-23.041l-1.206,-23.01l-2.408,-22.915l-3.605,-22.758l-4.79,-22.538l-5.964,-22.257l-7.12,-21.914l-8.257,-21.511l-9.372,-21.049l-10.461,-20.53l-11.521,-19.955l-12.549,-19.324l-13.544,-18.641l-14.5,-17.907l-15.418,-17.123l-16.293,-16.293l-17.123,-15.418l-17.906,-14.5l-18.642,-13.544l-19.324,-12.549l-19.954,-11.521l-20.53,-10.46l-21.05,-9.372l-21.511,-8.258l-21.914,-7.12l-22.256,-5.964l-22.539,-4.79l-22.758,-3.604l-22.915,-2.409l-23.009,-1.206Z" style="fill:#fff;fill-rule:nonzero;"/><rect x="670.368" y="175.875" width="1080.71" height="88.583" style="fill:#fff;"/><path d="M1624.11,615.836l0.288,8.239l0.861,8.199l1.432,8.118l1.994,7.999l2.548,7.841l2.257,5.585m5.119,10.635l3.448,5.972l4.61,6.835l5.076,6.497l5.516,6.126l5.93,5.727l5.647,4.738m9.623,6.834l4.706,2.941l7.279,3.87l7.531,3.354l7.747,2.819l7.925,2.273l8.064,1.713m12.195,1.43l4.192,0.293l8.244,-0l8.224,-0.575l8.164,-1.148l8.063,-1.713l7.925,-2.273l1.712,-0.623m10.958,-4.388l2.609,-1.162l7.278,-3.87l6.992,-4.369l6.669,-4.845l6.315,-5.299l5.931,-5.727l2.12,-2.355m7.543,-9.08l0.928,-1.188l4.611,-6.835l4.122,-7.139l3.613,-7.41l3.089,-7.643l2.547,-7.841l1.093,-4.382m2.305,-11.578l0.028,-0.157l0.862,-8.199l0.288,-8.239l-0.288,-8.239l-0.862,-8.199l-1.432,-8.119l-1.418,-5.689m-3.568,-11.251l-2.644,-6.543l-3.613,-7.41l-4.122,-7.139l-4.611,-6.835" style="fill:none;fill-rule:nonzero;stroke:#656565;stroke-width:0.94px;"/><path d="M1837.77,546.412l-5.075,-6.496l-4.825,-5.359m-8.563,-8.123l-4.374,-3.671l-6.669,-4.845l-6.992,-4.369l-7.278,-3.87l-7.532,-3.353l-7.747,-2.82m-11.721,-3.079l-4.267,-0.907l-8.164,-1.147l-8.224,-0.576l-8.244,0l-8.224,0.576l-8.163,1.147l-1.626,0.345m-11.464,2.81l-2.899,0.831l-7.747,2.82l-7.531,3.353l-7.279,3.87l-6.991,4.369l-6.67,4.845l-2.305,1.935m-8.74,7.933l-1.2,1.158l-5.516,6.127l-5.076,6.496l-4.61,6.835l-4.122,7.139l-3.614,7.41l-1.632,4.039m-3.904,11.14l-0.1,0.305l-1.994,7.999l-1.432,8.119l-0.861,8.199l-0.288,8.239m-835.63,-0l-0.288,-8.239l-0.861,-8.199l-1.432,-8.119l-1.994,-7.999l-2.548,-7.84l-2.257,-5.586m-5.119,-10.634l-3.448,-5.973l-4.61,-6.835l-5.075,-6.496l-5.517,-6.127l-5.93,-5.726l-5.647,-4.739m-9.623,-6.834l-4.706,-2.941l-7.279,-3.87l-7.531,-3.353l-7.747,-2.82" style="fill:none;fill-rule:nonzero;stroke:#656565;stroke-width:0.94px;"/><path d="M706.866,503.506l-7.925,-2.272l-8.064,-1.714m-12.195,-1.429l-4.192,-0.294l-8.244,0l-8.224,0.576l-8.164,1.147l-8.064,1.714l-7.924,2.272l-1.712,0.623m-10.958,4.389l-2.608,1.161l-7.279,3.87l-6.992,4.369l-6.669,4.845l-6.315,5.3l-5.931,5.726l-2.12,2.356m-7.543,9.079l-0.928,1.188l-4.61,6.835l-4.122,7.139l-3.614,7.41l-3.089,7.644l-2.547,7.84l-1.093,4.383m-2.305,11.577l-0.028,0.158l-0.862,8.199l-0.287,8.239l0.287,8.239l0.862,8.199l1.432,8.118l1.418,5.69m3.568,11.25l2.644,6.543l3.614,7.41l4.122,7.139l4.61,6.835l5.075,6.497l4.825,5.358m8.563,8.124l4.374,3.67l6.669,4.845l6.992,4.369l7.279,3.87l7.531,3.354l7.747,2.819m11.721,3.08l4.267,0.906l8.164,1.148l8.224,0.575l8.244,-0l8.224,-0.575l8.163,-1.148l1.626,-0.345m11.465,-2.81l2.898,-0.831" style="fill:none;fill-rule:nonzero;stroke:#656565;stroke-width:0.94px;"/><path d="M706.866,728.165l7.747,-2.819l7.531,-3.354l7.279,-3.87l6.991,-4.369l6.67,-4.845l2.305,-1.934m8.741,-7.934l1.199,-1.158l5.517,-6.126l5.075,-6.497l4.61,-6.835l4.122,-7.139l3.614,-7.41l1.632,-4.039m3.905,-11.14l0.099,-0.305l1.994,-7.999l1.432,-8.118l0.861,-8.199l0.288,-8.239" style="fill:none;fill-rule:nonzero;stroke:#656565;stroke-width:0.94px;"/><path d="M670.368,175.875l-11.521,0l-23.01,1.206l-22.915,2.409l-22.758,3.604l-22.538,4.79l-22.257,5.964l-21.913,7.12l-21.511,8.258l-21.05,9.372l-20.53,10.46l-19.955,11.521l-19.324,12.549l-18.641,13.544l-17.907,14.5l-17.123,15.418l-16.293,16.293l-15.418,17.123l-14.5,17.907l-13.543,18.641l-12.55,19.324l-11.521,19.955l-10.46,20.53l-9.372,21.049l-8.257,21.511l-7.121,21.914l-5.963,22.257l-4.791,22.538l-3.604,22.758l-2.409,22.915l-1.206,23.01l0,23.041l1.206,23.01l2.409,22.916l3.604,22.757l4.791,22.539l5.963,22.256l7.121,21.914l8.257,21.511l9.372,21.049l10.46,20.531l11.521,19.954l12.55,19.325l13.543,18.64l14.5,17.907l15.418,17.123l16.293,16.293l17.123,15.418l17.907,14.501l18.641,13.543l19.324,12.549" style="fill:none;fill-rule:nonzero;stroke:#000;stroke-width:0.94px;"/><path d="M440.41,991.092l19.955,11.521l20.53,10.461l21.05,9.372l21.511,8.257l21.913,7.12l22.257,5.964l22.538,4.79l22.758,3.605l22.915,2.408l23.01,1.206l11.521,0m-0,-88.582l-9.201,-0l-18.377,-0.963l-18.302,-1.924l-18.176,-2.879l-18,-3.826l-17.775,-4.763l-17.502,-5.686l-17.18,-6.595l-16.811,-7.485l-16.397,-8.355l-15.937,-9.201l-15.433,-10.022l-14.888,-10.817l-14.301,-11.581l-13.676,-12.314l-13.012,-13.012l-12.314,-13.675l-11.581,-14.302l-10.816,-14.887l-10.023,-15.434l-9.201,-15.937l-8.354,-16.396l-7.485,-16.812l-6.595,-17.18l-5.687,-17.501l-4.763,-17.776l-3.826,-18l-2.878,-18.176l-1.924,-18.301l-0.963,-18.377l-0,-18.403l0.963,-18.376l1.924,-18.302l2.878,-18.176l3.826,-18l4.763,-17.775l5.687,-17.502l6.595,-17.18l7.485,-16.811" style="fill:none;fill-rule:nonzero;stroke:#000;stroke-width:0.94px;"/><path d="M353.111,464.512l8.354,-16.397l9.201,-15.937l10.023,-15.433l10.816,-14.888l11.581,-14.301l12.314,-13.676l13.012,-13.012l13.676,-12.314l14.301,-11.581l14.888,-10.816l15.433,-10.023l15.937,-9.201l16.397,-8.355l16.811,-7.484l17.18,-6.595l17.502,-5.687l17.775,-4.763l18,-3.826l18.176,-2.879l18.302,-1.923l18.377,-0.963l9.201,-0m1092.23,-88.583l-11.521,0m-0,88.583l9.201,-0l18.377,0.963l18.301,1.923l18.176,2.879l18,3.826l17.775,4.763l17.502,5.687l17.18,6.595l16.812,7.484l16.396,8.355l15.937,9.201l15.433,10.023l14.888,10.816l14.301,11.581l13.676,12.314l13.012,13.012l12.314,13.676l11.581,14.301l10.817,14.888l10.022,15.433l9.201,15.937l8.355,16.397l7.485,16.811l6.595,17.18l5.686,17.502l4.763,17.775l3.826,18" style="fill:none;fill-rule:nonzero;stroke:#000;stroke-width:0.94px;"/><path d="M2096.69,551.78l2.879,18.176l1.923,18.302l0.963,18.376l0,18.403l-0.963,18.377l-1.923,18.301l-2.879,18.176l-3.826,18l-4.763,17.776l-5.686,17.501l-6.595,17.18l-7.485,16.812l-8.355,16.396l-9.201,15.937l-10.022,15.434l-10.817,14.887l-11.581,14.302l-12.314,13.675l-13.012,13.012l-13.676,12.314l-14.301,11.581l-14.888,10.817l-15.433,10.022l-15.937,9.201l-16.396,8.355l-16.812,7.485l-17.18,6.595l-17.502,5.686l-17.775,4.763l-18,3.826l-18.176,2.879l-18.301,1.924l-18.377,0.963l-9.201,-0m-0,88.582l11.521,0l23.009,-1.206l22.915,-2.408l22.758,-3.605l22.539,-4.79l22.256,-5.964l21.914,-7.12l21.511,-8.257l21.05,-9.372l20.53,-10.461l19.954,-11.521l19.324,-12.549l18.642,-13.543l17.906,-14.501l17.123,-15.418l16.293,-16.293" style="fill:none;fill-rule:nonzero;stroke:#000;stroke-width:0.94px;"/><path d="M2070.32,918.788l15.418,-17.123l14.5,-17.907l13.544,-18.64l12.549,-19.325l11.521,-19.954l10.461,-20.531l9.372,-21.049l8.257,-21.511l7.12,-21.914l5.964,-22.256l4.79,-22.539l3.605,-22.757l2.408,-22.916l1.206,-23.01l0,-23.041l-1.206,-23.01l-2.408,-22.915l-3.605,-22.758l-4.79,-22.538l-5.964,-22.257l-7.12,-21.914l-8.257,-21.511l-9.372,-21.049l-10.461,-20.53l-11.521,-19.955l-12.549,-19.324l-13.544,-18.641l-14.5,-17.907l-15.418,-17.123l-16.293,-16.293l-17.123,-15.418l-17.906,-14.5l-18.642,-13.544l-19.324,-12.549l-19.954,-11.521l-20.53,-10.46l-21.05,-9.372l-21.511,-8.258l-21.914,-7.12l-22.256,-5.964l-22.539,-4.79l-22.758,-3.604l-22.915,-2.409l-23.009,-1.206m-11.521,0l-1080.71,0m-0,88.583l1080.71,-0m-1706.3,797.716l-12.755,-12.756m12.755,-867.165l-12.755,-12.756m6.377,886.299l-10.629,0m10.629,0l10.63,0" style="fill:none;fill-rule:nonzero;stroke:#000;stroke-width:0.94px;"/><path d="M38.403,175.875l-10.629,0m10.629,0l10.63,0m-10.63,879.921l0,10.63m0,-890.551l0,-10.63" style="fill:none;fill-rule:nonzero;stroke:#000;stroke-width:0.94px;"/><path d="M38.403,1055.8l0,-879.921m77.244,797.717l-12.755,-12.756m12.755,-689.037l-12.755,-12.756m6.378,708.171l-10.63,-0m10.63,-0l10.63,-0m-10.63,-701.793l-10.63,-0m10.63,-0l10.63,-0m-10.63,701.793l-0,10.63m-0,-712.423l-0,-10.63" style="fill:none;fill-rule:nonzero;stroke:#000;stroke-width:0.94px;"/><path d="M109.27,967.214l-0,-701.793m114.759,-220.62l12.756,-12.755m1947.87,12.755l12.756,-12.755m-1967.01,6.378l0,-10.63m0,10.63l0,10.63m1960.63,-10.63l0,-10.63m0,10.63l0,10.63m-1960.63,-10.63l-10.63,-0m1971.26,-0l10.63,-0" style="fill:none;fill-rule:nonzero;stroke:#000;stroke-width:0.94px;"/><path d="M230.407,38.424l1960.63,-0m-1878.42,80.196l12.756,-12.755m1770.71,12.755l12.757,-12.755m-1789.84,6.378l-0,-10.63m-0,10.63l-0,10.629m1783.46,-10.629l0,-10.63m0,10.63l0,10.629m-1783.46,-10.629l-10.63,-0m1794.09,-0l10.63,-0" style="fill:none;fill-rule:nonzero;stroke:#000;stroke-width:0.94px;"/><g transform="matrix(0,-4.16667,4.16667,0,-2532.33,-337.239)"><text x="-238.163px" y="615.143px" style="font-family:'LucidaGrande', 'Lucida Grande', sans-serif;font-weight:500;font-size:9.969px;">3<tspan x="-232.504px -229.995px -224.336px " y="615.143px 615.143px 615.143px ">.00</tspan></text><text x="-255.054px" y="630.782px" style="font-family:'LucidaGrande', 'Lucida Grande', sans-serif;font-weight:500;font-size:9.969px;">2<tspan x="-249.317px -246.73px -240.993px -235.256px -228.206px -225.531px -219.795px -217.207px -211.471px -205.734px " y="630.782px 630.782px 630.782px 630.782px 630.782px 630.782px 630.782px 630.782px 630.782px 630.782px ">.40	(2.35)</tspan></text></g><g transform="matrix(4.16667,0,0,4.16667,-2532.33,-337.239)"><text x="888.822px" y="88.327px" style="font-family:'LucidaGrande', 'Lucida Grande', sans-serif;font-weight:500;font-size:9.969px;">6<tspan x="894.481px 896.99px 902.649px " y="88.327px 88.327px 88.327px ">.65</tspan></text><text x="873.366px" y="104.676px" style="font-family:'LucidaGrande', 'Lucida Grande', sans-serif;font-weight:500;font-size:9.969px;">6<tspan x="879.103px 881.69px 887.426px " y="104.676px 104.676px 104.676px ">.05</tspan></text><text x="897.74px" y="104.676px" style="font-family:'LucidaGrande', 'Lucida Grande', sans-serif;font-weight:500;font-size:9.969px;">(<tspan x="900.415px 906.152px 908.739px 914.476px 920.212px " y="104.676px 104.676px 104.676px 104.676px 104.676px ">6.00)</tspan></text></g><text x="1134.93px" y="905.206px" style="font-family:'LucidaGrande', 'Lucida Grande', sans-serif;font-weight:500;font-size:58.153px;">1<tspan x="1167.86px 1200.79px 1215.35px 1265.8px " y="905.206px 905.206px 905.206px 905.206px ">3 m</tspan></text><path d="M318.99,112.243l1783.46,-0" style="fill:none;fill-rule:nonzero;stroke:#000;stroke-width:0.94px;"/><path d="M1286.92,920.363l5.982,-0.523l5.801,-1.554l5.442,-2.538l4.919,-3.444l4.246,-4.246l3.444,-4.919l2.538,-5.442l1.554,-5.801l0.523,-5.981l-0.523,-5.982l-1.554,-5.801l-2.538,-5.442l-3.444,-4.919l-4.246,-4.246l-4.919,-3.444l-5.442,-2.538l-5.801,-1.554l-5.982,-0.523l-151.981,-0l-5.982,0.523l-5.8,1.554l-5.443,2.538l-4.918,3.444l-4.246,4.246l-3.445,4.919l-2.537,5.442l-1.555,5.801l-0.523,5.982l0.523,5.981l1.555,5.801l2.537,5.442l3.445,4.919l4.246,4.246l4.918,3.444l5.443,2.538l5.8,1.554l5.982,0.523l151.981,0" style="fill:none;fill-rule:nonzero;stroke:#000;stroke-width:0.94px;"/></svg>