<?xml version="1.0" encoding="UTF-8" standalone="no"?><!DOCTYPE svg PUBLIC "-//W3C//DTD SVG 1.1//EN" "http://www.w3.org/Graphics/SVG/1.1/DTD/svg11.dtd"><svg width="100%" height="100%" viewBox="0 0 2203 1254" version="1.1" xmlns="http://www.w3.org/2000/svg" xmlns:xlink="http://www.w3.org/1999/xlink" xml:space="preserve" xmlns:serif="http://www.serif.com/" style="fill-rule:evenodd;clip-rule:evenodd;stroke-linecap:round;stroke-linejoin:round;stroke-miterlimit:10;"><path d="M668.793,614.261l3.15,-0l-0,3.149l-3.15,0l0,-3.149m2.953,2.953l-2.756,-0l-0,-2.756l2.756,-0l-0,2.756m-2.559,-2.56l2.362,0l-2.362,0l-0,2.363l2.362,-0l-0,-2.363l-2.362,0m0.197,0.197l1.968,0l-1.968,0l-0,1.969l1.968,-0l-0,-1.969l-1.968,0m0.196,0.197l1.575,0l-1.575,0l0,1.575l1.575,0l0,-1.575l-1.575,0m0.197,0.197l1.181,0l0,1.181l-1.181,0l0,-1.181m0.984,0.984l-0.787,0l0,-0.787l0.787,0l0,0.787m-0.59,-0.59l0.394,-0l-0,0.394l-0.394,-0l-0,-0.394" style="fill:none;fill-rule:nonzero;stroke:#000;stroke-width:0.94px;"/><path d="M673.053,1055.8c16.352,0 29.608,-13.256 29.608,-29.608" style="fill:none;fill-rule:nonzero;stroke:#000;stroke-width:0.94px;"/><path d="M702.661,1026.19l-14.577,0m-15.031,29.608l-2.685,0m17.716,-88.582l-17.716,-0m1079.13,-352.953l3.149,-0l0,3.149l-3.149,0l-0,-3.149m2.952,2.953l-2.755,-0l-0,-2.756l2.755,-0l0,2.756m-2.558,-2.56l2.362,0l-2.362,0l-0,2.363l2.362,-0l-0,-2.363l-2.362,0m0.196,0.197l1.969,0l-1.969,0l0,1.969l1.969,-0l-0,-1.969l-1.969,0m0.197,0.197l1.575,0l-1.575,0l0,1.575l1.575,0l-0,-1.575l-1.575,0m0.197,0.197l1.181,0l0,1.181l-1.181,0l0,-1.181m0.984,0.984l-0.787,0l-0,-0.787l0.787,0l0,0.787m-0.59,-0.59l0.393,-0l0,0.394l-0.393,-0l-0,-0.394" style="fill:none;fill-rule:nonzero;stroke:#000;stroke-width:0.94px;"/><path d="M1718.78,1026.19c0,16.352 13.257,29.608 29.609,29.608" style="fill:none;fill-rule:nonzero;stroke:#000;stroke-width:0.94px;"/><path d="M1748.39,1055.8l2.685,0m-17.717,-88.582l17.717,-0m-1075.44,88.47l1072.76,0.112m-525.859,-29.608l-20.669,0l-0,-29.528l20.669,0l0,29.528l490.158,0m-1003.94,-14.764l493.11,0m-493.11,-14.764l-20.67,0m0,29.528l20.67,0l-0,-29.528m-20.67,-29.527l0,59.055m513.78,0l-493.11,0l-0,-29.528l493.11,0l-0,29.528m-513.78,-58.974l0,58.974m20.67,-29.528l-20.67,0m20.67,0l-20.67,0m1045.28,-675.967l-0,-56.235" style="fill:none;fill-rule:nonzero;stroke:#000;stroke-width:0.94px;"/><path d="M1733.36,940.518c179.317,4.892 328.649,-136.507 333.54,-315.824m0,-0c4.893,-179.317 -136.506,-328.648 -315.823,-333.541m-0,0c-5.905,-0.161 -11.813,-0.161 -17.717,0" style="fill:none;fill-rule:nonzero;stroke:#000;stroke-width:0.94px;"/><path d="M679.226,438.327l0,-173.869m0,173.869l0,528.544m0,-351.035l521.838,-0m-521.838,-0.386l521.837,0.262m532.297,-295.019l-0,-56.235m-570.682,351.264l-0,-351.264m-483.452,168.307l483.452,-0" style="fill:none;fill-rule:nonzero;stroke:#000;stroke-width:0.94px;"/><path d="M591.163,826.263c-29.354,0 -53.149,23.796 -53.149,53.149m-0,0c-0,29.354 23.795,53.15 53.149,53.15m0,0c29.354,0 53.15,-23.796 53.15,-53.15m-0,0c-0,-29.353 -23.796,-53.149 -53.15,-53.149" style="fill:none;fill-rule:nonzero;stroke:#000;stroke-width:0.94px;"/><path d="M814.724,324.454l-0.824,0.445l-0.825,0.405l-0.824,0.324l-0.825,0.201l-1.933,-0.103l-1.94,-0.72l-1.95,-1.065l-1.965,-1.138l-5.525,-2.322l-5.618,-1.323l-5.667,-0.854l-5.671,-0.914l-4.289,-0.977l-4.29,-1.052l-4.313,-0.864l-4.362,-0.41l-2.125,0.045l-2.116,0.249l-2.079,0.492l-2.017,0.773l-1.504,0.819l-1.376,1.009l-1.172,1.195l-0.896,1.378l-0.427,1.056l-0.28,1.117l-0.156,1.154l-0.053,1.166l0.353,3.677l0.992,3.559l1.442,3.448l1.702,3.344l1.211,2.197l1.261,2.144l1.331,2.082l1.42,2.013l3.801,4.531l4.206,4.223l4.394,4.065l4.366,4.052l3.488,3.462l3.366,3.576l3.289,3.707l3.259,3.857l1.167,1.439l1.086,1.478l0.921,1.532l0.674,1.603l0.461,2.636l-0.04,2.775" style="fill:none;fill-rule:nonzero;stroke:#000;stroke-width:0.94px;"/><path d="M793.852,389.94l-0.251,2.843l-0.17,2.84l0.11,2.577l0.321,2.538l0.426,2.526l0.426,2.537l0.274,2.006l0.221,2.012l0.178,2l0.148,1.972l0.107,1.68l0.068,1.69l0.004,1.744l-0.084,1.841l-0.066,0.945l-0.005,0.919l0.145,0.836l0.384,0.693l0.214,0.207l0.247,0.186l0.268,0.174l0.279,0.166l0.338,-0.405l0.318,-0.412l0.28,-0.426l0.223,-0.446l0.208,-0.767l0.06,-0.817l-0.038,-0.846l-0.086,-0.854l-0.157,-1.478l-0.117,-1.448l-0.043,-1.429l0.064,-1.419l0.151,-1.164l0.222,-1.164l0.271,-1.164l0.294,-1.163l0.616,1.422l0.601,1.428l0.568,1.439l0.521,1.455l0.424,1.361l0.361,1.379l0.29,1.4l0.211,1.42l0.148,1.554l0.148,1.551l0.248,1.52l0.451,1.462" style="fill:none;fill-rule:nonzero;stroke:#000;stroke-width:0.94px;"/><path d="M803.671,426.861l0.218,0.476l0.269,0.452l0.331,0.412l0.41,0.357l0.404,0.243l0.437,0.167l0.441,0.065l0.414,-0.065l0.24,-0.119l0.222,-0.167l0.211,-0.2l0.204,-0.216l0.391,-0.03l0.399,-0.023l0.413,-0.012l0.435,0.006l0.425,0.02l0.417,0.002l0.377,-0.052l0.301,-0.145l0.203,-0.262l0.12,-0.354l0.061,-0.413l0.026,-0.434l-0.007,-1.467l-0.098,-1.352l-0.133,-1.289l-0.113,-1.277l-0.054,-1.737l0.022,-1.785l0.037,-1.808l-0.005,-1.811l-0.077,-1.58l-0.137,-1.568l-0.175,-1.559l-0.196,-1.555m-2.632,20.485l-0.043,-1.883l-0.043,-1.885l-0.044,-1.888l-0.045,-1.895l-0.05,-1.759l-0.095,-1.755l-0.184,-1.739l-0.315,-1.711l-0.287,-1.082l-0.342,-1.071l-0.378,-1.062l-0.396,-1.058m5.51,12.569l0.57,-0.052l0.553,-0.082" style="fill:none;fill-rule:nonzero;stroke:#000;stroke-width:0.94px;"/><path d="M811.883,421.913l0.517,-0.144l0.463,-0.236l0.348,-0.296l0.298,-0.367l0.253,-0.416l0.212,-0.442l0.524,-1.969l0.057,-2.025l-0.19,-2.062l-0.216,-2.08l-0.082,-1.773l-0.063,-1.754l-0.165,-1.717l-0.391,-1.662l-0.272,-0.721l-0.308,-0.713l-0.31,-0.713l-0.28,-0.721l-0.43,-1.716l-0.174,-1.776l-0.004,-1.814l0.081,-1.835m2.036,11.361l0.471,-0.264l0.448,-0.276l0.401,-0.3l0.329,-0.337l0.452,-1.038l0.037,-1.255l-0.192,-1.381l-0.238,-1.417l-0.178,-2.113l-0.041,-2.001l-0.091,-1.906l-0.334,-1.823l-0.546,-1.427l-0.751,-1.395l-0.877,-1.374l-0.926,-1.364l-2.905,-4.497l-2.722,-4.487l-2.675,-4.447l-2.768,-4.378l-2.617,-3.813l-2.73,-3.767l-2.776,-3.752l-2.756,-3.769l-2.431,-3.447l-2.378,-3.478l-2.341,-3.497l-2.324,-3.508" style="fill:none;fill-rule:nonzero;stroke:#000;stroke-width:0.94px;"/><path d="M780.328,339.811l4.256,2.221l4.276,2.159l4.315,2.033l4.373,1.844l4.599,1.668l4.679,1.476l4.757,1.36l4.833,1.321l2.73,0.727l2.735,0.619l2.726,0.392l2.697,0.047l1.576,-0.177l1.573,-0.322l1.583,-0.451l1.605,-0.563l1.42,-0.586l1.332,-0.71l1.13,-0.884l0.812,-1.108l0.274,-0.714l0.159,-0.771l0.06,-0.804l-0.024,-0.811l-0.295,-1.736l-0.574,-1.647l-0.797,-1.552l-0.962,-1.453l-2.87,-3.21l-3.334,-2.751l-3.588,-2.495l-3.632,-2.441l-2.056,-1.466l-2.014,-1.503l-1.986,-1.528l-1.972,-1.541l0.824,-2.757l0.884,-2.722l1.005,-2.654l1.185,-2.551l3.394,-5.189l4.236,-4.671l4.744,-4.299l4.92,-4.078l3.195,-2.631l3.167,-2.618l3.177,-2.624l3.228,-2.648l2.48,-1.992l2.551,-1.881" style="fill:none;fill-rule:nonzero;stroke:#000;stroke-width:0.94px;"/><path d="M853.714,281.139l2.639,-1.635l2.749,-1.256l3.33,-0.9l3.465,-0.592l3.564,-0.669l3.628,-1.127l2.513,-1.155l2.461,-1.145l2.345,-0.723l1.107,-0.074l1.055,0.185l1.277,0.665l1.199,1.04l1.146,1.267l1.116,1.349l2.396,2.793l2.302,2.643l2.136,2.65l1.896,2.811l0.767,1.367l0.726,1.41l0.706,1.431l0.711,1.428l0.591,1.141l0.605,1.129l0.618,1.122l0.627,1.118l1.79,3.165l1.724,3.207l1.539,3.284l1.236,3.401l0.872,3.726l0.439,3.826l0.042,3.854l-0.32,3.812l-0.6,3.537l-0.816,3.49l-0.953,3.5l-1.011,3.564l-1.04,3.655l-1.216,3.567l-1.59,3.267l-2.161,2.757l-2.635,1.958l-3.114,1.396l-3.407,0.893l-3.517,0.45l-2.986,0.074l-2.925,-0.191l-2.855,-0.438" style="fill:none;fill-rule:nonzero;stroke:#000;stroke-width:0.94px;"/><path d="M877.885,357.166l-2.78,-0.667l-3.632,-1.296l-3.332,-1.95l-2.885,-2.863l-2.29,-4.04l-0.905,-2.464l-0.853,-2.318l-0.936,-1.665l-0.542,-0.429l-0.613,-0.075l-0.638,0.276l-0.694,0.542l-0.733,0.721l-0.751,0.809m26.703,16.028l-3.087,0.298l-3.049,0.145l-2.972,-0.162l-2.857,-0.621l-2.821,-1.255l-2.611,-1.791l-2.359,-2.194l-2.065,-2.463l-1.341,-1.945l-1.218,-1.995l-1.158,-2.022l-1.165,-2.023l-1.061,-1.728l-1.156,-1.668l-1.291,-1.567l-1.467,-1.425l-1.85,-1.402l-1.921,-1.313l-1.796,-1.365l-1.473,-1.556l-1.273,-2.675l-0.485,-3.125l0.066,-3.371l0.378,-3.417l0.531,-3.46l0.69,-3.294l0.923,-3.134l1.235,-2.982l1.595,-2.837l1.9,-2.715l2.124,-2.616l2.266,-2.541l2.163,-2.278l2.257,-2.138l2.394,-1.903l2.573,-1.572" style="fill:none;fill-rule:nonzero;stroke:#000;stroke-width:0.94px;"/><path d="M863.623,285.665l2.628,-1.121l2.783,-0.801l2.894,-0.545l2.96,-0.351l3.073,-0.198l3.045,0.04l2.967,0.377l2.836,0.814l1.882,0.867l1.797,1.075l1.718,1.232l1.644,1.335l1.386,1.22l1.346,1.25l1.319,1.269l1.305,1.278m-10.808,42.747l0.11,-2.257l0.171,-2.244l0.295,-2.217l0.479,-2.178l0.743,-2.268l0.859,-2.242l0.811,-2.249l0.6,-2.287l0.213,-1.519l0.096,-1.542l0.016,-1.557l-0.024,-1.564m-44.524,21.087l-2.002,-1.202l-2,-1.231l-1.996,-1.289l-1.99,-1.376l-2.456,-1.888l-2.257,-2.096l-1.872,-2.33l-1.302,-2.588l-0.543,-2.344l-0.088,-2.47l0.301,-2.525l0.626,-2.512l0.812,-2.219l1.048,-2.069l1.305,-1.839l1.579,-1.528l2.028,-1.253l2.269,-0.917l2.404,-0.708l2.431,-0.624l1.236,-0.327l1.22,-0.336" style="fill:none;fill-rule:nonzero;stroke:#000;stroke-width:0.94px;"/><path d="M848.996,297.445l1.21,-0.342l1.204,-0.344m14.523,57.888l-1.795,1.052l-1.816,0.988l-1.858,0.86l-1.922,0.668l-3.73,0.597l-3.854,-0.175l-3.813,-0.848l-3.608,-1.428l-1.685,-0.898l-1.615,-0.988l-1.57,-1.049l-1.545,-1.079m36.252,5.636l0.368,1.204l0.448,1.116l0.607,0.94l0.846,0.676l0.855,0.293l0.945,0.078l0.932,-0.138l0.816,-0.354l0.714,-0.688l0.482,-0.916l0.327,-1.068l0.25,-1.145m-18.936,33.316l1.913,-0.394l1.892,-0.436l1.85,-0.523l1.788,-0.652l3.134,-1.63l2.941,-2.045l2.843,-2.273l2.841,-2.317l3.002,-2.302l2.981,-2.276l2.837,-2.376l2.571,-2.6l1.782,-2.25l1.675,-2.366l1.701,-2.384l1.858,-2.303l2.982,-3.001l3.044,-2.932l2.601,-3.148l1.648,-3.65l0.022,-0.092l0.021,-0.091l0.018,-0.093l0.013,-0.091" style="fill:none;fill-rule:nonzero;stroke:#000;stroke-width:0.94px;"/><path d="M909.986,349.072l-0.026,-0.587l-0.188,-0.573l-0.292,-0.562l-0.341,-0.552l-1.05,-1.664l-1.004,-1.604l-0.974,-1.566l-0.958,-1.547m-44.557,49.308l2.363,-1.622l2.327,-1.662l2.254,-1.738l2.146,-1.855l2.199,-2.196l2.069,-2.336l1.982,-2.429l1.938,-2.475m-19.334,9.744l-0.646,-1.689l-0.598,-1.697l-0.504,-1.71l-0.361,-1.733l-0.218,-2.326l-0.012,-2.359l0.073,-2.376l0.033,-2.374l-0.08,-2.045l-0.172,-2.035l-0.233,-2.028l-0.263,-2.026m-0.679,22.846l-2.022,-2.396l-1.989,-2.425l-1.922,-2.482l-1.821,-2.567l-1.125,-1.752l-1.037,-1.804l-0.917,-1.857l-0.767,-1.912l-0.667,-2.235l-0.494,-2.29l-0.377,-2.327l-0.32,-2.345m50.781,21.301l2.795,-3.752l2.833,-3.726l2.905,-3.674l3.016,-3.594l2.316,-2.579l2.417,-2.48l2.54,-2.343l2.683,-2.163l1.265,-0.911l1.29,-0.878" style="fill:none;fill-rule:nonzero;stroke:#000;stroke-width:0.94px;"/><path d="M916.263,350.413l1.307,-0.855l1.316,-0.843m14.259,-11.965l1.35,-1.416l1.327,-1.438l1.283,-1.48l1.218,-1.544l1.324,-1.928l1.164,-2.032l0.964,-2.119l0.729,-2.191l0.53,-2.647l0.246,-2.705l0.058,-2.744l-0.037,-2.764m-52.773,-31.641l1.842,-0.098l1.849,-0.075l1.862,-0.03l1.882,0.039l2.582,0.206l2.545,0.454l2.42,0.78l2.21,1.187l1.72,1.435l1.464,1.739l1.185,1.966l0.883,2.116l0.575,2.246l0.268,2.292l-0.007,2.307l-0.249,2.292l-0.297,1.613l-0.335,1.602l-0.303,1.602l-0.201,1.615l-0.007,2.405l0.332,2.406l0.64,2.353l0.916,2.248l1.615,2.809l1.944,2.592l2.156,2.448l2.249,2.373l2.767,2.913l2.733,2.919l2.702,2.935l2.675,2.96l2.646,2.984l2.631,3.003l2.622,3.008l2.62,2.997" style="fill:none;fill-rule:nonzero;stroke:#000;stroke-width:0.94px;"/><path d="M943.664,348.742l2.632,2.978l2.665,2.949l2.728,2.918l2.818,2.885l2.564,2.472l2.69,2.314l2.853,2.021l3.051,1.598l1.378,0.533l1.413,0.474l1.436,0.458l1.451,0.487l2.38,0.955l2.255,1.204l1.989,1.504l1.587,1.857l0.432,0.732l0.371,0.773l0.315,0.804l0.261,0.827l0.469,2.306l0.146,2.353l-0.146,2.345l-0.406,2.279l-0.344,1.3l-0.388,1.29l-0.399,1.312l-0.373,1.368l-0.242,0.99l-0.283,0.962l-0.398,0.864l-0.582,0.696l-0.307,0.224l-0.339,0.193l-0.361,0.173l-0.372,0.163l-0.116,0.573l-0.139,0.544l-0.184,0.488l-0.25,0.402l-0.884,0.53l-1.209,0.076l-1.385,-0.226l-1.411,-0.38l-1.728,-0.55l-1.545,-0.596l-1.397,-0.681l-1.285,-0.807l-2.11,-1.839l-1.881,-2.248" style="fill:none;fill-rule:nonzero;stroke:#000;stroke-width:0.94px;"/><path d="M961.084,393.589l-1.672,-2.525l-1.482,-2.672l-1.67,-3.449l-1.56,-3.417l-1.615,-3.326l-1.834,-3.175l-2.325,-3.161l-2.666,-2.95l-2.912,-2.765l-3.066,-2.603l-3.508,-2.742l-3.579,-2.601l-3.647,-2.487l-3.711,-2.402l-1.766,-1.113l-1.76,-1.122l-1.735,-1.155l-1.69,-1.209l-3.392,-2.798l-3.178,-3.058l-3.036,-3.232l-2.964,-3.32m70.292,61.996l-0.841,-0.535l-0.831,-0.545l-0.812,-0.569l-0.783,-0.601l-1.33,-1.199l-1.234,-1.309l-1.169,-1.383l-1.138,-1.419m1.37,14.696l1.339,0.099l1.35,0.1l1.372,0.104l1.404,0.108l1.88,0.128l1.87,0.007l1.775,-0.245l1.595,-0.63l0.869,-0.622l0.804,-0.755l0.773,-0.822l0.779,-0.826l3.262,-2.656l3.662,-2.037l3.887,-1.674l3.936,-1.57l2.859,-1.223l2.823,-1.264l2.82,-1.265l2.851,-1.223" style="fill:none;fill-rule:nonzero;stroke:#000;stroke-width:0.94px;"/><path d="M1011.75,389.173l4.493,-1.709l4.607,-1.397l4.687,-0.971l4.729,-0.43l3.271,0.055l3.274,0.265l3.276,0.374l3.279,0.382l2.328,0.234l2.325,0.229l2.315,0.266l2.302,0.346l2.634,0.528l2.624,0.603l2.626,0.594l2.642,0.499l0.92,0.137l0.923,0.12l0.925,0.11l0.926,0.104l0.591,-1.395l0.537,-1.404l0.43,-1.424l0.268,-1.452l-0.023,-2.659l-0.617,-2.653l-1.127,-2.518l-1.547,-2.257l-1.829,-1.851l-2.076,-1.545l-2.255,-1.302l-2.363,-1.123l-3.916,-1.551l-4.001,-1.242l-4.067,-0.929l-4.115,-0.611l-3.552,-0.276l-3.568,-0.097l-3.579,0.021l-3.585,0.081m1.353,4.129l1.371,-0.067l1.37,-0.054l1.37,-0.028l1.368,0.013l1.558,0.075l1.556,0.127l1.555,0.161l1.554,0.179m-60.507,28.004l0.706,0.46l0.71,0.417" style="fill:none;fill-rule:nonzero;stroke:#000;stroke-width:0.94px;"/><path d="M980.426,396.741l0.716,0.335l0.725,0.212l1.438,-0.023l1.458,-0.489l1.453,-0.8l1.42,-0.955l2.986,-2.212l2.686,-2.281l2.384,-2.427l2.08,-2.65l1.547,-2.478l1.407,-2.621l1.348,-2.688l1.371,-2.678l1.081,-1.96l1.126,-1.923l1.156,-1.899l1.169,-1.887l-0.047,-0.421l-0.04,-0.421l-0.026,-0.421l-0.003,-0.422l0.038,-0.566l0.086,-0.562l0.129,-0.554l0.168,-0.54l0.886,-1.81l1.231,-1.624l1.463,-1.497l1.583,-1.432l1.314,-1.139l1.347,-1.047l1.411,-0.867l1.503,-0.597l1.096,-0.219l1.137,-0.091l1.162,-0.005l1.171,0.038l2.172,0.08l2.148,0.023l2.121,-0.098l2.093,-0.281l1.074,-0.234l1.067,-0.284l1.064,-0.318l1.062,-0.334m-18.305,-9.615l-0.833,-0.532l-0.839,-0.479l-0.852,-0.37l-0.871,-0.209" style="fill:none;fill-rule:nonzero;stroke:#000;stroke-width:0.94px;"/><path d="M1014.69,340.469l-0.933,-0.007l-0.954,0.17l-0.968,0.287l-0.974,0.345m-2.881,26.053l1.633,-0.031l1.647,-0.007l1.678,0.042l1.724,0.114l2.601,0.281l2.586,0.173l2.425,-0.248l2.119,-0.983l0.446,-0.379l0.409,-0.431l0.359,-0.476l0.297,-0.513l0.167,-0.373l0.142,-0.383l0.128,-0.388l0.124,-0.39m-197.255,-7.879l1.07,2.822l1.101,2.812l1.16,2.785l1.249,2.74l1.532,2.986l1.711,2.89l1.923,2.778l2.168,2.645l0.977,1.042l1.039,0.962l1.117,0.83l1.21,0.643l1.66,0.509l1.749,0.297l1.758,0.257l1.685,0.386l2.426,1.164l2.156,1.731l2.013,2.094l1.994,2.254l1.638,1.753l1.719,1.573l1.816,1.241l1.926,0.756l2.616,0.136l2.76,-0.523l2.847,-0.812l2.876,-0.732l4.29,-0.396l4.235,0.324" style="fill:none;fill-rule:nonzero;stroke:#000;stroke-width:0.94px;"/><path d="M887.628,393.393l4.196,0.747l4.168,0.87l15.893,2.039l15.959,0.224l16.29,-0.841l16.886,-1.159l0.141,-0.008l0.269,-0.018l0.122,-0.008m3.541,-43.959l-3.608,-6.21l-3.557,-6.235l-3.457,-6.286l-3.305,-6.36l-1.128,-2.272l-1.124,-2.276l-1.144,-2.268l-1.184,-2.251l-0.765,-1.383l-0.797,-1.364l-0.838,-1.335l-0.885,-1.298l-2.109,-2.697l-2.259,-2.586l-2.29,-2.584l-2.203,-2.695l-2.092,-2.929l-2.055,-2.946l-2.197,-2.749l-2.518,-2.336l-2.281,-1.461l-2.437,-1.3l-2.443,-1.364l-2.297,-1.654l-1.665,-1.62l-1.594,-1.685l-1.642,-1.482l-1.811,-1.013l-1.649,-0.343l-1.781,-0.013l-1.859,0.165l-1.88,0.191l-3.674,0.077l-3.574,-0.296l-3.507,-0.545l-3.473,-0.67m148.376,74.467l0.91,-0.639l0.878,-0.664l0.814,-0.714l0.719,-0.789" style="fill:none;fill-rule:nonzero;stroke:#000;stroke-width:0.94px;"/><path d="M1039.71,348.868l0.577,-0.847l0.472,-0.926l0.378,-0.99l0.295,-1.042l0.29,-1.585l0.071,-1.593l-0.217,-1.53l-0.575,-1.395l-1.039,-1.259l-1.382,-0.978l-1.588,-0.65l-1.659,-0.272l-1.647,0.121l-1.606,0.385l-1.594,0.473l-1.61,0.385l-1.487,0.15l-1.503,-0.047l-1.496,-0.224l-1.469,-0.382l-2.425,-0.945l-2.346,-1.125l-2.328,-1.077l-2.371,-0.802l-1.628,-0.28l-1.677,-0.065l-1.729,0.144l-1.782,0.345l-2.337,0.739l-2.158,1.083l-1.703,1.446l-0.596,0.866l-0.38,0.964l-0.153,1.002l-0.038,1.054l-0.032,1.067l-0.136,1.041l-0.361,1.061l-0.56,0.986l-0.71,0.915l-0.809,0.843l-2.526,2.004l-2.811,1.523l-3.005,1.108l-3.111,0.756l-4.995,0.626l-5.024,0.081l-5.042,-0.281l-5.053,-0.461m756.122,674.908l14.577,0" style="fill:none;fill-rule:nonzero;stroke:#000;stroke-width:0.94px;"/><path d="M1715.12,996.66l20.67,0m-20.67,0l20.67,0m-20.67,0l20.67,0m-256.369,29.528l-20.669,0l-0,-29.528l20.669,0l-0,29.528m-236.742,0l-20.669,0l0,-29.528l20.669,0l0,29.528m216.073,0l-20.67,0l0,-29.528l20.67,0l-0,29.528m-236.221,-14.764l-0.521,0m216.072,0l-195.403,0" style="fill:none;fill-rule:nonzero;stroke:#000;stroke-width:0.94px;"/><path d="M1232.13,1252.81c125.158,-0 226.619,-101.461 226.619,-226.619" style="fill:none;fill-rule:nonzero;stroke:#000;stroke-width:0.94px;"/><path d="M1232.13,1026.19l-0,226.619m-19.59,-462.837l0,162.401" style="fill:none;fill-rule:nonzero;stroke:#000;stroke-width:0.94px;"/><path d="M1395.72,962.921c-0,-95.676 -77.561,-173.237 -173.236,-173.237" style="fill:none;fill-rule:nonzero;stroke:#000;stroke-width:0.94px;"/><path d="M1222.48,962.921l173.236,-0m-173.28,-10.547l-0.411,-162.69m0.455,162.69l-0,20.669l-20.67,-0.005l0,-20.669l20.67,0.005m-0,-183.359l-0,20.669l-20.67,-0.004l0,-20.67l20.67,0.005" style="fill:none;fill-rule:nonzero;stroke:#000;stroke-width:0.94px;"/><path d="M1236.5,778.124c89.692,-0 162.401,-72.71 162.401,-162.402" style="fill:none;fill-rule:nonzero;stroke:#000;stroke-width:0.94px;"/><path d="M1236.5,615.722l-0,162.402m-34.633,218.536l-0.8,-380.824m21.469,380.824l-0.049,-23.617m-0.498,-204.028l-0.991,-504.557m512.365,646.52l-0,-590.285m-261.881,295.155l0,-351.39m37.963,351.409l-0,-351.409m-308.379,351.254l308.379,0.155" style="fill:none;fill-rule:nonzero;stroke:#000;stroke-width:0.94px;"/><path d="M1733.36,910.978c163.003,4.893 299.109,-123.281 304.001,-286.284m0,-0c4.892,-163.003 -123.282,-299.109 -286.284,-304.001m-0,-0c-5.905,-0.177 -11.813,-0.177 -17.717,-0" style="fill:none;fill-rule:nonzero;stroke:#000;stroke-width:0.94px;"/><path d="M1321.06,432.555l-99.801,0.21" style="fill:none;fill-rule:nonzero;stroke:#000;stroke-width:0.94px;"/><path d="M1321.06,403.028c-16.308,-0 -29.528,13.219 -29.528,29.527m-0,0c-0,16.308 13.22,29.528 29.528,29.528m-0,-0c16.307,-0 29.527,-13.22 29.527,-29.528m0,0c0,-16.308 -13.22,-29.527 -29.527,-29.527" style="fill:none;fill-rule:nonzero;stroke:#000;stroke-width:0.94px;"/><path d="M1733.36,320.693l-223.918,-0m-0,56.179l17.717,-0m-17.717,45.704l17.717,-0m-17.717,45.704l17.717,-0m-17.717,45.704l17.717,0m-17.717,45.704l17.717,0m28.262,321.025l15.285,16.343m-22.639,39.454l19.162,-13.104m-16.53,-7.949l17.736,5.866m16.657,-2.427l-16.657,2.427m20.821,-5.824l-4.164,3.397m-1.514,-5.339l5.678,1.942m3.029,-1.942l-6.057,-0.97m7.571,-7.766l-1.514,8.736m-0.379,2.913l-6.164,4.756m11.843,3.98l-5.679,-8.736m4.164,-9.707l-1.135,8.736m6.675,11.396l-6.675,-11.396m-23.554,-15.769l12.197,13.827m2.65,-0.97l-12.358,-13.714m31.655,3.016l-11.726,2.932m12.583,-0.443l-10.312,2.385m-22.2,-7.89l-0.249,-2.116m3.015,-16.368l-3.015,16.368m3.015,-16.368l-2.585,-8.938m-11.048,52.208l-18.024,-2.139m-12.702,46.569l3.948,-14.474m-3.948,14.474l3.948,-3.947m2.632,-10.527l3.947,9.211m2.631,2.632l-1.315,-9.211m-7.895,7.895l9.21,1.316m-1.315,-9.211l14.474,-1.316m5.263,-26.316l1.316,14.474m-6.579,11.842l2.631,-7.895m-25,6.579l11.842,-17.105m7.895,15.79l-5.263,-13.158m35.043,-17.916l-16.622,2.125m-7.895,23.685l14.474,-3.947l-6.579,-19.738m-42.106,26.317l5.263,18.421m-1.315,-35.527l2.631,13.158m7.895,-28.948l0,13.159m-7.895,5.263l10.527,2.631m-2.632,-7.894l-10.526,2.631m-1.316,17.106l5.263,0m-1.316,-3.948l-6.579,3.948m23.685,-34.211l-9.211,1.315m30.323,-42.349l-4.501,15.249m-31.983,-10.122l3.317,14.151m2.24,-2.973l12.298,-7.043" style="fill:none;fill-rule:nonzero;stroke:#000;stroke-width:0.94px;"/><path d="M1538.64,893.701l8.184,1.507m7.882,-29.011l-1.141,10.79m3.381,-13.763l-12.664,4.437m16.735,5.621l-4.071,-10.058m-30.54,9.607l-0.021,9.304m-4.438,-12.663l4.459,3.359m-4.459,-3.359l14.883,1.895m2.627,-9.671l-17.51,7.776m4.438,12.663l8.938,-2.585m4.501,-15.248l0.732,5.212m3.726,-1.853l-4.825,-5.965m-2.627,9.671l18.587,9.346m-18.221,-6.741l-8.571,5.191m36.808,16.087l-14.15,3.318m22.764,-27.117l-13.03,1.831m-14.193,21.926l5.924,13.784l18.629,-9.262m56.265,55.238l-15.296,-16.173m17.264,-42.914l-19.918,6.438m-0.498,34.488l-11.613,-11.601m4.025,1.689l10.076,9.056m-4.472,-30.745l-0.832,-0.828m18.912,-29.269l-4.942,6.695l-14.985,-0.719m6.79,17.426l3.221,-14.173m-10.011,-3.253l0.158,20.804m21.459,-23.464l0.94,14.14m15.735,-10.106l-0.908,-9.98m8.448,16.581l-5.005,-1.627m0.031,4.161l7.477,-1.721m-10.73,11.733l-9.198,-5.756m10.888,9.072l1.563,-13.328m8.164,-20.867l-8.227,12.545m8.227,-12.545l-4.974,2.534m4.287,16.612l0.687,-19.146m-20.552,33.444l10.825,0.751m-3.6,-35.759l-1.595,9.167m9.948,-5.069l-8.353,-4.098m5.1,14.109l-16.548,12.609m9.853,-17.551l-14.173,-3.221m-15.848,63.814l-0.248,-2.116m2.059,24.45l4.5,-15.249m12.601,23.476l1.141,-10.79m-7.452,3.704l4.071,10.058m-17.101,-8.227l13.03,-1.831m-15.615,-7.107l2.585,8.938m-2.585,-8.938l3.014,-16.368m26.793,1.549l-5.923,-13.783m14.108,15.291l-8.185,-1.508m5.945,4.48l-12.298,7.043" style="fill:none;fill-rule:nonzero;stroke:#000;stroke-width:0.94px;"/><path d="M1645.87,961.708l8.572,-5.191m-11.199,14.861l-0.732,-5.211m14.171,-12.622l-8.938,2.585m8.917,6.719l0.021,-9.304m-17.897,14.474l4.824,5.965m4.135,-17.854l-3.317,-14.15m16.692,24.229l-14.883,-1.895m14.883,1.895l-4.458,-3.36m-13.052,11.135l17.51,-7.775m-40.511,-51.118l9.166,1.595m-12.14,23.744l14.15,-3.317m14.452,27.201l-18.587,-9.346m2.67,-28.279l-18.63,9.262m14.432,36.505l12.664,-4.437m-9.011,-51.333l4.066,-12.515m-5.755,9.198l-11.733,-10.729m4.256,12.451l-13.391,-9.885" style="fill:none;fill-rule:nonzero;stroke:#000;stroke-width:0.94px;"/><path d="M1573.98,902.903c-2.654,5.419 -3.052,11.669 -1.107,17.382" style="fill:none;fill-rule:nonzero;stroke:#000;stroke-width:0.94px;"/><path d="M1576.63,906.089c-1.647,4.518 -1.579,9.483 0.19,13.955" style="fill:none;fill-rule:nonzero;stroke:#000;stroke-width:0.94px;"/><path d="M1605.5,898.209c-8.839,-6.175 -21.012,-4.016 -27.187,4.823m-0,-0c-0.073,0.104 -0.145,0.209 -0.216,0.315" style="fill:none;fill-rule:nonzero;stroke:#000;stroke-width:0.94px;"/><path d="M1605.53,893.713c-10.326,-5.986 -23.521,-2.998 -30.26,6.853" style="fill:none;fill-rule:nonzero;stroke:#000;stroke-width:0.94px;"/><path d="M1574.11,923.019c5.978,10.905 19.569,15.041 30.607,9.314" style="fill:none;fill-rule:nonzero;stroke:#000;stroke-width:0.94px;"/><path d="M1577.91,922.207c5.143,8.064 15.339,11.263 24.167,7.583" style="fill:none;fill-rule:nonzero;stroke:#000;stroke-width:0.94px;"/><path d="M1603.66,928.718c6.734,-4.099 10.155,-11.996 8.538,-19.712" style="fill:none;fill-rule:nonzero;stroke:#000;stroke-width:0.94px;"/><path d="M1606.75,931.141c6.146,-4.285 9.734,-11.367 9.553,-18.858" style="fill:none;fill-rule:nonzero;stroke:#000;stroke-width:0.94px;"/><path d="M1875.01,397.237l-3.096,-5.902" style="fill:none;fill-rule:nonzero;stroke:#2d2d2d;stroke-width:0.94px;"/><path d="M1874.49,398.133c5.905,-9.79 7.438,-21.606 4.226,-32.579" style="fill:none;fill-rule:nonzero;stroke:#2d2d2d;stroke-width:0.94px;"/><path d="M1848.48,382.482c2.004,-3.045 1.719,-7.056 -0.698,-9.785" style="fill:none;fill-rule:nonzero;stroke:#2d2d2d;stroke-width:0.94px;"/><path d="M1859.45,384.654c-2.626,-4.699 -6.267,-8.754 -10.657,-11.87" style="fill:none;fill-rule:nonzero;stroke:#2d2d2d;stroke-width:0.94px;"/><path d="M1878.13,363.662c-11.723,-1.027 -23.535,0.164 -34.818,3.509" style="fill:none;fill-rule:nonzero;stroke:#2d2d2d;stroke-width:0.94px;"/><path d="M1812.48,395.564c-5.012,7.582 -8.266,16.187 -9.524,25.188" style="fill:none;fill-rule:nonzero;stroke:#2d2d2d;stroke-width:0.94px;"/><path d="M1816.41,416.318c1.377,-4.967 1.722,-10.163 1.018,-15.27" style="fill:none;fill-rule:nonzero;stroke:#2d2d2d;stroke-width:0.94px;"/><path d="M1803.08,363.664c-2.438,17.498 6.888,34.525 22.947,41.891" style="fill:none;fill-rule:nonzero;stroke:#2d2d2d;stroke-width:0.94px;"/><path d="M1845.8,366.501c-13.078,-5.413 -27.347,-7.3 -41.382,-5.473" style="fill:none;fill-rule:nonzero;stroke:#2d2d2d;stroke-width:0.94px;"/><path d="M1846.3,371.037c0.992,0.467 2.17,0.286 2.977,-0.459" style="fill:none;fill-rule:nonzero;stroke:#2d2d2d;stroke-width:0.94px;"/><path d="M1878.13,363.662c-9.9,0.906 -19.619,3.236 -28.854,6.916" style="fill:none;fill-rule:nonzero;stroke:#2d2d2d;stroke-width:0.94px;"/><path d="M1878.71,365.554c0.44,-0.428 0.45,-1.132 0.022,-1.572m-0,0c-0.164,-0.168 -0.376,-0.28 -0.606,-0.32" style="fill:none;fill-rule:nonzero;stroke:#2d2d2d;stroke-width:0.94px;"/><path d="M1878.71,365.554c0.191,-0.303 0.1,-0.703 -0.203,-0.894m-0,-0c-0.09,-0.057 -0.192,-0.091 -0.299,-0.098" style="fill:none;fill-rule:nonzero;stroke:#2d2d2d;stroke-width:0.94px;"/><path d="M1878.21,364.562c-9.762,0.894 -19.346,3.183 -28.458,6.798" style="fill:none;fill-rule:nonzero;stroke:#2d2d2d;stroke-width:0.94px;"/><path d="M1845.92,371.858c1.265,0.592 2.759,0.398 3.832,-0.498" style="fill:none;fill-rule:nonzero;stroke:#2d2d2d;stroke-width:0.94px;"/><path d="M1845.92,371.858c-13.108,-5.87 -27.198,-9.237 -41.543,-9.928" style="fill:none;fill-rule:nonzero;stroke:#2d2d2d;stroke-width:0.94px;"/><path d="M1804.38,361.93c-0.733,0.276 -1.239,0.953 -1.297,1.734" style="fill:none;fill-rule:nonzero;stroke:#2d2d2d;stroke-width:0.94px;"/><path d="M1804.42,361.028c-1.063,0.398 -1.646,1.542 -1.341,2.636" style="fill:none;fill-rule:nonzero;stroke:#2d2d2d;stroke-width:0.94px;"/><path d="M1846.3,371.037c-13.213,-5.918 -27.416,-9.313 -41.876,-10.009" style="fill:none;fill-rule:nonzero;stroke:#2d2d2d;stroke-width:0.94px;"/><path d="M1815.63,398.762c-5.921,6.148 -10.002,13.831 -11.784,22.179" style="fill:none;fill-rule:nonzero;stroke:#2d2d2d;stroke-width:0.94px;"/><path d="M1802.96,420.752c-0.051,0.245 0.105,0.484 0.349,0.535m0,-0c0.243,0.051 0.482,-0.104 0.534,-0.346" style="fill:none;fill-rule:nonzero;stroke:#2d2d2d;stroke-width:0.94px;"/><path d="M1814.98,398.135c-6.038,6.27 -10.201,14.104 -12.017,22.617" style="fill:none;fill-rule:nonzero;stroke:#2d2d2d;stroke-width:0.94px;"/><path d="M1803.84,420.941c15.719,6.626 32.754,9.54 49.781,8.515" style="fill:none;fill-rule:nonzero;stroke:#2d2d2d;stroke-width:0.94px;"/><path d="M679.226,432.765c-101.107,-0 -183.071,81.963 -183.071,183.071m0,-0c0,101.107 81.964,183.071 183.071,183.071m0,-0c101.107,-0 183.071,-81.964 183.071,-183.071" style="fill:none;fill-rule:nonzero;stroke:#000;stroke-width:0.94px;"/><path d="M1922.72,469.175l5.662,-5.647" style="fill:none;fill-rule:nonzero;stroke:#2d2d2d;stroke-width:0.94px;"/><path d="M1921.26,501.136c7.614,-11.413 10.097,-25.494 6.847,-38.823" style="fill:none;fill-rule:nonzero;stroke:#2d2d2d;stroke-width:0.94px;"/><path d="M1888.39,481.86c3.747,-2.258 5.512,-6.748 4.309,-10.954" style="fill:none;fill-rule:nonzero;stroke:#2d2d2d;stroke-width:0.94px;"/><path d="M1889.59,482.125c6.145,-1.994 11.768,-5.331 16.461,-9.77" style="fill:none;fill-rule:nonzero;stroke:#2d2d2d;stroke-width:0.94px;"/><path d="M1881.3,486.586c11.72,7.878 24.82,13.477 38.612,16.507" style="fill:none;fill-rule:nonzero;stroke:#2d2d2d;stroke-width:0.94px;"/><path d="M1854.31,410.754c-1.787,10.759 -1.148,21.781 1.872,32.261" style="fill:none;fill-rule:nonzero;stroke:#2d2d2d;stroke-width:0.94px;"/><path d="M1863.81,438.508c2.639,-5.595 4.106,-11.669 4.312,-17.851" style="fill:none;fill-rule:nonzero;stroke:#2d2d2d;stroke-width:0.94px;"/><path d="M1875.27,436.432c-21.032,2.675 -37.819,18.827 -41.304,39.74" style="fill:none;fill-rule:nonzero;stroke:#2d2d2d;stroke-width:0.94px;"/><path d="M1834.56,479.671c15.416,7.127 32.434,10.084 49.351,8.576" style="fill:none;fill-rule:nonzero;stroke:#2d2d2d;stroke-width:0.94px;"/><path d="M1889.35,484.823c-0.656,-1.142 -1.94,-1.772 -3.245,-1.593" style="fill:none;fill-rule:nonzero;stroke:#2d2d2d;stroke-width:0.94px;"/><path d="M1889.35,484.823c9.256,7.527 19.549,13.681 30.561,18.27" style="fill:none;fill-rule:nonzero;stroke:#2d2d2d;stroke-width:0.94px;"/><path d="M1919.91,503.093c0.731,0.097 1.401,-0.418 1.497,-1.148m0,-0c0.037,-0.279 -0.015,-0.562 -0.149,-0.809" style="fill:none;fill-rule:nonzero;stroke:#2d2d2d;stroke-width:0.94px;"/><path d="M1920.33,502.093c0.418,0.098 0.837,-0.161 0.935,-0.579m0,-0c0.029,-0.125 0.028,-0.254 -0.005,-0.378" style="fill:none;fill-rule:nonzero;stroke:#2d2d2d;stroke-width:0.94px;"/><path d="M1890.17,484.099c9.138,7.409 19.292,13.468 30.151,17.994" style="fill:none;fill-rule:nonzero;stroke:#2d2d2d;stroke-width:0.94px;"/><path d="M1890.17,484.099c-0.907,-1.41 -2.548,-2.168 -4.209,-1.944" style="fill:none;fill-rule:nonzero;stroke:#2d2d2d;stroke-width:0.94px;"/><path d="M1834.83,478.622c16.675,4.355 34.017,5.553 51.133,3.533" style="fill:none;fill-rule:nonzero;stroke:#2d2d2d;stroke-width:0.94px;"/><path d="M1833.97,476.172c-0.214,0.915 0.123,1.872 0.864,2.45" style="fill:none;fill-rule:nonzero;stroke:#2d2d2d;stroke-width:0.94px;"/><path d="M1833.97,476.172c-0.741,1.143 -0.485,2.662 0.59,3.499" style="fill:none;fill-rule:nonzero;stroke:#2d2d2d;stroke-width:0.94px;"/><path d="M1834.56,479.671c16.809,4.39 34.291,5.597 51.543,3.559" style="fill:none;fill-rule:nonzero;stroke:#2d2d2d;stroke-width:0.94px;"/><path d="M1947.85,442.447c1.462,-0.249 2.446,-1.636 2.198,-3.099m0,0c-0.097,-0.573 -0.379,-1.1 -0.801,-1.5" style="fill:none;fill-rule:nonzero;stroke:#2d2d2d;stroke-width:0.94px;"/><path d="M1928.3,468.009c9.809,-5.407 16.901,-14.68 19.549,-25.562" style="fill:none;fill-rule:nonzero;stroke:#2d2d2d;stroke-width:0.94px;"/><path d="M1855.38,410.855c-0.954,10.198 0.964,20.46 5.539,29.625" style="fill:none;fill-rule:nonzero;stroke:#2d2d2d;stroke-width:0.94px;"/><path d="M1855.38,410.855c0.026,-0.298 -0.194,-0.562 -0.492,-0.588m0,-0c-0.296,-0.027 -0.559,0.191 -0.588,0.487" style="fill:none;fill-rule:nonzero;stroke:#2d2d2d;stroke-width:0.94px;"/><path d="M1854.31,410.754c-0.973,10.4 0.984,20.864 5.649,30.21" style="fill:none;fill-rule:nonzero;stroke:#2d2d2d;stroke-width:0.94px;"/><path d="M1949.25,437.848c-26.741,-20.558 -60.287,-30.205 -93.864,-26.993" style="fill:none;fill-rule:nonzero;stroke:#2d2d2d;stroke-width:0.94px;"/><path d="M1884.88,411.315c-1.087,-6.642 -4.159,-12.8 -8.812,-17.662" style="fill:none;fill-rule:nonzero;stroke:#2d2d2d;stroke-width:0.94px;"/><path d="M1733.36,996.66l-0,-85.682" style="fill:none;fill-rule:nonzero;stroke:#000;stroke-width:0.94px;"/><path d="M1718.78,1026.19c0,16.352 13.257,29.608 29.609,29.608" style="fill:none;fill-rule:nonzero;stroke:#000;stroke-width:0.94px;"/><path d="M1718.78,1026.19l14.577,0m15.032,29.608l2.685,0m-17.717,-88.582l17.717,-0m-38.386,29.446l20.669,0m-0,29.528l-20.669,0l-0,-29.528m20.669,-29.527l-0,59.055m-0,-58.974l-0,58.974m-20.669,-29.528l20.669,0m-20.669,0l20.669,0m-20.669,14.764l-233.268,0m-257.411,14.764l493.11,0m0,-29.528l-493.11,0l0,29.528" style="fill:none;fill-rule:nonzero;stroke:#000;stroke-width:0.94px;"/><path d="M1594.58,615.836l0.36,10.298l1.077,10.249l1.79,10.148l2.493,9.999l1.861,5.73m4.144,11.053l1.039,2.572l4.518,9.263l5.152,8.924l5.763,8.543l6.344,8.12l2.174,2.415m8.142,8.547l3.992,3.855l7.894,6.624l8.337,6.057l8.739,5.461l9.099,4.838m11.275,4.869l7.823,2.847l9.905,2.84l10.08,2.143l10.205,1.434l7.986,0.558m11.805,0.16l0.794,0l10.28,-0.718l10.204,-1.434l10.08,-2.143l9.906,-2.84l4.915,-1.789m10.922,-4.476l3.261,-1.451l9.098,-4.838l8.739,-5.461l8.337,-6.057l7.894,-6.624l1.767,-1.706m8.297,-8.397l4.245,-4.714l6.344,-8.12l5.762,-8.543l5.153,-8.924l4.377,-8.976m4.367,-10.97l2.818,-8.672l2.493,-9.999l1.789,-10.148l1.077,-10.249l0.252,-7.207m-0.196,-11.803l-0.056,-1.587l-1.077,-10.248l-1.789,-10.149l-2.493,-9.999l-3.185,-9.8l-1.661,-4.114m-4.804,-10.782l-1.912,-3.921" style="fill:none;fill-rule:nonzero;stroke:#656565;stroke-width:0.94px;"/><path d="M1872.58,546.524l-5.153,-8.924l-5.762,-8.544l-6.344,-8.12l-6.896,-7.658l-1.195,-1.154m-8.644,-8.041l-5.468,-4.587l-8.337,-6.058l-8.739,-5.46l-9.098,-4.838l-8.398,-3.739m-11.078,-4.085l-9.528,-2.733l-10.08,-2.142l-10.204,-1.434l-10.28,-0.719l-6.418,-0m-11.791,0.552l-2.376,0.167l-10.205,1.434l-10.08,2.142l-9.905,2.841l-9.684,3.524l-3.328,1.482m-10.632,5.127l-4.553,2.421l-8.739,5.46l-8.337,6.058l-7.894,6.623l-7.413,7.159m-8.357,9.529l-4.882,6.249l-5.763,8.544l-5.152,8.924l-4.518,9.262l-3.146,7.787m-3.774,11.187l-0.124,0.381l-2.493,9.999l-1.79,10.149l-1.077,10.248l-0.36,10.299m-767.716,-0l-0.36,-10.299l-1.077,-10.248l-1.789,-10.149l-2.493,-9.999l-1.862,-5.729m-4.144,-11.053l-1.039,-2.573l-4.517,-9.262l-5.153,-8.924l-5.762,-8.544l-6.345,-8.12l-2.174,-2.415m-8.142,-8.547l-3.992,-3.855l-7.894,-6.623l-8.337,-6.058" style="fill:none;fill-rule:nonzero;stroke:#656565;stroke-width:0.94px;"/><path d="M761.784,493.438l-8.739,-5.46l-9.099,-4.838m-11.275,-4.869l-7.822,-2.847l-9.906,-2.841l-10.08,-2.142l-10.204,-1.434l-7.986,-0.559m-11.806,-0.16l-0.793,-0l-10.28,0.719l-10.205,1.434l-10.08,2.142l-9.905,2.841l-4.915,1.789m-10.923,4.475l-3.26,1.452l-9.099,4.838l-8.739,5.46l-8.337,6.058l-7.894,6.623l-1.766,1.706m-8.298,8.397l-4.244,4.714l-6.344,8.12l-5.763,8.544l-5.152,8.924l-4.378,8.975m-4.367,10.97l-2.817,8.672l-2.493,9.999l-1.79,10.149l-1.077,10.248l-0.252,7.207m0.197,11.804l0.055,1.586l1.077,10.249l1.79,10.148l2.493,9.999l3.184,9.801l1.662,4.113m4.803,10.783l1.913,3.921l5.152,8.924l5.763,8.543l6.344,8.12l6.895,7.659l1.196,1.154m8.644,8.04l5.467,4.588l8.337,6.057l8.739,5.461l9.099,4.838l8.397,3.738m11.078,4.086l9.528,2.732l10.08,2.143l10.205,1.434l10.28,0.718" style="fill:none;fill-rule:nonzero;stroke:#656565;stroke-width:0.94px;"/><path d="M674.074,763.383l6.417,0m11.792,-0.552l2.376,-0.166l10.204,-1.434l10.08,-2.143l9.906,-2.84l9.683,-3.525l3.328,-1.482m10.632,-5.126l4.553,-2.421l8.739,-5.461l8.337,-6.057l7.894,-6.624l7.413,-7.158m8.357,-9.529l4.883,-6.25l5.762,-8.543l5.153,-8.924l4.517,-9.263l3.146,-7.786m3.775,-11.188l0.124,-0.381l2.493,-9.999l1.789,-10.148l1.077,-10.249l0.36,-10.298m35.433,-0l-0,-0.294" style="fill:none;fill-rule:nonzero;stroke:#656565;stroke-width:0.94px;"/><path d="M670.368,175.875l-11.521,0l-23.01,1.206l-22.915,2.408l-22.758,3.605l-22.538,4.79l-22.257,5.964l-21.913,7.12l-21.511,8.258l-21.05,9.372l-20.53,10.46l-19.955,11.521l-19.324,12.549l-18.641,13.544l-17.907,14.5l-17.123,15.418l-16.293,16.293l-15.418,17.123l-14.5,17.907l-13.543,18.641l-12.55,19.324l-11.521,19.955l-10.46,20.53l-9.372,21.049l-8.258,21.511l-7.12,21.914l-5.963,22.257l-4.791,22.538l-3.604,22.758l-2.409,22.915l-1.206,23.01l0,23.041l1.206,23.01l2.409,22.916l3.604,22.757l4.791,22.539l5.963,22.256l7.12,21.914l8.258,21.511l9.372,21.049l10.46,20.531l11.521,19.954l12.55,19.325l13.543,18.64l14.5,17.907l15.418,17.123l16.293,16.293l17.123,15.418l17.907,14.501l18.641,13.543l19.324,12.549" style="fill:none;fill-rule:nonzero;stroke:#000;stroke-width:0.94px;"/><path d="M440.41,991.092l19.955,11.521l20.53,10.461l21.05,9.372l21.511,8.257l21.913,7.12l22.257,5.964l22.538,4.79l22.758,3.605l22.915,2.408l23.01,1.206l11.521,0m-0,-88.582l-9.201,-0l-18.377,-0.963l-18.302,-1.924l-18.176,-2.879l-18,-3.826l-17.775,-4.763l-17.502,-5.686l-17.18,-6.595l-16.811,-7.485l-16.397,-8.355l-15.937,-9.201l-15.433,-10.022l-14.888,-10.817l-14.301,-11.581l-13.676,-12.314l-13.012,-13.012l-12.314,-13.675l-11.581,-14.302l-10.816,-14.887l-10.023,-15.434l-9.201,-15.937l-8.354,-16.396l-7.485,-16.812l-6.595,-17.18l-5.687,-17.501l-4.763,-17.776l-3.826,-18l-2.878,-18.176l-1.924,-18.301l-0.963,-18.377l-0,-18.403l0.963,-18.376l1.924,-18.302l2.878,-18.176l3.826,-18l4.763,-17.775l5.687,-17.502l6.595,-17.18l7.485,-16.811" style="fill:none;fill-rule:nonzero;stroke:#000;stroke-width:0.94px;"/><path d="M353.111,464.512l8.354,-16.397l9.201,-15.937l10.023,-15.433l10.816,-14.888l11.581,-14.301l12.314,-13.676l13.012,-13.012l13.676,-12.314l14.301,-11.581l14.888,-10.816l15.433,-10.023l15.937,-9.201l16.397,-8.355l16.811,-7.485l17.18,-6.594l17.502,-5.687l17.775,-4.763l18,-3.826l18.176,-2.879l18.302,-1.923l18.377,-0.963l9.201,-0m1092.23,-88.583l-11.521,0m-0,88.583l9.201,-0l18.377,0.963l18.301,1.923l18.176,2.879l18,3.826l17.775,4.763l17.502,5.687l17.18,6.594l16.812,7.485l16.396,8.355l15.937,9.201l15.433,10.023l14.888,10.816l14.301,11.581l13.676,12.314l13.012,13.012l12.314,13.676l11.581,14.301l10.817,14.888l10.022,15.433l9.201,15.937l8.355,16.397l7.485,16.811l6.595,17.18l5.686,17.502l4.763,17.775l3.826,18" style="fill:none;fill-rule:nonzero;stroke:#000;stroke-width:0.94px;"/><path d="M2096.69,551.78l2.879,18.176l1.923,18.302l0.963,18.376l0,18.403l-0.963,18.377l-1.923,18.301l-2.879,18.176l-3.826,18l-4.763,17.776l-5.686,17.501l-6.595,17.18l-7.485,16.812l-8.355,16.396l-9.201,15.937l-10.022,15.434l-10.817,14.887l-11.581,14.302l-12.314,13.675l-13.012,13.012l-13.676,12.314l-14.301,11.581l-14.888,10.817l-15.433,10.022l-15.937,9.201l-16.396,8.355l-16.812,7.485l-17.18,6.595l-17.502,5.686l-17.775,4.763l-18,3.826l-18.176,2.879l-18.301,1.924l-18.377,0.963l-9.201,-0m-0,88.582l11.521,0l23.009,-1.206l22.915,-2.408l22.758,-3.605l22.539,-4.79l22.256,-5.964l21.914,-7.12l21.511,-8.257l21.05,-9.372l20.53,-10.461l19.954,-11.521l19.324,-12.549l18.642,-13.543l17.906,-14.501l17.123,-15.418l16.293,-16.293" style="fill:none;fill-rule:nonzero;stroke:#000;stroke-width:0.94px;"/><path d="M2070.32,918.788l15.418,-17.123l14.5,-17.907l13.544,-18.64l12.549,-19.325l11.521,-19.954l10.461,-20.531l9.371,-21.049l8.258,-21.511l7.12,-21.914l5.964,-22.256l4.79,-22.539l3.605,-22.757l2.408,-22.916l1.206,-23.01l0,-23.041l-1.206,-23.01l-2.408,-22.915l-3.605,-22.758l-4.79,-22.538l-5.964,-22.257l-7.12,-21.914l-8.258,-21.511l-9.371,-21.049l-10.461,-20.53l-11.521,-19.955l-12.549,-19.324l-13.544,-18.641l-14.5,-17.907l-15.418,-17.123l-16.293,-16.293l-17.123,-15.418l-17.906,-14.5l-18.642,-13.544l-19.324,-12.549l-19.954,-11.521l-20.53,-10.46l-21.05,-9.372l-21.511,-8.258l-21.914,-7.12l-22.256,-5.964l-22.539,-4.79l-22.758,-3.605l-22.915,-2.408l-23.009,-1.206m-11.521,0l-1080.71,0m-0,88.583l1080.71,-0m-1706.3,797.716l-12.755,-12.756m12.755,-867.165l-12.755,-12.756m6.377,886.299l-10.629,0m10.629,0l10.63,0" style="fill:none;fill-rule:nonzero;stroke:#000;stroke-width:0.94px;"/><path d="M38.403,175.875l-10.629,0m10.629,0l10.63,0m-10.63,879.921l0,10.63m0,-890.551l0,-10.63" style="fill:none;fill-rule:nonzero;stroke:#000;stroke-width:0.94px;"/><path d="M38.403,1055.8l0,-879.921m77.244,797.717l-12.755,-12.756m12.755,-689.037l-12.755,-12.756m6.378,708.171l-10.63,-0m10.63,-0l10.63,-0m-10.63,-701.793l-10.63,-0m10.63,-0l10.63,-0m-10.63,701.793l-0,10.63m-0,-712.423l-0,-10.63" style="fill:none;fill-rule:nonzero;stroke:#000;stroke-width:0.94px;"/><path d="M109.27,967.214l-0,-701.793m114.759,-220.62l12.756,-12.755m1947.87,12.755l12.756,-12.755m-1967.01,6.378l0,-10.63m0,10.63l0,10.63m1960.63,-10.63l0,-10.63m0,10.63l0,10.63m-1960.63,-10.63l-10.63,-0m1971.26,-0l10.63,-0" style="fill:none;fill-rule:nonzero;stroke:#000;stroke-width:0.94px;"/><path d="M230.407,38.424l1960.63,-0m-1878.42,80.196l12.756,-12.755m1770.71,12.755l12.757,-12.755m-1789.84,6.378l-0,-10.63m-0,10.63l-0,10.629m1783.46,-10.629l0,-10.63m0,10.63l0,10.629m-1783.46,-10.629l-10.63,-0m1794.09,-0l10.63,-0" style="fill:none;fill-rule:nonzero;stroke:#000;stroke-width:0.94px;"/><g transform="matrix(0,-4.16667,4.16667,0,-2532.33,-337.239)"><text x="-238.163px" y="615.143px" style="font-family:'LucidaGrande', 'Lucida Grande', sans-serif;font-weight:500;font-size:9.969px;">3<tspan x="-232.504px -229.995px -224.336px " y="615.143px 615.143px 615.143px ">.00</tspan></text><text x="-255.054px" y="630.782px" style="font-family:'LucidaGrande', 'Lucida Grande', sans-serif;font-weight:500;font-size:9.969px;">2<tspan x="-249.317px -246.73px -240.993px -235.256px -228.206px -225.531px -219.795px -217.207px -211.471px -205.734px " y="630.782px 630.782px 630.782px 630.782px 630.782px 630.782px 630.782px 630.782px 630.782px 630.782px ">.40	(2.35)</tspan></text></g><g transform="matrix(4.16667,0,0,4.16667,-2532.33,-337.239)"><text x="888.822px" y="88.327px" style="font-family:'LucidaGrande', 'Lucida Grande', sans-serif;font-weight:500;font-size:9.969px;">6<tspan x="894.481px 896.99px 902.649px " y="88.327px 88.327px 88.327px ">.65</tspan></text><text x="873.366px" y="104.676px" style="font-family:'LucidaGrande', 'Lucida Grande', sans-serif;font-weight:500;font-size:9.969px;">6<tspan x="879.103px 881.69px 887.426px " y="104.676px 104.676px 104.676px ">.05</tspan></text><text x="897.74px" y="104.676px" style="font-family:'LucidaGrande', 'Lucida Grande', sans-serif;font-weight:500;font-size:9.969px;">(<tspan x="900.415px 906.152px 908.739px 914.476px 920.212px " y="104.676px 104.676px 104.676px 104.676px 104.676px ">6.00)</tspan></text></g><text x="836.559px" y="819.576px" style="font-family:'LucidaGrande', 'Lucida Grande', sans-serif;font-weight:500;font-size:58.153px;">6<tspan x="869.586px 884.241px 917.268px 950.295px 964.95px 1015.5px " y="819.576px 819.576px 819.576px 819.576px 819.576px 819.576px ">.50 m²</tspan></text><text x="1381.74px" y="819.449px" style="font-family:'LucidaGrande', 'Lucida Grande', sans-serif;font-weight:500;font-size:58.153px;">6<tspan x="1414.77px 1429.42px 1462.45px 1495.48px 1510.13px 1560.68px " y="819.449px 819.449px 819.449px 819.449px 819.449px 819.449px ">.50 m²</tspan></text><path d="M318.99,112.243l1783.46,-0" style="fill:none;fill-rule:nonzero;stroke:#000;stroke-width:0.94px;"/><path d="M1036.49,834.733l5.983,-0.523l5.8,-1.554l5.442,-2.538l4.919,-3.444l4.246,-4.246l3.444,-4.919l2.538,-5.442l1.554,-5.801l0.523,-5.982l-0.523,-5.981l-1.554,-5.801l-2.538,-5.442l-3.444,-4.919l-4.246,-4.246l-4.919,-3.444l-5.442,-2.538l-5.8,-1.554l-5.983,-0.523l-199.935,-0l-5.982,0.523l-5.8,1.554l-5.443,2.538l-4.918,3.444l-4.247,4.246l-3.444,4.919l-2.538,5.442l-1.554,5.801l-0.523,5.981l0.523,5.982l1.554,5.801l2.538,5.442l3.444,4.919l4.247,4.246l4.918,3.444l5.443,2.538l5.8,1.554l5.982,0.523l199.935,0" style="fill:none;fill-rule:nonzero;stroke:#000;stroke-width:0.94px;"/><path d="M1581.68,834.607l5.982,-0.524l5.8,-1.554l5.443,-2.537l4.919,-3.445l4.246,-4.246l3.444,-4.919l2.538,-5.442l1.554,-5.8l0.523,-5.982l-0.523,-5.982l-1.554,-5.8l-2.538,-5.443l-3.444,-4.918l-4.246,-4.246l-4.919,-3.445l-5.443,-2.537l-5.8,-1.555l-5.982,-0.523l-199.935,0l-5.982,0.523l-5.8,1.555l-5.443,2.537l-4.919,3.445l-4.246,4.246l-3.444,4.918l-2.538,5.443l-1.554,5.8l-0.523,5.982l0.523,5.982l1.554,5.8l2.538,5.442l3.444,4.919l4.246,4.246l4.919,3.445l5.443,2.537l5.8,1.554l5.982,0.524l199.935,-0" style="fill:none;fill-rule:nonzero;stroke:#000;stroke-width:0.94px;"/></svg>