<?xml version="1.0" encoding="UTF-8" standalone="no"?><!DOCTYPE svg PUBLIC "-//W3C//DTD SVG 1.1//EN" "http://www.w3.org/Graphics/SVG/1.1/DTD/svg11.dtd"><svg width="100%" height="100%" viewBox="0 0 6850 4196" version="1.1" xmlns="http://www.w3.org/2000/svg" xmlns:xlink="http://www.w3.org/1999/xlink" xml:space="preserve" xmlns:serif="http://www.serif.com/" style="fill-rule:evenodd;clip-rule:evenodd;stroke-linecap:round;stroke-linejoin:round;stroke-miterlimit:10;"><rect x="5364.56" y="4034.9" width="66.438" height="25.833" style="fill:#808080;"/><path d="M5364.54,4060.73l20.137,0m24.609,0l21.691,0m-66.437,0l-0,-3.371m-0,-22.462l20.137,-0m24.609,-0l21.691,-0m0,25.833l0,-3.371m-66.437,3.371l66.437,0l0,-25.833l-66.437,-0l-0,25.833" style="fill:none;fill-rule:nonzero;stroke:#000;stroke-width:3.92px;"/><rect x="5364.54" y="4060.73" width="33.217" height="67.671" style="fill:#808080;"/><path d="M5397.79,4128.4l-0,-67.671l-33.217,0l0,67.671l33.217,0m-0,-67.671l-0,67.671l-33.217,0l0,-67.671l33.217,0" style="fill:none;fill-rule:nonzero;stroke:#000;stroke-width:3.92px;"/><path d="M5498,4030.33l1.179,25.809l-66.367,3.033l-1.183,-25.809l66.371,-3.033Z" style="fill:#808080;"/><path d="M5478.71,4057.08l20.475,-0.938m-21.654,-24.87l20.475,-0.938m-65.187,28.842l66.366,-3.034l-1.179,-25.808l-66.371,3.034l1.184,25.808" style="fill:none;fill-rule:nonzero;stroke:#000;stroke-width:3.92px;"/><path d="M5435.88,4126.77l-3.087,-67.6l33.183,-1.513l3.087,67.596l-33.183,1.517Z" style="fill:#808080;"/><path d="M5469.08,4125.25l-3.087,-67.6l-33.184,1.517l3.088,67.6l33.183,-1.517m-3.087,-67.6l3.087,67.6l-33.183,1.517l-3.087,-67.6l33.183,-1.517" style="fill:none;fill-rule:nonzero;stroke:#000;stroke-width:3.92px;"/><path d="M5564.71,4022.71l2.355,25.729l-66.159,6.058l-2.358,-25.729l66.162,-6.058Z" style="fill:#808080;"/><path d="M5500.92,4054.5l66.158,-6.058m-68.517,-19.671l0.25,2.737m-0.25,-2.737l66.163,-6.058m-0,-0l0.25,2.737m-64.054,29.05l66.158,-6.058l-2.354,-25.729l-66.163,6.058l2.359,25.729" style="fill:none;fill-rule:nonzero;stroke:#000;stroke-width:3.92px;"/><path d="M5507.08,4121.88l-6.171,-67.383l33.08,-3.029l6.175,67.383l-33.084,3.029Z" style="fill:#808080;"/><path d="M5540.17,4118.85l-6.175,-67.383l-33.079,3.029l6.17,67.387l33.084,-3.033m-6.175,-67.383l6.175,67.383l-33.084,3.033l-6.171,-67.387l33.08,-3.029" style="fill:none;fill-rule:nonzero;stroke:#000;stroke-width:3.92px;"/><path d="M5631,4012.05l3.529,25.596l-65.816,9.075l-3.53,-25.596l65.817,-9.075Z" style="fill:#808080;"/><path d="M5598.04,4042.68l24.375,-3.362m-55.48,-5.617l1.796,13.021m25.779,-29.637l24.375,-3.359m13.867,10.904l1.796,13.017m-65.817,9.075l65.817,-9.075l-3.529,-25.596l-65.817,9.075l3.529,25.596" style="fill:none;fill-rule:nonzero;stroke:#000;stroke-width:3.92px;"/><path d="M5577.96,4113.76l-9.241,-67.033l32.908,-4.537l9.242,67.033l-32.909,4.537Z" style="fill:#808080;"/><path d="M5610.88,4109.22l-9.242,-67.034l-32.908,4.538l9.242,67.029l32.908,-4.533m-9.242,-67.033l9.242,67.033l-32.908,4.533l-9.242,-67.029l32.908,-4.538" style="fill:none;fill-rule:nonzero;stroke:#000;stroke-width:3.92px;"/><path d="M5696.75,3998.38l4.692,25.404l-65.334,12.071l-4.691,-25.408l65.333,-12.067Z" style="fill:#808080;"/><path d="M5649.12,4033.45l24.196,-4.467m-28.888,-20.937l24.196,-4.471m-32.533,32.283l65.333,-12.07l-4.696,-25.405l-65.329,12.067l4.692,25.408" style="fill:none;fill-rule:nonzero;stroke:#000;stroke-width:3.92px;"/><path d="M5648.42,4102.4l-12.292,-66.542l32.667,-6.033l12.291,66.542l-32.666,6.033Z" style="fill:#808080;"/><path d="M5681.08,4096.37l-12.291,-66.542l-32.667,6.033l12.292,66.542l32.666,-6.033m-12.291,-66.542l12.291,66.542l-32.666,6.033l-12.292,-66.542l32.667,-6.033" style="fill:none;fill-rule:nonzero;stroke:#000;stroke-width:3.92px;"/><path d="M5761.79,3981.72l5.845,25.163l-64.712,15.041l-5.846,-25.166l64.713,-15.038Z" style="fill:#808080;"/><path d="M5702.92,4021.93l62.916,-14.625m-68.762,-10.541l62.916,-14.621m-57.07,39.787l64.712,-15.041l-5.846,-25.167l-64.712,15.042l5.846,25.166" style="fill:none;fill-rule:nonzero;stroke:#000;stroke-width:3.92px;"/><path d="M5718.25,4087.84l-15.321,-65.909l32.359,-7.521l15.316,65.913l-32.354,7.517Z" style="fill:#808080;"/><path d="M5750.62,4080.32l-15.317,-65.913l-32.358,7.521l15.321,65.909l32.354,-7.517m-15.317,-65.913l15.317,65.913l-32.354,7.517l-15.321,-65.909l32.358,-7.521" style="fill:none;fill-rule:nonzero;stroke:#000;stroke-width:3.92px;"/><path d="M5826.04,3962.11l6.991,24.87l-63.958,17.98l-6.992,-24.875l63.959,-17.975Z" style="fill:#808080;"/><path d="M5769.04,4004.96l49.008,-13.775m-51.054,6.495l2.046,7.28m-6.992,-24.876l49.008,-13.775m19.896,13.396l2.046,7.275m-63.958,17.979l63.958,-17.979l-6.992,-24.871l-63.958,17.975l6.992,24.875" style="fill:none;fill-rule:nonzero;stroke:#000;stroke-width:3.92px;"/><path d="M5787.38,4070.1l-18.312,-65.141l31.979,-8.988l18.312,65.142l-31.979,8.987Z" style="fill:#808080;"/><path d="M5819.33,4061.12l-18.312,-65.146l-31.979,8.992l18.312,65.141l31.979,-8.987m-18.312,-65.146l18.312,65.146l-31.979,8.987l-18.312,-65.141l31.979,-8.992" style="fill:none;fill-rule:nonzero;stroke:#000;stroke-width:3.92px;"/><path d="M5889.29,3939.59l8.116,24.525l-63.07,20.875l-8.117,-24.525l63.071,-20.875Z" style="fill:#808080;"/><path d="M5834.33,3985l60.579,-20.054m-68.695,-4.475l5.558,16.787m-5.558,-16.787l60.579,-20.054m2.491,-0.825l5.559,16.787m-60.513,28.621l63.071,-20.879l-8.117,-24.529l-63.07,20.879l8.116,24.529" style="fill:none;fill-rule:nonzero;stroke:#000;stroke-width:3.92px;"/><path d="M5855.58,4049.23l-21.266,-64.237l31.537,-10.442l21.267,64.242l-31.538,10.437Z" style="fill:#808080;"/><path d="M5887.12,4038.8l-21.267,-64.242l-31.537,10.442l21.267,64.237l31.537,-10.437m-21.267,-64.242l21.267,64.242l-31.537,10.437l-21.267,-64.237l31.537,-10.442" style="fill:none;fill-rule:nonzero;stroke:#000;stroke-width:3.92px;"/><path d="M5951.46,3914.2l9.229,24.133l-62.05,23.738l-9.233,-24.133l62.054,-23.738Z" style="fill:#808080;"/><path d="M5910.29,3957.61l22.983,-8.792m-41.562,-4.863l6.929,18.109m2.421,-28.588l22.983,-8.792m29.721,-4.466l6.925,18.112m-62.05,23.734l62.05,-23.734l-9.229,-24.133l-62.055,23.737l9.234,24.13" style="fill:none;fill-rule:nonzero;stroke:#000;stroke-width:3.92px;"/><path d="M5922.79,4025.27l-24.175,-63.204l31.025,-11.867l24.175,63.2l-31.025,11.871Z" style="fill:#808080;"/><path d="M5953.83,4013.4l-24.175,-63.2l-31.025,11.867l24.175,63.2l31.025,-11.867m-24.175,-63.2l24.175,63.2l-31.025,11.867l-24.175,-63.2l31.025,-11.867" style="fill:none;fill-rule:nonzero;stroke:#000;stroke-width:3.92px;"/><path d="M6012.42,3886l10.321,23.688l-60.9,26.541l-10.325,-23.683l60.904,-26.546Z" style="fill:#808080;"/><path d="M5989.71,3924.08l22.559,-9.833m-32.88,-13.854l22.555,-9.829m-40.105,45.662l60.9,-26.542l-10.32,-23.687l-60.905,26.546l10.325,23.683" style="fill:none;fill-rule:nonzero;stroke:#000;stroke-width:3.92px;"/><path d="M5988.83,3998.26l-27.033,-62.034l30.45,-13.271l27.038,62.03l-30.455,13.275Z" style="fill:#808080;"/><path d="M6019.29,3984.99l-27.038,-62.03l-30.45,13.271l27.034,62.034l30.454,-13.276m-27.038,-62.029l27.038,62.029l-30.454,13.275l-27.034,-62.033l30.45,-13.271" style="fill:none;fill-rule:nonzero;stroke:#000;stroke-width:3.92px;"/><path d="M6072,3855.05l11.392,23.188l-59.625,29.295l-11.396,-23.187l59.629,-29.296Z" style="fill:#808080;"/><path d="M6023.75,3907.53l59.625,-29.295m-71.021,6.108l11.396,23.187m-11.396,-23.187l59.629,-29.3m0,-0l11.392,23.192m-59.625,29.295l59.625,-29.295l-11.392,-23.192l-59.629,29.3l11.396,23.187" style="fill:none;fill-rule:nonzero;stroke:#000;stroke-width:3.92px;"/><path d="M6053.58,3968.27l-29.837,-60.734l29.812,-14.646l29.842,60.73l-29.817,14.65Z" style="fill:#808080;"/><path d="M6083.42,3953.62l-29.842,-60.734l-29.813,14.65l29.838,60.734l29.817,-14.65m-29.842,-60.734l29.842,60.734l-29.817,14.65l-29.837,-60.734l29.812,-14.65" style="fill:none;fill-rule:nonzero;stroke:#000;stroke-width:3.92px;"/><path d="M6130.12,3821.4l12.442,22.646l-58.229,31.992l-12.442,-22.646l58.229,-31.992Z" style="fill:#808080;"/><path d="M6084.33,3876.04l7.567,-4.159m43.133,-23.695l7.53,-4.138m-70.671,9.346l12.071,21.975m-12.071,-21.975l7.566,-4.159m43.134,-23.691l7.529,-4.138m-0,0l12.071,21.971m-57.859,32.663l58.23,-31.992l-12.442,-22.642l-58.229,31.988l12.441,22.646" style="fill:none;fill-rule:nonzero;stroke:#000;stroke-width:3.92px;"/><path d="M6116.92,3935.35l-32.579,-59.304l29.112,-15.996l32.583,59.308l-29.116,15.992Z" style="fill:#808080;"/><path d="M6146,3919.35l-32.583,-59.308l-29.113,15.996l32.579,59.304l29.117,-15.992m-32.583,-59.308l32.583,59.308l-29.117,15.992l-32.579,-59.304l29.113,-15.996" style="fill:none;fill-rule:nonzero;stroke:#000;stroke-width:3.92px;"/><path d="M6186.62,3785.15l13.458,22.05l-56.704,34.617l-13.462,-22.055l56.708,-34.612Z" style="fill:#808080;"/><path d="M6159.17,3832.18l21.004,-12.816m-43.096,12.1l6.317,10.35m2.316,-31.684l21,-12.82m27.071,-0.459l6.317,10.346m-56.704,34.617l56.704,-34.617l-13.458,-22.05l-56.709,34.613l13.463,22.054" style="fill:none;fill-rule:nonzero;stroke:#000;stroke-width:3.92px;"/><path d="M6178.62,3899.58l-35.254,-57.758l28.354,-17.309l35.254,57.759l-28.354,17.308Z" style="fill:#808080;"/><path d="M6207,3882.27l-35.254,-57.759l-28.354,17.309l35.254,57.758l28.354,-17.308m-35.254,-57.759l35.254,57.759l-28.354,17.308l-35.254,-57.758l28.354,-17.309" style="fill:none;fill-rule:nonzero;stroke:#000;stroke-width:3.92px;"/><path d="M6241.42,3746.35l14.454,21.417l-55.067,37.166l-14.454,-21.416l55.067,-37.167Z" style="fill:#808080;"/><path d="M6206.67,3800.97l20.395,-13.767m20.396,-13.766l8.413,-5.679m-69.129,16.333l13.766,20.396m-8.295,-24.934l20.395,-13.766m20.392,-13.767l8.417,-5.679m0.391,0.583l13.767,20.396m-54.771,37.604l55.067,-37.167l-14.454,-21.416l-55.067,37.166l14.454,21.417" style="fill:none;fill-rule:nonzero;stroke:#000;stroke-width:3.92px;"/><path d="M6238.67,3861.02l-37.855,-56.088l27.534,-18.583l37.854,56.087l-27.533,18.584Z" style="fill:#808080;"/><path d="M6266.21,3842.43l-37.854,-56.087l-27.533,18.583l37.854,56.088l27.533,-18.584m-37.854,-56.087l37.854,56.087l-27.533,18.584l-37.854,-56.088l27.533,-18.583" style="fill:none;fill-rule:nonzero;stroke:#000;stroke-width:3.92px;"/><path d="M6294.42,3705.08l15.421,20.734l-53.313,39.641l-15.421,-20.733l53.313,-39.642Z" style="fill:#808080;"/><path d="M6275.46,3751.36l19.746,-14.683m-46.691,18.054l7.979,10.729m3.55,-34.833l19.745,-14.683m22.042,-0.854l7.979,10.729m-53.316,39.641l53.316,-39.641l-15.416,-20.734l-53.317,39.642l15.417,20.733" style="fill:none;fill-rule:nonzero;stroke:#000;stroke-width:3.92px;"/><path d="M6296.88,3819.76l-40.379,-54.305l26.658,-19.82l40.375,54.304l-26.654,19.821Z" style="fill:#808080;"/><path d="M6323.54,3799.94l-40.375,-54.304l-26.659,19.82l40.38,54.3l26.654,-19.816m-40.375,-54.305l40.375,54.305l-26.655,19.816l-40.379,-54.3l26.659,-19.82" style="fill:none;fill-rule:nonzero;stroke:#000;stroke-width:3.92px;"/><path d="M6345.46,3661.45l16.346,20.008l-51.446,42.034l-16.35,-20.009l51.45,-42.033Z" style="fill:#808080;"/><path d="M6310.33,3723.49l14.655,-11.971m-31.001,-8.038l16.346,20.008m-16.345,-20.008l14.654,-11.971m36.796,-30.062l16.345,20.008m-51.45,42.033l51.45,-42.033l-16.346,-20.008l-51.45,42.033l16.346,20.008" style="fill:none;fill-rule:nonzero;stroke:#000;stroke-width:3.92px;"/><path d="M6353.17,3775.89l-42.817,-52.4l25.725,-21.017l42.813,52.4l-25.721,21.017Z" style="fill:#808080;"/><path d="M6378.88,3754.87l-42.813,-52.4l-25.724,21.017l42.816,52.4l25.721,-21.017m-42.812,-52.4l42.812,52.4l-25.721,21.017l-42.816,-52.4l25.725,-21.017m42.812,52.4l0.004,-0" style="fill:none;fill-rule:nonzero;stroke:#000;stroke-width:3.92px;"/><path d="M6394.42,3615.52l17.241,19.242l-49.471,44.341l-17.245,-19.241l49.475,-44.342Z" style="fill:#808080;"/><path d="M6362.21,3679.1l49.475,-44.341m-66.716,25.099l49.475,-44.341m-32.234,63.583l49.475,-44.342l-17.241,-19.241l-49.475,44.341l17.241,19.242" style="fill:none;fill-rule:nonzero;stroke:#000;stroke-width:3.92px;"/><path d="M6407.38,3729.5l-45.162,-50.392l24.741,-22.171l45.159,50.392l-24.738,22.171Z" style="fill:#808080;"/><path d="M6432.08,3707.33l-45.158,-50.392l-24.742,22.171l45.163,50.392l24.737,-22.171m-45.158,-50.392l45.158,50.392l-24.737,22.171l-45.163,-50.392l24.742,-22.171" style="fill:none;fill-rule:nonzero;stroke:#000;stroke-width:3.92px;"/><path d="M6441.29,3567.41l18.104,18.434l-47.4,46.554l-18.104,-18.434l47.4,-46.554Z" style="fill:#808080;"/><path d="M6412,3632.4l1.2,-1.179m35.113,-34.484l11.087,-10.891m-65.504,28.12l12.437,12.663m-12.437,-12.662l1.2,-1.18m35.112,-34.483l11.088,-10.887m-0,-0l12.437,12.662m-41.733,52.321l47.4,-46.554l-18.104,-18.429l-47.4,46.55l18.104,18.433" style="fill:none;fill-rule:nonzero;stroke:#000;stroke-width:3.92px;"/><path d="M6459.42,3680.68l-47.413,-48.279l23.7,-23.275l47.413,48.275l-23.7,23.279Z" style="fill:#808080;"/><path d="M6483.08,3657.4l-47.412,-48.275l-23.7,23.275l47.412,48.279l23.7,-23.279m-47.412,-48.275l47.412,48.275l-23.7,23.279l-47.412,-48.279l23.7,-23.275" style="fill:none;fill-rule:nonzero;stroke:#000;stroke-width:3.92px;"/><path d="M6485.88,3517.21l18.925,17.588l-45.225,48.671l-18.925,-17.588l45.225,-48.671Z" style="fill:#808080;"/><path d="M6459.58,3583.47l9.125,-9.821m16.75,-18.025l16.75,-18.025m-61.55,28.283l17.392,16.163m-17.392,-16.163l9.125,-9.821m16.746,-18.025l16.75,-18.025m2.604,-2.8l17.392,16.163m-43.692,50.096l45.225,-48.671l-18.925,-17.588l-45.225,48.671l18.925,17.588" style="fill:none;fill-rule:nonzero;stroke:#000;stroke-width:3.92px;"/><path d="M6509.17,3629.53l-49.571,-46.062l22.612,-24.334l49.571,46.063l-22.612,24.333Z" style="fill:#808080;"/><path d="M6531.75,3605.2l-49.571,-46.063l-22.612,24.334l49.571,46.062l22.612,-24.333m-49.571,-46.063l49.571,46.063l-22.612,24.333l-49.571,-46.062l22.612,-24.334" style="fill:none;fill-rule:nonzero;stroke:#000;stroke-width:3.92px;"/><path d="M6556.5,3576.17l-51.621,-43.754l21.479,-25.342l51.621,43.754l-21.479,25.342Z" style="fill:#808080;"/><path d="M6578,3550.83l-51.621,-43.754l-21.479,25.341l51.621,43.751l21.479,-25.338m-51.621,-43.754l51.621,43.754l-21.479,25.338l-51.621,-43.751l21.479,-25.341" style="fill:none;fill-rule:nonzero;stroke:#000;stroke-width:3.92px;"/><path d="M6506.46,3490.61l19.709,16.705l-21.275,25.1l-19.709,-16.705l21.275,-25.1Z" style="fill:#808080;"/><path d="M6504.88,3532.41l21.275,-25.1m-40.983,8.395l21.275,-25.104m-1.567,41.809l21.275,-25.101l-19.708,-16.708l-21.275,25.104l19.708,16.705m-2604.41,226.891l-0,-2386.81" style="fill:none;fill-rule:nonzero;stroke:#000;stroke-width:3.92px;"/><path d="M6516.33,3498.94c515.305,-636.109 417.375,-1569.51 -218.737,-2084.82m-0,-0c-263.954,-213.825 -593.342,-330.5 -933.038,-330.5" style="fill:none;fill-rule:nonzero;stroke:#000;stroke-width:3.92px;"/><path d="M5290.75,1434.01l-73.817,0l0,-61.516l98.425,-0l0,92.275l-24.608,-0l0,-30.759m0,2263.78l0,-30.759l24.608,0l0,92.275l-98.425,0l0,-61.517l73.817,0m0,-30.758l0,-2202.26l24.608,-0l0,2202.26l-24.608,0m-73.817,-2233.02l73.817,0l0,92.275l-98.425,0l0,-92.275l24.608,0m73.817,2171.51l-0,92.274l-98.425,0l-0,-92.274l98.425,-0.001m-0,-2079.23l-0,2079.23l-98.425,-0l-0,-2079.23l98.425,0m-34.446,0l0,2079.23l-29.529,-0l-0,-2079.23l29.529,0m59.054,-153.791l86.121,-0l0,2386.81l-86.121,0l0,-2386.81" style="fill:none;fill-rule:nonzero;stroke:#000;stroke-width:3.92px;"/><path d="M5745.75,3878.48c438.996,-127.491 785.188,-466.004 922.5,-902.029" style="fill:none;fill-rule:nonzero;stroke:#000;stroke-width:3.92px;"/><path d="M5745.75,3878.48l94.521,-27.45m-94.521,27.45l62.988,-65.441l25.254,86.958l-88.242,-21.517m922.5,-902.029l-29.567,93.883m29.567,-93.883l-66.837,61.504l86.37,27.2l-19.533,-88.704m-2861.91,1127.34l55.366,-0l0,-73.817l36.909,0l-0,98.425l-92.275,0l-0,-24.608m-976.238,-73.817l0,73.817l55.367,-0l-0,24.608l-92.275,0l-0,-98.425l36.908,0m55.367,73.817l920.871,-0l-0,24.608l-920.871,0l-0,-24.608m976.237,-98.425l0,-1007" style="fill:none;fill-rule:nonzero;stroke:#000;stroke-width:3.92px;"/><path d="M2830.11,4029.97c0,-569.742 461.867,-1031.6 1031.61,-1031.6" style="fill:none;fill-rule:nonzero;stroke:#000;stroke-width:3.92px;"/><path d="M3861.71,4103.79l-1031.61,-0l0,-98.425l1031.61,-0l-0,98.425m-865.513,-98.425l-61.517,-0l0,-12.304l61.517,-0l0,12.304m-43.058,-12.304l24.604,-0l-0,-36.909l116.879,0l0,-24.604l-141.483,0l-0,61.513m30.758,110.729l-36.912,-0l-0.001,86.121l36.913,-0l0,-86.121m209.325,-1315.52l7.396,16.829m-0.471,-487.921l-7.367,16.842m40.846,489.192l-13.537,-13.513m13.579,13.554l1.433,-1.433l2.846,-2.85l1.879,-1.888l4.521,-4.525l3.15,-3.158m-27.408,0.3l13.579,13.554m193.2,-522.921l166.954,-0.158m-351.192,0.338l6.096,-0.005m345.096,-0.333l42.758,-0.042m-387.854,0.375l11.746,-0.012l21.637,-0.021l52.159,-0.05m359.825,-0.35l1.975,0m-361.8,0.35l92.6,-0.092m-191.275,-0.22l7.037,0.4m460.517,-0.85l-7.079,0.412m10.137,-2.642l-3.058,2.23m-470.604,-1.771l3.05,2.221m472.141,-9l-1.529,6.321m-475.191,-5.859l1.529,6.317m475.55,-15.604l-0.359,8.825m-477.095,-8.363l0.375,8.825m-0.017,-17.65l-0.358,8.825m477.079,-9.287l0.375,8.825m-1.917,-15.138l1.542,6.313m-475.204,-5.859l-1.517,6.321m4.562,-8.546l-3.045,2.225" style="fill:none;fill-rule:nonzero;stroke:#000;stroke-width:3.92px;"/><path d="M3703.12,2264.93l3.062,2.225m-445.562,-2.216l-11.688,0.012m33.234,-0.033l-21.546,0.02m435.171,-0.42l7.329,0.412m-7.329,-0.412l-1.967,-0m-444.892,0.433l-6.083,0.004l-7.284,0.429m98.701,-0.516l-52.101,0.05m354.346,-0.342l-42.729,0.037l-166.937,0.163l-92.579,0.092m93.149,592.191l166.951,-0.162m-351.188,0.337l6.096,-0.004m345.092,-0.333l42.758,-0.042m-387.85,0.375l11.746,-0.012l21.637,-0.021l52.158,-0.05m359.821,-0.346l1.975,-0.004m-361.796,0.35l92.6,-0.088m256.646,-0.25l10.575,-0.008m-28.808,0.025l18.233,-0.017m-46.937,0.046l28.704,-0.029m-429.692,0.008l7.042,0.4m460.512,-0.85l-7.079,0.413m10.142,-2.642l-3.063,2.229m-470.604,-1.77l3.05,2.22m472.142,-9l-1.525,6.321m-475.196,-5.858l1.529,6.317m475.55,-15.605l-0.358,8.825m-477.096,-8.362l0.375,8.825m-0.017,-17.65l-0.358,8.825m477.079,-9.283l0.375,8.82m-1.912,-15.137l1.537,6.317m-475.204,-5.859l-1.517,6.317m4.563,-8.546l-3.046,2.229m470.6,-2.683l3.067,2.225m-445.567,-2.217l-11.687,0.013m33.233,-0.034l-21.546,0.021m435.175,-0.421l7.325,0.413m-7.325,-0.413l-1.971,0m-444.891,0.434l-6.084,0.004l-7.283,0.429m98.7,-0.517l-52.1,0.05m411.658,-0.4l-10.521,0.013l-18.154,0.017l-28.637,0.029l-42.725,0.037l-166.938,0.163l-92.583,0.091m-122.058,-11.875l12.025,-0.008" style="fill:none;fill-rule:nonzero;stroke:#000;stroke-width:3.92px;"/><path d="M3224.77,2809.7l9.891,-0.017m-31.321,0.029l9.405,-0.004m21.916,-0.025l4.671,-0.016m-46.354,0.041l10.362,0.004m35.992,-0.045l2.954,-0.017l1.134,-0.029m8.212,-0.438l-8.212,0.438m15.795,-0.871l-3.412,0.05m31.012,-0.304l-21.42,0.166m3.82,-0.029l-10,0.117m0.5,-0.308l-8.083,0.741m63.217,-0.858l-28.034,0.171m506.017,-0.721l-39.612,0.075m-257.446,0.133l147.946,-0.062m-328.871,0.404l92.666,-0.304l88.259,-0.038m297.058,-0.208l6.383,-0.192m-567.541,-0.125l-9.638,0.175m18.234,-0.016l-8.596,-0.159m22.358,0.1l-6.167,-0.116l-7.595,0.175m18.779,-0.188l-5.017,0.129m8.058,0l-3.041,-0.129m4.266,-0.008l-1.225,0.137m1.225,-0.137l-3.6,1.021m-37.679,-0.809l-10.483,-0.166m-29.417,-0.292l10.842,2.533m619.587,-4.858l-13.35,2.733m-587.662,-0.116l-10.929,-2.363m-22.254,-0.479l3.766,2.55m633.342,-3.188l-2.913,0.863m-547.533,-0.379l-1.717,2.95m553.292,-5.917l-1.129,2.484m-550.446,0.483l1.717,-2.592l1.391,-2.479m550.73,-2.221l-2.263,4.325m-232.575,2.763l-0.142,-8.171m-60.066,0.025l0.237,8.204m120.079,-8.371l0.025,8.25m-239.375,-8.071l0.45,8.317m129.005,3.517l7.412,13.416m-151.996,-13.304l-6.883,13.459m-114.642,-28.4l0.004,6.262m-99.337,-11.367l9.567,16.592m645.604,-21.433l-0.679,2.571m-270.146,22.195l7.6,13.405m-190.121,-13.221l-7.154,13.412m-170.246,-33.279l0.512,-8.817m630.234,3.734l1.325,-4.809m-478.942,18.463l-0.787,-20.254" style="fill:none;fill-rule:nonzero;stroke:#000;stroke-width:3.92px;"/><path d="M3704.52,2796.48l-0.071,-20.266m104.129,-0.259l-0.375,20.375m-518.475,-0.291l-0.6,-20.505m473.375,-0.704l0.034,21.592m-600.609,-51.592l6.871,43.2m17.967,-50.116l6.97,41.541m631.559,-1.075l3.554,-41.637m-541.487,-1.896l1.766,40.688m-20.996,17.599l-4.25,-59.8m-106.675,-47.874l4.721,59.37m20.379,-63.145l4.459,56.229m642.083,-1.171l1.358,-55.933m-487.816,0.245l3.175,95.534m118.333,19.379l-2.6,-115.046m60.496,-0.071l2.025,115.267m60.067,-0.025l-1.505,-115.313m60.705,-0.07l1.05,115.241m-356.775,-61.104l-1.938,-54.354m-24.679,-1.017l3.137,53.859m-109.5,-109.996l2.825,62.121m185.184,-4.405l-1.138,-59.25m-161.604,0.017l2.658,59.863m647.9,-0.875l0.405,-59.684m-545.188,59.367l-1.325,-58.946m-25.479,-0.496l2.125,58.425m-2.896,-118.391l0.771,59.966m323.762,59.729l-0.65,-120.008m-240.479,61.033l-0.433,-60.8m120.479,119.917l-1.079,-120.033m60.716,-0.059l0.859,120.021m-238.192,-119.791l0.496,60.487m358.517,-60.837l0.47,120m-464.379,-119.55l0.942,60.662m-26.246,-60.637l0.979,62.154m676.229,-2.213l-0.054,-110.462m-572.708,50.421l0.654,-59.967m25.479,-0.55l-0.379,60.492m-104.071,-60.559l-0.825,60.659m524.879,-61.267l0.863,276.321m-551.046,-215.029l0.863,-62.155m104.237,2.088l2.013,-58.429m24.675,-1.067l-1.209,58.946m358.871,-59.854l-0.237,119.996m-60.467,-119.95l-0.417,120.012m-60.796,0.058l0.625,-120.02m-60.495,0.041l-0.846,120.038m369.754,-120.638l0.583,70.413m-648.483,-70.034l-2.542,59.871m-25.266,-1.471l2.7,-62.125m103.55,5.784l3.037,-53.867" style="fill:none;fill-rule:nonzero;stroke:#000;stroke-width:3.92px;"/><path d="M3285.19,2441.62l1.833,-54.358m541.483,-2.942l1.467,55.929m-643.55,-55.858l-4.35,56.237m-25.108,-3.725l4.604,-59.383m125.454,9.742l1.688,-40.688m519.866,429.379l-0.383,-430.962m-45.692,429.837l-0.233,-429.791m66.237,39.283l-3.633,-41.633m-631.558,0.15l-6.892,41.554m637.113,-46.509l1.337,4.805m-2.021,-7.375l0.684,2.57m-655.175,-3.57l-6.792,43.208m31.746,-34.683l-0.534,-8.817m74.9,-5.012l-4.129,59.812m440.571,-63.2l-0.537,174.271m-242.521,-59.042l2.375,-115.05m-59.109,-0.046l-2.983,115.138m242.333,-115.425l-0.829,115.246m-121.291,0.096l1.804,-115.275m60.066,-0.088l-1.283,115.313m226.046,-95.767l-0.45,-20.221m-518.471,1.3l-0.562,20.504m473.37,-21.804l0.188,20.267m-417.125,0.371l0.754,-20.255m-78.225,-2.4l0.008,6.255m-1.404,-8.734l1.396,2.479m-3.117,-5.07l1.721,2.591m548.725,-3.171l1.134,2.48m-647.775,14.729l9.533,-16.613m111.217,8.888l2.8,-9.004m351.77,7.883l0.005,-8.246m-60.255,8.225l0.125,-8.171m-179.225,8.479l0.43,-8.32m410.241,-0.33l-2.916,-0.858m-634.192,1.454l3.758,-2.558m18.496,2.037l10.925,-2.383m51.763,-0.058l1.72,2.946m-17.175,-2.934l-7.591,-0.162l-8.6,0.175m-9.638,-0.159l9.638,0.159m-9.638,-0.159l-10.479,0.192m587.663,-1.254l13.35,2.704m-405.055,-2.383l88.259,-0.138m297.058,-0.362l6.388,0.179m-155.496,-0.042l-147.95,0.225m147.95,-0.225l57.375,-0.079m91.733,-0.058l-39.608,-0m-52.125,0.058l52.125,-0.058m-438.375,0.375l92.666,0.125m-147.795,-0.138l3.6,1.013" style="fill:none;fill-rule:nonzero;stroke:#000;stroke-width:3.92px;"/><path d="M3314.37,2313.74l-28.034,-0.121m-27.6,-0.196l-3.412,-0.046m-4.175,-0.375l8.092,0.725m-8.092,-0.725l-8.213,-0.425m-1.129,-0.021l1.129,0.021m-50.441,0.013l-10.838,2.554m57.196,-2.604l2.954,0.016m-49.312,0.034l10.366,-0.021m31.317,-0.033l4.675,0.004m-35.992,0.029l9.404,-0.017m12.025,-0.012l9.888,-0.005m-21.913,0.017l12.025,-0.012m164.892,1.3l-6.912,-13.459m151.495,13.288l7.396,-13.442m-178.2,0.171l7.188,13.417m190.104,-13.604l-7.583,13.429m83.916,-13.505l57.513,-0.058m-0.142,-35.562l-57.446,0.058m-350.175,49.046l-27.6,-0.196m86.413,31.988l-4.325,215.595m60.529,-120.112l3.437,355.237m418.067,-460.816l-6.717,-15.729m7.155,466.175l-4.425,11.416m-65.65,10.671l-109.5,0.071" style="fill:none;fill-rule:nonzero;stroke:#000;stroke-width:3.92px;"/><path d="M2793.2,1003.4l-40.917,0l-81.716,4.279l-81.384,8.554l-80.825,12.805l-80.041,17.012l-79.042,21.179l-77.829,25.288l-76.396,29.325l-74.754,33.283l-72.913,37.15l-70.866,40.917l-68.63,44.566l-66.204,48.1l-63.596,51.5l-60.812,54.755l-57.863,57.862l-54.754,60.813l-51.5,63.595l-48.096,66.2l-44.57,68.634l-40.913,70.866l-37.154,72.913l-33.283,74.754l-29.325,76.396l-25.288,77.825l-21.179,79.046l-17.013,80.041l-12.8,80.825l-8.554,81.38l-4.283,81.72l-0,81.829l4.283,81.721l8.554,81.384l12.8,80.82l17.013,80.042l21.179,79.046l25.288,77.825l29.325,76.396l33.283,74.758l37.154,72.913l40.913,70.866l44.57,68.63l48.096,66.2l51.5,63.595l54.754,60.813l57.863,57.862l60.812,54.759l63.596,51.496l66.204,48.1l68.63,44.566l70.866,40.917l72.913,37.15l74.754,33.283l76.396,29.325l77.829,25.288l79.042,21.179l80.041,17.017l80.825,12.8l81.384,8.554l81.716,4.283l40.917,0l0,-369.096l-31.25,0l-62.417,-3.271l-62.158,-6.533l-61.729,-9.779l-61.138,-12.992l-60.371,-16.179l-59.441,-19.312l-58.35,-22.4l-57.096,-25.421l-55.692,-28.375l-54.125,-31.25l-52.416,-34.042l-50.567,-36.733l-48.571,-39.334l-46.446,-41.82l-44.196,-44.196l-41.82,-46.446l-39.334,-48.575l-36.737,-50.563l-34.042,-52.416l-31.25,-54.129l-28.375,-55.688l-25.421,-57.1l-22.4,-58.35l-19.312,-59.442l-16.175,-60.37l-12.996,-61.134l-9.775,-61.733l-6.533,-62.158l-3.271,-62.413l-0,-62.5l3.271,-62.417l6.533,-62.158l9.775,-61.733l12.996,-61.134l16.175,-60.37l19.312,-59.442l22.4,-58.35l25.421,-57.096l28.375,-55.692l31.25,-54.125l34.042,-52.42l36.737,-50.563l39.334,-48.571l41.82,-46.45l44.196,-44.191l46.446,-41.825l48.571,-39.33l50.567,-36.737l52.416,-34.042l54.125,-31.25l55.692,-28.375l57.096,-25.421l58.35,-22.4l59.441,-19.312l60.371,-16.179l61.138,-12.992l61.729,-9.779l62.158,-6.533l62.417,-3.271l31.25,-0l0,-369.092Z" style="fill:#fff;fill-rule:nonzero;"/><rect x="2793.2" y="1003.4" width="2263.78" height="369.096" style="fill:#fff;"/><rect x="3898.62" y="3759.3" width="1158.36" height="369.096" style="fill:#fff;"/><path d="M5364.54,1372.49l-0,-369.092l-307.579,0l-0.001,369.092l307.58,-0Zm-0,2386.81l-307.579,0l-0.001,369.096l307.58,0l-0,-369.096Z" style="fill:#fff;fill-rule:nonzero;"/><path d="M5364.54,1372.49l-307.579,-0m-0.001,2386.81l307.58,0m-1465.94,369.096l0,-369.096m-1105.42,-2755.9l-40.916,0l-81.717,4.279l-81.383,8.554l-80.825,12.805l-80.042,17.012l-79.042,21.179l-77.829,25.288l-76.396,29.325l-74.754,33.283l-72.912,37.15l-70.867,40.917l-68.629,44.566l-66.204,48.1l-63.596,51.5l-60.813,54.755l-57.862,57.862l-54.754,60.813l-51.5,63.595l-48.096,66.2l-44.571,68.634l-40.913,70.866l-37.154,72.913l-33.283,74.754l-29.325,76.396l-25.288,77.825l-21.179,79.046l-17.012,80.041l-12.8,80.825l-8.554,81.38l-4.284,81.72l0,81.83l4.284,81.72l8.554,81.384l12.8,80.821l17.012,80.041l21.179,79.046l25.288,77.825l29.325,76.396l33.283,74.758l37.154,72.913l40.913,70.866l44.571,68.63" style="fill:none;fill-rule:nonzero;stroke:#000;stroke-width:3.92px;"/><path d="M1505.06,3451.21l48.095,66.2l51.5,63.595l54.755,60.813l57.862,57.862l60.813,54.759l63.595,51.496l66.204,48.1l68.63,44.566l70.866,40.917l72.913,37.15l74.754,33.283l76.396,29.325l77.829,25.288l79.042,21.179l80.041,17.017l80.825,12.8l81.384,8.554l81.716,4.283l40.917,0l0,-369.096l-31.25,0l-62.417,-3.271l-62.158,-6.533l-61.729,-9.779l-61.138,-12.992l-60.371,-16.179l-59.441,-19.312l-58.35,-22.4l-57.096,-25.421l-55.692,-28.375l-54.125,-31.25l-52.416,-34.042l-50.567,-36.733l-48.571,-39.334l-46.446,-41.82l-44.196,-44.196l-41.82,-46.446l-39.334,-48.575l-36.737,-50.563l-34.042,-52.416l-31.25,-54.129l-28.375,-55.688l-25.421,-57.1l-22.4,-58.35l-19.312,-59.442l-16.175,-60.37l-12.996,-61.134l-9.775,-61.733l-6.533,-62.158l-3.271,-62.413" style="fill:none;fill-rule:nonzero;stroke:#000;stroke-width:3.92px;"/><path d="M1599.8,2597.15l-0,-62.5l3.271,-62.417l6.533,-62.158l9.775,-61.733l12.996,-61.134l16.175,-60.371l19.312,-59.441l22.4,-58.35l25.421,-57.096l28.375,-55.692l31.25,-54.125l34.042,-52.421l36.737,-50.562l39.334,-48.571l41.821,-46.45l44.195,-44.192l46.446,-41.825l48.571,-39.329l50.567,-36.737l52.416,-34.042l54.125,-31.25l55.692,-28.375l57.096,-25.421l58.35,-22.4l59.441,-19.312l60.371,-16.179l61.138,-12.992l61.729,-9.779l62.158,-6.534l62.417,-3.27l31.25,-0m2263.78,-369.092l-2263.78,-0m0,369.092l2263.78,-0m0,2386.81l-1158.36,0m-0,369.096l1158.36,0m307.579,0l0,-369.096m0,-2386.81l0,-369.092l-307.579,0m0,3125l307.579,0m-2571.36,0l1105.42,0m1465.94,-369.096l0,-2386.81m-307.579,-0l0,2386.81m-4870.38,395.667l-53.146,-53.146m53.146,-3071.85l-53.146,-53.146m26.571,3151.58l-44.287,0m44.287,0l44.292,0m-44.292,-3125l-44.287,0m44.287,0l44.292,0m-44.292,3125l0,44.292m0,-3169.29l0,-44.292" style="fill:none;fill-rule:nonzero;stroke:#000;stroke-width:3.92px;"/><path d="M160.013,4128.4l-0,-3125m1044.11,-816.808l53.15,-53.15m5483.29,53.15l53.15,-53.15m-5563,26.575l-0,-44.292m-0,44.292l-0,44.287m5536.42,-44.287l0,-44.292m0,44.292l0,44.287m-5536.42,-44.287l-44.292,-0m5580.71,-0l44.292,-0" style="fill:none;fill-rule:nonzero;stroke:#000;stroke-width:3.92px;"/><path d="M1230.7,160.017l5536.42,-0m-5193.92,334.154l53.15,-53.154m3380.65,53.154l53.15,-53.154m-3460.38,26.579l0,-44.292m0,44.292l0,44.287m3433.8,-44.287l0,-44.292m0,44.292l0,44.287m-3433.8,-44.287l-44.292,-0m3478.09,-0l44.292,-0" style="fill:none;fill-rule:nonzero;stroke:#000;stroke-width:3.92px;"/><path d="M1599.8,467.596l3433.8,-0m-4551.75,3338.86l-53.146,-53.15m53.146,-2354.24l-53.146,-53.15m26.575,2433.97l-44.292,0m44.292,0l44.292,0m-44.292,-2407.39l-44.292,-0m44.292,-0l44.292,-0m-44.292,2407.39l-0,44.292m-0,-2451.68l-0,-44.292" style="fill:none;fill-rule:nonzero;stroke:#000;stroke-width:3.92px;"/><g><g><g transform="matrix(0,-1,1,0,-2602.79,2859.21)"><text x="128.208px" y="2731px" style="font-family:'LucidaGrande', 'Lucida Grande', sans-serif;font-weight:500;font-size:173.075px;">2</text></g><g transform="matrix(0,-1,1,0,-2504.54,2760.96)"><text x="128.208px" y="2632.75px" style="font-family:'LucidaGrande', 'Lucida Grande', sans-serif;font-weight:500;font-size:173.075px;">.55</text></g></g></g><g><text x="3835.28px" y="128.2px" style="font-family:'LucidaGrande', 'Lucida Grande', sans-serif;font-weight:500;font-size:173.075px;">4</text><text x="3933.53px" y="128.2px" style="font-family:'LucidaGrande', 'Lucida Grande', sans-serif;font-weight:500;font-size:173.075px;">.50</text></g><g><text x="3153.06px" y="435.779px" style="font-family:'LucidaGrande', 'Lucida Grande', sans-serif;font-weight:500;font-size:173.075px;">2</text><text x="3251.3px" y="435.779px" style="font-family:'LucidaGrande', 'Lucida Grande', sans-serif;font-weight:500;font-size:173.075px;">.80</text></g><g><g><g transform="matrix(0,-1,1,0,-2317.83,3164.75)"><text x="423.458px" y="2741.29px" style="font-family:'LucidaGrande', 'Lucida Grande', sans-serif;font-weight:500;font-size:173.075px;">1</text></g><g transform="matrix(0,-1,1,0,-2219.58,3066.5)"><text x="423.458px" y="2643.04px" style="font-family:'LucidaGrande', 'Lucida Grande', sans-serif;font-weight:500;font-size:173.075px;">.95</text></g></g></g><g><text x="2728.43px" y="1845.66px" style="font-family:'LucidaGrande', 'Lucida Grande', sans-serif;font-weight:500;font-size:242.304px;">5</text><text x="2866.04px" y="1845.66px" style="font-family:'LucidaGrande', 'Lucida Grande', sans-serif;font-weight:500;font-size:242.304px;">.00 m²</text></g><path d="M455.292,3779.88l-0,-2407.39" style="fill:none;fill-rule:nonzero;stroke:#000;stroke-width:3.92px;"/><path d="M3561.49,1908.81l24.925,-2.18l24.166,-6.475l22.679,-10.575l20.496,-14.35l17.692,-17.691l14.35,-20.496l10.575,-22.675l6.475,-24.171l2.179,-24.925l-2.179,-24.925l-6.475,-24.167l-10.575,-22.675l-14.35,-20.496l-17.692,-17.691l-20.496,-14.35l-22.679,-10.575l-24.166,-6.475l-24.925,-2.179l-833.063,-0l-24.925,2.179l-24.166,6.475l-22.68,10.575l-20.495,14.35l-17.692,17.691l-14.35,20.496l-10.575,22.675l-6.475,24.167l-2.179,24.925l2.179,24.925l6.475,24.171l10.575,22.675l14.35,20.496l17.692,17.691l20.495,14.35l22.68,10.575l24.166,6.475l24.925,2.18l833.063,-0" style="fill:none;fill-rule:nonzero;stroke:#000;stroke-width:3.92px;"/></svg>