<?xml version="1.0" encoding="UTF-8" standalone="no"?><!DOCTYPE svg PUBLIC "-//W3C//DTD SVG 1.1//EN" "http://www.w3.org/Graphics/SVG/1.1/DTD/svg11.dtd"><svg width="100%" height="100%" viewBox="0 0 1612 1226" version="1.1" xmlns="http://www.w3.org/2000/svg" xmlns:xlink="http://www.w3.org/1999/xlink" xml:space="preserve" xmlns:serif="http://www.serif.com/" style="fill-rule:evenodd;clip-rule:evenodd;stroke-linecap:round;stroke-linejoin:round;stroke-miterlimit:10;"><path d="M688.084,967.214l-17.716,-0l-0,88.582l2.685,0l2.58,-0.112l2.561,-0.338l2.522,-0.559l2.463,-0.776l2.387,-0.989l2.291,-1.192l2.178,-1.388l2.05,-1.573l1.904,-1.745l1.745,-1.904l1.572,-2.049l1.388,-2.179l1.193,-2.291l0.988,-2.386l0.777,-2.464l0.559,-2.521l0.337,-2.561l0.113,-2.581l-14.577,0l0,-58.974Z" style="fill:#fff;fill-rule:nonzero;"/><path d="M1142.81,1026.19l-14.577,0l0.113,2.581l0.337,2.561l0.559,2.521l0.777,2.464l0.988,2.386l1.193,2.291l1.388,2.179l1.572,2.049l1.745,1.904l1.905,1.745l2.049,1.573l2.179,1.388l2.291,1.192l2.386,0.989l2.463,0.776l2.522,0.559l2.561,0.338l2.581,0.112l2.684,0l0,-88.582l-17.716,-0l-0,58.974Z" style="fill:#fff;fill-rule:nonzero;"/><path d="M668.793,614.261l3.15,-0l-0,3.149l-3.15,0l0,-3.149m2.953,2.953l-2.756,-0l-0,-2.756l2.756,-0l-0,2.756m-2.559,-2.56l2.362,0l-2.362,0l-0,2.363l2.362,-0l0,-2.363l-2.362,0m0.197,0.197l1.968,0l-1.968,0l-0,1.969l1.968,-0l-0,-1.969l-1.968,0m0.196,0.197l1.575,0l-1.575,0l0,1.575l1.575,0l0,-1.575l-1.575,0m0.197,0.197l1.181,0l0,1.181l-1.181,0l0,-1.181m0.984,0.984l-0.787,0l0,-0.787l0.787,0l0,0.787m-0.59,-0.59l0.394,-0l-0,0.394l-0.394,-0l-0,-0.394m488.78,-1.378l3.149,-0l0,3.149l-3.149,0l-0,-3.149m2.952,2.953l-2.755,-0l-0,-2.756l2.755,-0l0,2.756m-2.559,-2.56l2.362,0l-2.362,0l0,2.363l2.362,-0" style="fill:none;fill-rule:nonzero;stroke:#000;stroke-width:0.94px;"/><path d="M1161.71,617.017l0,-2.363l-2.362,0m0.197,0.197l1.969,0l-1.969,0l0,1.969l1.969,-0l-0,-1.969l-1.969,0m0.197,0.197l1.575,0l-1.575,0l0,1.575l1.575,0l-0,-1.575l-1.575,0m0.197,0.197l1.181,0l-0,1.181l-1.181,0l-0,-1.181m0.984,0.984l-0.787,0l-0,-0.787l0.787,0l0,0.787m-0.59,-0.59l0.393,-0l0,0.394l-0.393,-0l-0,-0.394" style="fill:none;fill-rule:nonzero;stroke:#000;stroke-width:0.94px;"/><path d="M673.053,1055.8c16.352,0 29.608,-13.256 29.608,-29.608" style="fill:none;fill-rule:nonzero;stroke:#000;stroke-width:0.94px;"/><path d="M702.661,1026.19l-14.577,0m-15.031,29.608l-2.685,0m17.716,-88.582l-17.716,-0m17.716,-0l0,58.974" style="fill:none;fill-rule:nonzero;stroke:#000;stroke-width:0.94px;"/><path d="M1128.23,1026.19c0,16.352 13.256,29.608 29.609,29.608" style="fill:none;fill-rule:nonzero;stroke:#000;stroke-width:0.94px;"/><path d="M1128.23,1026.19l14.577,0m15.032,29.608l2.684,0m-17.716,-88.582l17.716,-0m-17.716,-0l-0,58.974m-454.725,0l20.67,0l-0,-20.669l-20.67,-0l0,20.669m20.67,0l20.669,0l-0,-20.669l-20.669,-0l-0,20.669m419.478,0l14.577,0l-20.669,0l-0,-20.669l20.669,-0l-0,20.669m-20.669,0l-20.67,0l0,-20.669l20.67,-0l-0,20.669m-200.601,0l14.577,0m-14.577,0l14.577,0l-20.669,0l-0,-20.669l20.669,-0l-0,20.669m-20.669,0l-20.67,0l0,-20.669l20.67,-0l-0,20.669m-20.67,0l-165.354,0l-0,-20.669l165.354,-0l0,20.669m206.693,0l-165.354,0l-0,-20.669l165.354,-0l0,20.669m-392.716,0l20.669,0l-0,-20.669l-20.669,-0l-0,20.669m20.669,-10.335l165.354,0m41.339,0l165.354,0m-392.716,31.004l3.405,0m8.268,0l8.996,0m-0,0l-0,-4.568" style="fill:none;fill-rule:nonzero;stroke:#000;stroke-width:0.94px;"/><path d="M729.423,1034.02l-0,-7.834m-20.669,0l3.405,0m8.268,0l8.996,0m-20.669,20.669l-0,-4.568m-0,-8.267l-0,-7.834m-0,198.81l3.405,0m8.268,0l8.996,0m-0,0l-0,-20.669m-20.669,-0l3.405,-0m8.268,-0l8.996,-0m-20.669,20.669l-0,-20.669m20.669,-157.472l14.626,0m6.043,0l0,-4.568m0,-8.267l0,-7.834m-20.669,0l14.626,0m-14.626,20.669l-0,-4.568m-0,-8.267l-0,-7.834m-0,198.81l14.626,0m6.043,0l0,-20.669m-20.669,-0l14.626,-0m-14.626,20.669l-0,-20.669m-0,20.669l-0,0" style="fill:none;fill-rule:nonzero;stroke:#000;stroke-width:0.94px;"/><path d="M708.754,1225l-0,-23.26m-0,-8.267l-0,-23.622m-0,-8.268l-0,-23.622m-0,-8.268l-0,-23.622m-0,-8.268l-0,-23.622m-0,-8.267l-0,-23.623m-0,-8.267l-0,-7.834m20.669,178.141l-0,-2.591m-0,-8.267l-0,-23.622m-0,-8.268l-0,-23.622m-0,-8.268l-0,-23.622m-0,-8.268l-0,-23.622m-0,-8.267l-0,-19.055m-0,178.141l-0,-23.26m-0,-8.267l-0,-23.622m-0,-8.268l-0,-23.622m-0,-8.268l-0,-23.622m-0,-8.268l-0,-23.622m-0,-8.267l-0,-23.623m-0,-8.267l-0,-7.834m20.669,178.141l0,-2.591m0,-8.267l0,-23.622m0,-8.268l0,-23.622m0,-8.268l0,-23.622m0,-8.268l0,-23.622m0,-8.267l0,-19.055m-74.459,8.827l482.208,0.112" style="fill:none;fill-rule:nonzero;stroke:#000;stroke-width:0.94px;"/><path d="M767.809,615.836l0.359,10.298l1.078,10.249l1.789,10.148l2.493,9.999l1.862,5.73m4.143,11.053l1.04,2.572l4.517,9.263l5.153,8.924l5.762,8.543l6.344,8.12l2.175,2.415m8.142,8.547l3.992,3.855l7.894,6.624l8.337,6.057l8.739,5.461l9.098,4.838m11.276,4.869l7.822,2.847l9.906,2.84l10.08,2.143l10.204,1.434l7.986,0.558m11.805,0.16l0.794,0l10.28,-0.718l10.205,-1.434l10.079,-2.143l9.906,-2.84l4.915,-1.789m10.923,-4.476l3.26,-1.451l9.099,-4.838l8.739,-5.461l8.336,-6.057l7.895,-6.624l1.766,-1.706m8.297,-8.397l4.245,-4.714l6.344,-8.12l5.763,-8.543l5.152,-8.924l4.378,-8.976m4.366,-10.97l2.818,-8.672l2.493,-9.999l1.79,-10.148l1.077,-10.249l0.251,-7.207m-0.196,-11.803l-0.055,-1.587l-1.077,-10.248l-1.79,-10.149l-2.493,-9.999l-3.184,-9.8l-1.662,-4.114m-4.804,-10.782l-1.912,-3.921" style="fill:none;fill-rule:nonzero;stroke:#656565;stroke-width:0.94px;"/><path d="M1045.8,546.524l-5.152,-8.924l-5.763,-8.544l-6.344,-8.12l-6.896,-7.658l-1.195,-1.154m-8.644,-8.041l-5.468,-4.587l-8.336,-6.058l-8.739,-5.46l-9.099,-4.838l-8.398,-3.739m-11.078,-4.085l-9.528,-2.733l-10.079,-2.142l-10.205,-1.434l-10.28,-0.719l-6.417,-0m-11.792,0.552l-2.376,0.167l-10.204,1.434l-10.08,2.142l-9.906,2.841l-9.683,3.524l-3.328,1.482m-10.633,5.127l-4.552,2.421l-8.739,5.46l-8.337,6.058l-7.894,6.623l-7.413,7.159m-8.357,9.529l-4.883,6.249l-5.762,8.544l-5.153,8.924l-4.517,9.262l-3.146,7.787m-3.775,11.187l-0.124,0.381l-2.493,9.999l-1.789,10.149l-1.078,10.248l-0.359,10.299" style="fill:none;fill-rule:nonzero;stroke:#656565;stroke-width:0.94px;"/><path d="M874.742,552.484l0,50.057m9.308,0l0,-50.057m-31.174,3.101l-0,28.794m4.728,15.209l0.295,-0l-0.147,0.443l0.295,-0l-0.148,0.443l0.296,-0m-0,0.443l0.591,1.624m-0.148,0.295l0.296,0.148l-0.148,0.295l0.295,0.591m0.444,2.215l0.147,0.443l0.148,0.59m0.295,1.477l0.444,2.363l0.147,1.033l0.591,6.645m6.206,7.235l-0.148,-70.286m37.823,18.162l0.443,0.148m-43.437,161.098l0.296,0.295l0.147,0.591m0,50.353l3.694,-0l0.591,-0.443l0.295,-0.739l0.296,-7.531m-23.344,-219.572l-0.148,0.443l0.296,0.591m-0,-0.148l0.147,0.591m0.591,1.181l-0.886,-2.658m0.886,3.249l0,-0.591m3.842,180.885l-0,4.578m0.591,-4.578l-0.591,0m134.597,-372.844l9.16,-0m0.296,40.902l-9.456,-0m11.081,-0.295l-1.625,0.295m3.102,-0.738l-1.477,0.443m-1.921,-40.607l3.398,0.738l1.478,0.738m0.886,37.359l-2.364,1.329m1.478,-38.688l2.068,1.477m1.034,33.962l-2.216,1.92m3.251,-3.249l-1.035,1.329m-1.034,-33.962l2.216,2.806l1.035,2.214m0.148,24.66l-1.33,2.953m1.773,-5.316l-0.443,2.363m0.443,-21.854l-0,19.491m-0.591,-22.297l0.591,2.806m-72.692,196.832l0.296,0m-59.247,27.318l-0.886,1.181" style="fill:none;fill-rule:nonzero;stroke:#000;stroke-width:0.94px;"/><path d="M873.413,602.984l-1.626,0.591m91.16,-0l-0.886,-0.443m1.477,1.033l-0.591,-0.59m0.886,1.329l-0.295,-0.739m-72.396,-25.84l-0.886,-1.772m16.991,17.128l-0.739,0m37.084,-14.323l0.887,-2.805m-14.923,-2.806l-0.147,-1.034m-0.296,-1.181l2.807,0.591m-100.615,93.469l0,19.492l0.148,1.328m0.443,-23.625l-0.591,2.805m0.148,20.82l0.591,1.92l0.738,1.477m0.296,-29.533l-1.182,2.511m2.364,28.941l-0,0.296m-1.478,-2.215l1.478,1.919m1.034,-33.962l-2.216,2.51m2.511,-2.51l-0.295,0m1.034,-0.738l-0.739,0.738m-1.329,34.258l2.216,1.919l2.216,1.181m0,-39.425l-2.364,1.329m2.364,38.096l2.069,0.591m1.034,-40.754l-3.103,0.738m2.069,40.016l8.717,0.148m-0,-40.902l-7.683,-0m147.303,-19.492l0.148,0.296m-118.345,-9.894l-0.295,0m-20.685,156.521l-0.443,-6.201m0.739,7.087l-0.296,-0.886m-0.295,-6.054l0.591,0.739m0.886,6.792l-0.886,-0.591m9.012,-5.611l0.296,-0.295m0.443,6.349l-8.865,0.148m9.603,-1.181l-0.738,1.033m1.182,-6.349l-0.444,5.316m0.296,-6.35l0.148,1.034m66.781,-448.004l-0.591,0.886m1.478,-1.182l-0.887,0.296m37.085,106.759l1.625,0.738l0.591,1.034m14.627,-108.827l-53.041,0m-80.227,406.955l-0.148,-1.034m0,5.464l0.148,-4.43m0.887,4.725l-1.035,-0m35.903,-295.913l0.148,-76.193l0.147,-1.477l0,0.591m0,-0.591l0.148,-0.738" style="fill:none;fill-rule:nonzero;stroke:#000;stroke-width:0.94px;"/><path d="M884.789,366.431l0.148,-1.181l1.034,-2.363l1.773,-2.215l0.296,-0l1.625,-1.329l1.921,-0.886l2.511,-0.591m41.222,169.959l-0,36.472l-0.148,-36.915m-77.419,72.649l-0,-0.296m26.594,-23.035l3.398,0m15.957,-0.443l0.295,0m0.887,-2.067l-2.364,0.148m3.102,-0.296l-0.443,-0.295m55.848,60.246l0.887,-0l1.182,-0.591l0.738,-0.886m-68.849,-80.032l-0.296,-0.295m0.887,13.584l3.841,-1.476m29.549,11.37l0.148,-0.591m-80.965,56.997l-0.148,3.249l0.296,1.329l0.886,1.919m0,-8.712l-1.034,2.215m1.034,-0.886l0,-1.329m0.148,-0.147l-0.148,1.476m0,7.383l0.148,-8.859m9.013,-28.351l-0.148,-0.296m0.443,1.772l-0.295,-1.329m-0.148,-0.443l0.591,1.477m-9.456,36.029l0.148,-7.235m1.921,-50.943l-0,0.295m54.222,-5.611l0.148,-0.738m0.148,4.725l-0,0.591m-0.148,-0.148l0.148,-0.443m23.048,-3.987l0.148,-11.37m0.296,11.075l-0.296,-0.296m0.887,3.397l-0,-0.443m0.738,-1.182l0.148,0.296m-30.879,-25.546l0.739,-0.443m-72.544,-5.463l0.148,2.067m0.148,-2.362l-0.296,0.295m0.148,2.067l2.364,10.041l2.955,9.746m10.49,-8.417l-0.148,-0.443m-10.342,8.86l13.149,46.661m0.887,-44.299l-3.546,-10.779m2.659,55.078l1.773,8.859l0.591,4.282l0.148,2.954" style="fill:none;fill-rule:nonzero;stroke:#000;stroke-width:0.94px;"/><path d="M849.33,630.597l0.148,0.738m7.83,-32.929l-0.147,-0.59m1.625,5.168l-0.443,-1.477m1.625,6.497l-0.148,-0.738m0.443,1.477l-0.295,-0.739m0.738,3.101l-0.443,-2.362m0.591,3.396l-0.148,-1.034m0.591,7.531l-0.443,-6.497m129.87,22.297l-0.148,0.295l0.591,-0.148m-120.266,-2.067l0.443,0.591m2.364,1.033l7.24,0m-19.06,112.371l0,3.691m0.739,-3.691l-0.739,-0m-0.591,20.377l1.33,-0m-9.751,-322.049l-0,110.45m14.479,0.148l0.591,-1.772l1.182,-0.886l0.887,-0.295m24.969,-0.295l-0,0.295m6.057,-2.067l2.217,-2.363m3.102,-103.067l-53.484,-0.148m53.041,100.114l1.33,-5.168m65.747,83.281l-0.887,-0m2.66,-3.101l-1.034,2.658l1.477,-2.658m1.625,-3.249l0.148,-0.443l0.296,-0.295m0.295,-1.772l-2.807,5.759m4.728,-8.86l0.148,-0.443l0.147,-0.295l0.296,-0.295m0.886,-2.068l0.148,-0.443m1.182,-3.396l-0.148,0.296m0.148,0.738l0.148,-0.443l0.295,-0.443l0,-0.295l0.296,-0.296m0.886,-1.772l0,-0.295m1.33,-2.658l0.148,-0.591l-0,0.296m1.329,-2.658l0,-0.295l0.148,-0.443l0,0.295m1.182,-2.51l0.148,-0.443l0.295,-0.443m1.034,-2.068l0,-0.295m0.296,-1.919l-3.989,8.712m4.137,-7.679l1.33,-2.51m0.295,-0.591l0.295,-0.443" style="fill:none;fill-rule:nonzero;stroke:#000;stroke-width:0.94px;"/><path d="M992.201,584.822l0.295,-0.443m0.296,-2.215l-2.955,5.759m2.659,-3.544l0.444,-0.591m0.443,-0.443l0.443,-0l0.148,0.295m0.591,-3.839l-1.773,2.363m2.068,-2.363l-0.295,0m1.329,-1.033l-1.034,1.033m2.512,-1.772l-1.478,0.739m3.547,-1.182l-2.069,0.443m4.285,0l-2.216,-0.443m3.693,1.182l-1.477,-0.739m3.102,2.215l-1.625,-1.476m2.807,3.691l-1.182,-2.215m1.626,3.692l-0.444,-1.477m0.591,5.168l-0.147,-3.691m-0.148,4.577l0.295,-0.886m-24.378,-218.981l0.148,235.519m0.591,-275.24l-0.739,-0.296m1.33,1.182l-0.591,-0.886m0.739,263.575l-0.148,-2.51m0.591,3.987l-0.443,-1.477m1.329,3.101l-0.886,-1.624m1.773,2.658l-0.887,-1.034m-136.074,150.91l-0.739,-0m-0,20.377l1.33,-0m142.132,-132.6l-0.443,0.295m-66.634,-68.957l0.443,-0m60.281,75.159l-0,0.296m-0,8.269l1.625,1.033l0.148,0.296m1.773,-20.082l-0.148,0.443m5.467,-42.97l-5.319,42.527m2.364,21.706l3.841,0.738l2.955,-0.295m2.068,-12.551l0,-1.182m-2.068,13.733l2.068,-1.772l1.035,-3.101l0.295,-1.477l0,-3.248l-1.33,-2.953m0,-1.182l6.058,-49.171l0.148,-0.295m-154.986,-9.598l0.148,0.295l0.147,0.443m0.148,-135.553l-0.443,0.591m0.295,134.962l0.739,2.363m0.295,-138.063l-0.886,0.147m0.886,138.359l0,-138.506m41.665,-95.537l0,8.121" style="fill:none;fill-rule:nonzero;stroke:#000;stroke-width:0.94px;"/><path d="M927.34,349.45l-33.095,-0m-3.989,227.103l-0.148,-0.443m60.576,-38.54l-0.295,0m-119.084,-138.801l0.148,1.329m-0,-22.15l-0.148,20.821m0.148,1.329l0.591,1.919m-0,-25.988l-0.591,1.919m0.591,24.069l1.034,2.067m0.148,-30.27l-1.182,2.215m2.068,29.237l0,0.295m-1.034,-1.477l1.034,1.182m1.034,-33.667l-1.92,2.215m2.216,-2.215l-0.296,-0m-1.034,33.962l2.512,2.215m-0,-37.211l-1.182,1.034m1.182,36.177l1.921,1.034m0.295,-39.426l-2.216,1.181m1.921,38.245l2.068,0.59m1.625,-40.754l-3.398,0.738m1.773,40.016l34.129,0.148m0,-40.902l-32.504,-0m108.446,234.043l0,0.295m9.308,-0.295l-9.308,-0m9.308,0.295l0,-0.295m-9.308,0.295l9.308,0m-31.618,-274.355l-0.147,0.296m-47.723,313.78l0.296,-0m92.785,-19.491l0.148,-0.296m-130.165,99.524l-0,62.608l0.295,0.591m0.296,-63.937l-0.591,0.738m0.295,63.199l0.444,0.295m2.659,-64.971l-2.807,0.739m0.148,64.232l3.545,0.296m0,-9.746l0,9.746m0.296,-66.005l-1.182,0.738m0.886,65.267l0.296,-0.443m-0,-50.501l0.295,-0.295m0.887,-0.738l-0,-3.692m0.148,-11.665l-1.33,1.329m1.182,10.336l0.148,-0.443m33.243,-111.927l-0.148,28.794l0.443,0.591m0,-29.976l-0.295,0.591m0.295,29.385l1.182,0.443m0,-30.862l-1.182,0.443m1.182,30.419l62.497,0.59m3.841,-30.861l-66.338,-0.591m62.497,31.452l3.841,0m1.183,-30.418l-1.183,-0.443" style="fill:none;fill-rule:nonzero;stroke:#000;stroke-width:0.94px;"/><path d="M950.536,648.611l1.33,-0.59m0.296,-29.237l-0.443,-0.591m0.443,25.988l-0,-25.397m-0.296,29.237l0.296,-3.84m-99.434,-59.802l0.148,0.59m5.023,15.505l0,-0.296m0.887,3.101l-0,-0.295m135.336,-15.357l-0.148,0.443m-157.646,-49.319l0.296,0.296l-0.739,-0.296m118.493,104.101l-0,-0.295m-121.005,-103.953l-0.591,0.295m140.951,83.724l-0.739,-0m0.739,0.295l-0,-0.295m-38.858,-58.474l-0.147,-3.248m-72.544,179.556l0.148,-4.43m47.87,-170.254l-0.444,0m83.329,68.072l-1.329,0.443m2.659,-0.148l-1.33,-0.295m-1.329,0.443l2.659,-0.148m-138.586,-40.459l0.148,0.591m1.182,3.544l-0,0.443m48.608,-18.753l-0.148,-0.295m23.492,-7.826l2.807,0.738m-47.574,30.566l-0,0.295m66.043,-0.295l-3.398,-0m3.398,0.295l-0,-0.295m26.298,59.95l-0.738,-0.443m1.034,0.591l-0.296,-0.148m1.921,0.591l-1.625,-0.443m5.319,-0.295l-1.921,0.738m2.807,-1.181l-0.886,0.443m-76.385,-117.686l1.034,-2.363m0.296,-2.658l-1.33,5.021m-77.567,-1.477l-0.148,1.477l0.296,-0.148m0.738,-3.396l-0.886,2.067m1.921,-3.249l-1.035,1.182m3.251,-2.363l-2.216,1.181m72.987,7.974l-2.069,2.363l2.955,-2.511m67.963,95.832l1.33,0m-57.178,-74.568l0,0.443m0.887,-0l-0,0.886m-0.887,-0.886l0.887,-0m-0,-0.443l-0.887,-0m1.034,-1.034l-0.147,1.034m0.443,-0.887l-0.296,-0.147m0.296,1.034l-0,-0.887m-0,2.216l-0,-0.886" style="fill:none;fill-rule:nonzero;stroke:#000;stroke-width:0.94px;"/><path d="M917.146,570.499l0.443,-0m0.886,-1.329l-0.886,-0m0.886,0.443l0,-0.443m-0.886,0.443l0.886,-0m-19.059,-5.316l0.148,-13.142m64.269,74.716l0.296,0m-58.803,-62.165l-0,7.679m-43.585,178.67l0.147,-3.987m-13.001,0.147l0.591,0m12.41,-4.725l-0.591,0m0.591,4.578l0,-4.578m12.854,-138.801l0,0.295m9.308,0l0,-0.295m-9.308,0.295l9.308,0m62.941,-26.284l3.398,0m-46.393,-0.443l-0.148,0.296m1.626,-1.92l0.147,-0.591m28.811,-46.66l-0.295,-0.296m0.443,0.886l-0.148,-0.59m-27.185,10.336l27.333,-0m-73.283,203.034l0.887,-0.148m0.148,-4.577l-0.148,-1.034m0,5.611l0.148,-4.577m128.983,-103.363l-0,-0.886l5.614,-45.184l0.739,-0.739m0.147,47.842l-2.364,-1.033m3.694,2.215l-1.33,-1.182m1.626,1.182l-0.296,-0m1.773,-49.171l1.625,0.443l1.625,1.033l0.591,0.591m0.296,1.919l-5.614,45.185m5.614,-46.218l-0,1.033m-0.296,-1.919l0.296,0.886m-102.536,-231.238l-0,0.296m79.635,10.927l-0.295,-0m-0,40.902l0.295,-0m-7.387,210.417l-2.216,0m4.875,-5.611l-2.659,5.611m-145.087,-77.818l-0,0.296l0.443,0.443m0.148,-1.772l-0.591,1.033m0.443,0.739l1.625,1.329m0.148,-4.282l-1.625,1.181m1.477,3.101l1.478,1.329m0.738,-6.35l-2.068,0.739m1.33,5.611l1.329,1.329l0.739,0.295l0.295,-0.591" style="fill:none;fill-rule:nonzero;stroke:#000;stroke-width:0.94px;"/><path d="M835.589,546.577l1.33,-1.328l1.035,-0.591m0.147,-4.578l-1.329,-0.738m1.182,5.316l1.625,-0.591m2.068,0l-0.295,0.296m-1.773,-0.296l2.068,0m1.034,0.296l-4.58,-4.283m32.061,64.676l0,21.115m0.739,-22.296l-0.739,1.181m1.035,-1.034l-0.296,-0.147m-0.295,1.033l0.591,-0.886m89.386,35.439l2.216,-0.295m1.182,-35.144l-0.443,-0.147l0.591,0.886m0.443,0.443l-0.591,-1.182m-13.592,-26.579l-3.398,0m3.398,25.398l-0,-25.398m-66.043,0l-0,25.398m3.398,-25.398l-3.398,0m83.034,77.818l-0.148,-12.404m-92.49,-273.911l0.296,-3.692l1.034,-3.544l1.034,-2.215l1.182,-1.919l1.478,-1.772l1.034,-1.034l0.295,0m2.955,90.369l-9.308,-0m9.456,-77.375l-0.148,77.375m0.296,-78.113l-0.148,0.738m0.148,-0.738l-0,-0.295m-3.251,-11.961l3.399,-2.658m0.295,12.847l-0.443,2.067m1.034,-2.953l-0.591,0.886m1.478,-2.806l-0.591,1.329m1.773,-2.51l-0.296,0.443m-2.659,-9.303l4.875,-1.919m4.58,7.678l-4.136,1.329m4.136,-9.45l0,8.121m-4.58,-7.678l4.58,-0.443m30.288,214.551l0,-1.328m0.444,4.282l-14.627,-0m52.745,71.911l-2.068,0.295m-111.253,137.03l1.182,1.033m3.102,0.738l0.887,0.148m3.989,-0.443l0.887,-0.295m1.477,-1.034l0.295,-0.738m114.504,-113.551l0.739,0.443l0.295,0.147l1.773,0.591" style="fill:none;fill-rule:nonzero;stroke:#000;stroke-width:0.94px;"/><path d="M980.381,663.23l1.773,-0.591l1.034,-0.59m-111.253,-43.561l0.148,0.591m37.084,-2.067l0,-0.296m1.33,-1.033l-0.739,0.59l0.739,-0.738m13.74,0.148l-0.443,-0.148m1.034,0.886l-0.591,-0.738m1.33,1.329l0,-0.296m37.085,1.625l0.147,0.738m-88.204,35.882l-7.092,-0m-0,40.902l7.092,-0m-41.813,-156.964l-0.295,0m0.886,12.994l0.148,-0.886m3.251,-11.96l-0.887,-0.296m1.182,0.443l-0.295,-0.147m1.034,0.443l-0.739,-0.296m1.034,0.591l-0.295,-0.295m0.591,0.443l-0.296,-0.148m0.887,0.738l-0.591,-0.59m4.876,4.43l-4.285,-3.84m4.432,4.135l-0.147,-0.295m0.886,0.738l-0.886,-0.738m2.659,1.181l-1.773,-0.443m-0.148,12.994l2.807,-1.181m1.33,-10.041l-2.216,-1.329m0.886,11.37l1.625,-1.034l0.739,-0.738l0.296,-0m0.148,-6.35l-1.478,-1.919m1.33,8.269l1.034,-1.772l0,-2.363l-0.886,-2.215m101.058,-6.645l0,60.394m3.251,-60.689l-3.251,0.295m4.285,-0.738l-1.034,0.443m1.625,-1.033l-0.591,0.59m4.137,-5.168l-0.739,0.591m1.625,-0.738l-1.034,-0m1.034,66.447l0,-66.447m-9.308,66.447l9.308,0m13.741,20.23l-0.148,0.443m1.773,-3.397l-1.625,2.954m2.511,-4.873l-0.591,1.329m1.626,-3.249l-0.296,0.443m2.512,29.385l0.443,-0m0.148,-35.734l-0.443,0.738m1.92,-4.134l-0.443,1.033m1.773,-3.544l-0.443,0.739m0.443,-1.034l-0,0.295" style="fill:none;fill-rule:nonzero;stroke:#000;stroke-width:0.94px;"/><path d="M984.223,601.064l-0.296,0.739m0.739,41.049l-0,-0.295m1.034,-44.298l-0.295,0.443m0.295,-0.738l0,0.295m2.807,-6.202l-0.295,0.738m0.443,38.245l-0,-0.296m2.807,-44.446l-1.329,2.511m2.216,-4.135l-0.591,1.034m2.216,-2.068l-0.443,-0.147m-4.876,47.251l5.467,-42.674m-94.115,-24.069l-0,-12.994l0.148,8.122l-0,-8.122l0.591,-0.443m0.295,-0.147l3.103,-2.511m1.773,-2.953l1.034,-2.51m0.296,-4.135l27.333,0m-0,1.182l0.148,21.411l-0,3.1l-4.581,-0.59m14.332,12.994l-0.887,2.953m-53.336,-2.953l0.886,1.92m8.422,-14.176l-3.989,1.624m4.432,-1.772l-0.443,0.148m4.284,12.404l-0.147,-0.296m1.477,-4.872l0,-0.591m0,0.591l0.148,-7.679m0.591,15.948l-0.296,-0.443m6.797,15.061l9.899,0m6.057,-0.738l0.887,-0.296m1.773,-16.981l-0.148,0.296m3.989,-12.404l-4.728,-0.738m5.172,0.886l-0.444,-0.148m9.604,12.404l0.147,-0.443m5.763,-40.755l0.147,-99.228m0.148,99.228l-0.295,0m0.443,6.202l-0.148,-0.295m1.921,0.443l-1.773,-0.148m3.694,-0.148l-1.921,0.296m2.955,-0.886l-1.034,0.59m5.466,-6.201l-0.443,0.147m0.443,-99.228l0,99.081m0.296,122.411l-0.148,-2.658m-0,4.282l0.148,-1.624m-0.148,-2.658l7.24,-0m4.727,-0l1.33,-0m1.182,6.054l1.034,1.181l0.296,0m9.308,-7.235l1.773,-0m4.137,-0l1.92,-0" style="fill:none;fill-rule:nonzero;stroke:#000;stroke-width:0.94px;"/><path d="M993.826,695.715l-33.686,0.148m32.947,-40.902l1.626,0.295m1.181,39.868l-2.068,0.591m0.887,-40.459l1.477,0.443m1.921,38.244l-2.217,1.181m0.296,-39.425l2.364,1.329m0.739,35.882l-1.182,1.033m1.477,-1.033l-0.295,-0m1.329,-33.962l0,0.295m-2.068,-2.215l2.068,1.92m0.444,32.337l-1.478,1.625m1.034,-33.667l1.035,1.181l1.034,2.068m0,25.988l-1.625,2.805m1.625,-28.793l0.591,1.919m0,22.149l-0.591,1.92m0.591,-24.069l0.148,20.82l-0.148,1.329m-67.963,-35.734l-0,84.462l7.682,-0.738l8.865,-1.329l1.921,-0.59l1.034,-0.591l1.477,-1.772l0.887,-2.215l0.887,-3.544m-0,-81.657l-4.285,0m4.285,-0.295l-0,0.295m0.738,-0.295l0.296,1.034l0.295,0.147m-1.329,80.771l1.477,-8.859m0.148,-72.355l-0,-0.738m-0.148,73.093l0.591,-8.27m-84.806,9.451l-0.739,-9.598m0.591,-64.676l0.295,1.034m-0.147,0.147l0.59,-1.181m0.739,81.952l-1.329,-7.678m1.329,-74.274l0,0.295m0.887,85.201l-0.887,-3.544m1.773,5.759l-0.886,-2.215m2.363,3.987l-1.477,-1.772m2.512,2.363l-1.035,-0.591m2.956,1.181l-1.921,-0.59m10.785,1.919l-8.864,-1.329m16.695,2.067l-7.831,-0.738m7.831,-84.019l-0,84.757m67.668,-297.389l-0,187.972m4.875,-10.188l0.148,-0.591l0.296,-0.147m1.034,-0.739l3.989,0" style="fill:none;fill-rule:nonzero;stroke:#000;stroke-width:0.94px;"/><path d="M982.006,603.87l-0.147,-164.199m0.295,164.79l-0.148,-0.591m-82.295,130.975l0.148,0.296m0,-84.61l-0.148,84.314m0.148,-84.314l0,43.265m0,41.345l0.591,0.295l6.501,0.295m20.685,0.148l6.796,-0.443l0.443,-0.295m0,-40.755l0,-43.56m0,46.957l0,37.358m0.148,-84.315l-0.148,43.56m0,40.755l0.148,-84.315m-65.008,-98.342l15.365,-0m-11.229,50.205l9.899,-0.148m-30.288,-15.504l-1.182,-3.544m1.182,4.134l0,-0.59m3.399,10.779l-4.433,-13.29m5.024,14.619l-2.069,-5.759m1.921,6.202l0.148,-0.443m0.443,1.919l-0,-0.59m0.443,2.362l0.148,-0.295m0.295,1.772l0,-0.443m0.148,0.738l-0.148,-0.295m0.148,0.591l0,-0.296m0.148,0.886l-0,-0.295l-0.148,-0.295m0.296,0.886l-0.148,-0.296m0.148,0.591l-0,-0.295m0.59,2.805l-0.295,-1.477m1.477,25.251l0,-13.733m0,8.269l0.148,-1.034m-8.569,-70.286l14.479,-0m-5.91,70.286l8.717,0m31.618,-52.567l0,-0.295m0.443,1.181l-0.443,-0.886m0.443,0.886l2.955,-0.148m-3.398,-1.033l0.887,-0.739l1.181,-0.443m1.33,2.215l0,-0.295m-1.33,-1.92l1.626,-0.147m0.147,0.443l-0.147,-0.443m0.147,7.531l0,-15.505m-44.324,211.894l0,-134.076m0.148,1.033l-0.148,-1.033m0,92.878l0.591,0.148m-0.147,-82.838l-0,-8.417m0.443,91.698l-0.296,-0.443m0.739,51.682l0,-50.648m-0.886,-83.872l2.068,-1.329" style="fill:none;fill-rule:nonzero;stroke:#000;stroke-width:0.94px;"/><path d="M861.741,643.295l2.511,-0.295m-0.443,7.383l0.887,-0.295m-3.251,-7.531l14.479,0m-11.672,0.443l0.887,-0.443m-0.443,7.531l0.886,-1.034l0.148,-6.497m1.773,134.962l-0,-134.962m-22.458,-81.361l-0.591,-1.772m115.686,147.956l-0,-64.823m-110.662,133.634l-0,-144.856m-0.591,114.733l0.591,-0m134.006,-156.078l-0,-260.179m-54.371,249.4l0,-7.679m0,2.215l0.443,0m0,0.295l0,-0.295m0,0.886l0,-0.295m-0.443,-0.296l0.443,0.296m0,-0.296l2.807,0.296m-1.625,1.919l-1.182,-1.624m1.478,1.624l1.329,-1.919m-61.462,58.769l0,-28.351m0,13.142l0.296,-2.658l0.295,-0.738m1.921,-11.518l88.648,0.148m-90.569,11.37l91.751,-0m0.59,18.605l0,-28.203m0,12.994l-0.59,-3.396m-72.101,-35.144l-0.886,-2.805m2.364,5.02l-1.478,-2.215m1.478,23.183l-0,-20.968m5.023,8.269l-5.023,-7.974m5.466,7.088l-6.944,-10.631m6.944,10.631l1.182,1.181l0.296,0m-0,1.92l-1.921,-2.215m1.921,0.295l1.477,1.182m-1.477,0.738l2.216,1.92m-0.739,-2.658l2.66,1.329m-1.921,1.329l2.068,1.181m-0.147,-2.51l3.546,1.033m-3.399,1.477l3.99,1.329l3.102,0.443m-3.693,-3.249l5.171,0.591m-1.625,0l14.183,-0.148m-14.036,2.806l13.002,-0l2.807,-0.443m-1.773,-2.363l2.512,-0.443l1.182,-0.147m-0.296,-0l0.739,-0.148m-0.295,-0l0.886,-0.148" style="fill:none;fill-rule:nonzero;stroke:#000;stroke-width:0.94px;"/><path d="M926.749,596.487l3.546,-1.034m-1.034,-2.215l1.921,-0.59m-0.887,2.805l1.625,-0.738l1.773,-1.181m-2.511,-0.886l2.659,-1.329m-0.148,2.215l1.478,-1.477m1.477,-3.101l0,-0.295m-2.807,2.658l2.807,-2.363m-1.477,3.101l1.92,-2.363m-0.443,-1.033l1.33,-1.624m-0.887,2.657l5.024,-7.826l1.477,-2.51m-5.614,7.679l6.501,-10.484m-15.07,-2.806l-0,-1.329m0.147,1.624l2.807,0.296l0.592,-1.034l-0,-0.295m-1.035,-0.886l1.035,0.886m-74.612,28.498l-1.035,-3.101m131.79,37.063l0.739,-0.147m-0.591,0.443l0.295,-0.591m-118.935,-2.805l-0,-27.761m0.295,28.204l-0.295,-0.443m39.152,-65.562l0,-1.477l0.444,-0.147m-0,0.59l-0,-0.59m-0.444,0.443l0.444,-0m-59.985,211.451l0.738,0.295l0.887,0.295l1.329,0.295l5.467,-0.295m-1.182,0.295l1.773,-0.295m0.296,-0.295l0.59,-0.295l0.887,-0.739m66.338,-354.977l0,-91.107m0.739,96.275l-0.739,-5.168m2.069,8.416l-1.33,-3.248m2.955,5.463l-0,-0.295l-1.625,-1.92m1.625,2.215l2.659,2.215l1.921,1.034l1.921,0.591l2.216,0.295l25.265,-0m2.511,3.396l-0.295,-1.624m0.295,1.624l14.332,0.148l-0,-110.599m-39.744,273.912l-0,-0.295m-67.373,-0l85.841,-0.148m-13.592,0.443l-0,-0.295" style="fill:none;fill-rule:nonzero;stroke:#000;stroke-width:0.94px;"/><path d="M884.346,602.984l66.043,0m-101.946,137.768l0,-4.725m0,-1.034l0.296,-0.443l0.591,-0.295m85.841,-131.271l-0,-0.295m-41.074,-244.823l33.243,-0.147m-42.994,87.12l22.31,0.148m0.591,0.885l-0.591,-0.885m0.591,94.798l-0,-93.913m-0,80.181l26.151,-0m-26.151,0.147l26.89,0.148l1.034,1.034m0.148,36.915l3.989,1.476m2.807,2.363l-0,-132.009m-2.807,129.646l2.807,2.363m-57.769,8.564l-0,-24.216m-0,23.183l3.398,-0m-0,26.874l-0,-50.352m15.957,24.068l-1.182,-1.919m1.477,1.919l0.739,-1.181l0.886,-1.034m48.314,60.246l-0,-16.833m-0,16.685l7.239,0.148m-7.239,-15.209l8.864,-0m0,0.296l0,-0.296m-1.625,15.209l2.216,-0.738l0.443,-0.443m-1.034,-13.732l1.034,-0.148m-71.213,-51.091l-0,-15.947m-0,15.947l0.295,-0m-7.092,-15.947l9.161,-0m-0,0.295l0.591,-0.148m-2.66,15.8l2.66,-2.363m-0,-13.437l2.659,-0.443l1.773,-0.886m-0.591,13.29l0,-12.994m29.549,28.203l0,-5.316m-67.668,67.334l-0.147,-0.296l0.147,-8.859m9.013,4.725l-0.148,-11.223m0.444,11.961l-0.296,-0.738m0.296,0.738l0.738,0.738l1.625,0.591l7.831,0.148m-4.876,3.248l0.296,-0.295l0.295,-2.953m0.148,3.248l4.137,0.295m104.457,-2.067l1.773,-5.168m-0,2.806l-0,-2.806m-1.773,5.168l1.773,-2.362" style="fill:none;fill-rule:nonzero;stroke:#000;stroke-width:0.94px;"/><path d="M849.33,638.57l-0,-8.859m56.439,-50.205l0,-5.168m-0.148,-10.632l0.148,-0.295m0.296,16.833l-0.148,-0.59m2.068,3.543l-1.92,-2.953m3.693,-13.437l15.218,-0m-16.991,16.39l2.364,1.182m-4.58,-20.968l4.58,-0m-0.147,1.772l0.147,-1.772m0,20.968l1.478,0.295l11.229,-0m1.477,-19.491l-0.148,-1.772m0.148,1.772l0.295,-0m0.148,1.624l0,-1.181l-0.148,-0.443m-1.772,19.491l2.363,-0.591l1.035,-0.59l2.511,-3.987m-4.58,-16.095l4.58,-0m0.148,0.295l-0.148,-0.295m0.148,15.8l0.296,-0.148l0.591,-1.181l0.886,-1.329m-1.921,2.953l0.148,-0.295m-33.538,-26.875l5.171,-1.772m73.873,110.451l1.182,1.034m-51.12,-95.094l-0.148,-1.182l0.443,0m-96.331,-19.196l-0.147,-1.771m1.477,3.839l-1.33,-2.068m1.478,2.658l-0.148,-0.59m0.148,0.59l2.955,2.658l0.295,0m0,1.772l0,-1.772m0.444,3.396l-0.444,-1.624m1.773,3.544l-1.329,-1.92m1.329,2.215l0,-0.295m0,0.295l1.034,0.886l1.33,0.443l2.955,0l3.546,-0.738m8.274,24.955l-4.58,-13.733m2.364,64.971l-0.591,-1.772m0.591,1.772l1.625,1.624m1.034,-51.386l-0.443,-1.476m-0.591,52.862l2.068,0.739l2.364,0.148l1.921,-0.443m1.034,-32.486l-0.295,-0.886m1.034,4.282l-0.295,-1.181" style="fill:none;fill-rule:nonzero;stroke:#000;stroke-width:0.94px;"/><path d="M858.047,636.356l1.921,-1.33m0.591,-0.59l-0,-0.443m-0.591,1.033l0.591,-0.59m-0,-0.443l0.738,-1.624m129.427,2.067l0.886,-0.148m-0.443,0.295l-0,-0.295m-120.266,-1.181l0.443,0.443m-0.443,-14.323l1.034,0.148l0,-0.887m-0.591,15.062l2.216,0.738l7.388,0m-9.013,-15.209l9.013,-0m-0,15.209l-0,-17.276m-19.651,133.781l0.591,-0.148m-0.591,-0.443l0.591,0m-9.012,-194.913l14.479,0.148m18.025,-2.953l0.443,-0.295m14.923,-1.625l0.295,-0.147m2.217,-2.363l1.92,-1.772l0.148,-0.295l0.295,-0.296l0.148,-0.442l0.148,-0.296m71.805,100.705l3.693,0m-8.421,-19.787l-0,-3.248m-8.422,3.248l8.717,0m0.148,0.739l-0.148,-0.739m-0.295,-2.953l0.739,0m-0.148,0.296l-0,-0.296m-0.148,3.692l0.148,-3.396m-19.798,27.169l-0,-11.074m-0,3.396l4.876,-0.296m-4.876,-3.1l6.944,-0.148m-2.068,3.248l-0.444,-3.1m-106.968,-59.065l-0,-134.519m120.856,180.146l0,-10.483m3.103,4.577l1.773,-3.544m0.296,-0.443l0.591,-1.476l0.443,-0.886l0.443,-1.034l0.887,-1.772m0.443,-0.738l0.147,-0.591l0.887,-1.772m-0,-0.148l1.33,-2.657m-4.876,9.302l4.58,-9.745m0.887,-0.739l0.886,-1.772m0,-0.295l2.807,-5.611m-4.432,8.121l3.546,-7.53m1.034,-1.034l0.148,-0.443l1.182,-2.363" style="fill:none;fill-rule:nonzero;stroke:#000;stroke-width:0.94px;"/><path d="M988.359,592.5l1.182,-2.363m0,-0.295l0.444,-0.886m1.33,-2.51l0.295,-0.591m0.295,-0.443l0.296,-0.59m0.739,-1.034l0.443,-0.443m0.739,3.692l-0.148,-3.397m0.148,3.397l1.329,-2.068l0.591,-0.147l1.182,-0.886l2.955,-0.443l2.069,0.295l1.773,0.886l1.625,1.624m0.591,2.215l-0.591,-2.215m-23.492,-176.75l0,-80.919m-134.006,457.16l-0,-50.501m0.739,15.505l-0,-4.578m-0,4.578l0.591,-0m75.055,-185.02l-0,-0.59m59.69,82.099l-0,-2.805l0.443,-1.625l0.591,-1.771m-0,8.269l-1.034,-2.068m2.807,-8.859l0.886,-0.739l0.739,-6.644m-1.625,19.639l4.137,1.624m2.955,-64.233l-0,-1.033m12.115,2.51l-0,-1.034m-153.657,-5.02l-0.295,-0.443m22.31,124.183l-0,-64.676m-0,0.443l0.147,-0.443m54.371,-71.172l0,-7.679m-34.868,-206.135l33.095,-0.148m-27.776,245.561l-0,-0.295m-15.218,-0l50.825,-0m-45.211,-26.875l0.148,-2.953m0.148,3.544l-0.296,-0.591m0.148,-2.953l1.33,-3.396l1.182,-1.329m-8.274,34.405l66.043,0m-0,-25.841l-0,-140.573m0.295,105.135l0,-5.907m-0.295,5.759l0.295,-0m-75.942,-96.275l0,-76.193m59.838,169.072l-0,-9.746m-6.353,-199.047l53.632,-0.148m-105.639,313.78l-0,-0.295m-0,0.295l0.443,0m4.137,5.464l-0,-13.733m0.148,15.505l-0.148,-1.772" style="fill:none;fill-rule:nonzero;stroke:#000;stroke-width:0.94px;"/><path d="M881.095,648.611l-0.295,-0.59m0.148,1.772l0.886,0.59m-0.739,-1.772l1.183,0.443l11.819,0.148m-12.263,1.181l18.025,0.148l35.016,0.295l18.025,0.148m-58.803,-1.772l58.656,0.443l0.738,-0.295l0.296,-0.443m-0.887,2.067l0.887,-0.591m6.353,-7.531l-0.148,-0.295m-60.428,-40.016l-0,-10.484m35.607,10.484l-0,-10.484m-82.738,185.758l4.432,0.295m105.787,-159.031l-0,-0.738m-129.279,-79.737l2.955,0.147m150.702,123.593l-0,-11.665m-0,11.665l2.364,-0l1.477,-0.591l0.296,-0.443l-0,-9.007m-17.582,-10.927l-0,-1.329m-0,1.034l-0.148,-0.886m-19.65,2.51l0.591,-0.148m-121.596,-103.658l1.921,-0.295m75.351,28.351l0.148,-1.182m-29.402,75.603l0.148,-7.088m-23.344,-34.7l-0.443,-1.329m71.952,-26.874l2.659,0.442l0.739,0.443m0.444,0.739l-0.444,-0.739m-30.731,0.739l0.443,-0.739l0.887,-0.443l2.068,-0.442l0.443,-0m-17.877,31.599l-0,-0.295m88.205,59.507l1.921,1.034l2.511,0.147m-1.773,-0.147l1.773,-0m0,0.147l2.216,-0.738l1.626,-1.624m-77.272,-118.572l0.296,-2.658m-78.749,5.021l-0,-1.182l0.738,-2.067l1.626,-1.772l1.625,-0.886m71.657,9.007l-0,-0.295l1.034,-1.329m-12.558,56.702l-0,-0.295" style="fill:none;fill-rule:nonzero;stroke:#000;stroke-width:0.94px;"/><path d="M972.107,654.961l0,-12.404m-13.444,-0.148l14.626,0.148l0.148,-0.886m0,13.29l0,-13.29m-9.604,-8.859l0.296,-0.443l-0,-27.908m-58.803,-40.755l0.295,0m-44.324,182.362l0.591,-0m85.103,-143.527l-0,-166.414m-0,139.54l3.398,-0m-46.245,1.329l-0.296,-0.443m1.478,2.51l-1.182,-2.067m1.182,2.067l0.295,0.148m1.626,-52.42l26.89,0.295m52.893,108.531l0.148,-0.886l1.477,-3.691m2.66,1.624l4.136,-0m2.217,-46.809l3.25,-0.147m-28.367,34.257l-0,-5.316l0.591,-0.295l4.284,-0m-143.462,-75.16l2.808,0.148m4.58,5.021l1.329,-0m31.175,94.798l2.659,0.148m77.272,-0l0.148,-5.021m8.864,4.578l1.478,-1.182m0.295,-1.181l0,-31.599m-0.295,32.78l0.295,-1.181m2.808,22.445l-0,-3.987m0.295,6.644l-0.295,-2.657m0.295,2.657l0.591,0.591l0.739,0.296l2.955,-0l0.147,-7.531m-86.727,-291.188l0.296,-0.591m0.591,-1.329l3.546,-2.953m52.302,243.641l-0,-20.673m-31.766,-18.457l0.296,-3.396l1.034,-0.739l11.524,0l0.887,0.739m0.147,2.658l-0.147,-2.658m0.295,3.396l-0.148,-0.738m49.2,77.522l0,-13.585m0,15.061l0.148,-0.295m-122.925,135.848l0.739,0.295l1.034,0.296m3.693,0.295l1.33,-0.148m2.069,-0.59l0.59,-0.295m113.47,-118.277l-0.148,-3.839" style="fill:none;fill-rule:nonzero;stroke:#000;stroke-width:0.94px;"/><path d="M974.028,642.705l-0.443,-1.329m1.034,19.639l-1.034,-2.215m2.216,-14.028l-1.773,-2.067m1.773,2.067l1.921,0.886m3.693,0l1.182,-0.59l1.478,-1.33l-0,-0.295m0.148,17.572l0.443,-0.886m-0.591,-16.686l0.591,-0.591m0.591,15.8l-0,-9.302m-0.591,10.779l0.591,-1.477m-104.309,-41.64l28.219,-0m0.296,-0.296l-0,-0.295m-0.296,0.591l0.296,-0.296m-0,-0.295l15.365,0m-14.331,-0.886l9.013,0m5.318,0.886l0.739,0.591l27.924,-0l0.444,0.443m1.625,-76.636l1.329,-1.182l1.478,-2.805m16.991,82.985l0.295,-0.59m7.24,-15.357l1.034,-2.067m0.739,40.754l0.591,-1.772m0.443,-42.821l1.182,-2.363m1.625,-3.544l1.626,-3.248m1.329,-2.511l0.296,-0.59m0.591,-1.034l0.591,-0.886l0.591,-0.295m-93.524,-19.492l4.728,-0.59l0.591,0.295m23.787,0l0.443,0l0,-0.295l0.591,-0m4.433,-5.316l-0,-19.787m8.717,31.157l-1.182,-1.329m2.364,8.269l0.295,-0.591m-0.148,-2.953l-1.329,-3.396m1.477,6.349l-0.148,-2.953m13.741,-36.029l1.182,-1.477m-1.477,107.202l1.92,0m-83.624,0.295l4.432,0m26.151,92.879l4.137,0.296l16.548,-0.148m-442.085,50.81l75.902,0l3.825,-0.588m-85.464,-0.589l5.737,1.177m79.727,-0.588l2.206,-0.736m-90.17,-1.177l2.5,1.324m87.67,-0.147l2.942,-1.618" style="fill:none;fill-rule:nonzero;stroke:#000;stroke-width:0.94px;"/><path d="M570.426,783.747l0.883,-1.029m-95.466,-0l1.471,1.47m94.142,-334.94l-1.03,-1.177m-93.112,-0.441l-1.913,1.912m95.025,-1.471l-2.942,-1.618m-87.67,-0.147l-2.5,1.324m90.17,-1.177l-2.206,-0.735m-79.727,-0.589l-5.737,1.177m81.639,-1.177l-75.902,0m79.727,0.589l-3.825,-0.589m9.856,337.589l5.001,-0.147l1.471,-0.883l0.736,-2.207l-0,-326.703m-0.147,-0.294l-0,-0.882m-110.324,-0.736l0.736,-1.03l1.03,-0.441l5.884,-0.147m101.644,0.588l0.735,1.03m-1.765,-1.471l1.03,0.441m-5.884,-0.588l4.854,0.147m-106.645,333.176l6.178,0.147m-7.502,-1.03l1.324,0.883m-2.06,-3.237l0.736,2.354m-0.736,-328.91l0,326.556m0.147,-327.732l0,0.882m8.091,330.234l-1.177,-1.913m96.643,1.913l1.177,-1.913l0.441,-1.618m-98.261,1.618l-0.589,-2.942l0.295,-326.114m98.555,327.438l-0,-326.703m-98.555,-0.735l1.029,-2.207m97.526,2.942l-1.177,-2.942m4.413,0l-4.413,0m6.325,1.324l-1.912,-1.324m-106.351,0l-1.766,1.324m7.355,-1.324l-5.589,0m781.291,-10.541l-0.298,0.278m4.756,1.006l-0.472,-0.459m2.4,-7.214l-1.928,7.673m2.556,-7.873l-0.628,0.2m5.798,1.02l-5.17,-1.22m5.532,1.654l-0.362,-0.434m-4.229,20.369l4.591,-19.935m-3.491,20.195l-1.1,-0.26m-11.109,-2.623l-0.99,-0.234m-6.925,34.248l-0.058,-0.246m11.127,-46.145l3.986,0.825m-15.055,45.566l4.263,1.123" style="fill:none;fill-rule:nonzero;stroke:#000;stroke-width:0.94px;"/><path d="M1244.3,486.515l0.408,-0.252m-1.565,8.107l-0.227,-0.518m0.227,0.518l5.719,1.351l0.434,-0.362m-9.317,-10.213l10.829,-45.867m-7.892,54.573l12.648,-53.567m-6.268,55.074l9.765,-41.358m-16.226,19.046l-0.989,-0.234l5.116,-21.669m8.083,24.786l-1.1,-0.26m1.1,0.26l5.116,-21.669m68.807,3.123l0.142,0.382m-4.704,-1.226l0.628,-0.201m1.08,-7.525l-1.708,7.726m1.236,-8.186l0.472,0.46m-5.642,-1.68l5.17,1.22m-5.688,-0.994l0.518,-0.226m-5.329,20.109l4.811,-19.883m-5.911,19.623l1.1,0.26m11.11,2.623l0.99,0.234m-9.125,33.728l0.162,-0.194m10.688,-46.25l-3.934,-1.045m-6.916,47.489l-4.316,-0.903l-0.252,-0.408m-2.226,7.952l0.434,-0.362m-0.434,0.362l-5.719,-1.351l-0.226,-0.518m12.901,-4.966l10.83,-45.868m-17.352,52.341l12.648,-53.567m-19.027,52.06l9.764,-41.357m5.994,24.292l0.99,0.233l5.116,-21.668m-18.316,18.552l1.1,0.259m-1.1,-0.259l5.116,-21.669m-55.726,-4.913l53.883,12.723m-55.311,-6.673l53.882,12.722m-80.338,-25.355l-1.428,6.049l14.684,3.468m1.429,-6.05l-14.685,-3.467m109.65,25.889l-1.428,6.05l-14.684,-3.467m1.428,-6.05l14.684,3.467m-104.282,69.689l-0.234,0.333m4.86,0.012l-0.556,-0.354m0.872,-7.552l-0.316,7.906m0.89,-8.231l-0.574,0.325m5.884,-0.188l-5.31,-0.137m5.753,0.487l-0.443,-0.35m0.032,20.803l0.411,-20.453m0.719,20.482l-1.13,-0.029" style="fill:none;fill-rule:nonzero;stroke:#000;stroke-width:0.94px;"/><path d="M1235.25,563.826l-1.017,-0.026m0.235,34.94l-0.107,-0.229m1.442,-47.446l4.07,-0.009m-5.405,47.684l4.403,0.226l0.348,-0.33m0.127,8.256l-0.327,-0.46m0.327,0.46l5.875,0.151l0.351,-0.443m-11.211,-8.089l1.208,-47.113m3.45,55.034l1.41,-55.022m5.143,55.19l1.089,-42.481m-11.982,21.964l-1.017,-0.026l0.571,-22.257m12.987,22.605l-1.13,-0.029m1.13,0.029l0.571,-22.257m67.988,-11.032l0.217,0.344m-4.855,-0.237l0.574,-0.324m-0.484,-7.588l-0.09,7.912m-0.466,-8.265l0.556,0.353m-5.866,-0.489l5.31,0.136m-5.771,0.191l0.461,-0.327m-1.098,20.774l0.637,-20.447m-1.767,20.418l1.13,0.029m11.411,0.292l1.016,0.027m-2.024,34.882l0.118,-0.223m0.991,-47.458l-4.064,-0.217m2.955,47.898l-4.41,-0l-0.33,-0.348m-0.55,8.239l0.35,-0.443m-0.35,0.443l-5.875,-0.151l-0.328,-0.46m11.611,-7.503l1.208,-47.114m-6.266,54.785l1.411,-55.022m-7.964,54.854l1.09,-42.481m10.84,22.55l1.017,0.026l0.57,-22.257m-14.128,21.909l1.13,0.029m-1.13,-0.029l0.571,-22.257m-55.552,6.602l55.346,1.419m-55.505,4.795l55.346,1.419m-83.828,-8.367l-0.159,6.214l15.083,0.387m0.159,-6.214l-15.083,-0.387m112.628,2.888l-0.159,6.214l-15.084,-0.387m0.16,-6.214l15.083,0.387m-215.725,75.711l0.301,0.301m1.055,-0.603l-1.356,0.302m3.013,-0.151l-1.657,-0.151m1.808,0.452l-0.151,-0.301" style="fill:none;fill-rule:nonzero;stroke:#000;stroke-width:0.94px;"/><path d="M1117.2,650.335l0.452,0m-9.944,-1.055l0,-0.451m0,145.839l0,-0.452m0.603,0.754l-0.603,-0.302m0,-145.839l0.753,-0.302m2.26,146.895l-2.41,-0.452m0.15,-146.443l2.411,-0.452m227.046,147.347l-227.197,-0m0.151,-147.347l227.197,0m2.26,146.895l-2.411,0.452m0.151,-147.347l2.41,0.452m0.603,0.302l-0,0.451m-0.603,-0.753l0.603,0.302m-0,145.839l-0.753,0.302m0.753,-0.754l-0,0.452m-224.334,-144.333l0.301,0m-9.491,2.26l0.15,-3.315m0,144.936l-0.15,-3.465m3.917,-134.239l-3.917,-3.917m3.917,134.239l-0,-130.322m-3.917,134.239l3.917,-3.917m6.328,-136.499l0.301,0m219.211,136.499l0,-130.322m3.918,-3.917l-0.151,-3.315m-3.767,7.232l3.918,-3.917m-0,138.156l-3.918,-3.917m3.767,7.382l0.151,-3.465m-131.527,-138.307l-0,-1.657m0.15,-0.151l28.777,0m0.15,1.808l-29.077,0m29.077,-1.054l0,1.054m-0.15,-1.808l0.15,0.754m-28.776,139.662l-0,1.055l0.151,0.753l28.776,0m0.15,-1.808l-29.077,0m29.077,1.658l0,-1.658m-122.939,-140.717l0.904,-0.151m0.151,0l0.301,-0.15m0.302,0.15l1.205,0m-11.3,-0.904l4.52,4.37m-4.52,140.566l4.52,-4.369m0.753,-134.54l-0.753,-1.657m-0,136.197l0.753,-1.507m0.754,-127.911l-0.754,-5.122m0.754,127.911l-0,-122.789m-0.754,127.911l0.754,-5.122m221.32,-0.151l0,-122.788m0.754,127.911l-0.754,-5.123m0,-122.788l0.754,-5.123" style="fill:none;fill-rule:nonzero;stroke:#000;stroke-width:0.94px;"/><path d="M1336.56,789.847l-0.753,-1.657m-0,-133.034l0.753,-1.506m0,136.197l4.52,4.369m-4.52,-140.566l4.52,-4.37" style="fill:none;fill-rule:nonzero;stroke:#000;stroke-width:0.94px;"/><path d="M1172.05,175.875l-11.521,0l0,88.583l9.201,-0l18.378,0.963l18.301,1.923l18.176,2.879l18,3.826l17.775,4.763l17.502,5.687l17.18,6.594l16.811,7.485l16.397,8.355l15.937,9.201l15.433,10.023l14.888,10.816l14.301,11.581l13.676,12.314l13.012,13.012l12.314,13.676l11.581,14.301l10.816,14.888l10.023,15.433l9.201,15.937l8.355,16.397l7.484,16.811l6.595,17.18l5.687,17.502l4.763,17.775l3.826,18l2.879,18.176l1.923,18.302l0.963,18.376l0,18.403l-0.963,18.377l-1.923,18.301l-2.879,18.176l-3.826,18l-4.763,17.776l-5.687,17.501l-6.595,17.18l-7.484,16.812l-8.355,16.396l-9.201,15.937l-10.023,15.434l-10.816,14.887l-11.581,14.302l-12.314,13.675l-13.012,13.012l-13.676,12.314l-14.301,11.581l-14.888,10.817l-15.433,10.022l-15.937,9.201l-16.397,8.355l-16.811,7.485l-17.18,6.595l-17.502,5.686l-17.775,4.763l-18,3.826l-18.176,2.879l-18.301,1.924l-18.378,0.963l-9.201,-0l0,88.582l11.521,0l23.01,-1.206l22.915,-2.408l22.758,-3.605l22.538,-4.79l22.257,-5.964l21.914,-7.12l21.511,-8.257l21.049,-9.372l20.53,-10.461l19.955,-11.521l19.324,-12.549l18.641,-13.543l17.907,-14.501l17.123,-15.418l16.293,-16.293l15.418,-17.123l14.5,-17.907l13.544,-18.64l12.549,-19.325l11.521,-19.954l10.461,-20.531l9.371,-21.049l8.258,-21.511l7.12,-21.914l5.963,-22.256l4.791,-22.539l3.605,-22.757l2.408,-22.916l1.206,-23.01l0,-23.041l-1.206,-23.01l-2.408,-22.915l-3.605,-22.758l-4.791,-22.538l-5.963,-22.257l-7.12,-21.914l-8.258,-21.511l-9.371,-21.049l-10.461,-20.53l-11.521,-19.955l-12.549,-19.324l-13.544,-18.641l-14.5,-17.907l-15.418,-17.123l-16.293,-16.293l-17.123,-15.418l-17.907,-14.5l-18.641,-13.544l-19.324,-12.549l-19.955,-11.521l-20.53,-10.46l-21.049,-9.372l-21.511,-8.258l-21.914,-7.12l-22.257,-5.964l-22.538,-4.79l-22.758,-3.605l-22.915,-2.408l-23.01,-1.206Z" style="fill:#fff;fill-rule:nonzero;"/><path d="M670.368,175.875l-11.521,0l-23.01,1.206l-22.915,2.408l-22.758,3.605l-22.538,4.79l-22.257,5.964l-21.913,7.12l-21.511,8.258l-21.05,9.372l-20.53,10.46l-19.955,11.521l-19.324,12.549l-18.641,13.544l-17.907,14.5l-17.123,15.418l-16.293,16.293l-15.418,17.123l-14.5,17.907l-13.543,18.641l-12.55,19.324l-11.521,19.955l-10.46,20.53l-9.372,21.049l-8.257,21.511l-7.121,21.914l-5.963,22.257l-4.791,22.538l-3.604,22.758l-2.409,22.915l-1.206,23.01l0,23.041l1.206,23.01l2.409,22.916l3.604,22.757l4.791,22.539l5.963,22.256l7.121,21.914l8.257,21.511l9.372,21.049l10.46,20.531l11.521,19.954l12.55,19.325l13.543,18.64l14.5,17.907l15.418,17.123l16.293,16.293l17.123,15.418l17.907,14.501l18.641,13.543l19.324,12.549l19.955,11.521l20.53,10.461l21.05,9.372l21.511,8.257l21.913,7.12l22.257,5.964l22.538,4.79l22.758,3.605l22.915,2.408l23.01,1.206l11.521,0l-0,-88.582l-9.201,-0l-18.377,-0.963l-18.302,-1.924l-18.176,-2.879l-18,-3.826l-17.775,-4.763l-17.502,-5.686l-17.18,-6.595l-16.811,-7.485l-16.397,-8.355l-15.937,-9.201l-15.433,-10.022l-14.888,-10.817l-14.301,-11.581l-13.676,-12.314l-13.012,-13.012l-12.314,-13.675l-11.58,-14.302l-10.817,-14.887l-10.023,-15.434l-9.201,-15.937l-8.354,-16.396l-7.485,-16.812l-6.595,-17.18l-5.687,-17.501l-4.763,-17.776l-3.826,-18l-2.878,-18.176l-1.924,-18.301l-0.963,-18.377l-0,-18.403l0.963,-18.376l1.924,-18.302l2.878,-18.176l3.826,-18l4.763,-17.775l5.687,-17.502l6.595,-17.18l7.485,-16.811l8.354,-16.397l9.201,-15.937l10.023,-15.433l10.817,-14.888l11.58,-14.301l12.314,-13.676l13.012,-13.012l13.676,-12.314l14.301,-11.581l14.888,-10.816l15.433,-10.023l15.937,-9.201l16.397,-8.355l16.811,-7.485l17.18,-6.594l17.502,-5.687l17.775,-4.763l18,-3.826l18.176,-2.879l18.302,-1.923l18.377,-0.963l9.201,-0l-0,-88.583Z" style="fill:#fff;fill-rule:nonzero;"/><rect x="670.368" y="175.875" width="490.158" height="88.583" style="fill:#fff;"/><path d="M1172.05,175.875l-11.521,0m0,88.583l9.201,-0l18.378,0.963l18.301,1.923l18.176,2.879l18,3.826l17.775,4.763l17.502,5.687l17.18,6.594l16.811,7.485l16.397,8.355l15.937,9.201l15.433,10.023l14.888,10.816l14.301,11.581l13.676,12.314l13.012,13.012l12.314,13.676l11.581,14.301l10.816,14.888l10.023,15.433l9.201,15.937l8.355,16.397l7.484,16.811l6.595,17.18l5.687,17.502l4.763,17.775l3.826,18l2.879,18.176l1.923,18.302l0.963,18.376l0,18.403l-0.963,18.377l-1.923,18.301l-2.879,18.176l-3.826,18l-4.763,17.776l-5.687,17.501l-6.595,17.18l-7.484,16.812l-8.355,16.396l-9.201,15.937l-10.023,15.434l-10.816,14.887l-11.581,14.302l-12.314,13.675l-13.012,13.012l-13.676,12.314l-14.301,11.581l-14.888,10.817" style="fill:none;fill-rule:nonzero;stroke:#000;stroke-width:0.94px;"/><path d="M1359.62,905.515l-15.433,10.022l-15.937,9.201l-16.397,8.355l-16.811,7.485l-17.18,6.595l-17.502,5.686l-17.775,4.763l-18,3.826l-18.176,2.879l-18.301,1.924l-18.378,0.963l-9.201,-0m0,88.582l11.521,0l23.01,-1.206l22.915,-2.408l22.758,-3.605l22.538,-4.79l22.257,-5.964l21.914,-7.12l21.511,-8.257l21.049,-9.372l20.53,-10.461l19.955,-11.521l19.324,-12.549l18.641,-13.543l17.907,-14.501l17.123,-15.418l16.293,-16.293l15.418,-17.123l14.5,-17.907l13.544,-18.64l12.549,-19.325l11.521,-19.954l10.461,-20.531l9.371,-21.049l8.258,-21.511l7.12,-21.914l5.963,-22.256l4.791,-22.539l3.605,-22.757l2.408,-22.916l1.206,-23.01l0,-23.041l-1.206,-23.01l-2.408,-22.915l-3.605,-22.758l-4.791,-22.538l-5.963,-22.257l-7.12,-21.914l-8.258,-21.511" style="fill:none;fill-rule:nonzero;stroke:#000;stroke-width:0.94px;"/><path d="M1567.13,447.412l-9.371,-21.049l-10.461,-20.53l-11.521,-19.955l-12.549,-19.324l-13.544,-18.641l-14.5,-17.907l-15.418,-17.123l-16.293,-16.293l-17.123,-15.418l-17.907,-14.5l-18.641,-13.544l-19.324,-12.549l-19.955,-11.521l-20.53,-10.46l-21.049,-9.372l-21.511,-8.258l-21.914,-7.12l-22.257,-5.964l-22.538,-4.79l-22.758,-3.605l-22.915,-2.408l-23.01,-1.206m-501.678,0l-11.521,0l-23.01,1.206l-22.915,2.408l-22.758,3.605l-22.538,4.79l-22.257,5.964l-21.913,7.12l-21.511,8.258l-21.05,9.372l-20.53,10.46l-19.955,11.521l-19.324,12.549l-18.641,13.544l-17.907,14.5l-17.123,15.418l-16.293,16.293l-15.418,17.123l-14.5,17.907l-13.543,18.641l-12.55,19.324l-11.521,19.955l-10.46,20.53l-9.372,21.049l-8.257,21.511l-7.121,21.914l-5.963,22.257l-4.791,22.538l-3.604,22.758" style="fill:none;fill-rule:nonzero;stroke:#000;stroke-width:0.94px;"/><path d="M234.022,558.39l-2.409,22.915l-1.206,23.01l0,23.041l1.206,23.01l2.409,22.916l3.604,22.757l4.791,22.539l5.963,22.256l7.121,21.914l8.257,21.511l9.372,21.049l10.46,20.531l11.521,19.954l12.55,19.325l13.543,18.64l14.5,17.907l15.418,17.123l16.293,16.293l17.123,15.418l17.907,14.501l18.641,13.543l19.324,12.549l19.955,11.521l20.53,10.461l21.05,9.372l21.511,8.257l21.913,7.12l22.257,5.964l22.538,4.79l22.758,3.605l22.915,2.408l23.01,1.206l11.521,0m-0,-88.582l-9.201,-0l-18.377,-0.963l-18.302,-1.924l-18.176,-2.879l-18,-3.826l-17.775,-4.763l-17.502,-5.686l-17.18,-6.595l-16.811,-7.485l-16.397,-8.355l-15.937,-9.201l-15.433,-10.022l-14.888,-10.817l-14.301,-11.581l-13.676,-12.314l-13.012,-13.012l-12.314,-13.675" style="fill:none;fill-rule:nonzero;stroke:#000;stroke-width:0.94px;"/><path d="M403.086,844.116l-11.58,-14.302l-10.817,-14.887l-10.023,-15.434l-9.201,-15.937l-8.354,-16.396l-7.485,-16.812l-6.595,-17.18l-5.687,-17.501l-4.763,-17.776l-3.826,-18l-2.878,-18.176l-1.924,-18.301l-0.963,-18.377l-0,-18.403l0.963,-18.376l1.924,-18.302l2.878,-18.176l3.826,-18l4.763,-17.775l5.687,-17.502l6.595,-17.18l7.485,-16.811l8.354,-16.397l9.201,-15.937l10.023,-15.433l10.817,-14.888l11.58,-14.301l12.314,-13.676l13.012,-13.012l13.676,-12.314l14.301,-11.581l14.888,-10.816l15.433,-10.023l15.937,-9.201l16.397,-8.355l16.811,-7.485l17.18,-6.594l17.502,-5.687l17.775,-4.763l18,-3.826l18.176,-2.879l18.302,-1.923l18.377,-0.963l9.201,-0m490.157,-88.583l-490.157,0m-0,88.583l490.157,-0m-1115.74,797.716l-12.755,-12.756m12.755,-867.165l-12.755,-12.756m6.377,886.299l-10.629,0m10.629,0l10.63,0" style="fill:none;fill-rule:nonzero;stroke:#000;stroke-width:0.94px;"/><path d="M38.403,175.875l-10.629,0m10.629,0l10.63,0m-10.63,879.921l0,10.63m0,-890.551l0,-10.63" style="fill:none;fill-rule:nonzero;stroke:#000;stroke-width:0.94px;"/><path d="M38.403,1055.8l0,-879.921m185.626,-131.074l12.756,-12.755m1357.32,12.755l12.756,-12.755m-1376.46,6.378l0,-10.63m0,10.63l0,10.63m1370.08,-10.63l0,-10.63m0,10.63l0,10.63m-1370.08,-10.63l-10.63,-0m1380.71,-0l10.63,-0" style="fill:none;fill-rule:nonzero;stroke:#000;stroke-width:0.94px;"/><path d="M230.407,38.424l1370.08,-0m-1287.87,80.196l12.756,-12.755m1180.16,12.755l12.756,-12.755m-1199.29,6.378l-0,-10.63m-0,10.63l-0,10.629m1192.91,-10.629l0,-10.63m0,10.63l0,10.629m-1192.91,-10.629l-10.63,-0m1203.54,-0l10.63,-0" style="fill:none;fill-rule:nonzero;stroke:#000;stroke-width:0.94px;"/><path d="M318.99,112.243l1192.91,-0m-1396.26,861.349l-12.755,-12.756m12.755,-689.037l-12.755,-12.756m6.378,708.171l-10.63,-0m10.63,-0l10.63,-0m-10.63,-701.793l-10.63,-0m10.63,-0l10.63,-0m-10.63,701.793l-0,10.63m-0,-712.423l-0,-10.63" style="fill:none;fill-rule:nonzero;stroke:#000;stroke-width:0.94px;"/><g transform="matrix(0,-1,1,0,-2195.09,-2869.57)"><text x="-3524.68px" y="2225.86px" style="font-family:'LucidaGrande', 'Lucida Grande', sans-serif;font-weight:500;font-size:41.538px;">3<tspan x="-3501.1px -3490.64px -3467.06px " y="2225.86px 2225.86px 2225.86px ">.00</tspan></text></g><g transform="matrix(4.16667,0,0,4.16667,-2532.33,-337.239)"><text x="817.956px" y="88.327px" style="font-family:'LucidaGrande', 'Lucida Grande', sans-serif;font-weight:500;font-size:9.969px;">4<tspan x="823.615px 826.124px 831.783px " y="88.327px 88.327px 88.327px ">.65</tspan></text><text x="802.5px" y="104.676px" style="font-family:'LucidaGrande', 'Lucida Grande', sans-serif;font-weight:500;font-size:9.969px;">4<tspan x="808.237px 810.824px 816.56px " y="104.676px 104.676px 104.676px ">.05</tspan></text><text x="826.874px" y="104.676px" style="font-family:'LucidaGrande', 'Lucida Grande', sans-serif;font-weight:500;font-size:9.969px;">(<tspan x="829.549px 835.286px 837.873px 843.61px 849.346px " y="104.676px 104.676px 104.676px 104.676px 104.676px ">4.00)</tspan></text></g><g transform="matrix(0,-1,1,0,-2195.09,-2869.57)"><text x="-3595.05px" y="2291.02px" style="font-family:'LucidaGrande', 'Lucida Grande', sans-serif;font-weight:500;font-size:41.538px;">2<tspan x="-3571.15px -3560.37px -3536.47px -3512.56px -3483.19px -3472.04px -3448.14px -3437.36px -3413.46px -3389.56px " y="2291.02px 2291.02px 2291.02px 2291.02px 2291.02px 2291.02px 2291.02px 2291.02px 2291.02px 2291.02px ">.40	(2.35)</tspan></text></g><text x="815.889px" y="905.206px" style="font-family:'LucidaGrande', 'Lucida Grande', sans-serif;font-weight:500;font-size:58.153px;">8<tspan x="848.916px 863.571px 896.598px 929.625px 944.28px 994.827px " y="905.206px 905.206px 905.206px 905.206px 905.206px 905.206px ">.50 m²</tspan></text><path d="M109.27,967.214l-0,-701.793" style="fill:none;fill-rule:nonzero;stroke:#000;stroke-width:0.94px;"/><path d="M1015.83,920.363l5.982,-0.523l5.8,-1.554l5.443,-2.538l4.919,-3.444l4.246,-4.246l3.444,-4.919l2.538,-5.442l1.554,-5.801l0.523,-5.981l-0.523,-5.983l-1.554,-5.8l-2.538,-5.442l-3.444,-4.919l-4.246,-4.246l-4.919,-3.444l-5.443,-2.538l-5.8,-1.554l-5.982,-0.523l-199.935,-0l-5.982,0.523l-5.801,1.554l-5.442,2.538l-4.919,3.444l-4.246,4.246l-3.444,4.919l-2.538,5.442l-1.554,5.8l-0.523,5.983l0.523,5.981l1.554,5.801l2.538,5.442l3.444,4.919l4.246,4.246l4.919,3.444l5.442,2.538l5.801,1.554l5.982,0.523l199.935,0" style="fill:none;fill-rule:nonzero;stroke:#000;stroke-width:0.94px;"/></svg>