<?xml version="1.0" encoding="UTF-8" standalone="no"?><!DOCTYPE svg PUBLIC "-//W3C//DTD SVG 1.1//EN" "http://www.w3.org/Graphics/SVG/1.1/DTD/svg11.dtd"><svg width="100%" height="100%" viewBox="0 0 1644 1007" version="1.1" xmlns="http://www.w3.org/2000/svg" xmlns:xlink="http://www.w3.org/1999/xlink" xml:space="preserve" xmlns:serif="http://www.serif.com/" style="fill-rule:evenodd;clip-rule:evenodd;stroke-linecap:round;stroke-linejoin:round;stroke-miterlimit:10;"><path d="M1303.44,968.374l-0,6.201l-15.945,0l-0,-6.201l15.945,0Z" style="fill:#808080;"/><path d="M1287.49,974.575l4.833,0m5.906,0l5.206,0m-15.945,0l-0,-0.81m-0,-5.391l4.833,0m5.906,0l5.206,0m-0,6.201l-0,-0.81m-15.945,0.81l15.945,0l-0,-6.201l-15.945,0l-0,6.201" style="fill:none;fill-rule:nonzero;stroke:#000;stroke-width:0.94px;"/><path d="M1287.49,990.815l-0,-16.24l7.972,0l0,16.24l-7.972,0Z" style="fill:#808080;"/><path d="M1295.47,990.815l0,-16.24l-7.972,0l-0,16.24l7.972,0m0,-16.24l0,16.24l-7.972,0l-0,-16.24l7.972,0m0,16.24l0,0" style="fill:none;fill-rule:nonzero;stroke:#000;stroke-width:0.94px;"/><path d="M1319.52,967.279l0.283,6.194l-15.928,0.728l-0.284,-6.194l15.929,-0.728Z" style="fill:#808080;"/><path d="M1314.89,973.698l4.914,-0.225m-5.197,-5.97l4.914,-0.224m-15.645,6.922l15.928,-0.728l-0.283,-6.194l-15.929,0.728l0.284,6.194" style="fill:none;fill-rule:nonzero;stroke:#000;stroke-width:0.94px;"/><path d="M1304.61,990.424l-0.741,-16.223l7.964,-0.364l0.741,16.223l-7.964,0.364Z" style="fill:#808080;"/><path d="M1312.58,990.06l-0.741,-16.223l-7.964,0.364l0.741,16.223l7.964,-0.364m-0.741,-16.223l0.741,16.223l-7.964,0.364l-0.741,-16.223l7.964,-0.364m0.741,16.223l-0,0" style="fill:none;fill-rule:nonzero;stroke:#000;stroke-width:0.94px;"/><path d="M1335.53,965.451l0.565,6.174l-15.878,1.455l-0.566,-6.175l15.879,-1.454Z" style="fill:#808080;"/><path d="M1320.22,973.08l15.878,-1.455m-16.444,-4.72l0.06,0.657m-0.06,-0.657l15.879,-1.454m-0,-0l0.06,0.656m-15.373,6.973l15.878,-1.455l-0.565,-6.174l-15.879,1.454l0.566,6.175" style="fill:none;fill-rule:nonzero;stroke:#000;stroke-width:0.94px;"/><path d="M1321.7,989.252l-1.481,-16.172l7.939,-0.727l1.482,16.172l-7.94,0.727Z" style="fill:#808080;"/><path d="M1329.64,988.525l-1.482,-16.172l-7.939,0.727l1.481,16.172l7.94,-0.727m-1.482,-16.172l1.482,16.172l-7.94,0.727l-1.481,-16.172l7.939,-0.727m1.482,16.172l-0,0" style="fill:none;fill-rule:nonzero;stroke:#000;stroke-width:0.94px;"/><path d="M1351.44,962.893l0.847,6.143l-15.796,2.177l-0.847,-6.142l15.796,-2.178Z" style="fill:#808080;"/><path d="M1343.53,970.244l5.85,-0.807m-13.315,-1.348l0.431,3.124m6.187,-7.112l5.85,-0.807m3.328,2.617l0.431,3.125m-15.796,2.177l15.796,-2.177l-0.847,-6.143l-15.796,2.178l0.847,6.142" style="fill:none;fill-rule:nonzero;stroke:#000;stroke-width:0.94px;"/><path d="M1338.71,987.301l-2.218,-16.088l7.898,-1.089l2.218,16.088l-7.898,1.089Z" style="fill:#808080;"/><path d="M1346.61,986.212l-2.218,-16.087l-7.898,1.088l2.218,16.088l7.898,-1.089m-2.218,-16.087l2.218,16.087l-7.898,1.089l-2.218,-16.088l7.898,-1.088m2.218,16.087l-0,0" style="fill:none;fill-rule:nonzero;stroke:#000;stroke-width:0.94px;"/><path d="M1367.22,959.612l1.126,6.097l-15.68,2.896l-1.126,-6.097l15.68,-2.896Z" style="fill:#808080;"/><path d="M1355.79,968.028l5.807,-1.073m-6.933,-5.024l5.807,-1.073m-7.808,7.748l15.68,-2.897l-1.127,-6.098l-15.679,2.897l1.126,6.098" style="fill:none;fill-rule:nonzero;stroke:#000;stroke-width:0.94px;"/><path d="M1355.62,984.576l-2.95,-15.97l7.84,-1.449l2.95,15.97l-7.84,1.449Z" style="fill:#808080;"/><path d="M1363.46,983.127l-2.95,-15.97l-7.84,1.449l2.95,15.97l7.84,-1.449m-2.95,-15.97l2.95,15.97l-7.84,1.449l-2.95,-15.97l7.84,-1.449m2.95,15.97l0,0" style="fill:none;fill-rule:nonzero;stroke:#000;stroke-width:0.94px;"/><path d="M1382.83,955.613l1.403,6.04l-15.531,3.609l-1.403,-6.039l15.531,-3.61Z" style="fill:#808080;"/><path d="M1368.7,965.263l15.1,-3.51m-16.503,-2.53l15.1,-3.51m-13.697,9.55l15.531,-3.61l-1.403,-6.04l-15.531,3.61l1.403,6.04" style="fill:none;fill-rule:nonzero;stroke:#000;stroke-width:0.94px;"/><path d="M1372.38,981.081l-3.676,-15.818l7.766,-1.805l3.676,15.818l-7.766,1.805Z" style="fill:#808080;"/><path d="M1380.15,979.276l-3.676,-15.818l-7.766,1.805l3.676,15.818l7.766,-1.805m-3.676,-15.818l3.676,15.818l-7.766,1.805l-3.676,-15.818l7.766,-1.805m3.676,15.818l0,0" style="fill:none;fill-rule:nonzero;stroke:#000;stroke-width:0.94px;"/><path d="M1398.25,950.906l1.678,5.97l-15.35,4.315l-1.678,-5.97l15.35,-4.315Z" style="fill:#808080;"/><path d="M1384.57,961.191l11.762,-3.307m-12.253,1.56l0.491,1.747m-1.678,-5.97l11.762,-3.306m4.775,3.215l0.491,1.746m-15.35,4.315l15.35,-4.315l-1.678,-5.969l-15.35,4.314l1.678,5.97" style="fill:none;fill-rule:nonzero;stroke:#000;stroke-width:0.94px;"/><path d="M1388.97,976.825l-4.395,-15.634l7.675,-2.158l4.395,15.635l-7.675,2.157Z" style="fill:#808080;"/><path d="M1396.64,974.668l-4.395,-15.635l-7.675,2.158l4.395,15.634l7.675,-2.157m-4.395,-15.635l4.395,15.635l-7.675,2.157l-4.395,-15.634l7.675,-2.158m4.395,15.635l-0,-0" style="fill:none;fill-rule:nonzero;stroke:#000;stroke-width:0.94px;"/><path d="M1413.43,945.501l1.948,5.886l-15.137,5.011l-1.948,-5.886l15.137,-5.011Z" style="fill:#808080;"/><path d="M1400.24,956.398l14.539,-4.812m-16.487,-1.074l1.334,4.029m-1.334,-4.029l14.539,-4.813m0.598,-0.198l1.333,4.029m-14.522,6.868l15.137,-5.011l-1.948,-5.886l-15.137,5.011l1.948,5.886" style="fill:none;fill-rule:nonzero;stroke:#000;stroke-width:0.94px;"/><path d="M1405.34,971.816l-5.104,-15.418l7.569,-2.505l5.104,15.417l-7.569,2.506Z" style="fill:#808080;"/><path d="M1412.91,969.31l-5.104,-15.417l-7.569,2.505l5.104,15.418l7.569,-2.506m-5.104,-15.417l5.104,15.417l-7.569,2.506l-5.104,-15.418l7.569,-2.505m5.104,15.417l-0,0" style="fill:none;fill-rule:nonzero;stroke:#000;stroke-width:0.94px;"/><path d="M1428.35,939.407l2.216,5.792l-14.892,5.697l-2.216,-5.792l14.892,-5.697Z" style="fill:#808080;"/><path d="M1418.47,949.826l5.516,-2.11m-9.975,-1.166l1.663,4.346m0.581,-6.861l5.516,-2.11m7.133,-1.072l1.662,4.346m-14.892,5.697l14.892,-5.697l-2.215,-5.791l-14.893,5.696l2.216,5.792" style="fill:none;fill-rule:nonzero;stroke:#000;stroke-width:0.94px;"/><path d="M1421.47,966.064l-5.802,-15.168l7.446,-2.848l5.802,15.168l-7.446,2.848Z" style="fill:#808080;"/><path d="M1428.92,963.216l-5.802,-15.168l-7.446,2.848l5.802,15.168l7.446,-2.848m-5.802,-15.168l5.802,15.168l-7.446,2.848l-5.802,-15.168l7.446,-2.848m5.802,15.168l0,-0" style="fill:none;fill-rule:nonzero;stroke:#000;stroke-width:0.94px;"/><path d="M1442.98,932.64l2.477,5.684l-14.616,6.371l-2.478,-5.684l14.617,-6.371Z" style="fill:#808080;"/><path d="M1437.53,941.779l5.414,-2.359m-7.891,-3.325l5.413,-2.36m-9.625,10.96l14.616,-6.371l-2.477,-5.684l-14.617,6.371l2.478,5.684" style="fill:none;fill-rule:nonzero;stroke:#000;stroke-width:0.94px;"/><path d="M1437.32,959.583l-6.488,-14.888l7.308,-3.185l6.489,14.887l-7.309,3.186Z" style="fill:#808080;"/><path d="M1444.63,956.397l-6.489,-14.888l-7.308,3.186l6.488,14.887l7.309,-3.185m-6.489,-14.888l6.489,14.888l-7.309,3.185l-6.488,-14.887l7.308,-3.186m6.489,14.888l-0,0" style="fill:none;fill-rule:nonzero;stroke:#000;stroke-width:0.94px;"/><path d="M1457.28,925.212l2.734,5.565l-14.311,7.031l-2.734,-5.565l14.311,-7.031Z" style="fill:#808080;"/><path d="M1445.7,937.808l14.31,-7.031m-17.045,1.466l2.735,5.565m-2.735,-5.565l14.311,-7.032m0,0l2.734,5.566m-14.31,7.031l14.31,-7.031l-2.734,-5.566l-14.311,7.032l2.735,5.565" style="fill:none;fill-rule:nonzero;stroke:#000;stroke-width:0.94px;"/><path d="M1452.86,952.384l-7.161,-14.576l7.155,-3.516l7.162,14.576l-7.156,3.516Z" style="fill:#808080;"/><path d="M1460.02,948.868l-7.162,-14.576l-7.155,3.516l7.161,14.576l7.156,-3.516m-7.162,-14.576l7.162,14.576l-7.156,3.516l-7.161,-14.576l7.155,-3.516m7.162,14.576l-0,0" style="fill:none;fill-rule:nonzero;stroke:#000;stroke-width:0.94px;"/><path d="M1471.23,917.138l2.985,5.434l-13.974,7.678l-2.986,-5.435l13.975,-7.677Z" style="fill:#808080;"/><path d="M1460.24,930.249l1.816,-0.997m10.352,-5.687l1.806,-0.993m-16.96,2.243l2.897,5.273m-2.897,-5.273l1.816,-0.998m10.352,-5.687l1.807,-0.992m-0,-0l2.897,5.273m-13.886,7.838l13.974,-7.677l-2.985,-5.434l-13.975,7.677l2.986,5.434" style="fill:none;fill-rule:nonzero;stroke:#000;stroke-width:0.94px;"/><path d="M1468.06,944.483l-7.819,-14.234l6.987,-3.838l7.82,14.234l-6.988,3.838Z" style="fill:#808080;"/><path d="M1475.04,940.645l-7.82,-14.234l-6.987,3.838l7.819,14.234l6.988,-3.838m-7.82,-14.234l7.82,14.234l-6.988,3.838l-7.819,-14.234l6.987,-3.838m7.82,14.234l-0,-0" style="fill:none;fill-rule:nonzero;stroke:#000;stroke-width:0.94px;"/><path d="M1484.79,908.435l3.23,5.293l-13.609,8.308l-3.231,-5.293l13.61,-8.308Z" style="fill:#808080;"/><path d="M1478.2,919.724l5.041,-3.077m-10.343,2.905l1.516,2.483m0.556,-7.604l5.04,-3.076m6.497,-0.11l1.516,2.483m-13.609,8.307l13.609,-8.307l-3.23,-5.293l-13.61,8.308l3.231,5.292" style="fill:none;fill-rule:nonzero;stroke:#000;stroke-width:0.94px;"/><path d="M1482.87,935.897l-8.461,-13.862l6.805,-4.153l8.461,13.862l-6.805,4.153Z" style="fill:#808080;"/><path d="M1489.68,931.744l-8.461,-13.862l-6.805,4.153l8.461,13.862l6.805,-4.153m-8.461,-13.862l8.461,13.862l-6.805,4.153l-8.461,-13.862l6.805,-4.153m8.461,13.862l-0,-0" style="fill:none;fill-rule:nonzero;stroke:#000;stroke-width:0.94px;"/><path d="M1497.94,899.123l3.469,5.14l-13.216,8.92l-3.469,-5.14l13.216,-8.92Z" style="fill:#808080;"/><path d="M1489.6,912.233l4.895,-3.304m4.895,-3.303l2.019,-1.363m-16.591,3.92l3.304,4.895m-1.991,-5.984l4.895,-3.304m4.894,-3.304l2.02,-1.363m0.094,0.14l3.304,4.894m-13.145,9.026l13.216,-8.92l-3.469,-5.14l-13.216,8.92l3.469,5.14" style="fill:none;fill-rule:nonzero;stroke:#000;stroke-width:0.94px;"/><path d="M1497.28,926.644l-9.085,-13.461l6.608,-4.46l9.085,13.461l-6.608,4.46Z" style="fill:#808080;"/><path d="M1503.89,922.184l-9.085,-13.461l-6.608,4.46l9.085,13.461l6.608,-4.46m-9.085,-13.461l9.085,13.461l-6.608,4.46l-9.085,-13.461l6.608,-4.46m9.085,13.461l0,-0" style="fill:none;fill-rule:nonzero;stroke:#000;stroke-width:0.94px;"/><path d="M1510.66,889.22l3.701,4.976l-12.795,9.514l-3.701,-4.976l12.795,-9.514Z" style="fill:#808080;"/><path d="M1506.11,900.325l4.739,-3.523m-11.206,4.333l1.915,2.575m0.852,-8.36l4.739,-3.524m5.29,-0.206l1.915,2.576m-12.796,9.514l12.796,-9.514l-3.7,-4.976l-12.796,9.514l3.7,4.976" style="fill:none;fill-rule:nonzero;stroke:#000;stroke-width:0.94px;"/><path d="M1511.25,916.742l-9.691,-13.032l6.398,-4.757l9.69,13.032l-6.397,4.757Z" style="fill:#808080;"/><path d="M1517.65,911.985l-9.69,-13.032l-6.398,4.757l9.691,13.032l6.397,-4.757m-9.69,-13.032l9.69,13.032l-6.397,4.757l-9.691,-13.032l6.398,-4.757m9.69,13.032l0,0" style="fill:none;fill-rule:nonzero;stroke:#000;stroke-width:0.94px;"/><path d="M1522.91,878.746l3.923,4.802l-12.347,10.089l-3.924,-4.802l12.348,-10.089Z" style="fill:#808080;"/><path d="M1514.48,893.637l3.517,-2.873m-7.44,-1.929l3.923,4.802m-3.923,-4.802l3.517,-2.873m8.831,-7.215l3.923,4.801m-12.348,10.089l12.348,-10.089l-3.923,-4.801l-12.348,10.088l3.923,4.802" style="fill:none;fill-rule:nonzero;stroke:#000;stroke-width:0.94px;"/><path d="M1524.76,906.213l-10.276,-12.576l6.174,-5.044l10.275,12.576l-6.173,5.044Z" style="fill:#808080;"/><path d="M1530.93,901.169l-10.275,-12.576l-6.174,5.044l10.276,12.576l6.173,-5.044m-10.275,-12.576l10.275,12.576l-6.173,5.044l-10.276,-12.576l6.174,-5.044m10.275,12.576l0.001,0" style="fill:none;fill-rule:nonzero;stroke:#000;stroke-width:0.94px;"/><path d="M1534.66,867.725l4.138,4.618l-11.874,10.641l-4.138,-4.617l11.874,-10.642Z" style="fill:#808080;"/><path d="M1526.93,882.984l11.874,-10.641m-16.012,6.024l11.874,-10.642m-7.736,15.259l11.874,-10.641l-4.138,-4.618l-11.874,10.642l4.138,4.617" style="fill:none;fill-rule:nonzero;stroke:#000;stroke-width:0.94px;"/><path d="M1537.77,895.079l-10.839,-12.095l5.937,-5.32l10.839,12.094l-5.937,5.321Z" style="fill:#808080;"/><path d="M1543.7,889.758l-10.839,-12.094l-5.937,5.32l10.839,12.094l5.937,-5.32m-10.839,-12.094l10.839,12.094l-5.937,5.32l-10.839,-12.094l5.937,-5.32m10.839,12.094l0,-0" style="fill:none;fill-rule:nonzero;stroke:#000;stroke-width:0.94px;"/><path d="M1545.91,856.178l4.345,4.424l-11.376,11.173l-4.345,-4.424l11.376,-11.173Z" style="fill:#808080;"/><path d="M1538.88,871.775l0.288,-0.283m8.427,-8.276l2.661,-2.614m-15.721,6.749l2.985,3.039m-2.985,-3.039l0.288,-0.283m8.427,-8.276l2.661,-2.614m-0,0l2.985,3.039m-10.016,12.558l11.376,-11.173l-4.345,-4.424l-11.376,11.173l4.345,4.424" style="fill:none;fill-rule:nonzero;stroke:#000;stroke-width:0.94px;"/><path d="M1550.26,883.361l-11.379,-11.586l5.688,-5.587l11.379,11.587l-5.688,5.586Z" style="fill:#808080;"/><path d="M1555.94,877.775l-11.379,-11.586l-5.688,5.586l11.379,11.587l5.688,-5.587m-11.379,-11.586l11.379,11.586l-5.688,5.587l-11.379,-11.587l5.688,-5.586m11.379,11.586l0,0" style="fill:none;fill-rule:nonzero;stroke:#000;stroke-width:0.94px;"/><path d="M1556.61,844.13l4.542,4.221l-10.854,11.681l-4.542,-4.221l10.854,-11.681Z" style="fill:#808080;"/><path d="M1550.3,860.031l2.19,-2.356m4.02,-4.326l4.02,-4.326m-14.772,6.788l4.174,3.878m-4.174,-3.878l2.19,-2.357m4.019,-4.326l4.02,-4.326m0.625,-0.672l4.174,3.879m-10.486,12.022l10.854,-11.68l-4.542,-4.221l-10.854,11.681l4.542,4.22" style="fill:none;fill-rule:nonzero;stroke:#000;stroke-width:0.94px;"/><path d="M1562.2,871.086l-11.897,-11.055l5.427,-5.84l11.897,11.055l-5.427,5.84Z" style="fill:#808080;"/><path d="M1567.62,865.246l-11.897,-11.055l-5.427,5.84l11.897,11.056l5.427,-5.841m-11.897,-11.055l11.897,11.055l-5.427,5.841l-11.897,-11.056l5.427,-5.84m11.897,11.055l-0,0" style="fill:none;fill-rule:nonzero;stroke:#000;stroke-width:0.94px;"/><path d="M1573.56,858.279l-12.389,-10.5l5.155,-6.082l12.389,10.5l-5.155,6.082Z" style="fill:#808080;"/><path d="M1578.72,852.197l-12.389,-10.5l-5.155,6.082l12.389,10.5l5.155,-6.082m-12.389,-10.5l12.389,10.5l-5.155,6.082l-12.389,-10.5l5.155,-6.082m12.389,10.5l-0,0" style="fill:none;fill-rule:nonzero;stroke:#000;stroke-width:0.94px;"/><path d="M1561.55,837.745l4.73,4.009l-5.106,6.025l-4.73,-4.009l5.106,-6.025Z" style="fill:#808080;"/><path d="M1561.17,847.779l5.106,-6.025m-9.836,2.016l5.106,-6.025m-0.376,10.034l5.106,-6.025l-4.73,-4.009l-5.106,6.025l4.73,4.009" style="fill:none;fill-rule:nonzero;stroke:#000;stroke-width:0.94px;"/><path d="M1563.92,839.745c123.673,-152.666 100.17,-376.683 -52.497,-500.356m0,-0c-63.349,-51.318 -142.402,-79.321 -223.929,-79.321" style="fill:none;fill-rule:nonzero;stroke:#000;stroke-width:0.94px;"/><path d="M1378.98,930.835c105.359,-30.598 188.445,-111.841 221.4,-216.487" style="fill:none;fill-rule:nonzero;stroke:#000;stroke-width:0.94px;"/><path d="M1378.98,930.835l22.685,-6.589m-22.685,6.589l15.117,-15.706l6.061,20.87l-21.178,-5.164m221.4,-216.487l-7.096,22.531m7.096,-22.531l-16.041,14.761l20.729,6.528l-4.688,-21.289m-330.604,-370.186l-17.716,-0l-0,-14.764l23.622,0l-0,22.146l-5.906,-0l0,-7.382m0,543.307l0,-7.382l5.906,-0l-0,22.146l-23.622,-0l-0,-14.764l17.716,-0m0,-7.382l0,-528.543l5.906,-0l-0,528.543l-5.906,-0m-17.716,-535.925l17.716,-0l0,22.146l-23.622,-0l0,-22.146l5.906,-0m17.716,521.161l0,22.146l-23.622,-0l0,-22.146l23.622,0m0,-499.015l0,499.015l-23.622,0l0,-499.015l23.622,-0m-8.267,-0l-0,499.015l-7.087,0l-0,-499.015l7.087,-0m14.173,-36.91l20.669,0l-0,572.835l-20.669,-0l-0,-572.835m-362.16,655.512l13.288,-0l-0,-17.717" style="fill:none;fill-rule:nonzero;stroke:#000;stroke-width:0.94px;"/><path d="M926.811,967.193l8.858,0l-0,23.622l-22.146,0l0,-5.905m-234.297,-17.717l0,17.717l13.288,-0l-0,5.905l-22.146,0l-0,-23.622l8.858,0m13.288,17.717l221.009,-0l0,5.905l-221.009,0l-0,-5.905m-13.288,-23.622l0,-241.679" style="fill:none;fill-rule:nonzero;stroke:#000;stroke-width:0.94px;"/><path d="M679.226,719.609c136.737,-0 247.585,110.847 247.585,247.584" style="fill:none;fill-rule:nonzero;stroke:#000;stroke-width:0.94px;"/><path d="M926.811,984.91l-247.585,-0l0,-23.622l247.585,-0l-0,23.622m-25.099,-23.622l-14.763,-0l-0,-2.953l14.763,0l0,2.953m-4.429,-2.953l-5.905,0l-0,-8.858l-28.052,-0l0,-5.906l33.957,0l0,14.764m1.477,26.575l-8.859,-0l0,20.669l8.859,0l-0,-20.669m204.701,-422.626l-1.958,2.41m2.259,-5.424l-0.301,3.014m-0.15,-4.671l0.451,1.657m-2.259,-3.916l1.808,2.259m-161.349,67.492l-6.327,3.315m177.619,31.185l-0.453,-0m1.206,0.15l-0.753,-0.15m-0.453,-0l-0.451,-1.356m-0,-153.213l0.301,-1.206l0.301,-0.301m-310.493,54.385l0.602,1.206m-2.109,-2.26l1.507,1.054m-2.561,-1.205l1.054,0.151m6.93,42.032l0.301,-0l5.574,4.519m-8.888,-7.834l3.013,3.315m-3.766,-5.122l0.753,1.807m-0.904,-4.519l0.151,2.712m0.15,-4.67l-0.301,1.958m0.904,-3.766l-0.603,1.808m0,-15.518l0.603,1.959m-0.904,-5.273l0.301,3.314m-0.15,-4.67l-0.151,1.356m0.904,-3.164l-0.753,1.808m1.657,-2.862l-0.904,1.054m0.904,-1.355l0,0.301m2.109,-2.411l-2.109,2.11m6.327,-5.575l-4.218,3.465m5.875,-4.519l-1.657,1.054m291.361,44.141l-1.958,2.411" style="fill:none;fill-rule:nonzero;stroke:#000;stroke-width:0.94px;"/><path d="M1103.76,601.302l-0.301,3.013m-0.15,-4.67l0.451,1.657m-2.259,-3.917l1.808,2.26m35.855,-24.556l11.148,-0m-13.559,0.301l2.411,-0.301m11.148,0.151l1.356,-0.151l-0,-1.657l-0.452,-0.603m-0.452,-0.151l-13.86,0m14.312,0.151l-0.452,-0.151m-90.391,74.121l-12.052,-0.301l-1.808,-0.302l-3.917,-1.205m60.411,-1.958l-1.054,2.26m-59.357,-0.302l-4.218,-2.109m-1.658,-1.657l-0.301,0m1.959,1.657l-1.658,-1.657m66.287,-0.753l0,2.561m-66.588,-1.808l-2.41,-2.41m68.094,-0.302l0.904,1.959m-1.506,-2.712l0.602,0.753m-51.221,-1.808l24.104,0.151m-27.72,-0.753l3.616,0.602m-16.873,2.11l-2.11,-3.616m11.902,-0.603l3.465,1.507m-15.367,-0.904l-0.753,-1.808m10.847,-0.602l1.808,1.807m-2.712,-3.314l0.904,1.507m-1.356,-2.411l0.452,0.904m-9.943,2.109l-1.356,-5.122m9.944,-1.205l0.903,3.314m-10.847,-2.109l-1.054,-11.45m9.943,-1.054l1.055,11.299m-1.507,-20.338l0.452,9.039m-9.943,1.054l-0.754,-13.558m-0.301,-7.533l-0.602,-16.722m11.6,-28.323l-0.151,4.52m-10.395,4.369l0.603,-9.793m10.998,-9.491l-1.055,10.395m-9.943,-0.904l1.054,-10.696m10.998,-2.561l-1.054,3.766m1.958,-5.122l-0.904,1.356m-10.998,2.561l1.055,-4.218m11.148,-0.603l-0.301,0.904m-10.847,-0.301l0.602,-1.959m12.354,-0.301l-1.808,1.657m4.52,-3.013l-2.712,1.356m6.026,-2.109l-3.314,0.753m55.741,-2.712l-0.753,0.904m-70.054,3.465l2.712,-4.82" style="fill:none;fill-rule:nonzero;stroke:#000;stroke-width:0.94px;"/><path d="M1103.01,526.73l-0.753,1.807m-68.095,-0.451l4.068,-3.767m64.78,-0.15l0,2.561m-64.78,-2.411l4.519,-2.26m59.207,-0.301l1.054,2.411m-1.506,-2.712l0.452,0.301m-59.207,0.301l3.465,-1.054l2.863,-0.452l26.515,-0.151m54.536,133.176l-16.723,0m16.723,-143.721l-0,143.721m-16.723,-143.721l16.723,-0m-295.881,158.335l-16.27,-0l-1.657,-0.452m20.488,-0.151l-2.561,0.603m-17.927,-0.452l-1.356,-0.753m23.803,-0.603l-1.959,1.205m-21.844,-0.602l-0.904,-1.658m26.213,-1.054l-1.506,2.109m-24.707,-1.055l-0.302,-1.205m27.419,-2.26l-0.904,2.411m5.574,-56.193l-4.67,53.782m5.122,-57.247l-0.452,3.465m-32.089,56.042l0,-60.713m33.747,-3.013l-1.206,4.219m3.315,-7.232l-2.109,3.013m5.423,-4.821l-3.314,1.808m7.532,-2.41l-4.218,0.602m21.091,-0.451l-16.873,-0.151m-0.15,-27.419l17.174,-0.15m-21.393,-0.452l4.219,0.602m-7.382,-2.41l3.163,1.808m-5.272,-4.972l2.109,3.164m-3.315,-7.382l1.206,4.218m-1.658,-7.683l0.452,3.465m-5.122,-57.248l4.67,53.783m-32.089,4.821l0,-60.562m26.515,-0.452l0.904,2.41m-27.419,-1.958l0.302,-1.205m24.707,-1.206l1.506,1.959m-2.109,-2.109l0.603,0.15m-24.707,1.206l0.904,-1.808m21.694,-0.603l1.506,1.055m-23.2,-0.452l1.205,-0.754m17.928,-0.452l2.561,0.603m-18.832,-0.603l16.271,0m-17.928,0.452l1.657,-0.452m67.191,103.046l0.753,0.603m-1.808,-2.862l1.055,2.259m96.266,0.603l0.151,-4.218" style="fill:none;fill-rule:nonzero;stroke:#000;stroke-width:0.94px;"/><path d="M981.433,593.77l1.657,-2.109m-98.827,-1.356l-0.302,-0m67.944,-0.151l-18.078,-0.452m49.263,-18.53l-1.657,-1.958m-96.718,-2.863l-0.603,1.055m0.753,-1.808l-0.15,0.753m1.054,-1.507l-0.904,0.754m96.568,3.616l-0.151,-4.37m-74.12,-10.846l-4.52,1.205m5.122,-2.109l-0.602,0.904m186.205,77.887l-0.602,-0m-39.17,0.15l0.603,-0.301m39.923,-0.301l-0.754,0.452m-39.169,-0.151l1.205,-1.356m39.772,-0.452l-1.054,1.507m1.657,-2.863l-0.603,1.356m-39.772,0.452l1.205,-2.862l0.302,-1.657m39.772,-0.754l-0.904,3.465m1.356,-7.08l-0.452,3.615m-39.622,0.452l0.603,-4.971l0,-3.616m39.471,-0.753l-0,5.273m-39.471,-4.52l-0.301,-3.314m39.32,-1.055l0.452,3.616m-39.772,-2.561l-0.452,-1.657m-0,-0.302l-0.603,-2.41m39.32,-0.452l1.055,3.766m-40.375,-3.314l-1.205,-2.561m39.471,-0l1.054,2.109m-40.375,-53.632l1.055,-1.959l0.603,-2.561m-0,-0.301l0.452,-1.808l0.301,-3.314l-0.151,-5.574l-0.602,-3.013m-0,-0.151l-0.603,-2.411l-1.205,-2.56l-1.205,-1.055m-41.58,72.614l-31.788,0.151l-1.808,-0.452l-1.205,-0.603l-2.711,-1.657m-0.151,-0.452l-0.603,0m0.754,0.452l-0.151,-0.452m-0.603,0l-1.958,-1.055m-79.243,-0.15l-8.286,-0.151m8.738,0l-0.452,0.151m79.243,0.15l-1.658,-0.301l-36.909,0" style="fill:none;fill-rule:nonzero;stroke:#000;stroke-width:0.94px;"/><path d="M933.526,598.741l-2.109,-0.15l-0.452,-0m-46.401,0.15l-8.587,-0.602l-0.753,-0.302m9.641,-0.301l0.904,0.452m-10.545,-0.151l-0.603,-0.602l-0.603,-2.109m9.793,-0l1.054,2.41m96.869,0.452l0,-4.068l1.507,-2.109m-0,-20.79l-1.507,-2.109m-107.565,-1.506l0.452,-1.808m10.244,-0.302l-0.904,2.11m1.808,-2.562l-0.904,0.452m96.869,3.616l0,-4.068m-107.113,0.754l0.753,-0.754l0.452,-0.15m18.38,-0.603l5.273,0m-23.653,0.603l8.286,-0.603m54.687,-0.15l32.541,-0m-32.993,0.15l0.452,-0.15m-45.347,-0l0.754,0.15m-10.094,0l9.34,-0.15m77.888,-0l1.506,-0.452m1.205,-0.754l0.603,0m-1.808,0.754l1.205,-0.754m0.603,0l0.301,-0.602l3.013,-1.808m2.26,-0.753l47.907,-0m-50.167,0.753l2.26,-0.753m-2.26,30.733l-13.709,-0m-4.671,-0.151l-7.683,-0m-6.176,-0.151l6.176,0.151m-1.356,-0.151l-4.82,0m-11.902,-0.301l11.902,0.301m-12.504,-16.722l2.109,0m159.239,84.365l-0,-0.603m4.519,0l0,0.603m5.725,-140.407l0.603,-0.302l0.301,-0.904l-0,-9.491l-0.301,-0.753l-0.904,-0.301m-47.908,31.034l0.302,-0m-0,0.151l-0.302,-0.151m0.302,14.161l-0.302,0l0,-0.301l0.302,-0m75.024,109.373l0.754,-0.602l0.904,-3.013" style="fill:none;fill-rule:nonzero;stroke:#000;stroke-width:0.94px;"/><path d="M1133.59,656.14l1.054,-4.972l0.753,-5.574l1.055,-18.379l0.301,-16.874m-0.15,-70.354l-1.206,-22.447l-0.753,-5.574l-1.054,-4.972l-0.754,-2.561l-0.301,-0.603l-0.452,-0.301m-203.229,124.891l-5.123,-2.712l-1.054,-0.452m0.904,-0.603l0.15,1.055m0,-2.26l5.273,3.616m-6.478,-4.219l1.205,0.603m17.175,-14.764l0.452,0.151m-12.806,-1.356l0.302,-0.15m0.452,-0.151l0.301,-0m-0.603,0.151l0.302,-0.151m5.875,-0.151l5.725,1.657m-11.148,-1.657l0.301,0l0.301,-0.151m4.821,0.151l-1.055,-0.301m1.055,-1.657l0,1.958m-5.725,0.151l0,-2.109m-29.528,-49.113l0.302,-0m-5.122,-0.151l1.205,0.302m-1.205,1.657l-0,-1.959m5.875,0l0,1.959m0.452,-2.26l-0.301,0.151m0.903,-0.301l-0.451,0.15m0.904,-0.301l-0.302,0.151m-7.08,0.451l-6.177,-1.958m18.982,-13.86l-1.506,-0.603m0.15,-1.356l-0.452,-0.301m0.452,-0.602l1.205,0.602m-1.205,-0.602l0,0.903m-0.15,1.356l-4.972,-3.465m-0.151,-1.506l5.273,2.712m194.944,-15.668l-0,-3.767m-24.105,-12.955l-1.807,15.667m2.711,-17.927l-0.904,2.26m24.105,0.15l-0,-2.712l-0.302,-1.054m-21.543,-0.301l-1.356,1.657m1.356,-1.959l0,0.302m0.452,-0.603l-0.452,0.301m21.543,0.603l-0.904,-1.356m-18.68,-0.452l-1.507,0.904m20.187,-0.452l-1.355,-0.753" style="fill:none;fill-rule:nonzero;stroke:#000;stroke-width:0.94px;"/><path d="M1084.03,498.708l-2.41,0.603m16.119,-0.603l-13.709,0m14.915,0.302l-1.206,-0.302m-70.203,92.953l0.15,4.067m-224.772,-36.006l0.15,1.055m281.117,103.046l13.709,-0l1.205,-0.301m-17.325,-0.302l2.411,0.603m14.914,-0.301l1.356,-0.904m-20.79,-0.603l2.109,1.205m18.681,-0.602l1.055,-2.411m-23.201,0l1.356,1.808m-2.26,-4.067l0.904,2.259m23.201,0l-0,-2.561m-25.31,-10.847l1.205,11.149m-2.41,-21.092l-0.452,-4.369m26.967,-25.761l-0,31.034m3.917,18.982l-0.904,0.301m1.205,-1.054l-0.301,0.753m0.301,-10.244l-0,9.491m-0.301,-10.395l0.301,0.904m-0.904,-1.205l0.603,0.301m-3.465,-0.301l2.862,-0m-31.336,-75.326l0,2.711m-144.776,32.391l-0.904,-0.452m9.19,-0l-1.808,0.452m2.862,-0.452l-1.054,-0m-9.19,-0l-4.369,-0.151m15.517,-0.301l-0.904,0.452m-14.613,-0.151l-5.423,-0.603l-6.177,-1.054l-3.164,-0.753l-0.753,-1.055m31.486,-0.301l-0.452,3.465m-31.034,-3.164l-1.205,-0.452m32.39,-0.151l0.301,0.302m-2.561,-0.302l2.26,0m-4.972,-0.15l2.863,0.15m-30.281,0.151l-2.712,-0.452m25.912,-0.301l4.218,0.452m-5.272,-0.603l1.054,0.151m-1.356,-0.302l0.302,0.151m-0.754,-0.151l-1.054,0.302m1.506,-0.302l-0.452,0m-24.104,0.603l-4.67,-1.356m31.637,-0.15l-2.411,0.903m-25.912,-36.005l0,0.301m-1.054,-0.452l-2.109,0.753m3.163,-0.602l-1.054,-0.151m-3.465,-0.603l3.465,0.603" style="fill:none;fill-rule:nonzero;stroke:#000;stroke-width:0.94px;"/><path d="M930.965,564.091l-5.424,-1.506m-34.65,-0.301l7.232,0.451m27.418,-0.15l-2.561,-0.452l-0.602,-0.301l-0.754,-1.055l-1.808,-0.452l-8.737,-1.506m-19.736,-0.151l-0.452,3.616m1.055,-4.068l-0.603,0.452m13.559,-0.452l-2.41,-0m8.587,0.603l-6.177,-0.603m-9.792,-0.452l-3.164,0.452m10.546,-0l-1.507,-0.452m235.77,32.691l14.312,0l0.603,-0.753m-0,-1.657l-1.657,-0m1.657,1.657l-0,-1.657m-14.915,-0.151l0,2.561m13.258,-2.41l-13.258,-0.151m0,-0.753l0,-10.998m14.011,0l-0,10.998m-14.011,-10.998l14.011,0m-123.685,2.863l0.452,12.655m-35.404,-3.767l-2.561,0m3.616,-0.301l-1.055,0.301m-2.561,0l-1.356,-0.452l-1.355,-0.753m8.135,-0.151l-1.808,1.055m2.561,-1.808l-0.753,0.753m-8.135,0.151l-1.206,-1.205m10.094,-0l-0,0.301m-10.094,-0.301l-0.753,-1.205m11.902,-0.302l-1.055,1.507m-10.847,-1.205l-0.452,-1.356m12.805,-0.452l-0.451,1.506m-12.354,-1.054l-0.15,-1.507m12.955,-1.205l0,2.26m-12.955,-1.055l0.301,-1.958m0.15,-0.151l0.151,-0.602m11.45,-0.754l0.903,2.26m-12.202,-1.657l0.602,-1.205m9.491,-0.904l1.055,1.356m-1.356,-1.356l0.301,-0m-9.491,0.904l1.356,-1.206l0.302,-0.301m6.628,-0.151l0.904,0.754m-1.958,-1.205l0.903,0.301m-6.477,0.301l1.506,-0.753m1.657,-0.301l2.26,0.301m-3.917,-0l1.657,-0.301" style="fill:none;fill-rule:nonzero;stroke:#000;stroke-width:0.94px;"/><path d="M1131.03,503.379l1.055,0.15m-30.582,25.912l-0,25.913m-296.634,31.938l-1.808,-0m-18.379,-0.151l-0.302,-0.603l0,-10.093l0.302,-0.754m18.379,-0.15l1.808,-0m296.634,-10.847l-0,6.93m-0,19.585l-0,6.176m-207.9,-43.689l0.603,0m-2.561,-0.452l1.958,0.452m0.603,0l0.602,-0.452m-3.766,-0.301l0.603,0.301m-0.904,-0.904l0.301,0.603m3.766,0.301l0.754,-2.712l0.452,-3.916l-0.151,-2.863m-5.122,-2.711l-0,11.298m0.602,-12.202l-0.602,0.904m5.122,2.711l-0.753,-3.615l-0.603,-0.904m-0.904,-0.151l-2.26,1.055m3.164,-0.904l-0.904,-0.151m7.985,14.463l0.904,0.15l2.41,-0.602l0.301,-0.302m-4.218,-0.452l0.603,1.206m-1.206,-3.767l0.603,2.561m-0.904,-6.176l0.301,3.615m0,-6.779l-0.301,3.164m0.904,-5.876l-0.603,2.712m4.972,-2.109l-0.301,-0.603m-3.465,-1.054l-0.603,1.054m1.507,-1.205l-0.904,0.151m3.465,1.054l-2.561,-1.205m-114.496,17.626l1.055,-0.15m146.735,67.04l1.054,0.151m-1.506,-0.905l0.452,0.754m1.054,0.151l2.109,-0.905l0.603,-0.602m-5.122,-4.068l0.904,4.67m-0.904,-7.683l-0,3.013m0.452,-6.026l-0.452,3.013m5.122,-4.971l-0.452,-0.452m-3.465,-0.151l-0.753,2.561m1.657,-3.013l-0.904,0.452m3.465,0.151l-2.561,-0.603m-7.683,14.463l-1.055,0.151m1.507,-0.754l-0.452,0.603m-1.055,0.151l-2.26,-1.055" style="fill:none;fill-rule:nonzero;stroke:#000;stroke-width:0.94px;"/><path d="M925.541,622.695l-0.452,-0.603m5.122,-3.465l-0.903,4.369m0.903,-8.286l0,3.917m-0.301,-6.026l0.301,2.109m-5.122,7.382l0,-11.6l0.452,-0.753m3.616,-0l0.753,2.862m-1.205,-3.314l0.452,0.452m-3.616,-0l2.561,-0.603l0.603,0.151m181.686,-37.211l-0.301,-0m0.753,0.602l-0.452,-0.602m-0.301,-0l-0.452,-0.452m0.452,19.434l-0.452,0.151m0.904,-0.754l-0.452,0.603m-314.863,10.998l-1.054,-0m-0.302,-0.603l-0.602,-0m0.904,0.603l-0.302,-0.603m-0.602,-0l-0.301,-0.301l0.15,-2.411l-0.452,-0.452m2.561,-3.465l0,7.232m-0.451,-7.684l0.451,0.452m-2.561,3.465l0,-4.067l0.452,-0.452m1.808,-1.055l-0.15,1.657m-0.302,-2.109l0.452,0.452m-1.808,-0.452l1.356,0m-1.356,1.507l0,-1.507m2.109,-21.543l-1.054,-0l-0.302,-0.603l-0.903,-0.15l0.15,-2.561l-0.452,-0.452m2.561,-3.465l0,7.231m-0.451,-7.683l0.451,0.452m-2.561,3.465l0,-4.068l0.452,-0.151m1.808,-1.356l-0.15,1.658m-1.658,-0.302l0,-1.657m1.356,-0.15l0.452,0.451m-1.808,-0.301l1.356,-0.15m342.131,37.813l-0.151,-43.086m0.301,-0.151l-0.301,0.151m-0.151,-2.863l-0.15,-0.452m-83.461,80.147l-0,-25.761m-0,-51.523l-0,-24.707m0.451,-0l0,24.707m-164.662,-17.476l6.177,-3.314m27.117,69.149l-4.821,-0.151" style="fill:none;fill-rule:nonzero;stroke:#000;stroke-width:0.94px;"/><path d="M922.679,603.411l-0.904,0.151m0.452,-0.452l0.452,0.301m-5.876,-0.15l-3.314,-0.452l-0.753,-0.151m6.629,-0.151l2.862,0.603m-9.491,-0.452l-0.603,-0.301l7.232,0.15m144.475,-12.052l-0,-0.602m30.733,-84.365l-0,-0.603m4.519,0l0,0.603m-4.519,12.202l-0,-0.451m4.519,-0l0,0.451m-176.413,92.049l0.602,-0.904l5.123,-1.356m-127.904,-1.356l-1.808,0.151m1.808,-0.151l-0.452,0m1.507,-0.301l-1.055,0.301m2.109,-1.356l-1.054,1.055m1.356,-1.959l-0.302,0.904m0.452,-2.561l0,0.753m85.269,-49.715l0.603,0.603m139.051,49.414l-15.667,-0.151m-70.204,6.629l-0.603,-0.603m-152.459,-2.862l-1.657,-0.151m0.451,0l-0.451,0l-1.055,-0.301l-1.055,-1.055l-0.301,-0.904m-0.151,-0.753l0,-0.301m1.206,-45.497l-1.055,1.507m2.26,-2.11l-1.205,0.603m327.969,-53.783l10.696,-0.15m25.31,84.666l-0.302,-0.904m0.302,0l0.15,0.904m-93.253,23.954l-0.302,-0m0,-0.302l0.302,0m-0.302,0.302l0,-0.302m-257.765,-54.988l1.055,-0.15m257.012,69.3l-0.302,-0.151l0.452,-0.151m-160.033,25.996l-35.433,0l-0,-35.433m35.433,0l-0,35.433m-35.433,-35.433l35.433,0m139.997,-51.426l64.479,-0m-64.479,-0l-0.151,-0.603m-1.808,-1.054l0.301,-0l1.507,1.054m-1.808,-1.054l-0.753,-1.507m-1.958,-1.054l1.958,1.054" style="fill:none;fill-rule:nonzero;stroke:#000;stroke-width:0.94px;"/><path d="M1032.35,560.476l-0.151,-0.603l0.301,-1.356l0.753,-1.506l1.507,-0.302m1.808,-1.506l58.603,-0m-60.411,1.506l1.808,-1.506m58.603,-0l6.328,0.151m-172.647,73.066l6.779,-0m-1.958,-0l7.833,-4.068m0.452,0.753l-0.452,-0.753m172.497,35.403l17.927,0m-1.807,0l0.602,-1.054l0.301,-1.959m-18.68,-67.642l0.602,-0m-0.602,69.149l-0,-153.213m-0,69.149l0.602,-0m0,14.915l0,-14.915m18.078,82.557l0,-150.2l-0.301,-1.958m-17.777,-1.055l11.751,0m6.026,1.055l-0.602,-1.205m-5.273,-0l6.176,-0m-328.119,68.697l0.15,-12.956m-0.15,0.602l-0.603,-1.506m-1.205,-1.055l1.205,1.055m-2.712,-1.507l1.507,0.452m-13.86,-0.452l12.655,0m17.777,48.661l3.464,0.301l2.562,-0.753m-8.889,-0.753l2.863,1.205m-3.918,-1.959l1.055,0.754m8.889,0.753l5.273,-2.561l7.231,-4.67l4.971,-2.712l7.081,-3.013l4.218,-1.356l1.205,-0.151l1.205,-0.452l0.754,0l1.205,-0.451l4.218,-0.754l7.081,-0.753l3.465,-0.301l8.135,-0.151l1.657,-0.452m-76.531,0.151l0.151,-0.754m76.38,0.603l1.507,-0.904m-77.887,0.301l0.301,-0.452l0.452,-1.054m77.134,1.205l1.356,-1.657" style="fill:none;fill-rule:nonzero;stroke:#000;stroke-width:0.94px;"/><path d="M805.773,585.032l0.904,-1.205m77.586,0.753l0.904,-2.109m-78.49,1.356l1.958,-1.959l0.151,-0.753m76.381,1.356l-0,-2.561m-76.381,1.205l-2.109,-2.26l-0.904,-1.205m79.394,2.26l-1.356,-2.712m-78.038,0.452l-0.452,-1.054l-0.151,-0.302m77.737,0l0.904,0.904m-78.641,-0.904l-0.301,-0.753m75.477,-0.452l2.561,1.205m-15.367,-1.808l12.806,0.603m-13.258,-0.753l0.302,-0m-6.177,-0.603l5.875,0.603m-10.244,-1.507l4.369,0.904m-4.972,-1.055l0.603,0.151m-3.164,-0.753l2.561,0.602m-3.766,-0.753l1.205,0.151m-5.423,-1.507l4.218,1.356m-11.299,-4.369l7.081,3.013m-12.052,-5.725l4.971,2.712m-12.504,-7.532l7.533,4.82m-22.448,-5.724l1.055,-0.753m8.889,-0.754l4.971,2.411m-13.86,-1.657l2.863,-1.206m3.464,-0.301l2.562,0.753m-6.026,-0.452l3.464,-0.301m215.885,49.866l64.479,-0m-66.438,-1.356l0.301,-0l1.658,1.356m-1.959,-1.356l-1.958,-3.164l0.15,-0.452l1.206,-0.602l0.753,-1.658l-0,-0.452l1.356,-0.753m0.602,-1.054l56.495,-0m-57.097,1.054l0.602,-1.054m56.495,-0l7.834,0.15m-170.538,-33.143l1.356,-0.151m-1.356,0l7.382,0m198.408,46.1l0.151,-54.687m-76.531,91.295l39.169,0l2.411,-1.506m-2.411,-8.588l1.959,1.055m-26.515,-0.904l24.556,-0.151m-71.56,-33.595l-0.301,-7.382m10.094,1.507l-0.301,-6.328" style="fill:none;fill-rule:nonzero;stroke:#000;stroke-width:0.94px;"/><path d="M1031.45,590.455l80.901,0m-74.874,0.452l-0.151,-0.452m-5.876,-17.475l32.391,-0m-32.391,17.475l0,-17.475m5.123,-0l-0,-0.302l75.778,0m-75.025,0l0.151,-0.452m-10.395,6.78l0.452,-7.533l0.15,-4.369m9.793,5.122l0.452,-7.532m-10.245,2.41l0.452,-7.532m21.694,-29.076l4.068,-0l39.018,-0.151l6.78,0l1.808,-0.904m-1.959,-9.039l1.959,1.055m-25.912,-1.055l23.953,0m-215.733,74.724l-1.658,-4.671m1.808,4.671l-1.657,-4.671m231.1,63.123l0,-143.721m-132.423,65.383l6.026,-0m8.738,-0l24.104,-0l6.026,-0.302m-38.868,0.302l0.904,-0.603m6.177,-0l1.657,0.603m-7.834,-0.603l1.959,-0.603l2.259,0l1.657,0.452m32.24,0.302l0.753,-1.206m-45.798,1.658l1.205,-2.712m44.593,1.054l0.302,-1.958l0.301,-0.151m-45.196,0.904l0.904,-0.904l0,-0.301m0.151,-0.151l2.862,-2.41m3.465,-1.507l38.115,0m-41.58,1.507l3.465,-1.507m-89.186,-11.299l0.603,0m-0.301,0l0.301,-0.15m-26.967,39.471l-0.753,-3.917l7.985,-0.754m-27.57,0l29.98,0m252.794,20.489l-0.151,-0.753m0,-0.151l0.302,-1.356l-0.302,-55.892m-282.623,19.284l24.557,-0m-4.972,-0.452l4.972,0.452m-4.972,-0.452l0.904,-4.218m219.5,29.829l-0.151,-3.917l-0.301,-0.452" style="fill:none;fill-rule:nonzero;stroke:#000;stroke-width:0.94px;"/><path d="M1073.63,597.235l0,-6.78m18.681,1.959l0.904,0.452m-19.585,-0.452l18.681,-0m-203.983,-51.975l0.603,0l-0,-1.959m-0.452,-0.452l0.452,0.452m-0.603,14.764l0.151,-15.517m-2.712,60.261l95.965,0m1.356,-6.327l-0.452,-0.904m-0.452,-0.302l0.452,0.302m-18.379,-0.452l17.927,0.15m-99.128,0l0.903,-0.15l0.603,-0.151m67.341,-0l12.354,0.151m-79.695,-0.151l0.301,-0.151l0.302,0m0.15,-0.15l0.301,-0m40.827,-0.753l7.382,0.602m-46.853,-0.602l0.302,-0.151m36.759,-0.452l2.41,0.603m-39.019,-0.302l0.904,-0.753m-0.452,0.452l1.356,-1.356m32.541,0.301l2.26,1.055m-3.616,-1.959l0.302,0l1.054,0.904m-32.541,-0.301l0.452,-1.055m30.733,0.452l-0.904,-1.054l-0.602,-1.055m-29.076,1.507l0.602,-2.26m28.474,0.753l-0.452,-1.657l-0,-2.561m-28.022,3.465l0,-4.67m28.022,1.205l0.753,-2.26m-28.775,1.055l-0.753,-2.561m29.528,1.506l1.356,-1.808m-30.884,0.302l-1.054,-1.507m31.938,1.205l1.808,-1.205m-34.198,-0.301l0.452,0.301m33.746,0l3.163,-1.054m-38.868,-0.302l1.507,1.055m37.361,-0.753l2.712,-0.452l4.972,-0.151m3.465,-0.301l5.724,-0m-9.189,0.301l3.465,-0.301m-51.373,-0l0.301,-0m-0.753,-0.151l0.302,0m55.289,0.151l4.519,-0.302l12.354,0m-73.217,-0.15l0.603,0.15m66.136,0l9.943,-0.15" style="fill:none;fill-rule:nonzero;stroke:#000;stroke-width:0.94px;"/><path d="M883.208,572.377l0.904,0.151m-1.808,-0.151l1.356,0m77.134,0.151l21.392,-0.151m-99.882,0l0.151,-0.301l1.657,-4.67m1.657,-2.562l95.965,0m-79.092,-9.641l5.122,-2.109m144.928,79.393l21.844,0l18.681,-0.15l0.603,-0.151m-40.677,-0.151l34.5,0m-34.5,0.452l0,-25.761m40.677,25.46l0.903,-0.904l1.055,-2.109l0.753,-2.41m-39.621,-0.904l0.15,-0.302m39.471,1.206l0.754,-4.821l-0,-6.026l-0.302,-2.562m-40.073,-1.355l-0,-0.302m40.073,1.657l-0.603,-3.013l-1.506,-3.615m-0,-51.523l1.356,-3.315m-39.32,-1.205l-0,-0.301m39.32,1.506l0.602,-2.862l0.302,-2.712l-0,-5.272l-0.452,-3.616l-0.904,-3.465l-1.507,-2.862m-0.753,-0.603l0.753,0.603m-1.356,-0.754l0.603,0.151m-81.201,72.614l15.667,0m-134.682,-4.369l6.026,0m-0.753,0l0.753,-0.15m23.351,-0.151l8.286,0.151m-31.637,-0l23.351,-0.151m66.889,-2.712l38.115,0m-41.128,-1.205l3.013,1.205m-4.971,-2.561l1.958,1.356m-3.465,-2.862l1.507,1.506m79.393,-2.712l-0.15,-17.475m-82.859,14.764l6.328,-0m-34.952,-0.151l28.624,0.151m-46.401,-0.754l17.777,0.603m33.445,-0.904l1.507,1.055m-59.056,-1.206l6.327,0.452m-9.792,-1.355l3.465,0.903m57.549,0.151l-1.205,-1.657m-61.466,-0.302l1.657,0.905" style="fill:none;fill-rule:nonzero;stroke:#000;stroke-width:0.94px;"/><path d="M923.131,584.73l-0.753,-0.903m62.219,1.205l-0.603,-1.507m-61.616,0.302l-0.452,-1.055m62.068,0.753l-0.301,-1.807m-61.767,1.054l-0,-2.41m61.767,1.356l0.301,-2.26m-62.068,0.904l0.452,-1.206l1.205,-1.205m60.411,1.507l0.603,-1.507m-61.014,0l2.41,-1.054m58.604,1.054l1.054,-1.355m-59.658,0.301l3.315,-0.603m56.343,0.302l0,-0.302m-56.343,0l22.748,-0.904l28.925,-0.15m4.67,1.054l1.356,-1.054m76.682,15.215l0,-17.475m-185.452,-0.904l3.916,0.301l0.151,-0.301l1.657,-4.67m26.364,-3.013l20.64,-0.151m-31.486,-0.151l10.846,0.302m-107.414,39.47l0.15,-16.571m-0.15,3.465l-0.452,-1.055m-17.627,1.657l0.754,-1.958m16.873,0.301l-1.055,-1.055m-15.818,0.754l1.054,-0.904l1.205,-0.452l11.902,-0l1.657,0.602m-16.421,15.216l-0.151,-16.722l18.229,0.151m179.125,3.163l-1.205,-2.711m-20.187,-15.216l21.392,-0m106.963,85.118l12.354,0m-12.354,-0.603l15.367,0m-109.223,-69.299l27.268,-0m-27.268,-0l1.055,-0.603m21.091,0l5.122,0.603m-6.478,-1.055l1.356,0.452m-21.091,0l1.355,-1.356m16.874,0l1.506,0.904m-2.862,-1.356l1.356,0.452m-2.26,-0.904l0.904,0.452m-15.518,0.452l0.754,-1.506m13.86,0.602l-0.603,-1.054m-13.107,0.301l0.302,-1.356m0.15,-0.151l0,-2.41m0.151,1.356l-0,-0.301m12.504,2.561l0,-4.369" style="fill:none;fill-rule:nonzero;stroke:#000;stroke-width:0.94px;"/><path d="M1011.71,579.458l0.301,-0.753m-13.106,1.355l-0.302,-1.355m13.408,-0l0.754,-0.754m-14.312,0.603l-0.301,-0.753m14.613,0.15l1.356,-0.452m-16.12,0.151l-0.151,-0.301m16.271,0.15l0.452,-0.602m-16.874,0.301l-0.452,-0.602m-0.301,-0.302l0.301,0.302m17.326,0.301l1.657,-0.904m-20.037,-0.302l0.753,0.603m19.284,-0.301l3.615,-0.753m-24.104,-0l0.452,0.451m92.952,-58.452l15.668,-0m-15.668,0.451l0,-12.805m0,0.603l15.367,-0m27.418,154.267l0.603,-1.506l0.301,-2.712m3.465,-45.497l-0.301,-1.506l0.151,-10.094l-0.603,-2.411l0,-43.689m1.205,1.808l-0.301,-1.958m-0.904,0.15l0.904,-0.15m0.301,3.164l-0.15,-15.367m-3.767,115.55l-0.15,-149.597m-0.151,-0.151l-0.452,-2.26m-209.406,121.727l-0,-15.517m18.831,14.613l0,-1.958l0.603,-0m-0.151,2.711l0.151,-15.366m-0.603,1.657l0.603,-0m-0.603,-0l-0.15,-2.561m-18.681,0.904l5.725,-2.26m0.301,-2.41l6.478,-0m-40.073,-47.305l5.875,-0m-12.655,-6.327l0.603,-0m-0,2.41l-0,-2.41m18.831,1.657l0,-15.367m-13.106,-3.314l6.628,-0m-12.353,4.067l7.834,-4.067m192.382,-16.723l12.354,0m-12.354,-12.805l12.354,0m-74.422,86.625l0.301,0.151m-0.301,-0.151l-0,-0.904l-0.452,-1.356m-36.609,-0.452l2.712,-0.151m0.151,-0.15l0.753,-0.151m-5.273,0l1.657,0.452m36.609,0.452l-0.603,-1.054" style="fill:none;fill-rule:nonzero;stroke:#000;stroke-width:0.94px;"/><path d="M993.786,588.196l0.302,-0m31.486,-0.302l0.452,0.302m-3.465,-0.452l3.013,0.15m-31.185,0.151l0.904,-0.301m-7.984,-0l1.054,0.602m-200.819,-13.558l11.6,0.15m-12.805,-0.753l1.205,0.603m11.6,0.15l2.411,-0.753l0.753,-0.753m-15.969,0.753l-0.904,-0.904m16.873,0.151l0.603,-1.356m-17.476,1.205l-0.603,-1.657m0,4.067l0.151,-16.872m-0.151,1.205l0.603,-1.657l1.054,-1.055l1.808,-0.603m0.754,49.414l10.847,0m-12.655,-0.15l1.808,0.15m-2.863,-0.753l1.055,0.603m12.655,0.15l1.958,-0.904m-15.668,0.151l-0.602,-0.603m16.27,0.452l0.904,-1.356m-17.174,0.904l-0.754,-1.958m17.928,1.054l0.301,-1.657m286.088,55.44l0,-10.847m-18.982,-49.564l0,-6.78m3.314,6.78l0,-6.78m-217.842,-0.452l8.738,-0.602l2.259,-0.603l1.507,-0.753m-2.411,-14.312l1.356,0.603m-3.013,-0.904l1.657,0.301m-2.109,-0.452l0.452,0.151m-1.958,-0.301l1.356,0.15m-1.808,-0.15l0.452,-0m-5.876,-0.453l5.424,0.453m211.967,-0.453l0,-7.984m-3.465,7.984l0,-7.984m-75.778,23.351l0.904,-0.753l0.301,-0l1.206,-1.206l0.753,-1.205l0.753,-2.26l0,-2.259l-0.603,-1.959l-0.903,-1.657m-1.206,-1.205l1.206,1.205m-2.712,-2.109l1.506,0.904m141.161,11.6l14.011,0m-99.581,-14.463l-0,-7.984" style="fill:none;fill-rule:nonzero;stroke:#000;stroke-width:0.94px;"/><path d="M1070.02,572.678l0,-7.984m-42.634,26.967l-0.452,-2.26l-0.904,-1.657m-0.904,-0.904l0.904,0.904m-2.26,-1.356l1.356,0.452m-4.218,-0.603l0.301,0l2.561,0.151m-5.122,-0.302l0.904,0l1.356,0.151m-2.862,-0.301l0.602,0.15m-4.067,-0.301l3.465,0.151m-5.273,-0.904l0.452,0.301m-0.452,-0.301l-0.603,-1.055l0,-4.519l1.055,-1.657m0.904,-0.302l2.862,-0.15m0.151,-0.151l1.356,-0m0.753,-0.151l0.753,0m-1.506,0.151l0.753,-0.151m2.109,-0.15l0.301,-0m-1.657,0.15l1.356,-0.15m0.301,-0l2.109,-0.151l1.206,-0.301l1.205,-1.205l0.904,-1.959l0.301,-1.808m103.648,88.282l0.603,-1.054l0.301,-2.26l0,-149.597l-0.452,-2.712l-0.452,-0.753m-339.72,81.05l14.011,1.657m-15.517,-2.109l1.506,0.452m-1.506,-0.452l-1.205,-1.506l-0.151,-1.507l0.753,-1.657l1.808,-0.904l14.312,-1.807m245.864,20.639l-0,-6.78m18.831,6.78l0,-6.78m25.159,-35.252l1.205,-3.013l0.603,-3.013l0.302,-2.561l-0,-6.026l-0.905,-5.424l-1.205,-3.164l-1.205,-1.657m-20.338,40.074l19.133,-0.151l0.904,-1.205l-0,-4.369" style="fill:none;fill-rule:nonzero;stroke:#000;stroke-width:0.94px;"/><path d="M791.009,584.73l14.011,1.808m-15.819,-2.561l1.808,0.753m-1.808,-0.753l-0.904,-1.205l-0.301,-1.356l0.301,-1.205l0.754,-0.904l-0,-0.301l0.452,-0.452l1.205,-0.452l14.462,-1.808m-20.338,-0.603l18.229,-0.15m53.783,-2.712l4.821,0.302m211.967,-1.507l36.006,-0m-36.006,-0.603l4.821,0m0.301,0.603l-0.301,-0.603m-53.934,15.819l1.055,1.054m-4.369,-1.657l3.314,0.603m49.113,4.971l4.821,0m-4.821,-0.602l36.006,-0m-31.185,0.602l0.452,-0.602m-173.702,-38.417l0.151,-11.901m34.198,81.352l-0,-12.052m196.902,-54.536l-0.301,-3.315m-0.603,0l0.603,0m-333.092,23.201l0,-15.668m218.596,17.024l2.411,-0.452l1.356,-0.754l0.451,-0.753m-512.488,212.761l75.902,-0l3.825,-0.589m-85.464,-0.588l5.737,1.177m79.727,-0.589l2.206,-0.735m-90.17,-1.177l2.5,1.324m87.67,-0.147l2.942,-1.618l0.883,-1.03m-95.466,-0l1.471,1.471m94.142,-334.941l-1.03,-1.176m-93.112,-0.442l-1.912,1.913m95.024,-1.471l-2.942,-1.619m-87.67,-0.147l-2.5,1.324m90.17,-1.177l-2.206,-0.735m-79.727,-0.589l-5.737,1.177m81.639,-1.177l-75.902,0m79.727,0.589l-3.825,-0.589m9.856,337.589l5.001,-0.147l1.471,-0.883l0.736,-2.206l-0,-326.703m-0.147,-0.295l-0,-0.882m-110.323,-0.736l0.735,-1.029" style="fill:none;fill-rule:nonzero;stroke:#000;stroke-width:0.94px;"/><path d="M496.618,450.846l1.03,-0.442l5.884,-0.147m101.644,0.589l0.735,1.029m-1.765,-1.471l1.03,0.442m-5.884,-0.589l4.854,0.147m-106.645,333.176l6.178,0.147m-7.502,-1.03l1.324,0.883m-2.06,-3.236l0.736,2.353m-0.736,-328.909l0,326.556m0.148,-327.733l-0,0.882m8.09,330.234l-1.177,-1.912m96.643,1.912l1.177,-1.912l0.441,-1.618m-98.261,1.618l-0.588,-2.942l0.294,-326.115m98.555,327.439l0,-326.704m-98.555,-0.735l1.03,-2.206m97.525,2.941l-1.177,-2.941m4.413,-0l-4.413,-0m6.325,1.323l-1.912,-1.323m-106.351,-0l-1.765,1.323m7.355,-1.323l-5.59,-0" style="fill:none;fill-rule:nonzero;stroke:#000;stroke-width:0.94px;"/><path d="M1287.49,329.398l-0,-88.583l-73.819,0l0,88.583l73.819,0Zm-0,572.835l-73.819,-0l0,88.582l73.819,0l-0,-88.582Z" style="fill:#fff;fill-rule:nonzero;"/><rect x="935.669" y="902.233" width="278.006" height="88.583" style="fill:#fff;"/><rect x="670.368" y="240.815" width="543.307" height="88.583" style="fill:#fff;"/><path d="M670.368,240.815l-9.82,0l-19.612,1.028l-19.532,2.053l-19.398,3.072l-19.21,4.084l-18.97,5.083l-18.679,6.069l-18.335,7.038l-17.941,7.988l-17.499,8.916l-17.008,9.82l-16.471,10.696l-15.889,11.544l-15.263,12.359l-14.595,13.142l-13.887,13.887l-13.141,14.595l-12.36,15.263l-11.543,15.888l-10.697,16.471l-9.82,17.008l-8.916,17.499l-7.988,17.942l-7.038,18.335l-6.069,18.678l-5.083,18.97l-4.083,19.211l-3.072,19.397l-2.053,19.532l-1.028,19.613l-0,19.639l1.028,19.613l2.053,19.531l3.072,19.398l4.083,19.21l5.083,18.971l6.069,18.678l7.038,18.335l7.988,17.941l8.916,17.499l9.82,17.008l10.697,16.472l11.543,15.888l12.36,15.263l13.141,14.595l13.887,13.887l14.595,13.141l15.263,12.36l15.889,11.544l16.471,10.696l17.008,9.82l17.499,8.916l17.941,7.988l18.335,7.038l18.679,6.069l18.97,5.083l19.21,4.083l19.398,3.073l19.532,2.053l19.612,1.027l9.82,0l-0,-88.582l-7.5,-0l-14.98,-0.785l-14.918,-1.568l-14.815,-2.347l-14.673,-3.119l-14.489,-3.882l-14.266,-4.635l-14.004,-5.376l-13.703,-6.101l-13.366,-6.81l-12.99,-7.5l-12.58,-8.17l-12.136,-8.817l-11.657,-9.44l-11.147,-10.037l-10.607,-10.606l-10.037,-11.148l-9.44,-11.657l-8.817,-12.135l-8.17,-12.581l-7.5,-12.99l-6.81,-13.366l-6.101,-13.703l-5.376,-14.004l-4.635,-14.266l-3.882,-14.489l-3.119,-14.672l-2.346,-14.816l-1.569,-14.918l-0.785,-14.98l0,-15l0.785,-14.979l1.569,-14.918l2.346,-14.816l3.119,-14.672l3.882,-14.489l4.635,-14.266l5.376,-14.004l6.101,-13.704l6.81,-13.365l7.5,-12.991l8.17,-12.58l8.817,-12.135l9.44,-11.658l10.037,-11.147l10.607,-10.607l11.147,-10.037l11.657,-9.44l12.136,-8.816l12.58,-8.17l12.99,-7.5l13.366,-6.81l13.703,-6.101l14.004,-5.376l14.266,-4.635l14.489,-3.883l14.673,-3.118l14.815,-2.347l14.918,-1.568l14.98,-0.785l7.5,0l-0,-88.583Z" style="fill:#fff;fill-rule:nonzero;"/><path d="M935.669,990.815l-0,-88.582m351.825,-572.835l-73.819,0m0,572.835l73.819,-0m-0,88.582l-0,-88.582m-0,-572.835l-0,-88.583l-73.819,0m0,750l73.819,0m-73.819,-88.582l-278.006,-0m-0,88.582l278.006,0m0,-750l-543.307,0m-0,88.583l543.307,0m-543.307,-88.583l-9.82,0l-19.612,1.028l-19.532,2.053l-19.398,3.072l-19.21,4.084l-18.97,5.083l-18.679,6.069l-18.335,7.038l-17.941,7.988l-17.499,8.916l-17.008,9.82l-16.471,10.696l-15.889,11.544l-15.263,12.359l-14.595,13.142l-13.887,13.887l-13.141,14.595l-12.36,15.263l-11.543,15.888l-10.697,16.471l-9.82,17.008l-8.916,17.499l-7.988,17.942l-7.038,18.335l-6.069,18.678l-5.083,18.97l-4.083,19.211l-3.072,19.397l-2.053,19.532l-1.028,19.613l-0,19.639l1.028,19.613l2.053,19.531l3.072,19.398" style="fill:none;fill-rule:nonzero;stroke:#000;stroke-width:0.94px;"/><path d="M301.521,684.177l4.083,19.21l5.083,18.971l6.069,18.678l7.038,18.335l7.988,17.941l8.916,17.499l9.82,17.008l10.697,16.472l11.543,15.888l12.36,15.263l13.141,14.595l13.887,13.887l14.595,13.141l15.263,12.36l15.889,11.544l16.471,10.696l17.008,9.82l17.499,8.916l17.941,7.988l18.335,7.038l18.679,6.069l18.97,5.083l19.21,4.083l19.398,3.073l19.532,2.053l19.612,1.027l9.82,0l-0,-88.582l-7.5,-0l-14.98,-0.785l-14.918,-1.568l-14.815,-2.347l-14.673,-3.119l-14.489,-3.882l-14.266,-4.635l-14.004,-5.376l-13.703,-6.101l-13.366,-6.81l-12.99,-7.5l-12.58,-8.17l-12.136,-8.817l-11.657,-9.44l-11.147,-10.037l-10.607,-10.606l-10.037,-11.148l-9.44,-11.657l-8.817,-12.135l-8.17,-12.581l-7.5,-12.99l-6.81,-13.366" style="fill:none;fill-rule:nonzero;stroke:#000;stroke-width:0.94px;"/><path d="M411.763,739.163l-6.101,-13.703l-5.376,-14.004l-4.635,-14.266l-3.882,-14.489l-3.119,-14.672l-2.346,-14.816l-1.569,-14.918l-0.785,-14.98l0,-15l0.785,-14.979l1.569,-14.918l2.346,-14.816l3.119,-14.672l3.882,-14.489l4.635,-14.266l5.376,-14.004l6.101,-13.704l6.81,-13.365l7.5,-12.991l8.17,-12.58l8.817,-12.135l9.44,-11.658l10.037,-11.147l10.607,-10.607l11.147,-10.037l11.657,-9.44l12.136,-8.816l12.58,-8.17l12.99,-7.5l13.366,-6.81l13.703,-6.101l14.004,-5.376l14.266,-4.635l14.489,-3.883l14.673,-3.118l14.815,-2.347l14.918,-1.568l14.98,-0.785l7.5,0m617.126,572.835l-0,-572.835m-73.819,0l0,572.835m-543.307,88.582l265.301,0m-890.888,6.378l-12.755,-12.755m12.755,-737.245l-12.755,-12.755m6.377,756.377l-10.629,0m10.629,0l10.63,0m-10.63,-750l-10.629,0m10.629,0l10.63,0m-10.63,750l0,10.63m0,-760.63l0,-10.63" style="fill:none;fill-rule:nonzero;stroke:#000;stroke-width:0.94px;"/><path d="M38.403,990.815l0,-750m250.587,-196.034l12.756,-12.756m1315.99,12.756l12.756,-12.756m-1335.12,6.378l-0,-10.629m-0,10.629l-0,10.63m1328.74,-10.63l0,-10.629m0,10.629l0,10.63m-1328.74,-10.63l-10.63,0m1339.37,0l10.63,0" style="fill:none;fill-rule:nonzero;stroke:#000;stroke-width:0.94px;"/><path d="M295.368,38.403l1328.74,0m-1246.54,80.197l12.757,-12.756m811.356,12.756l12.756,-12.756m-830.491,6.378l0,-10.63m0,10.63l0,10.63m824.113,-10.63l-0,-10.63m-0,10.63l-0,10.63m-824.113,-10.63l-10.629,0m834.742,0l10.63,0" style="fill:none;fill-rule:nonzero;stroke:#000;stroke-width:0.94px;"/><path d="M383.95,112.222l824.113,0m-1092.42,801.328l-12.755,-12.756m12.755,-565.018l-12.755,-12.756m6.378,584.152l-10.63,-0m10.63,-0l10.63,-0m-10.63,-577.774l-10.63,0m10.63,0l10.63,0m-10.63,577.774l-0,10.629m-0,-588.403l-0,-10.63" style="fill:none;fill-rule:nonzero;stroke:#000;stroke-width:0.94px;"/><g transform="matrix(0,-1,1,0,-2195.07,-2869.59)"><text x="-3525.03px" y="2225.84px" style="font-family:'LucidaGrande', 'Lucida Grande', sans-serif;font-weight:500;font-size:41.538px;">2<tspan x="-3501.45px -3491px -3467.42px " y="2225.84px 2225.84px 2225.84px ">.55</tspan></text></g><text x="920.467px" y="30.768px" style="font-family:'LucidaGrande', 'Lucida Grande', sans-serif;font-weight:500;font-size:41.538px;">4<tspan x="944.046px 954.502px 978.081px " y="30.768px 30.768px 30.768px ">.50</tspan></text><text x="756.734px" y="104.587px" style="font-family:'LucidaGrande', 'Lucida Grande', sans-serif;font-weight:500;font-size:41.538px;">2<tspan x="780.313px 790.769px 814.347px " y="104.587px 104.587px 104.587px ">.80</tspan></text><g transform="matrix(0,-1,1,0,-2195.07,-2869.59)"><text x="-3527.5px" y="2296.7px" style="font-family:'LucidaGrande', 'Lucida Grande', sans-serif;font-weight:500;font-size:41.538px;">1<tspan x="-3503.92px -3493.47px -3469.89px " y="2296.7px 2296.7px 2296.7px ">.95</tspan></text></g><text x="958.442px" y="808.764px" style="font-family:'LucidaGrande', 'Lucida Grande', sans-serif;font-weight:500;font-size:58.153px;">5<tspan x="991.469px 1006.12px 1039.15px 1072.18px 1086.83px 1137.38px " y="808.764px 808.764px 808.764px 808.764px 808.764px 808.764px ">.00 m²</tspan></text><path d="M109.27,907.172l-0,-577.774" style="fill:none;fill-rule:nonzero;stroke:#000;stroke-width:0.94px;"/><path d="M1158.38,823.921l5.982,-0.523l5.8,-1.554l5.443,-2.538l4.919,-3.444l4.246,-4.247l3.444,-4.918l2.537,-5.443l1.555,-5.8l0.523,-5.982l-0.523,-5.982l-1.555,-5.8l-2.537,-5.442l-3.444,-4.919l-4.246,-4.246l-4.919,-3.444l-5.443,-2.538l-5.8,-1.554l-5.982,-0.524l-199.935,0l-5.982,0.524l-5.801,1.554l-5.442,2.538l-4.919,3.444l-4.246,4.246l-3.444,4.919l-2.538,5.442l-1.554,5.8l-0.523,5.982l0.523,5.982l1.554,5.8l2.538,5.443l3.444,4.918l4.246,4.247l4.919,3.444l5.442,2.538l5.801,1.554l5.982,0.523l199.935,0" style="fill:none;fill-rule:nonzero;stroke:#000;stroke-width:0.94px;"/></svg>