<?xml version="1.0" encoding="UTF-8" standalone="no"?><!DOCTYPE svg PUBLIC "-//W3C//DTD SVG 1.1//EN" "http://www.w3.org/Graphics/SVG/1.1/DTD/svg11.dtd"><svg width="100%" height="100%" viewBox="0 0 1612 1226" version="1.1" xmlns="http://www.w3.org/2000/svg" xmlns:xlink="http://www.w3.org/1999/xlink" xml:space="preserve" xmlns:serif="http://www.serif.com/" style="fill-rule:evenodd;clip-rule:evenodd;stroke-linecap:round;stroke-linejoin:round;stroke-miterlimit:10;"><path d="M688.084,967.214l-17.716,-0l-0,88.582l2.685,0l2.58,-0.112l2.561,-0.337l2.522,-0.559l2.463,-0.777l2.387,-0.989l2.291,-1.192l2.178,-1.388l2.049,-1.573l1.905,-1.745l1.745,-1.904l1.572,-2.049l1.388,-2.179l1.193,-2.291l0.988,-2.386l0.777,-2.464l0.559,-2.521l0.337,-2.561l0.113,-2.581l-14.577,0l0,-58.974Z" style="fill:#fff;fill-rule:nonzero;"/><path d="M1142.81,1026.19l-14.577,0l0.113,2.581l0.337,2.561l0.559,2.521l0.777,2.464l0.988,2.386l1.193,2.291l1.388,2.179l1.572,2.049l1.745,1.904l1.905,1.745l2.049,1.573l2.178,1.388l2.291,1.192l2.387,0.989l2.463,0.777l2.522,0.559l2.561,0.337l2.58,0.112l2.685,0l0,-88.582l-17.716,-0l-0,58.974Z" style="fill:#fff;fill-rule:nonzero;"/><path d="M668.793,614.261l3.15,-0l-0,3.15l-3.15,-0l-0,-3.15m2.953,2.953l-2.756,-0l-0,-2.756l2.756,-0l-0,2.756m-2.559,-2.559l2.362,-0l-2.362,-0l-0,2.362l2.362,-0l-0,-2.362l-2.362,-0m0.196,0.196l1.969,0l-1.969,0l0,1.969l1.969,0l0,-1.969l-1.969,0m0.197,0.197l1.575,0l-1.575,0l0,1.575l1.575,0l0,-1.575l-1.575,0m0.197,0.197l1.181,0l0,1.181l-1.181,0l0,-1.181m0.985,0.984l-0.788,0l-0,-0.787l0.788,0l-0,0.787m-0.591,-0.59l0.394,-0l-0,0.394l-0.394,-0l0,-0.394m488.779,-1.378l3.15,-0l0,3.15l-3.15,-0l0,-3.15m2.953,2.953l-2.756,-0l0,-2.756l2.756,-0l0,2.756m-2.559,-2.559l2.362,-0l-2.362,-0l0,2.362l2.362,-0" style="fill:none;fill-rule:nonzero;stroke:#000;stroke-width:0.94px;"/><path d="M1161.71,617.017l0,-2.362l-2.362,-0m0.197,0.196l1.968,0l-1.968,0l-0,1.969l1.968,0l0,-1.969l-1.968,0m0.197,0.197l1.575,0l-1.575,0l-0,1.575l1.575,0l-0,-1.575l-1.575,0m0.197,0.197l1.181,0l-0,1.181l-1.181,0l-0,-1.181m0.984,0.984l-0.788,0l0,-0.787l0.788,0l-0,0.787m-0.591,-0.59l0.394,-0l0,0.394l-0.394,-0l0,-0.394" style="fill:none;fill-rule:nonzero;stroke:#000;stroke-width:0.94px;"/><path d="M673.053,1055.8c16.352,0 29.608,-13.256 29.608,-29.608" style="fill:none;fill-rule:nonzero;stroke:#000;stroke-width:0.94px;"/><path d="M702.661,1026.19l-14.577,0m-15.031,29.608l-2.685,0m17.716,-88.582l-17.716,-0m17.716,-0l0,58.974" style="fill:none;fill-rule:nonzero;stroke:#000;stroke-width:0.94px;"/><path d="M1128.23,1026.19c0,16.352 13.256,29.608 29.608,29.608" style="fill:none;fill-rule:nonzero;stroke:#000;stroke-width:0.94px;"/><path d="M1128.23,1026.19l14.577,0m15.031,29.608l2.685,0m-17.716,-88.582l17.716,-0m-17.716,-0l-0,58.974m-454.725,0l20.67,0l-0,-20.669l-20.67,-0l0,20.669m20.67,0l20.669,0l-0,-20.669l-20.669,-0l-0,20.669m419.478,0l14.577,0l-20.67,0l0,-20.669l20.67,-0l-0,20.669m-20.67,0l-20.669,0l0,-20.669l20.669,-0l0,20.669m-200.6,0l14.577,0m-14.577,0l14.577,0l-20.67,0l0,-20.669l20.67,-0l-0,20.669m-20.67,0l-20.669,0l0,-20.669l20.669,-0l0,20.669m-20.669,0l-165.354,0l-0,-20.669l165.354,-0l0,20.669m206.693,0l-165.354,0l-0,-20.669l165.354,-0l0,20.669m-392.716,0l20.669,0l-0,-20.669l-20.669,-0l-0,20.669m20.669,-10.335l165.354,0m41.339,0l165.354,0m-392.716,31.004l3.405,0m8.268,0l8.996,0m-0,0l-0,-4.567" style="fill:none;fill-rule:nonzero;stroke:#000;stroke-width:0.94px;"/><path d="M729.423,1034.02l-0,-7.834m-20.669,0l3.405,0m8.268,0l8.996,0m-20.669,20.669l-0,-4.567m-0,-8.268l-0,-7.834m-0,198.81l3.405,0m8.268,0l8.996,0m-0,0l-0,-20.669m-20.669,0l3.405,0m8.268,0l8.996,0m-20.669,20.669l-0,-20.669m20.669,-157.472l14.626,0m6.043,0l0,-4.567m0,-8.268l0,-7.834m-20.669,0l14.626,0m-14.626,20.669l-0,-4.567m-0,-8.268l-0,-7.834m-0,198.81l14.626,0m6.043,0l0,-20.669m-20.669,0l14.626,0m-14.626,20.669l-0,-20.669m-0,20.669l-0,0" style="fill:none;fill-rule:nonzero;stroke:#000;stroke-width:0.94px;"/><path d="M708.754,1225l-0,-23.259m-0,-8.268l-0,-23.622m-0,-8.268l-0,-23.622m-0,-8.268l-0,-23.622m-0,-8.267l-0,-23.622m-0,-8.268l-0,-23.622m-0,-8.268l-0,-7.834m20.669,178.141l-0,-2.59m-0,-8.268l-0,-23.622m-0,-8.268l-0,-23.622m-0,-8.268l-0,-23.622m-0,-8.267l-0,-23.622m-0,-8.268l-0,-19.055m-0,178.141l-0,-23.259m-0,-8.268l-0,-23.622m-0,-8.268l-0,-23.622m-0,-8.268l-0,-23.622m-0,-8.267l-0,-23.622m-0,-8.268l-0,-23.622m-0,-8.268l-0,-7.834m20.669,178.141l0,-2.59m0,-8.268l0,-23.622m0,-8.268l0,-23.622m0,-8.268l0,-23.622m0,-8.267l0,-23.622m0,-8.268l0,-19.055m-74.459,8.827l482.207,0.112m2.685,-614.291l-245.079,-0m-245.078,-0l245.078,-0m-155.572,-104.07l-0.824,0.446l-0.825,0.405l-0.824,0.323l-0.825,0.201l-1.933,-0.102l-1.939,-0.72l-1.951,-1.066l-1.965,-1.137l-5.525,-2.322l-5.618,-1.324l-5.667,-0.853l-5.671,-0.914" style="fill:none;fill-rule:nonzero;stroke:#000;stroke-width:0.94px;"/><path d="M726.307,330.372l-4.289,-0.977l-4.29,-1.053l-4.313,-0.863l-4.362,-0.41l-2.125,0.044l-2.116,0.25l-2.079,0.492l-2.017,0.773l-1.504,0.818l-1.376,1.009l-1.172,1.195l-0.896,1.378l-0.427,1.056l-0.28,1.117l-0.156,1.154l-0.053,1.166l0.353,3.678l0.992,3.559l1.442,3.448l1.702,3.344l1.211,2.196l1.261,2.144l1.331,2.083l1.42,2.012l3.801,4.531l4.206,4.224l4.394,4.064l4.366,4.052l3.488,3.463l3.366,3.575l3.289,3.707l3.259,3.858l1.167,1.439l1.086,1.477l0.921,1.532l0.674,1.603l0.461,2.637l-0.04,2.775l-0.251,2.843l-0.17,2.84l0.11,2.576l0.321,2.538l0.427,2.526l0.425,2.537l0.274,2.007l0.221,2.011l0.178,2l0.148,1.972l0.107,1.681l0.068,1.69" style="fill:none;fill-rule:nonzero;stroke:#000;stroke-width:0.94px;"/><path d="M740.86,430.143l0.004,1.744l-0.084,1.841l-0.066,0.944l-0.005,0.92l0.145,0.835l0.384,0.693l0.214,0.207l0.247,0.187l0.268,0.173l0.279,0.167l0.338,-0.405l0.318,-0.413l0.28,-0.425l0.223,-0.446l0.208,-0.768l0.06,-0.817l-0.038,-0.846l-0.086,-0.853l-0.157,-1.478l-0.117,-1.449l-0.043,-1.429l0.064,-1.419l0.151,-1.164l0.222,-1.164l0.271,-1.163l0.294,-1.164l0.616,1.422l0.601,1.428l0.568,1.439l0.521,1.455l0.424,1.361l0.361,1.38l0.29,1.399l0.211,1.42l0.148,1.554l0.148,1.551l0.248,1.52l0.451,1.462l0.218,0.477l0.269,0.451l0.331,0.412l0.41,0.358l0.404,0.242l0.438,0.167l0.44,0.065l0.414,-0.065l0.24,-0.118l0.222,-0.168l0.211,-0.2l0.204,-0.216" style="fill:none;fill-rule:nonzero;stroke:#000;stroke-width:0.94px;"/><path d="M752.622,441.247l0.392,-0.029l0.398,-0.024l0.413,-0.011l0.435,0.006l0.425,0.019l0.417,0.003l0.377,-0.052l0.301,-0.146l0.203,-0.261l0.12,-0.355l0.061,-0.412l0.026,-0.435l-0.007,-1.467l-0.098,-1.352l-0.134,-1.288l-0.112,-1.278l-0.054,-1.737l0.022,-1.784l0.037,-1.809l-0.005,-1.81l-0.077,-1.581l-0.137,-1.568l-0.175,-1.559l-0.196,-1.555m-2.632,20.485l-0.043,-1.882l-0.043,-1.885l-0.044,-1.889l-0.045,-1.894l-0.05,-1.759l-0.096,-1.755l-0.183,-1.739l-0.315,-1.712l-0.287,-1.082l-0.342,-1.07l-0.378,-1.062l-0.396,-1.059m5.51,12.569l0.57,-0.052l0.553,-0.082l0.517,-0.144l0.463,-0.235l0.348,-0.297l0.299,-0.367l0.252,-0.416l0.212,-0.442l0.524,-1.968l0.057,-2.025l-0.19,-2.062l-0.216,-2.08l-0.082,-1.773l-0.063,-1.754" style="fill:none;fill-rule:nonzero;stroke:#000;stroke-width:0.94px;"/><path d="M759.154,421.331l-0.166,-1.718l-0.391,-1.662l-0.271,-0.72l-0.308,-0.714l-0.31,-0.713l-0.28,-0.721l-0.43,-1.716l-0.174,-1.775l-0.004,-1.815l0.081,-1.834m2.036,11.36l0.471,-0.264l0.448,-0.276l0.401,-0.3l0.329,-0.336l0.452,-1.039l0.037,-1.255l-0.192,-1.38l-0.238,-1.418l-0.178,-2.113l-0.041,-2.001l-0.091,-1.905l-0.334,-1.824l-0.546,-1.427l-0.751,-1.395l-0.877,-1.374l-0.926,-1.364l-2.905,-4.497l-2.721,-4.487l-2.677,-4.447l-2.767,-4.378l-2.617,-3.813l-2.73,-3.766l-2.776,-3.752l-2.756,-3.769l-2.431,-3.448l-2.378,-3.477l-2.342,-3.498l-2.323,-3.507l4.256,2.221l4.276,2.158l4.315,2.033l4.373,1.845l4.599,1.668l4.679,1.475l4.757,1.361l4.833,1.32l2.73,0.727l2.736,0.619l2.725,0.393l2.697,0.046" style="fill:none;fill-rule:nonzero;stroke:#000;stroke-width:0.94px;"/><path d="M772.454,368.659l1.576,-0.177l1.573,-0.322l1.583,-0.451l1.605,-0.563l1.42,-0.586l1.332,-0.709l1.13,-0.885l0.812,-1.108l0.274,-0.714l0.159,-0.771l0.06,-0.804l-0.024,-0.811l-0.295,-1.735l-0.574,-1.647l-0.797,-1.553l-0.962,-1.453l-2.87,-3.21l-3.334,-2.75l-3.588,-2.495l-3.632,-2.442l-2.056,-1.465l-2.014,-1.503l-1.986,-1.529l-1.972,-1.541l0.824,-2.756l0.884,-2.722l1.005,-2.654l1.185,-2.551l3.394,-5.19l4.236,-4.67l4.744,-4.3l4.92,-4.078l3.195,-2.631l3.167,-2.618l3.177,-2.624l3.228,-2.648l2.48,-1.992l2.55,-1.88l2.64,-1.636l2.749,-1.256l3.33,-0.899l3.465,-0.593l3.564,-0.669l3.628,-1.127l2.513,-1.155l2.461,-1.145l2.345,-0.722l1.107,-0.075l1.055,0.185l1.277,0.666" style="fill:none;fill-rule:nonzero;stroke:#000;stroke-width:0.94px;"/><path d="M828.997,285.695l1.199,1.039l1.146,1.267l1.116,1.349l2.396,2.793l2.302,2.644l2.136,2.649l1.896,2.811l0.767,1.367l0.726,1.41l0.707,1.431l0.71,1.429l0.591,1.141l0.605,1.129l0.618,1.121l0.627,1.118l1.79,3.166l1.724,3.206l1.539,3.285l1.236,3.4l0.872,3.727l0.439,3.826l0.042,3.854l-0.32,3.812l-0.6,3.536l-0.816,3.49l-0.953,3.5l-1.011,3.565l-1.04,3.655l-1.216,3.566l-1.591,3.267l-2.16,2.757l-2.635,1.959l-3.114,1.396l-3.407,0.892l-3.517,0.45l-2.986,0.074l-2.925,-0.19l-2.855,-0.438l-2.78,-0.667l-3.632,-1.297l-3.332,-1.949l-2.885,-2.864l-2.29,-4.039l-0.905,-2.464l-0.853,-2.319l-0.936,-1.665l-0.542,-0.429l-0.612,-0.075l-0.639,0.276l-0.694,0.543" style="fill:none;fill-rule:nonzero;stroke:#000;stroke-width:0.94px;"/><path d="M802.935,353.199l-0.732,0.72l-0.751,0.809m26.702,16.028l-3.087,0.298l-3.049,0.145l-2.972,-0.161l-2.857,-0.622l-2.821,-1.255l-2.611,-1.791l-2.359,-2.193l-2.065,-2.464l-1.341,-1.944l-1.218,-1.996l-1.158,-2.022l-1.164,-2.023l-1.062,-1.727l-1.156,-1.668l-1.29,-1.567l-1.468,-1.425l-1.849,-1.402l-1.922,-1.314l-1.796,-1.365l-1.473,-1.556l-1.273,-2.675l-0.485,-3.124l0.066,-3.372l0.378,-3.417l0.531,-3.46l0.69,-3.294l0.923,-3.134l1.235,-2.982l1.595,-2.836l1.9,-2.715l2.124,-2.617l2.266,-2.541l2.163,-2.277l2.257,-2.139l2.394,-1.903l2.573,-1.571l2.628,-1.121l2.783,-0.802l2.894,-0.544l2.96,-0.352l3.073,-0.198l3.045,0.04l2.967,0.378l2.836,0.814l1.882,0.866l1.797,1.076l1.718,1.232l1.644,1.335" style="fill:none;fill-rule:nonzero;stroke:#000;stroke-width:0.94px;"/><path d="M839,301.371l1.386,1.22l1.346,1.249l1.319,1.269l1.305,1.279m-10.808,42.746l0.11,-2.256l0.171,-2.244l0.295,-2.217l0.479,-2.179l0.743,-2.268l0.859,-2.242l0.811,-2.248l0.6,-2.288l0.213,-1.519l0.096,-1.541l0.016,-1.557l-0.024,-1.565m-44.524,21.087l-2.002,-1.202l-2,-1.231l-1.996,-1.289l-1.99,-1.375l-2.456,-1.889l-2.257,-2.096l-1.872,-2.329l-1.302,-2.588l-0.543,-2.345l-0.088,-2.469l0.301,-2.526l0.626,-2.511l0.812,-2.22l1.048,-2.069l1.305,-1.839l1.579,-1.528l2.028,-1.252l2.269,-0.918l2.404,-0.707l2.431,-0.624l1.236,-0.328l1.22,-0.336l1.21,-0.341l1.204,-0.345m14.523,57.889l-1.795,1.051l-1.816,0.988l-1.858,0.86l-1.922,0.668l-3.73,0.597l-3.854,-0.174l-3.813,-0.849l-3.608,-1.427l-1.685,-0.898l-1.615,-0.989" style="fill:none;fill-rule:nonzero;stroke:#000;stroke-width:0.94px;"/><path d="M785.387,367.456l-1.57,-1.048l-1.545,-1.079m36.252,5.635l0.368,1.204l0.448,1.117l0.607,0.94l0.846,0.675l0.855,0.294l0.945,0.078l0.932,-0.138l0.816,-0.355l0.714,-0.687l0.482,-0.916l0.327,-1.069l0.25,-1.145m-18.936,33.316l1.913,-0.393l1.892,-0.437l1.85,-0.522l1.788,-0.652l3.134,-1.631l2.941,-2.044l2.843,-2.273l2.841,-2.318l3.002,-2.301l2.981,-2.276l2.837,-2.376l2.571,-2.601l1.782,-2.25l1.675,-2.366l1.701,-2.384l1.858,-2.303l2.982,-3.001l3.044,-2.932l2.601,-3.148l1.648,-3.649l0.022,-0.092l0.021,-0.092l0.018,-0.092l0.013,-0.092l-0.026,-0.587l-0.188,-0.573l-0.292,-0.562l-0.341,-0.552l-1.05,-1.663l-1.004,-1.605l-0.974,-1.566l-0.958,-1.546m-44.557,49.308l2.363,-1.623l2.327,-1.661l2.254,-1.739l2.146,-1.854" style="fill:none;fill-rule:nonzero;stroke:#000;stroke-width:0.94px;"/><path d="M814.836,395.83l2.199,-2.197l2.069,-2.335l1.982,-2.429l1.938,-2.476m-19.334,9.744l-0.646,-1.689l-0.598,-1.696l-0.504,-1.711l-0.361,-1.732l-0.218,-2.326l-0.012,-2.36l0.073,-2.375l0.033,-2.375l-0.08,-2.045l-0.172,-2.034l-0.233,-2.029l-0.263,-2.025m-0.679,22.845l-2.023,-2.396l-1.988,-2.424l-1.922,-2.482l-1.821,-2.568l-1.125,-1.752l-1.037,-1.804l-0.917,-1.857l-0.767,-1.912l-0.667,-2.235l-0.494,-2.29l-0.377,-2.327l-0.32,-2.345m50.781,21.302l2.795,-3.753l2.833,-3.726l2.905,-3.673l3.016,-3.595l2.316,-2.578l2.417,-2.481l2.54,-2.342l2.683,-2.164l1.265,-0.911l1.29,-0.877l1.307,-0.855l1.315,-0.844m14.26,-11.964l1.35,-1.417l1.327,-1.438l1.283,-1.48l1.218,-1.544l1.324,-1.928l1.163,-2.032l0.965,-2.118l0.729,-2.192l0.53,-2.646l0.246,-2.706" style="fill:none;fill-rule:nonzero;stroke:#000;stroke-width:0.94px;"/><path d="M888.43,330.231l0.058,-2.744l-0.037,-2.764m-52.773,-31.641l1.843,-0.097l1.848,-0.076l1.862,-0.029l1.882,0.038l2.582,0.207l2.545,0.453l2.42,0.781l2.21,1.187l1.72,1.434l1.464,1.739l1.185,1.966l0.883,2.116l0.575,2.247l0.268,2.291l-0.007,2.308l-0.249,2.292l-0.297,1.613l-0.335,1.601l-0.303,1.602l-0.201,1.615l-0.007,2.406l0.332,2.405l0.639,2.354l0.917,2.247l1.615,2.809l1.944,2.593l2.156,2.447l2.249,2.374l2.767,2.913l2.733,2.919l2.702,2.934l2.675,2.961l2.646,2.983l2.631,3.004l2.622,3.007l2.62,2.998l2.632,2.977l2.666,2.949l2.727,2.918l2.818,2.886l2.564,2.472l2.69,2.313l2.853,2.022l3.051,1.598l1.378,0.533l1.413,0.473l1.437,0.458l1.45,0.487" style="fill:none;fill-rule:nonzero;stroke:#000;stroke-width:0.94px;"/><path d="M916.493,383.81l2.381,0.956l2.254,1.204l1.989,1.504l1.587,1.856l0.432,0.733l0.371,0.773l0.315,0.804l0.261,0.826l0.469,2.306l0.146,2.354l-0.146,2.344l-0.406,2.28l-0.344,1.299l-0.388,1.29l-0.399,1.312l-0.373,1.368l-0.242,0.99l-0.283,0.962l-0.398,0.865l-0.582,0.696l-0.307,0.223l-0.339,0.193l-0.361,0.173l-0.372,0.163l-0.116,0.573l-0.139,0.545l-0.184,0.487l-0.25,0.403l-0.884,0.529l-1.209,0.077l-1.385,-0.227l-1.411,-0.379l-1.728,-0.55l-1.545,-0.596l-1.397,-0.681l-1.285,-0.808l-2.11,-1.839l-1.881,-2.247l-1.672,-2.525l-1.482,-2.672l-1.67,-3.45l-1.56,-3.417l-1.615,-3.325l-1.834,-3.176l-2.325,-3.161l-2.666,-2.95l-2.912,-2.764l-3.066,-2.604l-3.508,-2.742l-3.579,-2.601" style="fill:none;fill-rule:nonzero;stroke:#000;stroke-width:0.94px;"/><path d="M878.345,371.184l-3.647,-2.487l-3.711,-2.402l-1.766,-1.112l-1.76,-1.123l-1.735,-1.154l-1.691,-1.21l-3.391,-2.797l-3.178,-3.058l-3.036,-3.233l-2.964,-3.319m70.292,61.995l-0.841,-0.534l-0.831,-0.546l-0.812,-0.568l-0.783,-0.602l-1.33,-1.198l-1.234,-1.309l-1.169,-1.383l-1.138,-1.42m1.369,14.697l1.34,0.099l1.351,0.1l1.371,0.103l1.404,0.108l1.88,0.129l1.87,0.007l1.775,-0.245l1.595,-0.63l0.869,-0.622l0.804,-0.755l0.773,-0.822l0.779,-0.826l3.262,-2.657l3.662,-2.037l3.887,-1.674l3.936,-1.57l2.859,-1.222l2.823,-1.265l2.82,-1.265l2.851,-1.223l4.493,-1.709l4.607,-1.396l4.686,-0.971l4.73,-0.43l3.271,0.054l3.274,0.265l3.276,0.374l3.279,0.382l2.328,0.234l2.325,0.229l2.315,0.267l2.302,0.346" style="fill:none;fill-rule:nonzero;stroke:#000;stroke-width:0.94px;"/><path d="M997.786,399.799l2.634,0.527l2.624,0.604l2.626,0.594l2.642,0.499l0.92,0.136l0.923,0.121l0.925,0.109l0.926,0.105l0.591,-1.395l0.537,-1.405l0.43,-1.423l0.268,-1.453l-0.023,-2.658l-0.617,-2.653l-1.126,-2.519l-1.548,-2.256l-1.829,-1.851l-2.076,-1.545l-2.255,-1.303l-2.363,-1.123l-3.916,-1.551l-4.001,-1.242l-4.067,-0.929l-4.115,-0.61l-3.552,-0.276l-3.568,-0.098l-3.579,0.021l-3.585,0.081m1.353,4.129l1.371,-0.067l1.37,-0.054l1.37,-0.027l1.368,0.013l1.558,0.074l1.556,0.127l1.555,0.162l1.554,0.178m-60.507,28.005l0.706,0.459l0.71,0.418l0.716,0.335l0.725,0.211l1.438,-0.022l1.458,-0.49l1.453,-0.8l1.42,-0.955l2.986,-2.212l2.686,-2.28l2.384,-2.427l2.08,-2.651l1.547,-2.478l1.407,-2.621" style="fill:none;fill-rule:nonzero;stroke:#000;stroke-width:0.94px;"/><path d="M945.876,393.333l1.348,-2.688l1.371,-2.678l1.081,-1.959l1.126,-1.923l1.156,-1.9l1.169,-1.887l-0.047,-0.42l-0.04,-0.421l-0.025,-0.422l-0.004,-0.422l0.038,-0.565l0.086,-0.563l0.129,-0.553l0.168,-0.54l0.886,-1.811l1.231,-1.623l1.463,-1.497l1.583,-1.432l1.314,-1.139l1.347,-1.048l1.411,-0.867l1.503,-0.597l1.096,-0.218l1.137,-0.091l1.162,-0.006l1.171,0.038l2.173,0.08l2.147,0.023l2.121,-0.097l2.093,-0.281l1.074,-0.235l1.067,-0.284l1.064,-0.318l1.062,-0.334m-18.305,-9.614l-0.833,-0.533l-0.839,-0.478l-0.852,-0.371l-0.871,-0.209l-0.933,-0.006l-0.954,0.169l-0.968,0.287l-0.974,0.345m-2.881,26.053l1.632,-0.03l1.648,-0.007l1.678,0.041l1.724,0.114l2.601,0.281l2.586,0.173l2.425,-0.248l2.119,-0.982" style="fill:none;fill-rule:nonzero;stroke:#000;stroke-width:0.94px;"/><path d="M969.54,379.64l0.446,-0.379l0.409,-0.432l0.359,-0.476l0.297,-0.512l0.167,-0.374l0.142,-0.382l0.128,-0.389l0.124,-0.39m-197.255,-7.879l1.07,2.823l1.101,2.812l1.16,2.785l1.249,2.739l1.532,2.986l1.711,2.891l1.923,2.777l2.168,2.646l0.977,1.041l1.04,0.963l1.116,0.829l1.21,0.644l1.66,0.508l1.749,0.298l1.758,0.256l1.685,0.386l2.426,1.165l2.156,1.73l2.013,2.094l1.994,2.255l1.638,1.752l1.719,1.573l1.816,1.241l1.927,0.757l2.615,0.135l2.76,-0.523l2.847,-0.812l2.876,-0.732l4.29,-0.396l4.235,0.324l4.196,0.747l4.168,0.871l15.893,2.038l15.959,0.224l16.29,-0.841l16.886,-1.158l0.279,-0.018l0.131,-0.008l0.122,-0.009m3.541,-43.959l-3.608,-6.21l-3.557,-6.235" style="fill:none;fill-rule:nonzero;stroke:#000;stroke-width:0.94px;"/><path d="M903.078,351.816l-3.457,-6.285l-3.305,-6.36l-1.128,-2.273l-1.125,-2.275l-1.143,-2.268l-1.184,-2.251l-0.765,-1.384l-0.797,-1.364l-0.838,-1.335l-0.885,-1.298l-2.109,-2.697l-2.259,-2.585l-2.29,-2.584l-2.203,-2.695l-2.091,-2.93l-2.056,-2.946l-2.197,-2.749l-2.518,-2.335l-2.28,-1.462l-2.438,-1.3l-2.443,-1.364l-2.297,-1.653l-1.665,-1.621l-1.593,-1.685l-1.643,-1.482l-1.811,-1.013l-1.649,-0.342l-1.781,-0.013l-1.859,0.164l-1.88,0.191l-3.674,0.078l-3.574,-0.297l-3.507,-0.545l-3.473,-0.669m148.376,74.466l0.91,-0.639l0.878,-0.663l0.814,-0.714l0.719,-0.79l0.577,-0.846l0.472,-0.926l0.377,-0.991l0.296,-1.042l0.29,-1.585l0.071,-1.593l-0.217,-1.53l-0.575,-1.395l-1.039,-1.258l-1.382,-0.979l-1.588,-0.649l-1.659,-0.273" style="fill:none;fill-rule:nonzero;stroke:#000;stroke-width:0.94px;"/><path d="M980.481,348.782l-1.647,0.122l-1.606,0.385l-1.594,0.473l-1.61,0.384l-1.487,0.151l-1.503,-0.047l-1.496,-0.224l-1.469,-0.382l-2.425,-0.946l-2.346,-1.125l-2.328,-1.077l-2.371,-0.801l-1.628,-0.281l-1.677,-0.064l-1.729,0.143l-1.782,0.345l-2.337,0.739l-2.158,1.083l-1.703,1.446l-0.596,0.866l-0.38,0.964l-0.153,1.002l-0.038,1.054l-0.032,1.067l-0.136,1.041l-0.361,1.061l-0.56,0.987l-0.71,0.914l-0.808,0.844l-2.527,2.003l-2.811,1.523l-3.005,1.108l-3.111,0.757l-4.995,0.625l-5.024,0.082l-5.042,-0.281l-5.053,-0.462" style="fill:none;fill-rule:nonzero;stroke:#000;stroke-width:0.94px;"/><path d="M670.368,441.505c-96.281,-0 -174.331,78.051 -174.331,174.331" style="fill:none;fill-rule:nonzero;stroke:#000;stroke-width:0.94px;"/><path d="M1249.05,406.131c29.354,-0 53.149,-23.796 53.149,-53.15m0,0c0,-29.353 -23.795,-53.149 -53.149,-53.149m-0,-0c-29.354,-0 -53.15,23.796 -53.15,53.149m0,0c0,29.354 23.796,53.15 53.15,53.15" style="fill:none;fill-rule:nonzero;stroke:#000;stroke-width:0.94px;"/><path d="M1334.86,615.836c-0,-96.28 -78.051,-174.331 -174.331,-174.331" style="fill:none;fill-rule:nonzero;stroke:#000;stroke-width:0.94px;"/><path d="M915.446,441.505l19.941,-0m8.268,-0l23.622,-0m8.268,-0l23.622,-0m8.268,-0l23.622,-0m8.267,-0l23.622,-0m8.268,-0l23.622,-0m8.268,-0l23.622,-0m8.268,-0l23.622,-0m8.268,-0l23.621,-0m8.268,-0l23.622,-0m8.268,-0l23.622,-0m8.268,-0l23.622,-0m8.267,-0l23.623,-0m8.267,-0l23.622,-0m8.268,-0l23.622,-0m8.268,-0l23.622,-0m8.268,-0l23.622,-0m8.267,-0l23.622,-0m8.268,-0l20.217,-0m-0,-0l-0,-0" style="fill:none;fill-rule:nonzero;stroke:#808080;stroke-width:0.94px;"/><path d="M670.368,790.166c96.28,0 174.33,-78.05 174.33,-174.33" style="fill:none;fill-rule:nonzero;stroke:#000;stroke-width:0.94px;"/><path d="M670.368,615.836l-0,-351.378m174.33,177.047l0,174.331m-348.661,-0l-178.983,-0m87.448,17.477l-0,59.055l-59.056,0l0,-59.055l59.056,0m23.622,0l-0,59.055l-23.622,0l-0,-59.055l23.622,0m67.913,-17.477l-0,305.534m-165.707,-216.952l-1.749,0m290.196,284.19l6.327,-39.043m-58.893,12.02l7.688,-23.377m-57.682,-2.322l8.71,-16.944m653.94,-79.478l15.285,16.343m-22.639,39.454l19.162,-13.104m-16.53,-7.949l17.735,5.866m16.658,-2.427l-16.658,2.427m20.822,-5.824l-4.164,3.397m-1.514,-5.338l5.678,1.941m3.029,-1.941l-6.057,-0.971m7.571,-7.765l-1.514,8.736m-0.379,2.912l-6.165,4.757m11.844,3.979l-5.679,-8.736m4.164,-9.707l-1.135,8.736m6.675,11.397l-6.675,-11.397m-23.554,-15.769l12.197,13.828m2.65,-0.971l-12.358,-13.714m31.655,3.017l-11.726,2.932m12.582,-0.444l-10.311,2.385m-22.2,-7.89l-0.249,-2.116m3.015,-16.368l-3.015,16.368m3.015,-16.368l-2.585,-8.938m-11.048,52.208l-18.024,-2.139m-12.702,46.569l3.948,-14.474m-3.948,14.474l3.948,-3.947m2.631,-10.527l3.947,9.211m2.632,2.632l-1.315,-9.211m-7.895,7.895l9.21,1.316m-1.315,-9.211l14.474,-1.316m5.263,-26.316l1.316,14.474m-6.579,11.842l2.631,-7.894m-25,6.578l11.842,-17.105m7.895,15.79l-5.263,-13.158m35.042,-17.915l-16.621,2.125m-7.895,23.685l14.474,-3.948l-6.579,-19.737m-42.106,26.316l5.263,18.421" style="fill:none;fill-rule:nonzero;stroke:#000;stroke-width:0.94px;"/><path d="M1154.41,891.313l2.632,13.159m7.895,-28.949l-0,13.159m-7.895,5.263l10.527,2.632m-2.632,-7.895l-10.527,2.631m-1.315,17.106l5.263,0m-1.316,-3.947l-6.579,3.947m23.685,-34.211l-9.211,1.315m30.323,-42.349l-4.501,15.249m-31.983,-10.121l3.317,14.15m2.24,-2.973l12.298,-7.043m-14.538,10.016l8.184,1.507m7.882,-29.011l-1.141,10.79m3.381,-13.763l-12.664,4.438m16.734,5.62l-4.07,-10.058m-30.54,9.607l-0.021,9.305m-4.438,-12.664l4.459,3.359m-4.459,-3.359l14.883,1.895m2.627,-9.671l-17.51,7.776m4.438,12.664l8.938,-2.585m4.5,-15.249l0.733,5.212m3.726,-1.852l-4.825,-5.966m-2.627,9.671l18.587,9.346m-18.221,-6.741l-8.572,5.192m36.809,16.086l-14.15,3.318m22.764,-27.117l-13.031,1.831m-14.192,21.926l5.924,13.784l18.629,-9.262m56.265,55.238l-15.297,-16.173m17.264,-42.913l-19.917,6.437m-0.498,34.488l-11.613,-11.601m4.025,1.69l10.076,9.055m-4.472,-30.745l-0.833,-0.828m18.913,-29.269l-4.942,6.695l-14.985,-0.719m6.79,17.426l3.221,-14.172m-10.011,-3.254l0.158,20.805m21.459,-23.465l0.94,14.14m15.735,-10.106l-0.908,-9.98m8.448,16.581l-5.006,-1.626m0.032,4.16l7.477,-1.721m-10.73,11.733l-9.198,-5.756m10.888,9.072l1.563,-13.328m8.164,-20.867l-8.227,12.546m8.227,-12.546l-4.974,2.534m4.287,16.612l0.687,-19.146m-20.552,33.444l10.825,0.751m-3.6,-35.759l-1.595,9.167m9.948,-5.069l-8.353,-4.098m5.1,14.11l-16.549,12.609m9.854,-17.552l-14.173,-3.221" style="fill:none;fill-rule:nonzero;stroke:#000;stroke-width:0.94px;"/><path d="M1232.89,897.674l-0.248,-2.116m2.058,24.451l4.501,-15.249m12.601,23.475l1.141,-10.79m-7.452,3.705l4.071,10.058m-17.101,-8.227l13.03,-1.831m-15.615,-7.107l2.585,8.938m-2.585,-8.938l3.014,-16.369m26.793,1.55l-5.923,-13.784m14.107,15.291l-8.184,-1.507m5.945,4.479l-12.298,7.043m15.981,9.713l8.572,-5.191m-11.199,14.862l-0.733,-5.212m14.172,-12.622l-8.938,2.585m8.917,6.719l0.021,-9.304m-17.897,14.474l4.824,5.966m4.135,-17.855l-3.318,-14.15m16.693,24.229l-14.883,-1.895m14.883,1.895l-4.458,-3.36m-13.052,11.136l17.51,-7.776m-40.511,-51.118l9.166,1.595m-12.14,23.745l14.15,-3.318m14.452,27.201l-18.587,-9.346m2.67,-28.279l-18.63,9.262m14.432,36.506l12.664,-4.438m-9.011,-51.333l4.066,-12.515m-5.755,9.199l-11.733,-10.73m4.256,12.451l-13.391,-9.885" style="fill:none;fill-rule:nonzero;stroke:#000;stroke-width:0.94px;"/><path d="M1197.42,861.654c-2.654,5.419 -3.052,11.669 -1.108,17.382" style="fill:none;fill-rule:nonzero;stroke:#000;stroke-width:0.94px;"/><path d="M1200.08,864.84c-1.647,4.518 -1.58,9.483 0.19,13.955" style="fill:none;fill-rule:nonzero;stroke:#000;stroke-width:0.94px;"/><path d="M1228.95,856.961c-8.84,-6.176 -21.012,-4.017 -27.188,4.822m0,0c-0.072,0.104 -0.144,0.209 -0.215,0.315" style="fill:none;fill-rule:nonzero;stroke:#000;stroke-width:0.94px;"/><path d="M1228.98,852.464c-10.325,-5.986 -23.52,-2.998 -30.259,6.853" style="fill:none;fill-rule:nonzero;stroke:#000;stroke-width:0.94px;"/><path d="M1197.56,881.77c5.977,10.905 19.569,15.041 30.607,9.315" style="fill:none;fill-rule:nonzero;stroke:#000;stroke-width:0.94px;"/><path d="M1201.36,880.958c5.143,8.064 15.338,11.263 24.166,7.583" style="fill:none;fill-rule:nonzero;stroke:#000;stroke-width:0.94px;"/><path d="M1227.1,887.469c6.734,-4.098 10.155,-11.996 8.538,-19.712" style="fill:none;fill-rule:nonzero;stroke:#000;stroke-width:0.94px;"/><path d="M1230.2,889.892c6.146,-4.285 9.734,-11.367 9.553,-18.858" style="fill:none;fill-rule:nonzero;stroke:#000;stroke-width:0.94px;"/><path d="M915.446,736.66l0,-103.347m0,77.51l0,-51.673m0,25.836l419.41,0m-419.41,-51.673l419.41,0l-0,103.347l-419.41,-0m0,-77.51l419.41,-0l-0,51.673l-419.41,0m419.41,51.673l-419.41,0m0,-129.183l419.41,0l-0,129.183l-419.41,0l0,-129.183m245.079,-17.477l0,-351.378m-483.293,702.756l0.052,-14.696m-360.23,-336.682l1195.33,-0m-842.017,-0l-0,174.33" style="fill:none;fill-rule:nonzero;stroke:#000;stroke-width:0.94px;"/><rect x="670.368" y="175.875" width="490.157" height="88.583" style="fill:#fff;"/><path d="M670.368,175.875l-11.521,0l-23.01,1.206l-22.915,2.409l-22.758,3.604l-22.538,4.791l-22.257,5.963l-21.914,7.12l-21.511,8.258l-21.049,9.372l-20.53,10.46l-19.955,11.521l-19.324,12.549l-18.641,13.544l-17.907,14.5l-17.123,15.418l-16.293,16.293l-15.418,17.123l-14.5,17.907l-13.544,18.641l-12.549,19.324l-11.521,19.955l-10.46,20.53l-9.372,21.049l-8.258,21.511l-7.12,21.914l-5.963,22.257l-4.791,22.538l-3.605,22.758l-2.408,22.915l-1.206,23.01l0,23.041l1.206,23.01l2.408,22.916l3.605,22.758l4.791,22.538l5.963,22.256l7.12,21.914l8.258,21.511l9.372,21.05l10.46,20.53l11.521,19.954l12.549,19.325l13.544,18.641l14.5,17.906l15.418,17.123l16.293,16.293l17.123,15.418l17.907,14.501l18.641,13.543l19.324,12.549l19.955,11.521l20.53,10.461l21.049,9.372l21.511,8.257l21.914,7.12l22.257,5.964l22.538,4.79l22.758,3.605l22.915,2.408l23.01,1.206l11.521,0l-0,-88.582l-9.201,-0l-18.378,-0.963l-18.301,-1.924l-18.176,-2.879l-18,-3.826l-17.775,-4.763l-17.502,-5.686l-17.18,-6.595l-16.811,-7.485l-16.397,-8.354l-15.937,-9.201l-15.433,-10.023l-14.888,-10.817l-14.301,-11.581l-13.676,-12.313l-13.012,-13.013l-12.314,-13.675l-11.581,-14.302l-10.816,-14.887l-10.023,-15.434l-9.201,-15.937l-8.355,-16.396l-7.485,-16.812l-6.594,-17.18l-5.687,-17.501l-4.763,-17.776l-3.826,-18l-2.879,-18.176l-1.923,-18.301l-0.963,-18.377l-0,-18.402l0.963,-18.377l1.923,-18.302l2.879,-18.176l3.826,-18l4.763,-17.775l5.687,-17.502l6.594,-17.18l7.485,-16.811l8.355,-16.397l9.201,-15.937l10.023,-15.433l10.816,-14.888l11.581,-14.301l12.314,-13.676l13.012,-13.012l13.676,-12.314l14.301,-11.581l14.888,-10.816l15.433,-10.023l15.937,-9.201l16.397,-8.355l16.811,-7.484l17.18,-6.595l17.502,-5.687l17.775,-4.763l18,-3.826l18.176,-2.879l18.301,-1.923l18.378,-0.963l9.201,-0l-0,-88.583Z" style="fill:#fff;fill-rule:nonzero;"/><path d="M1172.05,175.875l-11.521,0l0,88.583l9.201,-0l18.377,0.963l18.302,1.923l18.176,2.879l18,3.826l17.775,4.763l17.502,5.687l17.18,6.595l16.811,7.484l16.397,8.355l15.937,9.201l15.433,10.023l14.888,10.816l14.301,11.581l13.676,12.314l13.012,13.012l12.314,13.676l11.581,14.301l10.816,14.888l10.023,15.433l9.201,15.937l8.355,16.397l7.484,16.811l6.595,17.18l5.687,17.502l4.763,17.775l3.826,18l2.879,18.176l1.923,18.302l0.963,18.377l0,18.402l-0.963,18.377l-1.923,18.301l-2.879,18.176l-3.826,18l-4.763,17.776l-5.687,17.501l-6.595,17.18l-7.484,16.812l-8.355,16.396l-9.201,15.937l-10.023,15.434l-10.816,14.887l-11.581,14.302l-12.314,13.675l-13.012,13.013l-13.676,12.313l-14.301,11.581l-14.888,10.817l-15.433,10.023l-15.937,9.201l-16.397,8.354l-16.811,7.485l-17.18,6.595l-17.502,5.686l-17.775,4.763l-18,3.826l-18.176,2.879l-18.302,1.924l-18.377,0.963l-9.201,-0l0,88.582l11.521,0l23.01,-1.206l22.915,-2.408l22.758,-3.605l22.538,-4.79l22.257,-5.964l21.914,-7.12l21.511,-8.257l21.049,-9.372l20.53,-10.461l19.955,-11.521l19.324,-12.549l18.641,-13.543l17.907,-14.501l17.123,-15.418l16.293,-16.293l15.418,-17.123l14.5,-17.906l13.544,-18.641l12.549,-19.325l11.521,-19.954l10.46,-20.53l9.372,-21.05l8.258,-21.511l7.12,-21.914l5.963,-22.256l4.791,-22.538l3.604,-22.758l2.409,-22.916l1.206,-23.01l-0,-23.041l-1.206,-23.01l-2.409,-22.915l-3.604,-22.758l-4.791,-22.538l-5.963,-22.257l-7.12,-21.914l-8.258,-21.511l-9.372,-21.049l-10.46,-20.53l-11.521,-19.955l-12.549,-19.324l-13.544,-18.641l-14.5,-17.907l-15.418,-17.123l-16.293,-16.293l-17.123,-15.418l-17.907,-14.5l-18.641,-13.544l-19.324,-12.549l-19.955,-11.521l-20.53,-10.46l-21.049,-9.372l-21.511,-8.258l-21.914,-7.12l-22.257,-5.963l-22.538,-4.791l-22.758,-3.604l-22.915,-2.409l-23.01,-1.206Z" style="fill:#fff;fill-rule:nonzero;"/><path d="M1160.53,175.875l-490.157,0m-0,88.583l490.157,-0m-490.157,-88.583l-11.521,0l-23.01,1.206l-22.915,2.409l-22.758,3.604l-22.538,4.791l-22.257,5.963l-21.914,7.12l-21.511,8.258l-21.049,9.372l-20.53,10.46l-19.955,11.521l-19.324,12.549l-18.641,13.544l-17.907,14.5l-17.123,15.418l-16.293,16.293l-15.418,17.123l-14.5,17.907l-13.544,18.641l-12.549,19.324l-11.521,19.955l-10.46,20.53l-9.372,21.049l-8.258,21.511l-7.12,21.914l-5.963,22.257l-4.791,22.538l-3.605,22.758l-2.408,22.915l-1.206,23.01l0,23.041l1.206,23.01l2.408,22.916l3.605,22.758l4.791,22.538l5.963,22.256l7.12,21.914l8.258,21.511l9.372,21.05l10.46,20.53l11.521,19.954l12.549,19.325l13.544,18.641l14.5,17.906l15.418,17.123l16.293,16.293l17.123,15.418l17.907,14.501" style="fill:none;fill-rule:nonzero;stroke:#000;stroke-width:0.94px;"/><path d="M402.445,965l18.641,13.543l19.324,12.549l19.955,11.521l20.53,10.461l21.049,9.372l21.511,8.257l21.914,7.12l22.257,5.964l22.538,4.79l22.758,3.605l22.915,2.408l23.01,1.206l11.521,0m-0,-88.582l-9.201,-0l-18.378,-0.963l-18.301,-1.924l-18.176,-2.879l-18,-3.826l-17.775,-4.763l-17.502,-5.686l-17.18,-6.595l-16.811,-7.485l-16.397,-8.354l-15.937,-9.201l-15.433,-10.023l-14.888,-10.817l-14.301,-11.581l-13.676,-12.313l-13.012,-13.013l-12.314,-13.675l-11.581,-14.302l-10.816,-14.887l-10.023,-15.434l-9.201,-15.937l-8.355,-16.396l-7.485,-16.812l-6.594,-17.18l-5.687,-17.501l-4.763,-17.776l-3.826,-18l-2.879,-18.176m-1.923,-18.301l-0.963,-18.377l-0,-18.402l0.963,-18.377l1.923,-18.302l2.879,-18.176l3.826,-18l4.763,-17.775l5.687,-17.502l6.594,-17.18" style="fill:none;fill-rule:nonzero;stroke:#000;stroke-width:0.94px;"/><path d="M345.625,481.323l7.485,-16.811l8.355,-16.397l9.201,-15.937l10.023,-15.433l10.816,-14.888l11.581,-14.301l12.314,-13.676l13.012,-13.012l13.676,-12.314l14.301,-11.581l14.888,-10.816l15.433,-10.023l15.937,-9.201l16.397,-8.355l16.811,-7.484l17.18,-6.595l17.502,-5.687l17.775,-4.763l18,-3.826l18.176,-2.879l18.301,-1.923l18.378,-0.963l9.201,-0m501.678,-88.583l-11.521,0m0,88.583l9.201,-0l18.377,0.963l18.302,1.923l18.176,2.879l18,3.826l17.775,4.763l17.502,5.687l17.18,6.595l16.811,7.484l16.397,8.355l15.937,9.201l15.433,10.023l14.888,10.816l14.301,11.581l13.676,12.314l13.012,13.012l12.314,13.676l11.581,14.301l10.816,14.888l10.023,15.433l9.201,15.937l8.355,16.397l7.484,16.811l6.595,17.18l5.687,17.502l4.763,17.775" style="fill:none;fill-rule:nonzero;stroke:#000;stroke-width:0.94px;"/><path d="M1502.31,533.78l3.826,18l2.879,18.176l1.923,18.302l0.963,18.377l0,18.402m-2.886,36.678l-2.879,18.176l-3.826,18l-4.763,17.776l-5.687,17.501l-6.595,17.18l-7.484,16.812l-8.355,16.396l-9.201,15.937l-10.023,15.434l-10.816,14.887l-11.581,14.302l-12.314,13.675l-13.012,13.013l-13.676,12.313l-14.301,11.581l-14.888,10.817l-15.433,10.023l-15.937,9.201m-16.397,8.354l-16.811,7.485l-17.18,6.595l-17.502,5.686l-17.775,4.763l-18,3.826l-18.176,2.879l-18.302,1.924l-18.377,0.963l-9.201,-0m0,88.582l11.521,0l23.01,-1.206l22.915,-2.408l22.758,-3.605l22.538,-4.79l22.257,-5.964l21.914,-7.12l21.511,-8.257l21.049,-9.372l20.53,-10.461l19.955,-11.521l19.324,-12.549l18.641,-13.543l17.907,-14.501l17.123,-15.418l16.293,-16.293l15.418,-17.123l14.5,-17.906" style="fill:none;fill-rule:nonzero;stroke:#000;stroke-width:0.94px;"/><path d="M1509.69,883.759l13.544,-18.641l12.549,-19.325l11.521,-19.954l10.46,-20.53l9.372,-21.05l8.258,-21.511l7.12,-21.914l5.963,-22.256l4.791,-22.538l3.604,-22.758l2.409,-22.916l1.206,-23.01l-0,-23.041l-1.206,-23.01l-2.409,-22.915l-3.604,-22.758l-4.791,-22.538l-5.963,-22.257l-7.12,-21.914l-8.258,-21.511l-9.372,-21.049l-10.46,-20.53l-11.521,-19.955l-12.549,-19.324l-13.544,-18.641l-14.5,-17.907l-15.418,-17.123l-16.293,-16.293l-17.123,-15.418l-17.907,-14.5l-18.641,-13.544l-19.324,-12.549l-19.955,-11.521l-20.53,-10.46l-21.049,-9.372l-21.511,-8.258l-21.914,-7.12l-22.257,-5.963l-22.538,-4.791l-22.758,-3.604l-22.915,-2.409l-23.01,-1.206m-850.17,485.84l-1.923,-18.301m1190.99,0l-1.923,18.301m2.886,-36.678l-0.963,18.377m-182.694,281.325l-16.397,8.354m-1267.07,129.081l-12.756,-12.756m12.756,-867.165l-12.756,-12.756m6.378,886.299l-10.63,0m10.63,0l10.63,0" style="fill:none;fill-rule:nonzero;stroke:#000;stroke-width:0.94px;"/><path d="M38.403,175.875l-10.63,0m10.63,0l10.63,0m-10.63,879.921l0,10.63m0,-890.551l0,-10.63" style="fill:none;fill-rule:nonzero;stroke:#000;stroke-width:0.94px;"/><path d="M38.403,1055.8l0,-879.921m185.626,-131.073l12.756,-12.756m1357.32,12.756l12.756,-12.756m-1376.46,6.378l0,-10.63m0,10.63l0,10.63m1370.08,-10.63l-0,-10.63m-0,10.63l-0,10.63m-1370.08,-10.63l-10.63,-0m1380.71,-0l10.63,-0" style="fill:none;fill-rule:nonzero;stroke:#000;stroke-width:0.94px;"/><path d="M230.407,38.424l1370.08,-0m-1287.87,80.197l12.756,-12.756m1180.16,12.756l12.756,-12.756m-1199.29,6.378l-0,-10.63m-0,10.63l-0,10.629m1192.91,-10.629l0,-10.63m0,10.63l0,10.629m-1192.91,-10.629l-10.63,-0m1203.54,-0l10.63,-0" style="fill:none;fill-rule:nonzero;stroke:#000;stroke-width:0.94px;"/><path d="M318.99,112.243l1192.91,-0m-1396.26,861.349l-12.757,-12.756m12.757,-689.037l-12.757,-12.756m6.379,708.171l-10.63,-0m10.63,-0l10.629,-0m-10.629,-701.793l-10.63,-0m10.63,-0l10.629,-0m-10.629,701.793l-0,10.63m-0,-712.423l-0,-10.63" style="fill:none;fill-rule:nonzero;stroke:#000;stroke-width:0.94px;"/><g transform="matrix(0,-1,1,0,-2195.09,-2869.57)"><text x="-3524.68px" y="2225.86px" style="font-family:'LucidaGrande', 'Lucida Grande', sans-serif;font-weight:500;font-size:41.538px;">3<tspan x="-3501.1px -3490.64px -3467.06px " y="2225.86px 2225.86px 2225.86px ">.00</tspan></text></g><g transform="matrix(4.16667,0,0,4.16667,-2532.33,-337.239)"><text x="817.956px" y="88.327px" style="font-family:'LucidaGrande', 'Lucida Grande', sans-serif;font-weight:500;font-size:9.969px;">4<tspan x="823.615px 826.124px 831.783px " y="88.327px 88.327px 88.327px ">.65</tspan></text><text x="802.5px" y="104.676px" style="font-family:'LucidaGrande', 'Lucida Grande', sans-serif;font-weight:500;font-size:9.969px;">4<tspan x="808.237px 810.824px 816.56px " y="104.676px 104.676px 104.676px ">.05</tspan></text><text x="826.874px" y="104.676px" style="font-family:'LucidaGrande', 'Lucida Grande', sans-serif;font-weight:500;font-size:9.969px;">(<tspan x="829.549px 835.286px 837.873px 843.61px 849.346px " y="104.676px 104.676px 104.676px 104.676px 104.676px ">4.00)</tspan></text></g><g transform="matrix(0,-1,1,0,-2195.09,-2869.57)"><text x="-3595.05px" y="2291.02px" style="font-family:'LucidaGrande', 'Lucida Grande', sans-serif;font-weight:500;font-size:41.538px;">2<tspan x="-3571.15px -3560.37px -3536.47px -3512.56px -3483.19px -3472.04px -3448.14px -3437.36px -3413.46px -3389.55px " y="2291.02px 2291.02px 2291.02px 2291.02px 2291.02px 2291.02px 2291.02px 2291.02px 2291.02px 2291.02px ">.40	(2.35)</tspan></text></g><text x="815.89px" y="905.206px" style="font-family:'LucidaGrande', 'Lucida Grande', sans-serif;font-weight:500;font-size:58.153px;">8<tspan x="848.916px 863.572px 896.599px 929.625px 944.281px 994.827px " y="905.206px 905.206px 905.206px 905.206px 905.206px 905.206px ">.50 m²</tspan></text><path d="M109.27,967.214l-0,-701.793" style="fill:none;fill-rule:nonzero;stroke:#000;stroke-width:0.94px;"/><path d="M1015.83,920.363l5.982,-0.523l5.8,-1.554l5.442,-2.538l4.919,-3.444l4.246,-4.246l3.445,-4.919l2.537,-5.442l1.554,-5.8l0.524,-5.982l-0.524,-5.983l-1.554,-5.8l-2.537,-5.442l-3.445,-4.919l-4.246,-4.246l-4.919,-3.444l-5.442,-2.538l-5.8,-1.554l-5.982,-0.523l-199.936,-0l-5.982,0.523l-5.8,1.554l-5.442,2.538l-4.919,3.444l-4.246,4.246l-3.444,4.919l-2.538,5.442l-1.554,5.8l-0.523,5.983l0.523,5.982l1.554,5.8l2.538,5.442l3.444,4.919l4.246,4.246l4.919,3.444l5.442,2.538l5.8,1.554l5.982,0.523l199.936,0" style="fill:none;fill-rule:nonzero;stroke:#000;stroke-width:0.94px;"/></svg>