<?xml version="1.0" encoding="UTF-8" standalone="no"?>
<!DOCTYPE svg PUBLIC "-//W3C//DTD SVG 1.1//EN" "http://www.w3.org/Graphics/SVG/1.1/DTD/svg11.dtd">
<svg width="100%" height="100%" viewBox="0 0 4961 3508" version="1.1" xmlns="http://www.w3.org/2000/svg" xmlns:xlink="http://www.w3.org/1999/xlink" xml:space="preserve" xmlns:serif="http://www.serif.com/" style="fill-rule:evenodd;clip-rule:evenodd;stroke-linecap:round;stroke-linejoin:round;stroke-miterlimit:10;">
    <g transform="matrix(4.16667,0,0,4.16667,0,1573.43)">
        <path d="M484.572,210.874L476.068,210.874L476.068,253.393L477.357,253.393L478.596,253.339L479.825,253.177L481.035,252.909L482.218,252.536L483.363,252.062L484.463,251.489L485.509,250.823L486.492,250.068L487.406,249.231L488.244,248.317L488.999,247.333L489.665,246.287L490.237,245.188L490.712,244.042L491.085,242.86L491.353,241.649L491.515,240.42L491.569,239.181L484.572,239.181L484.572,210.874Z" style="fill:white;fill-rule:nonzero;"/>
    </g>
    <g transform="matrix(4.16667,0,0,4.16667,0,1573.43)">
        <path d="M702.84,239.181L695.843,239.181L695.897,240.42L696.059,241.649L696.327,242.86L696.7,244.042L697.175,245.188L697.747,246.287L698.413,247.333L699.168,248.317L700.006,249.231L700.92,250.068L701.903,250.823L702.949,251.489L704.049,252.062L705.194,252.536L706.377,252.909L707.587,253.177L708.816,253.339L710.055,253.393L711.344,253.393L711.344,210.874L702.84,210.874L702.84,239.181Z" style="fill:white;fill-rule:nonzero;"/>
    </g>
    <g transform="matrix(2.94628,-2.94628,-2.94628,-2.94628,1233.46,4669.22)">
        <path d="M474.413,217.98C479.964,212.43 488.962,212.43 494.512,217.98" style="fill:none;fill-rule:nonzero;stroke:black;stroke-width:0.99px;"/>
    </g>
    <g transform="matrix(4.16667,0,0,4.16667,0,1573.43)">
        <path d="M491.569,239.181L484.572,239.181M477.357,253.393L476.068,253.393M484.572,210.874L476.068,210.874M484.572,210.874L484.572,239.181" style="fill:none;fill-rule:nonzero;stroke:black;stroke-width:0.99px;"/>
    </g>
    <g transform="matrix(2.94628,2.94628,2.94628,-2.94628,215.641,1170.77)">
        <path d="M692.9,217.98C698.45,212.43 707.448,212.43 712.999,217.98" style="fill:none;fill-rule:nonzero;stroke:black;stroke-width:0.99px;"/>
    </g>
    <g transform="matrix(4.16667,0,0,4.16667,0,1573.43)">
        <path d="M695.843,239.181L702.84,239.181M710.055,253.393L711.344,253.393M702.84,210.874L711.344,210.874M702.84,210.874L702.84,239.181M484.572,239.181L494.493,239.181L494.493,229.26L484.572,229.26L484.572,239.181M494.493,239.181L504.415,239.181L504.415,229.26L494.493,229.26L494.493,239.181M695.843,239.181L702.84,239.181L692.919,239.181L692.919,229.26L702.84,229.26L702.84,239.181M692.919,239.181L682.997,239.181L682.997,229.26L692.919,229.26L692.919,239.181M596.63,239.181L603.627,239.181M596.63,239.181L603.627,239.181L593.706,239.181L593.706,229.26L603.627,229.26L603.627,239.181M593.706,239.181L583.785,239.181L583.785,229.26L593.706,229.26L593.706,239.181M583.785,239.181L504.415,239.181L504.415,229.26L583.785,229.26L583.785,239.181M682.997,239.181L603.627,239.181L603.627,229.26L682.997,229.26L682.997,239.181M494.493,239.181L504.415,239.181L504.415,229.26L494.493,229.26L494.493,239.181M504.415,234.221L583.785,234.221M603.627,234.221L682.997,234.221M494.493,249.103L495.496,249.103M497.48,249.103L503.15,249.103" style="fill:none;fill-rule:nonzero;stroke:black;stroke-width:0.99px;"/>
    </g>
    <g transform="matrix(2.94631,-2.94625,-2.94625,-2.94631,1237.39,4702.2)">
        <rect x="494.143" y="214.814" width="0.702" height="0.702"/>
    </g>
    <g transform="matrix(2.94628,-2.94628,-2.94628,-2.94628,1249.52,4731.44)">
        <rect x="504.064" y="214.814" width="0.702" height="0.702"/>
    </g>
    <g transform="matrix(4.16667,0,0,4.16667,0,1673.5)">
        <path d="M504.415,225.086L504.415,220.282M504.415,218.297L504.415,215.164" style="fill:none;fill-rule:nonzero;stroke:black;stroke-width:0.99px;"/>
    </g>
    <g transform="matrix(-2.94628,-2.94628,-2.94628,2.94628,4221.81,3463.57)">
        <rect x="504.064" y="214.814" width="0.702" height="0.702"/>
    </g>
    <g transform="matrix(-2.94628,-2.94628,-2.94628,2.94628,4251.04,3393)">
        <rect x="504.064" y="224.735" width="0.702" height="0.702"/>
    </g>
    <g transform="matrix(4.16667,0,0,4.16667,0,1632.16)">
        <path d="M494.493,225.086L495.496,225.086M497.48,225.086L503.15,225.086" style="fill:none;fill-rule:nonzero;stroke:black;stroke-width:0.99px;"/>
    </g>
    <g transform="matrix(2.94628,-2.94628,-2.94628,-2.94628,1266.64,4690.1)">
        <rect x="494.143" y="224.735" width="0.702" height="0.702"/>
    </g>
    <g transform="matrix(2.94625,-2.94631,-2.94631,-2.94625,1278.77,4719.34)">
        <rect x="504.064" y="224.735" width="0.702" height="0.702"/>
    </g>
    <g transform="matrix(4.16667,0,0,4.16667,0,1673.5)">
        <path d="M494.493,225.086L494.493,220.282M494.493,218.297L494.493,215.164" style="fill:none;fill-rule:nonzero;stroke:black;stroke-width:0.99px;"/>
    </g>
    <g transform="matrix(-2.94631,-2.94625,-2.94625,2.94631,4151.25,3434.32)">
        <rect x="494.143" y="214.814" width="0.702" height="0.702"/>
    </g>
    <g transform="matrix(-2.94631,-2.94625,-2.94625,2.94631,4180.48,3363.75)">
        <rect x="494.143" y="224.735" width="0.702" height="0.702"/>
    </g>
    <g transform="matrix(4.16667,0,0,4.16667,0,2427.4)">
        <path d="M494.493,129.657L495.496,129.657M497.48,129.657L503.15,129.657" style="fill:none;fill-rule:nonzero;stroke:black;stroke-width:0.99px;"/>
    </g>
    <g transform="matrix(4.16667,0,0,4.16667,0,2426.55)">
        <path d="M493.997,129.862L494.493,129.366L494.989,129.862L494.699,130.153L494.288,130.153L493.997,129.862Z" style="fill-rule:nonzero;"/>
    </g>
    <g transform="matrix(4.16667,0,0,4.16667,0,2426.55)">
        <path d="M503.919,129.862L504.415,129.366L504.911,129.862L504.62,130.153L504.209,130.153L503.919,129.862Z" style="fill-rule:nonzero;"/>
    </g>
    <g transform="matrix(4.16667,0,0,4.16667,0,2384.17)">
        <path d="M504.415,139.578L504.415,133.909M504.415,131.924L504.415,130.11" style="fill:none;fill-rule:nonzero;stroke:black;stroke-width:0.99px;"/>
    </g>
    <g transform="matrix(4.16667,0,0,4.16667,0,2426.55)">
        <path d="M504.209,130.153L503.919,129.862L504.415,129.366L504.911,129.862L504.62,130.153L504.209,130.153Z" style="fill-rule:nonzero;"/>
    </g>
    <g transform="matrix(-2.94628,-2.94628,-2.94628,2.94628,3999.11,4001.21)">
        <rect x="504.064" y="139.227" width="0.702" height="0.702"/>
    </g>
    <g transform="matrix(4.16667,0,0,4.16667,0,2344.72)">
        <path d="M494.493,139.578L495.496,139.578M497.48,139.578L503.15,139.578" style="fill:none;fill-rule:nonzero;stroke:black;stroke-width:0.99px;"/>
    </g>
    <g transform="matrix(2.94628,-2.94628,-2.94628,-2.94628,1014.71,4794.45)">
        <rect x="494.143" y="139.227" width="0.702" height="0.702"/>
    </g>
    <g transform="matrix(2.94625,-2.94631,-2.94631,-2.94625,1026.84,4823.69)">
        <rect x="504.064" y="139.227" width="0.702" height="0.702"/>
    </g>
    <g transform="matrix(4.16667,0,0,4.16667,0,2384.17)">
        <path d="M494.493,139.578L494.493,133.909M494.493,131.924L494.493,130.11" style="fill:none;fill-rule:nonzero;stroke:black;stroke-width:0.99px;"/>
    </g>
    <g transform="matrix(4.16667,0,0,4.16667,0,2426.55)">
        <path d="M494.288,130.153L493.997,129.862L494.493,129.366L494.989,129.862L494.699,130.153L494.288,130.153Z" style="fill-rule:nonzero;"/>
    </g>
    <g transform="matrix(-2.94631,-2.94625,-2.94625,2.94631,3928.55,3971.96)">
        <rect x="494.143" y="139.227" width="0.702" height="0.702"/>
    </g>
    <g transform="matrix(4.16667,0,0,4.16667,0,1714.84)">
        <path d="M505.134,215.164L510.803,215.164M512.787,215.164L514.336,215.164" style="fill:none;fill-rule:nonzero;stroke:black;stroke-width:0.99px;"/>
    </g>
    <g transform="matrix(2.94628,-2.94628,-2.94628,-2.94628,1249.52,4731.44)">
        <rect x="504.064" y="214.814" width="0.702" height="0.702"/>
    </g>
    <g transform="matrix(2.94622,-2.94634,-2.94634,-2.94622,1261.67,4760.69)">
        <rect x="513.985" y="214.814" width="0.702" height="0.702"/>
    </g>
    <g transform="matrix(4.16667,0,0,4.16667,0,1673.5)">
        <path d="M514.336,225.086L514.336,220.282M514.336,218.297L514.336,215.164" style="fill:none;fill-rule:nonzero;stroke:black;stroke-width:0.99px;"/>
    </g>
    <g transform="matrix(-2.94622,-2.94634,-2.94634,2.94622,4292.36,3492.84)">
        <rect x="513.985" y="214.814" width="0.702" height="0.702"/>
    </g>
    <g transform="matrix(-2.94622,-2.94634,-2.94634,2.94622,4321.59,3422.27)">
        <rect x="513.985" y="224.735" width="0.702" height="0.702"/>
    </g>
    <g transform="matrix(4.16667,0,0,4.16667,0,1632.16)">
        <path d="M505.134,225.086L510.803,225.086M512.787,225.086L514.336,225.086" style="fill:none;fill-rule:nonzero;stroke:black;stroke-width:0.99px;"/>
    </g>
    <g transform="matrix(2.94625,-2.94631,-2.94631,-2.94625,1278.77,4719.34)">
        <rect x="504.064" y="224.735" width="0.702" height="0.702"/>
    </g>
    <g transform="matrix(2.94619,-2.94637,-2.94637,-2.94619,1290.92,4748.59)">
        <rect x="513.985" y="224.735" width="0.702" height="0.702"/>
    </g>
    <g transform="matrix(4.16667,0,0,4.16667,0,1673.5)">
        <path d="M504.415,225.086L504.415,220.282M504.415,218.297L504.415,215.164" style="fill:none;fill-rule:nonzero;stroke:black;stroke-width:0.99px;"/>
    </g>
    <g transform="matrix(-2.94628,-2.94628,-2.94628,2.94628,4221.81,3463.57)">
        <rect x="504.064" y="214.814" width="0.702" height="0.702"/>
    </g>
    <g transform="matrix(-2.94628,-2.94628,-2.94628,2.94628,4251.04,3393)">
        <rect x="504.064" y="224.735" width="0.702" height="0.702"/>
    </g>
    <g transform="matrix(4.16667,0,0,4.16667,0,2427.4)">
        <path d="M505.134,129.657L510.803,129.657M512.787,129.657L514.336,129.657" style="fill:none;fill-rule:nonzero;stroke:black;stroke-width:0.99px;"/>
    </g>
    <g transform="matrix(4.16667,0,0,4.16667,0,2426.55)">
        <path d="M503.919,129.862L504.415,129.366L504.911,129.862L504.62,130.153L504.209,130.153L503.919,129.862Z" style="fill-rule:nonzero;"/>
    </g>
    <g transform="matrix(4.16667,0,0,4.16667,0,2426.55)">
        <path d="M513.84,129.862L514.336,129.366L514.832,129.862L514.541,130.153L514.131,130.153L513.84,129.862Z" style="fill-rule:nonzero;"/>
    </g>
    <g transform="matrix(4.16667,0,0,4.16667,0,2384.17)">
        <path d="M514.336,139.578L514.336,133.909M514.336,131.924L514.336,130.11" style="fill:none;fill-rule:nonzero;stroke:black;stroke-width:0.99px;"/>
    </g>
    <g transform="matrix(4.16667,0,0,4.16667,0,2426.55)">
        <path d="M514.131,130.153L513.84,129.862L514.336,129.366L514.832,129.862L514.541,130.153L514.131,130.153Z" style="fill-rule:nonzero;"/>
    </g>
    <g transform="matrix(-2.94622,-2.94634,-2.94634,2.94622,4069.66,4030.48)">
        <rect x="513.985" y="139.227" width="0.702" height="0.702"/>
    </g>
    <g transform="matrix(4.16667,0,0,4.16667,0,2344.72)">
        <path d="M505.134,139.578L510.803,139.578M512.787,139.578L514.336,139.578" style="fill:none;fill-rule:nonzero;stroke:black;stroke-width:0.99px;"/>
    </g>
    <g transform="matrix(2.94625,-2.94631,-2.94631,-2.94625,1026.84,4823.69)">
        <rect x="504.064" y="139.227" width="0.702" height="0.702"/>
    </g>
    <g transform="matrix(2.94619,-2.94637,-2.94637,-2.94619,1038.98,4852.95)">
        <rect x="513.985" y="139.227" width="0.702" height="0.702"/>
    </g>
    <g transform="matrix(4.16667,0,0,4.16667,0,2384.17)">
        <path d="M504.415,139.578L504.415,133.909M504.415,131.924L504.415,130.11" style="fill:none;fill-rule:nonzero;stroke:black;stroke-width:0.99px;"/>
    </g>
    <g transform="matrix(4.16667,0,0,4.16667,0,2426.55)">
        <path d="M504.209,130.153L503.919,129.862L504.415,129.366L504.911,129.862L504.62,130.153L504.209,130.153Z" style="fill-rule:nonzero;"/>
    </g>
    <g transform="matrix(-2.94628,-2.94628,-2.94628,2.94628,3999.11,4001.21)">
        <rect x="504.064" y="139.227" width="0.702" height="0.702"/>
    </g>
    <g transform="matrix(4.16667,0,0,4.16667,0,2027.89)">
        <path d="M494.493,225.086L494.493,219.416M494.493,217.432L494.493,211.763M494.493,209.779L494.493,204.109M494.493,202.125L494.493,196.456M494.493,194.472L494.493,188.802M494.493,186.818L494.493,181.149M494.493,179.164L494.493,173.495M494.493,171.511L494.493,165.842M494.493,163.857L494.493,158.188M494.493,156.204L494.493,150.535M494.493,148.55L494.493,142.881M494.493,140.897L494.493,135.227M494.493,133.243L494.493,130.11" style="fill:none;fill-rule:nonzero;stroke:black;stroke-width:0.99px;"/>
    </g>
    <g transform="matrix(4.16667,0,0,4.16667,0,2426.55)">
        <path d="M494.288,130.153L493.997,129.862L494.493,129.366L494.989,129.862L494.699,130.153L494.288,130.153Z" style="fill-rule:nonzero;"/>
    </g>
    <g transform="matrix(-2.94631,-2.94625,-2.94625,2.94631,4180.48,3363.75)">
        <rect x="494.143" y="224.735" width="0.702" height="0.702"/>
    </g>
    <g transform="matrix(4.16667,0,0,4.16667,0,2029.78)">
        <path d="M504.415,215.164L504.415,211.309M504.415,209.325L504.415,203.656M504.415,201.672L504.415,196.002M504.415,194.018L504.415,188.349M504.415,186.365L504.415,180.695M504.415,178.711L504.415,173.042M504.415,171.057L504.415,165.388M504.415,163.404L504.415,157.735M504.415,155.75L504.415,150.081M504.415,148.097L504.415,142.428M504.415,140.443L504.415,139.578" style="fill:none;fill-rule:nonzero;stroke:black;stroke-width:0.99px;"/>
    </g>
    <g transform="matrix(-2.94628,-2.94628,-2.94628,2.94628,3999.11,4001.21)">
        <rect x="504.064" y="139.227" width="0.702" height="0.702"/>
    </g>
    <g transform="matrix(-2.94628,-2.94628,-2.94628,2.94628,4221.81,3463.57)">
        <rect x="504.064" y="214.814" width="0.702" height="0.702"/>
    </g>
    <g transform="matrix(4.16667,0,0,4.16667,0,2027.89)">
        <path d="M504.415,225.086L504.415,219.416M504.415,217.432L504.415,211.763M504.415,209.779L504.415,204.109M504.415,202.125L504.415,196.456M504.415,194.472L504.415,188.802M504.415,186.818L504.415,181.149M504.415,179.164L504.415,173.495M504.415,171.511L504.415,165.842M504.415,163.857L504.415,158.188M504.415,156.204L504.415,150.535M504.415,148.55L504.415,142.881M504.415,140.897L504.415,135.227M504.415,133.243L504.415,130.11" style="fill:none;fill-rule:nonzero;stroke:black;stroke-width:0.99px;"/>
    </g>
    <g transform="matrix(4.16667,0,0,4.16667,0,2426.55)">
        <path d="M504.209,130.153L503.919,129.862L504.415,129.366L504.911,129.862L504.62,130.153L504.209,130.153Z" style="fill-rule:nonzero;"/>
    </g>
    <g transform="matrix(-2.94628,-2.94628,-2.94628,2.94628,4251.04,3393)">
        <rect x="504.064" y="224.735" width="0.702" height="0.702"/>
    </g>
    <g transform="matrix(4.16667,0,0,4.16667,0,2029.78)">
        <path d="M514.336,215.164L514.336,211.309M514.336,209.325L514.336,203.656M514.336,201.672L514.336,196.002M514.336,194.018L514.336,188.349M514.336,186.365L514.336,180.695M514.336,178.711L514.336,173.042M514.336,171.057L514.336,165.388M514.336,163.404L514.336,157.735M514.336,155.75L514.336,150.081M514.336,148.097L514.336,142.428M514.336,140.443L514.336,139.578" style="fill:none;fill-rule:nonzero;stroke:black;stroke-width:0.99px;"/>
    </g>
    <g transform="matrix(-2.94622,-2.94634,-2.94634,2.94622,4069.66,4030.48)">
        <rect x="513.985" y="139.227" width="0.702" height="0.702"/>
    </g>
    <g transform="matrix(-2.94622,-2.94634,-2.94634,2.94622,4292.36,3492.84)">
        <rect x="513.985" y="214.814" width="0.702" height="0.702"/>
    </g>
    <g transform="matrix(4.16667,0,0,4.16667,0,870.673)">
        <path d="M478.596,422.001L710.055,422.055M522.84,210.874L523.012,215.817L523.529,220.736L523.781,222.16M524.273,224.952L524.388,225.608L525.585,230.407L527.114,235.111L527.406,235.834M528.468,238.463L528.967,239.698L531.135,244.143L533.608,248.427M535.257,250.872L536.374,252.528L539.419,256.426L542.36,259.691M544.371,261.687L546.287,263.538L550.076,266.717L553.093,268.909M555.449,270.481L558.273,272.246L562.64,274.568L565.438,275.813M568.053,276.905L571.807,278.271L576.562,279.635L578.906,280.133M581.682,280.703L586.298,281.352L591.233,281.697L592.963,281.697M595.798,281.697L596.179,281.697L601.114,281.352L606.012,280.663L607.053,280.442M609.826,279.853L610.85,279.635L615.605,278.271L620.253,276.58L620.617,276.417M623.207,275.265L624.772,274.568L629.139,272.246L633.107,269.766M635.411,268.115L637.336,266.717L641.125,263.538L644.012,260.75M645.955,258.688L647.993,256.426L651.038,252.528L652.91,249.753M654.422,247.357L656.277,244.143L658.445,239.698L659.45,237.211M660.474,234.569L661.827,230.407L663.024,225.608L663.374,223.623M663.866,220.831L663.882,220.736" style="fill:none;fill-rule:nonzero;stroke:black;stroke-width:0.99px;"/>
    </g>
    <g transform="matrix(4.16667,0,0,4.16667,0,-263.25)">
        <path d="M663.882,492.878L664.399,487.959L664.572,483.015L664.525,481.666M664.426,478.833L664.399,478.072L663.882,473.152L663.024,468.281L662.858,467.618M662.172,464.867L661.827,463.482L660.298,458.777L658.445,454.191M657.195,451.628L656.277,449.746L653.804,445.462L651.4,441.898M649.692,439.638L647.993,437.463L644.683,433.787L642.07,431.264M639.96,429.374L637.336,427.172L633.334,424.264L630.818,422.693M628.384,421.242L624.772,419.321L620.253,417.309L618.091,416.522M615.423,415.565L610.85,414.254L606.012,413.226L604.393,412.998M601.586,412.604L601.114,412.537L596.179,412.192L591.233,412.192L590.267,412.26M587.439,412.457L586.298,412.537L581.4,413.226L576.562,414.254L576.271,414.337M573.546,415.119L571.807,415.617L567.159,417.309L562.972,419.173M560.458,420.481L558.273,421.643L554.078,424.264L550.909,426.567M548.693,428.332L546.287,430.351L542.729,433.787L540.554,436.204M538.718,438.361L536.374,441.361L533.608,445.462L532.315,447.701M530.927,450.171L528.967,454.191L527.114,458.777L526.52,460.603M525.644,463.299L525.585,463.482L524.388,468.281" style="fill:none;fill-rule:nonzero;stroke:black;stroke-width:0.99px;"/>
    </g>
    <g transform="matrix(4.16667,0,0,4.16667,0,-70.6399)">
        <path d="M524.388,422.055L523.529,426.926L523.399,428.173M523.102,430.992L523.012,431.845L522.84,436.789" style="fill:none;fill-rule:nonzero;stroke:black;stroke-width:0.99px;"/>
    </g>
    <g transform="matrix(-4.16667,0,0,4.16667,4947.55,-1591.93)">
        <rect x="476.068" y="590.716" width="235.276" height="42.52" style="fill:white;"/>
    </g>
    <g transform="matrix(4.16667,0,0,4.16667,0,-9.24867)">
        <path d="M476.068,210.874L470.538,210.874L459.493,211.453L448.494,212.609L437.57,214.339L426.752,216.638L416.069,219.501L405.55,222.919L395.225,226.882L385.121,231.381L375.267,236.402L365.689,241.932L356.413,247.955L347.465,254.456L338.87,261.416L330.651,268.817L322.83,276.638L315.43,284.857L308.47,293.452L301.969,302.4L295.945,311.675L290.415,321.253L285.394,331.108L280.895,341.212L276.932,351.537L273.514,362.056L270.652,372.739L268.352,383.557L266.622,394.481L265.466,405.48L264.887,416.525L264.887,427.585L265.466,438.63L266.622,449.629L268.352,460.553L270.652,471.371L273.514,482.054L276.932,492.573L280.895,502.898L285.394,513.002L290.415,522.856L295.945,532.435L301.969,541.71L308.47,550.658L315.43,559.253L322.83,567.472L330.651,575.293L338.87,582.693L347.465,589.654L356.413,596.154L365.689,602.178L375.267,607.708L385.121,612.729L395.225,617.228L405.55,621.191L416.069,624.609L426.752,627.471L437.57,629.771L448.494,631.501L459.493,632.657L470.538,633.236L476.068,633.236L476.068,590.716L471.652,590.716L462.831,590.254L454.046,589.331L445.322,587.949L436.681,586.112L428.149,583.826L419.749,581.097L411.502,577.931L403.433,574.338L395.562,570.328L387.913,565.912L380.505,561.101L373.358,555.909L366.494,550.35L359.93,544.439L353.684,538.194L347.773,531.629L342.214,524.765L337.022,517.618L332.211,510.21L327.795,502.561L323.785,494.69L320.192,486.621L317.026,478.374L314.297,469.974L312.011,461.442L310.174,452.801L308.792,444.077L307.869,435.292L307.407,426.471L307.407,417.638L307.869,408.817L308.792,400.033L310.174,391.308L312.011,382.668L314.297,374.136L317.026,365.735L320.192,357.489L323.785,349.419L327.795,341.549L332.211,333.899L337.022,326.491L342.214,319.345L347.773,312.48L353.684,305.916L359.93,299.67L366.494,293.76L373.358,288.201L380.505,283.009L387.913,278.198L395.562,273.781L403.433,269.771L411.502,266.179L419.749,263.013L428.149,260.284L436.681,257.997L445.322,256.161L454.046,254.779L462.831,253.856L471.652,253.393L476.068,253.393L476.068,210.874Z" style="fill:white;fill-rule:nonzero;"/>
    </g>
    <g transform="matrix(4.16667,0,0,4.16667,0,-9.24867)">
        <path d="M716.874,210.874L711.344,210.874L711.344,253.393L715.76,253.393L724.581,253.856L733.366,254.779L742.09,256.161L750.731,257.997L759.263,260.284L767.663,263.013L775.91,266.179L783.979,269.771L791.85,273.781L799.499,278.198L806.907,283.009L814.054,288.201L820.918,293.76L827.482,299.67L833.728,305.916L839.639,312.48L845.198,319.345L850.39,326.491L855.201,333.899L859.617,341.549L863.627,349.419L867.22,357.489L870.386,365.735L873.115,374.136L875.401,382.668L877.238,391.308L878.62,400.033L879.543,408.817L880.005,417.638L880.005,426.471L879.543,435.292L878.62,444.077L877.238,452.801L875.401,461.442L873.115,469.974L870.386,478.374L867.22,486.621L863.627,494.69L859.617,502.561L855.201,510.21L850.39,517.618L845.198,524.765L839.639,531.629L833.728,538.194L827.482,544.439L820.918,550.35L814.054,555.909L806.907,561.101L799.499,565.912L791.85,570.328L783.979,574.338L775.91,577.931L767.663,581.097L759.263,583.826L750.731,586.112L742.09,587.949L733.366,589.331L724.581,590.254L715.76,590.716L711.344,590.716L711.344,633.236L716.874,633.236L727.919,632.657L738.918,631.501L749.842,629.771L760.66,627.471L771.343,624.609L781.862,621.191L792.187,617.228L802.291,612.729L812.145,607.708L821.723,602.178L830.999,596.154L839.947,589.654L848.542,582.693L856.761,575.293L864.582,567.472L871.982,559.253L878.942,550.658L885.443,541.71L891.467,532.435L896.997,522.856L902.018,513.002L906.517,502.898L910.48,492.573L913.898,482.054L916.76,471.371L919.06,460.553L920.79,449.629L921.946,438.63L922.525,427.585L922.525,416.525L921.946,405.48L920.79,394.481L919.06,383.557L916.76,372.739L913.898,362.056L910.48,351.537L906.517,341.212L902.018,331.108L896.997,321.253L891.467,311.675L885.443,302.4L878.942,293.452L871.982,284.857L864.582,276.638L856.761,268.817L848.542,261.416L839.947,254.456L830.999,247.955L821.723,241.932L812.145,236.402L802.291,231.381L792.187,226.882L781.862,222.919L771.343,219.501L760.66,216.638L749.842,214.339L738.918,212.609L727.919,211.453L716.874,210.874Z" style="fill:white;fill-rule:nonzero;"/>
    </g>
    <g transform="matrix(4.16667,0,0,4.16667,0,-190.842)">
        <path d="M711.344,254.456L476.068,254.456M476.068,296.976L711.344,296.976M476.068,254.456L470.538,254.456L459.493,255.035L448.494,256.191L437.57,257.921L426.752,260.221L416.069,263.083L405.55,266.501L395.225,270.465L385.121,274.963L375.267,279.984L365.689,285.514L356.413,291.538L347.465,298.039L338.87,304.999L330.651,312.399L322.83,320.22L315.43,328.439L308.47,337.034L301.969,345.982L295.945,355.258L290.415,364.836L285.394,374.69L280.895,384.794L276.932,395.119L273.514,405.638L270.652,416.321L268.352,427.139L266.622,438.063L265.466,449.063L264.887,460.107L264.887,471.167L265.466,482.212L266.622,493.211L268.352,504.135L270.652,514.953L273.514,525.637L276.932,536.155L280.895,546.481L285.394,556.584L290.415,566.439L295.945,576.017L301.969,585.293L308.47,594.24L315.43,602.835L322.83,611.055L330.651,618.875L338.87,626.276L347.465,633.236" style="fill:none;fill-rule:nonzero;stroke:black;stroke-width:0.99px;"/>
    </g>
    <g transform="matrix(4.16667,0,0,4.16667,0,636.008)">
        <path d="M347.465,434.792L356.413,441.293L365.689,447.317L375.267,452.847L385.121,457.868L395.225,462.366L405.55,466.33L416.069,469.747L426.752,472.61L437.57,474.909L448.494,476.64L459.493,477.796L470.538,478.374L476.068,478.374M476.068,435.855L471.652,435.855L462.831,435.392L454.046,434.469L445.322,433.087L436.681,431.251L428.149,428.965L419.749,426.235L411.502,423.07L403.433,419.477L395.562,415.467L387.913,411.05L380.505,406.239L373.358,401.047L366.494,395.489L359.93,389.578L353.684,383.332L347.773,376.768L342.214,369.903L337.022,362.757L332.211,355.349L327.795,347.699L323.785,339.829L320.192,331.759L317.026,323.513L314.297,315.112L312.011,306.58L310.174,297.94L308.792,289.216L307.869,280.431L307.407,271.61L307.407,262.777L307.869,253.956L308.792,245.171L310.174,236.447L312.011,227.807L314.297,219.275L317.026,210.874" style="fill:none;fill-rule:nonzero;stroke:black;stroke-width:0.99px;"/>
    </g>
    <g transform="matrix(4.16667,0,0,4.16667,0,-1088.83)">
        <path d="M317.026,624.835L320.192,616.589L323.785,608.519L327.795,600.649L332.211,592.999L337.022,585.591L342.214,578.445L347.773,571.58L353.684,565.016L359.93,558.77L366.494,552.86L373.358,547.301L380.505,542.109L387.913,537.298L395.562,532.881L403.433,528.871L411.502,525.279L419.749,522.113L428.149,519.383L436.681,517.097L445.322,515.261L454.046,513.879L462.831,512.956L471.652,512.493L476.068,512.493M716.874,469.974L711.344,469.974M711.344,512.493L715.76,512.493L724.581,512.956L733.366,513.879L742.09,515.261L750.731,517.097L759.263,519.383L767.663,522.113L775.91,525.279L783.979,528.871L791.85,532.881L799.499,537.298L806.907,542.109L814.054,547.301L820.918,552.86L827.482,558.77L833.728,565.016L839.639,571.58L845.198,578.445L850.39,585.591L855.201,592.999L859.617,600.649L863.627,608.519L867.22,616.589L870.386,624.835L873.115,633.236" style="fill:none;fill-rule:nonzero;stroke:black;stroke-width:0.99px;"/>
    </g>
    <g transform="matrix(4.16667,0,0,4.16667,0,671.011)">
        <path d="M873.115,210.874L875.401,219.406L877.238,228.046L878.62,236.77L879.543,245.555L880.005,254.376L880.005,263.209L879.543,272.03L878.62,280.815L877.238,289.539L875.401,298.179L873.115,306.711L870.386,315.112L867.22,323.359L863.627,331.428L859.617,339.298L855.201,346.948L850.39,354.356L845.198,361.502L839.639,368.367L833.728,374.931L827.482,381.177L820.918,387.088L814.054,392.647L806.907,397.839L799.499,402.649L791.85,407.066L783.979,411.076L775.91,414.669L767.663,417.834L759.263,420.564L750.731,422.85L742.09,424.687L733.366,426.068L724.581,426.992L715.76,427.454L711.344,427.454M711.344,469.974L716.874,469.974L727.919,469.395L738.918,468.239L749.842,466.509L760.66,464.209L771.343,461.347L781.862,457.929L792.187,453.965L802.291,449.467L812.145,444.446L821.723,438.916L830.999,432.892L839.947,426.391L848.542,419.431" style="fill:none;fill-rule:nonzero;stroke:black;stroke-width:0.99px;"/>
    </g>
    <g transform="matrix(4.16667,0,0,4.16667,0,-9.24867)">
        <path d="M848.542,582.693L856.761,575.293L864.582,567.472L871.982,559.253L878.942,550.658L885.443,541.71L891.467,532.435L896.997,522.856L902.018,513.002L906.517,502.898L910.48,492.573L913.898,482.054L916.76,471.371L919.06,460.553L920.79,449.629L921.946,438.63L922.525,427.585L922.525,416.525L921.946,405.48L920.79,394.481L919.06,383.557L916.76,372.739L913.898,362.056L910.48,351.537L906.517,341.212L902.018,331.108L896.997,321.253L891.467,311.675L885.443,302.4L878.942,293.452L871.982,284.857L864.582,276.638L856.761,268.817L848.542,261.416L839.947,254.456L830.999,247.955L821.723,241.932L812.145,236.402L802.291,231.381L792.187,226.882L781.862,222.919L771.343,219.501L760.66,216.638L749.842,214.339L738.918,212.609L727.919,211.453L716.874,210.874M175.787,636.297L169.664,630.175M175.787,213.935L169.664,207.812M172.725,633.236L167.623,633.236M172.725,633.236L177.828,633.236" style="fill:none;fill-rule:nonzero;stroke:black;stroke-width:0.99px;"/>
    </g>
    <g transform="matrix(4.16667,0,0,4.16667,0,-9.24867)">
        <path d="M172.725,210.874L167.623,210.874M172.725,210.874L177.828,210.874M172.725,633.236L172.725,638.338M172.725,210.874L172.725,205.771" style="fill:none;fill-rule:nonzero;stroke:black;stroke-width:0.99px;"/>
    </g>
    <g transform="matrix(4.16667,0,0,4.16667,0,-305.411)">
        <path d="M172.725,704.315L172.725,281.953M261.826,219.037L267.948,212.915M919.463,219.037L925.586,212.915M264.887,215.976L264.887,210.874M264.887,215.976L264.887,221.078M922.525,215.976L922.525,210.874M922.525,215.976L922.525,221.078M264.887,215.976L259.785,215.976M922.525,215.976L927.627,215.976" style="fill:none;fill-rule:nonzero;stroke:black;stroke-width:0.99px;"/>
    </g>
    <g transform="matrix(4.16667,0,0,4.16667,0,-2150)">
        <path d="M264.887,658.677L922.525,658.677M304.345,697.172L310.468,691.049M876.944,697.172L883.067,691.049M307.407,694.11L307.407,689.008M307.407,694.11L307.407,699.213M880.005,694.11L880.005,689.008M880.005,694.11L880.005,699.213M307.407,694.11L302.304,694.11M880.005,694.11L885.108,694.11" style="fill:none;fill-rule:nonzero;stroke:black;stroke-width:0.99px;"/>
    </g>
    <g transform="matrix(4.16667,0,0,4.16667,0,-292.419)">
        <path d="M307.407,248.291L880.005,248.291M209.802,661.739L203.68,655.616M209.802,324.878L203.68,318.755M206.741,658.677L201.639,658.677M206.741,658.677L211.843,658.677M206.741,321.817L201.639,321.817M206.741,321.817L211.843,321.817M206.741,658.677L206.741,663.78M206.741,321.817L206.741,316.714" style="fill:none;fill-rule:nonzero;stroke:black;stroke-width:0.99px;"/>
    </g>
    <g transform="matrix(0,-4.16667,4.16667,0,0,0)">
        <text x="-440.576px" y="169.781px" style="font-family:'EuclidCircularA-Semibold', 'Euclid Circular A', sans-serif;font-weight:600;font-size:19.958px;">3.00</text>
    </g>
    <g transform="matrix(4.16667,0,0,4.16667,0,0)">
        <text x="573.574px" y="139.733px" style="font-family:'EuclidCircularA-Semibold', 'Euclid Circular A', sans-serif;font-weight:600;font-size:19.958px;">4.65</text>
        <text x="540.696px" y="173.679px" style="font-family:'EuclidCircularA-Semibold', 'Euclid Circular A', sans-serif;font-weight:600;font-size:19.958px;">4.05	<tspan x="592.588px " y="173.679px ">(</tspan>4.00)</text>
    </g>
    <g transform="matrix(0,-4.16667,4.16667,0,0,0)">
        <text x="-473.705px" y="202.309px" style="font-family:'EuclidCircularA-Semibold', 'Euclid Circular A', sans-serif;font-weight:600;font-size:19.958px;">2.40	<tspan x="-417.243px " y="202.309px ">(</tspan>2.35)</text>
    </g>
    <g transform="matrix(4.16667,0,0,4.16667,0,0)">
        <text x="544.265px" y="558.733px" style="font-family:'EuclidCircularA-Semibold', 'Euclid Circular A', sans-serif;font-weight:600;font-size:27.941px;">8.50 m²</text>
    </g>
    <g transform="matrix(4.16667,0,0,4.16667,0,-7.32238)">
        <path d="M206.741,590.254L206.741,253.393" style="fill:none;fill-rule:nonzero;stroke:black;stroke-width:0.99px;"/>
    </g>
    <g transform="matrix(4.16667,0,0,4.16667,0,1071.07)">
        <path d="M643.366,308.952L646.237,308.701L649.021,307.955L651.634,306.737L653.995,305.084L656.033,303.046L657.686,300.685L658.904,298.072L659.65,295.288L659.901,292.417L659.65,289.546L658.904,286.762L657.686,284.149L656.033,281.788L653.995,279.75L651.634,278.097L649.021,276.879L646.237,276.133L643.366,275.882L544.265,275.882L541.394,276.133L538.61,276.879L535.997,278.097L533.636,279.75L531.598,281.788L529.945,284.149L528.727,286.762L527.981,289.546L527.73,292.417L527.981,295.288L528.727,298.072L529.945,300.685L531.598,303.046L533.636,305.084L535.997,306.737L538.61,307.955L541.394,308.701L544.265,308.952L643.366,308.952" style="fill:none;fill-rule:nonzero;stroke:black;stroke-width:0.99px;"/>
    </g>
</svg>
