<?xml version="1.0" encoding="UTF-8" standalone="no"?>
<!DOCTYPE svg PUBLIC "-//W3C//DTD SVG 1.1//EN" "http://www.w3.org/Graphics/SVG/1.1/DTD/svg11.dtd">
<svg width="100%" height="100%" viewBox="0 0 4961 3508" version="1.1" xmlns="http://www.w3.org/2000/svg" xmlns:xlink="http://www.w3.org/1999/xlink" xml:space="preserve" xmlns:serif="http://www.serif.com/" style="fill-rule:evenodd;clip-rule:evenodd;stroke-linecap:round;stroke-linejoin:round;stroke-miterlimit:10;">
    <g transform="matrix(4.16667,0,0,4.16667,0,1929.43)">
        <path d="M573.457,135.663L573.457,127.159L567.079,127.159L567.079,124.324L577.709,124.324L577.709,135.663L573.457,135.663M460.995,127.159L454.617,127.159L454.617,135.663L450.365,135.663L450.365,124.324L460.995,124.324L460.995,127.159M567.079,127.159L460.995,127.159L460.995,124.324L567.079,124.324L567.079,127.159M454.617,138.497L454.617,254.503" style="fill:none;fill-rule:nonzero;stroke:black;stroke-width:0.99px;"/>
    </g>
    <g transform="matrix(-2.94628,2.94628,2.94628,2.94628,3114.95,686.415)">
        <path d="M430.004,183.744C476.414,230.155 551.66,230.155 598.07,183.744" style="fill:none;fill-rule:nonzero;stroke:black;stroke-width:0.99px;"/>
    </g>
    <g transform="matrix(4.16667,0,0,4.16667,0,205.911)">
        <path d="M573.457,549.307L573.457,552.141L454.617,552.141L454.617,540.803L573.457,540.803L573.457,549.307M559.993,540.803L555.741,540.803L555.741,530.881L559.993,530.881L559.993,540.803M561.41,553.558L554.323,553.558L554.323,552.141L561.41,552.141L561.41,553.558M559.284,553.558L556.449,553.558L556.449,557.81L542.985,557.81L542.985,560.645L559.284,560.645L559.284,553.558M740.916,231.826L750.837,231.826L750.837,506.787L740.916,506.787L740.916,231.826L740.916,242.456L729.577,242.456L729.577,231.826L740.916,231.826M740.916,496.157L740.916,506.787L729.577,506.787L729.577,496.157L740.916,496.157M740.916,242.456L740.916,496.157L729.577,496.157L729.577,242.456L740.916,242.456M735.246,242.456L735.246,496.157" style="fill:none;fill-rule:nonzero;stroke:black;stroke-width:0.99px;"/>
    </g>
    <g transform="matrix(4.16667,0,0,4.16667,0,-18.4982)">
        <path d="M746.585,593.923C840.892,593.923 917.344,517.472 917.344,423.165M917.344,423.165C917.344,328.857 840.892,252.406 746.585,252.406" style="fill:none;fill-rule:nonzero;stroke:black;stroke-width:0.99px;"/>
    </g>
    <g transform="matrix(4.16667,0,0,4.16667,0,-18.4981)">
        <path d="M450.365,243.165L445.651,243.165L436.237,243.658L426.862,244.644L417.551,246.118L408.33,248.078L399.224,250.518L390.259,253.431L381.458,256.809L372.846,260.644L364.447,264.923L356.283,269.637L348.376,274.771L340.75,280.312L333.424,286.245L326.418,292.553L319.752,299.218L313.445,306.224L307.512,313.55L301.971,321.177L296.837,329.083L292.123,337.247L287.844,345.646L284.009,354.258L280.631,363.059L277.718,372.024L275.278,381.13L273.318,390.351L271.843,399.662L270.858,409.037L270.365,418.451L270.365,427.878L270.858,437.292L271.843,446.668L273.318,455.978L275.278,465.199L277.718,474.305L280.631,483.271L284.009,492.071L287.844,500.683L292.123,509.083L296.837,517.247L301.971,525.153L307.512,532.779L313.445,540.105L319.752,547.111L326.418,553.777L333.424,560.085L340.75,566.017L348.376,571.558L356.283,576.693L364.447,581.406L372.846,585.686L381.458,589.52L390.259,592.898L399.224,595.811L408.33,598.251L417.551,600.211L426.862,601.686L436.237,602.671L445.651,603.165L450.365,603.165L450.365,560.645L446.765,560.645L439.574,560.268L432.414,559.516L425.302,558.389L418.259,556.892L411.305,555.029L404.457,552.804L397.735,550.224L391.157,547.295L384.742,544.026L378.507,540.426L372.468,536.505L366.643,532.273L361.048,527.741L355.697,522.924L350.606,517.832L345.788,512.482L341.257,506.886L337.025,501.061L333.103,495.023L329.503,488.787L326.234,482.372L323.306,475.794L320.725,469.072L318.501,462.225L316.637,455.27L315.14,448.227L314.014,441.116L313.261,433.955L312.884,426.765L312.884,419.565L313.261,412.374L314.014,405.214L315.14,398.102L316.637,391.06L318.501,384.105L320.725,377.257L323.306,370.535L326.234,363.958L329.503,357.542L333.103,351.307L337.025,345.268L341.257,339.443L345.788,333.848L350.606,328.497L355.697,323.406L361.048,318.588L366.643,314.057L372.468,309.825L378.507,305.903L384.742,302.303L391.157,299.035L397.735,296.106L404.457,293.526L411.305,291.301L418.259,289.437L425.302,287.94L432.414,286.814L439.574,286.061L446.765,285.684L450.365,285.684L450.365,243.165Z" style="fill:white;fill-rule:nonzero;"/>
    </g>
    <g transform="matrix(-4.16667,0,0,4.16667,4839.65,-1341.33)">
        <rect x="450.365" y="560.645" width="260.787" height="42.52" style="fill:white;"/>
    </g>
    <g transform="matrix(-4.16667,0,0,4.16667,5370.25,1304.34)">
        <rect x="577.709" y="243.165" width="133.443" height="42.52" style="fill:white;"/>
    </g>
    <g transform="matrix(4.16667,0,0,4.16667,0,-18.4981)">
        <path d="M746.585,285.684L746.585,243.165L711.152,243.165L711.152,285.684L746.585,285.684ZM746.585,560.645L711.152,560.645L711.152,603.165L746.585,603.165L746.585,560.645Z" style="fill:white;fill-rule:nonzero;"/>
    </g>
    <g transform="matrix(4.16667,0,0,4.16667,0,-18.4981)">
        <path d="M746.585,285.684L711.152,285.684M711.152,560.645L746.585,560.645M577.709,603.165L577.709,560.645M450.365,243.165L445.651,243.165L436.237,243.658L426.862,244.644L417.551,246.118L408.33,248.078L399.224,250.518L390.259,253.431L381.458,256.809L372.846,260.644L364.447,264.923L356.283,269.637L348.376,274.771L340.75,280.312L333.424,286.245L326.418,292.553L319.752,299.218L313.445,306.224L307.512,313.55L301.971,321.177L296.837,329.083L292.123,337.247L287.844,345.646L284.009,354.258L280.631,363.059L277.718,372.024L275.278,381.13L273.318,390.351L271.843,399.662L270.858,409.037L270.365,418.451L270.365,427.878L270.858,437.292L271.843,446.668L273.318,455.978L275.278,465.199L277.718,474.305L280.631,483.271L284.009,492.071L287.844,500.683L292.123,509.083L296.837,517.247L301.971,525.153" style="fill:none;fill-rule:nonzero;stroke:black;stroke-width:0.99px;"/>
    </g>
    <g transform="matrix(4.16667,0,0,4.16667,0,746.502)">
        <path d="M301.971,341.553L307.512,349.179L313.445,356.505L319.752,363.511L326.418,370.177L333.424,376.485L340.75,382.417L348.376,387.958L356.283,393.093L364.447,397.806L372.846,402.086L381.458,405.92L390.259,409.298L399.224,412.211L408.33,414.651L417.551,416.611L426.862,418.086L436.237,419.071L445.651,419.565L450.365,419.565L450.365,377.045L446.765,377.045L439.574,376.668L432.414,375.916L425.302,374.789L418.259,373.292L411.305,371.429L404.457,369.204L397.735,366.623L391.157,363.695L384.742,360.426L378.507,356.826L372.468,352.905L366.643,348.673L361.048,344.141L355.697,339.324L350.606,334.232L345.788,328.882L341.257,323.286L337.025,317.461L333.103,311.423L329.503,305.187L326.234,298.772L323.306,292.194L320.725,285.472L318.501,278.625L316.637,271.67L315.14,264.627L314.014,257.516L313.261,250.355L312.884,243.165" style="fill:none;fill-rule:nonzero;stroke:black;stroke-width:0.99px;"/>
    </g>
    <g transform="matrix(4.16667,0,0,4.16667,0,-18.4982)">
        <path d="M312.884,426.765L312.884,419.565L313.261,412.375L314.014,405.214L315.14,398.102L316.637,391.06L318.501,384.105L320.725,377.257L323.306,370.535L326.234,363.958L329.503,357.542L333.103,351.307L337.025,345.268L341.257,339.443L345.788,333.848L350.606,328.497L355.697,323.406L361.048,318.588L366.643,314.057L372.468,309.825L378.507,305.903L384.742,302.303L391.157,299.035L397.735,296.106L404.457,293.526L411.305,291.301L418.259,289.437L425.302,287.94L432.414,286.814L439.574,286.061L446.765,285.684L450.365,285.684M711.152,243.165L450.365,243.165M450.365,285.684L711.152,285.684M711.152,560.645L577.709,560.645M577.709,603.165L711.152,603.165M746.585,603.165L746.585,560.645M746.585,285.684L746.585,243.165L711.152,243.165M711.152,603.165L746.585,603.165M450.365,603.165L577.709,603.165M150.083,606.226L143.96,600.103M150.083,246.226L143.96,240.103M147.022,603.165L141.919,603.165M147.022,603.165L152.124,603.165M147.022,243.165L141.919,243.165M147.022,243.165L152.124,243.165M147.022,603.165L147.022,608.267M147.022,243.165L147.022,238.062" style="fill:none;fill-rule:nonzero;stroke:black;stroke-width:0.99px;"/>
    </g>
    <g transform="matrix(4.16667,0,0,4.16667,0,-444.582)">
        <path d="M147.022,705.425L147.022,345.425M267.303,251.329L273.426,245.206M905.1,251.329L911.223,245.206M270.365,248.267L270.365,243.165M270.365,248.267L270.365,253.369M908.161,248.267L908.161,243.165M908.161,248.267L908.161,253.369M270.365,248.267L265.262,248.267M908.161,248.267L913.264,248.267" style="fill:none;fill-rule:nonzero;stroke:black;stroke-width:0.99px;"/>
    </g>
    <g transform="matrix(4.16667,0,0,4.16667,0,-2159.25)">
        <path d="M270.365,659.787L908.161,659.787M309.823,698.282L315.946,692.159M705.397,698.282L711.519,692.159M312.884,695.22L312.884,690.118M312.884,695.22L312.884,700.323M708.458,695.22L708.458,690.118M708.458,695.22L708.458,700.323M312.884,695.22L307.782,695.22M708.458,695.22L713.56,695.22" style="fill:none;fill-rule:nonzero;stroke:black;stroke-width:0.99px;"/>
    </g>
    <g transform="matrix(4.16667,0,0,4.16667,0,-421.712)">
        <path d="M312.884,278.211L708.458,278.211M184.099,662.849L177.976,656.726M184.099,385.517L177.976,379.394M181.037,659.787L175.935,659.787M181.037,659.787L186.14,659.787M181.037,382.456L175.935,382.456M181.037,382.456L186.14,382.456M181.037,659.787L181.037,664.889M181.037,382.456L181.037,377.353" style="fill:none;fill-rule:nonzero;stroke:black;stroke-width:0.99px;"/>
    </g>
    <g transform="matrix(0,-4.16667,4.16667,0,0,0)">
        <text x="-438.248px" y="144.077px" style="font-family:'EuclidCircularA-Semibold', 'Euclid Circular A', sans-serif;font-weight:600;font-size:19.958px;">2.55</text>
    </g>
    <g transform="matrix(4.16667,0,0,4.16667,0,0)">
        <text x="568.622px" y="138.623px" style="font-family:'EuclidCircularA-Semibold', 'Euclid Circular A', sans-serif;font-weight:600;font-size:19.958px;">4.50</text>
    </g>
    <g transform="matrix(4.16667,0,0,4.16667,0,0)">
        <text x="490.509px" y="174.056px" style="font-family:'EuclidCircularA-Semibold', 'Euclid Circular A', sans-serif;font-weight:600;font-size:19.958px;">2.80</text>
    </g>
    <g transform="matrix(0,-4.16667,4.16667,0,0,0)">
        <text x="-437.358px" y="178.093px" style="font-family:'EuclidCircularA-Semibold', 'Euclid Circular A', sans-serif;font-weight:600;font-size:19.958px;">1.95</text>
    </g>
    <g transform="matrix(4.16667,0,0,4.16667,0,0)">
        <text x="527.813px" y="437.657px" style="font-family:'EuclidCircularA-Semibold', 'Euclid Circular A', sans-serif;font-weight:600;font-size:27.941px;">5.00 m²</text>
    </g>
    <g transform="matrix(4.16667,0,0,4.16667,0,-8.62025)">
        <path d="M181.037,560.645L181.037,283.314" style="fill:none;fill-rule:nonzero;stroke:black;stroke-width:0.99px;"/>
    </g>
    <g transform="matrix(4.16667,0,0,4.16667,0,62.1037)">
        <path d="M628.116,430.028L630.987,429.777L633.771,429.031L636.383,427.813L638.744,426.159L640.782,424.121L642.436,421.76L643.654,419.148L644.4,416.364L644.651,413.493L644.4,410.621L643.654,407.837L642.436,405.225L640.782,402.864L638.744,400.826L636.383,399.172L633.771,397.954L630.987,397.208L628.116,396.957L527.813,396.957L524.942,397.208L522.158,397.954L519.545,399.172L517.184,400.826L515.146,402.864L513.493,405.225L512.275,407.837L511.529,410.621L511.278,413.493L511.529,416.364L512.275,419.148L513.493,421.76L515.146,424.121L517.184,426.159L519.545,427.813L522.158,429.031L524.942,429.777L527.813,430.028L628.116,430.028" style="fill:none;fill-rule:nonzero;stroke:black;stroke-width:0.99px;"/>
    </g>
</svg>
