<?xml version="1.0" encoding="UTF-8" standalone="no"?>
<!DOCTYPE svg PUBLIC "-//W3C//DTD SVG 1.1//EN" "http://www.w3.org/Graphics/SVG/1.1/DTD/svg11.dtd">
<svg width="100%" height="100%" viewBox="0 0 4961 3508" version="1.1" xmlns="http://www.w3.org/2000/svg" xmlns:xlink="http://www.w3.org/1999/xlink" xml:space="preserve" xmlns:serif="http://www.serif.com/" style="fill-rule:evenodd;clip-rule:evenodd;stroke-linecap:round;stroke-linejoin:round;stroke-miterlimit:10;">
    <g transform="matrix(4.16667,0,0,4.16667,0,1582.68)">
        <path d="M346.535,209.764L338.031,209.764L338.031,252.283L339.32,252.283L340.559,252.229L341.788,252.068L342.999,251.799L344.181,251.426L345.326,250.952L346.426,250.379L347.472,249.713L348.456,248.958L349.37,248.121L350.207,247.207L350.962,246.223L351.628,245.177L352.201,244.078L352.675,242.932L353.048,241.75L353.316,240.539L353.478,239.31L353.532,238.071L346.535,238.071L346.535,209.764Z" style="fill:white;fill-rule:nonzero;"/>
    </g>
    <g transform="matrix(4.16667,0,0,4.16667,0,1582.68)">
        <path d="M848.268,238.071L841.271,238.071L841.325,239.31L841.487,240.539L841.755,241.75L842.128,242.932L842.603,244.078L843.175,245.177L843.841,246.223L844.596,247.207L845.434,248.121L846.348,248.958L847.331,249.713L848.377,250.379L849.477,250.952L850.622,251.426L851.805,251.799L853.015,252.068L854.244,252.229L855.483,252.283L856.772,252.283L856.772,209.764L848.268,209.764L848.268,238.071Z" style="fill:white;fill-rule:nonzero;"/>
    </g>
    <g transform="matrix(2.94628,-2.94628,-2.94628,-2.94628,1061.73,4263.88)">
        <path d="M336.377,216.87C341.927,211.32 350.925,211.32 356.476,216.87" style="fill:none;fill-rule:nonzero;stroke:black;stroke-width:0.99px;"/>
    </g>
    <g transform="matrix(4.16667,0,0,4.16667,0,1582.68)">
        <path d="M353.532,238.071L346.535,238.071M339.32,252.283L338.031,252.283M346.535,209.764L338.031,209.764M346.535,209.764L346.535,238.071" style="fill:none;fill-rule:nonzero;stroke:black;stroke-width:0.99px;"/>
    </g>
    <g transform="matrix(2.94627,2.94628,2.94628,-2.94627,396.393,743.651)">
        <path d="M838.328,216.87C843.878,211.32 852.876,211.32 858.426,216.87" style="fill:none;fill-rule:nonzero;stroke:black;stroke-width:0.99px;"/>
    </g>
    <g transform="matrix(4.16667,0,0,4.16667,0,1547.08)">
        <path d="M855.483,260.826L856.772,260.826M848.268,218.306L856.772,218.306M848.268,218.306L848.268,246.614M340.559,260.772L855.483,260.826M346.535,246.614L356.457,246.614L356.457,218.268L346.535,218.268L346.535,246.614M596.074,232.441L603.071,232.441M596.074,232.441L603.071,232.441M848.268,246.614L838.347,246.614L838.347,218.268L848.268,218.268L848.268,246.614M603.071,232.441L593.15,232.441L593.15,218.268L603.071,218.268L603.071,232.441M838.347,232.441L828.425,232.441L828.425,218.268L838.347,218.268L838.347,232.441M828.425,232.441L603.071,232.441L603.071,218.268L828.425,218.268L828.425,232.441M356.457,246.614L366.378,246.614L366.378,232.441L356.457,232.441L356.457,246.614L366.378,246.614L366.378,232.441L356.457,232.441L356.457,246.614M603.071,246.614L593.15,246.614L593.15,232.441L603.071,232.441L603.071,246.614M593.15,246.614L366.378,246.614L366.378,232.441L593.15,232.441L593.15,246.614M836.575,218.268L833.031,218.268L833.031,216.85L836.575,216.85L836.575,218.268M836.22,216.85L833.386,216.85L833.386,209.764L836.22,209.764L836.22,216.85" style="fill:none;fill-rule:nonzero;stroke:black;stroke-width:0.99px;"/>
    </g>
    <g transform="matrix(4.16667,0,0,4.16667,0,820.705)">
        <path d="M603.071,399.685L828.425,399.685M366.378,413.858L593.15,413.858M593.15,392.598L356.457,392.598M603.071,420.945L838.347,420.945M364.606,406.772L361.063,406.772L361.063,405.354L364.606,405.354L364.606,406.772M364.252,405.354L361.417,405.354L361.417,398.268L364.252,398.268L364.252,405.354M795.827,223.976L795.965,227.931L796.379,231.866L796.973,235.238M797.623,237.996L798.023,239.602L799.246,243.366L800.728,247.035L801.504,248.625M802.786,251.152L804.441,254.018L806.654,257.299L809.09,260.417M811.063,262.609L811.738,263.358L814.585,266.107L817.616,268.65L819.571,270.07M821.914,271.662L824.173,273.073L827.667,274.931L831.282,276.541L831.997,276.801M834.661,277.77L835.001,277.894L838.804,278.985L842.675,279.807L845.708,280.234M848.529,280.493L850.541,280.634L854.498,280.634L858.446,280.358L859.839,280.162M862.643,279.748L866.235,278.985L870.039,277.894L873.524,276.625M876.12,275.488L877.372,274.931L880.866,273.073L884.222,270.976L885.884,269.769M888.137,268.052L890.455,266.107L893.301,263.358L895.949,260.417L896.195,260.103M897.94,257.869L898.385,257.299" style="fill:none;fill-rule:nonzero;stroke:black;stroke-width:0.99px;"/>
    </g>
    <g transform="matrix(4.16667,0,0,4.16667,0,-97.2287)">
        <path d="M898.385,477.603L900.598,474.323L902.577,470.896L903.761,468.468M904.902,465.876L905.794,463.67L907.016,459.907L907.974,456.067L908.155,455.037M908.648,452.246L908.661,452.17L909.075,448.235L909.213,444.28L909.096,440.935M908.842,438.113L908.661,436.39L907.974,432.493L907.016,428.653L906.493,427.044M905.58,424.362L904.311,421.221L902.577,417.664L900.598,414.237M898.992,411.857L898.385,410.957L895.949,407.839L893.301,404.898L891.619,403.273M889.523,401.367L887.423,399.605L884.222,397.279L880.866,395.182L880.262,394.862M877.76,393.531L877.372,393.325L873.757,391.715L870.039,390.362L867.169,389.539M864.412,388.884L862.364,388.448L858.446,387.898L854.498,387.622L853.168,387.622M850.334,387.636L846.594,387.898L842.675,388.448L839.122,389.204M836.392,389.963L835.001,390.362L831.282,391.715L827.667,393.325L825.921,394.253M823.448,395.635L820.817,397.279L817.616,399.605L814.585,402.149L814.353,402.373M812.314,404.342L811.738,404.898L809.09,407.839L806.654,410.957L805.187,413.132M803.691,415.538L802.463,417.664" style="fill:none;fill-rule:nonzero;stroke:black;stroke-width:0.99px;"/>
    </g>
    <g transform="matrix(4.16667,0,0,4.16667,0,-236.076)">
        <path d="M802.463,450.988L800.728,454.544L799.246,458.213L798.946,459.134M798.071,461.83L798.023,461.977L797.066,465.816L796.379,469.713L796.037,472.966M795.89,475.795L795.827,477.603M394.724,477.603L394.586,473.649L394.173,469.713L393.578,466.341M392.929,463.583L392.528,461.977L391.305,458.213L389.823,454.544L389.048,452.954M387.765,450.427L386.11,447.561L383.897,444.28L381.461,441.162M379.488,438.971L378.813,438.221L375.966,435.472L372.935,432.929L370.981,431.509M368.637,429.917L366.378,428.506L362.884,426.648L359.269,425.039L358.554,424.778M355.891,423.809L355.551,423.685L351.747,422.594L347.876,421.772L344.843,421.345M342.022,421.086L340.01,420.945L336.053,420.945L332.105,421.221L330.712,421.417M327.908,421.831L324.316,422.594L320.512,423.685L317.027,424.954M314.431,426.091L313.179,426.648L309.685,428.506L306.329,430.603L304.667,431.81M302.414,433.527L300.097,435.472L297.25,438.221L294.602,441.162L294.357,441.476M292.611,443.71L292.166,444.28L289.953,447.561L287.975,450.988L286.791,453.415M285.649,456.008L284.758,458.213" style="fill:none;fill-rule:nonzero;stroke:black;stroke-width:0.99px;"/>
    </g>
    <g transform="matrix(4.16667,0,0,4.16667,0,155.285)">
        <path d="M284.758,364.287L283.535,368.05L282.577,371.89L282.396,372.919M281.904,375.711L281.89,375.786L281.477,379.722L281.339,383.677L281.455,387.022M281.709,389.844L281.89,391.567L282.577,395.464L283.535,399.303L284.058,400.913M284.971,403.595L286.24,406.736L287.975,410.292L289.953,413.719M291.559,416.1L292.166,417L294.602,420.118L297.25,423.059L298.933,424.684M301.028,426.59L303.128,428.351L306.329,430.677L309.685,432.774L310.289,433.095M312.792,434.426L313.179,434.632L316.794,436.241L320.512,437.595L323.382,438.418M326.139,439.073L328.187,439.508L332.105,440.059L336.053,440.335L337.383,440.335M340.218,440.32L343.958,440.059L347.876,439.508L351.429,438.753M354.159,437.994L355.551,437.595L359.269,436.241L362.884,434.632L364.63,433.704M367.103,432.321L369.734,430.677L372.935,428.351L375.966,425.808L376.198,425.584M378.237,423.615L378.813,423.059L381.461,420.118L383.897,417L385.364,414.825M386.861,412.419L388.088,410.292L389.823,406.736L391.305,403.067L391.605,402.146M392.481,399.45L392.528,399.303" style="fill:none;fill-rule:nonzero;stroke:black;stroke-width:0.99px;"/>
    </g>
    <g transform="matrix(4.16667,0,0,4.16667,0,65.1121)">
        <path d="M392.528,420.945L393.486,417.105L394.173,413.208L394.515,409.956M394.661,407.126L394.724,405.318" style="fill:none;fill-rule:nonzero;stroke:black;stroke-width:0.99px;"/>
    </g>
    <g transform="matrix(4.16667,0,0,4.16667,0,0.000958333)">
        <path d="M338.031,209.764L332.502,209.764L321.457,210.343L310.457,211.499L299.534,213.229L288.715,215.528L278.032,218.391L267.514,221.809L257.188,225.772L247.085,230.271L237.23,235.292L227.652,240.822L218.376,246.845L209.429,253.346L200.833,260.306L192.614,267.707L184.794,275.528L177.393,283.747L170.433,292.342L163.932,301.29L157.908,310.565L152.378,320.143L147.357,329.998L142.859,340.102L138.895,350.427L135.477,360.946L132.615,371.629L130.315,382.447L128.585,393.371L127.429,404.37L126.85,415.415L126.85,426.475L127.429,437.52L128.585,448.519L130.315,459.443L132.615,470.261L135.477,480.944L138.895,491.463L142.859,501.788L147.357,511.892L152.378,521.746L157.908,531.325L163.932,540.6L170.433,549.548L177.393,558.143L184.794,566.362L192.614,574.183L200.833,581.583L209.429,588.544L218.376,595.044L227.652,601.068L237.23,606.598L247.085,611.619L257.188,616.118L267.514,620.081L278.032,623.499L288.715,626.361L299.534,628.661L310.457,630.391L321.457,631.547L332.502,632.126L338.031,632.126L338.031,589.606L333.615,589.606L324.794,589.144L316.009,588.221L307.285,586.839L298.645,585.002L290.113,582.716L281.712,579.987L273.465,576.821L265.396,573.228L257.526,569.218L249.876,564.802L242.468,559.991L235.322,554.799L228.457,549.24L221.893,543.33L215.647,537.084L209.736,530.519L204.178,523.655L198.986,516.509L194.175,509.1L189.758,501.451L185.748,493.58L182.155,485.511L178.99,477.265L176.26,468.864L173.974,460.332L172.137,451.692L170.756,442.967L169.832,434.182L169.37,425.361L169.37,416.528L169.832,407.707L170.756,398.923L172.137,390.198L173.974,381.558L176.26,373.026L178.99,364.625L182.155,356.379L185.748,348.309L189.758,340.439L194.175,332.789L198.986,325.381L204.178,318.235L209.736,311.37L215.647,304.806L221.893,298.56L228.457,292.65L235.322,287.091L242.468,281.899L249.876,277.088L257.526,272.672L265.396,268.661L273.465,265.069L281.712,261.903L290.113,259.174L298.645,256.887L307.285,255.051L316.009,253.669L324.794,252.746L333.615,252.283L338.031,252.283L338.031,209.764Z" style="fill:white;fill-rule:nonzero;"/>
    </g>
    <g transform="matrix(4.16667,0,0,4.16667,0,0.000958333)">
        <path d="M862.302,209.764L856.772,209.764L856.772,252.283L861.188,252.283L870.009,252.746L878.794,253.669L887.518,255.051L896.158,256.887L904.69,259.174L913.091,261.903L921.338,265.069L929.407,268.661L937.278,272.672L944.927,277.088L952.335,281.899L959.481,287.091L966.346,292.65L972.91,298.56L979.156,304.806L985.067,311.37L990.626,318.235L995.818,325.381L1000.63,332.789L1005.05,340.439L1009.06,348.309L1012.65,356.379L1015.81,364.625L1018.54,373.026L1020.83,381.558L1022.67,390.198L1024.05,398.923L1024.97,407.707L1025.43,416.528L1025.43,425.361L1024.97,434.182L1024.05,442.967L1022.67,451.692L1020.83,460.332L1018.54,468.864L1015.81,477.265L1012.65,485.511L1009.06,493.58L1005.05,501.451L1000.63,509.1L995.818,516.509L990.626,523.655L985.067,530.519L979.156,537.084L972.91,543.33L966.346,549.24L959.481,554.799L952.335,559.991L944.927,564.802L937.278,569.218L929.407,573.228L921.338,576.821L913.091,579.987L904.69,582.716L896.158,585.002L887.518,586.839L878.794,588.221L870.009,589.144L861.188,589.606L856.772,589.606L856.772,632.126L862.302,632.126L873.346,631.547L884.346,630.391L895.27,628.661L906.088,626.361L916.771,623.499L927.29,620.081L937.615,616.118L947.719,611.619L957.573,606.598L967.151,601.068L976.427,595.044L985.375,588.544L993.97,581.583L1002.19,574.183L1010.01,566.362L1017.41,558.143L1024.37,549.548L1030.87,540.6L1036.89,531.325L1042.42,521.746L1047.45,511.892L1051.94,501.788L1055.91,491.463L1059.33,480.944L1062.19,470.261L1064.49,459.443L1066.22,448.519L1067.37,437.52L1067.95,426.475L1067.95,415.415L1067.37,404.37L1066.22,393.371L1064.49,382.447L1062.19,371.629L1059.33,360.946L1055.91,350.427L1051.94,340.102L1047.45,329.998L1042.42,320.143L1036.89,310.565L1030.87,301.29L1024.37,292.342L1017.41,283.747L1010.01,275.528L1002.19,267.707L993.97,260.306L985.375,253.346L976.427,246.845L967.151,240.822L957.573,235.292L947.719,230.271L937.615,225.772L927.29,221.809L916.771,218.391L906.088,215.528L895.27,213.229L884.346,211.499L873.346,210.343L862.302,209.764Z" style="fill:white;fill-rule:nonzero;"/>
    </g>
    <g transform="matrix(-4.16667,0,0,4.16667,4978.35,-1582.68)">
        <rect x="338.031" y="589.606" width="518.74" height="42.52" style="fill:white;"/>
    </g>
    <g transform="matrix(4.16667,0,0,4.16667,0,-129.407)">
        <path d="M338.031,240.822L332.502,240.822L321.457,241.4L310.457,242.557L299.534,244.287L288.715,246.586L278.032,249.449L267.514,252.866L257.188,256.83L247.085,261.328L237.23,266.35L227.652,271.88L218.376,277.903L209.429,284.404L200.833,291.364L192.614,298.765L184.794,306.585L177.393,314.805L170.433,323.4L163.932,332.348L157.908,341.623L152.378,351.201L147.357,361.056L142.859,371.16L138.895,381.485L135.477,392.004L132.615,402.687L130.315,413.505L128.585,424.429L127.429,435.428L126.85,446.473L126.85,457.533L127.429,468.578L128.585,479.577L130.315,490.501L132.615,501.319L135.477,512.002L138.895,522.521L142.859,532.846L147.357,542.95L152.378,552.804L157.908,562.382L163.932,571.658L170.433,580.606L177.393,589.201L184.794,597.42L192.614,605.241L200.833,612.641L209.429,619.601L218.376,626.102L227.652,632.126" style="fill:none;fill-rule:nonzero;stroke:black;stroke-width:0.99px;"/>
    </g>
    <g transform="matrix(4.16667,0,0,4.16667,0,577.274)">
        <path d="M227.652,462.522L237.23,468.052L247.085,473.074L257.188,477.572L267.514,481.536L278.032,484.953L288.715,487.816L299.534,490.115L310.457,491.845L321.457,493.002L332.502,493.58L338.031,493.58M338.031,451.061L333.615,451.061L324.794,450.598L316.009,449.675L307.285,448.293L298.645,446.457L290.113,444.171L281.712,441.441L273.465,438.276L265.396,434.683L257.526,430.673L249.876,426.256L242.468,421.445L235.322,416.253L228.457,410.694L221.893,404.784L215.647,398.538L209.736,391.974L204.178,385.109L198.986,377.963L194.175,370.555L189.758,362.905L185.748,355.035L182.155,346.965L178.99,338.719L176.26,330.318L173.974,321.786L172.137,313.146L170.756,304.422L169.832,295.637L169.37,286.816L169.37,277.983L169.832,269.162L170.756,260.377L172.137,251.653L173.974,243.013L176.26,234.48L178.99,226.08L182.155,217.833L185.748,209.764" style="fill:none;fill-rule:nonzero;stroke:black;stroke-width:0.99px;"/>
    </g>
    <g transform="matrix(4.16667,0,0,4.16667,0,-1008.03)">
        <path d="M185.748,590.237L189.758,582.367L194.175,574.717L198.986,567.309L204.178,560.163L209.736,553.298L215.647,546.734L221.893,540.488L228.457,534.578L235.322,529.019L242.468,523.827L249.876,519.016L257.526,514.599L265.396,510.589L273.465,506.996L281.712,503.831L290.113,501.101L298.645,498.815L307.285,496.979L316.009,495.597L324.794,494.673L333.615,494.211L338.031,494.211M862.302,451.692L856.772,451.692M856.772,494.211L861.188,494.211L870.009,494.673L878.794,495.597L887.518,496.979L896.158,498.815L904.69,501.101L913.091,503.831L921.338,506.996L929.407,510.589L937.278,514.599L944.927,519.016L952.335,523.827L959.481,529.019L966.346,534.578L972.91,540.488L979.156,546.734L985.067,553.298L990.626,560.163L995.818,567.309L1000.63,574.717L1005.05,582.367L1009.06,590.237L1012.65,598.307L1015.81,606.553L1018.54,614.954L1020.83,623.486L1022.67,632.126" style="fill:none;fill-rule:nonzero;stroke:black;stroke-width:0.99px;"/>
    </g>
    <g transform="matrix(4.16667,0,0,4.16667,0,751.811)">
        <path d="M1022.67,209.764L1024.05,218.488L1024.97,227.273L1025.43,236.094L1025.43,244.927L1024.97,253.748L1024.05,262.533L1022.67,271.257L1020.83,279.897L1018.54,288.429L1015.81,296.83L1012.65,305.077L1009.06,313.146L1005.05,321.016L1000.63,328.666L995.818,336.074L990.626,343.22L985.067,350.085L979.156,356.649L972.91,362.895L966.346,368.806L959.481,374.364L952.335,379.556L944.927,384.367L937.278,388.784L929.407,392.794L921.338,396.387L913.091,399.552L904.69,402.282L896.158,404.568L887.518,406.404L878.794,407.786L870.009,408.71L861.188,409.172L856.772,409.172M856.772,451.692L862.302,451.692L873.346,451.113L884.346,449.957L895.27,448.226L906.088,445.927L916.771,443.064L927.29,439.647L937.615,435.683L947.719,431.185L957.573,426.164L967.151,420.634L976.427,414.61L985.375,408.109L993.97,401.149L1002.19,393.748L1010.01,385.928" style="fill:none;fill-rule:nonzero;stroke:black;stroke-width:0.99px;"/>
    </g>
    <g transform="matrix(4.16667,0,0,4.16667,0,0.000958333)">
        <path d="M1010.01,566.362L1017.41,558.143L1024.37,549.548L1030.87,540.6L1036.89,531.325L1042.42,521.746L1047.45,511.892L1051.94,501.788L1055.91,491.463L1059.33,480.944L1062.19,470.261L1064.49,459.443L1066.22,448.519L1067.37,437.52L1067.95,426.475L1067.95,415.415L1067.37,404.37L1066.22,393.371L1064.49,382.447L1062.19,371.629L1059.33,360.946L1055.91,350.427L1051.94,340.102L1047.45,329.998L1042.42,320.143L1036.89,310.565L1030.87,301.29L1024.37,292.342L1017.41,283.747L1010.01,275.528L1002.19,267.707L993.97,260.306L985.375,253.346L976.427,246.845L967.151,240.822L957.573,235.292L947.719,230.271L937.615,225.772L927.29,221.809L916.771,218.391L906.088,215.528L895.27,213.229L884.346,211.499L873.346,210.343L862.302,209.764M856.772,209.764L338.031,209.764M338.031,252.283L856.772,252.283M37.75,635.187L31.627,629.065M37.75,212.825L31.627,206.702M34.689,632.126L29.586,632.126M34.689,632.126L39.791,632.126" style="fill:none;fill-rule:nonzero;stroke:black;stroke-width:0.99px;"/>
    </g>
    <g transform="matrix(4.16667,0,0,4.16667,0,0.000958333)">
        <path d="M34.689,209.764L29.586,209.764M34.689,209.764L39.791,209.764M34.689,632.126L34.689,637.228M34.689,209.764L34.689,204.661" style="fill:none;fill-rule:nonzero;stroke:black;stroke-width:0.99px;"/>
    </g>
    <g transform="matrix(4.16667,0,0,4.16667,0,0.000958333)">
        <path d="M34.689,632.126L34.689,209.764M71.766,592.668L65.643,586.545M71.766,255.807L65.643,249.684M68.704,589.606L63.602,589.606M68.704,589.606L73.807,589.606M68.704,252.746L63.602,252.746M68.704,252.746L73.807,252.746M68.704,589.606L68.704,594.709M68.704,252.746L68.704,247.643" style="fill:none;fill-rule:nonzero;stroke:black;stroke-width:0.99px;"/>
    </g>
    <g transform="matrix(4.16667,0,0,4.16667,0,-473.327)">
        <path d="M68.704,703.205L68.704,366.344M123.789,260.447L129.912,254.324M1064.89,260.447L1071.01,254.324M126.85,257.386L126.85,252.283M126.85,257.386L126.85,262.488M1067.95,257.386L1067.95,252.283M1067.95,257.386L1067.95,262.488M126.85,257.386L121.748,257.386M1067.95,257.386L1073.06,257.386" style="fill:none;fill-rule:nonzero;stroke:black;stroke-width:0.99px;"/>
    </g>
    <g transform="matrix(4.16667,0,0,4.16667,0,-2140.75)">
        <path d="M126.85,657.567L1067.95,657.567M166.309,696.062L172.432,689.939M1022.37,696.062L1028.5,689.939M169.37,693L169.37,687.898M169.37,693L169.37,698.103M1025.43,693L1025.43,687.898M1025.43,693L1025.43,698.103M169.37,693L164.268,693M1025.43,693L1030.54,693" style="fill:none;fill-rule:nonzero;stroke:black;stroke-width:0.99px;"/>
    </g>
    <g transform="matrix(0,-4.16667,4.16667,0,0,0)">
        <text x="-441.686px" y="31.744px" style="font-family:'EuclidCircularA-Semibold', 'Euclid Circular A', sans-serif;font-weight:600;font-size:19.958px;">3.00</text>
        <text x="-474.815px" y="64.273px" style="font-family:'EuclidCircularA-Semibold', 'Euclid Circular A', sans-serif;font-weight:600;font-size:19.958px;">2.40	<tspan x="-418.353px " y="64.273px ">(</tspan>2.35)</text>
    </g>
    <g transform="matrix(4.16667,0,0,4.16667,0,0)">
        <text x="577.931px" y="140.843px" style="font-family:'EuclidCircularA-Semibold', 'Euclid Circular A', sans-serif;font-weight:600;font-size:19.958px;">6.65</text>
        <text x="545.758px" y="174.789px" style="font-family:'EuclidCircularA-Semibold', 'Euclid Circular A', sans-serif;font-weight:600;font-size:19.958px;">6.05  (6.00)</text>
        <text x="563.803px" y="559.84px" style="font-family:'EuclidCircularA-Semibold', 'Euclid Circular A', sans-serif;font-weight:600;font-size:27.941px;">13 m²</text>
    </g>
    <g transform="matrix(4.16667,0,0,4.16667,0,-2014.37)">
        <path d="M169.37,662.67L1025.43,662.67" style="fill:none;fill-rule:nonzero;stroke:black;stroke-width:0.99px;"/>
    </g>
    <g transform="matrix(4.16667,0,0,4.16667,0,1080.32)">
        <path d="M631.472,307.843L634.343,307.591L637.127,306.845L639.739,305.627L642.1,303.974L644.138,301.936L645.792,299.575L647.01,296.963L647.756,294.178L648.007,291.307L647.756,288.436L647.01,285.652L645.792,283.039L644.138,280.678L642.1,278.64L639.739,276.987L637.127,275.769L634.343,275.023L631.472,274.772L563.504,274.772L560.633,275.023L557.849,275.769L555.236,276.987L552.875,278.64L550.837,280.678L549.184,283.039L547.966,285.652L547.22,288.436L546.969,291.307L547.22,294.178L547.966,296.963L549.184,299.575L550.837,301.936L552.875,303.974L555.236,305.627L557.849,306.845L560.633,307.591L563.504,307.843L631.472,307.843" style="fill:none;fill-rule:nonzero;stroke:black;stroke-width:0.99px;"/>
    </g>
</svg>
